G04 #@! TF.GenerationSoftware,KiCad,Pcbnew,6.0.10+dfsg-1~bpo11+1*
G04 #@! TF.ProjectId,pwr,7077722e-6b69-4636-9164-5f7063625858,rev?*
G04 #@! TF.SameCoordinates,Original*
G04 #@! TF.FileFunction,Soldermask,Bot*
G04 #@! TF.FilePolarity,Negative*
%FSLAX46Y46*%
G04 Gerber Fmt 4.6, Leading zero omitted, Abs format (unit mm)*
%MOMM*%
%LPD*%
G01*
G04 APERTURE LIST*
G04 #@! TA.AperFunction,Profile*
%ADD10C,0.100000*%
G04 #@! TD*
%ADD11C,0.700000*%
%ADD12C,0.800000*%
%ADD13C,6.400000*%
%ADD14C,3.000000*%
%ADD15C,1.700000*%
G04 APERTURE END LIST*
D10*
X184000000Y-60000000D02*
G75*
G03*
X179000000Y-55000000I-5000000J0D01*
G01*
X179000000Y-132500000D02*
G75*
G03*
X184000000Y-127500000I0J5000000D01*
G01*
X109000000Y-127500000D02*
X109000000Y-60000000D01*
X179000000Y-132500000D02*
X114000000Y-132500000D01*
X114000000Y-55000000D02*
G75*
G03*
X109000000Y-60000000I0J-5000000D01*
G01*
X184000000Y-60000000D02*
X184000000Y-127500000D01*
X109000000Y-127500000D02*
G75*
G03*
X114000000Y-132500000I5000000J0D01*
G01*
X114000000Y-55000000D02*
X179000000Y-55000000D01*
D11*
X165750000Y-112000000D03*
G36*
X165475000Y-111450000D02*
G01*
X165632160Y-111466102D01*
X165802529Y-111522611D01*
X165955329Y-111616798D01*
X166082362Y-111743610D01*
X166176816Y-111896245D01*
X166233622Y-112066516D01*
X166250000Y-112225000D01*
X166250000Y-113930000D01*
X165630000Y-114550000D01*
X162525000Y-114550000D01*
X162367840Y-114533898D01*
X162197471Y-114477389D01*
X162044671Y-114383202D01*
X161917638Y-114256390D01*
X161823184Y-114103755D01*
X161766378Y-113933484D01*
X161750000Y-113775000D01*
X161750000Y-112225000D01*
X161766102Y-112067840D01*
X161822611Y-111897471D01*
X161916798Y-111744671D01*
X162043610Y-111617638D01*
X162196245Y-111523184D01*
X162366516Y-111466378D01*
X162525000Y-111450000D01*
X165475000Y-111450000D01*
G37*
X162250000Y-112000000D03*
X162250000Y-114000000D03*
X165750000Y-114000000D03*
X165750000Y-110500000D03*
X165750000Y-108500000D03*
G36*
G01*
X162525000Y-107950000D02*
X165475000Y-107950000D01*
G75*
G02*
X166250000Y-108725000I0J-775000D01*
G01*
X166250000Y-110275000D01*
G75*
G02*
X165475000Y-111050000I-775000J0D01*
G01*
X162525000Y-111050000D01*
G75*
G02*
X161750000Y-110275000I0J775000D01*
G01*
X161750000Y-108725000D01*
G75*
G02*
X162525000Y-107950000I775000J0D01*
G01*
G37*
X162250000Y-110500000D03*
X162250000Y-108500000D03*
X162250000Y-104984000D03*
X162250000Y-107016000D03*
X165750000Y-105000000D03*
X165750000Y-107016000D03*
G36*
G01*
X162525000Y-104450000D02*
X165475000Y-104450000D01*
G75*
G02*
X166250000Y-105225000I0J-775000D01*
G01*
X166250000Y-106775000D01*
G75*
G02*
X165475000Y-107550000I-775000J0D01*
G01*
X162525000Y-107550000D01*
G75*
G02*
X161750000Y-106775000I0J775000D01*
G01*
X161750000Y-105225000D01*
G75*
G02*
X162525000Y-104450000I775000J0D01*
G01*
G37*
X162250000Y-67000000D03*
X165750000Y-67000000D03*
X165750000Y-69000000D03*
X162250000Y-69000000D03*
G36*
X165475000Y-66450000D02*
G01*
X165632160Y-66466102D01*
X165802529Y-66522611D01*
X165955329Y-66616798D01*
X166082362Y-66743610D01*
X166176816Y-66896245D01*
X166233622Y-67066516D01*
X166250000Y-67225000D01*
X166250000Y-68930000D01*
X165630000Y-69550000D01*
X162525000Y-69550000D01*
X162367840Y-69533898D01*
X162197471Y-69477389D01*
X162044671Y-69383202D01*
X161917638Y-69256390D01*
X161823184Y-69103755D01*
X161766378Y-68933484D01*
X161750000Y-68775000D01*
X161750000Y-67225000D01*
X161766102Y-67067840D01*
X161822611Y-66897471D01*
X161916798Y-66744671D01*
X162043610Y-66617638D01*
X162196245Y-66523184D01*
X162366516Y-66466378D01*
X162525000Y-66450000D01*
X165475000Y-66450000D01*
G37*
G36*
G01*
X162525000Y-62950000D02*
X165475000Y-62950000D01*
G75*
G02*
X166250000Y-63725000I0J-775000D01*
G01*
X166250000Y-65275000D01*
G75*
G02*
X165475000Y-66050000I-775000J0D01*
G01*
X162525000Y-66050000D01*
G75*
G02*
X161750000Y-65275000I0J775000D01*
G01*
X161750000Y-63725000D01*
G75*
G02*
X162525000Y-62950000I775000J0D01*
G01*
G37*
X165750000Y-65500000D03*
X165750000Y-63500000D03*
X162250000Y-63500000D03*
X162250000Y-65500000D03*
G36*
G01*
X162525000Y-59450000D02*
X165475000Y-59450000D01*
G75*
G02*
X166250000Y-60225000I0J-775000D01*
G01*
X166250000Y-61775000D01*
G75*
G02*
X165475000Y-62550000I-775000J0D01*
G01*
X162525000Y-62550000D01*
G75*
G02*
X161750000Y-61775000I0J775000D01*
G01*
X161750000Y-60225000D01*
G75*
G02*
X162525000Y-59450000I775000J0D01*
G01*
G37*
X165750000Y-62016000D03*
X165750000Y-60000000D03*
X162250000Y-62016000D03*
X162250000Y-59984000D03*
G36*
X165475000Y-126450000D02*
G01*
X165632160Y-126466102D01*
X165802529Y-126522611D01*
X165955329Y-126616798D01*
X166082362Y-126743610D01*
X166176816Y-126896245D01*
X166233622Y-127066516D01*
X166250000Y-127225000D01*
X166250000Y-128930000D01*
X165630000Y-129550000D01*
X162525000Y-129550000D01*
X162367840Y-129533898D01*
X162197471Y-129477389D01*
X162044671Y-129383202D01*
X161917638Y-129256390D01*
X161823184Y-129103755D01*
X161766378Y-128933484D01*
X161750000Y-128775000D01*
X161750000Y-127225000D01*
X161766102Y-127067840D01*
X161822611Y-126897471D01*
X161916798Y-126744671D01*
X162043610Y-126617638D01*
X162196245Y-126523184D01*
X162366516Y-126466378D01*
X162525000Y-126450000D01*
X165475000Y-126450000D01*
G37*
X162250000Y-127000000D03*
X165750000Y-127000000D03*
X162250000Y-129000000D03*
X165750000Y-129000000D03*
G36*
G01*
X162525000Y-122950000D02*
X165475000Y-122950000D01*
G75*
G02*
X166250000Y-123725000I0J-775000D01*
G01*
X166250000Y-125275000D01*
G75*
G02*
X165475000Y-126050000I-775000J0D01*
G01*
X162525000Y-126050000D01*
G75*
G02*
X161750000Y-125275000I0J775000D01*
G01*
X161750000Y-123725000D01*
G75*
G02*
X162525000Y-122950000I775000J0D01*
G01*
G37*
X162250000Y-125500000D03*
X165750000Y-123500000D03*
X165750000Y-125500000D03*
X162250000Y-123500000D03*
G36*
G01*
X162525000Y-119450000D02*
X165475000Y-119450000D01*
G75*
G02*
X166250000Y-120225000I0J-775000D01*
G01*
X166250000Y-121775000D01*
G75*
G02*
X165475000Y-122550000I-775000J0D01*
G01*
X162525000Y-122550000D01*
G75*
G02*
X161750000Y-121775000I0J775000D01*
G01*
X161750000Y-120225000D01*
G75*
G02*
X162525000Y-119450000I775000J0D01*
G01*
G37*
X165750000Y-120000000D03*
X162250000Y-119984000D03*
X165750000Y-122016000D03*
X162250000Y-122016000D03*
D12*
X179000000Y-127400000D03*
X177302944Y-126697056D03*
X181400000Y-125000000D03*
X177302944Y-123302944D03*
X180697056Y-123302944D03*
X179000000Y-122600000D03*
D13*
X179000000Y-125000000D03*
D12*
X180697056Y-126697056D03*
X176600000Y-125000000D03*
X131400000Y-125000000D03*
X129000000Y-122600000D03*
X130697056Y-123302944D03*
X129000000Y-127400000D03*
X126600000Y-125000000D03*
X127302944Y-123302944D03*
D13*
X129000000Y-125000000D03*
D12*
X127302944Y-126697056D03*
X130697056Y-126697056D03*
D11*
X165750000Y-99000000D03*
X162250000Y-97000000D03*
G36*
X165475000Y-96450000D02*
G01*
X165632160Y-96466102D01*
X165802529Y-96522611D01*
X165955329Y-96616798D01*
X166082362Y-96743610D01*
X166176816Y-96896245D01*
X166233622Y-97066516D01*
X166250000Y-97225000D01*
X166250000Y-98930000D01*
X165630000Y-99550000D01*
X162525000Y-99550000D01*
X162367840Y-99533898D01*
X162197471Y-99477389D01*
X162044671Y-99383202D01*
X161917638Y-99256390D01*
X161823184Y-99103755D01*
X161766378Y-98933484D01*
X161750000Y-98775000D01*
X161750000Y-97225000D01*
X161766102Y-97067840D01*
X161822611Y-96897471D01*
X161916798Y-96744671D01*
X162043610Y-96617638D01*
X162196245Y-96523184D01*
X162366516Y-96466378D01*
X162525000Y-96450000D01*
X165475000Y-96450000D01*
G37*
X165750000Y-97000000D03*
X162250000Y-99000000D03*
X162250000Y-95500000D03*
X165750000Y-95500000D03*
X162250000Y-93500000D03*
G36*
G01*
X162525000Y-92950000D02*
X165475000Y-92950000D01*
G75*
G02*
X166250000Y-93725000I0J-775000D01*
G01*
X166250000Y-95275000D01*
G75*
G02*
X165475000Y-96050000I-775000J0D01*
G01*
X162525000Y-96050000D01*
G75*
G02*
X161750000Y-95275000I0J775000D01*
G01*
X161750000Y-93725000D01*
G75*
G02*
X162525000Y-92950000I775000J0D01*
G01*
G37*
X165750000Y-93500000D03*
X165750000Y-90000000D03*
X162250000Y-89984000D03*
X165750000Y-92016000D03*
G36*
G01*
X162525000Y-89450000D02*
X165475000Y-89450000D01*
G75*
G02*
X166250000Y-90225000I0J-775000D01*
G01*
X166250000Y-91775000D01*
G75*
G02*
X165475000Y-92550000I-775000J0D01*
G01*
X162525000Y-92550000D01*
G75*
G02*
X161750000Y-91775000I0J775000D01*
G01*
X161750000Y-90225000D01*
G75*
G02*
X162525000Y-89450000I775000J0D01*
G01*
G37*
X162250000Y-92016000D03*
D14*
X129000000Y-58000000D03*
D12*
X129000000Y-62600000D03*
X127302944Y-63302944D03*
D13*
X129000000Y-65000000D03*
D12*
X130697056Y-63302944D03*
X126600000Y-65000000D03*
X129000000Y-67400000D03*
X130697056Y-66697056D03*
X127302944Y-66697056D03*
X131400000Y-65000000D03*
G36*
G01*
X122350000Y-88020000D02*
X122350000Y-89220000D01*
G75*
G02*
X122100000Y-89470000I-250000J0D01*
G01*
X120900000Y-89470000D01*
G75*
G02*
X120650000Y-89220000I0J250000D01*
G01*
X120650000Y-88020000D01*
G75*
G02*
X120900000Y-87770000I250000J0D01*
G01*
X122100000Y-87770000D01*
G75*
G02*
X122350000Y-88020000I0J-250000D01*
G01*
G37*
D15*
X118960000Y-88620000D03*
X121500000Y-86080000D03*
X118960000Y-86080000D03*
X121500000Y-83540000D03*
X118960000Y-83540000D03*
X121500000Y-81000000D03*
X118960000Y-81000000D03*
X121500000Y-78460000D03*
X118960000Y-78460000D03*
X121500000Y-75920000D03*
X118960000Y-75920000D03*
X121500000Y-73380000D03*
X118960000Y-73380000D03*
X121500000Y-70840000D03*
X118960000Y-70840000D03*
D12*
X129000000Y-97400000D03*
X129000000Y-92600000D03*
X130697056Y-96697056D03*
D13*
X129000000Y-95000000D03*
D12*
X127302944Y-93302944D03*
X127302944Y-96697056D03*
X131400000Y-95000000D03*
X126600000Y-95000000D03*
X130697056Y-93302944D03*
D11*
X162250000Y-84000000D03*
G36*
X165475000Y-81450000D02*
G01*
X165632160Y-81466102D01*
X165802529Y-81522611D01*
X165955329Y-81616798D01*
X166082362Y-81743610D01*
X166176816Y-81896245D01*
X166233622Y-82066516D01*
X166250000Y-82225000D01*
X166250000Y-83930000D01*
X165630000Y-84550000D01*
X162525000Y-84550000D01*
X162367840Y-84533898D01*
X162197471Y-84477389D01*
X162044671Y-84383202D01*
X161917638Y-84256390D01*
X161823184Y-84103755D01*
X161766378Y-83933484D01*
X161750000Y-83775000D01*
X161750000Y-82225000D01*
X161766102Y-82067840D01*
X161822611Y-81897471D01*
X161916798Y-81744671D01*
X162043610Y-81617638D01*
X162196245Y-81523184D01*
X162366516Y-81466378D01*
X162525000Y-81450000D01*
X165475000Y-81450000D01*
G37*
X165750000Y-84000000D03*
X162250000Y-82000000D03*
X165750000Y-82000000D03*
X162250000Y-78500000D03*
X162250000Y-80500000D03*
G36*
G01*
X162525000Y-77950000D02*
X165475000Y-77950000D01*
G75*
G02*
X166250000Y-78725000I0J-775000D01*
G01*
X166250000Y-80275000D01*
G75*
G02*
X165475000Y-81050000I-775000J0D01*
G01*
X162525000Y-81050000D01*
G75*
G02*
X161750000Y-80275000I0J775000D01*
G01*
X161750000Y-78725000D01*
G75*
G02*
X162525000Y-77950000I775000J0D01*
G01*
G37*
X165750000Y-80500000D03*
X165750000Y-78500000D03*
X165750000Y-75000000D03*
G36*
G01*
X162525000Y-74450000D02*
X165475000Y-74450000D01*
G75*
G02*
X166250000Y-75225000I0J-775000D01*
G01*
X166250000Y-76775000D01*
G75*
G02*
X165475000Y-77550000I-775000J0D01*
G01*
X162525000Y-77550000D01*
G75*
G02*
X161750000Y-76775000I0J775000D01*
G01*
X161750000Y-75225000D01*
G75*
G02*
X162525000Y-74450000I775000J0D01*
G01*
G37*
X165750000Y-77016000D03*
X162250000Y-74984000D03*
X162250000Y-77016000D03*
D12*
X181400000Y-95000000D03*
X176600000Y-95000000D03*
X180697056Y-93302944D03*
X177302944Y-96697056D03*
X179000000Y-97400000D03*
D13*
X179000000Y-95000000D03*
D12*
X177302944Y-93302944D03*
X179000000Y-92600000D03*
X180697056Y-96697056D03*
X176600000Y-65000000D03*
D13*
X179000000Y-65000000D03*
D12*
X177302944Y-66697056D03*
X180697056Y-63302944D03*
X179000000Y-62600000D03*
X177302944Y-63302944D03*
X181400000Y-65000000D03*
X180697056Y-66697056D03*
X179000000Y-67400000D03*
D11*
X158278000Y-106484000D03*
X157516000Y-105722000D03*
X158278000Y-108516000D03*
X155484000Y-109278000D03*
X154722000Y-106484000D03*
X154722000Y-108516000D03*
X155484000Y-105722000D03*
X157516000Y-109278000D03*
X154468000Y-107500000D03*
G36*
G01*
X155075000Y-105350000D02*
X157925000Y-105350000D01*
G75*
G02*
X159000000Y-106425000I0J-1075000D01*
G01*
X159000000Y-108575000D01*
G75*
G02*
X157925000Y-109650000I-1075000J0D01*
G01*
X155075000Y-109650000D01*
G75*
G02*
X154000000Y-108575000I0J1075000D01*
G01*
X154000000Y-106425000D01*
G75*
G02*
X155075000Y-105350000I1075000J0D01*
G01*
G37*
X158532000Y-107500000D03*
X154468000Y-112500000D03*
X158532000Y-112500000D03*
G36*
G01*
X155075000Y-110350000D02*
X157925000Y-110350000D01*
G75*
G02*
X159000000Y-111425000I0J-1075000D01*
G01*
X159000000Y-113575000D01*
G75*
G02*
X157925000Y-114650000I-1075000J0D01*
G01*
X155075000Y-114650000D01*
G75*
G02*
X154000000Y-113575000I0J1075000D01*
G01*
X154000000Y-111425000D01*
G75*
G02*
X155075000Y-110350000I1075000J0D01*
G01*
G37*
X155484000Y-110722000D03*
X154722000Y-113516000D03*
X157516000Y-110722000D03*
X158278000Y-113516000D03*
X155484000Y-114278000D03*
X154722000Y-111484000D03*
X157516000Y-114278000D03*
X158278000Y-111484000D03*
X173278000Y-63516000D03*
X172516000Y-60722000D03*
X173278000Y-61484000D03*
X170484000Y-60722000D03*
X169722000Y-63516000D03*
X173532000Y-62500000D03*
X170484000Y-64278000D03*
X169722000Y-61484000D03*
X172516000Y-64278000D03*
G36*
G01*
X170075000Y-60350000D02*
X172925000Y-60350000D01*
G75*
G02*
X174000000Y-61425000I0J-1075000D01*
G01*
X174000000Y-63575000D01*
G75*
G02*
X172925000Y-64650000I-1075000J0D01*
G01*
X170075000Y-64650000D01*
G75*
G02*
X169000000Y-63575000I0J1075000D01*
G01*
X169000000Y-61425000D01*
G75*
G02*
X170075000Y-60350000I1075000J0D01*
G01*
G37*
X169468000Y-62500000D03*
X172516000Y-65722000D03*
X173278000Y-66484000D03*
X169468000Y-67500000D03*
X169722000Y-68516000D03*
X173532000Y-67500000D03*
X170484000Y-69278000D03*
X172516000Y-69278000D03*
X173278000Y-68516000D03*
X169722000Y-66484000D03*
G36*
G01*
X170075000Y-65350000D02*
X172925000Y-65350000D01*
G75*
G02*
X174000000Y-66425000I0J-1075000D01*
G01*
X174000000Y-68575000D01*
G75*
G02*
X172925000Y-69650000I-1075000J0D01*
G01*
X170075000Y-69650000D01*
G75*
G02*
X169000000Y-68575000I0J1075000D01*
G01*
X169000000Y-66425000D01*
G75*
G02*
X170075000Y-65350000I1075000J0D01*
G01*
G37*
X170484000Y-65722000D03*
X157516000Y-79278000D03*
X155484000Y-79278000D03*
X155484000Y-75722000D03*
X158532000Y-77500000D03*
X157516000Y-75722000D03*
X158278000Y-76484000D03*
X154722000Y-78516000D03*
G36*
G01*
X155075000Y-75350000D02*
X157925000Y-75350000D01*
G75*
G02*
X159000000Y-76425000I0J-1075000D01*
G01*
X159000000Y-78575000D01*
G75*
G02*
X157925000Y-79650000I-1075000J0D01*
G01*
X155075000Y-79650000D01*
G75*
G02*
X154000000Y-78575000I0J1075000D01*
G01*
X154000000Y-76425000D01*
G75*
G02*
X155075000Y-75350000I1075000J0D01*
G01*
G37*
X154722000Y-76484000D03*
X154468000Y-77500000D03*
X158278000Y-78516000D03*
X154722000Y-81484000D03*
X155484000Y-84278000D03*
X157516000Y-84278000D03*
X157516000Y-80722000D03*
G36*
G01*
X155075000Y-80350000D02*
X157925000Y-80350000D01*
G75*
G02*
X159000000Y-81425000I0J-1075000D01*
G01*
X159000000Y-83575000D01*
G75*
G02*
X157925000Y-84650000I-1075000J0D01*
G01*
X155075000Y-84650000D01*
G75*
G02*
X154000000Y-83575000I0J1075000D01*
G01*
X154000000Y-81425000D01*
G75*
G02*
X155075000Y-80350000I1075000J0D01*
G01*
G37*
X158278000Y-83516000D03*
X158532000Y-82500000D03*
X155484000Y-80722000D03*
X154468000Y-82500000D03*
X158278000Y-81484000D03*
X154722000Y-83516000D03*
X155484000Y-64278000D03*
X158278000Y-63516000D03*
X154468000Y-62500000D03*
X154722000Y-63516000D03*
X158278000Y-61484000D03*
X158532000Y-62500000D03*
X154722000Y-61484000D03*
X157516000Y-60722000D03*
X157516000Y-64278000D03*
G36*
G01*
X155075000Y-60350000D02*
X157925000Y-60350000D01*
G75*
G02*
X159000000Y-61425000I0J-1075000D01*
G01*
X159000000Y-63575000D01*
G75*
G02*
X157925000Y-64650000I-1075000J0D01*
G01*
X155075000Y-64650000D01*
G75*
G02*
X154000000Y-63575000I0J1075000D01*
G01*
X154000000Y-61425000D01*
G75*
G02*
X155075000Y-60350000I1075000J0D01*
G01*
G37*
X155484000Y-60722000D03*
X157516000Y-69278000D03*
X155484000Y-69278000D03*
X154722000Y-66484000D03*
X154722000Y-68516000D03*
X154468000Y-67500000D03*
X155484000Y-65722000D03*
X158278000Y-66484000D03*
G36*
G01*
X155075000Y-65350000D02*
X157925000Y-65350000D01*
G75*
G02*
X159000000Y-66425000I0J-1075000D01*
G01*
X159000000Y-68575000D01*
G75*
G02*
X157925000Y-69650000I-1075000J0D01*
G01*
X155075000Y-69650000D01*
G75*
G02*
X154000000Y-68575000I0J1075000D01*
G01*
X154000000Y-66425000D01*
G75*
G02*
X155075000Y-65350000I1075000J0D01*
G01*
G37*
X158278000Y-68516000D03*
X157516000Y-65722000D03*
X158532000Y-67500000D03*
X170484000Y-109278000D03*
X173532000Y-107500000D03*
X169722000Y-108516000D03*
X169722000Y-106484000D03*
G36*
G01*
X170075000Y-105350000D02*
X172925000Y-105350000D01*
G75*
G02*
X174000000Y-106425000I0J-1075000D01*
G01*
X174000000Y-108575000D01*
G75*
G02*
X172925000Y-109650000I-1075000J0D01*
G01*
X170075000Y-109650000D01*
G75*
G02*
X169000000Y-108575000I0J1075000D01*
G01*
X169000000Y-106425000D01*
G75*
G02*
X170075000Y-105350000I1075000J0D01*
G01*
G37*
X172516000Y-105722000D03*
X170484000Y-105722000D03*
X173278000Y-108516000D03*
X169468000Y-107500000D03*
X173278000Y-106484000D03*
X172516000Y-109278000D03*
X170484000Y-114278000D03*
X170484000Y-110722000D03*
X173278000Y-111484000D03*
X172516000Y-110722000D03*
X169722000Y-113516000D03*
X173278000Y-113516000D03*
X172516000Y-114278000D03*
G36*
G01*
X170075000Y-110350000D02*
X172925000Y-110350000D01*
G75*
G02*
X174000000Y-111425000I0J-1075000D01*
G01*
X174000000Y-113575000D01*
G75*
G02*
X172925000Y-114650000I-1075000J0D01*
G01*
X170075000Y-114650000D01*
G75*
G02*
X169000000Y-113575000I0J1075000D01*
G01*
X169000000Y-111425000D01*
G75*
G02*
X170075000Y-110350000I1075000J0D01*
G01*
G37*
X173532000Y-112500000D03*
X169722000Y-111484000D03*
X169468000Y-112500000D03*
G36*
G01*
X170075000Y-120350000D02*
X172925000Y-120350000D01*
G75*
G02*
X174000000Y-121425000I0J-1075000D01*
G01*
X174000000Y-123575000D01*
G75*
G02*
X172925000Y-124650000I-1075000J0D01*
G01*
X170075000Y-124650000D01*
G75*
G02*
X169000000Y-123575000I0J1075000D01*
G01*
X169000000Y-121425000D01*
G75*
G02*
X170075000Y-120350000I1075000J0D01*
G01*
G37*
X173532000Y-122500000D03*
X170484000Y-120722000D03*
X173278000Y-121484000D03*
X169722000Y-121484000D03*
X172516000Y-120722000D03*
X170484000Y-124278000D03*
X169722000Y-123516000D03*
X172516000Y-124278000D03*
X173278000Y-123516000D03*
X169468000Y-122500000D03*
X173278000Y-126484000D03*
X173532000Y-127500000D03*
X172516000Y-129278000D03*
G36*
G01*
X170075000Y-125350000D02*
X172925000Y-125350000D01*
G75*
G02*
X174000000Y-126425000I0J-1075000D01*
G01*
X174000000Y-128575000D01*
G75*
G02*
X172925000Y-129650000I-1075000J0D01*
G01*
X170075000Y-129650000D01*
G75*
G02*
X169000000Y-128575000I0J1075000D01*
G01*
X169000000Y-126425000D01*
G75*
G02*
X170075000Y-125350000I1075000J0D01*
G01*
G37*
X172516000Y-125722000D03*
X170484000Y-129278000D03*
X173278000Y-128516000D03*
X170484000Y-125722000D03*
X169468000Y-127500000D03*
X169722000Y-126484000D03*
X169722000Y-128516000D03*
X154468000Y-122500000D03*
X158532000Y-122500000D03*
X157516000Y-120722000D03*
X154722000Y-123516000D03*
X154722000Y-121484000D03*
X158278000Y-123516000D03*
X158278000Y-121484000D03*
X155484000Y-120722000D03*
G36*
G01*
X155075000Y-120350000D02*
X157925000Y-120350000D01*
G75*
G02*
X159000000Y-121425000I0J-1075000D01*
G01*
X159000000Y-123575000D01*
G75*
G02*
X157925000Y-124650000I-1075000J0D01*
G01*
X155075000Y-124650000D01*
G75*
G02*
X154000000Y-123575000I0J1075000D01*
G01*
X154000000Y-121425000D01*
G75*
G02*
X155075000Y-120350000I1075000J0D01*
G01*
G37*
X155484000Y-124278000D03*
X157516000Y-124278000D03*
X157516000Y-125722000D03*
X158278000Y-126484000D03*
X157516000Y-129278000D03*
X154468000Y-127500000D03*
X158532000Y-127500000D03*
X155484000Y-129278000D03*
X154722000Y-128516000D03*
X155484000Y-125722000D03*
G36*
G01*
X155075000Y-125350000D02*
X157925000Y-125350000D01*
G75*
G02*
X159000000Y-126425000I0J-1075000D01*
G01*
X159000000Y-128575000D01*
G75*
G02*
X157925000Y-129650000I-1075000J0D01*
G01*
X155075000Y-129650000D01*
G75*
G02*
X154000000Y-128575000I0J1075000D01*
G01*
X154000000Y-126425000D01*
G75*
G02*
X155075000Y-125350000I1075000J0D01*
G01*
G37*
X154722000Y-126484000D03*
X158278000Y-128516000D03*
X172516000Y-90722000D03*
G36*
G01*
X170075000Y-90350000D02*
X172925000Y-90350000D01*
G75*
G02*
X174000000Y-91425000I0J-1075000D01*
G01*
X174000000Y-93575000D01*
G75*
G02*
X172925000Y-94650000I-1075000J0D01*
G01*
X170075000Y-94650000D01*
G75*
G02*
X169000000Y-93575000I0J1075000D01*
G01*
X169000000Y-91425000D01*
G75*
G02*
X170075000Y-90350000I1075000J0D01*
G01*
G37*
X169722000Y-91484000D03*
X169468000Y-92500000D03*
X170484000Y-90722000D03*
X172516000Y-94278000D03*
X170484000Y-94278000D03*
X173532000Y-92500000D03*
X173278000Y-91484000D03*
X173278000Y-93516000D03*
X169722000Y-93516000D03*
X169468000Y-97500000D03*
X170484000Y-99278000D03*
X173278000Y-98516000D03*
X169722000Y-96484000D03*
X173278000Y-96484000D03*
X173532000Y-97500000D03*
X170484000Y-95722000D03*
X172516000Y-95722000D03*
X169722000Y-98516000D03*
X172516000Y-99278000D03*
G36*
G01*
X170075000Y-95350000D02*
X172925000Y-95350000D01*
G75*
G02*
X174000000Y-96425000I0J-1075000D01*
G01*
X174000000Y-98575000D01*
G75*
G02*
X172925000Y-99650000I-1075000J0D01*
G01*
X170075000Y-99650000D01*
G75*
G02*
X169000000Y-98575000I0J1075000D01*
G01*
X169000000Y-96425000D01*
G75*
G02*
X170075000Y-95350000I1075000J0D01*
G01*
G37*
X170484000Y-75722000D03*
X173532000Y-77500000D03*
X173278000Y-78516000D03*
X172516000Y-75722000D03*
X170484000Y-79278000D03*
X173278000Y-76484000D03*
G36*
G01*
X170075000Y-75350000D02*
X172925000Y-75350000D01*
G75*
G02*
X174000000Y-76425000I0J-1075000D01*
G01*
X174000000Y-78575000D01*
G75*
G02*
X172925000Y-79650000I-1075000J0D01*
G01*
X170075000Y-79650000D01*
G75*
G02*
X169000000Y-78575000I0J1075000D01*
G01*
X169000000Y-76425000D01*
G75*
G02*
X170075000Y-75350000I1075000J0D01*
G01*
G37*
X169722000Y-76484000D03*
X169468000Y-77500000D03*
X169722000Y-78516000D03*
X172516000Y-79278000D03*
X170484000Y-80722000D03*
X169468000Y-82500000D03*
G36*
G01*
X170075000Y-80350000D02*
X172925000Y-80350000D01*
G75*
G02*
X174000000Y-81425000I0J-1075000D01*
G01*
X174000000Y-83575000D01*
G75*
G02*
X172925000Y-84650000I-1075000J0D01*
G01*
X170075000Y-84650000D01*
G75*
G02*
X169000000Y-83575000I0J1075000D01*
G01*
X169000000Y-81425000D01*
G75*
G02*
X170075000Y-80350000I1075000J0D01*
G01*
G37*
X172516000Y-84278000D03*
X169722000Y-81484000D03*
X169722000Y-83516000D03*
X173278000Y-81484000D03*
X172516000Y-80722000D03*
X173532000Y-82500000D03*
X170484000Y-84278000D03*
X173278000Y-83516000D03*
X157516000Y-90722000D03*
X158278000Y-93516000D03*
X155484000Y-94278000D03*
X158532000Y-92500000D03*
X154722000Y-93516000D03*
X155484000Y-90722000D03*
X157516000Y-94278000D03*
X158278000Y-91484000D03*
X154722000Y-91484000D03*
G36*
G01*
X155075000Y-90350000D02*
X157925000Y-90350000D01*
G75*
G02*
X159000000Y-91425000I0J-1075000D01*
G01*
X159000000Y-93575000D01*
G75*
G02*
X157925000Y-94650000I-1075000J0D01*
G01*
X155075000Y-94650000D01*
G75*
G02*
X154000000Y-93575000I0J1075000D01*
G01*
X154000000Y-91425000D01*
G75*
G02*
X155075000Y-90350000I1075000J0D01*
G01*
G37*
X154468000Y-92500000D03*
X158532000Y-97500000D03*
X158278000Y-98516000D03*
X155484000Y-99278000D03*
X158278000Y-96484000D03*
X154722000Y-96484000D03*
X157516000Y-99278000D03*
X155484000Y-95722000D03*
X154468000Y-97500000D03*
X157516000Y-95722000D03*
X154722000Y-98516000D03*
G36*
G01*
X155075000Y-95350000D02*
X157925000Y-95350000D01*
G75*
G02*
X159000000Y-96425000I0J-1075000D01*
G01*
X159000000Y-98575000D01*
G75*
G02*
X157925000Y-99650000I-1075000J0D01*
G01*
X155075000Y-99650000D01*
G75*
G02*
X154000000Y-98575000I0J1075000D01*
G01*
X154000000Y-96425000D01*
G75*
G02*
X155075000Y-95350000I1075000J0D01*
G01*
G37*
M02*
