G04 #@! TF.GenerationSoftware,KiCad,Pcbnew,6.0.10+dfsg-1~bpo11+1*
G04 #@! TF.ProjectId,pwr,7077722e-6b69-4636-9164-5f7063625858,rev?*
G04 #@! TF.SameCoordinates,Original*
G04 #@! TF.FileFunction,Soldermask,Top*
G04 #@! TF.FilePolarity,Negative*
%FSLAX46Y46*%
G04 Gerber Fmt 4.6, Leading zero omitted, Abs format (unit mm)*
%MOMM*%
%LPD*%
G01*
G04 APERTURE LIST*
G04 #@! TA.AperFunction,Profile*
%ADD10C,0.100000*%
G04 #@! TD*
%ADD11C,2.500000*%
%ADD12C,0.800000*%
%ADD13C,6.400000*%
%ADD14C,0.700000*%
%ADD15R,2.500000X1.800000*%
%ADD16R,0.650000X0.500000*%
%ADD17R,4.120000X4.600000*%
%ADD18R,0.550000X0.500000*%
%ADD19R,0.340000X0.700000*%
%ADD20C,3.000000*%
%ADD21C,1.700000*%
G04 APERTURE END LIST*
D10*
X184000000Y-130000000D02*
G75*
G03*
X189000000Y-125000000I0J5000000D01*
G01*
X111500000Y-125000000D02*
G75*
G03*
X116500000Y-130000000I5000000J0D01*
G01*
X116500000Y-55000000D02*
X184000000Y-55000000D01*
X111500000Y-125000000D02*
X111500000Y-60000000D01*
X189000000Y-60000000D02*
G75*
G03*
X184000000Y-55000000I-5000000J0D01*
G01*
X184000000Y-130000000D02*
X116500000Y-130000000D01*
X116500000Y-55000000D02*
G75*
G03*
X111500000Y-60000000I0J-5000000D01*
G01*
X189000000Y-60000000D02*
X189000000Y-125000000D01*
G36*
G01*
X161050000Y-83400000D02*
X161950000Y-83400000D01*
G75*
G02*
X162200000Y-83650000I0J-250000D01*
G01*
X162200000Y-84350000D01*
G75*
G02*
X161950000Y-84600000I-250000J0D01*
G01*
X161050000Y-84600000D01*
G75*
G02*
X160800000Y-84350000I0J250000D01*
G01*
X160800000Y-83650000D01*
G75*
G02*
X161050000Y-83400000I250000J0D01*
G01*
G37*
G36*
G01*
X161050000Y-85400000D02*
X161950000Y-85400000D01*
G75*
G02*
X162200000Y-85650000I0J-250000D01*
G01*
X162200000Y-86350000D01*
G75*
G02*
X161950000Y-86600000I-250000J0D01*
G01*
X161050000Y-86600000D01*
G75*
G02*
X160800000Y-86350000I0J250000D01*
G01*
X160800000Y-85650000D01*
G75*
G02*
X161050000Y-85400000I250000J0D01*
G01*
G37*
G36*
G01*
X180950000Y-68100000D02*
X180050000Y-68100000D01*
G75*
G02*
X179800000Y-67850000I0J250000D01*
G01*
X179800000Y-67150000D01*
G75*
G02*
X180050000Y-66900000I250000J0D01*
G01*
X180950000Y-66900000D01*
G75*
G02*
X181200000Y-67150000I0J-250000D01*
G01*
X181200000Y-67850000D01*
G75*
G02*
X180950000Y-68100000I-250000J0D01*
G01*
G37*
G36*
G01*
X180950000Y-66100000D02*
X180050000Y-66100000D01*
G75*
G02*
X179800000Y-65850000I0J250000D01*
G01*
X179800000Y-65150000D01*
G75*
G02*
X180050000Y-64900000I250000J0D01*
G01*
X180950000Y-64900000D01*
G75*
G02*
X181200000Y-65150000I0J-250000D01*
G01*
X181200000Y-65850000D01*
G75*
G02*
X180950000Y-66100000I-250000J0D01*
G01*
G37*
G36*
G01*
X173050000Y-76647500D02*
X173950000Y-76647500D01*
G75*
G02*
X174200000Y-76897500I0J-250000D01*
G01*
X174200000Y-77597500D01*
G75*
G02*
X173950000Y-77847500I-250000J0D01*
G01*
X173050000Y-77847500D01*
G75*
G02*
X172800000Y-77597500I0J250000D01*
G01*
X172800000Y-76897500D01*
G75*
G02*
X173050000Y-76647500I250000J0D01*
G01*
G37*
G36*
G01*
X173050000Y-78647500D02*
X173950000Y-78647500D01*
G75*
G02*
X174200000Y-78897500I0J-250000D01*
G01*
X174200000Y-79597500D01*
G75*
G02*
X173950000Y-79847500I-250000J0D01*
G01*
X173050000Y-79847500D01*
G75*
G02*
X172800000Y-79597500I0J250000D01*
G01*
X172800000Y-78897500D01*
G75*
G02*
X173050000Y-78647500I250000J0D01*
G01*
G37*
G36*
G01*
X133950000Y-83600000D02*
X133050000Y-83600000D01*
G75*
G02*
X132800000Y-83350000I0J250000D01*
G01*
X132800000Y-82650000D01*
G75*
G02*
X133050000Y-82400000I250000J0D01*
G01*
X133950000Y-82400000D01*
G75*
G02*
X134200000Y-82650000I0J-250000D01*
G01*
X134200000Y-83350000D01*
G75*
G02*
X133950000Y-83600000I-250000J0D01*
G01*
G37*
G36*
G01*
X133950000Y-81600000D02*
X133050000Y-81600000D01*
G75*
G02*
X132800000Y-81350000I0J250000D01*
G01*
X132800000Y-80650000D01*
G75*
G02*
X133050000Y-80400000I250000J0D01*
G01*
X133950000Y-80400000D01*
G75*
G02*
X134200000Y-80650000I0J-250000D01*
G01*
X134200000Y-81350000D01*
G75*
G02*
X133950000Y-81600000I-250000J0D01*
G01*
G37*
D11*
X156000000Y-102000000D03*
G36*
G01*
X182550000Y-88900000D02*
X183450000Y-88900000D01*
G75*
G02*
X183700000Y-89150000I0J-250000D01*
G01*
X183700000Y-89850000D01*
G75*
G02*
X183450000Y-90100000I-250000J0D01*
G01*
X182550000Y-90100000D01*
G75*
G02*
X182300000Y-89850000I0J250000D01*
G01*
X182300000Y-89150000D01*
G75*
G02*
X182550000Y-88900000I250000J0D01*
G01*
G37*
G36*
G01*
X182550000Y-90900000D02*
X183450000Y-90900000D01*
G75*
G02*
X183700000Y-91150000I0J-250000D01*
G01*
X183700000Y-91850000D01*
G75*
G02*
X183450000Y-92100000I-250000J0D01*
G01*
X182550000Y-92100000D01*
G75*
G02*
X182300000Y-91850000I0J250000D01*
G01*
X182300000Y-91150000D01*
G75*
G02*
X182550000Y-90900000I250000J0D01*
G01*
G37*
G36*
G01*
X157375000Y-95675000D02*
X157375000Y-94725000D01*
G75*
G02*
X157625000Y-94475000I250000J0D01*
G01*
X158300000Y-94475000D01*
G75*
G02*
X158550000Y-94725000I0J-250000D01*
G01*
X158550000Y-95675000D01*
G75*
G02*
X158300000Y-95925000I-250000J0D01*
G01*
X157625000Y-95925000D01*
G75*
G02*
X157375000Y-95675000I0J250000D01*
G01*
G37*
G36*
G01*
X159450000Y-95675000D02*
X159450000Y-94725000D01*
G75*
G02*
X159700000Y-94475000I250000J0D01*
G01*
X160375000Y-94475000D01*
G75*
G02*
X160625000Y-94725000I0J-250000D01*
G01*
X160625000Y-95675000D01*
G75*
G02*
X160375000Y-95925000I-250000J0D01*
G01*
X159700000Y-95925000D01*
G75*
G02*
X159450000Y-95675000I0J250000D01*
G01*
G37*
D12*
X179000000Y-122600000D03*
X180697056Y-123302944D03*
X177302944Y-123302944D03*
X179000000Y-127400000D03*
D13*
X179000000Y-125000000D03*
D12*
X176600000Y-125000000D03*
X180697056Y-126697056D03*
X181400000Y-125000000D03*
X177302944Y-126697056D03*
G36*
G01*
X171025000Y-76622500D02*
X171975000Y-76622500D01*
G75*
G02*
X172225000Y-76872500I0J-250000D01*
G01*
X172225000Y-77547500D01*
G75*
G02*
X171975000Y-77797500I-250000J0D01*
G01*
X171025000Y-77797500D01*
G75*
G02*
X170775000Y-77547500I0J250000D01*
G01*
X170775000Y-76872500D01*
G75*
G02*
X171025000Y-76622500I250000J0D01*
G01*
G37*
G36*
G01*
X171025000Y-78697500D02*
X171975000Y-78697500D01*
G75*
G02*
X172225000Y-78947500I0J-250000D01*
G01*
X172225000Y-79622500D01*
G75*
G02*
X171975000Y-79872500I-250000J0D01*
G01*
X171025000Y-79872500D01*
G75*
G02*
X170775000Y-79622500I0J250000D01*
G01*
X170775000Y-78947500D01*
G75*
G02*
X171025000Y-78697500I250000J0D01*
G01*
G37*
G36*
G01*
X156550000Y-76647500D02*
X157450000Y-76647500D01*
G75*
G02*
X157700000Y-76897500I0J-250000D01*
G01*
X157700000Y-77597500D01*
G75*
G02*
X157450000Y-77847500I-250000J0D01*
G01*
X156550000Y-77847500D01*
G75*
G02*
X156300000Y-77597500I0J250000D01*
G01*
X156300000Y-76897500D01*
G75*
G02*
X156550000Y-76647500I250000J0D01*
G01*
G37*
G36*
G01*
X156550000Y-78647500D02*
X157450000Y-78647500D01*
G75*
G02*
X157700000Y-78897500I0J-250000D01*
G01*
X157700000Y-79597500D01*
G75*
G02*
X157450000Y-79847500I-250000J0D01*
G01*
X156550000Y-79847500D01*
G75*
G02*
X156300000Y-79597500I0J250000D01*
G01*
X156300000Y-78897500D01*
G75*
G02*
X156550000Y-78647500I250000J0D01*
G01*
G37*
G36*
G01*
X118950000Y-83600000D02*
X118050000Y-83600000D01*
G75*
G02*
X117800000Y-83350000I0J250000D01*
G01*
X117800000Y-82650000D01*
G75*
G02*
X118050000Y-82400000I250000J0D01*
G01*
X118950000Y-82400000D01*
G75*
G02*
X119200000Y-82650000I0J-250000D01*
G01*
X119200000Y-83350000D01*
G75*
G02*
X118950000Y-83600000I-250000J0D01*
G01*
G37*
G36*
G01*
X118950000Y-81600000D02*
X118050000Y-81600000D01*
G75*
G02*
X117800000Y-81350000I0J250000D01*
G01*
X117800000Y-80650000D01*
G75*
G02*
X118050000Y-80400000I250000J0D01*
G01*
X118950000Y-80400000D01*
G75*
G02*
X119200000Y-80650000I0J-250000D01*
G01*
X119200000Y-81350000D01*
G75*
G02*
X118950000Y-81600000I-250000J0D01*
G01*
G37*
G36*
G01*
X176550000Y-89375000D02*
X177850000Y-89375000D01*
G75*
G02*
X178100000Y-89625000I0J-250000D01*
G01*
X178100000Y-90450000D01*
G75*
G02*
X177850000Y-90700000I-250000J0D01*
G01*
X176550000Y-90700000D01*
G75*
G02*
X176300000Y-90450000I0J250000D01*
G01*
X176300000Y-89625000D01*
G75*
G02*
X176550000Y-89375000I250000J0D01*
G01*
G37*
G36*
G01*
X176550000Y-92500000D02*
X177850000Y-92500000D01*
G75*
G02*
X178100000Y-92750000I0J-250000D01*
G01*
X178100000Y-93575000D01*
G75*
G02*
X177850000Y-93825000I-250000J0D01*
G01*
X176550000Y-93825000D01*
G75*
G02*
X176300000Y-93575000I0J250000D01*
G01*
X176300000Y-92750000D01*
G75*
G02*
X176550000Y-92500000I250000J0D01*
G01*
G37*
D14*
X132000000Y-111750000D03*
G36*
X132550000Y-111475000D02*
G01*
X132533898Y-111632160D01*
X132477389Y-111802529D01*
X132383202Y-111955329D01*
X132256390Y-112082362D01*
X132103755Y-112176816D01*
X131933484Y-112233622D01*
X131775000Y-112250000D01*
X130070000Y-112250000D01*
X129450000Y-111630000D01*
X129450000Y-108525000D01*
X129466102Y-108367840D01*
X129522611Y-108197471D01*
X129616798Y-108044671D01*
X129743610Y-107917638D01*
X129896245Y-107823184D01*
X130066516Y-107766378D01*
X130225000Y-107750000D01*
X131775000Y-107750000D01*
X131932160Y-107766102D01*
X132102529Y-107822611D01*
X132255329Y-107916798D01*
X132382362Y-108043610D01*
X132476816Y-108196245D01*
X132533622Y-108366516D01*
X132550000Y-108525000D01*
X132550000Y-111475000D01*
G37*
X132000000Y-108250000D03*
X130000000Y-108250000D03*
X130000000Y-111750000D03*
X133500000Y-111750000D03*
X135500000Y-111750000D03*
G36*
G01*
X136050000Y-108525000D02*
X136050000Y-111475000D01*
G75*
G02*
X135275000Y-112250000I-775000J0D01*
G01*
X133725000Y-112250000D01*
G75*
G02*
X132950000Y-111475000I0J775000D01*
G01*
X132950000Y-108525000D01*
G75*
G02*
X133725000Y-107750000I775000J0D01*
G01*
X135275000Y-107750000D01*
G75*
G02*
X136050000Y-108525000I0J-775000D01*
G01*
G37*
X133500000Y-108250000D03*
X135500000Y-108250000D03*
X139016000Y-108250000D03*
X136984000Y-108250000D03*
X139000000Y-111750000D03*
X136984000Y-111750000D03*
G36*
G01*
X139550000Y-108525000D02*
X139550000Y-111475000D01*
G75*
G02*
X138775000Y-112250000I-775000J0D01*
G01*
X137225000Y-112250000D01*
G75*
G02*
X136450000Y-111475000I0J775000D01*
G01*
X136450000Y-108525000D01*
G75*
G02*
X137225000Y-107750000I775000J0D01*
G01*
X138775000Y-107750000D01*
G75*
G02*
X139550000Y-108525000I0J-775000D01*
G01*
G37*
G36*
G01*
X167275000Y-115650000D02*
X167275000Y-114350000D01*
G75*
G02*
X167525000Y-114100000I250000J0D01*
G01*
X168350000Y-114100000D01*
G75*
G02*
X168600000Y-114350000I0J-250000D01*
G01*
X168600000Y-115650000D01*
G75*
G02*
X168350000Y-115900000I-250000J0D01*
G01*
X167525000Y-115900000D01*
G75*
G02*
X167275000Y-115650000I0J250000D01*
G01*
G37*
G36*
G01*
X170400000Y-115650000D02*
X170400000Y-114350000D01*
G75*
G02*
X170650000Y-114100000I250000J0D01*
G01*
X171475000Y-114100000D01*
G75*
G02*
X171725000Y-114350000I0J-250000D01*
G01*
X171725000Y-115650000D01*
G75*
G02*
X171475000Y-115900000I-250000J0D01*
G01*
X170650000Y-115900000D01*
G75*
G02*
X170400000Y-115650000I0J250000D01*
G01*
G37*
G36*
G01*
X160025000Y-76622500D02*
X160975000Y-76622500D01*
G75*
G02*
X161225000Y-76872500I0J-250000D01*
G01*
X161225000Y-77547500D01*
G75*
G02*
X160975000Y-77797500I-250000J0D01*
G01*
X160025000Y-77797500D01*
G75*
G02*
X159775000Y-77547500I0J250000D01*
G01*
X159775000Y-76872500D01*
G75*
G02*
X160025000Y-76622500I250000J0D01*
G01*
G37*
G36*
G01*
X160025000Y-78697500D02*
X160975000Y-78697500D01*
G75*
G02*
X161225000Y-78947500I0J-250000D01*
G01*
X161225000Y-79622500D01*
G75*
G02*
X160975000Y-79872500I-250000J0D01*
G01*
X160025000Y-79872500D01*
G75*
G02*
X159775000Y-79622500I0J250000D01*
G01*
X159775000Y-78947500D01*
G75*
G02*
X160025000Y-78697500I250000J0D01*
G01*
G37*
G36*
G01*
X125450000Y-92100000D02*
X124550000Y-92100000D01*
G75*
G02*
X124300000Y-91850000I0J250000D01*
G01*
X124300000Y-91150000D01*
G75*
G02*
X124550000Y-90900000I250000J0D01*
G01*
X125450000Y-90900000D01*
G75*
G02*
X125700000Y-91150000I0J-250000D01*
G01*
X125700000Y-91850000D01*
G75*
G02*
X125450000Y-92100000I-250000J0D01*
G01*
G37*
G36*
G01*
X125450000Y-90100000D02*
X124550000Y-90100000D01*
G75*
G02*
X124300000Y-89850000I0J250000D01*
G01*
X124300000Y-89150000D01*
G75*
G02*
X124550000Y-88900000I250000J0D01*
G01*
X125450000Y-88900000D01*
G75*
G02*
X125700000Y-89150000I0J-250000D01*
G01*
X125700000Y-89850000D01*
G75*
G02*
X125450000Y-90100000I-250000J0D01*
G01*
G37*
G36*
G01*
X161737500Y-120650000D02*
X161737500Y-119350000D01*
G75*
G02*
X161987500Y-119100000I250000J0D01*
G01*
X162812500Y-119100000D01*
G75*
G02*
X163062500Y-119350000I0J-250000D01*
G01*
X163062500Y-120650000D01*
G75*
G02*
X162812500Y-120900000I-250000J0D01*
G01*
X161987500Y-120900000D01*
G75*
G02*
X161737500Y-120650000I0J250000D01*
G01*
G37*
G36*
G01*
X164862500Y-120650000D02*
X164862500Y-119350000D01*
G75*
G02*
X165112500Y-119100000I250000J0D01*
G01*
X165937500Y-119100000D01*
G75*
G02*
X166187500Y-119350000I0J-250000D01*
G01*
X166187500Y-120650000D01*
G75*
G02*
X165937500Y-120900000I-250000J0D01*
G01*
X165112500Y-120900000D01*
G75*
G02*
X164862500Y-120650000I0J250000D01*
G01*
G37*
D11*
X186000000Y-102000000D03*
G36*
G01*
X131550000Y-89375000D02*
X132850000Y-89375000D01*
G75*
G02*
X133100000Y-89625000I0J-250000D01*
G01*
X133100000Y-90450000D01*
G75*
G02*
X132850000Y-90700000I-250000J0D01*
G01*
X131550000Y-90700000D01*
G75*
G02*
X131300000Y-90450000I0J250000D01*
G01*
X131300000Y-89625000D01*
G75*
G02*
X131550000Y-89375000I250000J0D01*
G01*
G37*
G36*
G01*
X131550000Y-92500000D02*
X132850000Y-92500000D01*
G75*
G02*
X133100000Y-92750000I0J-250000D01*
G01*
X133100000Y-93575000D01*
G75*
G02*
X132850000Y-93825000I-250000J0D01*
G01*
X131550000Y-93825000D01*
G75*
G02*
X131300000Y-93575000I0J250000D01*
G01*
X131300000Y-92750000D01*
G75*
G02*
X131550000Y-92500000I250000J0D01*
G01*
G37*
D15*
X113500000Y-98000000D03*
X117500000Y-98000000D03*
X143500000Y-98000000D03*
X147500000Y-98000000D03*
G36*
G01*
X135950000Y-83600000D02*
X135050000Y-83600000D01*
G75*
G02*
X134800000Y-83350000I0J250000D01*
G01*
X134800000Y-82650000D01*
G75*
G02*
X135050000Y-82400000I250000J0D01*
G01*
X135950000Y-82400000D01*
G75*
G02*
X136200000Y-82650000I0J-250000D01*
G01*
X136200000Y-83350000D01*
G75*
G02*
X135950000Y-83600000I-250000J0D01*
G01*
G37*
G36*
G01*
X135950000Y-81600000D02*
X135050000Y-81600000D01*
G75*
G02*
X134800000Y-81350000I0J250000D01*
G01*
X134800000Y-80650000D01*
G75*
G02*
X135050000Y-80400000I250000J0D01*
G01*
X135950000Y-80400000D01*
G75*
G02*
X136200000Y-80650000I0J-250000D01*
G01*
X136200000Y-81350000D01*
G75*
G02*
X135950000Y-81600000I-250000J0D01*
G01*
G37*
G36*
G01*
X142375000Y-95675000D02*
X142375000Y-94725000D01*
G75*
G02*
X142625000Y-94475000I250000J0D01*
G01*
X143300000Y-94475000D01*
G75*
G02*
X143550000Y-94725000I0J-250000D01*
G01*
X143550000Y-95675000D01*
G75*
G02*
X143300000Y-95925000I-250000J0D01*
G01*
X142625000Y-95925000D01*
G75*
G02*
X142375000Y-95675000I0J250000D01*
G01*
G37*
G36*
G01*
X144450000Y-95675000D02*
X144450000Y-94725000D01*
G75*
G02*
X144700000Y-94475000I250000J0D01*
G01*
X145375000Y-94475000D01*
G75*
G02*
X145625000Y-94725000I0J-250000D01*
G01*
X145625000Y-95675000D01*
G75*
G02*
X145375000Y-95925000I-250000J0D01*
G01*
X144700000Y-95925000D01*
G75*
G02*
X144450000Y-95675000I0J250000D01*
G01*
G37*
G36*
G01*
X114425000Y-90575000D02*
X115375000Y-90575000D01*
G75*
G02*
X115625000Y-90825000I0J-250000D01*
G01*
X115625000Y-91500000D01*
G75*
G02*
X115375000Y-91750000I-250000J0D01*
G01*
X114425000Y-91750000D01*
G75*
G02*
X114175000Y-91500000I0J250000D01*
G01*
X114175000Y-90825000D01*
G75*
G02*
X114425000Y-90575000I250000J0D01*
G01*
G37*
G36*
G01*
X114425000Y-92650000D02*
X115375000Y-92650000D01*
G75*
G02*
X115625000Y-92900000I0J-250000D01*
G01*
X115625000Y-93575000D01*
G75*
G02*
X115375000Y-93825000I-250000J0D01*
G01*
X114425000Y-93825000D01*
G75*
G02*
X114175000Y-93575000I0J250000D01*
G01*
X114175000Y-92900000D01*
G75*
G02*
X114425000Y-92650000I250000J0D01*
G01*
G37*
G36*
G01*
X137550000Y-88900000D02*
X138450000Y-88900000D01*
G75*
G02*
X138700000Y-89150000I0J-250000D01*
G01*
X138700000Y-89850000D01*
G75*
G02*
X138450000Y-90100000I-250000J0D01*
G01*
X137550000Y-90100000D01*
G75*
G02*
X137300000Y-89850000I0J250000D01*
G01*
X137300000Y-89150000D01*
G75*
G02*
X137550000Y-88900000I250000J0D01*
G01*
G37*
G36*
G01*
X137550000Y-90900000D02*
X138450000Y-90900000D01*
G75*
G02*
X138700000Y-91150000I0J-250000D01*
G01*
X138700000Y-91850000D01*
G75*
G02*
X138450000Y-92100000I-250000J0D01*
G01*
X137550000Y-92100000D01*
G75*
G02*
X137300000Y-91850000I0J250000D01*
G01*
X137300000Y-91150000D01*
G75*
G02*
X137550000Y-90900000I250000J0D01*
G01*
G37*
D16*
X155215000Y-97440000D03*
X155215000Y-96170000D03*
X155215000Y-94900000D03*
X155215000Y-93630000D03*
D17*
X152000000Y-95535000D03*
D18*
X149665000Y-93630000D03*
X149665000Y-97440000D03*
X149665000Y-96170000D03*
X149665000Y-94900000D03*
G36*
G01*
X116550000Y-89375000D02*
X117850000Y-89375000D01*
G75*
G02*
X118100000Y-89625000I0J-250000D01*
G01*
X118100000Y-90450000D01*
G75*
G02*
X117850000Y-90700000I-250000J0D01*
G01*
X116550000Y-90700000D01*
G75*
G02*
X116300000Y-90450000I0J250000D01*
G01*
X116300000Y-89625000D01*
G75*
G02*
X116550000Y-89375000I250000J0D01*
G01*
G37*
G36*
G01*
X116550000Y-92500000D02*
X117850000Y-92500000D01*
G75*
G02*
X118100000Y-92750000I0J-250000D01*
G01*
X118100000Y-93575000D01*
G75*
G02*
X117850000Y-93825000I-250000J0D01*
G01*
X116550000Y-93825000D01*
G75*
G02*
X116300000Y-93575000I0J250000D01*
G01*
X116300000Y-92750000D01*
G75*
G02*
X116550000Y-92500000I250000J0D01*
G01*
G37*
G36*
G01*
X176737500Y-120650000D02*
X176737500Y-119350000D01*
G75*
G02*
X176987500Y-119100000I250000J0D01*
G01*
X177812500Y-119100000D01*
G75*
G02*
X178062500Y-119350000I0J-250000D01*
G01*
X178062500Y-120650000D01*
G75*
G02*
X177812500Y-120900000I-250000J0D01*
G01*
X176987500Y-120900000D01*
G75*
G02*
X176737500Y-120650000I0J250000D01*
G01*
G37*
G36*
G01*
X179862500Y-120650000D02*
X179862500Y-119350000D01*
G75*
G02*
X180112500Y-119100000I250000J0D01*
G01*
X180937500Y-119100000D01*
G75*
G02*
X181187500Y-119350000I0J-250000D01*
G01*
X181187500Y-120650000D01*
G75*
G02*
X180937500Y-120900000I-250000J0D01*
G01*
X180112500Y-120900000D01*
G75*
G02*
X179862500Y-120650000I0J250000D01*
G01*
G37*
G36*
G01*
X127375000Y-95675000D02*
X127375000Y-94725000D01*
G75*
G02*
X127625000Y-94475000I250000J0D01*
G01*
X128300000Y-94475000D01*
G75*
G02*
X128550000Y-94725000I0J-250000D01*
G01*
X128550000Y-95675000D01*
G75*
G02*
X128300000Y-95925000I-250000J0D01*
G01*
X127625000Y-95925000D01*
G75*
G02*
X127375000Y-95675000I0J250000D01*
G01*
G37*
G36*
G01*
X129450000Y-95675000D02*
X129450000Y-94725000D01*
G75*
G02*
X129700000Y-94475000I250000J0D01*
G01*
X130375000Y-94475000D01*
G75*
G02*
X130625000Y-94725000I0J-250000D01*
G01*
X130625000Y-95675000D01*
G75*
G02*
X130375000Y-95925000I-250000J0D01*
G01*
X129700000Y-95925000D01*
G75*
G02*
X129450000Y-95675000I0J250000D01*
G01*
G37*
G36*
G01*
X131737500Y-120650000D02*
X131737500Y-119350000D01*
G75*
G02*
X131987500Y-119100000I250000J0D01*
G01*
X132812500Y-119100000D01*
G75*
G02*
X133062500Y-119350000I0J-250000D01*
G01*
X133062500Y-120650000D01*
G75*
G02*
X132812500Y-120900000I-250000J0D01*
G01*
X131987500Y-120900000D01*
G75*
G02*
X131737500Y-120650000I0J250000D01*
G01*
G37*
G36*
G01*
X134862500Y-120650000D02*
X134862500Y-119350000D01*
G75*
G02*
X135112500Y-119100000I250000J0D01*
G01*
X135937500Y-119100000D01*
G75*
G02*
X136187500Y-119350000I0J-250000D01*
G01*
X136187500Y-120650000D01*
G75*
G02*
X135937500Y-120900000I-250000J0D01*
G01*
X135112500Y-120900000D01*
G75*
G02*
X134862500Y-120650000I0J250000D01*
G01*
G37*
G36*
G01*
X140450000Y-92100000D02*
X139550000Y-92100000D01*
G75*
G02*
X139300000Y-91850000I0J250000D01*
G01*
X139300000Y-91150000D01*
G75*
G02*
X139550000Y-90900000I250000J0D01*
G01*
X140450000Y-90900000D01*
G75*
G02*
X140700000Y-91150000I0J-250000D01*
G01*
X140700000Y-91850000D01*
G75*
G02*
X140450000Y-92100000I-250000J0D01*
G01*
G37*
G36*
G01*
X140450000Y-90100000D02*
X139550000Y-90100000D01*
G75*
G02*
X139300000Y-89850000I0J250000D01*
G01*
X139300000Y-89150000D01*
G75*
G02*
X139550000Y-88900000I250000J0D01*
G01*
X140450000Y-88900000D01*
G75*
G02*
X140700000Y-89150000I0J-250000D01*
G01*
X140700000Y-89850000D01*
G75*
G02*
X140450000Y-90100000I-250000J0D01*
G01*
G37*
D14*
X177000000Y-108250000D03*
X177000000Y-111750000D03*
X175000000Y-111750000D03*
X175000000Y-108250000D03*
G36*
X177550000Y-111475000D02*
G01*
X177533898Y-111632160D01*
X177477389Y-111802529D01*
X177383202Y-111955329D01*
X177256390Y-112082362D01*
X177103755Y-112176816D01*
X176933484Y-112233622D01*
X176775000Y-112250000D01*
X175070000Y-112250000D01*
X174450000Y-111630000D01*
X174450000Y-108525000D01*
X174466102Y-108367840D01*
X174522611Y-108197471D01*
X174616798Y-108044671D01*
X174743610Y-107917638D01*
X174896245Y-107823184D01*
X175066516Y-107766378D01*
X175225000Y-107750000D01*
X176775000Y-107750000D01*
X176932160Y-107766102D01*
X177102529Y-107822611D01*
X177255329Y-107916798D01*
X177382362Y-108043610D01*
X177476816Y-108196245D01*
X177533622Y-108366516D01*
X177550000Y-108525000D01*
X177550000Y-111475000D01*
G37*
G36*
G01*
X181050000Y-108525000D02*
X181050000Y-111475000D01*
G75*
G02*
X180275000Y-112250000I-775000J0D01*
G01*
X178725000Y-112250000D01*
G75*
G02*
X177950000Y-111475000I0J775000D01*
G01*
X177950000Y-108525000D01*
G75*
G02*
X178725000Y-107750000I775000J0D01*
G01*
X180275000Y-107750000D01*
G75*
G02*
X181050000Y-108525000I0J-775000D01*
G01*
G37*
X178500000Y-111750000D03*
X180500000Y-111750000D03*
X180500000Y-108250000D03*
X178500000Y-108250000D03*
G36*
G01*
X184550000Y-108525000D02*
X184550000Y-111475000D01*
G75*
G02*
X183775000Y-112250000I-775000J0D01*
G01*
X182225000Y-112250000D01*
G75*
G02*
X181450000Y-111475000I0J775000D01*
G01*
X181450000Y-108525000D01*
G75*
G02*
X182225000Y-107750000I775000J0D01*
G01*
X183775000Y-107750000D01*
G75*
G02*
X184550000Y-108525000I0J-775000D01*
G01*
G37*
X181984000Y-111750000D03*
X184000000Y-111750000D03*
X181984000Y-108250000D03*
X184016000Y-108250000D03*
G36*
G01*
X182050000Y-64900000D02*
X182950000Y-64900000D01*
G75*
G02*
X183200000Y-65150000I0J-250000D01*
G01*
X183200000Y-65800000D01*
G75*
G02*
X182950000Y-66050000I-250000J0D01*
G01*
X182050000Y-66050000D01*
G75*
G02*
X181800000Y-65800000I0J250000D01*
G01*
X181800000Y-65150000D01*
G75*
G02*
X182050000Y-64900000I250000J0D01*
G01*
G37*
G36*
G01*
X182050000Y-66950000D02*
X182950000Y-66950000D01*
G75*
G02*
X183200000Y-67200000I0J-250000D01*
G01*
X183200000Y-67850000D01*
G75*
G02*
X182950000Y-68100000I-250000J0D01*
G01*
X182050000Y-68100000D01*
G75*
G02*
X181800000Y-67850000I0J250000D01*
G01*
X181800000Y-67200000D01*
G75*
G02*
X182050000Y-66950000I250000J0D01*
G01*
G37*
G36*
G01*
X161550000Y-89375000D02*
X162850000Y-89375000D01*
G75*
G02*
X163100000Y-89625000I0J-250000D01*
G01*
X163100000Y-90450000D01*
G75*
G02*
X162850000Y-90700000I-250000J0D01*
G01*
X161550000Y-90700000D01*
G75*
G02*
X161300000Y-90450000I0J250000D01*
G01*
X161300000Y-89625000D01*
G75*
G02*
X161550000Y-89375000I250000J0D01*
G01*
G37*
G36*
G01*
X161550000Y-92500000D02*
X162850000Y-92500000D01*
G75*
G02*
X163100000Y-92750000I0J-250000D01*
G01*
X163100000Y-93575000D01*
G75*
G02*
X162850000Y-93825000I-250000J0D01*
G01*
X161550000Y-93825000D01*
G75*
G02*
X161300000Y-93575000I0J250000D01*
G01*
X161300000Y-92750000D01*
G75*
G02*
X161550000Y-92500000I250000J0D01*
G01*
G37*
G36*
G01*
X165525000Y-76622500D02*
X166475000Y-76622500D01*
G75*
G02*
X166725000Y-76872500I0J-250000D01*
G01*
X166725000Y-77547500D01*
G75*
G02*
X166475000Y-77797500I-250000J0D01*
G01*
X165525000Y-77797500D01*
G75*
G02*
X165275000Y-77547500I0J250000D01*
G01*
X165275000Y-76872500D01*
G75*
G02*
X165525000Y-76622500I250000J0D01*
G01*
G37*
G36*
G01*
X165525000Y-78697500D02*
X166475000Y-78697500D01*
G75*
G02*
X166725000Y-78947500I0J-250000D01*
G01*
X166725000Y-79622500D01*
G75*
G02*
X166475000Y-79872500I-250000J0D01*
G01*
X165525000Y-79872500D01*
G75*
G02*
X165275000Y-79622500I0J250000D01*
G01*
X165275000Y-78947500D01*
G75*
G02*
X165525000Y-78697500I250000J0D01*
G01*
G37*
G36*
G01*
X146550000Y-89375000D02*
X147850000Y-89375000D01*
G75*
G02*
X148100000Y-89625000I0J-250000D01*
G01*
X148100000Y-90450000D01*
G75*
G02*
X147850000Y-90700000I-250000J0D01*
G01*
X146550000Y-90700000D01*
G75*
G02*
X146300000Y-90450000I0J250000D01*
G01*
X146300000Y-89625000D01*
G75*
G02*
X146550000Y-89375000I250000J0D01*
G01*
G37*
G36*
G01*
X146550000Y-92500000D02*
X147850000Y-92500000D01*
G75*
G02*
X148100000Y-92750000I0J-250000D01*
G01*
X148100000Y-93575000D01*
G75*
G02*
X147850000Y-93825000I-250000J0D01*
G01*
X146550000Y-93825000D01*
G75*
G02*
X146300000Y-93575000I0J250000D01*
G01*
X146300000Y-92750000D01*
G75*
G02*
X146550000Y-92500000I250000J0D01*
G01*
G37*
D11*
X126000000Y-102000000D03*
G36*
G01*
X173300000Y-71947500D02*
X173600000Y-71947500D01*
G75*
G02*
X173750000Y-72097500I0J-150000D01*
G01*
X173750000Y-73122500D01*
G75*
G02*
X173600000Y-73272500I-150000J0D01*
G01*
X173300000Y-73272500D01*
G75*
G02*
X173150000Y-73122500I0J150000D01*
G01*
X173150000Y-72097500D01*
G75*
G02*
X173300000Y-71947500I150000J0D01*
G01*
G37*
G36*
G01*
X172350000Y-71947500D02*
X172650000Y-71947500D01*
G75*
G02*
X172800000Y-72097500I0J-150000D01*
G01*
X172800000Y-73122500D01*
G75*
G02*
X172650000Y-73272500I-150000J0D01*
G01*
X172350000Y-73272500D01*
G75*
G02*
X172200000Y-73122500I0J150000D01*
G01*
X172200000Y-72097500D01*
G75*
G02*
X172350000Y-71947500I150000J0D01*
G01*
G37*
G36*
G01*
X171400000Y-71947500D02*
X171700000Y-71947500D01*
G75*
G02*
X171850000Y-72097500I0J-150000D01*
G01*
X171850000Y-73122500D01*
G75*
G02*
X171700000Y-73272500I-150000J0D01*
G01*
X171400000Y-73272500D01*
G75*
G02*
X171250000Y-73122500I0J150000D01*
G01*
X171250000Y-72097500D01*
G75*
G02*
X171400000Y-71947500I150000J0D01*
G01*
G37*
G36*
G01*
X171400000Y-74222500D02*
X171700000Y-74222500D01*
G75*
G02*
X171850000Y-74372500I0J-150000D01*
G01*
X171850000Y-75397500D01*
G75*
G02*
X171700000Y-75547500I-150000J0D01*
G01*
X171400000Y-75547500D01*
G75*
G02*
X171250000Y-75397500I0J150000D01*
G01*
X171250000Y-74372500D01*
G75*
G02*
X171400000Y-74222500I150000J0D01*
G01*
G37*
G36*
G01*
X172350000Y-74222500D02*
X172650000Y-74222500D01*
G75*
G02*
X172800000Y-74372500I0J-150000D01*
G01*
X172800000Y-75397500D01*
G75*
G02*
X172650000Y-75547500I-150000J0D01*
G01*
X172350000Y-75547500D01*
G75*
G02*
X172200000Y-75397500I0J150000D01*
G01*
X172200000Y-74372500D01*
G75*
G02*
X172350000Y-74222500I150000J0D01*
G01*
G37*
G36*
G01*
X173300000Y-74222500D02*
X173600000Y-74222500D01*
G75*
G02*
X173750000Y-74372500I0J-150000D01*
G01*
X173750000Y-75397500D01*
G75*
G02*
X173600000Y-75547500I-150000J0D01*
G01*
X173300000Y-75547500D01*
G75*
G02*
X173150000Y-75397500I0J150000D01*
G01*
X173150000Y-74372500D01*
G75*
G02*
X173300000Y-74222500I150000J0D01*
G01*
G37*
G36*
G01*
X167750000Y-83800000D02*
X166850000Y-83800000D01*
G75*
G02*
X166600000Y-83550000I0J250000D01*
G01*
X166600000Y-82850000D01*
G75*
G02*
X166850000Y-82600000I250000J0D01*
G01*
X167750000Y-82600000D01*
G75*
G02*
X168000000Y-82850000I0J-250000D01*
G01*
X168000000Y-83550000D01*
G75*
G02*
X167750000Y-83800000I-250000J0D01*
G01*
G37*
G36*
G01*
X167750000Y-81800000D02*
X166850000Y-81800000D01*
G75*
G02*
X166600000Y-81550000I0J250000D01*
G01*
X166600000Y-80850000D01*
G75*
G02*
X166850000Y-80600000I250000J0D01*
G01*
X167750000Y-80600000D01*
G75*
G02*
X168000000Y-80850000I0J-250000D01*
G01*
X168000000Y-81550000D01*
G75*
G02*
X167750000Y-81800000I-250000J0D01*
G01*
G37*
G36*
G01*
X138000000Y-65600000D02*
X140000000Y-65600000D01*
G75*
G02*
X140250000Y-65850000I0J-250000D01*
G01*
X140250000Y-69750000D01*
G75*
G02*
X140000000Y-70000000I-250000J0D01*
G01*
X138000000Y-70000000D01*
G75*
G02*
X137750000Y-69750000I0J250000D01*
G01*
X137750000Y-65850000D01*
G75*
G02*
X138000000Y-65600000I250000J0D01*
G01*
G37*
G36*
G01*
X138000000Y-74000000D02*
X140000000Y-74000000D01*
G75*
G02*
X140250000Y-74250000I0J-250000D01*
G01*
X140250000Y-78150000D01*
G75*
G02*
X140000000Y-78400000I-250000J0D01*
G01*
X138000000Y-78400000D01*
G75*
G02*
X137750000Y-78150000I0J250000D01*
G01*
X137750000Y-74250000D01*
G75*
G02*
X138000000Y-74000000I250000J0D01*
G01*
G37*
D16*
X170215000Y-97440000D03*
X170215000Y-96170000D03*
X170215000Y-94900000D03*
X170215000Y-93630000D03*
D18*
X164665000Y-93630000D03*
X164665000Y-94900000D03*
X164665000Y-97440000D03*
X164665000Y-96170000D03*
D17*
X167000000Y-95535000D03*
G36*
G01*
X152275000Y-115650000D02*
X152275000Y-114350000D01*
G75*
G02*
X152525000Y-114100000I250000J0D01*
G01*
X153350000Y-114100000D01*
G75*
G02*
X153600000Y-114350000I0J-250000D01*
G01*
X153600000Y-115650000D01*
G75*
G02*
X153350000Y-115900000I-250000J0D01*
G01*
X152525000Y-115900000D01*
G75*
G02*
X152275000Y-115650000I0J250000D01*
G01*
G37*
G36*
G01*
X155400000Y-115650000D02*
X155400000Y-114350000D01*
G75*
G02*
X155650000Y-114100000I250000J0D01*
G01*
X156475000Y-114100000D01*
G75*
G02*
X156725000Y-114350000I0J-250000D01*
G01*
X156725000Y-115650000D01*
G75*
G02*
X156475000Y-115900000I-250000J0D01*
G01*
X155650000Y-115900000D01*
G75*
G02*
X155400000Y-115650000I0J250000D01*
G01*
G37*
G36*
G01*
X176737500Y-115650000D02*
X176737500Y-114350000D01*
G75*
G02*
X176987500Y-114100000I250000J0D01*
G01*
X177812500Y-114100000D01*
G75*
G02*
X178062500Y-114350000I0J-250000D01*
G01*
X178062500Y-115650000D01*
G75*
G02*
X177812500Y-115900000I-250000J0D01*
G01*
X176987500Y-115900000D01*
G75*
G02*
X176737500Y-115650000I0J250000D01*
G01*
G37*
G36*
G01*
X179862500Y-115650000D02*
X179862500Y-114350000D01*
G75*
G02*
X180112500Y-114100000I250000J0D01*
G01*
X180937500Y-114100000D01*
G75*
G02*
X181187500Y-114350000I0J-250000D01*
G01*
X181187500Y-115650000D01*
G75*
G02*
X180937500Y-115900000I-250000J0D01*
G01*
X180112500Y-115900000D01*
G75*
G02*
X179862500Y-115650000I0J250000D01*
G01*
G37*
G36*
G01*
X116737500Y-115650000D02*
X116737500Y-114350000D01*
G75*
G02*
X116987500Y-114100000I250000J0D01*
G01*
X117812500Y-114100000D01*
G75*
G02*
X118062500Y-114350000I0J-250000D01*
G01*
X118062500Y-115650000D01*
G75*
G02*
X117812500Y-115900000I-250000J0D01*
G01*
X116987500Y-115900000D01*
G75*
G02*
X116737500Y-115650000I0J250000D01*
G01*
G37*
G36*
G01*
X119862500Y-115650000D02*
X119862500Y-114350000D01*
G75*
G02*
X120112500Y-114100000I250000J0D01*
G01*
X120937500Y-114100000D01*
G75*
G02*
X121187500Y-114350000I0J-250000D01*
G01*
X121187500Y-115650000D01*
G75*
G02*
X120937500Y-115900000I-250000J0D01*
G01*
X120112500Y-115900000D01*
G75*
G02*
X119862500Y-115650000I0J250000D01*
G01*
G37*
G36*
G01*
X167550000Y-88900000D02*
X168450000Y-88900000D01*
G75*
G02*
X168700000Y-89150000I0J-250000D01*
G01*
X168700000Y-89850000D01*
G75*
G02*
X168450000Y-90100000I-250000J0D01*
G01*
X167550000Y-90100000D01*
G75*
G02*
X167300000Y-89850000I0J250000D01*
G01*
X167300000Y-89150000D01*
G75*
G02*
X167550000Y-88900000I250000J0D01*
G01*
G37*
G36*
G01*
X167550000Y-90900000D02*
X168450000Y-90900000D01*
G75*
G02*
X168700000Y-91150000I0J-250000D01*
G01*
X168700000Y-91850000D01*
G75*
G02*
X168450000Y-92100000I-250000J0D01*
G01*
X167550000Y-92100000D01*
G75*
G02*
X167300000Y-91850000I0J250000D01*
G01*
X167300000Y-91150000D01*
G75*
G02*
X167550000Y-90900000I250000J0D01*
G01*
G37*
G36*
X117550000Y-111475000D02*
G01*
X117533898Y-111632160D01*
X117477389Y-111802529D01*
X117383202Y-111955329D01*
X117256390Y-112082362D01*
X117103755Y-112176816D01*
X116933484Y-112233622D01*
X116775000Y-112250000D01*
X115070000Y-112250000D01*
X114450000Y-111630000D01*
X114450000Y-108525000D01*
X114466102Y-108367840D01*
X114522611Y-108197471D01*
X114616798Y-108044671D01*
X114743610Y-107917638D01*
X114896245Y-107823184D01*
X115066516Y-107766378D01*
X115225000Y-107750000D01*
X116775000Y-107750000D01*
X116932160Y-107766102D01*
X117102529Y-107822611D01*
X117255329Y-107916798D01*
X117382362Y-108043610D01*
X117476816Y-108196245D01*
X117533622Y-108366516D01*
X117550000Y-108525000D01*
X117550000Y-111475000D01*
G37*
D14*
X117000000Y-108250000D03*
X117000000Y-111750000D03*
X115000000Y-108250000D03*
X115000000Y-111750000D03*
G36*
G01*
X121050000Y-108525000D02*
X121050000Y-111475000D01*
G75*
G02*
X120275000Y-112250000I-775000J0D01*
G01*
X118725000Y-112250000D01*
G75*
G02*
X117950000Y-111475000I0J775000D01*
G01*
X117950000Y-108525000D01*
G75*
G02*
X118725000Y-107750000I775000J0D01*
G01*
X120275000Y-107750000D01*
G75*
G02*
X121050000Y-108525000I0J-775000D01*
G01*
G37*
X118500000Y-108250000D03*
X120500000Y-111750000D03*
X118500000Y-111750000D03*
X120500000Y-108250000D03*
G36*
G01*
X124550000Y-108525000D02*
X124550000Y-111475000D01*
G75*
G02*
X123775000Y-112250000I-775000J0D01*
G01*
X122225000Y-112250000D01*
G75*
G02*
X121450000Y-111475000I0J775000D01*
G01*
X121450000Y-108525000D01*
G75*
G02*
X122225000Y-107750000I775000J0D01*
G01*
X123775000Y-107750000D01*
G75*
G02*
X124550000Y-108525000I0J-775000D01*
G01*
G37*
X124000000Y-111750000D03*
X124016000Y-108250000D03*
X121984000Y-111750000D03*
X121984000Y-108250000D03*
G36*
G01*
X152550000Y-88900000D02*
X153450000Y-88900000D01*
G75*
G02*
X153700000Y-89150000I0J-250000D01*
G01*
X153700000Y-89850000D01*
G75*
G02*
X153450000Y-90100000I-250000J0D01*
G01*
X152550000Y-90100000D01*
G75*
G02*
X152300000Y-89850000I0J250000D01*
G01*
X152300000Y-89150000D01*
G75*
G02*
X152550000Y-88900000I250000J0D01*
G01*
G37*
G36*
G01*
X152550000Y-90900000D02*
X153450000Y-90900000D01*
G75*
G02*
X153700000Y-91150000I0J-250000D01*
G01*
X153700000Y-91850000D01*
G75*
G02*
X153450000Y-92100000I-250000J0D01*
G01*
X152550000Y-92100000D01*
G75*
G02*
X152300000Y-91850000I0J250000D01*
G01*
X152300000Y-91150000D01*
G75*
G02*
X152550000Y-90900000I250000J0D01*
G01*
G37*
G36*
G01*
X129425000Y-90575000D02*
X130375000Y-90575000D01*
G75*
G02*
X130625000Y-90825000I0J-250000D01*
G01*
X130625000Y-91500000D01*
G75*
G02*
X130375000Y-91750000I-250000J0D01*
G01*
X129425000Y-91750000D01*
G75*
G02*
X129175000Y-91500000I0J250000D01*
G01*
X129175000Y-90825000D01*
G75*
G02*
X129425000Y-90575000I250000J0D01*
G01*
G37*
G36*
G01*
X129425000Y-92650000D02*
X130375000Y-92650000D01*
G75*
G02*
X130625000Y-92900000I0J-250000D01*
G01*
X130625000Y-93575000D01*
G75*
G02*
X130375000Y-93825000I-250000J0D01*
G01*
X129425000Y-93825000D01*
G75*
G02*
X129175000Y-93575000I0J250000D01*
G01*
X129175000Y-92900000D01*
G75*
G02*
X129425000Y-92650000I250000J0D01*
G01*
G37*
G36*
G01*
X159425000Y-90575000D02*
X160375000Y-90575000D01*
G75*
G02*
X160625000Y-90825000I0J-250000D01*
G01*
X160625000Y-91500000D01*
G75*
G02*
X160375000Y-91750000I-250000J0D01*
G01*
X159425000Y-91750000D01*
G75*
G02*
X159175000Y-91500000I0J250000D01*
G01*
X159175000Y-90825000D01*
G75*
G02*
X159425000Y-90575000I250000J0D01*
G01*
G37*
G36*
G01*
X159425000Y-92650000D02*
X160375000Y-92650000D01*
G75*
G02*
X160625000Y-92900000I0J-250000D01*
G01*
X160625000Y-93575000D01*
G75*
G02*
X160375000Y-93825000I-250000J0D01*
G01*
X159425000Y-93825000D01*
G75*
G02*
X159175000Y-93575000I0J250000D01*
G01*
X159175000Y-92900000D01*
G75*
G02*
X159425000Y-92650000I250000J0D01*
G01*
G37*
D19*
X143400000Y-87350000D03*
X143900000Y-87350000D03*
X144400000Y-87350000D03*
X144400000Y-85850000D03*
X143900000Y-85850000D03*
X143400000Y-85850000D03*
G36*
G01*
X170450000Y-92100000D02*
X169550000Y-92100000D01*
G75*
G02*
X169300000Y-91850000I0J250000D01*
G01*
X169300000Y-91150000D01*
G75*
G02*
X169550000Y-90900000I250000J0D01*
G01*
X170450000Y-90900000D01*
G75*
G02*
X170700000Y-91150000I0J-250000D01*
G01*
X170700000Y-91850000D01*
G75*
G02*
X170450000Y-92100000I-250000J0D01*
G01*
G37*
G36*
G01*
X170450000Y-90100000D02*
X169550000Y-90100000D01*
G75*
G02*
X169300000Y-89850000I0J250000D01*
G01*
X169300000Y-89150000D01*
G75*
G02*
X169550000Y-88900000I250000J0D01*
G01*
X170450000Y-88900000D01*
G75*
G02*
X170700000Y-89150000I0J-250000D01*
G01*
X170700000Y-89850000D01*
G75*
G02*
X170450000Y-90100000I-250000J0D01*
G01*
G37*
D15*
X173500000Y-98000000D03*
X177500000Y-98000000D03*
G36*
G01*
X120950000Y-83600000D02*
X120050000Y-83600000D01*
G75*
G02*
X119800000Y-83350000I0J250000D01*
G01*
X119800000Y-82650000D01*
G75*
G02*
X120050000Y-82400000I250000J0D01*
G01*
X120950000Y-82400000D01*
G75*
G02*
X121200000Y-82650000I0J-250000D01*
G01*
X121200000Y-83350000D01*
G75*
G02*
X120950000Y-83600000I-250000J0D01*
G01*
G37*
G36*
G01*
X120950000Y-81600000D02*
X120050000Y-81600000D01*
G75*
G02*
X119800000Y-81350000I0J250000D01*
G01*
X119800000Y-80650000D01*
G75*
G02*
X120050000Y-80400000I250000J0D01*
G01*
X120950000Y-80400000D01*
G75*
G02*
X121200000Y-80650000I0J-250000D01*
G01*
X121200000Y-81350000D01*
G75*
G02*
X120950000Y-81600000I-250000J0D01*
G01*
G37*
G36*
G01*
X172375000Y-95675000D02*
X172375000Y-94725000D01*
G75*
G02*
X172625000Y-94475000I250000J0D01*
G01*
X173300000Y-94475000D01*
G75*
G02*
X173550000Y-94725000I0J-250000D01*
G01*
X173550000Y-95675000D01*
G75*
G02*
X173300000Y-95925000I-250000J0D01*
G01*
X172625000Y-95925000D01*
G75*
G02*
X172375000Y-95675000I0J250000D01*
G01*
G37*
G36*
G01*
X174450000Y-95675000D02*
X174450000Y-94725000D01*
G75*
G02*
X174700000Y-94475000I250000J0D01*
G01*
X175375000Y-94475000D01*
G75*
G02*
X175625000Y-94725000I0J-250000D01*
G01*
X175625000Y-95675000D01*
G75*
G02*
X175375000Y-95925000I-250000J0D01*
G01*
X174700000Y-95925000D01*
G75*
G02*
X174450000Y-95675000I0J250000D01*
G01*
G37*
D12*
X119000000Y-77400000D03*
X121400000Y-75000000D03*
X120697056Y-76697056D03*
X116600000Y-75000000D03*
X119000000Y-72600000D03*
X120697056Y-73302944D03*
D13*
X119000000Y-75000000D03*
D12*
X117302944Y-73302944D03*
X117302944Y-76697056D03*
G36*
G01*
X174425000Y-90575000D02*
X175375000Y-90575000D01*
G75*
G02*
X175625000Y-90825000I0J-250000D01*
G01*
X175625000Y-91500000D01*
G75*
G02*
X175375000Y-91750000I-250000J0D01*
G01*
X174425000Y-91750000D01*
G75*
G02*
X174175000Y-91500000I0J250000D01*
G01*
X174175000Y-90825000D01*
G75*
G02*
X174425000Y-90575000I250000J0D01*
G01*
G37*
G36*
G01*
X174425000Y-92650000D02*
X175375000Y-92650000D01*
G75*
G02*
X175625000Y-92900000I0J-250000D01*
G01*
X175625000Y-93575000D01*
G75*
G02*
X175375000Y-93825000I-250000J0D01*
G01*
X174425000Y-93825000D01*
G75*
G02*
X174175000Y-93575000I0J250000D01*
G01*
X174175000Y-92900000D01*
G75*
G02*
X174425000Y-92650000I250000J0D01*
G01*
G37*
D16*
X140215000Y-97440000D03*
X140215000Y-96170000D03*
X140215000Y-94900000D03*
X140215000Y-93630000D03*
D18*
X134665000Y-96170000D03*
D17*
X137000000Y-95535000D03*
D18*
X134665000Y-94900000D03*
X134665000Y-93630000D03*
X134665000Y-97440000D03*
D14*
X145000000Y-111750000D03*
X147000000Y-108250000D03*
G36*
X147550000Y-111475000D02*
G01*
X147533898Y-111632160D01*
X147477389Y-111802529D01*
X147383202Y-111955329D01*
X147256390Y-112082362D01*
X147103755Y-112176816D01*
X146933484Y-112233622D01*
X146775000Y-112250000D01*
X145070000Y-112250000D01*
X144450000Y-111630000D01*
X144450000Y-108525000D01*
X144466102Y-108367840D01*
X144522611Y-108197471D01*
X144616798Y-108044671D01*
X144743610Y-107917638D01*
X144896245Y-107823184D01*
X145066516Y-107766378D01*
X145225000Y-107750000D01*
X146775000Y-107750000D01*
X146932160Y-107766102D01*
X147102529Y-107822611D01*
X147255329Y-107916798D01*
X147382362Y-108043610D01*
X147476816Y-108196245D01*
X147533622Y-108366516D01*
X147550000Y-108525000D01*
X147550000Y-111475000D01*
G37*
X147000000Y-111750000D03*
X145000000Y-108250000D03*
X148500000Y-108250000D03*
X148500000Y-111750000D03*
X150500000Y-108250000D03*
G36*
G01*
X151050000Y-108525000D02*
X151050000Y-111475000D01*
G75*
G02*
X150275000Y-112250000I-775000J0D01*
G01*
X148725000Y-112250000D01*
G75*
G02*
X147950000Y-111475000I0J775000D01*
G01*
X147950000Y-108525000D01*
G75*
G02*
X148725000Y-107750000I775000J0D01*
G01*
X150275000Y-107750000D01*
G75*
G02*
X151050000Y-108525000I0J-775000D01*
G01*
G37*
X150500000Y-111750000D03*
X154000000Y-111750000D03*
X154016000Y-108250000D03*
X151984000Y-111750000D03*
G36*
G01*
X154550000Y-108525000D02*
X154550000Y-111475000D01*
G75*
G02*
X153775000Y-112250000I-775000J0D01*
G01*
X152225000Y-112250000D01*
G75*
G02*
X151450000Y-111475000I0J775000D01*
G01*
X151450000Y-108525000D01*
G75*
G02*
X152225000Y-107750000I775000J0D01*
G01*
X153775000Y-107750000D01*
G75*
G02*
X154550000Y-108525000I0J-775000D01*
G01*
G37*
X151984000Y-108250000D03*
G36*
G01*
X182275000Y-115650000D02*
X182275000Y-114350000D01*
G75*
G02*
X182525000Y-114100000I250000J0D01*
G01*
X183350000Y-114100000D01*
G75*
G02*
X183600000Y-114350000I0J-250000D01*
G01*
X183600000Y-115650000D01*
G75*
G02*
X183350000Y-115900000I-250000J0D01*
G01*
X182525000Y-115900000D01*
G75*
G02*
X182275000Y-115650000I0J250000D01*
G01*
G37*
G36*
G01*
X185400000Y-115650000D02*
X185400000Y-114350000D01*
G75*
G02*
X185650000Y-114100000I250000J0D01*
G01*
X186475000Y-114100000D01*
G75*
G02*
X186725000Y-114350000I0J-250000D01*
G01*
X186725000Y-115650000D01*
G75*
G02*
X186475000Y-115900000I-250000J0D01*
G01*
X185650000Y-115900000D01*
G75*
G02*
X185400000Y-115650000I0J250000D01*
G01*
G37*
G36*
G01*
X178950000Y-83100000D02*
X178050000Y-83100000D01*
G75*
G02*
X177800000Y-82850000I0J250000D01*
G01*
X177800000Y-82150000D01*
G75*
G02*
X178050000Y-81900000I250000J0D01*
G01*
X178950000Y-81900000D01*
G75*
G02*
X179200000Y-82150000I0J-250000D01*
G01*
X179200000Y-82850000D01*
G75*
G02*
X178950000Y-83100000I-250000J0D01*
G01*
G37*
G36*
G01*
X178950000Y-81100000D02*
X178050000Y-81100000D01*
G75*
G02*
X177800000Y-80850000I0J250000D01*
G01*
X177800000Y-80150000D01*
G75*
G02*
X178050000Y-79900000I250000J0D01*
G01*
X178950000Y-79900000D01*
G75*
G02*
X179200000Y-80150000I0J-250000D01*
G01*
X179200000Y-80850000D01*
G75*
G02*
X178950000Y-81100000I-250000J0D01*
G01*
G37*
D20*
X186000000Y-75000000D03*
D12*
X120697056Y-123302944D03*
D13*
X119000000Y-125000000D03*
D12*
X117302944Y-126697056D03*
X119000000Y-127400000D03*
X121400000Y-125000000D03*
X116600000Y-125000000D03*
X119000000Y-122600000D03*
X120697056Y-126697056D03*
X117302944Y-123302944D03*
X181400000Y-75000000D03*
X180697056Y-73302944D03*
D13*
X179000000Y-75000000D03*
D12*
X180697056Y-76697056D03*
X179000000Y-72600000D03*
X176600000Y-75000000D03*
X177302944Y-76697056D03*
X177302944Y-73302944D03*
X179000000Y-77400000D03*
G36*
G01*
X187450000Y-82100000D02*
X186550000Y-82100000D01*
G75*
G02*
X186300000Y-81850000I0J250000D01*
G01*
X186300000Y-81200000D01*
G75*
G02*
X186550000Y-80950000I250000J0D01*
G01*
X187450000Y-80950000D01*
G75*
G02*
X187700000Y-81200000I0J-250000D01*
G01*
X187700000Y-81850000D01*
G75*
G02*
X187450000Y-82100000I-250000J0D01*
G01*
G37*
G36*
G01*
X187450000Y-80050000D02*
X186550000Y-80050000D01*
G75*
G02*
X186300000Y-79800000I0J250000D01*
G01*
X186300000Y-79150000D01*
G75*
G02*
X186550000Y-78900000I250000J0D01*
G01*
X187450000Y-78900000D01*
G75*
G02*
X187700000Y-79150000I0J-250000D01*
G01*
X187700000Y-79800000D01*
G75*
G02*
X187450000Y-80050000I-250000J0D01*
G01*
G37*
G36*
G01*
X185450000Y-92100000D02*
X184550000Y-92100000D01*
G75*
G02*
X184300000Y-91850000I0J250000D01*
G01*
X184300000Y-91150000D01*
G75*
G02*
X184550000Y-90900000I250000J0D01*
G01*
X185450000Y-90900000D01*
G75*
G02*
X185700000Y-91150000I0J-250000D01*
G01*
X185700000Y-91850000D01*
G75*
G02*
X185450000Y-92100000I-250000J0D01*
G01*
G37*
G36*
G01*
X185450000Y-90100000D02*
X184550000Y-90100000D01*
G75*
G02*
X184300000Y-89850000I0J250000D01*
G01*
X184300000Y-89150000D01*
G75*
G02*
X184550000Y-88900000I250000J0D01*
G01*
X185450000Y-88900000D01*
G75*
G02*
X185700000Y-89150000I0J-250000D01*
G01*
X185700000Y-89850000D01*
G75*
G02*
X185450000Y-90100000I-250000J0D01*
G01*
G37*
G36*
G01*
X155980000Y-68350000D02*
X154780000Y-68350000D01*
G75*
G02*
X154530000Y-68100000I0J250000D01*
G01*
X154530000Y-66900000D01*
G75*
G02*
X154780000Y-66650000I250000J0D01*
G01*
X155980000Y-66650000D01*
G75*
G02*
X156230000Y-66900000I0J-250000D01*
G01*
X156230000Y-68100000D01*
G75*
G02*
X155980000Y-68350000I-250000J0D01*
G01*
G37*
D21*
X155380000Y-64960000D03*
X157920000Y-67500000D03*
X157920000Y-64960000D03*
X160460000Y-67500000D03*
X160460000Y-64960000D03*
X163000000Y-67500000D03*
X163000000Y-64960000D03*
X165540000Y-67500000D03*
X165540000Y-64960000D03*
X168080000Y-67500000D03*
X168080000Y-64960000D03*
X170620000Y-67500000D03*
X170620000Y-64960000D03*
X173160000Y-67500000D03*
X173160000Y-64960000D03*
G36*
G01*
X162050000Y-76647500D02*
X162950000Y-76647500D01*
G75*
G02*
X163200000Y-76897500I0J-250000D01*
G01*
X163200000Y-77597500D01*
G75*
G02*
X162950000Y-77847500I-250000J0D01*
G01*
X162050000Y-77847500D01*
G75*
G02*
X161800000Y-77597500I0J250000D01*
G01*
X161800000Y-76897500D01*
G75*
G02*
X162050000Y-76647500I250000J0D01*
G01*
G37*
G36*
G01*
X162050000Y-78647500D02*
X162950000Y-78647500D01*
G75*
G02*
X163200000Y-78897500I0J-250000D01*
G01*
X163200000Y-79597500D01*
G75*
G02*
X162950000Y-79847500I-250000J0D01*
G01*
X162050000Y-79847500D01*
G75*
G02*
X161800000Y-79597500I0J250000D01*
G01*
X161800000Y-78897500D01*
G75*
G02*
X162050000Y-78647500I250000J0D01*
G01*
G37*
G36*
G01*
X112375000Y-95675000D02*
X112375000Y-94725000D01*
G75*
G02*
X112625000Y-94475000I250000J0D01*
G01*
X113300000Y-94475000D01*
G75*
G02*
X113550000Y-94725000I0J-250000D01*
G01*
X113550000Y-95675000D01*
G75*
G02*
X113300000Y-95925000I-250000J0D01*
G01*
X112625000Y-95925000D01*
G75*
G02*
X112375000Y-95675000I0J250000D01*
G01*
G37*
G36*
G01*
X114450000Y-95675000D02*
X114450000Y-94725000D01*
G75*
G02*
X114700000Y-94475000I250000J0D01*
G01*
X115375000Y-94475000D01*
G75*
G02*
X115625000Y-94725000I0J-250000D01*
G01*
X115625000Y-95675000D01*
G75*
G02*
X115375000Y-95925000I-250000J0D01*
G01*
X114700000Y-95925000D01*
G75*
G02*
X114450000Y-95675000I0J250000D01*
G01*
G37*
G36*
G01*
X159050000Y-83400000D02*
X159950000Y-83400000D01*
G75*
G02*
X160200000Y-83650000I0J-250000D01*
G01*
X160200000Y-84350000D01*
G75*
G02*
X159950000Y-84600000I-250000J0D01*
G01*
X159050000Y-84600000D01*
G75*
G02*
X158800000Y-84350000I0J250000D01*
G01*
X158800000Y-83650000D01*
G75*
G02*
X159050000Y-83400000I250000J0D01*
G01*
G37*
G36*
G01*
X159050000Y-85400000D02*
X159950000Y-85400000D01*
G75*
G02*
X160200000Y-85650000I0J-250000D01*
G01*
X160200000Y-86350000D01*
G75*
G02*
X159950000Y-86600000I-250000J0D01*
G01*
X159050000Y-86600000D01*
G75*
G02*
X158800000Y-86350000I0J250000D01*
G01*
X158800000Y-85650000D01*
G75*
G02*
X159050000Y-85400000I250000J0D01*
G01*
G37*
G36*
G01*
X165750000Y-83800000D02*
X164850000Y-83800000D01*
G75*
G02*
X164600000Y-83550000I0J250000D01*
G01*
X164600000Y-82850000D01*
G75*
G02*
X164850000Y-82600000I250000J0D01*
G01*
X165750000Y-82600000D01*
G75*
G02*
X166000000Y-82850000I0J-250000D01*
G01*
X166000000Y-83550000D01*
G75*
G02*
X165750000Y-83800000I-250000J0D01*
G01*
G37*
G36*
G01*
X165750000Y-81800000D02*
X164850000Y-81800000D01*
G75*
G02*
X164600000Y-81550000I0J250000D01*
G01*
X164600000Y-80850000D01*
G75*
G02*
X164850000Y-80600000I250000J0D01*
G01*
X165750000Y-80600000D01*
G75*
G02*
X166000000Y-80850000I0J-250000D01*
G01*
X166000000Y-81550000D01*
G75*
G02*
X165750000Y-81800000I-250000J0D01*
G01*
G37*
G36*
G01*
X161737500Y-115650000D02*
X161737500Y-114350000D01*
G75*
G02*
X161987500Y-114100000I250000J0D01*
G01*
X162812500Y-114100000D01*
G75*
G02*
X163062500Y-114350000I0J-250000D01*
G01*
X163062500Y-115650000D01*
G75*
G02*
X162812500Y-115900000I-250000J0D01*
G01*
X161987500Y-115900000D01*
G75*
G02*
X161737500Y-115650000I0J250000D01*
G01*
G37*
G36*
G01*
X164862500Y-115650000D02*
X164862500Y-114350000D01*
G75*
G02*
X165112500Y-114100000I250000J0D01*
G01*
X165937500Y-114100000D01*
G75*
G02*
X166187500Y-114350000I0J-250000D01*
G01*
X166187500Y-115650000D01*
G75*
G02*
X165937500Y-115900000I-250000J0D01*
G01*
X165112500Y-115900000D01*
G75*
G02*
X164862500Y-115650000I0J250000D01*
G01*
G37*
G36*
G01*
X122275000Y-115650000D02*
X122275000Y-114350000D01*
G75*
G02*
X122525000Y-114100000I250000J0D01*
G01*
X123350000Y-114100000D01*
G75*
G02*
X123600000Y-114350000I0J-250000D01*
G01*
X123600000Y-115650000D01*
G75*
G02*
X123350000Y-115900000I-250000J0D01*
G01*
X122525000Y-115900000D01*
G75*
G02*
X122275000Y-115650000I0J250000D01*
G01*
G37*
G36*
G01*
X125400000Y-115650000D02*
X125400000Y-114350000D01*
G75*
G02*
X125650000Y-114100000I250000J0D01*
G01*
X126475000Y-114100000D01*
G75*
G02*
X126725000Y-114350000I0J-250000D01*
G01*
X126725000Y-115650000D01*
G75*
G02*
X126475000Y-115900000I-250000J0D01*
G01*
X125650000Y-115900000D01*
G75*
G02*
X125400000Y-115650000I0J250000D01*
G01*
G37*
G36*
G01*
X137275000Y-115650000D02*
X137275000Y-114350000D01*
G75*
G02*
X137525000Y-114100000I250000J0D01*
G01*
X138350000Y-114100000D01*
G75*
G02*
X138600000Y-114350000I0J-250000D01*
G01*
X138600000Y-115650000D01*
G75*
G02*
X138350000Y-115900000I-250000J0D01*
G01*
X137525000Y-115900000D01*
G75*
G02*
X137275000Y-115650000I0J250000D01*
G01*
G37*
G36*
G01*
X140400000Y-115650000D02*
X140400000Y-114350000D01*
G75*
G02*
X140650000Y-114100000I250000J0D01*
G01*
X141475000Y-114100000D01*
G75*
G02*
X141725000Y-114350000I0J-250000D01*
G01*
X141725000Y-115650000D01*
G75*
G02*
X141475000Y-115900000I-250000J0D01*
G01*
X140650000Y-115900000D01*
G75*
G02*
X140400000Y-115650000I0J250000D01*
G01*
G37*
G36*
G01*
X167550000Y-76647500D02*
X168450000Y-76647500D01*
G75*
G02*
X168700000Y-76897500I0J-250000D01*
G01*
X168700000Y-77597500D01*
G75*
G02*
X168450000Y-77847500I-250000J0D01*
G01*
X167550000Y-77847500D01*
G75*
G02*
X167300000Y-77597500I0J250000D01*
G01*
X167300000Y-76897500D01*
G75*
G02*
X167550000Y-76647500I250000J0D01*
G01*
G37*
G36*
G01*
X167550000Y-78647500D02*
X168450000Y-78647500D01*
G75*
G02*
X168700000Y-78897500I0J-250000D01*
G01*
X168700000Y-79597500D01*
G75*
G02*
X168450000Y-79847500I-250000J0D01*
G01*
X167550000Y-79847500D01*
G75*
G02*
X167300000Y-79597500I0J250000D01*
G01*
X167300000Y-78897500D01*
G75*
G02*
X167550000Y-78647500I250000J0D01*
G01*
G37*
G36*
G01*
X150950000Y-83600000D02*
X150050000Y-83600000D01*
G75*
G02*
X149800000Y-83350000I0J250000D01*
G01*
X149800000Y-82650000D01*
G75*
G02*
X150050000Y-82400000I250000J0D01*
G01*
X150950000Y-82400000D01*
G75*
G02*
X151200000Y-82650000I0J-250000D01*
G01*
X151200000Y-83350000D01*
G75*
G02*
X150950000Y-83600000I-250000J0D01*
G01*
G37*
G36*
G01*
X150950000Y-81600000D02*
X150050000Y-81600000D01*
G75*
G02*
X149800000Y-81350000I0J250000D01*
G01*
X149800000Y-80650000D01*
G75*
G02*
X150050000Y-80400000I250000J0D01*
G01*
X150950000Y-80400000D01*
G75*
G02*
X151200000Y-80650000I0J-250000D01*
G01*
X151200000Y-81350000D01*
G75*
G02*
X150950000Y-81600000I-250000J0D01*
G01*
G37*
G36*
G01*
X162300000Y-71947500D02*
X162600000Y-71947500D01*
G75*
G02*
X162750000Y-72097500I0J-150000D01*
G01*
X162750000Y-73122500D01*
G75*
G02*
X162600000Y-73272500I-150000J0D01*
G01*
X162300000Y-73272500D01*
G75*
G02*
X162150000Y-73122500I0J150000D01*
G01*
X162150000Y-72097500D01*
G75*
G02*
X162300000Y-71947500I150000J0D01*
G01*
G37*
G36*
G01*
X161350000Y-71947500D02*
X161650000Y-71947500D01*
G75*
G02*
X161800000Y-72097500I0J-150000D01*
G01*
X161800000Y-73122500D01*
G75*
G02*
X161650000Y-73272500I-150000J0D01*
G01*
X161350000Y-73272500D01*
G75*
G02*
X161200000Y-73122500I0J150000D01*
G01*
X161200000Y-72097500D01*
G75*
G02*
X161350000Y-71947500I150000J0D01*
G01*
G37*
G36*
G01*
X160400000Y-71947500D02*
X160700000Y-71947500D01*
G75*
G02*
X160850000Y-72097500I0J-150000D01*
G01*
X160850000Y-73122500D01*
G75*
G02*
X160700000Y-73272500I-150000J0D01*
G01*
X160400000Y-73272500D01*
G75*
G02*
X160250000Y-73122500I0J150000D01*
G01*
X160250000Y-72097500D01*
G75*
G02*
X160400000Y-71947500I150000J0D01*
G01*
G37*
G36*
G01*
X160400000Y-74222500D02*
X160700000Y-74222500D01*
G75*
G02*
X160850000Y-74372500I0J-150000D01*
G01*
X160850000Y-75397500D01*
G75*
G02*
X160700000Y-75547500I-150000J0D01*
G01*
X160400000Y-75547500D01*
G75*
G02*
X160250000Y-75397500I0J150000D01*
G01*
X160250000Y-74372500D01*
G75*
G02*
X160400000Y-74222500I150000J0D01*
G01*
G37*
G36*
G01*
X161350000Y-74222500D02*
X161650000Y-74222500D01*
G75*
G02*
X161800000Y-74372500I0J-150000D01*
G01*
X161800000Y-75397500D01*
G75*
G02*
X161650000Y-75547500I-150000J0D01*
G01*
X161350000Y-75547500D01*
G75*
G02*
X161200000Y-75397500I0J150000D01*
G01*
X161200000Y-74372500D01*
G75*
G02*
X161350000Y-74222500I150000J0D01*
G01*
G37*
G36*
G01*
X162300000Y-74222500D02*
X162600000Y-74222500D01*
G75*
G02*
X162750000Y-74372500I0J-150000D01*
G01*
X162750000Y-75397500D01*
G75*
G02*
X162600000Y-75547500I-150000J0D01*
G01*
X162300000Y-75547500D01*
G75*
G02*
X162150000Y-75397500I0J150000D01*
G01*
X162150000Y-74372500D01*
G75*
G02*
X162300000Y-74222500I150000J0D01*
G01*
G37*
G36*
G01*
X184550000Y-78900000D02*
X185450000Y-78900000D01*
G75*
G02*
X185700000Y-79150000I0J-250000D01*
G01*
X185700000Y-79850000D01*
G75*
G02*
X185450000Y-80100000I-250000J0D01*
G01*
X184550000Y-80100000D01*
G75*
G02*
X184300000Y-79850000I0J250000D01*
G01*
X184300000Y-79150000D01*
G75*
G02*
X184550000Y-78900000I250000J0D01*
G01*
G37*
G36*
G01*
X184550000Y-80900000D02*
X185450000Y-80900000D01*
G75*
G02*
X185700000Y-81150000I0J-250000D01*
G01*
X185700000Y-81850000D01*
G75*
G02*
X185450000Y-82100000I-250000J0D01*
G01*
X184550000Y-82100000D01*
G75*
G02*
X184300000Y-81850000I0J250000D01*
G01*
X184300000Y-81150000D01*
G75*
G02*
X184550000Y-80900000I250000J0D01*
G01*
G37*
G36*
G01*
X146525000Y-84475000D02*
X147475000Y-84475000D01*
G75*
G02*
X147725000Y-84725000I0J-250000D01*
G01*
X147725000Y-85400000D01*
G75*
G02*
X147475000Y-85650000I-250000J0D01*
G01*
X146525000Y-85650000D01*
G75*
G02*
X146275000Y-85400000I0J250000D01*
G01*
X146275000Y-84725000D01*
G75*
G02*
X146525000Y-84475000I250000J0D01*
G01*
G37*
G36*
G01*
X146525000Y-86550000D02*
X147475000Y-86550000D01*
G75*
G02*
X147725000Y-86800000I0J-250000D01*
G01*
X147725000Y-87475000D01*
G75*
G02*
X147475000Y-87725000I-250000J0D01*
G01*
X146525000Y-87725000D01*
G75*
G02*
X146275000Y-87475000I0J250000D01*
G01*
X146275000Y-86800000D01*
G75*
G02*
X146525000Y-86550000I250000J0D01*
G01*
G37*
G36*
G01*
X157050000Y-83400000D02*
X157950000Y-83400000D01*
G75*
G02*
X158200000Y-83650000I0J-250000D01*
G01*
X158200000Y-84350000D01*
G75*
G02*
X157950000Y-84600000I-250000J0D01*
G01*
X157050000Y-84600000D01*
G75*
G02*
X156800000Y-84350000I0J250000D01*
G01*
X156800000Y-83650000D01*
G75*
G02*
X157050000Y-83400000I250000J0D01*
G01*
G37*
G36*
G01*
X157050000Y-85400000D02*
X157950000Y-85400000D01*
G75*
G02*
X158200000Y-85650000I0J-250000D01*
G01*
X158200000Y-86350000D01*
G75*
G02*
X157950000Y-86600000I-250000J0D01*
G01*
X157050000Y-86600000D01*
G75*
G02*
X156800000Y-86350000I0J250000D01*
G01*
X156800000Y-85650000D01*
G75*
G02*
X157050000Y-85400000I250000J0D01*
G01*
G37*
G36*
G01*
X122550000Y-88900000D02*
X123450000Y-88900000D01*
G75*
G02*
X123700000Y-89150000I0J-250000D01*
G01*
X123700000Y-89850000D01*
G75*
G02*
X123450000Y-90100000I-250000J0D01*
G01*
X122550000Y-90100000D01*
G75*
G02*
X122300000Y-89850000I0J250000D01*
G01*
X122300000Y-89150000D01*
G75*
G02*
X122550000Y-88900000I250000J0D01*
G01*
G37*
G36*
G01*
X122550000Y-90900000D02*
X123450000Y-90900000D01*
G75*
G02*
X123700000Y-91150000I0J-250000D01*
G01*
X123700000Y-91850000D01*
G75*
G02*
X123450000Y-92100000I-250000J0D01*
G01*
X122550000Y-92100000D01*
G75*
G02*
X122300000Y-91850000I0J250000D01*
G01*
X122300000Y-91150000D01*
G75*
G02*
X122550000Y-90900000I250000J0D01*
G01*
G37*
D16*
X185215000Y-97440000D03*
X185215000Y-96170000D03*
X185215000Y-94900000D03*
X185215000Y-93630000D03*
D18*
X179665000Y-93630000D03*
X179665000Y-97440000D03*
X179665000Y-96170000D03*
X179665000Y-94900000D03*
D17*
X182000000Y-95535000D03*
D15*
X158500000Y-98000000D03*
X162500000Y-98000000D03*
G36*
G01*
X167800000Y-71947500D02*
X168100000Y-71947500D01*
G75*
G02*
X168250000Y-72097500I0J-150000D01*
G01*
X168250000Y-73122500D01*
G75*
G02*
X168100000Y-73272500I-150000J0D01*
G01*
X167800000Y-73272500D01*
G75*
G02*
X167650000Y-73122500I0J150000D01*
G01*
X167650000Y-72097500D01*
G75*
G02*
X167800000Y-71947500I150000J0D01*
G01*
G37*
G36*
G01*
X166850000Y-71947500D02*
X167150000Y-71947500D01*
G75*
G02*
X167300000Y-72097500I0J-150000D01*
G01*
X167300000Y-73122500D01*
G75*
G02*
X167150000Y-73272500I-150000J0D01*
G01*
X166850000Y-73272500D01*
G75*
G02*
X166700000Y-73122500I0J150000D01*
G01*
X166700000Y-72097500D01*
G75*
G02*
X166850000Y-71947500I150000J0D01*
G01*
G37*
G36*
G01*
X165900000Y-71947500D02*
X166200000Y-71947500D01*
G75*
G02*
X166350000Y-72097500I0J-150000D01*
G01*
X166350000Y-73122500D01*
G75*
G02*
X166200000Y-73272500I-150000J0D01*
G01*
X165900000Y-73272500D01*
G75*
G02*
X165750000Y-73122500I0J150000D01*
G01*
X165750000Y-72097500D01*
G75*
G02*
X165900000Y-71947500I150000J0D01*
G01*
G37*
G36*
G01*
X165900000Y-74222500D02*
X166200000Y-74222500D01*
G75*
G02*
X166350000Y-74372500I0J-150000D01*
G01*
X166350000Y-75397500D01*
G75*
G02*
X166200000Y-75547500I-150000J0D01*
G01*
X165900000Y-75547500D01*
G75*
G02*
X165750000Y-75397500I0J150000D01*
G01*
X165750000Y-74372500D01*
G75*
G02*
X165900000Y-74222500I150000J0D01*
G01*
G37*
G36*
G01*
X166850000Y-74222500D02*
X167150000Y-74222500D01*
G75*
G02*
X167300000Y-74372500I0J-150000D01*
G01*
X167300000Y-75397500D01*
G75*
G02*
X167150000Y-75547500I-150000J0D01*
G01*
X166850000Y-75547500D01*
G75*
G02*
X166700000Y-75397500I0J150000D01*
G01*
X166700000Y-74372500D01*
G75*
G02*
X166850000Y-74222500I150000J0D01*
G01*
G37*
G36*
G01*
X167800000Y-74222500D02*
X168100000Y-74222500D01*
G75*
G02*
X168250000Y-74372500I0J-150000D01*
G01*
X168250000Y-75397500D01*
G75*
G02*
X168100000Y-75547500I-150000J0D01*
G01*
X167800000Y-75547500D01*
G75*
G02*
X167650000Y-75397500I0J150000D01*
G01*
X167650000Y-74372500D01*
G75*
G02*
X167800000Y-74222500I150000J0D01*
G01*
G37*
G36*
G01*
X155450000Y-92100000D02*
X154550000Y-92100000D01*
G75*
G02*
X154300000Y-91850000I0J250000D01*
G01*
X154300000Y-91150000D01*
G75*
G02*
X154550000Y-90900000I250000J0D01*
G01*
X155450000Y-90900000D01*
G75*
G02*
X155700000Y-91150000I0J-250000D01*
G01*
X155700000Y-91850000D01*
G75*
G02*
X155450000Y-92100000I-250000J0D01*
G01*
G37*
G36*
G01*
X155450000Y-90100000D02*
X154550000Y-90100000D01*
G75*
G02*
X154300000Y-89850000I0J250000D01*
G01*
X154300000Y-89150000D01*
G75*
G02*
X154550000Y-88900000I250000J0D01*
G01*
X155450000Y-88900000D01*
G75*
G02*
X155700000Y-89150000I0J-250000D01*
G01*
X155700000Y-89850000D01*
G75*
G02*
X155450000Y-90100000I-250000J0D01*
G01*
G37*
G36*
G01*
X116737500Y-120650000D02*
X116737500Y-119350000D01*
G75*
G02*
X116987500Y-119100000I250000J0D01*
G01*
X117812500Y-119100000D01*
G75*
G02*
X118062500Y-119350000I0J-250000D01*
G01*
X118062500Y-120650000D01*
G75*
G02*
X117812500Y-120900000I-250000J0D01*
G01*
X116987500Y-120900000D01*
G75*
G02*
X116737500Y-120650000I0J250000D01*
G01*
G37*
G36*
G01*
X119862500Y-120650000D02*
X119862500Y-119350000D01*
G75*
G02*
X120112500Y-119100000I250000J0D01*
G01*
X120937500Y-119100000D01*
G75*
G02*
X121187500Y-119350000I0J-250000D01*
G01*
X121187500Y-120650000D01*
G75*
G02*
X120937500Y-120900000I-250000J0D01*
G01*
X120112500Y-120900000D01*
G75*
G02*
X119862500Y-120650000I0J250000D01*
G01*
G37*
D12*
X146600000Y-125000000D03*
D13*
X149000000Y-125000000D03*
D12*
X149000000Y-122600000D03*
X150697056Y-126697056D03*
X150697056Y-123302944D03*
X147302944Y-123302944D03*
X151400000Y-125000000D03*
X147302944Y-126697056D03*
X149000000Y-127400000D03*
G36*
G01*
X156800000Y-71947500D02*
X157100000Y-71947500D01*
G75*
G02*
X157250000Y-72097500I0J-150000D01*
G01*
X157250000Y-73122500D01*
G75*
G02*
X157100000Y-73272500I-150000J0D01*
G01*
X156800000Y-73272500D01*
G75*
G02*
X156650000Y-73122500I0J150000D01*
G01*
X156650000Y-72097500D01*
G75*
G02*
X156800000Y-71947500I150000J0D01*
G01*
G37*
G36*
G01*
X155850000Y-71947500D02*
X156150000Y-71947500D01*
G75*
G02*
X156300000Y-72097500I0J-150000D01*
G01*
X156300000Y-73122500D01*
G75*
G02*
X156150000Y-73272500I-150000J0D01*
G01*
X155850000Y-73272500D01*
G75*
G02*
X155700000Y-73122500I0J150000D01*
G01*
X155700000Y-72097500D01*
G75*
G02*
X155850000Y-71947500I150000J0D01*
G01*
G37*
G36*
G01*
X154900000Y-71947500D02*
X155200000Y-71947500D01*
G75*
G02*
X155350000Y-72097500I0J-150000D01*
G01*
X155350000Y-73122500D01*
G75*
G02*
X155200000Y-73272500I-150000J0D01*
G01*
X154900000Y-73272500D01*
G75*
G02*
X154750000Y-73122500I0J150000D01*
G01*
X154750000Y-72097500D01*
G75*
G02*
X154900000Y-71947500I150000J0D01*
G01*
G37*
G36*
G01*
X154900000Y-74222500D02*
X155200000Y-74222500D01*
G75*
G02*
X155350000Y-74372500I0J-150000D01*
G01*
X155350000Y-75397500D01*
G75*
G02*
X155200000Y-75547500I-150000J0D01*
G01*
X154900000Y-75547500D01*
G75*
G02*
X154750000Y-75397500I0J150000D01*
G01*
X154750000Y-74372500D01*
G75*
G02*
X154900000Y-74222500I150000J0D01*
G01*
G37*
G36*
G01*
X155850000Y-74222500D02*
X156150000Y-74222500D01*
G75*
G02*
X156300000Y-74372500I0J-150000D01*
G01*
X156300000Y-75397500D01*
G75*
G02*
X156150000Y-75547500I-150000J0D01*
G01*
X155850000Y-75547500D01*
G75*
G02*
X155700000Y-75397500I0J150000D01*
G01*
X155700000Y-74372500D01*
G75*
G02*
X155850000Y-74222500I150000J0D01*
G01*
G37*
G36*
G01*
X156800000Y-74222500D02*
X157100000Y-74222500D01*
G75*
G02*
X157250000Y-74372500I0J-150000D01*
G01*
X157250000Y-75397500D01*
G75*
G02*
X157100000Y-75547500I-150000J0D01*
G01*
X156800000Y-75547500D01*
G75*
G02*
X156650000Y-75397500I0J150000D01*
G01*
X156650000Y-74372500D01*
G75*
G02*
X156800000Y-74222500I150000J0D01*
G01*
G37*
G36*
G01*
X146737500Y-120650000D02*
X146737500Y-119350000D01*
G75*
G02*
X146987500Y-119100000I250000J0D01*
G01*
X147812500Y-119100000D01*
G75*
G02*
X148062500Y-119350000I0J-250000D01*
G01*
X148062500Y-120650000D01*
G75*
G02*
X147812500Y-120900000I-250000J0D01*
G01*
X146987500Y-120900000D01*
G75*
G02*
X146737500Y-120650000I0J250000D01*
G01*
G37*
G36*
G01*
X149862500Y-120650000D02*
X149862500Y-119350000D01*
G75*
G02*
X150112500Y-119100000I250000J0D01*
G01*
X150937500Y-119100000D01*
G75*
G02*
X151187500Y-119350000I0J-250000D01*
G01*
X151187500Y-120650000D01*
G75*
G02*
X150937500Y-120900000I-250000J0D01*
G01*
X150112500Y-120900000D01*
G75*
G02*
X149862500Y-120650000I0J250000D01*
G01*
G37*
X146600000Y-75000000D03*
X151400000Y-75000000D03*
X147302944Y-76697056D03*
D13*
X149000000Y-75000000D03*
D12*
X150697056Y-73302944D03*
X147302944Y-73302944D03*
X149000000Y-77400000D03*
X149000000Y-72600000D03*
X150697056Y-76697056D03*
D11*
X141000000Y-102000000D03*
X171000000Y-102000000D03*
G36*
G01*
X146737500Y-115650000D02*
X146737500Y-114350000D01*
G75*
G02*
X146987500Y-114100000I250000J0D01*
G01*
X147812500Y-114100000D01*
G75*
G02*
X148062500Y-114350000I0J-250000D01*
G01*
X148062500Y-115650000D01*
G75*
G02*
X147812500Y-115900000I-250000J0D01*
G01*
X146987500Y-115900000D01*
G75*
G02*
X146737500Y-115650000I0J250000D01*
G01*
G37*
G36*
G01*
X149862500Y-115650000D02*
X149862500Y-114350000D01*
G75*
G02*
X150112500Y-114100000I250000J0D01*
G01*
X150937500Y-114100000D01*
G75*
G02*
X151187500Y-114350000I0J-250000D01*
G01*
X151187500Y-115650000D01*
G75*
G02*
X150937500Y-115900000I-250000J0D01*
G01*
X150112500Y-115900000D01*
G75*
G02*
X149862500Y-115650000I0J250000D01*
G01*
G37*
G36*
G01*
X144425000Y-90575000D02*
X145375000Y-90575000D01*
G75*
G02*
X145625000Y-90825000I0J-250000D01*
G01*
X145625000Y-91500000D01*
G75*
G02*
X145375000Y-91750000I-250000J0D01*
G01*
X144425000Y-91750000D01*
G75*
G02*
X144175000Y-91500000I0J250000D01*
G01*
X144175000Y-90825000D01*
G75*
G02*
X144425000Y-90575000I250000J0D01*
G01*
G37*
G36*
G01*
X144425000Y-92650000D02*
X145375000Y-92650000D01*
G75*
G02*
X145625000Y-92900000I0J-250000D01*
G01*
X145625000Y-93575000D01*
G75*
G02*
X145375000Y-93825000I-250000J0D01*
G01*
X144425000Y-93825000D01*
G75*
G02*
X144175000Y-93575000I0J250000D01*
G01*
X144175000Y-92900000D01*
G75*
G02*
X144425000Y-92650000I250000J0D01*
G01*
G37*
D14*
X160000000Y-108250000D03*
G36*
X162550000Y-111475000D02*
G01*
X162533898Y-111632160D01*
X162477389Y-111802529D01*
X162383202Y-111955329D01*
X162256390Y-112082362D01*
X162103755Y-112176816D01*
X161933484Y-112233622D01*
X161775000Y-112250000D01*
X160070000Y-112250000D01*
X159450000Y-111630000D01*
X159450000Y-108525000D01*
X159466102Y-108367840D01*
X159522611Y-108197471D01*
X159616798Y-108044671D01*
X159743610Y-107917638D01*
X159896245Y-107823184D01*
X160066516Y-107766378D01*
X160225000Y-107750000D01*
X161775000Y-107750000D01*
X161932160Y-107766102D01*
X162102529Y-107822611D01*
X162255329Y-107916798D01*
X162382362Y-108043610D01*
X162476816Y-108196245D01*
X162533622Y-108366516D01*
X162550000Y-108525000D01*
X162550000Y-111475000D01*
G37*
X160000000Y-111750000D03*
X162000000Y-108250000D03*
X162000000Y-111750000D03*
X165500000Y-108250000D03*
X163500000Y-108250000D03*
G36*
G01*
X166050000Y-108525000D02*
X166050000Y-111475000D01*
G75*
G02*
X165275000Y-112250000I-775000J0D01*
G01*
X163725000Y-112250000D01*
G75*
G02*
X162950000Y-111475000I0J775000D01*
G01*
X162950000Y-108525000D01*
G75*
G02*
X163725000Y-107750000I775000J0D01*
G01*
X165275000Y-107750000D01*
G75*
G02*
X166050000Y-108525000I0J-775000D01*
G01*
G37*
X163500000Y-111750000D03*
X165500000Y-111750000D03*
X169000000Y-111750000D03*
G36*
G01*
X169550000Y-108525000D02*
X169550000Y-111475000D01*
G75*
G02*
X168775000Y-112250000I-775000J0D01*
G01*
X167225000Y-112250000D01*
G75*
G02*
X166450000Y-111475000I0J775000D01*
G01*
X166450000Y-108525000D01*
G75*
G02*
X167225000Y-107750000I775000J0D01*
G01*
X168775000Y-107750000D01*
G75*
G02*
X169550000Y-108525000I0J-775000D01*
G01*
G37*
X166984000Y-111750000D03*
X169016000Y-108250000D03*
X166984000Y-108250000D03*
G36*
G01*
X175525000Y-82375000D02*
X176475000Y-82375000D01*
G75*
G02*
X176725000Y-82625000I0J-250000D01*
G01*
X176725000Y-83300000D01*
G75*
G02*
X176475000Y-83550000I-250000J0D01*
G01*
X175525000Y-83550000D01*
G75*
G02*
X175275000Y-83300000I0J250000D01*
G01*
X175275000Y-82625000D01*
G75*
G02*
X175525000Y-82375000I250000J0D01*
G01*
G37*
G36*
G01*
X175525000Y-84450000D02*
X176475000Y-84450000D01*
G75*
G02*
X176725000Y-84700000I0J-250000D01*
G01*
X176725000Y-85375000D01*
G75*
G02*
X176475000Y-85625000I-250000J0D01*
G01*
X175525000Y-85625000D01*
G75*
G02*
X175275000Y-85375000I0J250000D01*
G01*
X175275000Y-84700000D01*
G75*
G02*
X175525000Y-84450000I250000J0D01*
G01*
G37*
D15*
X128500000Y-98000000D03*
X132500000Y-98000000D03*
G36*
G01*
X180950000Y-83100000D02*
X180050000Y-83100000D01*
G75*
G02*
X179800000Y-82850000I0J250000D01*
G01*
X179800000Y-82150000D01*
G75*
G02*
X180050000Y-81900000I250000J0D01*
G01*
X180950000Y-81900000D01*
G75*
G02*
X181200000Y-82150000I0J-250000D01*
G01*
X181200000Y-82850000D01*
G75*
G02*
X180950000Y-83100000I-250000J0D01*
G01*
G37*
G36*
G01*
X180950000Y-81100000D02*
X180050000Y-81100000D01*
G75*
G02*
X179800000Y-80850000I0J250000D01*
G01*
X179800000Y-80150000D01*
G75*
G02*
X180050000Y-79900000I250000J0D01*
G01*
X180950000Y-79900000D01*
G75*
G02*
X181200000Y-80150000I0J-250000D01*
G01*
X181200000Y-80850000D01*
G75*
G02*
X180950000Y-81100000I-250000J0D01*
G01*
G37*
D16*
X125215000Y-97440000D03*
X125215000Y-96170000D03*
X125215000Y-94900000D03*
X125215000Y-93630000D03*
D18*
X119665000Y-96170000D03*
X119665000Y-94900000D03*
X119665000Y-93630000D03*
D17*
X122000000Y-95535000D03*
D18*
X119665000Y-97440000D03*
G36*
G01*
X131737500Y-115650000D02*
X131737500Y-114350000D01*
G75*
G02*
X131987500Y-114100000I250000J0D01*
G01*
X132812500Y-114100000D01*
G75*
G02*
X133062500Y-114350000I0J-250000D01*
G01*
X133062500Y-115650000D01*
G75*
G02*
X132812500Y-115900000I-250000J0D01*
G01*
X131987500Y-115900000D01*
G75*
G02*
X131737500Y-115650000I0J250000D01*
G01*
G37*
G36*
G01*
X134862500Y-115650000D02*
X134862500Y-114350000D01*
G75*
G02*
X135112500Y-114100000I250000J0D01*
G01*
X135937500Y-114100000D01*
G75*
G02*
X136187500Y-114350000I0J-250000D01*
G01*
X136187500Y-115650000D01*
G75*
G02*
X135937500Y-115900000I-250000J0D01*
G01*
X135112500Y-115900000D01*
G75*
G02*
X134862500Y-115650000I0J250000D01*
G01*
G37*
G36*
G01*
X148950000Y-83600000D02*
X148050000Y-83600000D01*
G75*
G02*
X147800000Y-83350000I0J250000D01*
G01*
X147800000Y-82650000D01*
G75*
G02*
X148050000Y-82400000I250000J0D01*
G01*
X148950000Y-82400000D01*
G75*
G02*
X149200000Y-82650000I0J-250000D01*
G01*
X149200000Y-83350000D01*
G75*
G02*
X148950000Y-83600000I-250000J0D01*
G01*
G37*
G36*
G01*
X148950000Y-81600000D02*
X148050000Y-81600000D01*
G75*
G02*
X147800000Y-81350000I0J250000D01*
G01*
X147800000Y-80650000D01*
G75*
G02*
X148050000Y-80400000I250000J0D01*
G01*
X148950000Y-80400000D01*
G75*
G02*
X149200000Y-80650000I0J-250000D01*
G01*
X149200000Y-81350000D01*
G75*
G02*
X148950000Y-81600000I-250000J0D01*
G01*
G37*
G36*
G01*
X154525000Y-76622500D02*
X155475000Y-76622500D01*
G75*
G02*
X155725000Y-76872500I0J-250000D01*
G01*
X155725000Y-77547500D01*
G75*
G02*
X155475000Y-77797500I-250000J0D01*
G01*
X154525000Y-77797500D01*
G75*
G02*
X154275000Y-77547500I0J250000D01*
G01*
X154275000Y-76872500D01*
G75*
G02*
X154525000Y-76622500I250000J0D01*
G01*
G37*
G36*
G01*
X154525000Y-78697500D02*
X155475000Y-78697500D01*
G75*
G02*
X155725000Y-78947500I0J-250000D01*
G01*
X155725000Y-79622500D01*
G75*
G02*
X155475000Y-79872500I-250000J0D01*
G01*
X154525000Y-79872500D01*
G75*
G02*
X154275000Y-79622500I0J250000D01*
G01*
X154275000Y-78947500D01*
G75*
G02*
X154525000Y-78697500I250000J0D01*
G01*
G37*
G36*
G01*
X147475000Y-69587500D02*
X146525000Y-69587500D01*
G75*
G02*
X146275000Y-69337500I0J250000D01*
G01*
X146275000Y-68662500D01*
G75*
G02*
X146525000Y-68412500I250000J0D01*
G01*
X147475000Y-68412500D01*
G75*
G02*
X147725000Y-68662500I0J-250000D01*
G01*
X147725000Y-69337500D01*
G75*
G02*
X147475000Y-69587500I-250000J0D01*
G01*
G37*
G36*
G01*
X147475000Y-67512500D02*
X146525000Y-67512500D01*
G75*
G02*
X146275000Y-67262500I0J250000D01*
G01*
X146275000Y-66587500D01*
G75*
G02*
X146525000Y-66337500I250000J0D01*
G01*
X147475000Y-66337500D01*
G75*
G02*
X147725000Y-66587500I0J-250000D01*
G01*
X147725000Y-67262500D01*
G75*
G02*
X147475000Y-67512500I-250000J0D01*
G01*
G37*
D19*
X173250000Y-86000000D03*
X173750000Y-86000000D03*
X174250000Y-86000000D03*
X174250000Y-84500000D03*
X173750000Y-84500000D03*
X173250000Y-84500000D03*
D14*
X137516000Y-104278000D03*
X138278000Y-103516000D03*
X135484000Y-104278000D03*
X134722000Y-101484000D03*
X137516000Y-100722000D03*
X135484000Y-100722000D03*
X138278000Y-101484000D03*
X134722000Y-103516000D03*
X136500000Y-100468000D03*
G36*
G01*
X138650000Y-101075000D02*
X138650000Y-103925000D01*
G75*
G02*
X137575000Y-105000000I-1075000J0D01*
G01*
X135425000Y-105000000D01*
G75*
G02*
X134350000Y-103925000I0J1075000D01*
G01*
X134350000Y-101075000D01*
G75*
G02*
X135425000Y-100000000I1075000J0D01*
G01*
X137575000Y-100000000D01*
G75*
G02*
X138650000Y-101075000I0J-1075000D01*
G01*
G37*
X136500000Y-104532000D03*
X131500000Y-100468000D03*
X131500000Y-104532000D03*
G36*
G01*
X133650000Y-101075000D02*
X133650000Y-103925000D01*
G75*
G02*
X132575000Y-105000000I-1075000J0D01*
G01*
X130425000Y-105000000D01*
G75*
G02*
X129350000Y-103925000I0J1075000D01*
G01*
X129350000Y-101075000D01*
G75*
G02*
X130425000Y-100000000I1075000J0D01*
G01*
X132575000Y-100000000D01*
G75*
G02*
X133650000Y-101075000I0J-1075000D01*
G01*
G37*
X133278000Y-101484000D03*
X130484000Y-100722000D03*
X133278000Y-103516000D03*
X130484000Y-104278000D03*
X129722000Y-101484000D03*
X132516000Y-100722000D03*
X129722000Y-103516000D03*
X132516000Y-104278000D03*
X180484000Y-119278000D03*
X183278000Y-118516000D03*
X182516000Y-119278000D03*
X183278000Y-116484000D03*
X180484000Y-115722000D03*
X181500000Y-119532000D03*
X179722000Y-116484000D03*
X182516000Y-115722000D03*
X179722000Y-118516000D03*
G36*
G01*
X183650000Y-116075000D02*
X183650000Y-118925000D01*
G75*
G02*
X182575000Y-120000000I-1075000J0D01*
G01*
X180425000Y-120000000D01*
G75*
G02*
X179350000Y-118925000I0J1075000D01*
G01*
X179350000Y-116075000D01*
G75*
G02*
X180425000Y-115000000I1075000J0D01*
G01*
X182575000Y-115000000D01*
G75*
G02*
X183650000Y-116075000I0J-1075000D01*
G01*
G37*
X181500000Y-115468000D03*
X178278000Y-118516000D03*
X177516000Y-119278000D03*
X176500000Y-115468000D03*
X175484000Y-115722000D03*
X176500000Y-119532000D03*
X174722000Y-116484000D03*
X174722000Y-118516000D03*
X175484000Y-119278000D03*
X177516000Y-115722000D03*
G36*
G01*
X178650000Y-116075000D02*
X178650000Y-118925000D01*
G75*
G02*
X177575000Y-120000000I-1075000J0D01*
G01*
X175425000Y-120000000D01*
G75*
G02*
X174350000Y-118925000I0J1075000D01*
G01*
X174350000Y-116075000D01*
G75*
G02*
X175425000Y-115000000I1075000J0D01*
G01*
X177575000Y-115000000D01*
G75*
G02*
X178650000Y-116075000I0J-1075000D01*
G01*
G37*
X178278000Y-116484000D03*
X164722000Y-103516000D03*
X164722000Y-101484000D03*
X168278000Y-101484000D03*
X166500000Y-104532000D03*
X168278000Y-103516000D03*
X167516000Y-104278000D03*
X165484000Y-100722000D03*
G36*
G01*
X168650000Y-101075000D02*
X168650000Y-103925000D01*
G75*
G02*
X167575000Y-105000000I-1075000J0D01*
G01*
X165425000Y-105000000D01*
G75*
G02*
X164350000Y-103925000I0J1075000D01*
G01*
X164350000Y-101075000D01*
G75*
G02*
X165425000Y-100000000I1075000J0D01*
G01*
X167575000Y-100000000D01*
G75*
G02*
X168650000Y-101075000I0J-1075000D01*
G01*
G37*
X167516000Y-100722000D03*
X166500000Y-100468000D03*
X165484000Y-104278000D03*
X162516000Y-100722000D03*
X159722000Y-101484000D03*
X159722000Y-103516000D03*
X163278000Y-103516000D03*
G36*
G01*
X163650000Y-101075000D02*
X163650000Y-103925000D01*
G75*
G02*
X162575000Y-105000000I-1075000J0D01*
G01*
X160425000Y-105000000D01*
G75*
G02*
X159350000Y-103925000I0J1075000D01*
G01*
X159350000Y-101075000D01*
G75*
G02*
X160425000Y-100000000I1075000J0D01*
G01*
X162575000Y-100000000D01*
G75*
G02*
X163650000Y-101075000I0J-1075000D01*
G01*
G37*
X160484000Y-104278000D03*
X161500000Y-104532000D03*
X163278000Y-101484000D03*
X161500000Y-100468000D03*
X162516000Y-104278000D03*
X160484000Y-100722000D03*
X179722000Y-101484000D03*
X180484000Y-104278000D03*
X181500000Y-100468000D03*
X180484000Y-100722000D03*
X182516000Y-104278000D03*
X181500000Y-104532000D03*
X182516000Y-100722000D03*
X183278000Y-103516000D03*
X179722000Y-103516000D03*
G36*
G01*
X183650000Y-101075000D02*
X183650000Y-103925000D01*
G75*
G02*
X182575000Y-105000000I-1075000J0D01*
G01*
X180425000Y-105000000D01*
G75*
G02*
X179350000Y-103925000I0J1075000D01*
G01*
X179350000Y-101075000D01*
G75*
G02*
X180425000Y-100000000I1075000J0D01*
G01*
X182575000Y-100000000D01*
G75*
G02*
X183650000Y-101075000I0J-1075000D01*
G01*
G37*
X183278000Y-101484000D03*
X174722000Y-103516000D03*
X174722000Y-101484000D03*
X177516000Y-100722000D03*
X175484000Y-100722000D03*
X176500000Y-100468000D03*
X178278000Y-101484000D03*
X177516000Y-104278000D03*
G36*
G01*
X178650000Y-101075000D02*
X178650000Y-103925000D01*
G75*
G02*
X177575000Y-105000000I-1075000J0D01*
G01*
X175425000Y-105000000D01*
G75*
G02*
X174350000Y-103925000I0J1075000D01*
G01*
X174350000Y-101075000D01*
G75*
G02*
X175425000Y-100000000I1075000J0D01*
G01*
X177575000Y-100000000D01*
G75*
G02*
X178650000Y-101075000I0J-1075000D01*
G01*
G37*
X175484000Y-104278000D03*
X178278000Y-103516000D03*
X176500000Y-104532000D03*
X134722000Y-116484000D03*
X136500000Y-119532000D03*
X135484000Y-115722000D03*
X137516000Y-115722000D03*
G36*
G01*
X138650000Y-116075000D02*
X138650000Y-118925000D01*
G75*
G02*
X137575000Y-120000000I-1075000J0D01*
G01*
X135425000Y-120000000D01*
G75*
G02*
X134350000Y-118925000I0J1075000D01*
G01*
X134350000Y-116075000D01*
G75*
G02*
X135425000Y-115000000I1075000J0D01*
G01*
X137575000Y-115000000D01*
G75*
G02*
X138650000Y-116075000I0J-1075000D01*
G01*
G37*
X138278000Y-118516000D03*
X138278000Y-116484000D03*
X135484000Y-119278000D03*
X136500000Y-115468000D03*
X137516000Y-119278000D03*
X134722000Y-118516000D03*
X129722000Y-116484000D03*
X133278000Y-116484000D03*
X132516000Y-119278000D03*
X133278000Y-118516000D03*
X130484000Y-115722000D03*
X130484000Y-119278000D03*
X129722000Y-118516000D03*
G36*
G01*
X133650000Y-116075000D02*
X133650000Y-118925000D01*
G75*
G02*
X132575000Y-120000000I-1075000J0D01*
G01*
X130425000Y-120000000D01*
G75*
G02*
X129350000Y-118925000I0J1075000D01*
G01*
X129350000Y-116075000D01*
G75*
G02*
X130425000Y-115000000I1075000J0D01*
G01*
X132575000Y-115000000D01*
G75*
G02*
X133650000Y-116075000I0J-1075000D01*
G01*
G37*
X131500000Y-119532000D03*
X132516000Y-115722000D03*
X131500000Y-115468000D03*
G36*
G01*
X123650000Y-116075000D02*
X123650000Y-118925000D01*
G75*
G02*
X122575000Y-120000000I-1075000J0D01*
G01*
X120425000Y-120000000D01*
G75*
G02*
X119350000Y-118925000I0J1075000D01*
G01*
X119350000Y-116075000D01*
G75*
G02*
X120425000Y-115000000I1075000J0D01*
G01*
X122575000Y-115000000D01*
G75*
G02*
X123650000Y-116075000I0J-1075000D01*
G01*
G37*
X121500000Y-119532000D03*
X123278000Y-116484000D03*
X122516000Y-119278000D03*
X122516000Y-115722000D03*
X123278000Y-118516000D03*
X119722000Y-116484000D03*
X120484000Y-115722000D03*
X119722000Y-118516000D03*
X120484000Y-119278000D03*
X121500000Y-115468000D03*
X117516000Y-119278000D03*
X116500000Y-119532000D03*
X114722000Y-118516000D03*
G36*
G01*
X118650000Y-116075000D02*
X118650000Y-118925000D01*
G75*
G02*
X117575000Y-120000000I-1075000J0D01*
G01*
X115425000Y-120000000D01*
G75*
G02*
X114350000Y-118925000I0J1075000D01*
G01*
X114350000Y-116075000D01*
G75*
G02*
X115425000Y-115000000I1075000J0D01*
G01*
X117575000Y-115000000D01*
G75*
G02*
X118650000Y-116075000I0J-1075000D01*
G01*
G37*
X118278000Y-118516000D03*
X114722000Y-116484000D03*
X115484000Y-119278000D03*
X118278000Y-116484000D03*
X116500000Y-115468000D03*
X117516000Y-115722000D03*
X115484000Y-115722000D03*
X121500000Y-100468000D03*
X121500000Y-104532000D03*
X123278000Y-103516000D03*
X120484000Y-100722000D03*
X122516000Y-100722000D03*
X120484000Y-104278000D03*
X122516000Y-104278000D03*
X123278000Y-101484000D03*
G36*
G01*
X123650000Y-101075000D02*
X123650000Y-103925000D01*
G75*
G02*
X122575000Y-105000000I-1075000J0D01*
G01*
X120425000Y-105000000D01*
G75*
G02*
X119350000Y-103925000I0J1075000D01*
G01*
X119350000Y-101075000D01*
G75*
G02*
X120425000Y-100000000I1075000J0D01*
G01*
X122575000Y-100000000D01*
G75*
G02*
X123650000Y-101075000I0J-1075000D01*
G01*
G37*
X119722000Y-101484000D03*
X119722000Y-103516000D03*
X118278000Y-103516000D03*
X117516000Y-104278000D03*
X114722000Y-103516000D03*
X116500000Y-100468000D03*
X116500000Y-104532000D03*
X114722000Y-101484000D03*
X115484000Y-100722000D03*
X118278000Y-101484000D03*
G36*
G01*
X118650000Y-101075000D02*
X118650000Y-103925000D01*
G75*
G02*
X117575000Y-105000000I-1075000J0D01*
G01*
X115425000Y-105000000D01*
G75*
G02*
X114350000Y-103925000I0J1075000D01*
G01*
X114350000Y-101075000D01*
G75*
G02*
X115425000Y-100000000I1075000J0D01*
G01*
X117575000Y-100000000D01*
G75*
G02*
X118650000Y-101075000I0J-1075000D01*
G01*
G37*
X117516000Y-100722000D03*
X115484000Y-104278000D03*
X153278000Y-118516000D03*
G36*
G01*
X153650000Y-116075000D02*
X153650000Y-118925000D01*
G75*
G02*
X152575000Y-120000000I-1075000J0D01*
G01*
X150425000Y-120000000D01*
G75*
G02*
X149350000Y-118925000I0J1075000D01*
G01*
X149350000Y-116075000D01*
G75*
G02*
X150425000Y-115000000I1075000J0D01*
G01*
X152575000Y-115000000D01*
G75*
G02*
X153650000Y-116075000I0J-1075000D01*
G01*
G37*
X152516000Y-115722000D03*
X151500000Y-115468000D03*
X153278000Y-116484000D03*
X149722000Y-118516000D03*
X149722000Y-116484000D03*
X151500000Y-119532000D03*
X152516000Y-119278000D03*
X150484000Y-119278000D03*
X150484000Y-115722000D03*
X146500000Y-115468000D03*
X144722000Y-116484000D03*
X145484000Y-119278000D03*
X147516000Y-115722000D03*
X147516000Y-119278000D03*
X146500000Y-119532000D03*
X148278000Y-116484000D03*
X148278000Y-118516000D03*
X145484000Y-115722000D03*
X144722000Y-118516000D03*
G36*
G01*
X148650000Y-116075000D02*
X148650000Y-118925000D01*
G75*
G02*
X147575000Y-120000000I-1075000J0D01*
G01*
X145425000Y-120000000D01*
G75*
G02*
X144350000Y-118925000I0J1075000D01*
G01*
X144350000Y-116075000D01*
G75*
G02*
X145425000Y-115000000I1075000J0D01*
G01*
X147575000Y-115000000D01*
G75*
G02*
X148650000Y-116075000I0J-1075000D01*
G01*
G37*
X168278000Y-116484000D03*
X166500000Y-119532000D03*
X165484000Y-119278000D03*
X168278000Y-118516000D03*
X164722000Y-116484000D03*
X167516000Y-119278000D03*
G36*
G01*
X168650000Y-116075000D02*
X168650000Y-118925000D01*
G75*
G02*
X167575000Y-120000000I-1075000J0D01*
G01*
X165425000Y-120000000D01*
G75*
G02*
X164350000Y-118925000I0J1075000D01*
G01*
X164350000Y-116075000D01*
G75*
G02*
X165425000Y-115000000I1075000J0D01*
G01*
X167575000Y-115000000D01*
G75*
G02*
X168650000Y-116075000I0J-1075000D01*
G01*
G37*
X167516000Y-115722000D03*
X166500000Y-115468000D03*
X165484000Y-115722000D03*
X164722000Y-118516000D03*
X163278000Y-116484000D03*
X161500000Y-115468000D03*
G36*
G01*
X163650000Y-116075000D02*
X163650000Y-118925000D01*
G75*
G02*
X162575000Y-120000000I-1075000J0D01*
G01*
X160425000Y-120000000D01*
G75*
G02*
X159350000Y-118925000I0J1075000D01*
G01*
X159350000Y-116075000D01*
G75*
G02*
X160425000Y-115000000I1075000J0D01*
G01*
X162575000Y-115000000D01*
G75*
G02*
X163650000Y-116075000I0J-1075000D01*
G01*
G37*
X159722000Y-118516000D03*
X162516000Y-115722000D03*
X160484000Y-115722000D03*
X162516000Y-119278000D03*
X163278000Y-118516000D03*
X161500000Y-119532000D03*
X159722000Y-116484000D03*
X160484000Y-119278000D03*
X153278000Y-103516000D03*
X150484000Y-104278000D03*
X149722000Y-101484000D03*
X151500000Y-104532000D03*
X150484000Y-100722000D03*
X153278000Y-101484000D03*
X149722000Y-103516000D03*
X152516000Y-104278000D03*
X152516000Y-100722000D03*
G36*
G01*
X153650000Y-101075000D02*
X153650000Y-103925000D01*
G75*
G02*
X152575000Y-105000000I-1075000J0D01*
G01*
X150425000Y-105000000D01*
G75*
G02*
X149350000Y-103925000I0J1075000D01*
G01*
X149350000Y-101075000D01*
G75*
G02*
X150425000Y-100000000I1075000J0D01*
G01*
X152575000Y-100000000D01*
G75*
G02*
X153650000Y-101075000I0J-1075000D01*
G01*
G37*
X151500000Y-100468000D03*
X146500000Y-104532000D03*
X145484000Y-104278000D03*
X144722000Y-101484000D03*
X147516000Y-104278000D03*
X147516000Y-100722000D03*
X144722000Y-103516000D03*
X148278000Y-101484000D03*
X146500000Y-100468000D03*
X148278000Y-103516000D03*
X145484000Y-100722000D03*
G36*
G01*
X148650000Y-101075000D02*
X148650000Y-103925000D01*
G75*
G02*
X147575000Y-105000000I-1075000J0D01*
G01*
X145425000Y-105000000D01*
G75*
G02*
X144350000Y-103925000I0J1075000D01*
G01*
X144350000Y-101075000D01*
G75*
G02*
X145425000Y-100000000I1075000J0D01*
G01*
X147575000Y-100000000D01*
G75*
G02*
X148650000Y-101075000I0J-1075000D01*
G01*
G37*
M02*
