%TF.GenerationSoftware,KiCad,Pcbnew,6.0.10+dfsg-1~bpo11+1*%
%TF.ProjectId,pwr,7077722e-6b69-4636-9164-5f7063625858,rev?*%
%TF.SameCoordinates,Original*%
%TF.FileFunction,Drillmap*%
%TF.FilePolarity,Positive*%
%FSLAX45Y45*%
G04 Gerber Fmt 4.5, Leading zero omitted, Abs format (unit mm)*
%MOMM*%
%LPD*%
G01*
G04 APERTURE LIST*
%ADD10C,0.100000*%
%ADD11C,0.200000*%
%ADD12C,0.030000*%
%ADD13C,0.050000*%
%ADD14C,0.160000*%
%ADD15C,0.270000*%
%ADD16C,0.320000*%
G04 APERTURE END LIST*
D10*
X18400000Y-13000000D02*
G75*
G03*
X18900000Y-12500000I0J500000D01*
G01*
X11150000Y-12500000D02*
G75*
G03*
X11650000Y-13000000I500000J0D01*
G01*
X11650000Y-5500000D02*
X18400000Y-5500000D01*
X11150000Y-12500000D02*
X11150000Y-6000000D01*
X18900000Y-6000000D02*
G75*
G03*
X18400000Y-5500000I-500000J0D01*
G01*
X18400000Y-13000000D02*
X11650000Y-13000000D01*
X11650000Y-5500000D02*
G75*
G03*
X11150000Y-6000000I0J-500000D01*
G01*
X18900000Y-6000000D02*
X18900000Y-12500000D01*
D11*
D12*
X11235000Y-8985000D02*
X11265000Y-9015000D01*
X11265000Y-8985000D02*
X11235000Y-9015000D01*
X11235000Y-9085000D02*
X11265000Y-9115000D01*
X11265000Y-9085000D02*
X11235000Y-9115000D01*
X11235000Y-9185000D02*
X11265000Y-9215000D01*
X11265000Y-9185000D02*
X11235000Y-9215000D01*
X11235000Y-9285000D02*
X11265000Y-9315000D01*
X11265000Y-9285000D02*
X11235000Y-9315000D01*
X11235000Y-9385000D02*
X11265000Y-9415000D01*
X11265000Y-9385000D02*
X11235000Y-9415000D01*
X11235000Y-9485000D02*
X11265000Y-9515000D01*
X11265000Y-9485000D02*
X11235000Y-9515000D01*
X11235000Y-9585000D02*
X11265000Y-9615000D01*
X11265000Y-9585000D02*
X11235000Y-9615000D01*
X11235000Y-9685000D02*
X11265000Y-9715000D01*
X11265000Y-9685000D02*
X11235000Y-9715000D01*
X11235000Y-9785000D02*
X11265000Y-9815000D01*
X11265000Y-9785000D02*
X11235000Y-9815000D01*
X11235000Y-9885000D02*
X11265000Y-9915000D01*
X11265000Y-9885000D02*
X11235000Y-9915000D01*
X11235000Y-9985000D02*
X11265000Y-10015000D01*
X11265000Y-9985000D02*
X11235000Y-10015000D01*
X11240050Y-6047852D02*
X11270050Y-6077852D01*
X11270050Y-6047852D02*
X11240050Y-6077852D01*
X11240050Y-6550180D02*
X11270050Y-6580180D01*
X11270050Y-6550180D02*
X11240050Y-6580180D01*
X11240050Y-7052508D02*
X11270050Y-7082508D01*
X11270050Y-7052508D02*
X11240050Y-7082508D01*
X11240050Y-7554835D02*
X11270050Y-7584835D01*
X11270050Y-7554835D02*
X11240050Y-7584835D01*
X11240050Y-8057163D02*
X11270050Y-8087163D01*
X11270050Y-8057163D02*
X11240050Y-8087163D01*
X11240050Y-8559491D02*
X11270050Y-8589491D01*
X11270050Y-8559491D02*
X11240050Y-8589491D01*
X11335000Y-8985000D02*
X11365000Y-9015000D01*
X11365000Y-8985000D02*
X11335000Y-9015000D01*
X11335000Y-9085000D02*
X11365000Y-9115000D01*
X11365000Y-9085000D02*
X11335000Y-9115000D01*
X11335000Y-9185000D02*
X11365000Y-9215000D01*
X11365000Y-9185000D02*
X11335000Y-9215000D01*
X11335000Y-9285000D02*
X11365000Y-9315000D01*
X11365000Y-9285000D02*
X11335000Y-9315000D01*
X11335000Y-9385000D02*
X11365000Y-9415000D01*
X11365000Y-9385000D02*
X11335000Y-9415000D01*
X11335000Y-9485000D02*
X11365000Y-9515000D01*
X11365000Y-9485000D02*
X11335000Y-9515000D01*
X11335000Y-9585000D02*
X11365000Y-9615000D01*
X11365000Y-9585000D02*
X11335000Y-9615000D01*
X11335000Y-9685000D02*
X11365000Y-9715000D01*
X11365000Y-9685000D02*
X11335000Y-9715000D01*
X11335000Y-9785000D02*
X11365000Y-9815000D01*
X11365000Y-9785000D02*
X11335000Y-9815000D01*
X11335000Y-9885000D02*
X11365000Y-9915000D01*
X11365000Y-9885000D02*
X11335000Y-9915000D01*
X11335000Y-9985000D02*
X11365000Y-10015000D01*
X11365000Y-9985000D02*
X11335000Y-10015000D01*
X11335000Y-10085000D02*
X11365000Y-10115000D01*
X11365000Y-10085000D02*
X11335000Y-10115000D01*
X11435000Y-8985000D02*
X11465000Y-9015000D01*
X11465000Y-8985000D02*
X11435000Y-9015000D01*
X11435000Y-9785000D02*
X11465000Y-9815000D01*
X11465000Y-9785000D02*
X11435000Y-9815000D01*
X11435000Y-9885000D02*
X11465000Y-9915000D01*
X11465000Y-9885000D02*
X11435000Y-9915000D01*
X11435000Y-9985000D02*
X11465000Y-10015000D01*
X11465000Y-9985000D02*
X11435000Y-10015000D01*
X11460649Y-5630995D02*
X11490649Y-5660995D01*
X11490649Y-5630995D02*
X11460649Y-5660995D01*
X11485000Y-9485000D02*
X11515000Y-9515000D01*
X11515000Y-9485000D02*
X11485000Y-9515000D01*
X11485000Y-9585000D02*
X11515000Y-9615000D01*
X11515000Y-9585000D02*
X11485000Y-9615000D01*
X11535000Y-8985000D02*
X11565000Y-9015000D01*
X11565000Y-8985000D02*
X11535000Y-9015000D01*
X11535000Y-9885000D02*
X11565000Y-9915000D01*
X11565000Y-9885000D02*
X11535000Y-9915000D01*
X11581869Y-8720000D02*
X11611869Y-8750000D01*
X11611869Y-8720000D02*
X11581869Y-8750000D01*
X11585000Y-9485000D02*
X11615000Y-9515000D01*
X11615000Y-9485000D02*
X11585000Y-9515000D01*
X11585000Y-9585000D02*
X11615000Y-9615000D01*
X11615000Y-9585000D02*
X11585000Y-9615000D01*
X11585000Y-9685000D02*
X11615000Y-9715000D01*
X11615000Y-9685000D02*
X11585000Y-9715000D01*
X11635000Y-8985000D02*
X11665000Y-9015000D01*
X11665000Y-8985000D02*
X11635000Y-9015000D01*
X11656473Y-8191863D02*
X11686473Y-8221863D01*
X11686473Y-8191863D02*
X11656473Y-8221863D01*
X11685000Y-9485000D02*
X11715000Y-9515000D01*
X11715000Y-9485000D02*
X11685000Y-9515000D01*
X11685000Y-9585000D02*
X11715000Y-9615000D01*
X11715000Y-9585000D02*
X11685000Y-9615000D01*
X11685000Y-9685000D02*
X11715000Y-9715000D01*
X11715000Y-9685000D02*
X11685000Y-9715000D01*
X11685000Y-9785000D02*
X11715000Y-9815000D01*
X11715000Y-9785000D02*
X11685000Y-9815000D01*
X11735000Y-8985000D02*
X11765000Y-9015000D01*
X11765000Y-8985000D02*
X11735000Y-9015000D01*
X11785000Y-8135000D02*
X11815000Y-8165000D01*
X11815000Y-8135000D02*
X11785000Y-8165000D01*
X11785000Y-9485000D02*
X11815000Y-9515000D01*
X11815000Y-9485000D02*
X11785000Y-9515000D01*
X11785000Y-9585000D02*
X11815000Y-9615000D01*
X11815000Y-9585000D02*
X11785000Y-9615000D01*
X11785000Y-9685000D02*
X11815000Y-9715000D01*
X11815000Y-9685000D02*
X11785000Y-9715000D01*
X11785000Y-9785000D02*
X11815000Y-9815000D01*
X11815000Y-9785000D02*
X11785000Y-9815000D01*
X11785000Y-9885000D02*
X11815000Y-9915000D01*
X11815000Y-9885000D02*
X11785000Y-9915000D01*
X11867963Y-7851105D02*
X11897963Y-7881105D01*
X11897963Y-7851105D02*
X11867963Y-7881105D01*
X11885000Y-9385000D02*
X11915000Y-9415000D01*
X11915000Y-9385000D02*
X11885000Y-9415000D01*
X11885000Y-9485000D02*
X11915000Y-9515000D01*
X11915000Y-9485000D02*
X11885000Y-9515000D01*
X11885000Y-9585000D02*
X11915000Y-9615000D01*
X11915000Y-9585000D02*
X11885000Y-9615000D01*
X11885000Y-9685000D02*
X11915000Y-9715000D01*
X11915000Y-9685000D02*
X11885000Y-9715000D01*
X11885000Y-9785000D02*
X11915000Y-9815000D01*
X11915000Y-9785000D02*
X11885000Y-9815000D01*
X11885000Y-9885000D02*
X11915000Y-9915000D01*
X11915000Y-9885000D02*
X11885000Y-9915000D01*
X11931882Y-8520376D02*
X11961882Y-8550376D01*
X11961882Y-8520376D02*
X11931882Y-8550376D01*
X11935000Y-8905000D02*
X11965000Y-8935000D01*
X11965000Y-8905000D02*
X11935000Y-8935000D01*
X11956619Y-5590050D02*
X11986619Y-5620050D01*
X11986619Y-5590050D02*
X11956619Y-5620050D01*
X11985000Y-9385000D02*
X12015000Y-9415000D01*
X12015000Y-9385000D02*
X11985000Y-9415000D01*
X11985000Y-9485000D02*
X12015000Y-9515000D01*
X12015000Y-9485000D02*
X11985000Y-9515000D01*
X11985000Y-9585000D02*
X12015000Y-9615000D01*
X12015000Y-9585000D02*
X11985000Y-9615000D01*
X11985000Y-9685000D02*
X12015000Y-9715000D01*
X12015000Y-9685000D02*
X11985000Y-9715000D01*
X11985000Y-9785000D02*
X12015000Y-9815000D01*
X12015000Y-9785000D02*
X11985000Y-9815000D01*
X11985000Y-9885000D02*
X12015000Y-9915000D01*
X12015000Y-9885000D02*
X11985000Y-9915000D01*
X12035000Y-8285000D02*
X12065000Y-8315000D01*
X12065000Y-8285000D02*
X12035000Y-8315000D01*
X12035000Y-8985000D02*
X12065000Y-9015000D01*
X12065000Y-8985000D02*
X12035000Y-9015000D01*
X12035000Y-9085000D02*
X12065000Y-9115000D01*
X12065000Y-9085000D02*
X12035000Y-9115000D01*
X12035000Y-9185000D02*
X12065000Y-9215000D01*
X12065000Y-9185000D02*
X12035000Y-9215000D01*
X12085000Y-8135000D02*
X12115000Y-8165000D01*
X12115000Y-8135000D02*
X12085000Y-8165000D01*
X12085000Y-9385000D02*
X12115000Y-9415000D01*
X12115000Y-9385000D02*
X12085000Y-9415000D01*
X12085000Y-9485000D02*
X12115000Y-9515000D01*
X12115000Y-9485000D02*
X12085000Y-9515000D01*
X12085000Y-9585000D02*
X12115000Y-9615000D01*
X12115000Y-9585000D02*
X12085000Y-9615000D01*
X12085000Y-9685000D02*
X12115000Y-9715000D01*
X12115000Y-9685000D02*
X12085000Y-9715000D01*
X12085000Y-9785000D02*
X12115000Y-9815000D01*
X12115000Y-9785000D02*
X12085000Y-9815000D01*
X12085000Y-9885000D02*
X12115000Y-9915000D01*
X12115000Y-9885000D02*
X12085000Y-9915000D01*
X12135000Y-8985000D02*
X12165000Y-9015000D01*
X12165000Y-8985000D02*
X12135000Y-9015000D01*
X12135000Y-9085000D02*
X12165000Y-9115000D01*
X12165000Y-9085000D02*
X12135000Y-9115000D01*
X12135000Y-9185000D02*
X12165000Y-9215000D01*
X12165000Y-9185000D02*
X12135000Y-9215000D01*
X12185000Y-9385000D02*
X12215000Y-9415000D01*
X12215000Y-9385000D02*
X12185000Y-9415000D01*
X12185000Y-9485000D02*
X12215000Y-9515000D01*
X12215000Y-9485000D02*
X12185000Y-9515000D01*
X12185000Y-9585000D02*
X12215000Y-9615000D01*
X12215000Y-9585000D02*
X12185000Y-9615000D01*
X12185000Y-9685000D02*
X12215000Y-9715000D01*
X12215000Y-9685000D02*
X12185000Y-9715000D01*
X12185000Y-9785000D02*
X12215000Y-9815000D01*
X12215000Y-9785000D02*
X12185000Y-9815000D01*
X12185000Y-9885000D02*
X12215000Y-9915000D01*
X12215000Y-9885000D02*
X12185000Y-9915000D01*
X12210050Y-8060614D02*
X12240050Y-8090614D01*
X12240050Y-8060614D02*
X12210050Y-8090614D01*
X12285000Y-9385000D02*
X12315000Y-9415000D01*
X12315000Y-9385000D02*
X12285000Y-9415000D01*
X12285000Y-9485000D02*
X12315000Y-9515000D01*
X12315000Y-9485000D02*
X12285000Y-9515000D01*
X12285000Y-9585000D02*
X12315000Y-9615000D01*
X12315000Y-9585000D02*
X12285000Y-9615000D01*
X12285000Y-9685000D02*
X12315000Y-9715000D01*
X12315000Y-9685000D02*
X12285000Y-9715000D01*
X12285000Y-9785000D02*
X12315000Y-9815000D01*
X12315000Y-9785000D02*
X12285000Y-9815000D01*
X12285000Y-9885000D02*
X12315000Y-9915000D01*
X12315000Y-9885000D02*
X12285000Y-9915000D01*
X12358292Y-8324621D02*
X12388292Y-8354621D01*
X12388292Y-8324621D02*
X12358292Y-8354621D01*
X12458946Y-5590050D02*
X12488946Y-5620050D01*
X12488946Y-5590050D02*
X12458946Y-5620050D01*
X12485000Y-9535000D02*
X12515000Y-9565000D01*
X12515000Y-9535000D02*
X12485000Y-9565000D01*
X12485000Y-9660000D02*
X12515000Y-9690000D01*
X12515000Y-9660000D02*
X12485000Y-9690000D01*
X12485000Y-9835000D02*
X12515000Y-9865000D01*
X12515000Y-9835000D02*
X12485000Y-9865000D01*
X12485000Y-9935000D02*
X12515000Y-9965000D01*
X12515000Y-9935000D02*
X12485000Y-9965000D01*
X12485000Y-10035000D02*
X12515000Y-10065000D01*
X12515000Y-10035000D02*
X12485000Y-10065000D01*
X12551852Y-7770166D02*
X12581852Y-7800166D01*
X12581852Y-7770166D02*
X12551852Y-7800166D01*
X12585000Y-9435000D02*
X12615000Y-9465000D01*
X12615000Y-9435000D02*
X12585000Y-9465000D01*
X12585000Y-9535000D02*
X12615000Y-9565000D01*
X12615000Y-9535000D02*
X12585000Y-9565000D01*
X12585000Y-9635000D02*
X12615000Y-9665000D01*
X12615000Y-9635000D02*
X12585000Y-9665000D01*
X12585000Y-9735000D02*
X12615000Y-9765000D01*
X12615000Y-9735000D02*
X12585000Y-9765000D01*
X12585000Y-9835000D02*
X12615000Y-9865000D01*
X12615000Y-9835000D02*
X12585000Y-9865000D01*
X12585000Y-9935000D02*
X12615000Y-9965000D01*
X12615000Y-9935000D02*
X12585000Y-9965000D01*
X12585000Y-10035000D02*
X12615000Y-10065000D01*
X12615000Y-10035000D02*
X12585000Y-10065000D01*
X12585000Y-10185000D02*
X12615000Y-10215000D01*
X12615000Y-10185000D02*
X12585000Y-10215000D01*
X12586524Y-8720000D02*
X12616524Y-8750000D01*
X12616524Y-8720000D02*
X12586524Y-8750000D01*
X12732391Y-8015050D02*
X12762391Y-8045050D01*
X12762391Y-8015050D02*
X12732391Y-8045050D01*
X12735000Y-8985000D02*
X12765000Y-9015000D01*
X12765000Y-8985000D02*
X12735000Y-9015000D01*
X12735000Y-9085000D02*
X12765000Y-9115000D01*
X12765000Y-9085000D02*
X12735000Y-9115000D01*
X12735000Y-9185000D02*
X12765000Y-9215000D01*
X12765000Y-9185000D02*
X12735000Y-9215000D01*
X12735000Y-9285000D02*
X12765000Y-9315000D01*
X12765000Y-9285000D02*
X12735000Y-9315000D01*
X12735000Y-9385000D02*
X12765000Y-9415000D01*
X12765000Y-9385000D02*
X12735000Y-9415000D01*
X12735000Y-9485000D02*
X12765000Y-9515000D01*
X12765000Y-9485000D02*
X12735000Y-9515000D01*
X12735000Y-9585000D02*
X12765000Y-9615000D01*
X12765000Y-9585000D02*
X12735000Y-9615000D01*
X12735000Y-9685000D02*
X12765000Y-9715000D01*
X12765000Y-9685000D02*
X12735000Y-9715000D01*
X12735000Y-9785000D02*
X12765000Y-9815000D01*
X12765000Y-9785000D02*
X12735000Y-9815000D01*
X12735000Y-9885000D02*
X12765000Y-9915000D01*
X12765000Y-9885000D02*
X12735000Y-9915000D01*
X12735000Y-9985000D02*
X12765000Y-10015000D01*
X12765000Y-9985000D02*
X12735000Y-10015000D01*
X12835000Y-8985000D02*
X12865000Y-9015000D01*
X12865000Y-8985000D02*
X12835000Y-9015000D01*
X12835000Y-9085000D02*
X12865000Y-9115000D01*
X12865000Y-9085000D02*
X12835000Y-9115000D01*
X12835000Y-9185000D02*
X12865000Y-9215000D01*
X12865000Y-9185000D02*
X12835000Y-9215000D01*
X12835000Y-9285000D02*
X12865000Y-9315000D01*
X12865000Y-9285000D02*
X12835000Y-9315000D01*
X12835000Y-9385000D02*
X12865000Y-9415000D01*
X12865000Y-9385000D02*
X12835000Y-9415000D01*
X12835000Y-9485000D02*
X12865000Y-9515000D01*
X12865000Y-9485000D02*
X12835000Y-9515000D01*
X12835000Y-9585000D02*
X12865000Y-9615000D01*
X12865000Y-9585000D02*
X12835000Y-9615000D01*
X12835000Y-9685000D02*
X12865000Y-9715000D01*
X12865000Y-9685000D02*
X12835000Y-9715000D01*
X12835000Y-9785000D02*
X12865000Y-9815000D01*
X12865000Y-9785000D02*
X12835000Y-9815000D01*
X12835000Y-9885000D02*
X12865000Y-9915000D01*
X12865000Y-9885000D02*
X12835000Y-9915000D01*
X12835000Y-9985000D02*
X12865000Y-10015000D01*
X12865000Y-9985000D02*
X12835000Y-10015000D01*
X12835000Y-10085000D02*
X12865000Y-10115000D01*
X12865000Y-10085000D02*
X12835000Y-10115000D01*
X12935000Y-8985000D02*
X12965000Y-9015000D01*
X12965000Y-8985000D02*
X12935000Y-9015000D01*
X12935000Y-9785000D02*
X12965000Y-9815000D01*
X12965000Y-9785000D02*
X12935000Y-9815000D01*
X12935000Y-9885000D02*
X12965000Y-9915000D01*
X12965000Y-9885000D02*
X12935000Y-9915000D01*
X12935000Y-9985000D02*
X12965000Y-10015000D01*
X12965000Y-9985000D02*
X12935000Y-10015000D01*
X12961274Y-5590050D02*
X12991274Y-5620050D01*
X12991274Y-5590050D02*
X12961274Y-5620050D01*
X12985000Y-9485000D02*
X13015000Y-9515000D01*
X13015000Y-9485000D02*
X12985000Y-9515000D01*
X12985000Y-9585000D02*
X13015000Y-9615000D01*
X13015000Y-9585000D02*
X12985000Y-9615000D01*
X13035000Y-8985000D02*
X13065000Y-9015000D01*
X13065000Y-8985000D02*
X13035000Y-9015000D01*
X13035000Y-9885000D02*
X13065000Y-9915000D01*
X13065000Y-9885000D02*
X13035000Y-9915000D01*
X13051509Y-7754950D02*
X13081509Y-7784950D01*
X13081509Y-7754950D02*
X13051509Y-7784950D01*
X13085000Y-9485000D02*
X13115000Y-9515000D01*
X13115000Y-9485000D02*
X13085000Y-9515000D01*
X13085000Y-9585000D02*
X13115000Y-9615000D01*
X13115000Y-9585000D02*
X13085000Y-9615000D01*
X13085000Y-9685000D02*
X13115000Y-9715000D01*
X13115000Y-9685000D02*
X13085000Y-9715000D01*
X13088852Y-8720000D02*
X13118852Y-8750000D01*
X13118852Y-8720000D02*
X13088852Y-8750000D01*
X13135000Y-8985000D02*
X13165000Y-9015000D01*
X13165000Y-8985000D02*
X13135000Y-9015000D01*
X13154723Y-8083441D02*
X13184723Y-8113441D01*
X13184723Y-8083441D02*
X13154723Y-8113441D01*
X13185000Y-9485000D02*
X13215000Y-9515000D01*
X13215000Y-9485000D02*
X13185000Y-9515000D01*
X13185000Y-9585000D02*
X13215000Y-9615000D01*
X13215000Y-9585000D02*
X13185000Y-9615000D01*
X13185000Y-9685000D02*
X13215000Y-9715000D01*
X13215000Y-9685000D02*
X13185000Y-9715000D01*
X13185000Y-9785000D02*
X13215000Y-9815000D01*
X13215000Y-9785000D02*
X13185000Y-9815000D01*
X13235000Y-8985000D02*
X13265000Y-9015000D01*
X13265000Y-8985000D02*
X13235000Y-9015000D01*
X13285000Y-8135000D02*
X13315000Y-8165000D01*
X13315000Y-8135000D02*
X13285000Y-8165000D01*
X13285000Y-9485000D02*
X13315000Y-9515000D01*
X13315000Y-9485000D02*
X13285000Y-9515000D01*
X13285000Y-9585000D02*
X13315000Y-9615000D01*
X13315000Y-9585000D02*
X13285000Y-9615000D01*
X13285000Y-9685000D02*
X13315000Y-9715000D01*
X13315000Y-9685000D02*
X13285000Y-9715000D01*
X13285000Y-9785000D02*
X13315000Y-9815000D01*
X13315000Y-9785000D02*
X13285000Y-9815000D01*
X13285000Y-9885000D02*
X13315000Y-9915000D01*
X13315000Y-9885000D02*
X13285000Y-9915000D01*
X13336092Y-8470011D02*
X13366092Y-8500011D01*
X13366092Y-8470011D02*
X13336092Y-8500011D01*
X13385000Y-9385000D02*
X13415000Y-9415000D01*
X13415000Y-9385000D02*
X13385000Y-9415000D01*
X13385000Y-9485000D02*
X13415000Y-9515000D01*
X13415000Y-9485000D02*
X13385000Y-9515000D01*
X13385000Y-9585000D02*
X13415000Y-9615000D01*
X13415000Y-9585000D02*
X13385000Y-9615000D01*
X13385000Y-9685000D02*
X13415000Y-9715000D01*
X13415000Y-9685000D02*
X13385000Y-9715000D01*
X13385000Y-9785000D02*
X13415000Y-9815000D01*
X13415000Y-9785000D02*
X13385000Y-9815000D01*
X13385000Y-9885000D02*
X13415000Y-9915000D01*
X13415000Y-9885000D02*
X13385000Y-9915000D01*
X13435000Y-8905000D02*
X13465000Y-8935000D01*
X13465000Y-8905000D02*
X13435000Y-8935000D01*
X13463602Y-5590050D02*
X13493602Y-5620050D01*
X13493602Y-5590050D02*
X13463602Y-5620050D01*
X13485000Y-9385000D02*
X13515000Y-9415000D01*
X13515000Y-9385000D02*
X13485000Y-9415000D01*
X13485000Y-9485000D02*
X13515000Y-9515000D01*
X13515000Y-9485000D02*
X13485000Y-9515000D01*
X13485000Y-9585000D02*
X13515000Y-9615000D01*
X13515000Y-9585000D02*
X13485000Y-9615000D01*
X13485000Y-9685000D02*
X13515000Y-9715000D01*
X13515000Y-9685000D02*
X13485000Y-9715000D01*
X13485000Y-9785000D02*
X13515000Y-9815000D01*
X13515000Y-9785000D02*
X13485000Y-9815000D01*
X13485000Y-9885000D02*
X13515000Y-9915000D01*
X13515000Y-9885000D02*
X13485000Y-9915000D01*
X13535000Y-8285000D02*
X13565000Y-8315000D01*
X13565000Y-8285000D02*
X13535000Y-8315000D01*
X13535000Y-8985000D02*
X13565000Y-9015000D01*
X13565000Y-8985000D02*
X13535000Y-9015000D01*
X13535000Y-9085000D02*
X13565000Y-9115000D01*
X13565000Y-9085000D02*
X13535000Y-9115000D01*
X13535000Y-9185000D02*
X13565000Y-9215000D01*
X13565000Y-9185000D02*
X13535000Y-9215000D01*
X13553836Y-7754950D02*
X13583836Y-7784950D01*
X13583836Y-7754950D02*
X13553836Y-7784950D01*
X13585000Y-8135000D02*
X13615000Y-8165000D01*
X13615000Y-8135000D02*
X13585000Y-8165000D01*
X13585000Y-9385000D02*
X13615000Y-9415000D01*
X13615000Y-9385000D02*
X13585000Y-9415000D01*
X13585000Y-9485000D02*
X13615000Y-9515000D01*
X13615000Y-9485000D02*
X13585000Y-9515000D01*
X13585000Y-9585000D02*
X13615000Y-9615000D01*
X13615000Y-9585000D02*
X13585000Y-9615000D01*
X13585000Y-9685000D02*
X13615000Y-9715000D01*
X13615000Y-9685000D02*
X13585000Y-9715000D01*
X13585000Y-9785000D02*
X13615000Y-9815000D01*
X13615000Y-9785000D02*
X13585000Y-9815000D01*
X13585000Y-9885000D02*
X13615000Y-9915000D01*
X13615000Y-9885000D02*
X13585000Y-9915000D01*
X13591179Y-8720000D02*
X13621179Y-8750000D01*
X13621179Y-8720000D02*
X13591179Y-8750000D01*
X13635000Y-8985000D02*
X13665000Y-9015000D01*
X13665000Y-8985000D02*
X13635000Y-9015000D01*
X13635000Y-9085000D02*
X13665000Y-9115000D01*
X13665000Y-9085000D02*
X13635000Y-9115000D01*
X13635000Y-9185000D02*
X13665000Y-9215000D01*
X13665000Y-9185000D02*
X13635000Y-9215000D01*
X13654950Y-6858799D02*
X13684950Y-6888799D01*
X13684950Y-6858799D02*
X13654950Y-6888799D01*
X13685000Y-9385000D02*
X13715000Y-9415000D01*
X13715000Y-9385000D02*
X13685000Y-9415000D01*
X13685000Y-9485000D02*
X13715000Y-9515000D01*
X13715000Y-9485000D02*
X13685000Y-9515000D01*
X13685000Y-9585000D02*
X13715000Y-9615000D01*
X13715000Y-9585000D02*
X13685000Y-9615000D01*
X13685000Y-9685000D02*
X13715000Y-9715000D01*
X13715000Y-9685000D02*
X13685000Y-9715000D01*
X13685000Y-9785000D02*
X13715000Y-9815000D01*
X13715000Y-9785000D02*
X13685000Y-9815000D01*
X13685000Y-9885000D02*
X13715000Y-9915000D01*
X13715000Y-9885000D02*
X13685000Y-9915000D01*
X13719555Y-8095521D02*
X13749555Y-8125521D01*
X13749555Y-8095521D02*
X13719555Y-8125521D01*
X13779514Y-8403399D02*
X13809514Y-8433399D01*
X13809514Y-8403399D02*
X13779514Y-8433399D01*
X13785000Y-7785000D02*
X13815000Y-7815000D01*
X13815000Y-7785000D02*
X13785000Y-7815000D01*
X13785000Y-9385000D02*
X13815000Y-9415000D01*
X13815000Y-9385000D02*
X13785000Y-9415000D01*
X13785000Y-9485000D02*
X13815000Y-9515000D01*
X13815000Y-9485000D02*
X13785000Y-9515000D01*
X13785000Y-9585000D02*
X13815000Y-9615000D01*
X13815000Y-9585000D02*
X13785000Y-9615000D01*
X13785000Y-9685000D02*
X13815000Y-9715000D01*
X13815000Y-9685000D02*
X13785000Y-9715000D01*
X13785000Y-9785000D02*
X13815000Y-9815000D01*
X13815000Y-9785000D02*
X13785000Y-9815000D01*
X13785000Y-9885000D02*
X13815000Y-9915000D01*
X13815000Y-9885000D02*
X13785000Y-9915000D01*
X13786652Y-6439950D02*
X13816652Y-6469950D01*
X13816652Y-6439950D02*
X13786652Y-6469950D01*
X13885000Y-7785000D02*
X13915000Y-7815000D01*
X13915000Y-7785000D02*
X13885000Y-7815000D01*
X13965930Y-5590050D02*
X13995930Y-5620050D01*
X13995930Y-5590050D02*
X13965930Y-5620050D01*
X13981086Y-7090050D02*
X14011086Y-7120050D01*
X14011086Y-7090050D02*
X13981086Y-7120050D01*
X13985000Y-7785000D02*
X14015000Y-7815000D01*
X14015000Y-7785000D02*
X13985000Y-7815000D01*
X13985000Y-9535000D02*
X14015000Y-9565000D01*
X14015000Y-9535000D02*
X13985000Y-9565000D01*
X13985000Y-9660000D02*
X14015000Y-9690000D01*
X14015000Y-9660000D02*
X13985000Y-9690000D01*
X13985000Y-9835000D02*
X14015000Y-9865000D01*
X14015000Y-9835000D02*
X13985000Y-9865000D01*
X13985000Y-9935000D02*
X14015000Y-9965000D01*
X14015000Y-9935000D02*
X13985000Y-9965000D01*
X13985000Y-10035000D02*
X14015000Y-10065000D01*
X14015000Y-10035000D02*
X13985000Y-10065000D01*
X14085000Y-9435000D02*
X14115000Y-9465000D01*
X14115000Y-9435000D02*
X14085000Y-9465000D01*
X14085000Y-9535000D02*
X14115000Y-9565000D01*
X14115000Y-9535000D02*
X14085000Y-9565000D01*
X14085000Y-9635000D02*
X14115000Y-9665000D01*
X14115000Y-9635000D02*
X14085000Y-9665000D01*
X14085000Y-9735000D02*
X14115000Y-9765000D01*
X14115000Y-9735000D02*
X14085000Y-9765000D01*
X14085000Y-9835000D02*
X14115000Y-9865000D01*
X14115000Y-9835000D02*
X14085000Y-9865000D01*
X14085000Y-9935000D02*
X14115000Y-9965000D01*
X14115000Y-9935000D02*
X14085000Y-9965000D01*
X14085000Y-10035000D02*
X14115000Y-10065000D01*
X14115000Y-10035000D02*
X14085000Y-10065000D01*
X14085000Y-10185000D02*
X14115000Y-10215000D01*
X14115000Y-10185000D02*
X14085000Y-10215000D01*
X14093507Y-8720000D02*
X14123507Y-8750000D01*
X14123507Y-8720000D02*
X14093507Y-8750000D01*
X14160333Y-8110050D02*
X14190333Y-8140050D01*
X14190333Y-8110050D02*
X14160333Y-8140050D01*
X14235000Y-8985000D02*
X14265000Y-9015000D01*
X14265000Y-8985000D02*
X14235000Y-9015000D01*
X14235000Y-9085000D02*
X14265000Y-9115000D01*
X14265000Y-9085000D02*
X14235000Y-9115000D01*
X14235000Y-9185000D02*
X14265000Y-9215000D01*
X14265000Y-9185000D02*
X14235000Y-9215000D01*
X14235000Y-9285000D02*
X14265000Y-9315000D01*
X14265000Y-9285000D02*
X14235000Y-9315000D01*
X14235000Y-9385000D02*
X14265000Y-9415000D01*
X14265000Y-9385000D02*
X14235000Y-9415000D01*
X14235000Y-9485000D02*
X14265000Y-9515000D01*
X14265000Y-9485000D02*
X14235000Y-9515000D01*
X14235000Y-9585000D02*
X14265000Y-9615000D01*
X14265000Y-9585000D02*
X14235000Y-9615000D01*
X14235000Y-9685000D02*
X14265000Y-9715000D01*
X14265000Y-9685000D02*
X14235000Y-9715000D01*
X14235000Y-9785000D02*
X14265000Y-9815000D01*
X14265000Y-9785000D02*
X14235000Y-9815000D01*
X14235000Y-9885000D02*
X14265000Y-9915000D01*
X14265000Y-9885000D02*
X14235000Y-9915000D01*
X14235000Y-9985000D02*
X14265000Y-10015000D01*
X14265000Y-9985000D02*
X14235000Y-10015000D01*
X14238472Y-6790050D02*
X14268472Y-6820050D01*
X14268472Y-6790050D02*
X14238472Y-6820050D01*
X14272434Y-6379950D02*
X14302434Y-6409950D01*
X14302434Y-6379950D02*
X14272434Y-6409950D01*
X14275000Y-8725000D02*
X14305000Y-8755000D01*
X14305000Y-8725000D02*
X14275000Y-8755000D01*
X14335000Y-8985000D02*
X14365000Y-9015000D01*
X14365000Y-8985000D02*
X14335000Y-9015000D01*
X14335000Y-9085000D02*
X14365000Y-9115000D01*
X14365000Y-9085000D02*
X14335000Y-9115000D01*
X14335000Y-9185000D02*
X14365000Y-9215000D01*
X14365000Y-9185000D02*
X14335000Y-9215000D01*
X14335000Y-9285000D02*
X14365000Y-9315000D01*
X14365000Y-9285000D02*
X14335000Y-9315000D01*
X14335000Y-9385000D02*
X14365000Y-9415000D01*
X14365000Y-9385000D02*
X14335000Y-9415000D01*
X14335000Y-9485000D02*
X14365000Y-9515000D01*
X14365000Y-9485000D02*
X14335000Y-9515000D01*
X14335000Y-9585000D02*
X14365000Y-9615000D01*
X14365000Y-9585000D02*
X14335000Y-9615000D01*
X14335000Y-9685000D02*
X14365000Y-9715000D01*
X14365000Y-9685000D02*
X14335000Y-9715000D01*
X14335000Y-9785000D02*
X14365000Y-9815000D01*
X14365000Y-9785000D02*
X14335000Y-9815000D01*
X14335000Y-9885000D02*
X14365000Y-9915000D01*
X14365000Y-9885000D02*
X14335000Y-9915000D01*
X14335000Y-9985000D02*
X14365000Y-10015000D01*
X14365000Y-9985000D02*
X14335000Y-10015000D01*
X14335000Y-10085000D02*
X14365000Y-10115000D01*
X14365000Y-10085000D02*
X14335000Y-10115000D01*
X14435000Y-8985000D02*
X14465000Y-9015000D01*
X14465000Y-8985000D02*
X14435000Y-9015000D01*
X14435000Y-9785000D02*
X14465000Y-9815000D01*
X14465000Y-9785000D02*
X14435000Y-9815000D01*
X14435000Y-9885000D02*
X14465000Y-9915000D01*
X14465000Y-9885000D02*
X14435000Y-9915000D01*
X14435000Y-9985000D02*
X14465000Y-10015000D01*
X14465000Y-9985000D02*
X14435000Y-10015000D01*
X14465000Y-8569950D02*
X14495000Y-8599950D01*
X14495000Y-8569950D02*
X14465000Y-8599950D01*
X14468257Y-5590050D02*
X14498257Y-5620050D01*
X14498257Y-5590050D02*
X14468257Y-5620050D01*
X14485000Y-9485000D02*
X14515000Y-9515000D01*
X14515000Y-9485000D02*
X14485000Y-9515000D01*
X14485000Y-9585000D02*
X14515000Y-9615000D01*
X14515000Y-9585000D02*
X14485000Y-9615000D01*
X14535000Y-8985000D02*
X14565000Y-9015000D01*
X14565000Y-8985000D02*
X14535000Y-9015000D01*
X14535000Y-9885000D02*
X14565000Y-9915000D01*
X14565000Y-9885000D02*
X14535000Y-9915000D01*
X14545000Y-8685000D02*
X14575000Y-8715000D01*
X14575000Y-8685000D02*
X14545000Y-8715000D01*
X14558492Y-7754950D02*
X14588492Y-7784950D01*
X14588492Y-7754950D02*
X14558492Y-7784950D01*
X14585000Y-9485000D02*
X14615000Y-9515000D01*
X14615000Y-9485000D02*
X14585000Y-9515000D01*
X14585000Y-9585000D02*
X14615000Y-9615000D01*
X14615000Y-9585000D02*
X14585000Y-9615000D01*
X14585000Y-9685000D02*
X14615000Y-9715000D01*
X14615000Y-9685000D02*
X14585000Y-9715000D01*
X14635000Y-6835000D02*
X14665000Y-6865000D01*
X14665000Y-6835000D02*
X14635000Y-6865000D01*
X14635000Y-6935000D02*
X14665000Y-6965000D01*
X14665000Y-6935000D02*
X14635000Y-6965000D01*
X14635000Y-8985000D02*
X14665000Y-9015000D01*
X14665000Y-8985000D02*
X14635000Y-9015000D01*
X14650842Y-8125407D02*
X14680842Y-8155407D01*
X14680842Y-8125407D02*
X14650842Y-8155407D01*
X14685000Y-9485000D02*
X14715000Y-9515000D01*
X14715000Y-9485000D02*
X14685000Y-9515000D01*
X14685000Y-9585000D02*
X14715000Y-9615000D01*
X14715000Y-9585000D02*
X14685000Y-9615000D01*
X14685000Y-9685000D02*
X14715000Y-9715000D01*
X14715000Y-9685000D02*
X14685000Y-9715000D01*
X14685000Y-9785000D02*
X14715000Y-9815000D01*
X14715000Y-9785000D02*
X14685000Y-9815000D01*
X14735000Y-6835000D02*
X14765000Y-6865000D01*
X14765000Y-6835000D02*
X14735000Y-6865000D01*
X14735000Y-6935000D02*
X14765000Y-6965000D01*
X14765000Y-6935000D02*
X14735000Y-6965000D01*
X14735000Y-8985000D02*
X14765000Y-9015000D01*
X14765000Y-8985000D02*
X14735000Y-9015000D01*
X14774762Y-6379950D02*
X14804762Y-6409950D01*
X14804762Y-6379950D02*
X14774762Y-6409950D01*
X14785000Y-8085000D02*
X14815000Y-8115000D01*
X14815000Y-8085000D02*
X14785000Y-8115000D01*
X14785000Y-9485000D02*
X14815000Y-9515000D01*
X14815000Y-9485000D02*
X14785000Y-9515000D01*
X14785000Y-9585000D02*
X14815000Y-9615000D01*
X14815000Y-9585000D02*
X14785000Y-9615000D01*
X14785000Y-9685000D02*
X14815000Y-9715000D01*
X14815000Y-9685000D02*
X14785000Y-9715000D01*
X14785000Y-9785000D02*
X14815000Y-9815000D01*
X14815000Y-9785000D02*
X14785000Y-9815000D01*
X14785000Y-9885000D02*
X14815000Y-9915000D01*
X14815000Y-9885000D02*
X14785000Y-9915000D01*
X14835000Y-8585000D02*
X14865000Y-8615000D01*
X14865000Y-8585000D02*
X14835000Y-8615000D01*
X14885000Y-9385000D02*
X14915000Y-9415000D01*
X14915000Y-9385000D02*
X14885000Y-9415000D01*
X14885000Y-9485000D02*
X14915000Y-9515000D01*
X14915000Y-9485000D02*
X14885000Y-9515000D01*
X14885000Y-9585000D02*
X14915000Y-9615000D01*
X14915000Y-9585000D02*
X14885000Y-9615000D01*
X14885000Y-9685000D02*
X14915000Y-9715000D01*
X14915000Y-9685000D02*
X14885000Y-9715000D01*
X14885000Y-9785000D02*
X14915000Y-9815000D01*
X14915000Y-9785000D02*
X14885000Y-9815000D01*
X14885000Y-9885000D02*
X14915000Y-9915000D01*
X14915000Y-9885000D02*
X14885000Y-9915000D01*
X14935000Y-8585000D02*
X14965000Y-8615000D01*
X14965000Y-8585000D02*
X14935000Y-8615000D01*
X14935000Y-8905000D02*
X14965000Y-8935000D01*
X14965000Y-8905000D02*
X14935000Y-8935000D01*
X14970585Y-5590050D02*
X15000585Y-5620050D01*
X15000585Y-5590050D02*
X14970585Y-5620050D01*
X14985000Y-9385000D02*
X15015000Y-9415000D01*
X15015000Y-9385000D02*
X14985000Y-9415000D01*
X14985000Y-9485000D02*
X15015000Y-9515000D01*
X15015000Y-9485000D02*
X14985000Y-9515000D01*
X14985000Y-9585000D02*
X15015000Y-9615000D01*
X15015000Y-9585000D02*
X14985000Y-9615000D01*
X14985000Y-9685000D02*
X15015000Y-9715000D01*
X15015000Y-9685000D02*
X14985000Y-9715000D01*
X14985000Y-9785000D02*
X15015000Y-9815000D01*
X15015000Y-9785000D02*
X14985000Y-9815000D01*
X14985000Y-9885000D02*
X15015000Y-9915000D01*
X15015000Y-9885000D02*
X14985000Y-9915000D01*
X15035000Y-8585000D02*
X15065000Y-8615000D01*
X15065000Y-8585000D02*
X15035000Y-8615000D01*
X15035000Y-8985000D02*
X15065000Y-9015000D01*
X15065000Y-8985000D02*
X15035000Y-9015000D01*
X15035000Y-9085000D02*
X15065000Y-9115000D01*
X15065000Y-9085000D02*
X15035000Y-9115000D01*
X15035000Y-9185000D02*
X15065000Y-9215000D01*
X15065000Y-9185000D02*
X15035000Y-9215000D01*
X15085000Y-8085000D02*
X15115000Y-8115000D01*
X15115000Y-8085000D02*
X15085000Y-8115000D01*
X15085000Y-9385000D02*
X15115000Y-9415000D01*
X15115000Y-9385000D02*
X15085000Y-9415000D01*
X15085000Y-9485000D02*
X15115000Y-9515000D01*
X15115000Y-9485000D02*
X15085000Y-9515000D01*
X15085000Y-9585000D02*
X15115000Y-9615000D01*
X15115000Y-9585000D02*
X15085000Y-9615000D01*
X15085000Y-9685000D02*
X15115000Y-9715000D01*
X15115000Y-9685000D02*
X15085000Y-9715000D01*
X15085000Y-9785000D02*
X15115000Y-9815000D01*
X15115000Y-9785000D02*
X15085000Y-9815000D01*
X15085000Y-9885000D02*
X15115000Y-9915000D01*
X15115000Y-9885000D02*
X15085000Y-9915000D01*
X15135000Y-8285000D02*
X15165000Y-8315000D01*
X15165000Y-8285000D02*
X15135000Y-8315000D01*
X15135000Y-8985000D02*
X15165000Y-9015000D01*
X15165000Y-8985000D02*
X15135000Y-9015000D01*
X15135000Y-9085000D02*
X15165000Y-9115000D01*
X15165000Y-9085000D02*
X15135000Y-9115000D01*
X15135000Y-9185000D02*
X15165000Y-9215000D01*
X15165000Y-9185000D02*
X15135000Y-9215000D01*
X15154950Y-6845541D02*
X15184950Y-6875541D01*
X15184950Y-6845541D02*
X15154950Y-6875541D01*
X15185000Y-9385000D02*
X15215000Y-9415000D01*
X15215000Y-9385000D02*
X15185000Y-9415000D01*
X15185000Y-9485000D02*
X15215000Y-9515000D01*
X15215000Y-9485000D02*
X15185000Y-9515000D01*
X15185000Y-9585000D02*
X15215000Y-9615000D01*
X15215000Y-9585000D02*
X15185000Y-9615000D01*
X15185000Y-9685000D02*
X15215000Y-9715000D01*
X15215000Y-9685000D02*
X15185000Y-9715000D01*
X15185000Y-9785000D02*
X15215000Y-9815000D01*
X15215000Y-9785000D02*
X15185000Y-9815000D01*
X15185000Y-9885000D02*
X15215000Y-9915000D01*
X15215000Y-9885000D02*
X15185000Y-9915000D01*
X15235000Y-8505950D02*
X15265000Y-8535950D01*
X15265000Y-8505950D02*
X15235000Y-8535950D01*
X15241418Y-6281423D02*
X15271418Y-6311423D01*
X15271418Y-6281423D02*
X15241418Y-6311423D01*
X15280050Y-7885000D02*
X15310050Y-7915000D01*
X15310050Y-7885000D02*
X15280050Y-7915000D01*
X15285000Y-9385000D02*
X15315000Y-9415000D01*
X15315000Y-9385000D02*
X15285000Y-9415000D01*
X15285000Y-9485000D02*
X15315000Y-9515000D01*
X15315000Y-9485000D02*
X15285000Y-9515000D01*
X15285000Y-9585000D02*
X15315000Y-9615000D01*
X15315000Y-9585000D02*
X15285000Y-9615000D01*
X15285000Y-9685000D02*
X15315000Y-9715000D01*
X15315000Y-9685000D02*
X15285000Y-9715000D01*
X15285000Y-9785000D02*
X15315000Y-9815000D01*
X15315000Y-9785000D02*
X15285000Y-9815000D01*
X15285000Y-9885000D02*
X15315000Y-9915000D01*
X15315000Y-9885000D02*
X15285000Y-9915000D01*
X15335000Y-8285000D02*
X15365000Y-8315000D01*
X15365000Y-8285000D02*
X15335000Y-8315000D01*
X15335000Y-8585000D02*
X15365000Y-8615000D01*
X15365000Y-8585000D02*
X15335000Y-8615000D01*
X15435000Y-8535000D02*
X15465000Y-8565000D01*
X15465000Y-8535000D02*
X15435000Y-8565000D01*
X15472913Y-5590050D02*
X15502913Y-5620050D01*
X15502913Y-5590050D02*
X15472913Y-5620050D01*
X15485000Y-7935000D02*
X15515000Y-7965000D01*
X15515000Y-7935000D02*
X15485000Y-7965000D01*
X15485000Y-8285000D02*
X15515000Y-8315000D01*
X15515000Y-8285000D02*
X15485000Y-8315000D01*
X15485000Y-9535000D02*
X15515000Y-9565000D01*
X15515000Y-9535000D02*
X15485000Y-9565000D01*
X15485000Y-9660000D02*
X15515000Y-9690000D01*
X15515000Y-9660000D02*
X15485000Y-9690000D01*
X15485000Y-9835000D02*
X15515000Y-9865000D01*
X15515000Y-9835000D02*
X15485000Y-9865000D01*
X15485000Y-9935000D02*
X15515000Y-9965000D01*
X15515000Y-9935000D02*
X15485000Y-9965000D01*
X15485000Y-10035000D02*
X15515000Y-10065000D01*
X15515000Y-10035000D02*
X15485000Y-10065000D01*
X15585000Y-7185000D02*
X15615000Y-7215000D01*
X15615000Y-7185000D02*
X15585000Y-7215000D01*
X15585000Y-8035000D02*
X15615000Y-8065000D01*
X15615000Y-8035000D02*
X15585000Y-8065000D01*
X15585000Y-8565000D02*
X15615000Y-8595000D01*
X15615000Y-8565000D02*
X15585000Y-8595000D01*
X15585000Y-9435000D02*
X15615000Y-9465000D01*
X15615000Y-9435000D02*
X15585000Y-9465000D01*
X15585000Y-9535000D02*
X15615000Y-9565000D01*
X15615000Y-9535000D02*
X15585000Y-9565000D01*
X15585000Y-9635000D02*
X15615000Y-9665000D01*
X15615000Y-9635000D02*
X15585000Y-9665000D01*
X15585000Y-9735000D02*
X15615000Y-9765000D01*
X15615000Y-9735000D02*
X15585000Y-9765000D01*
X15585000Y-9835000D02*
X15615000Y-9865000D01*
X15615000Y-9835000D02*
X15585000Y-9865000D01*
X15585000Y-9935000D02*
X15615000Y-9965000D01*
X15615000Y-9935000D02*
X15585000Y-9965000D01*
X15585000Y-10035000D02*
X15615000Y-10065000D01*
X15615000Y-10035000D02*
X15585000Y-10065000D01*
X15585000Y-10185000D02*
X15615000Y-10215000D01*
X15615000Y-10185000D02*
X15585000Y-10215000D01*
X15725050Y-7860000D02*
X15755050Y-7890000D01*
X15755050Y-7860000D02*
X15725050Y-7890000D01*
X15735000Y-8324950D02*
X15765000Y-8354950D01*
X15765000Y-8324950D02*
X15735000Y-8354950D01*
X15735000Y-8985000D02*
X15765000Y-9015000D01*
X15765000Y-8985000D02*
X15735000Y-9015000D01*
X15735000Y-9085000D02*
X15765000Y-9115000D01*
X15765000Y-9085000D02*
X15735000Y-9115000D01*
X15735000Y-9185000D02*
X15765000Y-9215000D01*
X15765000Y-9185000D02*
X15735000Y-9215000D01*
X15735000Y-9285000D02*
X15765000Y-9315000D01*
X15765000Y-9285000D02*
X15735000Y-9315000D01*
X15735000Y-9385000D02*
X15765000Y-9415000D01*
X15765000Y-9385000D02*
X15735000Y-9415000D01*
X15735000Y-9485000D02*
X15765000Y-9515000D01*
X15765000Y-9485000D02*
X15735000Y-9515000D01*
X15735000Y-9585000D02*
X15765000Y-9615000D01*
X15765000Y-9585000D02*
X15735000Y-9615000D01*
X15735000Y-9685000D02*
X15765000Y-9715000D01*
X15765000Y-9685000D02*
X15735000Y-9715000D01*
X15735000Y-9785000D02*
X15765000Y-9815000D01*
X15765000Y-9785000D02*
X15735000Y-9815000D01*
X15735000Y-9885000D02*
X15765000Y-9915000D01*
X15765000Y-9885000D02*
X15735000Y-9915000D01*
X15735000Y-9985000D02*
X15765000Y-10015000D01*
X15765000Y-9985000D02*
X15735000Y-10015000D01*
X15805000Y-8035000D02*
X15835000Y-8065000D01*
X15835000Y-8035000D02*
X15805000Y-8065000D01*
X15810000Y-7460000D02*
X15840000Y-7490000D01*
X15840000Y-7460000D02*
X15810000Y-7490000D01*
X15835000Y-8985000D02*
X15865000Y-9015000D01*
X15865000Y-8985000D02*
X15835000Y-9015000D01*
X15835000Y-9085000D02*
X15865000Y-9115000D01*
X15865000Y-9085000D02*
X15835000Y-9115000D01*
X15835000Y-9185000D02*
X15865000Y-9215000D01*
X15865000Y-9185000D02*
X15835000Y-9215000D01*
X15835000Y-9285000D02*
X15865000Y-9315000D01*
X15865000Y-9285000D02*
X15835000Y-9315000D01*
X15835000Y-9385000D02*
X15865000Y-9415000D01*
X15865000Y-9385000D02*
X15835000Y-9415000D01*
X15835000Y-9485000D02*
X15865000Y-9515000D01*
X15865000Y-9485000D02*
X15835000Y-9515000D01*
X15835000Y-9585000D02*
X15865000Y-9615000D01*
X15865000Y-9585000D02*
X15835000Y-9615000D01*
X15835000Y-9685000D02*
X15865000Y-9715000D01*
X15865000Y-9685000D02*
X15835000Y-9715000D01*
X15835000Y-9785000D02*
X15865000Y-9815000D01*
X15865000Y-9785000D02*
X15835000Y-9815000D01*
X15835000Y-9885000D02*
X15865000Y-9915000D01*
X15865000Y-9885000D02*
X15835000Y-9915000D01*
X15835000Y-9985000D02*
X15865000Y-10015000D01*
X15865000Y-9985000D02*
X15835000Y-10015000D01*
X15835000Y-10085000D02*
X15865000Y-10115000D01*
X15865000Y-10085000D02*
X15835000Y-10115000D01*
X15909950Y-6882143D02*
X15939950Y-6912143D01*
X15939950Y-6882143D02*
X15909950Y-6912143D01*
X15910000Y-8010000D02*
X15940000Y-8040000D01*
X15940000Y-8010000D02*
X15910000Y-8040000D01*
X15935000Y-8985000D02*
X15965000Y-9015000D01*
X15965000Y-8985000D02*
X15935000Y-9015000D01*
X15935000Y-9785000D02*
X15965000Y-9815000D01*
X15965000Y-9785000D02*
X15935000Y-9815000D01*
X15935000Y-9885000D02*
X15965000Y-9915000D01*
X15965000Y-9885000D02*
X15935000Y-9915000D01*
X15935000Y-9985000D02*
X15965000Y-10015000D01*
X15965000Y-9985000D02*
X15935000Y-10015000D01*
X15975240Y-5590050D02*
X16005240Y-5620050D01*
X16005240Y-5590050D02*
X15975240Y-5620050D01*
X15985000Y-9485000D02*
X16015000Y-9515000D01*
X16015000Y-9485000D02*
X15985000Y-9515000D01*
X15985000Y-9585000D02*
X16015000Y-9615000D01*
X16015000Y-9585000D02*
X15985000Y-9615000D01*
X15996424Y-8321534D02*
X16026424Y-8351534D01*
X16026424Y-8321534D02*
X15996424Y-8351534D01*
X16035000Y-7935000D02*
X16065000Y-7965000D01*
X16065000Y-7935000D02*
X16035000Y-7965000D01*
X16035000Y-8685000D02*
X16065000Y-8715000D01*
X16065000Y-8685000D02*
X16035000Y-8715000D01*
X16035000Y-8985000D02*
X16065000Y-9015000D01*
X16065000Y-8985000D02*
X16035000Y-9015000D01*
X16035000Y-9885000D02*
X16065000Y-9915000D01*
X16065000Y-9885000D02*
X16035000Y-9915000D01*
X16085000Y-9485000D02*
X16115000Y-9515000D01*
X16115000Y-9485000D02*
X16085000Y-9515000D01*
X16085000Y-9585000D02*
X16115000Y-9615000D01*
X16115000Y-9585000D02*
X16085000Y-9615000D01*
X16085000Y-9685000D02*
X16115000Y-9715000D01*
X16115000Y-9685000D02*
X16085000Y-9715000D01*
X16135000Y-7185000D02*
X16165000Y-7215000D01*
X16165000Y-7185000D02*
X16135000Y-7215000D01*
X16135000Y-8259950D02*
X16165000Y-8289950D01*
X16165000Y-8259950D02*
X16135000Y-8289950D01*
X16135000Y-8985000D02*
X16165000Y-9015000D01*
X16165000Y-8985000D02*
X16135000Y-9015000D01*
X16165000Y-7855000D02*
X16195000Y-7885000D01*
X16195000Y-7855000D02*
X16165000Y-7885000D01*
X16185000Y-9485000D02*
X16215000Y-9515000D01*
X16215000Y-9485000D02*
X16185000Y-9515000D01*
X16185000Y-9585000D02*
X16215000Y-9615000D01*
X16215000Y-9585000D02*
X16185000Y-9615000D01*
X16185000Y-9685000D02*
X16215000Y-9715000D01*
X16215000Y-9685000D02*
X16185000Y-9715000D01*
X16185000Y-9785000D02*
X16215000Y-9815000D01*
X16215000Y-9785000D02*
X16185000Y-9815000D01*
X16235000Y-8985000D02*
X16265000Y-9015000D01*
X16265000Y-8985000D02*
X16235000Y-9015000D01*
X16285000Y-9485000D02*
X16315000Y-9515000D01*
X16315000Y-9485000D02*
X16285000Y-9515000D01*
X16285000Y-9585000D02*
X16315000Y-9615000D01*
X16315000Y-9585000D02*
X16285000Y-9615000D01*
X16285000Y-9685000D02*
X16315000Y-9715000D01*
X16315000Y-9685000D02*
X16285000Y-9715000D01*
X16285000Y-9785000D02*
X16315000Y-9815000D01*
X16315000Y-9785000D02*
X16285000Y-9815000D01*
X16285000Y-9885000D02*
X16315000Y-9915000D01*
X16315000Y-9885000D02*
X16285000Y-9915000D01*
X16315000Y-8185000D02*
X16345000Y-8215000D01*
X16345000Y-8185000D02*
X16315000Y-8215000D01*
X16360000Y-7460000D02*
X16390000Y-7490000D01*
X16390000Y-7460000D02*
X16360000Y-7490000D01*
X16365892Y-8545950D02*
X16395892Y-8575950D01*
X16395892Y-8545950D02*
X16365892Y-8575950D01*
X16385000Y-9385000D02*
X16415000Y-9415000D01*
X16415000Y-9385000D02*
X16385000Y-9415000D01*
X16385000Y-9485000D02*
X16415000Y-9515000D01*
X16415000Y-9485000D02*
X16385000Y-9515000D01*
X16385000Y-9585000D02*
X16415000Y-9615000D01*
X16415000Y-9585000D02*
X16385000Y-9615000D01*
X16385000Y-9685000D02*
X16415000Y-9715000D01*
X16415000Y-9685000D02*
X16385000Y-9715000D01*
X16385000Y-9785000D02*
X16415000Y-9815000D01*
X16415000Y-9785000D02*
X16385000Y-9815000D01*
X16385000Y-9885000D02*
X16415000Y-9915000D01*
X16415000Y-9885000D02*
X16385000Y-9915000D01*
X16415825Y-6981172D02*
X16445825Y-7011172D01*
X16445825Y-6981172D02*
X16415825Y-7011172D01*
X16435000Y-8905000D02*
X16465000Y-8935000D01*
X16465000Y-8905000D02*
X16435000Y-8935000D01*
X16477568Y-5590050D02*
X16507568Y-5620050D01*
X16507568Y-5590050D02*
X16477568Y-5620050D01*
X16485000Y-9385000D02*
X16515000Y-9415000D01*
X16515000Y-9385000D02*
X16485000Y-9415000D01*
X16485000Y-9485000D02*
X16515000Y-9515000D01*
X16515000Y-9485000D02*
X16485000Y-9515000D01*
X16485000Y-9585000D02*
X16515000Y-9615000D01*
X16515000Y-9585000D02*
X16485000Y-9615000D01*
X16485000Y-9685000D02*
X16515000Y-9715000D01*
X16515000Y-9685000D02*
X16485000Y-9715000D01*
X16485000Y-9785000D02*
X16515000Y-9815000D01*
X16515000Y-9785000D02*
X16485000Y-9815000D01*
X16485000Y-9885000D02*
X16515000Y-9915000D01*
X16515000Y-9885000D02*
X16485000Y-9915000D01*
X16535000Y-8985000D02*
X16565000Y-9015000D01*
X16565000Y-8985000D02*
X16535000Y-9015000D01*
X16535000Y-9085000D02*
X16565000Y-9115000D01*
X16565000Y-9085000D02*
X16535000Y-9115000D01*
X16535000Y-9185000D02*
X16565000Y-9215000D01*
X16565000Y-9185000D02*
X16535000Y-9215000D01*
X16585000Y-9385000D02*
X16615000Y-9415000D01*
X16615000Y-9385000D02*
X16585000Y-9415000D01*
X16585000Y-9485000D02*
X16615000Y-9515000D01*
X16615000Y-9485000D02*
X16585000Y-9515000D01*
X16585000Y-9585000D02*
X16615000Y-9615000D01*
X16615000Y-9585000D02*
X16585000Y-9615000D01*
X16585000Y-9685000D02*
X16615000Y-9715000D01*
X16615000Y-9685000D02*
X16585000Y-9715000D01*
X16585000Y-9785000D02*
X16615000Y-9815000D01*
X16615000Y-9785000D02*
X16585000Y-9815000D01*
X16585000Y-9885000D02*
X16615000Y-9915000D01*
X16615000Y-9885000D02*
X16585000Y-9915000D01*
X16635000Y-7885000D02*
X16665000Y-7915000D01*
X16665000Y-7885000D02*
X16635000Y-7915000D01*
X16635000Y-8985000D02*
X16665000Y-9015000D01*
X16665000Y-8985000D02*
X16635000Y-9015000D01*
X16635000Y-9085000D02*
X16665000Y-9115000D01*
X16665000Y-9085000D02*
X16635000Y-9115000D01*
X16635000Y-9185000D02*
X16665000Y-9215000D01*
X16665000Y-9185000D02*
X16635000Y-9215000D01*
X16645000Y-8045000D02*
X16675000Y-8075000D01*
X16675000Y-8045000D02*
X16645000Y-8075000D01*
X16685000Y-7185000D02*
X16715000Y-7215000D01*
X16715000Y-7185000D02*
X16685000Y-7215000D01*
X16685000Y-9385000D02*
X16715000Y-9415000D01*
X16715000Y-9385000D02*
X16685000Y-9415000D01*
X16685000Y-9485000D02*
X16715000Y-9515000D01*
X16715000Y-9485000D02*
X16685000Y-9515000D01*
X16685000Y-9585000D02*
X16715000Y-9615000D01*
X16715000Y-9585000D02*
X16685000Y-9615000D01*
X16685000Y-9685000D02*
X16715000Y-9715000D01*
X16715000Y-9685000D02*
X16685000Y-9715000D01*
X16685000Y-9785000D02*
X16715000Y-9815000D01*
X16715000Y-9785000D02*
X16685000Y-9815000D01*
X16685000Y-9885000D02*
X16715000Y-9915000D01*
X16715000Y-9885000D02*
X16685000Y-9915000D01*
X16785000Y-7935000D02*
X16815000Y-7965000D01*
X16815000Y-7935000D02*
X16785000Y-7965000D01*
X16785000Y-9385000D02*
X16815000Y-9415000D01*
X16815000Y-9385000D02*
X16785000Y-9415000D01*
X16785000Y-9485000D02*
X16815000Y-9515000D01*
X16815000Y-9485000D02*
X16785000Y-9515000D01*
X16785000Y-9585000D02*
X16815000Y-9615000D01*
X16815000Y-9585000D02*
X16785000Y-9615000D01*
X16785000Y-9685000D02*
X16815000Y-9715000D01*
X16815000Y-9685000D02*
X16785000Y-9715000D01*
X16785000Y-9785000D02*
X16815000Y-9815000D01*
X16815000Y-9785000D02*
X16785000Y-9815000D01*
X16785000Y-9885000D02*
X16815000Y-9915000D01*
X16815000Y-9885000D02*
X16785000Y-9915000D01*
X16805000Y-8305000D02*
X16835000Y-8335000D01*
X16835000Y-8305000D02*
X16805000Y-8335000D01*
X16910000Y-7460000D02*
X16940000Y-7490000D01*
X16940000Y-7460000D02*
X16910000Y-7490000D01*
X16916950Y-6910374D02*
X16946950Y-6940374D01*
X16946950Y-6910374D02*
X16916950Y-6940374D01*
X16979896Y-5590050D02*
X17009896Y-5620050D01*
X17009896Y-5590050D02*
X16979896Y-5620050D01*
X16985000Y-9535000D02*
X17015000Y-9565000D01*
X17015000Y-9535000D02*
X16985000Y-9565000D01*
X16985000Y-9660000D02*
X17015000Y-9690000D01*
X17015000Y-9660000D02*
X16985000Y-9690000D01*
X16985000Y-9835000D02*
X17015000Y-9865000D01*
X17015000Y-9835000D02*
X16985000Y-9865000D01*
X16985000Y-9935000D02*
X17015000Y-9965000D01*
X17015000Y-9935000D02*
X16985000Y-9965000D01*
X16985000Y-10035000D02*
X17015000Y-10065000D01*
X17015000Y-10035000D02*
X16985000Y-10065000D01*
X17019006Y-8390496D02*
X17049006Y-8420496D01*
X17049006Y-8390496D02*
X17019006Y-8420496D01*
X17085000Y-9435000D02*
X17115000Y-9465000D01*
X17115000Y-9435000D02*
X17085000Y-9465000D01*
X17085000Y-9535000D02*
X17115000Y-9565000D01*
X17115000Y-9535000D02*
X17085000Y-9565000D01*
X17085000Y-9635000D02*
X17115000Y-9665000D01*
X17115000Y-9635000D02*
X17085000Y-9665000D01*
X17085000Y-9735000D02*
X17115000Y-9765000D01*
X17115000Y-9735000D02*
X17085000Y-9765000D01*
X17085000Y-9835000D02*
X17115000Y-9865000D01*
X17115000Y-9835000D02*
X17085000Y-9865000D01*
X17085000Y-9935000D02*
X17115000Y-9965000D01*
X17115000Y-9935000D02*
X17085000Y-9965000D01*
X17085000Y-10035000D02*
X17115000Y-10065000D01*
X17115000Y-10035000D02*
X17085000Y-10065000D01*
X17085000Y-10185000D02*
X17115000Y-10215000D01*
X17115000Y-10185000D02*
X17085000Y-10215000D01*
X17135000Y-7935000D02*
X17165000Y-7965000D01*
X17165000Y-7935000D02*
X17135000Y-7965000D01*
X17235000Y-7185000D02*
X17265000Y-7215000D01*
X17265000Y-7185000D02*
X17235000Y-7215000D01*
X17235000Y-8985000D02*
X17265000Y-9015000D01*
X17265000Y-8985000D02*
X17235000Y-9015000D01*
X17235000Y-9085000D02*
X17265000Y-9115000D01*
X17265000Y-9085000D02*
X17235000Y-9115000D01*
X17235000Y-9185000D02*
X17265000Y-9215000D01*
X17265000Y-9185000D02*
X17235000Y-9215000D01*
X17235000Y-9285000D02*
X17265000Y-9315000D01*
X17265000Y-9285000D02*
X17235000Y-9315000D01*
X17235000Y-9385000D02*
X17265000Y-9415000D01*
X17265000Y-9385000D02*
X17235000Y-9415000D01*
X17235000Y-9485000D02*
X17265000Y-9515000D01*
X17265000Y-9485000D02*
X17235000Y-9515000D01*
X17235000Y-9585000D02*
X17265000Y-9615000D01*
X17265000Y-9585000D02*
X17235000Y-9615000D01*
X17235000Y-9685000D02*
X17265000Y-9715000D01*
X17265000Y-9685000D02*
X17235000Y-9715000D01*
X17235000Y-9785000D02*
X17265000Y-9815000D01*
X17265000Y-9785000D02*
X17235000Y-9815000D01*
X17235000Y-9885000D02*
X17265000Y-9915000D01*
X17265000Y-9885000D02*
X17235000Y-9915000D01*
X17235000Y-9985000D02*
X17265000Y-10015000D01*
X17265000Y-9985000D02*
X17235000Y-10015000D01*
X17335000Y-7935000D02*
X17365000Y-7965000D01*
X17365000Y-7935000D02*
X17335000Y-7965000D01*
X17335000Y-8985000D02*
X17365000Y-9015000D01*
X17365000Y-8985000D02*
X17335000Y-9015000D01*
X17335000Y-9085000D02*
X17365000Y-9115000D01*
X17365000Y-9085000D02*
X17335000Y-9115000D01*
X17335000Y-9185000D02*
X17365000Y-9215000D01*
X17365000Y-9185000D02*
X17335000Y-9215000D01*
X17335000Y-9285000D02*
X17365000Y-9315000D01*
X17365000Y-9285000D02*
X17335000Y-9315000D01*
X17335000Y-9385000D02*
X17365000Y-9415000D01*
X17365000Y-9385000D02*
X17335000Y-9415000D01*
X17335000Y-9485000D02*
X17365000Y-9515000D01*
X17365000Y-9485000D02*
X17335000Y-9515000D01*
X17335000Y-9585000D02*
X17365000Y-9615000D01*
X17365000Y-9585000D02*
X17335000Y-9615000D01*
X17335000Y-9685000D02*
X17365000Y-9715000D01*
X17365000Y-9685000D02*
X17335000Y-9715000D01*
X17335000Y-9785000D02*
X17365000Y-9815000D01*
X17365000Y-9785000D02*
X17335000Y-9815000D01*
X17335000Y-9885000D02*
X17365000Y-9915000D01*
X17365000Y-9885000D02*
X17335000Y-9915000D01*
X17335000Y-9985000D02*
X17365000Y-10015000D01*
X17365000Y-9985000D02*
X17335000Y-10015000D01*
X17335000Y-10085000D02*
X17365000Y-10115000D01*
X17365000Y-10085000D02*
X17335000Y-10115000D01*
X17387183Y-8280970D02*
X17417183Y-8310970D01*
X17417183Y-8280970D02*
X17387183Y-8310970D01*
X17435000Y-8985000D02*
X17465000Y-9015000D01*
X17465000Y-8985000D02*
X17435000Y-9015000D01*
X17435000Y-9785000D02*
X17465000Y-9815000D01*
X17465000Y-9785000D02*
X17435000Y-9815000D01*
X17435000Y-9885000D02*
X17465000Y-9915000D01*
X17465000Y-9885000D02*
X17435000Y-9915000D01*
X17435000Y-9985000D02*
X17465000Y-10015000D01*
X17465000Y-9985000D02*
X17435000Y-10015000D01*
X17460000Y-7460000D02*
X17490000Y-7490000D01*
X17490000Y-7460000D02*
X17460000Y-7490000D01*
X17463327Y-7022755D02*
X17493327Y-7052755D01*
X17493327Y-7022755D02*
X17463327Y-7052755D01*
X17482224Y-5590050D02*
X17512224Y-5620050D01*
X17512224Y-5590050D02*
X17482224Y-5620050D01*
X17485000Y-9485000D02*
X17515000Y-9515000D01*
X17515000Y-9485000D02*
X17485000Y-9515000D01*
X17485000Y-9585000D02*
X17515000Y-9615000D01*
X17515000Y-9585000D02*
X17485000Y-9615000D01*
X17535000Y-8985000D02*
X17565000Y-9015000D01*
X17565000Y-8985000D02*
X17535000Y-9015000D01*
X17535000Y-9885000D02*
X17565000Y-9915000D01*
X17565000Y-9885000D02*
X17535000Y-9915000D01*
X17585000Y-7885000D02*
X17615000Y-7915000D01*
X17615000Y-7885000D02*
X17585000Y-7915000D01*
X17585000Y-8488750D02*
X17615000Y-8518750D01*
X17615000Y-8488750D02*
X17585000Y-8518750D01*
X17585000Y-9485000D02*
X17615000Y-9515000D01*
X17615000Y-9485000D02*
X17585000Y-9515000D01*
X17585000Y-9585000D02*
X17615000Y-9615000D01*
X17615000Y-9585000D02*
X17585000Y-9615000D01*
X17585000Y-9685000D02*
X17615000Y-9715000D01*
X17615000Y-9685000D02*
X17585000Y-9715000D01*
X17635000Y-8985000D02*
X17665000Y-9015000D01*
X17665000Y-8985000D02*
X17635000Y-9015000D01*
X17680599Y-8436454D02*
X17710599Y-8466454D01*
X17710599Y-8436454D02*
X17680599Y-8466454D01*
X17685000Y-9485000D02*
X17715000Y-9515000D01*
X17715000Y-9485000D02*
X17685000Y-9515000D01*
X17685000Y-9585000D02*
X17715000Y-9615000D01*
X17715000Y-9585000D02*
X17685000Y-9615000D01*
X17685000Y-9685000D02*
X17715000Y-9715000D01*
X17715000Y-9685000D02*
X17685000Y-9715000D01*
X17685000Y-9785000D02*
X17715000Y-9815000D01*
X17715000Y-9785000D02*
X17685000Y-9815000D01*
X17723452Y-8720000D02*
X17753452Y-8750000D01*
X17753452Y-8720000D02*
X17723452Y-8750000D01*
X17735000Y-8985000D02*
X17765000Y-9015000D01*
X17765000Y-8985000D02*
X17735000Y-9015000D01*
X17785000Y-7985000D02*
X17815000Y-8015000D01*
X17815000Y-7985000D02*
X17785000Y-8015000D01*
X17785000Y-9485000D02*
X17815000Y-9515000D01*
X17815000Y-9485000D02*
X17785000Y-9515000D01*
X17785000Y-9585000D02*
X17815000Y-9615000D01*
X17815000Y-9585000D02*
X17785000Y-9615000D01*
X17785000Y-9685000D02*
X17815000Y-9715000D01*
X17815000Y-9685000D02*
X17785000Y-9715000D01*
X17785000Y-9785000D02*
X17815000Y-9815000D01*
X17815000Y-9785000D02*
X17785000Y-9815000D01*
X17785000Y-9885000D02*
X17815000Y-9915000D01*
X17815000Y-9885000D02*
X17785000Y-9915000D01*
X17880249Y-6639901D02*
X17910249Y-6669901D01*
X17910249Y-6639901D02*
X17880249Y-6669901D01*
X17885000Y-9385000D02*
X17915000Y-9415000D01*
X17915000Y-9385000D02*
X17885000Y-9415000D01*
X17885000Y-9485000D02*
X17915000Y-9515000D01*
X17915000Y-9485000D02*
X17885000Y-9515000D01*
X17885000Y-9585000D02*
X17915000Y-9615000D01*
X17915000Y-9585000D02*
X17885000Y-9615000D01*
X17885000Y-9685000D02*
X17915000Y-9715000D01*
X17915000Y-9685000D02*
X17885000Y-9715000D01*
X17885000Y-9785000D02*
X17915000Y-9815000D01*
X17915000Y-9785000D02*
X17885000Y-9815000D01*
X17885000Y-9885000D02*
X17915000Y-9915000D01*
X17915000Y-9885000D02*
X17885000Y-9915000D01*
X17925000Y-8905000D02*
X17955000Y-8935000D01*
X17955000Y-8905000D02*
X17925000Y-8935000D01*
X17984551Y-5590050D02*
X18014551Y-5620050D01*
X18014551Y-5590050D02*
X17984551Y-5620050D01*
X17985000Y-9385000D02*
X18015000Y-9415000D01*
X18015000Y-9385000D02*
X17985000Y-9415000D01*
X17985000Y-9485000D02*
X18015000Y-9515000D01*
X18015000Y-9485000D02*
X17985000Y-9515000D01*
X17985000Y-9585000D02*
X18015000Y-9615000D01*
X18015000Y-9585000D02*
X17985000Y-9615000D01*
X17985000Y-9685000D02*
X18015000Y-9715000D01*
X18015000Y-9685000D02*
X17985000Y-9715000D01*
X17985000Y-9785000D02*
X18015000Y-9815000D01*
X18015000Y-9785000D02*
X17985000Y-9815000D01*
X17985000Y-9885000D02*
X18015000Y-9915000D01*
X18015000Y-9885000D02*
X17985000Y-9915000D01*
X18035000Y-8235000D02*
X18065000Y-8265000D01*
X18065000Y-8235000D02*
X18035000Y-8265000D01*
X18035000Y-8985000D02*
X18065000Y-9015000D01*
X18065000Y-8985000D02*
X18035000Y-9015000D01*
X18035000Y-9085000D02*
X18065000Y-9115000D01*
X18065000Y-9085000D02*
X18035000Y-9115000D01*
X18035000Y-9185000D02*
X18065000Y-9215000D01*
X18065000Y-9185000D02*
X18035000Y-9215000D01*
X18085000Y-7985000D02*
X18115000Y-8015000D01*
X18115000Y-7985000D02*
X18085000Y-8015000D01*
X18085000Y-9385000D02*
X18115000Y-9415000D01*
X18115000Y-9385000D02*
X18085000Y-9415000D01*
X18085000Y-9485000D02*
X18115000Y-9515000D01*
X18115000Y-9485000D02*
X18085000Y-9515000D01*
X18085000Y-9585000D02*
X18115000Y-9615000D01*
X18115000Y-9585000D02*
X18085000Y-9615000D01*
X18085000Y-9685000D02*
X18115000Y-9715000D01*
X18115000Y-9685000D02*
X18085000Y-9715000D01*
X18085000Y-9785000D02*
X18115000Y-9815000D01*
X18115000Y-9785000D02*
X18085000Y-9815000D01*
X18085000Y-9885000D02*
X18115000Y-9915000D01*
X18115000Y-9885000D02*
X18085000Y-9915000D01*
X18135000Y-6380551D02*
X18165000Y-6410551D01*
X18165000Y-6380551D02*
X18135000Y-6410551D01*
X18135000Y-8985000D02*
X18165000Y-9015000D01*
X18165000Y-8985000D02*
X18135000Y-9015000D01*
X18135000Y-9085000D02*
X18165000Y-9115000D01*
X18165000Y-9085000D02*
X18135000Y-9115000D01*
X18135000Y-9185000D02*
X18165000Y-9215000D01*
X18165000Y-9185000D02*
X18135000Y-9215000D01*
X18185000Y-9385000D02*
X18215000Y-9415000D01*
X18215000Y-9385000D02*
X18185000Y-9415000D01*
X18185000Y-9485000D02*
X18215000Y-9515000D01*
X18215000Y-9485000D02*
X18185000Y-9515000D01*
X18185000Y-9585000D02*
X18215000Y-9615000D01*
X18215000Y-9585000D02*
X18185000Y-9615000D01*
X18185000Y-9685000D02*
X18215000Y-9715000D01*
X18215000Y-9685000D02*
X18185000Y-9715000D01*
X18185000Y-9785000D02*
X18215000Y-9815000D01*
X18215000Y-9785000D02*
X18185000Y-9815000D01*
X18185000Y-9885000D02*
X18215000Y-9915000D01*
X18215000Y-9885000D02*
X18185000Y-9915000D01*
X18193036Y-8255050D02*
X18223036Y-8285050D01*
X18223036Y-8255050D02*
X18193036Y-8285050D01*
X18195990Y-7057929D02*
X18225990Y-7087929D01*
X18225990Y-7057929D02*
X18195990Y-7087929D01*
X18251701Y-8720000D02*
X18281701Y-8750000D01*
X18281701Y-8720000D02*
X18251701Y-8750000D01*
X18281502Y-8014950D02*
X18311502Y-8044950D01*
X18311502Y-8014950D02*
X18281502Y-8044950D01*
X18285000Y-9385000D02*
X18315000Y-9415000D01*
X18315000Y-9385000D02*
X18285000Y-9415000D01*
X18285000Y-9485000D02*
X18315000Y-9515000D01*
X18315000Y-9485000D02*
X18285000Y-9515000D01*
X18285000Y-9585000D02*
X18315000Y-9615000D01*
X18315000Y-9585000D02*
X18285000Y-9615000D01*
X18285000Y-9685000D02*
X18315000Y-9715000D01*
X18315000Y-9685000D02*
X18285000Y-9715000D01*
X18285000Y-9785000D02*
X18315000Y-9815000D01*
X18315000Y-9785000D02*
X18285000Y-9815000D01*
X18285000Y-9885000D02*
X18315000Y-9915000D01*
X18315000Y-9885000D02*
X18285000Y-9915000D01*
X18392216Y-6639266D02*
X18422216Y-6669266D01*
X18422216Y-6639266D02*
X18392216Y-6669266D01*
X18485000Y-8935000D02*
X18515000Y-8965000D01*
X18515000Y-8935000D02*
X18485000Y-8965000D01*
X18485000Y-9535000D02*
X18515000Y-9565000D01*
X18515000Y-9535000D02*
X18485000Y-9565000D01*
X18485000Y-9660000D02*
X18515000Y-9690000D01*
X18515000Y-9660000D02*
X18485000Y-9690000D01*
X18485000Y-9835000D02*
X18515000Y-9865000D01*
X18515000Y-9835000D02*
X18485000Y-9865000D01*
X18485000Y-9935000D02*
X18515000Y-9965000D01*
X18515000Y-9935000D02*
X18485000Y-9965000D01*
X18485000Y-10035000D02*
X18515000Y-10065000D01*
X18515000Y-10035000D02*
X18485000Y-10065000D01*
X18485724Y-5603239D02*
X18515724Y-5633239D01*
X18515724Y-5603239D02*
X18485724Y-5633239D01*
X18583780Y-7780715D02*
X18613780Y-7810715D01*
X18613780Y-7780715D02*
X18583780Y-7810715D01*
X18585000Y-9435000D02*
X18615000Y-9465000D01*
X18615000Y-9435000D02*
X18585000Y-9465000D01*
X18585000Y-9535000D02*
X18615000Y-9565000D01*
X18615000Y-9535000D02*
X18585000Y-9565000D01*
X18585000Y-9635000D02*
X18615000Y-9665000D01*
X18615000Y-9635000D02*
X18585000Y-9665000D01*
X18585000Y-9735000D02*
X18615000Y-9765000D01*
X18615000Y-9735000D02*
X18585000Y-9765000D01*
X18585000Y-9835000D02*
X18615000Y-9865000D01*
X18615000Y-9835000D02*
X18585000Y-9865000D01*
X18585000Y-9935000D02*
X18615000Y-9965000D01*
X18615000Y-9935000D02*
X18585000Y-9965000D01*
X18585000Y-10035000D02*
X18615000Y-10065000D01*
X18615000Y-10035000D02*
X18585000Y-10065000D01*
X18585000Y-10185000D02*
X18615000Y-10215000D01*
X18615000Y-10185000D02*
X18585000Y-10215000D01*
X18684955Y-8307321D02*
X18714955Y-8337321D01*
X18714955Y-8307321D02*
X18684955Y-8337321D01*
X18779193Y-5969084D02*
X18809193Y-5999084D01*
X18809193Y-5969084D02*
X18779193Y-5999084D01*
X18779950Y-6471350D02*
X18809950Y-6501350D01*
X18809950Y-6471350D02*
X18779950Y-6501350D01*
X18779950Y-6973678D02*
X18809950Y-7003678D01*
X18809950Y-6973678D02*
X18779950Y-7003678D01*
X18779950Y-7476005D02*
X18809950Y-7506005D01*
X18809950Y-7476005D02*
X18779950Y-7506005D01*
X18779950Y-8720000D02*
X18809950Y-8750000D01*
X18809950Y-8720000D02*
X18779950Y-8750000D01*
D13*
X11497200Y-10148400D02*
G75*
G03*
X11497200Y-10148400I-25000J0D01*
G01*
X11497200Y-10351600D02*
G75*
G03*
X11497200Y-10351600I-25000J0D01*
G01*
X11497200Y-11648400D02*
G75*
G03*
X11497200Y-11648400I-25000J0D01*
G01*
X11497200Y-11851600D02*
G75*
G03*
X11497200Y-11851600I-25000J0D01*
G01*
X11525000Y-10825000D02*
G75*
G03*
X11525000Y-10825000I-25000J0D01*
G01*
X11525000Y-11175000D02*
G75*
G03*
X11525000Y-11175000I-25000J0D01*
G01*
X11573400Y-10072200D02*
G75*
G03*
X11573400Y-10072200I-25000J0D01*
G01*
X11573400Y-10427800D02*
G75*
G03*
X11573400Y-10427800I-25000J0D01*
G01*
X11573400Y-11572200D02*
G75*
G03*
X11573400Y-11572200I-25000J0D01*
G01*
X11573400Y-11927800D02*
G75*
G03*
X11573400Y-11927800I-25000J0D01*
G01*
X11675000Y-10046800D02*
G75*
G03*
X11675000Y-10046800I-25000J0D01*
G01*
X11675000Y-10453200D02*
G75*
G03*
X11675000Y-10453200I-25000J0D01*
G01*
X11675000Y-11546800D02*
G75*
G03*
X11675000Y-11546800I-25000J0D01*
G01*
X11675000Y-11953200D02*
G75*
G03*
X11675000Y-11953200I-25000J0D01*
G01*
X11685000Y-7500000D02*
G75*
G03*
X11685000Y-7500000I-25000J0D01*
G01*
X11685000Y-12500000D02*
G75*
G03*
X11685000Y-12500000I-25000J0D01*
G01*
X11725000Y-10825000D02*
G75*
G03*
X11725000Y-10825000I-25000J0D01*
G01*
X11725000Y-11175000D02*
G75*
G03*
X11725000Y-11175000I-25000J0D01*
G01*
X11755294Y-7330294D02*
G75*
G03*
X11755294Y-7330294I-25000J0D01*
G01*
X11755294Y-7669706D02*
G75*
G03*
X11755294Y-7669706I-25000J0D01*
G01*
X11755294Y-12330294D02*
G75*
G03*
X11755294Y-12330294I-25000J0D01*
G01*
X11755294Y-12669706D02*
G75*
G03*
X11755294Y-12669706I-25000J0D01*
G01*
X11776600Y-10072200D02*
G75*
G03*
X11776600Y-10072200I-25000J0D01*
G01*
X11776600Y-10427800D02*
G75*
G03*
X11776600Y-10427800I-25000J0D01*
G01*
X11776600Y-11572200D02*
G75*
G03*
X11776600Y-11572200I-25000J0D01*
G01*
X11776600Y-11927800D02*
G75*
G03*
X11776600Y-11927800I-25000J0D01*
G01*
X11852800Y-10148400D02*
G75*
G03*
X11852800Y-10148400I-25000J0D01*
G01*
X11852800Y-10351600D02*
G75*
G03*
X11852800Y-10351600I-25000J0D01*
G01*
X11852800Y-11648400D02*
G75*
G03*
X11852800Y-11648400I-25000J0D01*
G01*
X11852800Y-11851600D02*
G75*
G03*
X11852800Y-11851600I-25000J0D01*
G01*
X11875000Y-10825000D02*
G75*
G03*
X11875000Y-10825000I-25000J0D01*
G01*
X11875000Y-11175000D02*
G75*
G03*
X11875000Y-11175000I-25000J0D01*
G01*
X11925000Y-7260000D02*
G75*
G03*
X11925000Y-7260000I-25000J0D01*
G01*
X11925000Y-7740000D02*
G75*
G03*
X11925000Y-7740000I-25000J0D01*
G01*
X11925000Y-12260000D02*
G75*
G03*
X11925000Y-12260000I-25000J0D01*
G01*
X11925000Y-12740000D02*
G75*
G03*
X11925000Y-12740000I-25000J0D01*
G01*
X11997200Y-10148400D02*
G75*
G03*
X11997200Y-10148400I-25000J0D01*
G01*
X11997200Y-10351600D02*
G75*
G03*
X11997200Y-10351600I-25000J0D01*
G01*
X11997200Y-11648400D02*
G75*
G03*
X11997200Y-11648400I-25000J0D01*
G01*
X11997200Y-11851600D02*
G75*
G03*
X11997200Y-11851600I-25000J0D01*
G01*
X12073400Y-10072200D02*
G75*
G03*
X12073400Y-10072200I-25000J0D01*
G01*
X12073400Y-10427800D02*
G75*
G03*
X12073400Y-10427800I-25000J0D01*
G01*
X12073400Y-11572200D02*
G75*
G03*
X12073400Y-11572200I-25000J0D01*
G01*
X12073400Y-11927800D02*
G75*
G03*
X12073400Y-11927800I-25000J0D01*
G01*
X12075000Y-10825000D02*
G75*
G03*
X12075000Y-10825000I-25000J0D01*
G01*
X12075000Y-11175000D02*
G75*
G03*
X12075000Y-11175000I-25000J0D01*
G01*
X12094706Y-7330294D02*
G75*
G03*
X12094706Y-7330294I-25000J0D01*
G01*
X12094706Y-7669706D02*
G75*
G03*
X12094706Y-7669706I-25000J0D01*
G01*
X12094706Y-12330294D02*
G75*
G03*
X12094706Y-12330294I-25000J0D01*
G01*
X12094706Y-12669706D02*
G75*
G03*
X12094706Y-12669706I-25000J0D01*
G01*
X12165000Y-7500000D02*
G75*
G03*
X12165000Y-7500000I-25000J0D01*
G01*
X12165000Y-12500000D02*
G75*
G03*
X12165000Y-12500000I-25000J0D01*
G01*
X12175000Y-10046800D02*
G75*
G03*
X12175000Y-10046800I-25000J0D01*
G01*
X12175000Y-10453200D02*
G75*
G03*
X12175000Y-10453200I-25000J0D01*
G01*
X12175000Y-11546800D02*
G75*
G03*
X12175000Y-11546800I-25000J0D01*
G01*
X12175000Y-11953200D02*
G75*
G03*
X12175000Y-11953200I-25000J0D01*
G01*
X12223400Y-10825000D02*
G75*
G03*
X12223400Y-10825000I-25000J0D01*
G01*
X12223400Y-11175000D02*
G75*
G03*
X12223400Y-11175000I-25000J0D01*
G01*
X12276600Y-10072200D02*
G75*
G03*
X12276600Y-10072200I-25000J0D01*
G01*
X12276600Y-10427800D02*
G75*
G03*
X12276600Y-10427800I-25000J0D01*
G01*
X12276600Y-11572200D02*
G75*
G03*
X12276600Y-11572200I-25000J0D01*
G01*
X12276600Y-11927800D02*
G75*
G03*
X12276600Y-11927800I-25000J0D01*
G01*
X12352800Y-10148400D02*
G75*
G03*
X12352800Y-10148400I-25000J0D01*
G01*
X12352800Y-10351600D02*
G75*
G03*
X12352800Y-10351600I-25000J0D01*
G01*
X12352800Y-11648400D02*
G75*
G03*
X12352800Y-11648400I-25000J0D01*
G01*
X12352800Y-11851600D02*
G75*
G03*
X12352800Y-11851600I-25000J0D01*
G01*
X12425000Y-11175000D02*
G75*
G03*
X12425000Y-11175000I-25000J0D01*
G01*
X12426600Y-10825000D02*
G75*
G03*
X12426600Y-10825000I-25000J0D01*
G01*
X12997200Y-10148400D02*
G75*
G03*
X12997200Y-10148400I-25000J0D01*
G01*
X12997200Y-10351600D02*
G75*
G03*
X12997200Y-10351600I-25000J0D01*
G01*
X12997200Y-11648400D02*
G75*
G03*
X12997200Y-11648400I-25000J0D01*
G01*
X12997200Y-11851600D02*
G75*
G03*
X12997200Y-11851600I-25000J0D01*
G01*
X13025000Y-10825000D02*
G75*
G03*
X13025000Y-10825000I-25000J0D01*
G01*
X13025000Y-11175000D02*
G75*
G03*
X13025000Y-11175000I-25000J0D01*
G01*
X13073400Y-10072200D02*
G75*
G03*
X13073400Y-10072200I-25000J0D01*
G01*
X13073400Y-10427800D02*
G75*
G03*
X13073400Y-10427800I-25000J0D01*
G01*
X13073400Y-11572200D02*
G75*
G03*
X13073400Y-11572200I-25000J0D01*
G01*
X13073400Y-11927800D02*
G75*
G03*
X13073400Y-11927800I-25000J0D01*
G01*
X13175000Y-10046800D02*
G75*
G03*
X13175000Y-10046800I-25000J0D01*
G01*
X13175000Y-10453200D02*
G75*
G03*
X13175000Y-10453200I-25000J0D01*
G01*
X13175000Y-11546800D02*
G75*
G03*
X13175000Y-11546800I-25000J0D01*
G01*
X13175000Y-11953200D02*
G75*
G03*
X13175000Y-11953200I-25000J0D01*
G01*
X13225000Y-10825000D02*
G75*
G03*
X13225000Y-10825000I-25000J0D01*
G01*
X13225000Y-11175000D02*
G75*
G03*
X13225000Y-11175000I-25000J0D01*
G01*
X13276600Y-10072200D02*
G75*
G03*
X13276600Y-10072200I-25000J0D01*
G01*
X13276600Y-10427800D02*
G75*
G03*
X13276600Y-10427800I-25000J0D01*
G01*
X13276600Y-11572200D02*
G75*
G03*
X13276600Y-11572200I-25000J0D01*
G01*
X13276600Y-11927800D02*
G75*
G03*
X13276600Y-11927800I-25000J0D01*
G01*
X13352800Y-10148400D02*
G75*
G03*
X13352800Y-10148400I-25000J0D01*
G01*
X13352800Y-10351600D02*
G75*
G03*
X13352800Y-10351600I-25000J0D01*
G01*
X13352800Y-11648400D02*
G75*
G03*
X13352800Y-11648400I-25000J0D01*
G01*
X13352800Y-11851600D02*
G75*
G03*
X13352800Y-11851600I-25000J0D01*
G01*
X13375000Y-10825000D02*
G75*
G03*
X13375000Y-10825000I-25000J0D01*
G01*
X13375000Y-11175000D02*
G75*
G03*
X13375000Y-11175000I-25000J0D01*
G01*
X13497200Y-10148400D02*
G75*
G03*
X13497200Y-10148400I-25000J0D01*
G01*
X13497200Y-10351600D02*
G75*
G03*
X13497200Y-10351600I-25000J0D01*
G01*
X13497200Y-11648400D02*
G75*
G03*
X13497200Y-11648400I-25000J0D01*
G01*
X13497200Y-11851600D02*
G75*
G03*
X13497200Y-11851600I-25000J0D01*
G01*
X13573400Y-10072200D02*
G75*
G03*
X13573400Y-10072200I-25000J0D01*
G01*
X13573400Y-10427800D02*
G75*
G03*
X13573400Y-10427800I-25000J0D01*
G01*
X13573400Y-11572200D02*
G75*
G03*
X13573400Y-11572200I-25000J0D01*
G01*
X13573400Y-11927800D02*
G75*
G03*
X13573400Y-11927800I-25000J0D01*
G01*
X13575000Y-10825000D02*
G75*
G03*
X13575000Y-10825000I-25000J0D01*
G01*
X13575000Y-11175000D02*
G75*
G03*
X13575000Y-11175000I-25000J0D01*
G01*
X13675000Y-10046800D02*
G75*
G03*
X13675000Y-10046800I-25000J0D01*
G01*
X13675000Y-10453200D02*
G75*
G03*
X13675000Y-10453200I-25000J0D01*
G01*
X13675000Y-11546800D02*
G75*
G03*
X13675000Y-11546800I-25000J0D01*
G01*
X13675000Y-11953200D02*
G75*
G03*
X13675000Y-11953200I-25000J0D01*
G01*
X13723400Y-10825000D02*
G75*
G03*
X13723400Y-10825000I-25000J0D01*
G01*
X13723400Y-11175000D02*
G75*
G03*
X13723400Y-11175000I-25000J0D01*
G01*
X13776600Y-10072200D02*
G75*
G03*
X13776600Y-10072200I-25000J0D01*
G01*
X13776600Y-10427800D02*
G75*
G03*
X13776600Y-10427800I-25000J0D01*
G01*
X13776600Y-11572200D02*
G75*
G03*
X13776600Y-11572200I-25000J0D01*
G01*
X13776600Y-11927800D02*
G75*
G03*
X13776600Y-11927800I-25000J0D01*
G01*
X13852800Y-10148400D02*
G75*
G03*
X13852800Y-10148400I-25000J0D01*
G01*
X13852800Y-10351600D02*
G75*
G03*
X13852800Y-10351600I-25000J0D01*
G01*
X13852800Y-11648400D02*
G75*
G03*
X13852800Y-11648400I-25000J0D01*
G01*
X13852800Y-11851600D02*
G75*
G03*
X13852800Y-11851600I-25000J0D01*
G01*
X13925000Y-11175000D02*
G75*
G03*
X13925000Y-11175000I-25000J0D01*
G01*
X13926600Y-10825000D02*
G75*
G03*
X13926600Y-10825000I-25000J0D01*
G01*
X14497200Y-10148400D02*
G75*
G03*
X14497200Y-10148400I-25000J0D01*
G01*
X14497200Y-10351600D02*
G75*
G03*
X14497200Y-10351600I-25000J0D01*
G01*
X14497200Y-11648400D02*
G75*
G03*
X14497200Y-11648400I-25000J0D01*
G01*
X14497200Y-11851600D02*
G75*
G03*
X14497200Y-11851600I-25000J0D01*
G01*
X14525000Y-10825000D02*
G75*
G03*
X14525000Y-10825000I-25000J0D01*
G01*
X14525000Y-11175000D02*
G75*
G03*
X14525000Y-11175000I-25000J0D01*
G01*
X14573400Y-10072200D02*
G75*
G03*
X14573400Y-10072200I-25000J0D01*
G01*
X14573400Y-10427800D02*
G75*
G03*
X14573400Y-10427800I-25000J0D01*
G01*
X14573400Y-11572200D02*
G75*
G03*
X14573400Y-11572200I-25000J0D01*
G01*
X14573400Y-11927800D02*
G75*
G03*
X14573400Y-11927800I-25000J0D01*
G01*
X14675000Y-10046800D02*
G75*
G03*
X14675000Y-10046800I-25000J0D01*
G01*
X14675000Y-10453200D02*
G75*
G03*
X14675000Y-10453200I-25000J0D01*
G01*
X14675000Y-11546800D02*
G75*
G03*
X14675000Y-11546800I-25000J0D01*
G01*
X14675000Y-11953200D02*
G75*
G03*
X14675000Y-11953200I-25000J0D01*
G01*
X14685000Y-7500000D02*
G75*
G03*
X14685000Y-7500000I-25000J0D01*
G01*
X14685000Y-12500000D02*
G75*
G03*
X14685000Y-12500000I-25000J0D01*
G01*
X14725000Y-10825000D02*
G75*
G03*
X14725000Y-10825000I-25000J0D01*
G01*
X14725000Y-11175000D02*
G75*
G03*
X14725000Y-11175000I-25000J0D01*
G01*
X14755294Y-7330294D02*
G75*
G03*
X14755294Y-7330294I-25000J0D01*
G01*
X14755294Y-7669706D02*
G75*
G03*
X14755294Y-7669706I-25000J0D01*
G01*
X14755294Y-12330294D02*
G75*
G03*
X14755294Y-12330294I-25000J0D01*
G01*
X14755294Y-12669706D02*
G75*
G03*
X14755294Y-12669706I-25000J0D01*
G01*
X14776600Y-10072200D02*
G75*
G03*
X14776600Y-10072200I-25000J0D01*
G01*
X14776600Y-10427800D02*
G75*
G03*
X14776600Y-10427800I-25000J0D01*
G01*
X14776600Y-11572200D02*
G75*
G03*
X14776600Y-11572200I-25000J0D01*
G01*
X14776600Y-11927800D02*
G75*
G03*
X14776600Y-11927800I-25000J0D01*
G01*
X14852800Y-10148400D02*
G75*
G03*
X14852800Y-10148400I-25000J0D01*
G01*
X14852800Y-10351600D02*
G75*
G03*
X14852800Y-10351600I-25000J0D01*
G01*
X14852800Y-11648400D02*
G75*
G03*
X14852800Y-11648400I-25000J0D01*
G01*
X14852800Y-11851600D02*
G75*
G03*
X14852800Y-11851600I-25000J0D01*
G01*
X14875000Y-10825000D02*
G75*
G03*
X14875000Y-10825000I-25000J0D01*
G01*
X14875000Y-11175000D02*
G75*
G03*
X14875000Y-11175000I-25000J0D01*
G01*
X14925000Y-7260000D02*
G75*
G03*
X14925000Y-7260000I-25000J0D01*
G01*
X14925000Y-7740000D02*
G75*
G03*
X14925000Y-7740000I-25000J0D01*
G01*
X14925000Y-12260000D02*
G75*
G03*
X14925000Y-12260000I-25000J0D01*
G01*
X14925000Y-12740000D02*
G75*
G03*
X14925000Y-12740000I-25000J0D01*
G01*
X14997200Y-10148400D02*
G75*
G03*
X14997200Y-10148400I-25000J0D01*
G01*
X14997200Y-10351600D02*
G75*
G03*
X14997200Y-10351600I-25000J0D01*
G01*
X14997200Y-11648400D02*
G75*
G03*
X14997200Y-11648400I-25000J0D01*
G01*
X14997200Y-11851600D02*
G75*
G03*
X14997200Y-11851600I-25000J0D01*
G01*
X15073400Y-10072200D02*
G75*
G03*
X15073400Y-10072200I-25000J0D01*
G01*
X15073400Y-10427800D02*
G75*
G03*
X15073400Y-10427800I-25000J0D01*
G01*
X15073400Y-11572200D02*
G75*
G03*
X15073400Y-11572200I-25000J0D01*
G01*
X15073400Y-11927800D02*
G75*
G03*
X15073400Y-11927800I-25000J0D01*
G01*
X15075000Y-10825000D02*
G75*
G03*
X15075000Y-10825000I-25000J0D01*
G01*
X15075000Y-11175000D02*
G75*
G03*
X15075000Y-11175000I-25000J0D01*
G01*
X15094706Y-7330294D02*
G75*
G03*
X15094706Y-7330294I-25000J0D01*
G01*
X15094706Y-7669706D02*
G75*
G03*
X15094706Y-7669706I-25000J0D01*
G01*
X15094706Y-12330294D02*
G75*
G03*
X15094706Y-12330294I-25000J0D01*
G01*
X15094706Y-12669706D02*
G75*
G03*
X15094706Y-12669706I-25000J0D01*
G01*
X15165000Y-7500000D02*
G75*
G03*
X15165000Y-7500000I-25000J0D01*
G01*
X15165000Y-12500000D02*
G75*
G03*
X15165000Y-12500000I-25000J0D01*
G01*
X15175000Y-10046800D02*
G75*
G03*
X15175000Y-10046800I-25000J0D01*
G01*
X15175000Y-10453200D02*
G75*
G03*
X15175000Y-10453200I-25000J0D01*
G01*
X15175000Y-11546800D02*
G75*
G03*
X15175000Y-11546800I-25000J0D01*
G01*
X15175000Y-11953200D02*
G75*
G03*
X15175000Y-11953200I-25000J0D01*
G01*
X15223400Y-10825000D02*
G75*
G03*
X15223400Y-10825000I-25000J0D01*
G01*
X15223400Y-11175000D02*
G75*
G03*
X15223400Y-11175000I-25000J0D01*
G01*
X15276600Y-10072200D02*
G75*
G03*
X15276600Y-10072200I-25000J0D01*
G01*
X15276600Y-10427800D02*
G75*
G03*
X15276600Y-10427800I-25000J0D01*
G01*
X15276600Y-11572200D02*
G75*
G03*
X15276600Y-11572200I-25000J0D01*
G01*
X15276600Y-11927800D02*
G75*
G03*
X15276600Y-11927800I-25000J0D01*
G01*
X15352800Y-10148400D02*
G75*
G03*
X15352800Y-10148400I-25000J0D01*
G01*
X15352800Y-10351600D02*
G75*
G03*
X15352800Y-10351600I-25000J0D01*
G01*
X15352800Y-11648400D02*
G75*
G03*
X15352800Y-11648400I-25000J0D01*
G01*
X15352800Y-11851600D02*
G75*
G03*
X15352800Y-11851600I-25000J0D01*
G01*
X15425000Y-11175000D02*
G75*
G03*
X15425000Y-11175000I-25000J0D01*
G01*
X15426600Y-10825000D02*
G75*
G03*
X15426600Y-10825000I-25000J0D01*
G01*
X15997200Y-10148400D02*
G75*
G03*
X15997200Y-10148400I-25000J0D01*
G01*
X15997200Y-10351600D02*
G75*
G03*
X15997200Y-10351600I-25000J0D01*
G01*
X15997200Y-11648400D02*
G75*
G03*
X15997200Y-11648400I-25000J0D01*
G01*
X15997200Y-11851600D02*
G75*
G03*
X15997200Y-11851600I-25000J0D01*
G01*
X16025000Y-10825000D02*
G75*
G03*
X16025000Y-10825000I-25000J0D01*
G01*
X16025000Y-11175000D02*
G75*
G03*
X16025000Y-11175000I-25000J0D01*
G01*
X16073400Y-10072200D02*
G75*
G03*
X16073400Y-10072200I-25000J0D01*
G01*
X16073400Y-10427800D02*
G75*
G03*
X16073400Y-10427800I-25000J0D01*
G01*
X16073400Y-11572200D02*
G75*
G03*
X16073400Y-11572200I-25000J0D01*
G01*
X16073400Y-11927800D02*
G75*
G03*
X16073400Y-11927800I-25000J0D01*
G01*
X16175000Y-10046800D02*
G75*
G03*
X16175000Y-10046800I-25000J0D01*
G01*
X16175000Y-10453200D02*
G75*
G03*
X16175000Y-10453200I-25000J0D01*
G01*
X16175000Y-11546800D02*
G75*
G03*
X16175000Y-11546800I-25000J0D01*
G01*
X16175000Y-11953200D02*
G75*
G03*
X16175000Y-11953200I-25000J0D01*
G01*
X16225000Y-10825000D02*
G75*
G03*
X16225000Y-10825000I-25000J0D01*
G01*
X16225000Y-11175000D02*
G75*
G03*
X16225000Y-11175000I-25000J0D01*
G01*
X16276600Y-10072200D02*
G75*
G03*
X16276600Y-10072200I-25000J0D01*
G01*
X16276600Y-10427800D02*
G75*
G03*
X16276600Y-10427800I-25000J0D01*
G01*
X16276600Y-11572200D02*
G75*
G03*
X16276600Y-11572200I-25000J0D01*
G01*
X16276600Y-11927800D02*
G75*
G03*
X16276600Y-11927800I-25000J0D01*
G01*
X16352800Y-10148400D02*
G75*
G03*
X16352800Y-10148400I-25000J0D01*
G01*
X16352800Y-10351600D02*
G75*
G03*
X16352800Y-10351600I-25000J0D01*
G01*
X16352800Y-11648400D02*
G75*
G03*
X16352800Y-11648400I-25000J0D01*
G01*
X16352800Y-11851600D02*
G75*
G03*
X16352800Y-11851600I-25000J0D01*
G01*
X16375000Y-10825000D02*
G75*
G03*
X16375000Y-10825000I-25000J0D01*
G01*
X16375000Y-11175000D02*
G75*
G03*
X16375000Y-11175000I-25000J0D01*
G01*
X16497200Y-10148400D02*
G75*
G03*
X16497200Y-10148400I-25000J0D01*
G01*
X16497200Y-10351600D02*
G75*
G03*
X16497200Y-10351600I-25000J0D01*
G01*
X16497200Y-11648400D02*
G75*
G03*
X16497200Y-11648400I-25000J0D01*
G01*
X16497200Y-11851600D02*
G75*
G03*
X16497200Y-11851600I-25000J0D01*
G01*
X16573400Y-10072200D02*
G75*
G03*
X16573400Y-10072200I-25000J0D01*
G01*
X16573400Y-10427800D02*
G75*
G03*
X16573400Y-10427800I-25000J0D01*
G01*
X16573400Y-11572200D02*
G75*
G03*
X16573400Y-11572200I-25000J0D01*
G01*
X16573400Y-11927800D02*
G75*
G03*
X16573400Y-11927800I-25000J0D01*
G01*
X16575000Y-10825000D02*
G75*
G03*
X16575000Y-10825000I-25000J0D01*
G01*
X16575000Y-11175000D02*
G75*
G03*
X16575000Y-11175000I-25000J0D01*
G01*
X16675000Y-10046800D02*
G75*
G03*
X16675000Y-10046800I-25000J0D01*
G01*
X16675000Y-10453200D02*
G75*
G03*
X16675000Y-10453200I-25000J0D01*
G01*
X16675000Y-11546800D02*
G75*
G03*
X16675000Y-11546800I-25000J0D01*
G01*
X16675000Y-11953200D02*
G75*
G03*
X16675000Y-11953200I-25000J0D01*
G01*
X16723400Y-10825000D02*
G75*
G03*
X16723400Y-10825000I-25000J0D01*
G01*
X16723400Y-11175000D02*
G75*
G03*
X16723400Y-11175000I-25000J0D01*
G01*
X16776600Y-10072200D02*
G75*
G03*
X16776600Y-10072200I-25000J0D01*
G01*
X16776600Y-10427800D02*
G75*
G03*
X16776600Y-10427800I-25000J0D01*
G01*
X16776600Y-11572200D02*
G75*
G03*
X16776600Y-11572200I-25000J0D01*
G01*
X16776600Y-11927800D02*
G75*
G03*
X16776600Y-11927800I-25000J0D01*
G01*
X16852800Y-10148400D02*
G75*
G03*
X16852800Y-10148400I-25000J0D01*
G01*
X16852800Y-10351600D02*
G75*
G03*
X16852800Y-10351600I-25000J0D01*
G01*
X16852800Y-11648400D02*
G75*
G03*
X16852800Y-11648400I-25000J0D01*
G01*
X16852800Y-11851600D02*
G75*
G03*
X16852800Y-11851600I-25000J0D01*
G01*
X16925000Y-11175000D02*
G75*
G03*
X16925000Y-11175000I-25000J0D01*
G01*
X16926600Y-10825000D02*
G75*
G03*
X16926600Y-10825000I-25000J0D01*
G01*
X17497200Y-10148400D02*
G75*
G03*
X17497200Y-10148400I-25000J0D01*
G01*
X17497200Y-10351600D02*
G75*
G03*
X17497200Y-10351600I-25000J0D01*
G01*
X17497200Y-11648400D02*
G75*
G03*
X17497200Y-11648400I-25000J0D01*
G01*
X17497200Y-11851600D02*
G75*
G03*
X17497200Y-11851600I-25000J0D01*
G01*
X17525000Y-10825000D02*
G75*
G03*
X17525000Y-10825000I-25000J0D01*
G01*
X17525000Y-11175000D02*
G75*
G03*
X17525000Y-11175000I-25000J0D01*
G01*
X17573400Y-10072200D02*
G75*
G03*
X17573400Y-10072200I-25000J0D01*
G01*
X17573400Y-10427800D02*
G75*
G03*
X17573400Y-10427800I-25000J0D01*
G01*
X17573400Y-11572200D02*
G75*
G03*
X17573400Y-11572200I-25000J0D01*
G01*
X17573400Y-11927800D02*
G75*
G03*
X17573400Y-11927800I-25000J0D01*
G01*
X17675000Y-10046800D02*
G75*
G03*
X17675000Y-10046800I-25000J0D01*
G01*
X17675000Y-10453200D02*
G75*
G03*
X17675000Y-10453200I-25000J0D01*
G01*
X17675000Y-11546800D02*
G75*
G03*
X17675000Y-11546800I-25000J0D01*
G01*
X17675000Y-11953200D02*
G75*
G03*
X17675000Y-11953200I-25000J0D01*
G01*
X17685000Y-7500000D02*
G75*
G03*
X17685000Y-7500000I-25000J0D01*
G01*
X17685000Y-12500000D02*
G75*
G03*
X17685000Y-12500000I-25000J0D01*
G01*
X17725000Y-10825000D02*
G75*
G03*
X17725000Y-10825000I-25000J0D01*
G01*
X17725000Y-11175000D02*
G75*
G03*
X17725000Y-11175000I-25000J0D01*
G01*
X17755294Y-7330294D02*
G75*
G03*
X17755294Y-7330294I-25000J0D01*
G01*
X17755294Y-7669706D02*
G75*
G03*
X17755294Y-7669706I-25000J0D01*
G01*
X17755294Y-12330294D02*
G75*
G03*
X17755294Y-12330294I-25000J0D01*
G01*
X17755294Y-12669706D02*
G75*
G03*
X17755294Y-12669706I-25000J0D01*
G01*
X17776600Y-10072200D02*
G75*
G03*
X17776600Y-10072200I-25000J0D01*
G01*
X17776600Y-10427800D02*
G75*
G03*
X17776600Y-10427800I-25000J0D01*
G01*
X17776600Y-11572200D02*
G75*
G03*
X17776600Y-11572200I-25000J0D01*
G01*
X17776600Y-11927800D02*
G75*
G03*
X17776600Y-11927800I-25000J0D01*
G01*
X17852800Y-10148400D02*
G75*
G03*
X17852800Y-10148400I-25000J0D01*
G01*
X17852800Y-10351600D02*
G75*
G03*
X17852800Y-10351600I-25000J0D01*
G01*
X17852800Y-11648400D02*
G75*
G03*
X17852800Y-11648400I-25000J0D01*
G01*
X17852800Y-11851600D02*
G75*
G03*
X17852800Y-11851600I-25000J0D01*
G01*
X17875000Y-10825000D02*
G75*
G03*
X17875000Y-10825000I-25000J0D01*
G01*
X17875000Y-11175000D02*
G75*
G03*
X17875000Y-11175000I-25000J0D01*
G01*
X17925000Y-7260000D02*
G75*
G03*
X17925000Y-7260000I-25000J0D01*
G01*
X17925000Y-7740000D02*
G75*
G03*
X17925000Y-7740000I-25000J0D01*
G01*
X17925000Y-12260000D02*
G75*
G03*
X17925000Y-12260000I-25000J0D01*
G01*
X17925000Y-12740000D02*
G75*
G03*
X17925000Y-12740000I-25000J0D01*
G01*
X17997200Y-10148400D02*
G75*
G03*
X17997200Y-10148400I-25000J0D01*
G01*
X17997200Y-10351600D02*
G75*
G03*
X17997200Y-10351600I-25000J0D01*
G01*
X17997200Y-11648400D02*
G75*
G03*
X17997200Y-11648400I-25000J0D01*
G01*
X17997200Y-11851600D02*
G75*
G03*
X17997200Y-11851600I-25000J0D01*
G01*
X18073400Y-10072200D02*
G75*
G03*
X18073400Y-10072200I-25000J0D01*
G01*
X18073400Y-10427800D02*
G75*
G03*
X18073400Y-10427800I-25000J0D01*
G01*
X18073400Y-11572200D02*
G75*
G03*
X18073400Y-11572200I-25000J0D01*
G01*
X18073400Y-11927800D02*
G75*
G03*
X18073400Y-11927800I-25000J0D01*
G01*
X18075000Y-10825000D02*
G75*
G03*
X18075000Y-10825000I-25000J0D01*
G01*
X18075000Y-11175000D02*
G75*
G03*
X18075000Y-11175000I-25000J0D01*
G01*
X18094706Y-7330294D02*
G75*
G03*
X18094706Y-7330294I-25000J0D01*
G01*
X18094706Y-7669706D02*
G75*
G03*
X18094706Y-7669706I-25000J0D01*
G01*
X18094706Y-12330294D02*
G75*
G03*
X18094706Y-12330294I-25000J0D01*
G01*
X18094706Y-12669706D02*
G75*
G03*
X18094706Y-12669706I-25000J0D01*
G01*
X18165000Y-7500000D02*
G75*
G03*
X18165000Y-7500000I-25000J0D01*
G01*
X18165000Y-12500000D02*
G75*
G03*
X18165000Y-12500000I-25000J0D01*
G01*
X18175000Y-10046800D02*
G75*
G03*
X18175000Y-10046800I-25000J0D01*
G01*
X18175000Y-10453200D02*
G75*
G03*
X18175000Y-10453200I-25000J0D01*
G01*
X18175000Y-11546800D02*
G75*
G03*
X18175000Y-11546800I-25000J0D01*
G01*
X18175000Y-11953200D02*
G75*
G03*
X18175000Y-11953200I-25000J0D01*
G01*
X18223400Y-10825000D02*
G75*
G03*
X18223400Y-10825000I-25000J0D01*
G01*
X18223400Y-11175000D02*
G75*
G03*
X18223400Y-11175000I-25000J0D01*
G01*
X18276600Y-10072200D02*
G75*
G03*
X18276600Y-10072200I-25000J0D01*
G01*
X18276600Y-10427800D02*
G75*
G03*
X18276600Y-10427800I-25000J0D01*
G01*
X18276600Y-11572200D02*
G75*
G03*
X18276600Y-11572200I-25000J0D01*
G01*
X18276600Y-11927800D02*
G75*
G03*
X18276600Y-11927800I-25000J0D01*
G01*
X18352800Y-10148400D02*
G75*
G03*
X18352800Y-10148400I-25000J0D01*
G01*
X18352800Y-10351600D02*
G75*
G03*
X18352800Y-10351600I-25000J0D01*
G01*
X18352800Y-11648400D02*
G75*
G03*
X18352800Y-11648400I-25000J0D01*
G01*
X18352800Y-11851600D02*
G75*
G03*
X18352800Y-11851600I-25000J0D01*
G01*
X18425000Y-11175000D02*
G75*
G03*
X18425000Y-11175000I-25000J0D01*
G01*
X18426600Y-10825000D02*
G75*
G03*
X18426600Y-10825000I-25000J0D01*
G01*
D10*
X15538000Y-6446000D02*
X15538000Y-6546000D01*
X15488000Y-6496000D02*
X15588000Y-6496000D01*
X15538000Y-6700000D02*
X15538000Y-6800000D01*
X15488000Y-6750000D02*
X15588000Y-6750000D01*
X15792000Y-6446000D02*
X15792000Y-6546000D01*
X15742000Y-6496000D02*
X15842000Y-6496000D01*
X15792000Y-6700000D02*
X15792000Y-6800000D01*
X15742000Y-6750000D02*
X15842000Y-6750000D01*
X16046000Y-6446000D02*
X16046000Y-6546000D01*
X15996000Y-6496000D02*
X16096000Y-6496000D01*
X16046000Y-6700000D02*
X16046000Y-6800000D01*
X15996000Y-6750000D02*
X16096000Y-6750000D01*
X16300000Y-6446000D02*
X16300000Y-6546000D01*
X16250000Y-6496000D02*
X16350000Y-6496000D01*
X16300000Y-6700000D02*
X16300000Y-6800000D01*
X16250000Y-6750000D02*
X16350000Y-6750000D01*
X16554000Y-6446000D02*
X16554000Y-6546000D01*
X16504000Y-6496000D02*
X16604000Y-6496000D01*
X16554000Y-6700000D02*
X16554000Y-6800000D01*
X16504000Y-6750000D02*
X16604000Y-6750000D01*
X16808000Y-6446000D02*
X16808000Y-6546000D01*
X16758000Y-6496000D02*
X16858000Y-6496000D01*
X16808000Y-6700000D02*
X16808000Y-6800000D01*
X16758000Y-6750000D02*
X16858000Y-6750000D01*
X17062000Y-6446000D02*
X17062000Y-6546000D01*
X17012000Y-6496000D02*
X17112000Y-6496000D01*
X17062000Y-6700000D02*
X17062000Y-6800000D01*
X17012000Y-6750000D02*
X17112000Y-6750000D01*
X17316000Y-6446000D02*
X17316000Y-6546000D01*
X17266000Y-6496000D02*
X17366000Y-6496000D01*
X17316000Y-6700000D02*
X17316000Y-6800000D01*
X17266000Y-6750000D02*
X17366000Y-6750000D01*
D14*
X18656569Y-7556569D02*
X18656569Y-7443431D01*
X18543431Y-7443431D01*
X18543431Y-7556569D01*
X18656569Y-7556569D01*
D15*
X11600000Y-11135000D02*
X11735000Y-11000000D01*
X11600000Y-10865000D01*
X11465000Y-11000000D01*
X11600000Y-11135000D01*
X11650000Y-10385000D02*
X11785000Y-10250000D01*
X11650000Y-10115000D01*
X11515000Y-10250000D01*
X11650000Y-10385000D01*
X11650000Y-11885000D02*
X11785000Y-11750000D01*
X11650000Y-11615000D01*
X11515000Y-11750000D01*
X11650000Y-11885000D01*
X11950000Y-11135000D02*
X12085000Y-11000000D01*
X11950000Y-10865000D01*
X11815000Y-11000000D01*
X11950000Y-11135000D01*
X12150000Y-10385000D02*
X12285000Y-10250000D01*
X12150000Y-10115000D01*
X12015000Y-10250000D01*
X12150000Y-10385000D01*
X12150000Y-11885000D02*
X12285000Y-11750000D01*
X12150000Y-11615000D01*
X12015000Y-11750000D01*
X12150000Y-11885000D01*
X12300000Y-11135000D02*
X12435000Y-11000000D01*
X12300000Y-10865000D01*
X12165000Y-11000000D01*
X12300000Y-11135000D01*
X13100000Y-11135000D02*
X13235000Y-11000000D01*
X13100000Y-10865000D01*
X12965000Y-11000000D01*
X13100000Y-11135000D01*
X13150000Y-10385000D02*
X13285000Y-10250000D01*
X13150000Y-10115000D01*
X13015000Y-10250000D01*
X13150000Y-10385000D01*
X13150000Y-11885000D02*
X13285000Y-11750000D01*
X13150000Y-11615000D01*
X13015000Y-11750000D01*
X13150000Y-11885000D01*
X13450000Y-11135000D02*
X13585000Y-11000000D01*
X13450000Y-10865000D01*
X13315000Y-11000000D01*
X13450000Y-11135000D01*
X13650000Y-10385000D02*
X13785000Y-10250000D01*
X13650000Y-10115000D01*
X13515000Y-10250000D01*
X13650000Y-10385000D01*
X13650000Y-11885000D02*
X13785000Y-11750000D01*
X13650000Y-11615000D01*
X13515000Y-11750000D01*
X13650000Y-11885000D01*
X13800000Y-11135000D02*
X13935000Y-11000000D01*
X13800000Y-10865000D01*
X13665000Y-11000000D01*
X13800000Y-11135000D01*
X14600000Y-11135000D02*
X14735000Y-11000000D01*
X14600000Y-10865000D01*
X14465000Y-11000000D01*
X14600000Y-11135000D01*
X14650000Y-10385000D02*
X14785000Y-10250000D01*
X14650000Y-10115000D01*
X14515000Y-10250000D01*
X14650000Y-10385000D01*
X14650000Y-11885000D02*
X14785000Y-11750000D01*
X14650000Y-11615000D01*
X14515000Y-11750000D01*
X14650000Y-11885000D01*
X14950000Y-11135000D02*
X15085000Y-11000000D01*
X14950000Y-10865000D01*
X14815000Y-11000000D01*
X14950000Y-11135000D01*
X15150000Y-10385000D02*
X15285000Y-10250000D01*
X15150000Y-10115000D01*
X15015000Y-10250000D01*
X15150000Y-10385000D01*
X15150000Y-11885000D02*
X15285000Y-11750000D01*
X15150000Y-11615000D01*
X15015000Y-11750000D01*
X15150000Y-11885000D01*
X15300000Y-11135000D02*
X15435000Y-11000000D01*
X15300000Y-10865000D01*
X15165000Y-11000000D01*
X15300000Y-11135000D01*
X16100000Y-11135000D02*
X16235000Y-11000000D01*
X16100000Y-10865000D01*
X15965000Y-11000000D01*
X16100000Y-11135000D01*
X16150000Y-10385000D02*
X16285000Y-10250000D01*
X16150000Y-10115000D01*
X16015000Y-10250000D01*
X16150000Y-10385000D01*
X16150000Y-11885000D02*
X16285000Y-11750000D01*
X16150000Y-11615000D01*
X16015000Y-11750000D01*
X16150000Y-11885000D01*
X16450000Y-11135000D02*
X16585000Y-11000000D01*
X16450000Y-10865000D01*
X16315000Y-11000000D01*
X16450000Y-11135000D01*
X16650000Y-10385000D02*
X16785000Y-10250000D01*
X16650000Y-10115000D01*
X16515000Y-10250000D01*
X16650000Y-10385000D01*
X16650000Y-11885000D02*
X16785000Y-11750000D01*
X16650000Y-11615000D01*
X16515000Y-11750000D01*
X16650000Y-11885000D01*
X16800000Y-11135000D02*
X16935000Y-11000000D01*
X16800000Y-10865000D01*
X16665000Y-11000000D01*
X16800000Y-11135000D01*
X17600000Y-11135000D02*
X17735000Y-11000000D01*
X17600000Y-10865000D01*
X17465000Y-11000000D01*
X17600000Y-11135000D01*
X17650000Y-10385000D02*
X17785000Y-10250000D01*
X17650000Y-10115000D01*
X17515000Y-10250000D01*
X17650000Y-10385000D01*
X17650000Y-11885000D02*
X17785000Y-11750000D01*
X17650000Y-11615000D01*
X17515000Y-11750000D01*
X17650000Y-11885000D01*
X17950000Y-11135000D02*
X18085000Y-11000000D01*
X17950000Y-10865000D01*
X17815000Y-11000000D01*
X17950000Y-11135000D01*
X18150000Y-10385000D02*
X18285000Y-10250000D01*
X18150000Y-10115000D01*
X18015000Y-10250000D01*
X18150000Y-10385000D01*
X18150000Y-11885000D02*
X18285000Y-11750000D01*
X18150000Y-11615000D01*
X18015000Y-11750000D01*
X18150000Y-11885000D01*
X18300000Y-11135000D02*
X18435000Y-11000000D01*
X18300000Y-10865000D01*
X18165000Y-11000000D01*
X18300000Y-11135000D01*
D16*
X11740000Y-7340000D02*
X12060000Y-7660000D01*
X12060000Y-7340000D02*
X11740000Y-7660000D01*
X12060000Y-7500000D02*
G75*
G03*
X12060000Y-7500000I-160000J0D01*
G01*
X11740000Y-12340000D02*
X12060000Y-12660000D01*
X12060000Y-12340000D02*
X11740000Y-12660000D01*
X12060000Y-12500000D02*
G75*
G03*
X12060000Y-12500000I-160000J0D01*
G01*
X14740000Y-7340000D02*
X15060000Y-7660000D01*
X15060000Y-7340000D02*
X14740000Y-7660000D01*
X15060000Y-7500000D02*
G75*
G03*
X15060000Y-7500000I-160000J0D01*
G01*
X14740000Y-12340000D02*
X15060000Y-12660000D01*
X15060000Y-12340000D02*
X14740000Y-12660000D01*
X15060000Y-12500000D02*
G75*
G03*
X15060000Y-12500000I-160000J0D01*
G01*
X17740000Y-7340000D02*
X18060000Y-7660000D01*
X18060000Y-7340000D02*
X17740000Y-7660000D01*
X18060000Y-7500000D02*
G75*
G03*
X18060000Y-7500000I-160000J0D01*
G01*
X17740000Y-12340000D02*
X18060000Y-12660000D01*
X18060000Y-12340000D02*
X17740000Y-12660000D01*
X18060000Y-12500000D02*
G75*
G03*
X18060000Y-12500000I-160000J0D01*
G01*
D11*
X11402619Y-13315476D02*
X11402619Y-13115476D01*
X11450238Y-13115476D01*
X11478809Y-13125000D01*
X11497857Y-13144048D01*
X11507381Y-13163095D01*
X11516905Y-13201190D01*
X11516905Y-13229762D01*
X11507381Y-13267857D01*
X11497857Y-13286905D01*
X11478809Y-13305952D01*
X11450238Y-13315476D01*
X11402619Y-13315476D01*
X11602619Y-13315476D02*
X11602619Y-13182143D01*
X11602619Y-13220238D02*
X11612143Y-13201190D01*
X11621667Y-13191667D01*
X11640714Y-13182143D01*
X11659762Y-13182143D01*
X11726428Y-13315476D02*
X11726428Y-13182143D01*
X11726428Y-13115476D02*
X11716905Y-13125000D01*
X11726428Y-13134524D01*
X11735952Y-13125000D01*
X11726428Y-13115476D01*
X11726428Y-13134524D01*
X11850238Y-13315476D02*
X11831190Y-13305952D01*
X11821667Y-13286905D01*
X11821667Y-13115476D01*
X11955000Y-13315476D02*
X11935952Y-13305952D01*
X11926428Y-13286905D01*
X11926428Y-13115476D01*
X12183571Y-13315476D02*
X12183571Y-13115476D01*
X12250238Y-13258333D01*
X12316905Y-13115476D01*
X12316905Y-13315476D01*
X12497857Y-13315476D02*
X12497857Y-13210714D01*
X12488333Y-13191667D01*
X12469286Y-13182143D01*
X12431190Y-13182143D01*
X12412143Y-13191667D01*
X12497857Y-13305952D02*
X12478809Y-13315476D01*
X12431190Y-13315476D01*
X12412143Y-13305952D01*
X12402619Y-13286905D01*
X12402619Y-13267857D01*
X12412143Y-13248809D01*
X12431190Y-13239286D01*
X12478809Y-13239286D01*
X12497857Y-13229762D01*
X12593095Y-13182143D02*
X12593095Y-13382143D01*
X12593095Y-13191667D02*
X12612143Y-13182143D01*
X12650238Y-13182143D01*
X12669286Y-13191667D01*
X12678809Y-13201190D01*
X12688333Y-13220238D01*
X12688333Y-13277381D01*
X12678809Y-13296428D01*
X12669286Y-13305952D01*
X12650238Y-13315476D01*
X12612143Y-13315476D01*
X12593095Y-13305952D01*
X12774048Y-13296428D02*
X12783571Y-13305952D01*
X12774048Y-13315476D01*
X12764524Y-13305952D01*
X12774048Y-13296428D01*
X12774048Y-13315476D01*
X12774048Y-13191667D02*
X12783571Y-13201190D01*
X12774048Y-13210714D01*
X12764524Y-13201190D01*
X12774048Y-13191667D01*
X12774048Y-13210714D01*
D12*
X11115000Y-13630000D02*
X11145000Y-13660000D01*
X11145000Y-13630000D02*
X11115000Y-13660000D01*
D11*
X11440714Y-13535476D02*
X11459762Y-13535476D01*
X11478809Y-13545000D01*
X11488333Y-13554524D01*
X11497857Y-13573571D01*
X11507381Y-13611667D01*
X11507381Y-13659286D01*
X11497857Y-13697381D01*
X11488333Y-13716428D01*
X11478809Y-13725952D01*
X11459762Y-13735476D01*
X11440714Y-13735476D01*
X11421667Y-13725952D01*
X11412143Y-13716428D01*
X11402619Y-13697381D01*
X11393095Y-13659286D01*
X11393095Y-13611667D01*
X11402619Y-13573571D01*
X11412143Y-13554524D01*
X11421667Y-13545000D01*
X11440714Y-13535476D01*
X11593095Y-13716428D02*
X11602619Y-13725952D01*
X11593095Y-13735476D01*
X11583571Y-13725952D01*
X11593095Y-13716428D01*
X11593095Y-13735476D01*
X11669286Y-13535476D02*
X11793095Y-13535476D01*
X11726428Y-13611667D01*
X11755000Y-13611667D01*
X11774048Y-13621190D01*
X11783571Y-13630714D01*
X11793095Y-13649762D01*
X11793095Y-13697381D01*
X11783571Y-13716428D01*
X11774048Y-13725952D01*
X11755000Y-13735476D01*
X11697857Y-13735476D01*
X11678809Y-13725952D01*
X11669286Y-13716428D01*
X11916905Y-13535476D02*
X11935952Y-13535476D01*
X11955000Y-13545000D01*
X11964524Y-13554524D01*
X11974048Y-13573571D01*
X11983571Y-13611667D01*
X11983571Y-13659286D01*
X11974048Y-13697381D01*
X11964524Y-13716428D01*
X11955000Y-13725952D01*
X11935952Y-13735476D01*
X11916905Y-13735476D01*
X11897857Y-13725952D01*
X11888333Y-13716428D01*
X11878809Y-13697381D01*
X11869286Y-13659286D01*
X11869286Y-13611667D01*
X11878809Y-13573571D01*
X11888333Y-13554524D01*
X11897857Y-13545000D01*
X11916905Y-13535476D01*
X12107381Y-13535476D02*
X12126428Y-13535476D01*
X12145476Y-13545000D01*
X12155000Y-13554524D01*
X12164524Y-13573571D01*
X12174048Y-13611667D01*
X12174048Y-13659286D01*
X12164524Y-13697381D01*
X12155000Y-13716428D01*
X12145476Y-13725952D01*
X12126428Y-13735476D01*
X12107381Y-13735476D01*
X12088333Y-13725952D01*
X12078809Y-13716428D01*
X12069286Y-13697381D01*
X12059762Y-13659286D01*
X12059762Y-13611667D01*
X12069286Y-13573571D01*
X12078809Y-13554524D01*
X12088333Y-13545000D01*
X12107381Y-13535476D01*
X12259762Y-13735476D02*
X12259762Y-13602143D01*
X12259762Y-13621190D02*
X12269286Y-13611667D01*
X12288333Y-13602143D01*
X12316905Y-13602143D01*
X12335952Y-13611667D01*
X12345476Y-13630714D01*
X12345476Y-13735476D01*
X12345476Y-13630714D02*
X12355000Y-13611667D01*
X12374048Y-13602143D01*
X12402619Y-13602143D01*
X12421667Y-13611667D01*
X12431190Y-13630714D01*
X12431190Y-13735476D01*
X12526428Y-13735476D02*
X12526428Y-13602143D01*
X12526428Y-13621190D02*
X12535952Y-13611667D01*
X12555000Y-13602143D01*
X12583571Y-13602143D01*
X12602619Y-13611667D01*
X12612143Y-13630714D01*
X12612143Y-13735476D01*
X12612143Y-13630714D02*
X12621667Y-13611667D01*
X12640714Y-13602143D01*
X12669286Y-13602143D01*
X12688333Y-13611667D01*
X12697857Y-13630714D01*
X12697857Y-13735476D01*
X13088333Y-13525952D02*
X12916905Y-13783095D01*
X13345476Y-13535476D02*
X13364524Y-13535476D01*
X13383571Y-13545000D01*
X13393095Y-13554524D01*
X13402619Y-13573571D01*
X13412143Y-13611667D01*
X13412143Y-13659286D01*
X13402619Y-13697381D01*
X13393095Y-13716428D01*
X13383571Y-13725952D01*
X13364524Y-13735476D01*
X13345476Y-13735476D01*
X13326428Y-13725952D01*
X13316905Y-13716428D01*
X13307381Y-13697381D01*
X13297857Y-13659286D01*
X13297857Y-13611667D01*
X13307381Y-13573571D01*
X13316905Y-13554524D01*
X13326428Y-13545000D01*
X13345476Y-13535476D01*
X13497857Y-13716428D02*
X13507381Y-13725952D01*
X13497857Y-13735476D01*
X13488333Y-13725952D01*
X13497857Y-13716428D01*
X13497857Y-13735476D01*
X13631190Y-13535476D02*
X13650238Y-13535476D01*
X13669286Y-13545000D01*
X13678809Y-13554524D01*
X13688333Y-13573571D01*
X13697857Y-13611667D01*
X13697857Y-13659286D01*
X13688333Y-13697381D01*
X13678809Y-13716428D01*
X13669286Y-13725952D01*
X13650238Y-13735476D01*
X13631190Y-13735476D01*
X13612143Y-13725952D01*
X13602619Y-13716428D01*
X13593095Y-13697381D01*
X13583571Y-13659286D01*
X13583571Y-13611667D01*
X13593095Y-13573571D01*
X13602619Y-13554524D01*
X13612143Y-13545000D01*
X13631190Y-13535476D01*
X13888333Y-13735476D02*
X13774048Y-13735476D01*
X13831190Y-13735476D02*
X13831190Y-13535476D01*
X13812143Y-13564048D01*
X13793095Y-13583095D01*
X13774048Y-13592619D01*
X14078809Y-13735476D02*
X13964524Y-13735476D01*
X14021667Y-13735476D02*
X14021667Y-13535476D01*
X14002619Y-13564048D01*
X13983571Y-13583095D01*
X13964524Y-13592619D01*
X14193095Y-13621190D02*
X14174048Y-13611667D01*
X14164524Y-13602143D01*
X14155000Y-13583095D01*
X14155000Y-13573571D01*
X14164524Y-13554524D01*
X14174048Y-13545000D01*
X14193095Y-13535476D01*
X14231190Y-13535476D01*
X14250238Y-13545000D01*
X14259762Y-13554524D01*
X14269286Y-13573571D01*
X14269286Y-13583095D01*
X14259762Y-13602143D01*
X14250238Y-13611667D01*
X14231190Y-13621190D01*
X14193095Y-13621190D01*
X14174048Y-13630714D01*
X14164524Y-13640238D01*
X14155000Y-13659286D01*
X14155000Y-13697381D01*
X14164524Y-13716428D01*
X14174048Y-13725952D01*
X14193095Y-13735476D01*
X14231190Y-13735476D01*
X14250238Y-13725952D01*
X14259762Y-13716428D01*
X14269286Y-13697381D01*
X14269286Y-13659286D01*
X14259762Y-13640238D01*
X14250238Y-13630714D01*
X14231190Y-13621190D01*
X14345476Y-13535476D02*
X14345476Y-13573571D01*
X14421667Y-13535476D02*
X14421667Y-13573571D01*
X14716905Y-13811667D02*
X14707381Y-13802143D01*
X14688333Y-13773571D01*
X14678809Y-13754524D01*
X14669286Y-13725952D01*
X14659762Y-13678333D01*
X14659762Y-13640238D01*
X14669286Y-13592619D01*
X14678809Y-13564048D01*
X14688333Y-13545000D01*
X14707381Y-13516428D01*
X14716905Y-13506905D01*
X14878809Y-13535476D02*
X14840714Y-13535476D01*
X14821667Y-13545000D01*
X14812143Y-13554524D01*
X14793095Y-13583095D01*
X14783571Y-13621190D01*
X14783571Y-13697381D01*
X14793095Y-13716428D01*
X14802619Y-13725952D01*
X14821667Y-13735476D01*
X14859762Y-13735476D01*
X14878809Y-13725952D01*
X14888333Y-13716428D01*
X14897857Y-13697381D01*
X14897857Y-13649762D01*
X14888333Y-13630714D01*
X14878809Y-13621190D01*
X14859762Y-13611667D01*
X14821667Y-13611667D01*
X14802619Y-13621190D01*
X14793095Y-13630714D01*
X14783571Y-13649762D01*
X15021667Y-13535476D02*
X15040714Y-13535476D01*
X15059762Y-13545000D01*
X15069286Y-13554524D01*
X15078809Y-13573571D01*
X15088333Y-13611667D01*
X15088333Y-13659286D01*
X15078809Y-13697381D01*
X15069286Y-13716428D01*
X15059762Y-13725952D01*
X15040714Y-13735476D01*
X15021667Y-13735476D01*
X15002619Y-13725952D01*
X14993095Y-13716428D01*
X14983571Y-13697381D01*
X14974048Y-13659286D01*
X14974048Y-13611667D01*
X14983571Y-13573571D01*
X14993095Y-13554524D01*
X15002619Y-13545000D01*
X15021667Y-13535476D01*
X15183571Y-13735476D02*
X15221667Y-13735476D01*
X15240714Y-13725952D01*
X15250238Y-13716428D01*
X15269286Y-13687857D01*
X15278809Y-13649762D01*
X15278809Y-13573571D01*
X15269286Y-13554524D01*
X15259762Y-13545000D01*
X15240714Y-13535476D01*
X15202619Y-13535476D01*
X15183571Y-13545000D01*
X15174048Y-13554524D01*
X15164524Y-13573571D01*
X15164524Y-13621190D01*
X15174048Y-13640238D01*
X15183571Y-13649762D01*
X15202619Y-13659286D01*
X15240714Y-13659286D01*
X15259762Y-13649762D01*
X15269286Y-13640238D01*
X15278809Y-13621190D01*
X15516905Y-13735476D02*
X15516905Y-13535476D01*
X15602619Y-13735476D02*
X15602619Y-13630714D01*
X15593095Y-13611667D01*
X15574048Y-13602143D01*
X15545476Y-13602143D01*
X15526428Y-13611667D01*
X15516905Y-13621190D01*
X15726428Y-13735476D02*
X15707381Y-13725952D01*
X15697857Y-13716428D01*
X15688333Y-13697381D01*
X15688333Y-13640238D01*
X15697857Y-13621190D01*
X15707381Y-13611667D01*
X15726428Y-13602143D01*
X15755000Y-13602143D01*
X15774048Y-13611667D01*
X15783571Y-13621190D01*
X15793095Y-13640238D01*
X15793095Y-13697381D01*
X15783571Y-13716428D01*
X15774048Y-13725952D01*
X15755000Y-13735476D01*
X15726428Y-13735476D01*
X15907381Y-13735476D02*
X15888333Y-13725952D01*
X15878809Y-13706905D01*
X15878809Y-13535476D01*
X16059762Y-13725952D02*
X16040714Y-13735476D01*
X16002619Y-13735476D01*
X15983571Y-13725952D01*
X15974048Y-13706905D01*
X15974048Y-13630714D01*
X15983571Y-13611667D01*
X16002619Y-13602143D01*
X16040714Y-13602143D01*
X16059762Y-13611667D01*
X16069286Y-13630714D01*
X16069286Y-13649762D01*
X15974048Y-13668809D01*
X16145476Y-13725952D02*
X16164524Y-13735476D01*
X16202619Y-13735476D01*
X16221667Y-13725952D01*
X16231190Y-13706905D01*
X16231190Y-13697381D01*
X16221667Y-13678333D01*
X16202619Y-13668809D01*
X16174048Y-13668809D01*
X16155000Y-13659286D01*
X16145476Y-13640238D01*
X16145476Y-13630714D01*
X16155000Y-13611667D01*
X16174048Y-13602143D01*
X16202619Y-13602143D01*
X16221667Y-13611667D01*
X16297857Y-13811667D02*
X16307381Y-13802143D01*
X16326428Y-13773571D01*
X16335952Y-13754524D01*
X16345476Y-13725952D01*
X16355000Y-13678333D01*
X16355000Y-13640238D01*
X16345476Y-13592619D01*
X16335952Y-13564048D01*
X16326428Y-13545000D01*
X16307381Y-13516428D01*
X16297857Y-13506905D01*
D13*
X11145000Y-13909000D02*
G75*
G03*
X11145000Y-13909000I-25000J0D01*
G01*
D11*
X11440714Y-13799476D02*
X11459762Y-13799476D01*
X11478809Y-13809000D01*
X11488333Y-13818524D01*
X11497857Y-13837571D01*
X11507381Y-13875667D01*
X11507381Y-13923286D01*
X11497857Y-13961381D01*
X11488333Y-13980428D01*
X11478809Y-13989952D01*
X11459762Y-13999476D01*
X11440714Y-13999476D01*
X11421667Y-13989952D01*
X11412143Y-13980428D01*
X11402619Y-13961381D01*
X11393095Y-13923286D01*
X11393095Y-13875667D01*
X11402619Y-13837571D01*
X11412143Y-13818524D01*
X11421667Y-13809000D01*
X11440714Y-13799476D01*
X11593095Y-13980428D02*
X11602619Y-13989952D01*
X11593095Y-13999476D01*
X11583571Y-13989952D01*
X11593095Y-13980428D01*
X11593095Y-13999476D01*
X11783571Y-13799476D02*
X11688333Y-13799476D01*
X11678809Y-13894714D01*
X11688333Y-13885190D01*
X11707381Y-13875667D01*
X11755000Y-13875667D01*
X11774048Y-13885190D01*
X11783571Y-13894714D01*
X11793095Y-13913762D01*
X11793095Y-13961381D01*
X11783571Y-13980428D01*
X11774048Y-13989952D01*
X11755000Y-13999476D01*
X11707381Y-13999476D01*
X11688333Y-13989952D01*
X11678809Y-13980428D01*
X11916905Y-13799476D02*
X11935952Y-13799476D01*
X11955000Y-13809000D01*
X11964524Y-13818524D01*
X11974048Y-13837571D01*
X11983571Y-13875667D01*
X11983571Y-13923286D01*
X11974048Y-13961381D01*
X11964524Y-13980428D01*
X11955000Y-13989952D01*
X11935952Y-13999476D01*
X11916905Y-13999476D01*
X11897857Y-13989952D01*
X11888333Y-13980428D01*
X11878809Y-13961381D01*
X11869286Y-13923286D01*
X11869286Y-13875667D01*
X11878809Y-13837571D01*
X11888333Y-13818524D01*
X11897857Y-13809000D01*
X11916905Y-13799476D01*
X12107381Y-13799476D02*
X12126428Y-13799476D01*
X12145476Y-13809000D01*
X12155000Y-13818524D01*
X12164524Y-13837571D01*
X12174048Y-13875667D01*
X12174048Y-13923286D01*
X12164524Y-13961381D01*
X12155000Y-13980428D01*
X12145476Y-13989952D01*
X12126428Y-13999476D01*
X12107381Y-13999476D01*
X12088333Y-13989952D01*
X12078809Y-13980428D01*
X12069286Y-13961381D01*
X12059762Y-13923286D01*
X12059762Y-13875667D01*
X12069286Y-13837571D01*
X12078809Y-13818524D01*
X12088333Y-13809000D01*
X12107381Y-13799476D01*
X12259762Y-13999476D02*
X12259762Y-13866143D01*
X12259762Y-13885190D02*
X12269286Y-13875667D01*
X12288333Y-13866143D01*
X12316905Y-13866143D01*
X12335952Y-13875667D01*
X12345476Y-13894714D01*
X12345476Y-13999476D01*
X12345476Y-13894714D02*
X12355000Y-13875667D01*
X12374048Y-13866143D01*
X12402619Y-13866143D01*
X12421667Y-13875667D01*
X12431190Y-13894714D01*
X12431190Y-13999476D01*
X12526428Y-13999476D02*
X12526428Y-13866143D01*
X12526428Y-13885190D02*
X12535952Y-13875667D01*
X12555000Y-13866143D01*
X12583571Y-13866143D01*
X12602619Y-13875667D01*
X12612143Y-13894714D01*
X12612143Y-13999476D01*
X12612143Y-13894714D02*
X12621667Y-13875667D01*
X12640714Y-13866143D01*
X12669286Y-13866143D01*
X12688333Y-13875667D01*
X12697857Y-13894714D01*
X12697857Y-13999476D01*
X13088333Y-13789952D02*
X12916905Y-14047095D01*
X13345476Y-13799476D02*
X13364524Y-13799476D01*
X13383571Y-13809000D01*
X13393095Y-13818524D01*
X13402619Y-13837571D01*
X13412143Y-13875667D01*
X13412143Y-13923286D01*
X13402619Y-13961381D01*
X13393095Y-13980428D01*
X13383571Y-13989952D01*
X13364524Y-13999476D01*
X13345476Y-13999476D01*
X13326428Y-13989952D01*
X13316905Y-13980428D01*
X13307381Y-13961381D01*
X13297857Y-13923286D01*
X13297857Y-13875667D01*
X13307381Y-13837571D01*
X13316905Y-13818524D01*
X13326428Y-13809000D01*
X13345476Y-13799476D01*
X13497857Y-13980428D02*
X13507381Y-13989952D01*
X13497857Y-13999476D01*
X13488333Y-13989952D01*
X13497857Y-13980428D01*
X13497857Y-13999476D01*
X13631190Y-13799476D02*
X13650238Y-13799476D01*
X13669286Y-13809000D01*
X13678809Y-13818524D01*
X13688333Y-13837571D01*
X13697857Y-13875667D01*
X13697857Y-13923286D01*
X13688333Y-13961381D01*
X13678809Y-13980428D01*
X13669286Y-13989952D01*
X13650238Y-13999476D01*
X13631190Y-13999476D01*
X13612143Y-13989952D01*
X13602619Y-13980428D01*
X13593095Y-13961381D01*
X13583571Y-13923286D01*
X13583571Y-13875667D01*
X13593095Y-13837571D01*
X13602619Y-13818524D01*
X13612143Y-13809000D01*
X13631190Y-13799476D01*
X13888333Y-13999476D02*
X13774048Y-13999476D01*
X13831190Y-13999476D02*
X13831190Y-13799476D01*
X13812143Y-13828048D01*
X13793095Y-13847095D01*
X13774048Y-13856619D01*
X13983571Y-13999476D02*
X14021667Y-13999476D01*
X14040714Y-13989952D01*
X14050238Y-13980428D01*
X14069286Y-13951857D01*
X14078809Y-13913762D01*
X14078809Y-13837571D01*
X14069286Y-13818524D01*
X14059762Y-13809000D01*
X14040714Y-13799476D01*
X14002619Y-13799476D01*
X13983571Y-13809000D01*
X13974048Y-13818524D01*
X13964524Y-13837571D01*
X13964524Y-13885190D01*
X13974048Y-13904238D01*
X13983571Y-13913762D01*
X14002619Y-13923286D01*
X14040714Y-13923286D01*
X14059762Y-13913762D01*
X14069286Y-13904238D01*
X14078809Y-13885190D01*
X14145476Y-13799476D02*
X14278809Y-13799476D01*
X14193095Y-13999476D01*
X14345476Y-13799476D02*
X14345476Y-13837571D01*
X14421667Y-13799476D02*
X14421667Y-13837571D01*
X14716905Y-14075667D02*
X14707381Y-14066143D01*
X14688333Y-14037571D01*
X14678809Y-14018524D01*
X14669286Y-13989952D01*
X14659762Y-13942333D01*
X14659762Y-13904238D01*
X14669286Y-13856619D01*
X14678809Y-13828048D01*
X14688333Y-13809000D01*
X14707381Y-13780428D01*
X14716905Y-13770905D01*
X14774048Y-13799476D02*
X14897857Y-13799476D01*
X14831190Y-13875667D01*
X14859762Y-13875667D01*
X14878809Y-13885190D01*
X14888333Y-13894714D01*
X14897857Y-13913762D01*
X14897857Y-13961381D01*
X14888333Y-13980428D01*
X14878809Y-13989952D01*
X14859762Y-13999476D01*
X14802619Y-13999476D01*
X14783571Y-13989952D01*
X14774048Y-13980428D01*
X15021667Y-13799476D02*
X15040714Y-13799476D01*
X15059762Y-13809000D01*
X15069286Y-13818524D01*
X15078809Y-13837571D01*
X15088333Y-13875667D01*
X15088333Y-13923286D01*
X15078809Y-13961381D01*
X15069286Y-13980428D01*
X15059762Y-13989952D01*
X15040714Y-13999476D01*
X15021667Y-13999476D01*
X15002619Y-13989952D01*
X14993095Y-13980428D01*
X14983571Y-13961381D01*
X14974048Y-13923286D01*
X14974048Y-13875667D01*
X14983571Y-13837571D01*
X14993095Y-13818524D01*
X15002619Y-13809000D01*
X15021667Y-13799476D01*
X15202619Y-13885190D02*
X15183571Y-13875667D01*
X15174048Y-13866143D01*
X15164524Y-13847095D01*
X15164524Y-13837571D01*
X15174048Y-13818524D01*
X15183571Y-13809000D01*
X15202619Y-13799476D01*
X15240714Y-13799476D01*
X15259762Y-13809000D01*
X15269286Y-13818524D01*
X15278809Y-13837571D01*
X15278809Y-13847095D01*
X15269286Y-13866143D01*
X15259762Y-13875667D01*
X15240714Y-13885190D01*
X15202619Y-13885190D01*
X15183571Y-13894714D01*
X15174048Y-13904238D01*
X15164524Y-13923286D01*
X15164524Y-13961381D01*
X15174048Y-13980428D01*
X15183571Y-13989952D01*
X15202619Y-13999476D01*
X15240714Y-13999476D01*
X15259762Y-13989952D01*
X15269286Y-13980428D01*
X15278809Y-13961381D01*
X15278809Y-13923286D01*
X15269286Y-13904238D01*
X15259762Y-13894714D01*
X15240714Y-13885190D01*
X15516905Y-13999476D02*
X15516905Y-13799476D01*
X15602619Y-13999476D02*
X15602619Y-13894714D01*
X15593095Y-13875667D01*
X15574048Y-13866143D01*
X15545476Y-13866143D01*
X15526428Y-13875667D01*
X15516905Y-13885190D01*
X15726428Y-13999476D02*
X15707381Y-13989952D01*
X15697857Y-13980428D01*
X15688333Y-13961381D01*
X15688333Y-13904238D01*
X15697857Y-13885190D01*
X15707381Y-13875667D01*
X15726428Y-13866143D01*
X15755000Y-13866143D01*
X15774048Y-13875667D01*
X15783571Y-13885190D01*
X15793095Y-13904238D01*
X15793095Y-13961381D01*
X15783571Y-13980428D01*
X15774048Y-13989952D01*
X15755000Y-13999476D01*
X15726428Y-13999476D01*
X15907381Y-13999476D02*
X15888333Y-13989952D01*
X15878809Y-13970905D01*
X15878809Y-13799476D01*
X16059762Y-13989952D02*
X16040714Y-13999476D01*
X16002619Y-13999476D01*
X15983571Y-13989952D01*
X15974048Y-13970905D01*
X15974048Y-13894714D01*
X15983571Y-13875667D01*
X16002619Y-13866143D01*
X16040714Y-13866143D01*
X16059762Y-13875667D01*
X16069286Y-13894714D01*
X16069286Y-13913762D01*
X15974048Y-13932809D01*
X16145476Y-13989952D02*
X16164524Y-13999476D01*
X16202619Y-13999476D01*
X16221667Y-13989952D01*
X16231190Y-13970905D01*
X16231190Y-13961381D01*
X16221667Y-13942333D01*
X16202619Y-13932809D01*
X16174048Y-13932809D01*
X16155000Y-13923286D01*
X16145476Y-13904238D01*
X16145476Y-13894714D01*
X16155000Y-13875667D01*
X16174048Y-13866143D01*
X16202619Y-13866143D01*
X16221667Y-13875667D01*
X16297857Y-14075667D02*
X16307381Y-14066143D01*
X16326428Y-14037571D01*
X16335952Y-14018524D01*
X16345476Y-13989952D01*
X16355000Y-13942333D01*
X16355000Y-13904238D01*
X16345476Y-13856619D01*
X16335952Y-13828048D01*
X16326428Y-13809000D01*
X16307381Y-13780428D01*
X16297857Y-13770905D01*
D10*
X11095000Y-14123000D02*
X11095000Y-14223000D01*
X11045000Y-14173000D02*
X11145000Y-14173000D01*
D11*
X11507381Y-14263476D02*
X11393095Y-14263476D01*
X11450238Y-14263476D02*
X11450238Y-14063476D01*
X11431190Y-14092048D01*
X11412143Y-14111095D01*
X11393095Y-14120619D01*
X11593095Y-14244428D02*
X11602619Y-14253952D01*
X11593095Y-14263476D01*
X11583571Y-14253952D01*
X11593095Y-14244428D01*
X11593095Y-14263476D01*
X11726428Y-14063476D02*
X11745476Y-14063476D01*
X11764524Y-14073000D01*
X11774048Y-14082524D01*
X11783571Y-14101571D01*
X11793095Y-14139667D01*
X11793095Y-14187286D01*
X11783571Y-14225381D01*
X11774048Y-14244428D01*
X11764524Y-14253952D01*
X11745476Y-14263476D01*
X11726428Y-14263476D01*
X11707381Y-14253952D01*
X11697857Y-14244428D01*
X11688333Y-14225381D01*
X11678809Y-14187286D01*
X11678809Y-14139667D01*
X11688333Y-14101571D01*
X11697857Y-14082524D01*
X11707381Y-14073000D01*
X11726428Y-14063476D01*
X11916905Y-14063476D02*
X11935952Y-14063476D01*
X11955000Y-14073000D01*
X11964524Y-14082524D01*
X11974048Y-14101571D01*
X11983571Y-14139667D01*
X11983571Y-14187286D01*
X11974048Y-14225381D01*
X11964524Y-14244428D01*
X11955000Y-14253952D01*
X11935952Y-14263476D01*
X11916905Y-14263476D01*
X11897857Y-14253952D01*
X11888333Y-14244428D01*
X11878809Y-14225381D01*
X11869286Y-14187286D01*
X11869286Y-14139667D01*
X11878809Y-14101571D01*
X11888333Y-14082524D01*
X11897857Y-14073000D01*
X11916905Y-14063476D01*
X12107381Y-14063476D02*
X12126428Y-14063476D01*
X12145476Y-14073000D01*
X12155000Y-14082524D01*
X12164524Y-14101571D01*
X12174048Y-14139667D01*
X12174048Y-14187286D01*
X12164524Y-14225381D01*
X12155000Y-14244428D01*
X12145476Y-14253952D01*
X12126428Y-14263476D01*
X12107381Y-14263476D01*
X12088333Y-14253952D01*
X12078809Y-14244428D01*
X12069286Y-14225381D01*
X12059762Y-14187286D01*
X12059762Y-14139667D01*
X12069286Y-14101571D01*
X12078809Y-14082524D01*
X12088333Y-14073000D01*
X12107381Y-14063476D01*
X12259762Y-14263476D02*
X12259762Y-14130143D01*
X12259762Y-14149190D02*
X12269286Y-14139667D01*
X12288333Y-14130143D01*
X12316905Y-14130143D01*
X12335952Y-14139667D01*
X12345476Y-14158714D01*
X12345476Y-14263476D01*
X12345476Y-14158714D02*
X12355000Y-14139667D01*
X12374048Y-14130143D01*
X12402619Y-14130143D01*
X12421667Y-14139667D01*
X12431190Y-14158714D01*
X12431190Y-14263476D01*
X12526428Y-14263476D02*
X12526428Y-14130143D01*
X12526428Y-14149190D02*
X12535952Y-14139667D01*
X12555000Y-14130143D01*
X12583571Y-14130143D01*
X12602619Y-14139667D01*
X12612143Y-14158714D01*
X12612143Y-14263476D01*
X12612143Y-14158714D02*
X12621667Y-14139667D01*
X12640714Y-14130143D01*
X12669286Y-14130143D01*
X12688333Y-14139667D01*
X12697857Y-14158714D01*
X12697857Y-14263476D01*
X13088333Y-14053952D02*
X12916905Y-14311095D01*
X13345476Y-14063476D02*
X13364524Y-14063476D01*
X13383571Y-14073000D01*
X13393095Y-14082524D01*
X13402619Y-14101571D01*
X13412143Y-14139667D01*
X13412143Y-14187286D01*
X13402619Y-14225381D01*
X13393095Y-14244428D01*
X13383571Y-14253952D01*
X13364524Y-14263476D01*
X13345476Y-14263476D01*
X13326428Y-14253952D01*
X13316905Y-14244428D01*
X13307381Y-14225381D01*
X13297857Y-14187286D01*
X13297857Y-14139667D01*
X13307381Y-14101571D01*
X13316905Y-14082524D01*
X13326428Y-14073000D01*
X13345476Y-14063476D01*
X13497857Y-14244428D02*
X13507381Y-14253952D01*
X13497857Y-14263476D01*
X13488333Y-14253952D01*
X13497857Y-14244428D01*
X13497857Y-14263476D01*
X13631190Y-14063476D02*
X13650238Y-14063476D01*
X13669286Y-14073000D01*
X13678809Y-14082524D01*
X13688333Y-14101571D01*
X13697857Y-14139667D01*
X13697857Y-14187286D01*
X13688333Y-14225381D01*
X13678809Y-14244428D01*
X13669286Y-14253952D01*
X13650238Y-14263476D01*
X13631190Y-14263476D01*
X13612143Y-14253952D01*
X13602619Y-14244428D01*
X13593095Y-14225381D01*
X13583571Y-14187286D01*
X13583571Y-14139667D01*
X13593095Y-14101571D01*
X13602619Y-14082524D01*
X13612143Y-14073000D01*
X13631190Y-14063476D01*
X13764524Y-14063476D02*
X13888333Y-14063476D01*
X13821667Y-14139667D01*
X13850238Y-14139667D01*
X13869286Y-14149190D01*
X13878809Y-14158714D01*
X13888333Y-14177762D01*
X13888333Y-14225381D01*
X13878809Y-14244428D01*
X13869286Y-14253952D01*
X13850238Y-14263476D01*
X13793095Y-14263476D01*
X13774048Y-14253952D01*
X13764524Y-14244428D01*
X13983571Y-14263476D02*
X14021667Y-14263476D01*
X14040714Y-14253952D01*
X14050238Y-14244428D01*
X14069286Y-14215857D01*
X14078809Y-14177762D01*
X14078809Y-14101571D01*
X14069286Y-14082524D01*
X14059762Y-14073000D01*
X14040714Y-14063476D01*
X14002619Y-14063476D01*
X13983571Y-14073000D01*
X13974048Y-14082524D01*
X13964524Y-14101571D01*
X13964524Y-14149190D01*
X13974048Y-14168238D01*
X13983571Y-14177762D01*
X14002619Y-14187286D01*
X14040714Y-14187286D01*
X14059762Y-14177762D01*
X14069286Y-14168238D01*
X14078809Y-14149190D01*
X14250238Y-14130143D02*
X14250238Y-14263476D01*
X14202619Y-14053952D02*
X14155000Y-14196809D01*
X14278809Y-14196809D01*
X14345476Y-14063476D02*
X14345476Y-14101571D01*
X14421667Y-14063476D02*
X14421667Y-14101571D01*
X14716905Y-14339667D02*
X14707381Y-14330143D01*
X14688333Y-14301571D01*
X14678809Y-14282524D01*
X14669286Y-14253952D01*
X14659762Y-14206333D01*
X14659762Y-14168238D01*
X14669286Y-14120619D01*
X14678809Y-14092048D01*
X14688333Y-14073000D01*
X14707381Y-14044428D01*
X14716905Y-14034905D01*
X14897857Y-14263476D02*
X14783571Y-14263476D01*
X14840714Y-14263476D02*
X14840714Y-14063476D01*
X14821667Y-14092048D01*
X14802619Y-14111095D01*
X14783571Y-14120619D01*
X15069286Y-14063476D02*
X15031190Y-14063476D01*
X15012143Y-14073000D01*
X15002619Y-14082524D01*
X14983571Y-14111095D01*
X14974048Y-14149190D01*
X14974048Y-14225381D01*
X14983571Y-14244428D01*
X14993095Y-14253952D01*
X15012143Y-14263476D01*
X15050238Y-14263476D01*
X15069286Y-14253952D01*
X15078809Y-14244428D01*
X15088333Y-14225381D01*
X15088333Y-14177762D01*
X15078809Y-14158714D01*
X15069286Y-14149190D01*
X15050238Y-14139667D01*
X15012143Y-14139667D01*
X14993095Y-14149190D01*
X14983571Y-14158714D01*
X14974048Y-14177762D01*
X15326428Y-14263476D02*
X15326428Y-14063476D01*
X15412143Y-14263476D02*
X15412143Y-14158714D01*
X15402619Y-14139667D01*
X15383571Y-14130143D01*
X15355000Y-14130143D01*
X15335952Y-14139667D01*
X15326428Y-14149190D01*
X15535952Y-14263476D02*
X15516905Y-14253952D01*
X15507381Y-14244428D01*
X15497857Y-14225381D01*
X15497857Y-14168238D01*
X15507381Y-14149190D01*
X15516905Y-14139667D01*
X15535952Y-14130143D01*
X15564524Y-14130143D01*
X15583571Y-14139667D01*
X15593095Y-14149190D01*
X15602619Y-14168238D01*
X15602619Y-14225381D01*
X15593095Y-14244428D01*
X15583571Y-14253952D01*
X15564524Y-14263476D01*
X15535952Y-14263476D01*
X15716905Y-14263476D02*
X15697857Y-14253952D01*
X15688333Y-14234905D01*
X15688333Y-14063476D01*
X15869286Y-14253952D02*
X15850238Y-14263476D01*
X15812143Y-14263476D01*
X15793095Y-14253952D01*
X15783571Y-14234905D01*
X15783571Y-14158714D01*
X15793095Y-14139667D01*
X15812143Y-14130143D01*
X15850238Y-14130143D01*
X15869286Y-14139667D01*
X15878809Y-14158714D01*
X15878809Y-14177762D01*
X15783571Y-14196809D01*
X15955000Y-14253952D02*
X15974048Y-14263476D01*
X16012143Y-14263476D01*
X16031190Y-14253952D01*
X16040714Y-14234905D01*
X16040714Y-14225381D01*
X16031190Y-14206333D01*
X16012143Y-14196809D01*
X15983571Y-14196809D01*
X15964524Y-14187286D01*
X15955000Y-14168238D01*
X15955000Y-14158714D01*
X15964524Y-14139667D01*
X15983571Y-14130143D01*
X16012143Y-14130143D01*
X16031190Y-14139667D01*
X16107381Y-14339667D02*
X16116905Y-14330143D01*
X16135952Y-14301571D01*
X16145476Y-14282524D01*
X16155000Y-14253952D01*
X16164524Y-14206333D01*
X16164524Y-14168238D01*
X16155000Y-14120619D01*
X16145476Y-14092048D01*
X16135952Y-14073000D01*
X16116905Y-14044428D01*
X16107381Y-14034905D01*
D14*
X11121569Y-14493569D02*
X11121569Y-14380431D01*
X11008431Y-14380431D01*
X11008431Y-14493569D01*
X11121569Y-14493569D01*
D11*
X11507381Y-14527476D02*
X11393095Y-14527476D01*
X11450238Y-14527476D02*
X11450238Y-14327476D01*
X11431190Y-14356048D01*
X11412143Y-14375095D01*
X11393095Y-14384619D01*
X11593095Y-14508428D02*
X11602619Y-14517952D01*
X11593095Y-14527476D01*
X11583571Y-14517952D01*
X11593095Y-14508428D01*
X11593095Y-14527476D01*
X11774048Y-14327476D02*
X11735952Y-14327476D01*
X11716905Y-14337000D01*
X11707381Y-14346524D01*
X11688333Y-14375095D01*
X11678809Y-14413190D01*
X11678809Y-14489381D01*
X11688333Y-14508428D01*
X11697857Y-14517952D01*
X11716905Y-14527476D01*
X11755000Y-14527476D01*
X11774048Y-14517952D01*
X11783571Y-14508428D01*
X11793095Y-14489381D01*
X11793095Y-14441762D01*
X11783571Y-14422714D01*
X11774048Y-14413190D01*
X11755000Y-14403667D01*
X11716905Y-14403667D01*
X11697857Y-14413190D01*
X11688333Y-14422714D01*
X11678809Y-14441762D01*
X11916905Y-14327476D02*
X11935952Y-14327476D01*
X11955000Y-14337000D01*
X11964524Y-14346524D01*
X11974048Y-14365571D01*
X11983571Y-14403667D01*
X11983571Y-14451286D01*
X11974048Y-14489381D01*
X11964524Y-14508428D01*
X11955000Y-14517952D01*
X11935952Y-14527476D01*
X11916905Y-14527476D01*
X11897857Y-14517952D01*
X11888333Y-14508428D01*
X11878809Y-14489381D01*
X11869286Y-14451286D01*
X11869286Y-14403667D01*
X11878809Y-14365571D01*
X11888333Y-14346524D01*
X11897857Y-14337000D01*
X11916905Y-14327476D01*
X12107381Y-14327476D02*
X12126428Y-14327476D01*
X12145476Y-14337000D01*
X12155000Y-14346524D01*
X12164524Y-14365571D01*
X12174048Y-14403667D01*
X12174048Y-14451286D01*
X12164524Y-14489381D01*
X12155000Y-14508428D01*
X12145476Y-14517952D01*
X12126428Y-14527476D01*
X12107381Y-14527476D01*
X12088333Y-14517952D01*
X12078809Y-14508428D01*
X12069286Y-14489381D01*
X12059762Y-14451286D01*
X12059762Y-14403667D01*
X12069286Y-14365571D01*
X12078809Y-14346524D01*
X12088333Y-14337000D01*
X12107381Y-14327476D01*
X12259762Y-14527476D02*
X12259762Y-14394143D01*
X12259762Y-14413190D02*
X12269286Y-14403667D01*
X12288333Y-14394143D01*
X12316905Y-14394143D01*
X12335952Y-14403667D01*
X12345476Y-14422714D01*
X12345476Y-14527476D01*
X12345476Y-14422714D02*
X12355000Y-14403667D01*
X12374048Y-14394143D01*
X12402619Y-14394143D01*
X12421667Y-14403667D01*
X12431190Y-14422714D01*
X12431190Y-14527476D01*
X12526428Y-14527476D02*
X12526428Y-14394143D01*
X12526428Y-14413190D02*
X12535952Y-14403667D01*
X12555000Y-14394143D01*
X12583571Y-14394143D01*
X12602619Y-14403667D01*
X12612143Y-14422714D01*
X12612143Y-14527476D01*
X12612143Y-14422714D02*
X12621667Y-14403667D01*
X12640714Y-14394143D01*
X12669286Y-14394143D01*
X12688333Y-14403667D01*
X12697857Y-14422714D01*
X12697857Y-14527476D01*
X13088333Y-14317952D02*
X12916905Y-14575095D01*
X13345476Y-14327476D02*
X13364524Y-14327476D01*
X13383571Y-14337000D01*
X13393095Y-14346524D01*
X13402619Y-14365571D01*
X13412143Y-14403667D01*
X13412143Y-14451286D01*
X13402619Y-14489381D01*
X13393095Y-14508428D01*
X13383571Y-14517952D01*
X13364524Y-14527476D01*
X13345476Y-14527476D01*
X13326428Y-14517952D01*
X13316905Y-14508428D01*
X13307381Y-14489381D01*
X13297857Y-14451286D01*
X13297857Y-14403667D01*
X13307381Y-14365571D01*
X13316905Y-14346524D01*
X13326428Y-14337000D01*
X13345476Y-14327476D01*
X13497857Y-14508428D02*
X13507381Y-14517952D01*
X13497857Y-14527476D01*
X13488333Y-14517952D01*
X13497857Y-14508428D01*
X13497857Y-14527476D01*
X13631190Y-14327476D02*
X13650238Y-14327476D01*
X13669286Y-14337000D01*
X13678809Y-14346524D01*
X13688333Y-14365571D01*
X13697857Y-14403667D01*
X13697857Y-14451286D01*
X13688333Y-14489381D01*
X13678809Y-14508428D01*
X13669286Y-14517952D01*
X13650238Y-14527476D01*
X13631190Y-14527476D01*
X13612143Y-14517952D01*
X13602619Y-14508428D01*
X13593095Y-14489381D01*
X13583571Y-14451286D01*
X13583571Y-14403667D01*
X13593095Y-14365571D01*
X13602619Y-14346524D01*
X13612143Y-14337000D01*
X13631190Y-14327476D01*
X13869286Y-14327476D02*
X13831190Y-14327476D01*
X13812143Y-14337000D01*
X13802619Y-14346524D01*
X13783571Y-14375095D01*
X13774048Y-14413190D01*
X13774048Y-14489381D01*
X13783571Y-14508428D01*
X13793095Y-14517952D01*
X13812143Y-14527476D01*
X13850238Y-14527476D01*
X13869286Y-14517952D01*
X13878809Y-14508428D01*
X13888333Y-14489381D01*
X13888333Y-14441762D01*
X13878809Y-14422714D01*
X13869286Y-14413190D01*
X13850238Y-14403667D01*
X13812143Y-14403667D01*
X13793095Y-14413190D01*
X13783571Y-14422714D01*
X13774048Y-14441762D01*
X13955000Y-14327476D02*
X14078809Y-14327476D01*
X14012143Y-14403667D01*
X14040714Y-14403667D01*
X14059762Y-14413190D01*
X14069286Y-14422714D01*
X14078809Y-14441762D01*
X14078809Y-14489381D01*
X14069286Y-14508428D01*
X14059762Y-14517952D01*
X14040714Y-14527476D01*
X13983571Y-14527476D01*
X13964524Y-14517952D01*
X13955000Y-14508428D01*
X14202619Y-14327476D02*
X14221667Y-14327476D01*
X14240714Y-14337000D01*
X14250238Y-14346524D01*
X14259762Y-14365571D01*
X14269286Y-14403667D01*
X14269286Y-14451286D01*
X14259762Y-14489381D01*
X14250238Y-14508428D01*
X14240714Y-14517952D01*
X14221667Y-14527476D01*
X14202619Y-14527476D01*
X14183571Y-14517952D01*
X14174048Y-14508428D01*
X14164524Y-14489381D01*
X14155000Y-14451286D01*
X14155000Y-14403667D01*
X14164524Y-14365571D01*
X14174048Y-14346524D01*
X14183571Y-14337000D01*
X14202619Y-14327476D01*
X14345476Y-14327476D02*
X14345476Y-14365571D01*
X14421667Y-14327476D02*
X14421667Y-14365571D01*
X14716905Y-14603667D02*
X14707381Y-14594143D01*
X14688333Y-14565571D01*
X14678809Y-14546524D01*
X14669286Y-14517952D01*
X14659762Y-14470333D01*
X14659762Y-14432238D01*
X14669286Y-14384619D01*
X14678809Y-14356048D01*
X14688333Y-14337000D01*
X14707381Y-14308428D01*
X14716905Y-14298905D01*
X14897857Y-14527476D02*
X14783571Y-14527476D01*
X14840714Y-14527476D02*
X14840714Y-14327476D01*
X14821667Y-14356048D01*
X14802619Y-14375095D01*
X14783571Y-14384619D01*
X15135952Y-14527476D02*
X15135952Y-14327476D01*
X15221667Y-14527476D02*
X15221667Y-14422714D01*
X15212143Y-14403667D01*
X15193095Y-14394143D01*
X15164524Y-14394143D01*
X15145476Y-14403667D01*
X15135952Y-14413190D01*
X15345476Y-14527476D02*
X15326428Y-14517952D01*
X15316905Y-14508428D01*
X15307381Y-14489381D01*
X15307381Y-14432238D01*
X15316905Y-14413190D01*
X15326428Y-14403667D01*
X15345476Y-14394143D01*
X15374048Y-14394143D01*
X15393095Y-14403667D01*
X15402619Y-14413190D01*
X15412143Y-14432238D01*
X15412143Y-14489381D01*
X15402619Y-14508428D01*
X15393095Y-14517952D01*
X15374048Y-14527476D01*
X15345476Y-14527476D01*
X15526428Y-14527476D02*
X15507381Y-14517952D01*
X15497857Y-14498905D01*
X15497857Y-14327476D01*
X15678809Y-14517952D02*
X15659762Y-14527476D01*
X15621667Y-14527476D01*
X15602619Y-14517952D01*
X15593095Y-14498905D01*
X15593095Y-14422714D01*
X15602619Y-14403667D01*
X15621667Y-14394143D01*
X15659762Y-14394143D01*
X15678809Y-14403667D01*
X15688333Y-14422714D01*
X15688333Y-14441762D01*
X15593095Y-14460809D01*
X15755000Y-14603667D02*
X15764524Y-14594143D01*
X15783571Y-14565571D01*
X15793095Y-14546524D01*
X15802619Y-14517952D01*
X15812143Y-14470333D01*
X15812143Y-14432238D01*
X15802619Y-14384619D01*
X15793095Y-14356048D01*
X15783571Y-14337000D01*
X15764524Y-14308428D01*
X15755000Y-14298905D01*
X11045000Y-14817000D02*
X11145000Y-14717000D01*
X11045000Y-14617000D01*
X10945000Y-14717000D01*
X11045000Y-14817000D01*
X11393095Y-14626524D02*
X11402619Y-14617000D01*
X11421667Y-14607476D01*
X11469286Y-14607476D01*
X11488333Y-14617000D01*
X11497857Y-14626524D01*
X11507381Y-14645571D01*
X11507381Y-14664619D01*
X11497857Y-14693190D01*
X11383571Y-14807476D01*
X11507381Y-14807476D01*
X11593095Y-14788428D02*
X11602619Y-14797952D01*
X11593095Y-14807476D01*
X11583571Y-14797952D01*
X11593095Y-14788428D01*
X11593095Y-14807476D01*
X11669286Y-14607476D02*
X11802619Y-14607476D01*
X11716905Y-14807476D01*
X11916905Y-14607476D02*
X11935952Y-14607476D01*
X11955000Y-14617000D01*
X11964524Y-14626524D01*
X11974048Y-14645571D01*
X11983571Y-14683667D01*
X11983571Y-14731286D01*
X11974048Y-14769381D01*
X11964524Y-14788428D01*
X11955000Y-14797952D01*
X11935952Y-14807476D01*
X11916905Y-14807476D01*
X11897857Y-14797952D01*
X11888333Y-14788428D01*
X11878809Y-14769381D01*
X11869286Y-14731286D01*
X11869286Y-14683667D01*
X11878809Y-14645571D01*
X11888333Y-14626524D01*
X11897857Y-14617000D01*
X11916905Y-14607476D01*
X12107381Y-14607476D02*
X12126428Y-14607476D01*
X12145476Y-14617000D01*
X12155000Y-14626524D01*
X12164524Y-14645571D01*
X12174048Y-14683667D01*
X12174048Y-14731286D01*
X12164524Y-14769381D01*
X12155000Y-14788428D01*
X12145476Y-14797952D01*
X12126428Y-14807476D01*
X12107381Y-14807476D01*
X12088333Y-14797952D01*
X12078809Y-14788428D01*
X12069286Y-14769381D01*
X12059762Y-14731286D01*
X12059762Y-14683667D01*
X12069286Y-14645571D01*
X12078809Y-14626524D01*
X12088333Y-14617000D01*
X12107381Y-14607476D01*
X12259762Y-14807476D02*
X12259762Y-14674143D01*
X12259762Y-14693190D02*
X12269286Y-14683667D01*
X12288333Y-14674143D01*
X12316905Y-14674143D01*
X12335952Y-14683667D01*
X12345476Y-14702714D01*
X12345476Y-14807476D01*
X12345476Y-14702714D02*
X12355000Y-14683667D01*
X12374048Y-14674143D01*
X12402619Y-14674143D01*
X12421667Y-14683667D01*
X12431190Y-14702714D01*
X12431190Y-14807476D01*
X12526428Y-14807476D02*
X12526428Y-14674143D01*
X12526428Y-14693190D02*
X12535952Y-14683667D01*
X12555000Y-14674143D01*
X12583571Y-14674143D01*
X12602619Y-14683667D01*
X12612143Y-14702714D01*
X12612143Y-14807476D01*
X12612143Y-14702714D02*
X12621667Y-14683667D01*
X12640714Y-14674143D01*
X12669286Y-14674143D01*
X12688333Y-14683667D01*
X12697857Y-14702714D01*
X12697857Y-14807476D01*
X13088333Y-14597952D02*
X12916905Y-14855095D01*
X13345476Y-14607476D02*
X13364524Y-14607476D01*
X13383571Y-14617000D01*
X13393095Y-14626524D01*
X13402619Y-14645571D01*
X13412143Y-14683667D01*
X13412143Y-14731286D01*
X13402619Y-14769381D01*
X13393095Y-14788428D01*
X13383571Y-14797952D01*
X13364524Y-14807476D01*
X13345476Y-14807476D01*
X13326428Y-14797952D01*
X13316905Y-14788428D01*
X13307381Y-14769381D01*
X13297857Y-14731286D01*
X13297857Y-14683667D01*
X13307381Y-14645571D01*
X13316905Y-14626524D01*
X13326428Y-14617000D01*
X13345476Y-14607476D01*
X13497857Y-14788428D02*
X13507381Y-14797952D01*
X13497857Y-14807476D01*
X13488333Y-14797952D01*
X13497857Y-14788428D01*
X13497857Y-14807476D01*
X13697857Y-14807476D02*
X13583571Y-14807476D01*
X13640714Y-14807476D02*
X13640714Y-14607476D01*
X13621667Y-14636048D01*
X13602619Y-14655095D01*
X13583571Y-14664619D01*
X13821667Y-14607476D02*
X13840714Y-14607476D01*
X13859762Y-14617000D01*
X13869286Y-14626524D01*
X13878809Y-14645571D01*
X13888333Y-14683667D01*
X13888333Y-14731286D01*
X13878809Y-14769381D01*
X13869286Y-14788428D01*
X13859762Y-14797952D01*
X13840714Y-14807476D01*
X13821667Y-14807476D01*
X13802619Y-14797952D01*
X13793095Y-14788428D01*
X13783571Y-14769381D01*
X13774048Y-14731286D01*
X13774048Y-14683667D01*
X13783571Y-14645571D01*
X13793095Y-14626524D01*
X13802619Y-14617000D01*
X13821667Y-14607476D01*
X14059762Y-14607476D02*
X14021667Y-14607476D01*
X14002619Y-14617000D01*
X13993095Y-14626524D01*
X13974048Y-14655095D01*
X13964524Y-14693190D01*
X13964524Y-14769381D01*
X13974048Y-14788428D01*
X13983571Y-14797952D01*
X14002619Y-14807476D01*
X14040714Y-14807476D01*
X14059762Y-14797952D01*
X14069286Y-14788428D01*
X14078809Y-14769381D01*
X14078809Y-14721762D01*
X14069286Y-14702714D01*
X14059762Y-14693190D01*
X14040714Y-14683667D01*
X14002619Y-14683667D01*
X13983571Y-14693190D01*
X13974048Y-14702714D01*
X13964524Y-14721762D01*
X14145476Y-14607476D02*
X14269286Y-14607476D01*
X14202619Y-14683667D01*
X14231190Y-14683667D01*
X14250238Y-14693190D01*
X14259762Y-14702714D01*
X14269286Y-14721762D01*
X14269286Y-14769381D01*
X14259762Y-14788428D01*
X14250238Y-14797952D01*
X14231190Y-14807476D01*
X14174048Y-14807476D01*
X14155000Y-14797952D01*
X14145476Y-14788428D01*
X14345476Y-14607476D02*
X14345476Y-14645571D01*
X14421667Y-14607476D02*
X14421667Y-14645571D01*
X14716905Y-14883667D02*
X14707381Y-14874143D01*
X14688333Y-14845571D01*
X14678809Y-14826524D01*
X14669286Y-14797952D01*
X14659762Y-14750333D01*
X14659762Y-14712238D01*
X14669286Y-14664619D01*
X14678809Y-14636048D01*
X14688333Y-14617000D01*
X14707381Y-14588428D01*
X14716905Y-14578905D01*
X14774048Y-14607476D02*
X14897857Y-14607476D01*
X14831190Y-14683667D01*
X14859762Y-14683667D01*
X14878809Y-14693190D01*
X14888333Y-14702714D01*
X14897857Y-14721762D01*
X14897857Y-14769381D01*
X14888333Y-14788428D01*
X14878809Y-14797952D01*
X14859762Y-14807476D01*
X14802619Y-14807476D01*
X14783571Y-14797952D01*
X14774048Y-14788428D01*
X15078809Y-14607476D02*
X14983571Y-14607476D01*
X14974048Y-14702714D01*
X14983571Y-14693190D01*
X15002619Y-14683667D01*
X15050238Y-14683667D01*
X15069286Y-14693190D01*
X15078809Y-14702714D01*
X15088333Y-14721762D01*
X15088333Y-14769381D01*
X15078809Y-14788428D01*
X15069286Y-14797952D01*
X15050238Y-14807476D01*
X15002619Y-14807476D01*
X14983571Y-14797952D01*
X14974048Y-14788428D01*
X15326428Y-14807476D02*
X15326428Y-14607476D01*
X15412143Y-14807476D02*
X15412143Y-14702714D01*
X15402619Y-14683667D01*
X15383571Y-14674143D01*
X15355000Y-14674143D01*
X15335952Y-14683667D01*
X15326428Y-14693190D01*
X15535952Y-14807476D02*
X15516905Y-14797952D01*
X15507381Y-14788428D01*
X15497857Y-14769381D01*
X15497857Y-14712238D01*
X15507381Y-14693190D01*
X15516905Y-14683667D01*
X15535952Y-14674143D01*
X15564524Y-14674143D01*
X15583571Y-14683667D01*
X15593095Y-14693190D01*
X15602619Y-14712238D01*
X15602619Y-14769381D01*
X15593095Y-14788428D01*
X15583571Y-14797952D01*
X15564524Y-14807476D01*
X15535952Y-14807476D01*
X15716905Y-14807476D02*
X15697857Y-14797952D01*
X15688333Y-14778905D01*
X15688333Y-14607476D01*
X15869286Y-14797952D02*
X15850238Y-14807476D01*
X15812143Y-14807476D01*
X15793095Y-14797952D01*
X15783571Y-14778905D01*
X15783571Y-14702714D01*
X15793095Y-14683667D01*
X15812143Y-14674143D01*
X15850238Y-14674143D01*
X15869286Y-14683667D01*
X15878809Y-14702714D01*
X15878809Y-14721762D01*
X15783571Y-14740809D01*
X15955000Y-14797952D02*
X15974048Y-14807476D01*
X16012143Y-14807476D01*
X16031190Y-14797952D01*
X16040714Y-14778905D01*
X16040714Y-14769381D01*
X16031190Y-14750333D01*
X16012143Y-14740809D01*
X15983571Y-14740809D01*
X15964524Y-14731286D01*
X15955000Y-14712238D01*
X15955000Y-14702714D01*
X15964524Y-14683667D01*
X15983571Y-14674143D01*
X16012143Y-14674143D01*
X16031190Y-14683667D01*
X16107381Y-14883667D02*
X16116905Y-14874143D01*
X16135952Y-14845571D01*
X16145476Y-14826524D01*
X16155000Y-14797952D01*
X16164524Y-14750333D01*
X16164524Y-14712238D01*
X16155000Y-14664619D01*
X16145476Y-14636048D01*
X16135952Y-14617000D01*
X16116905Y-14588428D01*
X16107381Y-14578905D01*
X10945000Y-14937000D02*
X11145000Y-15137000D01*
X11145000Y-14937000D02*
X10945000Y-15137000D01*
X11145000Y-15037000D02*
G75*
G03*
X11145000Y-15037000I-100000J0D01*
G01*
X11383571Y-14927476D02*
X11507381Y-14927476D01*
X11440714Y-15003667D01*
X11469286Y-15003667D01*
X11488333Y-15013190D01*
X11497857Y-15022714D01*
X11507381Y-15041762D01*
X11507381Y-15089381D01*
X11497857Y-15108428D01*
X11488333Y-15117952D01*
X11469286Y-15127476D01*
X11412143Y-15127476D01*
X11393095Y-15117952D01*
X11383571Y-15108428D01*
X11593095Y-15108428D02*
X11602619Y-15117952D01*
X11593095Y-15127476D01*
X11583571Y-15117952D01*
X11593095Y-15108428D01*
X11593095Y-15127476D01*
X11678809Y-14946524D02*
X11688333Y-14937000D01*
X11707381Y-14927476D01*
X11755000Y-14927476D01*
X11774048Y-14937000D01*
X11783571Y-14946524D01*
X11793095Y-14965571D01*
X11793095Y-14984619D01*
X11783571Y-15013190D01*
X11669286Y-15127476D01*
X11793095Y-15127476D01*
X11916905Y-14927476D02*
X11935952Y-14927476D01*
X11955000Y-14937000D01*
X11964524Y-14946524D01*
X11974048Y-14965571D01*
X11983571Y-15003667D01*
X11983571Y-15051286D01*
X11974048Y-15089381D01*
X11964524Y-15108428D01*
X11955000Y-15117952D01*
X11935952Y-15127476D01*
X11916905Y-15127476D01*
X11897857Y-15117952D01*
X11888333Y-15108428D01*
X11878809Y-15089381D01*
X11869286Y-15051286D01*
X11869286Y-15003667D01*
X11878809Y-14965571D01*
X11888333Y-14946524D01*
X11897857Y-14937000D01*
X11916905Y-14927476D01*
X12107381Y-14927476D02*
X12126428Y-14927476D01*
X12145476Y-14937000D01*
X12155000Y-14946524D01*
X12164524Y-14965571D01*
X12174048Y-15003667D01*
X12174048Y-15051286D01*
X12164524Y-15089381D01*
X12155000Y-15108428D01*
X12145476Y-15117952D01*
X12126428Y-15127476D01*
X12107381Y-15127476D01*
X12088333Y-15117952D01*
X12078809Y-15108428D01*
X12069286Y-15089381D01*
X12059762Y-15051286D01*
X12059762Y-15003667D01*
X12069286Y-14965571D01*
X12078809Y-14946524D01*
X12088333Y-14937000D01*
X12107381Y-14927476D01*
X12259762Y-15127476D02*
X12259762Y-14994143D01*
X12259762Y-15013190D02*
X12269286Y-15003667D01*
X12288333Y-14994143D01*
X12316905Y-14994143D01*
X12335952Y-15003667D01*
X12345476Y-15022714D01*
X12345476Y-15127476D01*
X12345476Y-15022714D02*
X12355000Y-15003667D01*
X12374048Y-14994143D01*
X12402619Y-14994143D01*
X12421667Y-15003667D01*
X12431190Y-15022714D01*
X12431190Y-15127476D01*
X12526428Y-15127476D02*
X12526428Y-14994143D01*
X12526428Y-15013190D02*
X12535952Y-15003667D01*
X12555000Y-14994143D01*
X12583571Y-14994143D01*
X12602619Y-15003667D01*
X12612143Y-15022714D01*
X12612143Y-15127476D01*
X12612143Y-15022714D02*
X12621667Y-15003667D01*
X12640714Y-14994143D01*
X12669286Y-14994143D01*
X12688333Y-15003667D01*
X12697857Y-15022714D01*
X12697857Y-15127476D01*
X13088333Y-14917952D02*
X12916905Y-15175095D01*
X13345476Y-14927476D02*
X13364524Y-14927476D01*
X13383571Y-14937000D01*
X13393095Y-14946524D01*
X13402619Y-14965571D01*
X13412143Y-15003667D01*
X13412143Y-15051286D01*
X13402619Y-15089381D01*
X13393095Y-15108428D01*
X13383571Y-15117952D01*
X13364524Y-15127476D01*
X13345476Y-15127476D01*
X13326428Y-15117952D01*
X13316905Y-15108428D01*
X13307381Y-15089381D01*
X13297857Y-15051286D01*
X13297857Y-15003667D01*
X13307381Y-14965571D01*
X13316905Y-14946524D01*
X13326428Y-14937000D01*
X13345476Y-14927476D01*
X13497857Y-15108428D02*
X13507381Y-15117952D01*
X13497857Y-15127476D01*
X13488333Y-15117952D01*
X13497857Y-15108428D01*
X13497857Y-15127476D01*
X13697857Y-15127476D02*
X13583571Y-15127476D01*
X13640714Y-15127476D02*
X13640714Y-14927476D01*
X13621667Y-14956048D01*
X13602619Y-14975095D01*
X13583571Y-14984619D01*
X13774048Y-14946524D02*
X13783571Y-14937000D01*
X13802619Y-14927476D01*
X13850238Y-14927476D01*
X13869286Y-14937000D01*
X13878809Y-14946524D01*
X13888333Y-14965571D01*
X13888333Y-14984619D01*
X13878809Y-15013190D01*
X13764524Y-15127476D01*
X13888333Y-15127476D01*
X14059762Y-14927476D02*
X14021667Y-14927476D01*
X14002619Y-14937000D01*
X13993095Y-14946524D01*
X13974048Y-14975095D01*
X13964524Y-15013190D01*
X13964524Y-15089381D01*
X13974048Y-15108428D01*
X13983571Y-15117952D01*
X14002619Y-15127476D01*
X14040714Y-15127476D01*
X14059762Y-15117952D01*
X14069286Y-15108428D01*
X14078809Y-15089381D01*
X14078809Y-15041762D01*
X14069286Y-15022714D01*
X14059762Y-15013190D01*
X14040714Y-15003667D01*
X14002619Y-15003667D01*
X13983571Y-15013190D01*
X13974048Y-15022714D01*
X13964524Y-15041762D01*
X14202619Y-14927476D02*
X14221667Y-14927476D01*
X14240714Y-14937000D01*
X14250238Y-14946524D01*
X14259762Y-14965571D01*
X14269286Y-15003667D01*
X14269286Y-15051286D01*
X14259762Y-15089381D01*
X14250238Y-15108428D01*
X14240714Y-15117952D01*
X14221667Y-15127476D01*
X14202619Y-15127476D01*
X14183571Y-15117952D01*
X14174048Y-15108428D01*
X14164524Y-15089381D01*
X14155000Y-15051286D01*
X14155000Y-15003667D01*
X14164524Y-14965571D01*
X14174048Y-14946524D01*
X14183571Y-14937000D01*
X14202619Y-14927476D01*
X14345476Y-14927476D02*
X14345476Y-14965571D01*
X14421667Y-14927476D02*
X14421667Y-14965571D01*
X14716905Y-15203667D02*
X14707381Y-15194143D01*
X14688333Y-15165571D01*
X14678809Y-15146524D01*
X14669286Y-15117952D01*
X14659762Y-15070333D01*
X14659762Y-15032238D01*
X14669286Y-14984619D01*
X14678809Y-14956048D01*
X14688333Y-14937000D01*
X14707381Y-14908428D01*
X14716905Y-14898905D01*
X14878809Y-14927476D02*
X14840714Y-14927476D01*
X14821667Y-14937000D01*
X14812143Y-14946524D01*
X14793095Y-14975095D01*
X14783571Y-15013190D01*
X14783571Y-15089381D01*
X14793095Y-15108428D01*
X14802619Y-15117952D01*
X14821667Y-15127476D01*
X14859762Y-15127476D01*
X14878809Y-15117952D01*
X14888333Y-15108428D01*
X14897857Y-15089381D01*
X14897857Y-15041762D01*
X14888333Y-15022714D01*
X14878809Y-15013190D01*
X14859762Y-15003667D01*
X14821667Y-15003667D01*
X14802619Y-15013190D01*
X14793095Y-15022714D01*
X14783571Y-15041762D01*
X15135952Y-15127476D02*
X15135952Y-14927476D01*
X15221667Y-15127476D02*
X15221667Y-15022714D01*
X15212143Y-15003667D01*
X15193095Y-14994143D01*
X15164524Y-14994143D01*
X15145476Y-15003667D01*
X15135952Y-15013190D01*
X15345476Y-15127476D02*
X15326428Y-15117952D01*
X15316905Y-15108428D01*
X15307381Y-15089381D01*
X15307381Y-15032238D01*
X15316905Y-15013190D01*
X15326428Y-15003667D01*
X15345476Y-14994143D01*
X15374048Y-14994143D01*
X15393095Y-15003667D01*
X15402619Y-15013190D01*
X15412143Y-15032238D01*
X15412143Y-15089381D01*
X15402619Y-15108428D01*
X15393095Y-15117952D01*
X15374048Y-15127476D01*
X15345476Y-15127476D01*
X15526428Y-15127476D02*
X15507381Y-15117952D01*
X15497857Y-15098905D01*
X15497857Y-14927476D01*
X15678809Y-15117952D02*
X15659762Y-15127476D01*
X15621667Y-15127476D01*
X15602619Y-15117952D01*
X15593095Y-15098905D01*
X15593095Y-15022714D01*
X15602619Y-15003667D01*
X15621667Y-14994143D01*
X15659762Y-14994143D01*
X15678809Y-15003667D01*
X15688333Y-15022714D01*
X15688333Y-15041762D01*
X15593095Y-15060809D01*
X15764524Y-15117952D02*
X15783571Y-15127476D01*
X15821667Y-15127476D01*
X15840714Y-15117952D01*
X15850238Y-15098905D01*
X15850238Y-15089381D01*
X15840714Y-15070333D01*
X15821667Y-15060809D01*
X15793095Y-15060809D01*
X15774048Y-15051286D01*
X15764524Y-15032238D01*
X15764524Y-15022714D01*
X15774048Y-15003667D01*
X15793095Y-14994143D01*
X15821667Y-14994143D01*
X15840714Y-15003667D01*
X15916905Y-15203667D02*
X15926428Y-15194143D01*
X15945476Y-15165571D01*
X15955000Y-15146524D01*
X15964524Y-15117952D01*
X15974048Y-15070333D01*
X15974048Y-15032238D01*
X15964524Y-14984619D01*
X15955000Y-14956048D01*
X15945476Y-14937000D01*
X15926428Y-14908428D01*
X15916905Y-14898905D01*
M02*
