G04 #@! TF.GenerationSoftware,KiCad,Pcbnew,6.0.10+dfsg-1~bpo11+1*
G04 #@! TF.ProjectId,pwr,7077722e-6b69-4636-9164-5f7063625858,rev?*
G04 #@! TF.SameCoordinates,Original*
G04 #@! TF.FileFunction,Paste,Top*
G04 #@! TF.FilePolarity,Positive*
%FSLAX46Y46*%
G04 Gerber Fmt 4.6, Leading zero omitted, Abs format (unit mm)*
%MOMM*%
%LPD*%
G01*
G04 APERTURE LIST*
G04 #@! TA.AperFunction,Profile*
%ADD10C,0.100000*%
G04 #@! TD*
%ADD11R,1.100000X1.100000*%
%ADD12R,2.000000X2.150000*%
%ADD13R,1.850000X2.150000*%
%ADD14R,0.650000X0.500000*%
%ADD15R,0.550000X0.500000*%
%ADD16R,1.560000X0.650000*%
%ADD17R,0.340000X0.700000*%
G04 APERTURE END LIST*
D10*
X184000000Y-130000000D02*
G75*
G03*
X189000000Y-125000000I0J5000000D01*
G01*
X111500000Y-125000000D02*
G75*
G03*
X116500000Y-130000000I5000000J0D01*
G01*
X116500000Y-55000000D02*
X184000000Y-55000000D01*
X111500000Y-125000000D02*
X111500000Y-60000000D01*
X189000000Y-60000000D02*
G75*
G03*
X184000000Y-55000000I-5000000J0D01*
G01*
X184000000Y-130000000D02*
X116500000Y-130000000D01*
X116500000Y-55000000D02*
G75*
G03*
X111500000Y-60000000I0J-5000000D01*
G01*
X189000000Y-60000000D02*
X189000000Y-125000000D01*
G36*
G01*
X161050000Y-84900000D02*
X161950000Y-84900000D01*
G75*
G02*
X162200000Y-85150000I0J-250000D01*
G01*
X162200000Y-85850000D01*
G75*
G02*
X161950000Y-86100000I-250000J0D01*
G01*
X161050000Y-86100000D01*
G75*
G02*
X160800000Y-85850000I0J250000D01*
G01*
X160800000Y-85150000D01*
G75*
G02*
X161050000Y-84900000I250000J0D01*
G01*
G37*
G36*
G01*
X161050000Y-86900000D02*
X161950000Y-86900000D01*
G75*
G02*
X162200000Y-87150000I0J-250000D01*
G01*
X162200000Y-87850000D01*
G75*
G02*
X161950000Y-88100000I-250000J0D01*
G01*
X161050000Y-88100000D01*
G75*
G02*
X160800000Y-87850000I0J250000D01*
G01*
X160800000Y-87150000D01*
G75*
G02*
X161050000Y-86900000I250000J0D01*
G01*
G37*
G36*
G01*
X180950000Y-68100000D02*
X180050000Y-68100000D01*
G75*
G02*
X179800000Y-67850000I0J250000D01*
G01*
X179800000Y-67150000D01*
G75*
G02*
X180050000Y-66900000I250000J0D01*
G01*
X180950000Y-66900000D01*
G75*
G02*
X181200000Y-67150000I0J-250000D01*
G01*
X181200000Y-67850000D01*
G75*
G02*
X180950000Y-68100000I-250000J0D01*
G01*
G37*
G36*
G01*
X180950000Y-66100000D02*
X180050000Y-66100000D01*
G75*
G02*
X179800000Y-65850000I0J250000D01*
G01*
X179800000Y-65150000D01*
G75*
G02*
X180050000Y-64900000I250000J0D01*
G01*
X180950000Y-64900000D01*
G75*
G02*
X181200000Y-65150000I0J-250000D01*
G01*
X181200000Y-65850000D01*
G75*
G02*
X180950000Y-66100000I-250000J0D01*
G01*
G37*
G36*
G01*
X173050000Y-76647500D02*
X173950000Y-76647500D01*
G75*
G02*
X174200000Y-76897500I0J-250000D01*
G01*
X174200000Y-77597500D01*
G75*
G02*
X173950000Y-77847500I-250000J0D01*
G01*
X173050000Y-77847500D01*
G75*
G02*
X172800000Y-77597500I0J250000D01*
G01*
X172800000Y-76897500D01*
G75*
G02*
X173050000Y-76647500I250000J0D01*
G01*
G37*
G36*
G01*
X173050000Y-78647500D02*
X173950000Y-78647500D01*
G75*
G02*
X174200000Y-78897500I0J-250000D01*
G01*
X174200000Y-79597500D01*
G75*
G02*
X173950000Y-79847500I-250000J0D01*
G01*
X173050000Y-79847500D01*
G75*
G02*
X172800000Y-79597500I0J250000D01*
G01*
X172800000Y-78897500D01*
G75*
G02*
X173050000Y-78647500I250000J0D01*
G01*
G37*
G36*
G01*
X118550000Y-84900000D02*
X119450000Y-84900000D01*
G75*
G02*
X119700000Y-85150000I0J-250000D01*
G01*
X119700000Y-85850000D01*
G75*
G02*
X119450000Y-86100000I-250000J0D01*
G01*
X118550000Y-86100000D01*
G75*
G02*
X118300000Y-85850000I0J250000D01*
G01*
X118300000Y-85150000D01*
G75*
G02*
X118550000Y-84900000I250000J0D01*
G01*
G37*
G36*
G01*
X118550000Y-86900000D02*
X119450000Y-86900000D01*
G75*
G02*
X119700000Y-87150000I0J-250000D01*
G01*
X119700000Y-87850000D01*
G75*
G02*
X119450000Y-88100000I-250000J0D01*
G01*
X118550000Y-88100000D01*
G75*
G02*
X118300000Y-87850000I0J250000D01*
G01*
X118300000Y-87150000D01*
G75*
G02*
X118550000Y-86900000I250000J0D01*
G01*
G37*
G36*
G01*
X139550000Y-84900000D02*
X140450000Y-84900000D01*
G75*
G02*
X140700000Y-85150000I0J-250000D01*
G01*
X140700000Y-85850000D01*
G75*
G02*
X140450000Y-86100000I-250000J0D01*
G01*
X139550000Y-86100000D01*
G75*
G02*
X139300000Y-85850000I0J250000D01*
G01*
X139300000Y-85150000D01*
G75*
G02*
X139550000Y-84900000I250000J0D01*
G01*
G37*
G36*
G01*
X139550000Y-86900000D02*
X140450000Y-86900000D01*
G75*
G02*
X140700000Y-87150000I0J-250000D01*
G01*
X140700000Y-87850000D01*
G75*
G02*
X140450000Y-88100000I-250000J0D01*
G01*
X139550000Y-88100000D01*
G75*
G02*
X139300000Y-87850000I0J250000D01*
G01*
X139300000Y-87150000D01*
G75*
G02*
X139550000Y-86900000I250000J0D01*
G01*
G37*
G36*
G01*
X133550000Y-84900000D02*
X134450000Y-84900000D01*
G75*
G02*
X134700000Y-85150000I0J-250000D01*
G01*
X134700000Y-85850000D01*
G75*
G02*
X134450000Y-86100000I-250000J0D01*
G01*
X133550000Y-86100000D01*
G75*
G02*
X133300000Y-85850000I0J250000D01*
G01*
X133300000Y-85150000D01*
G75*
G02*
X133550000Y-84900000I250000J0D01*
G01*
G37*
G36*
G01*
X133550000Y-86900000D02*
X134450000Y-86900000D01*
G75*
G02*
X134700000Y-87150000I0J-250000D01*
G01*
X134700000Y-87850000D01*
G75*
G02*
X134450000Y-88100000I-250000J0D01*
G01*
X133550000Y-88100000D01*
G75*
G02*
X133300000Y-87850000I0J250000D01*
G01*
X133300000Y-87150000D01*
G75*
G02*
X133550000Y-86900000I250000J0D01*
G01*
G37*
G36*
G01*
X182550000Y-88900000D02*
X183450000Y-88900000D01*
G75*
G02*
X183700000Y-89150000I0J-250000D01*
G01*
X183700000Y-89850000D01*
G75*
G02*
X183450000Y-90100000I-250000J0D01*
G01*
X182550000Y-90100000D01*
G75*
G02*
X182300000Y-89850000I0J250000D01*
G01*
X182300000Y-89150000D01*
G75*
G02*
X182550000Y-88900000I250000J0D01*
G01*
G37*
G36*
G01*
X182550000Y-90900000D02*
X183450000Y-90900000D01*
G75*
G02*
X183700000Y-91150000I0J-250000D01*
G01*
X183700000Y-91850000D01*
G75*
G02*
X183450000Y-92100000I-250000J0D01*
G01*
X182550000Y-92100000D01*
G75*
G02*
X182300000Y-91850000I0J250000D01*
G01*
X182300000Y-91150000D01*
G75*
G02*
X182550000Y-90900000I250000J0D01*
G01*
G37*
G36*
G01*
X162525000Y-92875000D02*
X163475000Y-92875000D01*
G75*
G02*
X163725000Y-93125000I0J-250000D01*
G01*
X163725000Y-93800000D01*
G75*
G02*
X163475000Y-94050000I-250000J0D01*
G01*
X162525000Y-94050000D01*
G75*
G02*
X162275000Y-93800000I0J250000D01*
G01*
X162275000Y-93125000D01*
G75*
G02*
X162525000Y-92875000I250000J0D01*
G01*
G37*
G36*
G01*
X162525000Y-94950000D02*
X163475000Y-94950000D01*
G75*
G02*
X163725000Y-95200000I0J-250000D01*
G01*
X163725000Y-95875000D01*
G75*
G02*
X163475000Y-96125000I-250000J0D01*
G01*
X162525000Y-96125000D01*
G75*
G02*
X162275000Y-95875000I0J250000D01*
G01*
X162275000Y-95200000D01*
G75*
G02*
X162525000Y-94950000I250000J0D01*
G01*
G37*
G36*
G01*
X171025000Y-76622500D02*
X171975000Y-76622500D01*
G75*
G02*
X172225000Y-76872500I0J-250000D01*
G01*
X172225000Y-77547500D01*
G75*
G02*
X171975000Y-77797500I-250000J0D01*
G01*
X171025000Y-77797500D01*
G75*
G02*
X170775000Y-77547500I0J250000D01*
G01*
X170775000Y-76872500D01*
G75*
G02*
X171025000Y-76622500I250000J0D01*
G01*
G37*
G36*
G01*
X171025000Y-78697500D02*
X171975000Y-78697500D01*
G75*
G02*
X172225000Y-78947500I0J-250000D01*
G01*
X172225000Y-79622500D01*
G75*
G02*
X171975000Y-79872500I-250000J0D01*
G01*
X171025000Y-79872500D01*
G75*
G02*
X170775000Y-79622500I0J250000D01*
G01*
X170775000Y-78947500D01*
G75*
G02*
X171025000Y-78697500I250000J0D01*
G01*
G37*
G36*
G01*
X156550000Y-76647500D02*
X157450000Y-76647500D01*
G75*
G02*
X157700000Y-76897500I0J-250000D01*
G01*
X157700000Y-77597500D01*
G75*
G02*
X157450000Y-77847500I-250000J0D01*
G01*
X156550000Y-77847500D01*
G75*
G02*
X156300000Y-77597500I0J250000D01*
G01*
X156300000Y-76897500D01*
G75*
G02*
X156550000Y-76647500I250000J0D01*
G01*
G37*
G36*
G01*
X156550000Y-78647500D02*
X157450000Y-78647500D01*
G75*
G02*
X157700000Y-78897500I0J-250000D01*
G01*
X157700000Y-79597500D01*
G75*
G02*
X157450000Y-79847500I-250000J0D01*
G01*
X156550000Y-79847500D01*
G75*
G02*
X156300000Y-79597500I0J250000D01*
G01*
X156300000Y-78897500D01*
G75*
G02*
X156550000Y-78647500I250000J0D01*
G01*
G37*
G36*
G01*
X168475000Y-88125000D02*
X167525000Y-88125000D01*
G75*
G02*
X167275000Y-87875000I0J250000D01*
G01*
X167275000Y-87200000D01*
G75*
G02*
X167525000Y-86950000I250000J0D01*
G01*
X168475000Y-86950000D01*
G75*
G02*
X168725000Y-87200000I0J-250000D01*
G01*
X168725000Y-87875000D01*
G75*
G02*
X168475000Y-88125000I-250000J0D01*
G01*
G37*
G36*
G01*
X168475000Y-86050000D02*
X167525000Y-86050000D01*
G75*
G02*
X167275000Y-85800000I0J250000D01*
G01*
X167275000Y-85125000D01*
G75*
G02*
X167525000Y-84875000I250000J0D01*
G01*
X168475000Y-84875000D01*
G75*
G02*
X168725000Y-85125000I0J-250000D01*
G01*
X168725000Y-85800000D01*
G75*
G02*
X168475000Y-86050000I-250000J0D01*
G01*
G37*
G36*
G01*
X184550000Y-84900000D02*
X185450000Y-84900000D01*
G75*
G02*
X185700000Y-85150000I0J-250000D01*
G01*
X185700000Y-85850000D01*
G75*
G02*
X185450000Y-86100000I-250000J0D01*
G01*
X184550000Y-86100000D01*
G75*
G02*
X184300000Y-85850000I0J250000D01*
G01*
X184300000Y-85150000D01*
G75*
G02*
X184550000Y-84900000I250000J0D01*
G01*
G37*
G36*
G01*
X184550000Y-86900000D02*
X185450000Y-86900000D01*
G75*
G02*
X185700000Y-87150000I0J-250000D01*
G01*
X185700000Y-87850000D01*
G75*
G02*
X185450000Y-88100000I-250000J0D01*
G01*
X184550000Y-88100000D01*
G75*
G02*
X184300000Y-87850000I0J250000D01*
G01*
X184300000Y-87150000D01*
G75*
G02*
X184550000Y-86900000I250000J0D01*
G01*
G37*
G36*
G01*
X160025000Y-76622500D02*
X160975000Y-76622500D01*
G75*
G02*
X161225000Y-76872500I0J-250000D01*
G01*
X161225000Y-77547500D01*
G75*
G02*
X160975000Y-77797500I-250000J0D01*
G01*
X160025000Y-77797500D01*
G75*
G02*
X159775000Y-77547500I0J250000D01*
G01*
X159775000Y-76872500D01*
G75*
G02*
X160025000Y-76622500I250000J0D01*
G01*
G37*
G36*
G01*
X160025000Y-78697500D02*
X160975000Y-78697500D01*
G75*
G02*
X161225000Y-78947500I0J-250000D01*
G01*
X161225000Y-79622500D01*
G75*
G02*
X160975000Y-79872500I-250000J0D01*
G01*
X160025000Y-79872500D01*
G75*
G02*
X159775000Y-79622500I0J250000D01*
G01*
X159775000Y-78947500D01*
G75*
G02*
X160025000Y-78697500I250000J0D01*
G01*
G37*
G36*
G01*
X125450000Y-92100000D02*
X124550000Y-92100000D01*
G75*
G02*
X124300000Y-91850000I0J250000D01*
G01*
X124300000Y-91150000D01*
G75*
G02*
X124550000Y-90900000I250000J0D01*
G01*
X125450000Y-90900000D01*
G75*
G02*
X125700000Y-91150000I0J-250000D01*
G01*
X125700000Y-91850000D01*
G75*
G02*
X125450000Y-92100000I-250000J0D01*
G01*
G37*
G36*
G01*
X125450000Y-90100000D02*
X124550000Y-90100000D01*
G75*
G02*
X124300000Y-89850000I0J250000D01*
G01*
X124300000Y-89150000D01*
G75*
G02*
X124550000Y-88900000I250000J0D01*
G01*
X125450000Y-88900000D01*
G75*
G02*
X125700000Y-89150000I0J-250000D01*
G01*
X125700000Y-89850000D01*
G75*
G02*
X125450000Y-90100000I-250000J0D01*
G01*
G37*
G36*
G01*
X159475000Y-96125000D02*
X158525000Y-96125000D01*
G75*
G02*
X158275000Y-95875000I0J250000D01*
G01*
X158275000Y-95200000D01*
G75*
G02*
X158525000Y-94950000I250000J0D01*
G01*
X159475000Y-94950000D01*
G75*
G02*
X159725000Y-95200000I0J-250000D01*
G01*
X159725000Y-95875000D01*
G75*
G02*
X159475000Y-96125000I-250000J0D01*
G01*
G37*
G36*
G01*
X159475000Y-94050000D02*
X158525000Y-94050000D01*
G75*
G02*
X158275000Y-93800000I0J250000D01*
G01*
X158275000Y-93125000D01*
G75*
G02*
X158525000Y-92875000I250000J0D01*
G01*
X159475000Y-92875000D01*
G75*
G02*
X159725000Y-93125000I0J-250000D01*
G01*
X159725000Y-93800000D01*
G75*
G02*
X159475000Y-94050000I-250000J0D01*
G01*
G37*
D11*
X160100000Y-97600000D03*
X162900000Y-97600000D03*
X145100000Y-97600000D03*
X147900000Y-97600000D03*
G36*
G01*
X147525000Y-92875000D02*
X148475000Y-92875000D01*
G75*
G02*
X148725000Y-93125000I0J-250000D01*
G01*
X148725000Y-93800000D01*
G75*
G02*
X148475000Y-94050000I-250000J0D01*
G01*
X147525000Y-94050000D01*
G75*
G02*
X147275000Y-93800000I0J250000D01*
G01*
X147275000Y-93125000D01*
G75*
G02*
X147525000Y-92875000I250000J0D01*
G01*
G37*
G36*
G01*
X147525000Y-94950000D02*
X148475000Y-94950000D01*
G75*
G02*
X148725000Y-95200000I0J-250000D01*
G01*
X148725000Y-95875000D01*
G75*
G02*
X148475000Y-96125000I-250000J0D01*
G01*
X147525000Y-96125000D01*
G75*
G02*
X147275000Y-95875000I0J250000D01*
G01*
X147275000Y-95200000D01*
G75*
G02*
X147525000Y-94950000I250000J0D01*
G01*
G37*
G36*
G01*
X115525000Y-88875000D02*
X116475000Y-88875000D01*
G75*
G02*
X116725000Y-89125000I0J-250000D01*
G01*
X116725000Y-89800000D01*
G75*
G02*
X116475000Y-90050000I-250000J0D01*
G01*
X115525000Y-90050000D01*
G75*
G02*
X115275000Y-89800000I0J250000D01*
G01*
X115275000Y-89125000D01*
G75*
G02*
X115525000Y-88875000I250000J0D01*
G01*
G37*
G36*
G01*
X115525000Y-90950000D02*
X116475000Y-90950000D01*
G75*
G02*
X116725000Y-91200000I0J-250000D01*
G01*
X116725000Y-91875000D01*
G75*
G02*
X116475000Y-92125000I-250000J0D01*
G01*
X115525000Y-92125000D01*
G75*
G02*
X115275000Y-91875000I0J250000D01*
G01*
X115275000Y-91200000D01*
G75*
G02*
X115525000Y-90950000I250000J0D01*
G01*
G37*
G36*
G01*
X137550000Y-88900000D02*
X138450000Y-88900000D01*
G75*
G02*
X138700000Y-89150000I0J-250000D01*
G01*
X138700000Y-89850000D01*
G75*
G02*
X138450000Y-90100000I-250000J0D01*
G01*
X137550000Y-90100000D01*
G75*
G02*
X137300000Y-89850000I0J250000D01*
G01*
X137300000Y-89150000D01*
G75*
G02*
X137550000Y-88900000I250000J0D01*
G01*
G37*
G36*
G01*
X137550000Y-90900000D02*
X138450000Y-90900000D01*
G75*
G02*
X138700000Y-91150000I0J-250000D01*
G01*
X138700000Y-91850000D01*
G75*
G02*
X138450000Y-92100000I-250000J0D01*
G01*
X137550000Y-92100000D01*
G75*
G02*
X137300000Y-91850000I0J250000D01*
G01*
X137300000Y-91150000D01*
G75*
G02*
X137550000Y-90900000I250000J0D01*
G01*
G37*
D12*
X152965000Y-96710000D03*
D13*
X150790000Y-94360000D03*
D12*
X152965000Y-94360000D03*
D13*
X150790000Y-96710000D03*
D14*
X155215000Y-97440000D03*
X155215000Y-96170000D03*
X155215000Y-94900000D03*
X155215000Y-93630000D03*
D15*
X149665000Y-93630000D03*
X149665000Y-97440000D03*
X149665000Y-96170000D03*
X149665000Y-94900000D03*
G36*
G01*
X132525000Y-92875000D02*
X133475000Y-92875000D01*
G75*
G02*
X133725000Y-93125000I0J-250000D01*
G01*
X133725000Y-93800000D01*
G75*
G02*
X133475000Y-94050000I-250000J0D01*
G01*
X132525000Y-94050000D01*
G75*
G02*
X132275000Y-93800000I0J250000D01*
G01*
X132275000Y-93125000D01*
G75*
G02*
X132525000Y-92875000I250000J0D01*
G01*
G37*
G36*
G01*
X132525000Y-94950000D02*
X133475000Y-94950000D01*
G75*
G02*
X133725000Y-95200000I0J-250000D01*
G01*
X133725000Y-95875000D01*
G75*
G02*
X133475000Y-96125000I-250000J0D01*
G01*
X132525000Y-96125000D01*
G75*
G02*
X132275000Y-95875000I0J250000D01*
G01*
X132275000Y-95200000D01*
G75*
G02*
X132525000Y-94950000I250000J0D01*
G01*
G37*
G36*
G01*
X140450000Y-92100000D02*
X139550000Y-92100000D01*
G75*
G02*
X139300000Y-91850000I0J250000D01*
G01*
X139300000Y-91150000D01*
G75*
G02*
X139550000Y-90900000I250000J0D01*
G01*
X140450000Y-90900000D01*
G75*
G02*
X140700000Y-91150000I0J-250000D01*
G01*
X140700000Y-91850000D01*
G75*
G02*
X140450000Y-92100000I-250000J0D01*
G01*
G37*
G36*
G01*
X140450000Y-90100000D02*
X139550000Y-90100000D01*
G75*
G02*
X139300000Y-89850000I0J250000D01*
G01*
X139300000Y-89150000D01*
G75*
G02*
X139550000Y-88900000I250000J0D01*
G01*
X140450000Y-88900000D01*
G75*
G02*
X140700000Y-89150000I0J-250000D01*
G01*
X140700000Y-89850000D01*
G75*
G02*
X140450000Y-90100000I-250000J0D01*
G01*
G37*
G36*
G01*
X182050000Y-64900000D02*
X182950000Y-64900000D01*
G75*
G02*
X183200000Y-65150000I0J-250000D01*
G01*
X183200000Y-65800000D01*
G75*
G02*
X182950000Y-66050000I-250000J0D01*
G01*
X182050000Y-66050000D01*
G75*
G02*
X181800000Y-65800000I0J250000D01*
G01*
X181800000Y-65150000D01*
G75*
G02*
X182050000Y-64900000I250000J0D01*
G01*
G37*
G36*
G01*
X182050000Y-66950000D02*
X182950000Y-66950000D01*
G75*
G02*
X183200000Y-67200000I0J-250000D01*
G01*
X183200000Y-67850000D01*
G75*
G02*
X182950000Y-68100000I-250000J0D01*
G01*
X182050000Y-68100000D01*
G75*
G02*
X181800000Y-67850000I0J250000D01*
G01*
X181800000Y-67200000D01*
G75*
G02*
X182050000Y-66950000I250000J0D01*
G01*
G37*
G36*
G01*
X165525000Y-76622500D02*
X166475000Y-76622500D01*
G75*
G02*
X166725000Y-76872500I0J-250000D01*
G01*
X166725000Y-77547500D01*
G75*
G02*
X166475000Y-77797500I-250000J0D01*
G01*
X165525000Y-77797500D01*
G75*
G02*
X165275000Y-77547500I0J250000D01*
G01*
X165275000Y-76872500D01*
G75*
G02*
X165525000Y-76622500I250000J0D01*
G01*
G37*
G36*
G01*
X165525000Y-78697500D02*
X166475000Y-78697500D01*
G75*
G02*
X166725000Y-78947500I0J-250000D01*
G01*
X166725000Y-79622500D01*
G75*
G02*
X166475000Y-79872500I-250000J0D01*
G01*
X165525000Y-79872500D01*
G75*
G02*
X165275000Y-79622500I0J250000D01*
G01*
X165275000Y-78947500D01*
G75*
G02*
X165525000Y-78697500I250000J0D01*
G01*
G37*
D16*
X118150000Y-89550000D03*
X118150000Y-90500000D03*
X118150000Y-91450000D03*
X120850000Y-91450000D03*
X120850000Y-89550000D03*
G36*
G01*
X138475000Y-88125000D02*
X137525000Y-88125000D01*
G75*
G02*
X137275000Y-87875000I0J250000D01*
G01*
X137275000Y-87200000D01*
G75*
G02*
X137525000Y-86950000I250000J0D01*
G01*
X138475000Y-86950000D01*
G75*
G02*
X138725000Y-87200000I0J-250000D01*
G01*
X138725000Y-87875000D01*
G75*
G02*
X138475000Y-88125000I-250000J0D01*
G01*
G37*
G36*
G01*
X138475000Y-86050000D02*
X137525000Y-86050000D01*
G75*
G02*
X137275000Y-85800000I0J250000D01*
G01*
X137275000Y-85125000D01*
G75*
G02*
X137525000Y-84875000I250000J0D01*
G01*
X138475000Y-84875000D01*
G75*
G02*
X138725000Y-85125000I0J-250000D01*
G01*
X138725000Y-85800000D01*
G75*
G02*
X138475000Y-86050000I-250000J0D01*
G01*
G37*
X133150000Y-89550000D03*
X133150000Y-90500000D03*
X133150000Y-91450000D03*
X135850000Y-91450000D03*
X135850000Y-89550000D03*
G36*
G01*
X173300000Y-71947500D02*
X173600000Y-71947500D01*
G75*
G02*
X173750000Y-72097500I0J-150000D01*
G01*
X173750000Y-73122500D01*
G75*
G02*
X173600000Y-73272500I-150000J0D01*
G01*
X173300000Y-73272500D01*
G75*
G02*
X173150000Y-73122500I0J150000D01*
G01*
X173150000Y-72097500D01*
G75*
G02*
X173300000Y-71947500I150000J0D01*
G01*
G37*
G36*
G01*
X172350000Y-71947500D02*
X172650000Y-71947500D01*
G75*
G02*
X172800000Y-72097500I0J-150000D01*
G01*
X172800000Y-73122500D01*
G75*
G02*
X172650000Y-73272500I-150000J0D01*
G01*
X172350000Y-73272500D01*
G75*
G02*
X172200000Y-73122500I0J150000D01*
G01*
X172200000Y-72097500D01*
G75*
G02*
X172350000Y-71947500I150000J0D01*
G01*
G37*
G36*
G01*
X171400000Y-71947500D02*
X171700000Y-71947500D01*
G75*
G02*
X171850000Y-72097500I0J-150000D01*
G01*
X171850000Y-73122500D01*
G75*
G02*
X171700000Y-73272500I-150000J0D01*
G01*
X171400000Y-73272500D01*
G75*
G02*
X171250000Y-73122500I0J150000D01*
G01*
X171250000Y-72097500D01*
G75*
G02*
X171400000Y-71947500I150000J0D01*
G01*
G37*
G36*
G01*
X171400000Y-74222500D02*
X171700000Y-74222500D01*
G75*
G02*
X171850000Y-74372500I0J-150000D01*
G01*
X171850000Y-75397500D01*
G75*
G02*
X171700000Y-75547500I-150000J0D01*
G01*
X171400000Y-75547500D01*
G75*
G02*
X171250000Y-75397500I0J150000D01*
G01*
X171250000Y-74372500D01*
G75*
G02*
X171400000Y-74222500I150000J0D01*
G01*
G37*
G36*
G01*
X172350000Y-74222500D02*
X172650000Y-74222500D01*
G75*
G02*
X172800000Y-74372500I0J-150000D01*
G01*
X172800000Y-75397500D01*
G75*
G02*
X172650000Y-75547500I-150000J0D01*
G01*
X172350000Y-75547500D01*
G75*
G02*
X172200000Y-75397500I0J150000D01*
G01*
X172200000Y-74372500D01*
G75*
G02*
X172350000Y-74222500I150000J0D01*
G01*
G37*
G36*
G01*
X173300000Y-74222500D02*
X173600000Y-74222500D01*
G75*
G02*
X173750000Y-74372500I0J-150000D01*
G01*
X173750000Y-75397500D01*
G75*
G02*
X173600000Y-75547500I-150000J0D01*
G01*
X173300000Y-75547500D01*
G75*
G02*
X173150000Y-75397500I0J150000D01*
G01*
X173150000Y-74372500D01*
G75*
G02*
X173300000Y-74222500I150000J0D01*
G01*
G37*
G36*
G01*
X138000000Y-65600000D02*
X140000000Y-65600000D01*
G75*
G02*
X140250000Y-65850000I0J-250000D01*
G01*
X140250000Y-69750000D01*
G75*
G02*
X140000000Y-70000000I-250000J0D01*
G01*
X138000000Y-70000000D01*
G75*
G02*
X137750000Y-69750000I0J250000D01*
G01*
X137750000Y-65850000D01*
G75*
G02*
X138000000Y-65600000I250000J0D01*
G01*
G37*
G36*
G01*
X138000000Y-74000000D02*
X140000000Y-74000000D01*
G75*
G02*
X140250000Y-74250000I0J-250000D01*
G01*
X140250000Y-78150000D01*
G75*
G02*
X140000000Y-78400000I-250000J0D01*
G01*
X138000000Y-78400000D01*
G75*
G02*
X137750000Y-78150000I0J250000D01*
G01*
X137750000Y-74250000D01*
G75*
G02*
X138000000Y-74000000I250000J0D01*
G01*
G37*
G36*
G01*
X174475000Y-96125000D02*
X173525000Y-96125000D01*
G75*
G02*
X173275000Y-95875000I0J250000D01*
G01*
X173275000Y-95200000D01*
G75*
G02*
X173525000Y-94950000I250000J0D01*
G01*
X174475000Y-94950000D01*
G75*
G02*
X174725000Y-95200000I0J-250000D01*
G01*
X174725000Y-95875000D01*
G75*
G02*
X174475000Y-96125000I-250000J0D01*
G01*
G37*
G36*
G01*
X174475000Y-94050000D02*
X173525000Y-94050000D01*
G75*
G02*
X173275000Y-93800000I0J250000D01*
G01*
X173275000Y-93125000D01*
G75*
G02*
X173525000Y-92875000I250000J0D01*
G01*
X174475000Y-92875000D01*
G75*
G02*
X174725000Y-93125000I0J-250000D01*
G01*
X174725000Y-93800000D01*
G75*
G02*
X174475000Y-94050000I-250000J0D01*
G01*
G37*
D11*
X175100000Y-97600000D03*
X177900000Y-97600000D03*
D13*
X165790000Y-96710000D03*
D12*
X167965000Y-96710000D03*
D13*
X165790000Y-94360000D03*
D12*
X167965000Y-94360000D03*
D14*
X170215000Y-97440000D03*
X170215000Y-96170000D03*
X170215000Y-94900000D03*
X170215000Y-93630000D03*
D15*
X164665000Y-93630000D03*
X164665000Y-94900000D03*
X164665000Y-97440000D03*
X164665000Y-96170000D03*
G36*
G01*
X153475000Y-88125000D02*
X152525000Y-88125000D01*
G75*
G02*
X152275000Y-87875000I0J250000D01*
G01*
X152275000Y-87200000D01*
G75*
G02*
X152525000Y-86950000I250000J0D01*
G01*
X153475000Y-86950000D01*
G75*
G02*
X153725000Y-87200000I0J-250000D01*
G01*
X153725000Y-87875000D01*
G75*
G02*
X153475000Y-88125000I-250000J0D01*
G01*
G37*
G36*
G01*
X153475000Y-86050000D02*
X152525000Y-86050000D01*
G75*
G02*
X152275000Y-85800000I0J250000D01*
G01*
X152275000Y-85125000D01*
G75*
G02*
X152525000Y-84875000I250000J0D01*
G01*
X153475000Y-84875000D01*
G75*
G02*
X153725000Y-85125000I0J-250000D01*
G01*
X153725000Y-85800000D01*
G75*
G02*
X153475000Y-86050000I-250000J0D01*
G01*
G37*
G36*
G01*
X124550000Y-84900000D02*
X125450000Y-84900000D01*
G75*
G02*
X125700000Y-85150000I0J-250000D01*
G01*
X125700000Y-85850000D01*
G75*
G02*
X125450000Y-86100000I-250000J0D01*
G01*
X124550000Y-86100000D01*
G75*
G02*
X124300000Y-85850000I0J250000D01*
G01*
X124300000Y-85150000D01*
G75*
G02*
X124550000Y-84900000I250000J0D01*
G01*
G37*
G36*
G01*
X124550000Y-86900000D02*
X125450000Y-86900000D01*
G75*
G02*
X125700000Y-87150000I0J-250000D01*
G01*
X125700000Y-87850000D01*
G75*
G02*
X125450000Y-88100000I-250000J0D01*
G01*
X124550000Y-88100000D01*
G75*
G02*
X124300000Y-87850000I0J250000D01*
G01*
X124300000Y-87150000D01*
G75*
G02*
X124550000Y-86900000I250000J0D01*
G01*
G37*
G36*
G01*
X167550000Y-88900000D02*
X168450000Y-88900000D01*
G75*
G02*
X168700000Y-89150000I0J-250000D01*
G01*
X168700000Y-89850000D01*
G75*
G02*
X168450000Y-90100000I-250000J0D01*
G01*
X167550000Y-90100000D01*
G75*
G02*
X167300000Y-89850000I0J250000D01*
G01*
X167300000Y-89150000D01*
G75*
G02*
X167550000Y-88900000I250000J0D01*
G01*
G37*
G36*
G01*
X167550000Y-90900000D02*
X168450000Y-90900000D01*
G75*
G02*
X168700000Y-91150000I0J-250000D01*
G01*
X168700000Y-91850000D01*
G75*
G02*
X168450000Y-92100000I-250000J0D01*
G01*
X167550000Y-92100000D01*
G75*
G02*
X167300000Y-91850000I0J250000D01*
G01*
X167300000Y-91150000D01*
G75*
G02*
X167550000Y-90900000I250000J0D01*
G01*
G37*
G36*
G01*
X114450000Y-92100000D02*
X113550000Y-92100000D01*
G75*
G02*
X113300000Y-91850000I0J250000D01*
G01*
X113300000Y-91150000D01*
G75*
G02*
X113550000Y-90900000I250000J0D01*
G01*
X114450000Y-90900000D01*
G75*
G02*
X114700000Y-91150000I0J-250000D01*
G01*
X114700000Y-91850000D01*
G75*
G02*
X114450000Y-92100000I-250000J0D01*
G01*
G37*
G36*
G01*
X114450000Y-90100000D02*
X113550000Y-90100000D01*
G75*
G02*
X113300000Y-89850000I0J250000D01*
G01*
X113300000Y-89150000D01*
G75*
G02*
X113550000Y-88900000I250000J0D01*
G01*
X114450000Y-88900000D01*
G75*
G02*
X114700000Y-89150000I0J-250000D01*
G01*
X114700000Y-89850000D01*
G75*
G02*
X114450000Y-90100000I-250000J0D01*
G01*
G37*
G36*
G01*
X152550000Y-88900000D02*
X153450000Y-88900000D01*
G75*
G02*
X153700000Y-89150000I0J-250000D01*
G01*
X153700000Y-89850000D01*
G75*
G02*
X153450000Y-90100000I-250000J0D01*
G01*
X152550000Y-90100000D01*
G75*
G02*
X152300000Y-89850000I0J250000D01*
G01*
X152300000Y-89150000D01*
G75*
G02*
X152550000Y-88900000I250000J0D01*
G01*
G37*
G36*
G01*
X152550000Y-90900000D02*
X153450000Y-90900000D01*
G75*
G02*
X153700000Y-91150000I0J-250000D01*
G01*
X153700000Y-91850000D01*
G75*
G02*
X153450000Y-92100000I-250000J0D01*
G01*
X152550000Y-92100000D01*
G75*
G02*
X152300000Y-91850000I0J250000D01*
G01*
X152300000Y-91150000D01*
G75*
G02*
X152550000Y-90900000I250000J0D01*
G01*
G37*
G36*
G01*
X130525000Y-88875000D02*
X131475000Y-88875000D01*
G75*
G02*
X131725000Y-89125000I0J-250000D01*
G01*
X131725000Y-89800000D01*
G75*
G02*
X131475000Y-90050000I-250000J0D01*
G01*
X130525000Y-90050000D01*
G75*
G02*
X130275000Y-89800000I0J250000D01*
G01*
X130275000Y-89125000D01*
G75*
G02*
X130525000Y-88875000I250000J0D01*
G01*
G37*
G36*
G01*
X130525000Y-90950000D02*
X131475000Y-90950000D01*
G75*
G02*
X131725000Y-91200000I0J-250000D01*
G01*
X131725000Y-91875000D01*
G75*
G02*
X131475000Y-92125000I-250000J0D01*
G01*
X130525000Y-92125000D01*
G75*
G02*
X130275000Y-91875000I0J250000D01*
G01*
X130275000Y-91200000D01*
G75*
G02*
X130525000Y-90950000I250000J0D01*
G01*
G37*
G36*
G01*
X160525000Y-88875000D02*
X161475000Y-88875000D01*
G75*
G02*
X161725000Y-89125000I0J-250000D01*
G01*
X161725000Y-89800000D01*
G75*
G02*
X161475000Y-90050000I-250000J0D01*
G01*
X160525000Y-90050000D01*
G75*
G02*
X160275000Y-89800000I0J250000D01*
G01*
X160275000Y-89125000D01*
G75*
G02*
X160525000Y-88875000I250000J0D01*
G01*
G37*
G36*
G01*
X160525000Y-90950000D02*
X161475000Y-90950000D01*
G75*
G02*
X161725000Y-91200000I0J-250000D01*
G01*
X161725000Y-91875000D01*
G75*
G02*
X161475000Y-92125000I-250000J0D01*
G01*
X160525000Y-92125000D01*
G75*
G02*
X160275000Y-91875000I0J250000D01*
G01*
X160275000Y-91200000D01*
G75*
G02*
X160525000Y-90950000I250000J0D01*
G01*
G37*
D17*
X143250000Y-87250000D03*
X143750000Y-87250000D03*
X144250000Y-87250000D03*
X144250000Y-85750000D03*
X143750000Y-85750000D03*
X143250000Y-85750000D03*
G36*
G01*
X170450000Y-92100000D02*
X169550000Y-92100000D01*
G75*
G02*
X169300000Y-91850000I0J250000D01*
G01*
X169300000Y-91150000D01*
G75*
G02*
X169550000Y-90900000I250000J0D01*
G01*
X170450000Y-90900000D01*
G75*
G02*
X170700000Y-91150000I0J-250000D01*
G01*
X170700000Y-91850000D01*
G75*
G02*
X170450000Y-92100000I-250000J0D01*
G01*
G37*
G36*
G01*
X170450000Y-90100000D02*
X169550000Y-90100000D01*
G75*
G02*
X169300000Y-89850000I0J250000D01*
G01*
X169300000Y-89150000D01*
G75*
G02*
X169550000Y-88900000I250000J0D01*
G01*
X170450000Y-88900000D01*
G75*
G02*
X170700000Y-89150000I0J-250000D01*
G01*
X170700000Y-89850000D01*
G75*
G02*
X170450000Y-90100000I-250000J0D01*
G01*
G37*
G36*
G01*
X114475000Y-96125000D02*
X113525000Y-96125000D01*
G75*
G02*
X113275000Y-95875000I0J250000D01*
G01*
X113275000Y-95200000D01*
G75*
G02*
X113525000Y-94950000I250000J0D01*
G01*
X114475000Y-94950000D01*
G75*
G02*
X114725000Y-95200000I0J-250000D01*
G01*
X114725000Y-95875000D01*
G75*
G02*
X114475000Y-96125000I-250000J0D01*
G01*
G37*
G36*
G01*
X114475000Y-94050000D02*
X113525000Y-94050000D01*
G75*
G02*
X113275000Y-93800000I0J250000D01*
G01*
X113275000Y-93125000D01*
G75*
G02*
X113525000Y-92875000I250000J0D01*
G01*
X114475000Y-92875000D01*
G75*
G02*
X114725000Y-93125000I0J-250000D01*
G01*
X114725000Y-93800000D01*
G75*
G02*
X114475000Y-94050000I-250000J0D01*
G01*
G37*
D11*
X130100000Y-97600000D03*
X132900000Y-97600000D03*
G36*
G01*
X163550000Y-84900000D02*
X164450000Y-84900000D01*
G75*
G02*
X164700000Y-85150000I0J-250000D01*
G01*
X164700000Y-85850000D01*
G75*
G02*
X164450000Y-86100000I-250000J0D01*
G01*
X163550000Y-86100000D01*
G75*
G02*
X163300000Y-85850000I0J250000D01*
G01*
X163300000Y-85150000D01*
G75*
G02*
X163550000Y-84900000I250000J0D01*
G01*
G37*
G36*
G01*
X163550000Y-86900000D02*
X164450000Y-86900000D01*
G75*
G02*
X164700000Y-87150000I0J-250000D01*
G01*
X164700000Y-87850000D01*
G75*
G02*
X164450000Y-88100000I-250000J0D01*
G01*
X163550000Y-88100000D01*
G75*
G02*
X163300000Y-87850000I0J250000D01*
G01*
X163300000Y-87150000D01*
G75*
G02*
X163550000Y-86900000I250000J0D01*
G01*
G37*
G36*
G01*
X177525000Y-92875000D02*
X178475000Y-92875000D01*
G75*
G02*
X178725000Y-93125000I0J-250000D01*
G01*
X178725000Y-93800000D01*
G75*
G02*
X178475000Y-94050000I-250000J0D01*
G01*
X177525000Y-94050000D01*
G75*
G02*
X177275000Y-93800000I0J250000D01*
G01*
X177275000Y-93125000D01*
G75*
G02*
X177525000Y-92875000I250000J0D01*
G01*
G37*
G36*
G01*
X177525000Y-94950000D02*
X178475000Y-94950000D01*
G75*
G02*
X178725000Y-95200000I0J-250000D01*
G01*
X178725000Y-95875000D01*
G75*
G02*
X178475000Y-96125000I-250000J0D01*
G01*
X177525000Y-96125000D01*
G75*
G02*
X177275000Y-95875000I0J250000D01*
G01*
X177275000Y-95200000D01*
G75*
G02*
X177525000Y-94950000I250000J0D01*
G01*
G37*
G36*
G01*
X175525000Y-88875000D02*
X176475000Y-88875000D01*
G75*
G02*
X176725000Y-89125000I0J-250000D01*
G01*
X176725000Y-89800000D01*
G75*
G02*
X176475000Y-90050000I-250000J0D01*
G01*
X175525000Y-90050000D01*
G75*
G02*
X175275000Y-89800000I0J250000D01*
G01*
X175275000Y-89125000D01*
G75*
G02*
X175525000Y-88875000I250000J0D01*
G01*
G37*
G36*
G01*
X175525000Y-90950000D02*
X176475000Y-90950000D01*
G75*
G02*
X176725000Y-91200000I0J-250000D01*
G01*
X176725000Y-91875000D01*
G75*
G02*
X176475000Y-92125000I-250000J0D01*
G01*
X175525000Y-92125000D01*
G75*
G02*
X175275000Y-91875000I0J250000D01*
G01*
X175275000Y-91200000D01*
G75*
G02*
X175525000Y-90950000I250000J0D01*
G01*
G37*
D12*
X137965000Y-96710000D03*
X137965000Y-94360000D03*
D13*
X135790000Y-94360000D03*
X135790000Y-96710000D03*
D14*
X140215000Y-97440000D03*
X140215000Y-96170000D03*
X140215000Y-94900000D03*
X140215000Y-93630000D03*
D15*
X134665000Y-96170000D03*
X134665000Y-94900000D03*
X134665000Y-93630000D03*
X134665000Y-97440000D03*
G36*
G01*
X154550000Y-84900000D02*
X155450000Y-84900000D01*
G75*
G02*
X155700000Y-85150000I0J-250000D01*
G01*
X155700000Y-85850000D01*
G75*
G02*
X155450000Y-86100000I-250000J0D01*
G01*
X154550000Y-86100000D01*
G75*
G02*
X154300000Y-85850000I0J250000D01*
G01*
X154300000Y-85150000D01*
G75*
G02*
X154550000Y-84900000I250000J0D01*
G01*
G37*
G36*
G01*
X154550000Y-86900000D02*
X155450000Y-86900000D01*
G75*
G02*
X155700000Y-87150000I0J-250000D01*
G01*
X155700000Y-87850000D01*
G75*
G02*
X155450000Y-88100000I-250000J0D01*
G01*
X154550000Y-88100000D01*
G75*
G02*
X154300000Y-87850000I0J250000D01*
G01*
X154300000Y-87150000D01*
G75*
G02*
X154550000Y-86900000I250000J0D01*
G01*
G37*
G36*
G01*
X159450000Y-92100000D02*
X158550000Y-92100000D01*
G75*
G02*
X158300000Y-91850000I0J250000D01*
G01*
X158300000Y-91150000D01*
G75*
G02*
X158550000Y-90900000I250000J0D01*
G01*
X159450000Y-90900000D01*
G75*
G02*
X159700000Y-91150000I0J-250000D01*
G01*
X159700000Y-91850000D01*
G75*
G02*
X159450000Y-92100000I-250000J0D01*
G01*
G37*
G36*
G01*
X159450000Y-90100000D02*
X158550000Y-90100000D01*
G75*
G02*
X158300000Y-89850000I0J250000D01*
G01*
X158300000Y-89150000D01*
G75*
G02*
X158550000Y-88900000I250000J0D01*
G01*
X159450000Y-88900000D01*
G75*
G02*
X159700000Y-89150000I0J-250000D01*
G01*
X159700000Y-89850000D01*
G75*
G02*
X159450000Y-90100000I-250000J0D01*
G01*
G37*
G36*
G01*
X129450000Y-92100000D02*
X128550000Y-92100000D01*
G75*
G02*
X128300000Y-91850000I0J250000D01*
G01*
X128300000Y-91150000D01*
G75*
G02*
X128550000Y-90900000I250000J0D01*
G01*
X129450000Y-90900000D01*
G75*
G02*
X129700000Y-91150000I0J-250000D01*
G01*
X129700000Y-91850000D01*
G75*
G02*
X129450000Y-92100000I-250000J0D01*
G01*
G37*
G36*
G01*
X129450000Y-90100000D02*
X128550000Y-90100000D01*
G75*
G02*
X128300000Y-89850000I0J250000D01*
G01*
X128300000Y-89150000D01*
G75*
G02*
X128550000Y-88900000I250000J0D01*
G01*
X129450000Y-88900000D01*
G75*
G02*
X129700000Y-89150000I0J-250000D01*
G01*
X129700000Y-89850000D01*
G75*
G02*
X129450000Y-90100000I-250000J0D01*
G01*
G37*
G36*
G01*
X169550000Y-84900000D02*
X170450000Y-84900000D01*
G75*
G02*
X170700000Y-85150000I0J-250000D01*
G01*
X170700000Y-85850000D01*
G75*
G02*
X170450000Y-86100000I-250000J0D01*
G01*
X169550000Y-86100000D01*
G75*
G02*
X169300000Y-85850000I0J250000D01*
G01*
X169300000Y-85150000D01*
G75*
G02*
X169550000Y-84900000I250000J0D01*
G01*
G37*
G36*
G01*
X169550000Y-86900000D02*
X170450000Y-86900000D01*
G75*
G02*
X170700000Y-87150000I0J-250000D01*
G01*
X170700000Y-87850000D01*
G75*
G02*
X170450000Y-88100000I-250000J0D01*
G01*
X169550000Y-88100000D01*
G75*
G02*
X169300000Y-87850000I0J250000D01*
G01*
X169300000Y-87150000D01*
G75*
G02*
X169550000Y-86900000I250000J0D01*
G01*
G37*
G36*
G01*
X129475000Y-96125000D02*
X128525000Y-96125000D01*
G75*
G02*
X128275000Y-95875000I0J250000D01*
G01*
X128275000Y-95200000D01*
G75*
G02*
X128525000Y-94950000I250000J0D01*
G01*
X129475000Y-94950000D01*
G75*
G02*
X129725000Y-95200000I0J-250000D01*
G01*
X129725000Y-95875000D01*
G75*
G02*
X129475000Y-96125000I-250000J0D01*
G01*
G37*
G36*
G01*
X129475000Y-94050000D02*
X128525000Y-94050000D01*
G75*
G02*
X128275000Y-93800000I0J250000D01*
G01*
X128275000Y-93125000D01*
G75*
G02*
X128525000Y-92875000I250000J0D01*
G01*
X129475000Y-92875000D01*
G75*
G02*
X129725000Y-93125000I0J-250000D01*
G01*
X129725000Y-93800000D01*
G75*
G02*
X129475000Y-94050000I-250000J0D01*
G01*
G37*
G36*
G01*
X148550000Y-84900000D02*
X149450000Y-84900000D01*
G75*
G02*
X149700000Y-85150000I0J-250000D01*
G01*
X149700000Y-85850000D01*
G75*
G02*
X149450000Y-86100000I-250000J0D01*
G01*
X148550000Y-86100000D01*
G75*
G02*
X148300000Y-85850000I0J250000D01*
G01*
X148300000Y-85150000D01*
G75*
G02*
X148550000Y-84900000I250000J0D01*
G01*
G37*
G36*
G01*
X148550000Y-86900000D02*
X149450000Y-86900000D01*
G75*
G02*
X149700000Y-87150000I0J-250000D01*
G01*
X149700000Y-87850000D01*
G75*
G02*
X149450000Y-88100000I-250000J0D01*
G01*
X148550000Y-88100000D01*
G75*
G02*
X148300000Y-87850000I0J250000D01*
G01*
X148300000Y-87150000D01*
G75*
G02*
X148550000Y-86900000I250000J0D01*
G01*
G37*
G36*
G01*
X182950000Y-82100000D02*
X182050000Y-82100000D01*
G75*
G02*
X181800000Y-81850000I0J250000D01*
G01*
X181800000Y-81200000D01*
G75*
G02*
X182050000Y-80950000I250000J0D01*
G01*
X182950000Y-80950000D01*
G75*
G02*
X183200000Y-81200000I0J-250000D01*
G01*
X183200000Y-81850000D01*
G75*
G02*
X182950000Y-82100000I-250000J0D01*
G01*
G37*
G36*
G01*
X182950000Y-80050000D02*
X182050000Y-80050000D01*
G75*
G02*
X181800000Y-79800000I0J250000D01*
G01*
X181800000Y-79150000D01*
G75*
G02*
X182050000Y-78900000I250000J0D01*
G01*
X182950000Y-78900000D01*
G75*
G02*
X183200000Y-79150000I0J-250000D01*
G01*
X183200000Y-79800000D01*
G75*
G02*
X182950000Y-80050000I-250000J0D01*
G01*
G37*
G36*
G01*
X185450000Y-92100000D02*
X184550000Y-92100000D01*
G75*
G02*
X184300000Y-91850000I0J250000D01*
G01*
X184300000Y-91150000D01*
G75*
G02*
X184550000Y-90900000I250000J0D01*
G01*
X185450000Y-90900000D01*
G75*
G02*
X185700000Y-91150000I0J-250000D01*
G01*
X185700000Y-91850000D01*
G75*
G02*
X185450000Y-92100000I-250000J0D01*
G01*
G37*
G36*
G01*
X185450000Y-90100000D02*
X184550000Y-90100000D01*
G75*
G02*
X184300000Y-89850000I0J250000D01*
G01*
X184300000Y-89150000D01*
G75*
G02*
X184550000Y-88900000I250000J0D01*
G01*
X185450000Y-88900000D01*
G75*
G02*
X185700000Y-89150000I0J-250000D01*
G01*
X185700000Y-89850000D01*
G75*
G02*
X185450000Y-90100000I-250000J0D01*
G01*
G37*
G36*
G01*
X162050000Y-76647500D02*
X162950000Y-76647500D01*
G75*
G02*
X163200000Y-76897500I0J-250000D01*
G01*
X163200000Y-77597500D01*
G75*
G02*
X162950000Y-77847500I-250000J0D01*
G01*
X162050000Y-77847500D01*
G75*
G02*
X161800000Y-77597500I0J250000D01*
G01*
X161800000Y-76897500D01*
G75*
G02*
X162050000Y-76647500I250000J0D01*
G01*
G37*
G36*
G01*
X162050000Y-78647500D02*
X162950000Y-78647500D01*
G75*
G02*
X163200000Y-78897500I0J-250000D01*
G01*
X163200000Y-79597500D01*
G75*
G02*
X162950000Y-79847500I-250000J0D01*
G01*
X162050000Y-79847500D01*
G75*
G02*
X161800000Y-79597500I0J250000D01*
G01*
X161800000Y-78897500D01*
G75*
G02*
X162050000Y-78647500I250000J0D01*
G01*
G37*
G36*
G01*
X117525000Y-92875000D02*
X118475000Y-92875000D01*
G75*
G02*
X118725000Y-93125000I0J-250000D01*
G01*
X118725000Y-93800000D01*
G75*
G02*
X118475000Y-94050000I-250000J0D01*
G01*
X117525000Y-94050000D01*
G75*
G02*
X117275000Y-93800000I0J250000D01*
G01*
X117275000Y-93125000D01*
G75*
G02*
X117525000Y-92875000I250000J0D01*
G01*
G37*
G36*
G01*
X117525000Y-94950000D02*
X118475000Y-94950000D01*
G75*
G02*
X118725000Y-95200000I0J-250000D01*
G01*
X118725000Y-95875000D01*
G75*
G02*
X118475000Y-96125000I-250000J0D01*
G01*
X117525000Y-96125000D01*
G75*
G02*
X117275000Y-95875000I0J250000D01*
G01*
X117275000Y-95200000D01*
G75*
G02*
X117525000Y-94950000I250000J0D01*
G01*
G37*
G36*
G01*
X159050000Y-84900000D02*
X159950000Y-84900000D01*
G75*
G02*
X160200000Y-85150000I0J-250000D01*
G01*
X160200000Y-85850000D01*
G75*
G02*
X159950000Y-86100000I-250000J0D01*
G01*
X159050000Y-86100000D01*
G75*
G02*
X158800000Y-85850000I0J250000D01*
G01*
X158800000Y-85150000D01*
G75*
G02*
X159050000Y-84900000I250000J0D01*
G01*
G37*
G36*
G01*
X159050000Y-86900000D02*
X159950000Y-86900000D01*
G75*
G02*
X160200000Y-87150000I0J-250000D01*
G01*
X160200000Y-87850000D01*
G75*
G02*
X159950000Y-88100000I-250000J0D01*
G01*
X159050000Y-88100000D01*
G75*
G02*
X158800000Y-87850000I0J250000D01*
G01*
X158800000Y-87150000D01*
G75*
G02*
X159050000Y-86900000I250000J0D01*
G01*
G37*
G36*
G01*
X167550000Y-76647500D02*
X168450000Y-76647500D01*
G75*
G02*
X168700000Y-76897500I0J-250000D01*
G01*
X168700000Y-77597500D01*
G75*
G02*
X168450000Y-77847500I-250000J0D01*
G01*
X167550000Y-77847500D01*
G75*
G02*
X167300000Y-77597500I0J250000D01*
G01*
X167300000Y-76897500D01*
G75*
G02*
X167550000Y-76647500I250000J0D01*
G01*
G37*
G36*
G01*
X167550000Y-78647500D02*
X168450000Y-78647500D01*
G75*
G02*
X168700000Y-78897500I0J-250000D01*
G01*
X168700000Y-79597500D01*
G75*
G02*
X168450000Y-79847500I-250000J0D01*
G01*
X167550000Y-79847500D01*
G75*
G02*
X167300000Y-79597500I0J250000D01*
G01*
X167300000Y-78897500D01*
G75*
G02*
X167550000Y-78647500I250000J0D01*
G01*
G37*
G36*
G01*
X162300000Y-71947500D02*
X162600000Y-71947500D01*
G75*
G02*
X162750000Y-72097500I0J-150000D01*
G01*
X162750000Y-73122500D01*
G75*
G02*
X162600000Y-73272500I-150000J0D01*
G01*
X162300000Y-73272500D01*
G75*
G02*
X162150000Y-73122500I0J150000D01*
G01*
X162150000Y-72097500D01*
G75*
G02*
X162300000Y-71947500I150000J0D01*
G01*
G37*
G36*
G01*
X161350000Y-71947500D02*
X161650000Y-71947500D01*
G75*
G02*
X161800000Y-72097500I0J-150000D01*
G01*
X161800000Y-73122500D01*
G75*
G02*
X161650000Y-73272500I-150000J0D01*
G01*
X161350000Y-73272500D01*
G75*
G02*
X161200000Y-73122500I0J150000D01*
G01*
X161200000Y-72097500D01*
G75*
G02*
X161350000Y-71947500I150000J0D01*
G01*
G37*
G36*
G01*
X160400000Y-71947500D02*
X160700000Y-71947500D01*
G75*
G02*
X160850000Y-72097500I0J-150000D01*
G01*
X160850000Y-73122500D01*
G75*
G02*
X160700000Y-73272500I-150000J0D01*
G01*
X160400000Y-73272500D01*
G75*
G02*
X160250000Y-73122500I0J150000D01*
G01*
X160250000Y-72097500D01*
G75*
G02*
X160400000Y-71947500I150000J0D01*
G01*
G37*
G36*
G01*
X160400000Y-74222500D02*
X160700000Y-74222500D01*
G75*
G02*
X160850000Y-74372500I0J-150000D01*
G01*
X160850000Y-75397500D01*
G75*
G02*
X160700000Y-75547500I-150000J0D01*
G01*
X160400000Y-75547500D01*
G75*
G02*
X160250000Y-75397500I0J150000D01*
G01*
X160250000Y-74372500D01*
G75*
G02*
X160400000Y-74222500I150000J0D01*
G01*
G37*
G36*
G01*
X161350000Y-74222500D02*
X161650000Y-74222500D01*
G75*
G02*
X161800000Y-74372500I0J-150000D01*
G01*
X161800000Y-75397500D01*
G75*
G02*
X161650000Y-75547500I-150000J0D01*
G01*
X161350000Y-75547500D01*
G75*
G02*
X161200000Y-75397500I0J150000D01*
G01*
X161200000Y-74372500D01*
G75*
G02*
X161350000Y-74222500I150000J0D01*
G01*
G37*
G36*
G01*
X162300000Y-74222500D02*
X162600000Y-74222500D01*
G75*
G02*
X162750000Y-74372500I0J-150000D01*
G01*
X162750000Y-75397500D01*
G75*
G02*
X162600000Y-75547500I-150000J0D01*
G01*
X162300000Y-75547500D01*
G75*
G02*
X162150000Y-75397500I0J150000D01*
G01*
X162150000Y-74372500D01*
G75*
G02*
X162300000Y-74222500I150000J0D01*
G01*
G37*
G36*
G01*
X180050000Y-78900000D02*
X180950000Y-78900000D01*
G75*
G02*
X181200000Y-79150000I0J-250000D01*
G01*
X181200000Y-79850000D01*
G75*
G02*
X180950000Y-80100000I-250000J0D01*
G01*
X180050000Y-80100000D01*
G75*
G02*
X179800000Y-79850000I0J250000D01*
G01*
X179800000Y-79150000D01*
G75*
G02*
X180050000Y-78900000I250000J0D01*
G01*
G37*
G36*
G01*
X180050000Y-80900000D02*
X180950000Y-80900000D01*
G75*
G02*
X181200000Y-81150000I0J-250000D01*
G01*
X181200000Y-81850000D01*
G75*
G02*
X180950000Y-82100000I-250000J0D01*
G01*
X180050000Y-82100000D01*
G75*
G02*
X179800000Y-81850000I0J250000D01*
G01*
X179800000Y-81150000D01*
G75*
G02*
X180050000Y-80900000I250000J0D01*
G01*
G37*
G36*
G01*
X146525000Y-84875000D02*
X147475000Y-84875000D01*
G75*
G02*
X147725000Y-85125000I0J-250000D01*
G01*
X147725000Y-85800000D01*
G75*
G02*
X147475000Y-86050000I-250000J0D01*
G01*
X146525000Y-86050000D01*
G75*
G02*
X146275000Y-85800000I0J250000D01*
G01*
X146275000Y-85125000D01*
G75*
G02*
X146525000Y-84875000I250000J0D01*
G01*
G37*
G36*
G01*
X146525000Y-86950000D02*
X147475000Y-86950000D01*
G75*
G02*
X147725000Y-87200000I0J-250000D01*
G01*
X147725000Y-87875000D01*
G75*
G02*
X147475000Y-88125000I-250000J0D01*
G01*
X146525000Y-88125000D01*
G75*
G02*
X146275000Y-87875000I0J250000D01*
G01*
X146275000Y-87200000D01*
G75*
G02*
X146525000Y-86950000I250000J0D01*
G01*
G37*
G36*
G01*
X144475000Y-96125000D02*
X143525000Y-96125000D01*
G75*
G02*
X143275000Y-95875000I0J250000D01*
G01*
X143275000Y-95200000D01*
G75*
G02*
X143525000Y-94950000I250000J0D01*
G01*
X144475000Y-94950000D01*
G75*
G02*
X144725000Y-95200000I0J-250000D01*
G01*
X144725000Y-95875000D01*
G75*
G02*
X144475000Y-96125000I-250000J0D01*
G01*
G37*
G36*
G01*
X144475000Y-94050000D02*
X143525000Y-94050000D01*
G75*
G02*
X143275000Y-93800000I0J250000D01*
G01*
X143275000Y-93125000D01*
G75*
G02*
X143525000Y-92875000I250000J0D01*
G01*
X144475000Y-92875000D01*
G75*
G02*
X144725000Y-93125000I0J-250000D01*
G01*
X144725000Y-93800000D01*
G75*
G02*
X144475000Y-94050000I-250000J0D01*
G01*
G37*
G36*
G01*
X157050000Y-84900000D02*
X157950000Y-84900000D01*
G75*
G02*
X158200000Y-85150000I0J-250000D01*
G01*
X158200000Y-85850000D01*
G75*
G02*
X157950000Y-86100000I-250000J0D01*
G01*
X157050000Y-86100000D01*
G75*
G02*
X156800000Y-85850000I0J250000D01*
G01*
X156800000Y-85150000D01*
G75*
G02*
X157050000Y-84900000I250000J0D01*
G01*
G37*
G36*
G01*
X157050000Y-86900000D02*
X157950000Y-86900000D01*
G75*
G02*
X158200000Y-87150000I0J-250000D01*
G01*
X158200000Y-87850000D01*
G75*
G02*
X157950000Y-88100000I-250000J0D01*
G01*
X157050000Y-88100000D01*
G75*
G02*
X156800000Y-87850000I0J250000D01*
G01*
X156800000Y-87150000D01*
G75*
G02*
X157050000Y-86900000I250000J0D01*
G01*
G37*
G36*
G01*
X122550000Y-88900000D02*
X123450000Y-88900000D01*
G75*
G02*
X123700000Y-89150000I0J-250000D01*
G01*
X123700000Y-89850000D01*
G75*
G02*
X123450000Y-90100000I-250000J0D01*
G01*
X122550000Y-90100000D01*
G75*
G02*
X122300000Y-89850000I0J250000D01*
G01*
X122300000Y-89150000D01*
G75*
G02*
X122550000Y-88900000I250000J0D01*
G01*
G37*
G36*
G01*
X122550000Y-90900000D02*
X123450000Y-90900000D01*
G75*
G02*
X123700000Y-91150000I0J-250000D01*
G01*
X123700000Y-91850000D01*
G75*
G02*
X123450000Y-92100000I-250000J0D01*
G01*
X122550000Y-92100000D01*
G75*
G02*
X122300000Y-91850000I0J250000D01*
G01*
X122300000Y-91150000D01*
G75*
G02*
X122550000Y-90900000I250000J0D01*
G01*
G37*
D12*
X182965000Y-94360000D03*
X182965000Y-96710000D03*
D13*
X180790000Y-94360000D03*
X180790000Y-96710000D03*
D14*
X185215000Y-97440000D03*
X185215000Y-96170000D03*
X185215000Y-94900000D03*
X185215000Y-93630000D03*
D15*
X179665000Y-93630000D03*
X179665000Y-97440000D03*
X179665000Y-96170000D03*
X179665000Y-94900000D03*
D16*
X148150000Y-89550000D03*
X148150000Y-90500000D03*
X148150000Y-91450000D03*
X150850000Y-91450000D03*
X150850000Y-89550000D03*
G36*
G01*
X167800000Y-71947500D02*
X168100000Y-71947500D01*
G75*
G02*
X168250000Y-72097500I0J-150000D01*
G01*
X168250000Y-73122500D01*
G75*
G02*
X168100000Y-73272500I-150000J0D01*
G01*
X167800000Y-73272500D01*
G75*
G02*
X167650000Y-73122500I0J150000D01*
G01*
X167650000Y-72097500D01*
G75*
G02*
X167800000Y-71947500I150000J0D01*
G01*
G37*
G36*
G01*
X166850000Y-71947500D02*
X167150000Y-71947500D01*
G75*
G02*
X167300000Y-72097500I0J-150000D01*
G01*
X167300000Y-73122500D01*
G75*
G02*
X167150000Y-73272500I-150000J0D01*
G01*
X166850000Y-73272500D01*
G75*
G02*
X166700000Y-73122500I0J150000D01*
G01*
X166700000Y-72097500D01*
G75*
G02*
X166850000Y-71947500I150000J0D01*
G01*
G37*
G36*
G01*
X165900000Y-71947500D02*
X166200000Y-71947500D01*
G75*
G02*
X166350000Y-72097500I0J-150000D01*
G01*
X166350000Y-73122500D01*
G75*
G02*
X166200000Y-73272500I-150000J0D01*
G01*
X165900000Y-73272500D01*
G75*
G02*
X165750000Y-73122500I0J150000D01*
G01*
X165750000Y-72097500D01*
G75*
G02*
X165900000Y-71947500I150000J0D01*
G01*
G37*
G36*
G01*
X165900000Y-74222500D02*
X166200000Y-74222500D01*
G75*
G02*
X166350000Y-74372500I0J-150000D01*
G01*
X166350000Y-75397500D01*
G75*
G02*
X166200000Y-75547500I-150000J0D01*
G01*
X165900000Y-75547500D01*
G75*
G02*
X165750000Y-75397500I0J150000D01*
G01*
X165750000Y-74372500D01*
G75*
G02*
X165900000Y-74222500I150000J0D01*
G01*
G37*
G36*
G01*
X166850000Y-74222500D02*
X167150000Y-74222500D01*
G75*
G02*
X167300000Y-74372500I0J-150000D01*
G01*
X167300000Y-75397500D01*
G75*
G02*
X167150000Y-75547500I-150000J0D01*
G01*
X166850000Y-75547500D01*
G75*
G02*
X166700000Y-75397500I0J150000D01*
G01*
X166700000Y-74372500D01*
G75*
G02*
X166850000Y-74222500I150000J0D01*
G01*
G37*
G36*
G01*
X167800000Y-74222500D02*
X168100000Y-74222500D01*
G75*
G02*
X168250000Y-74372500I0J-150000D01*
G01*
X168250000Y-75397500D01*
G75*
G02*
X168100000Y-75547500I-150000J0D01*
G01*
X167800000Y-75547500D01*
G75*
G02*
X167650000Y-75397500I0J150000D01*
G01*
X167650000Y-74372500D01*
G75*
G02*
X167800000Y-74222500I150000J0D01*
G01*
G37*
G36*
G01*
X178550000Y-84900000D02*
X179450000Y-84900000D01*
G75*
G02*
X179700000Y-85150000I0J-250000D01*
G01*
X179700000Y-85850000D01*
G75*
G02*
X179450000Y-86100000I-250000J0D01*
G01*
X178550000Y-86100000D01*
G75*
G02*
X178300000Y-85850000I0J250000D01*
G01*
X178300000Y-85150000D01*
G75*
G02*
X178550000Y-84900000I250000J0D01*
G01*
G37*
G36*
G01*
X178550000Y-86900000D02*
X179450000Y-86900000D01*
G75*
G02*
X179700000Y-87150000I0J-250000D01*
G01*
X179700000Y-87850000D01*
G75*
G02*
X179450000Y-88100000I-250000J0D01*
G01*
X178550000Y-88100000D01*
G75*
G02*
X178300000Y-87850000I0J250000D01*
G01*
X178300000Y-87150000D01*
G75*
G02*
X178550000Y-86900000I250000J0D01*
G01*
G37*
G36*
G01*
X155450000Y-92100000D02*
X154550000Y-92100000D01*
G75*
G02*
X154300000Y-91850000I0J250000D01*
G01*
X154300000Y-91150000D01*
G75*
G02*
X154550000Y-90900000I250000J0D01*
G01*
X155450000Y-90900000D01*
G75*
G02*
X155700000Y-91150000I0J-250000D01*
G01*
X155700000Y-91850000D01*
G75*
G02*
X155450000Y-92100000I-250000J0D01*
G01*
G37*
G36*
G01*
X155450000Y-90100000D02*
X154550000Y-90100000D01*
G75*
G02*
X154300000Y-89850000I0J250000D01*
G01*
X154300000Y-89150000D01*
G75*
G02*
X154550000Y-88900000I250000J0D01*
G01*
X155450000Y-88900000D01*
G75*
G02*
X155700000Y-89150000I0J-250000D01*
G01*
X155700000Y-89850000D01*
G75*
G02*
X155450000Y-90100000I-250000J0D01*
G01*
G37*
G36*
G01*
X156800000Y-71947500D02*
X157100000Y-71947500D01*
G75*
G02*
X157250000Y-72097500I0J-150000D01*
G01*
X157250000Y-73122500D01*
G75*
G02*
X157100000Y-73272500I-150000J0D01*
G01*
X156800000Y-73272500D01*
G75*
G02*
X156650000Y-73122500I0J150000D01*
G01*
X156650000Y-72097500D01*
G75*
G02*
X156800000Y-71947500I150000J0D01*
G01*
G37*
G36*
G01*
X155850000Y-71947500D02*
X156150000Y-71947500D01*
G75*
G02*
X156300000Y-72097500I0J-150000D01*
G01*
X156300000Y-73122500D01*
G75*
G02*
X156150000Y-73272500I-150000J0D01*
G01*
X155850000Y-73272500D01*
G75*
G02*
X155700000Y-73122500I0J150000D01*
G01*
X155700000Y-72097500D01*
G75*
G02*
X155850000Y-71947500I150000J0D01*
G01*
G37*
G36*
G01*
X154900000Y-71947500D02*
X155200000Y-71947500D01*
G75*
G02*
X155350000Y-72097500I0J-150000D01*
G01*
X155350000Y-73122500D01*
G75*
G02*
X155200000Y-73272500I-150000J0D01*
G01*
X154900000Y-73272500D01*
G75*
G02*
X154750000Y-73122500I0J150000D01*
G01*
X154750000Y-72097500D01*
G75*
G02*
X154900000Y-71947500I150000J0D01*
G01*
G37*
G36*
G01*
X154900000Y-74222500D02*
X155200000Y-74222500D01*
G75*
G02*
X155350000Y-74372500I0J-150000D01*
G01*
X155350000Y-75397500D01*
G75*
G02*
X155200000Y-75547500I-150000J0D01*
G01*
X154900000Y-75547500D01*
G75*
G02*
X154750000Y-75397500I0J150000D01*
G01*
X154750000Y-74372500D01*
G75*
G02*
X154900000Y-74222500I150000J0D01*
G01*
G37*
G36*
G01*
X155850000Y-74222500D02*
X156150000Y-74222500D01*
G75*
G02*
X156300000Y-74372500I0J-150000D01*
G01*
X156300000Y-75397500D01*
G75*
G02*
X156150000Y-75547500I-150000J0D01*
G01*
X155850000Y-75547500D01*
G75*
G02*
X155700000Y-75397500I0J150000D01*
G01*
X155700000Y-74372500D01*
G75*
G02*
X155850000Y-74222500I150000J0D01*
G01*
G37*
G36*
G01*
X156800000Y-74222500D02*
X157100000Y-74222500D01*
G75*
G02*
X157250000Y-74372500I0J-150000D01*
G01*
X157250000Y-75397500D01*
G75*
G02*
X157100000Y-75547500I-150000J0D01*
G01*
X156800000Y-75547500D01*
G75*
G02*
X156650000Y-75397500I0J150000D01*
G01*
X156650000Y-74372500D01*
G75*
G02*
X156800000Y-74222500I150000J0D01*
G01*
G37*
G36*
G01*
X183475000Y-88125000D02*
X182525000Y-88125000D01*
G75*
G02*
X182275000Y-87875000I0J250000D01*
G01*
X182275000Y-87200000D01*
G75*
G02*
X182525000Y-86950000I250000J0D01*
G01*
X183475000Y-86950000D01*
G75*
G02*
X183725000Y-87200000I0J-250000D01*
G01*
X183725000Y-87875000D01*
G75*
G02*
X183475000Y-88125000I-250000J0D01*
G01*
G37*
G36*
G01*
X183475000Y-86050000D02*
X182525000Y-86050000D01*
G75*
G02*
X182275000Y-85800000I0J250000D01*
G01*
X182275000Y-85125000D01*
G75*
G02*
X182525000Y-84875000I250000J0D01*
G01*
X183475000Y-84875000D01*
G75*
G02*
X183725000Y-85125000I0J-250000D01*
G01*
X183725000Y-85800000D01*
G75*
G02*
X183475000Y-86050000I-250000J0D01*
G01*
G37*
G36*
G01*
X145525000Y-88875000D02*
X146475000Y-88875000D01*
G75*
G02*
X146725000Y-89125000I0J-250000D01*
G01*
X146725000Y-89800000D01*
G75*
G02*
X146475000Y-90050000I-250000J0D01*
G01*
X145525000Y-90050000D01*
G75*
G02*
X145275000Y-89800000I0J250000D01*
G01*
X145275000Y-89125000D01*
G75*
G02*
X145525000Y-88875000I250000J0D01*
G01*
G37*
G36*
G01*
X145525000Y-90950000D02*
X146475000Y-90950000D01*
G75*
G02*
X146725000Y-91200000I0J-250000D01*
G01*
X146725000Y-91875000D01*
G75*
G02*
X146475000Y-92125000I-250000J0D01*
G01*
X145525000Y-92125000D01*
G75*
G02*
X145275000Y-91875000I0J250000D01*
G01*
X145275000Y-91200000D01*
G75*
G02*
X145525000Y-90950000I250000J0D01*
G01*
G37*
G36*
G01*
X176525000Y-84875000D02*
X177475000Y-84875000D01*
G75*
G02*
X177725000Y-85125000I0J-250000D01*
G01*
X177725000Y-85800000D01*
G75*
G02*
X177475000Y-86050000I-250000J0D01*
G01*
X176525000Y-86050000D01*
G75*
G02*
X176275000Y-85800000I0J250000D01*
G01*
X176275000Y-85125000D01*
G75*
G02*
X176525000Y-84875000I250000J0D01*
G01*
G37*
G36*
G01*
X176525000Y-86950000D02*
X177475000Y-86950000D01*
G75*
G02*
X177725000Y-87200000I0J-250000D01*
G01*
X177725000Y-87875000D01*
G75*
G02*
X177475000Y-88125000I-250000J0D01*
G01*
X176525000Y-88125000D01*
G75*
G02*
X176275000Y-87875000I0J250000D01*
G01*
X176275000Y-87200000D01*
G75*
G02*
X176525000Y-86950000I250000J0D01*
G01*
G37*
X178150000Y-89550000D03*
X178150000Y-90500000D03*
X178150000Y-91450000D03*
X180850000Y-91450000D03*
X180850000Y-89550000D03*
D12*
X122965000Y-94360000D03*
D13*
X120790000Y-94360000D03*
D12*
X122965000Y-96710000D03*
D13*
X120790000Y-96710000D03*
D14*
X125215000Y-97440000D03*
X125215000Y-96170000D03*
X125215000Y-94900000D03*
X125215000Y-93630000D03*
D15*
X119665000Y-96170000D03*
X119665000Y-94900000D03*
X119665000Y-93630000D03*
X119665000Y-97440000D03*
D11*
X115100000Y-97600000D03*
X117900000Y-97600000D03*
G36*
G01*
X144450000Y-92100000D02*
X143550000Y-92100000D01*
G75*
G02*
X143300000Y-91850000I0J250000D01*
G01*
X143300000Y-91150000D01*
G75*
G02*
X143550000Y-90900000I250000J0D01*
G01*
X144450000Y-90900000D01*
G75*
G02*
X144700000Y-91150000I0J-250000D01*
G01*
X144700000Y-91850000D01*
G75*
G02*
X144450000Y-92100000I-250000J0D01*
G01*
G37*
G36*
G01*
X144450000Y-90100000D02*
X143550000Y-90100000D01*
G75*
G02*
X143300000Y-89850000I0J250000D01*
G01*
X143300000Y-89150000D01*
G75*
G02*
X143550000Y-88900000I250000J0D01*
G01*
X144450000Y-88900000D01*
G75*
G02*
X144700000Y-89150000I0J-250000D01*
G01*
X144700000Y-89850000D01*
G75*
G02*
X144450000Y-90100000I-250000J0D01*
G01*
G37*
D16*
X163150000Y-89550000D03*
X163150000Y-90500000D03*
X163150000Y-91450000D03*
X165850000Y-91450000D03*
X165850000Y-89550000D03*
G36*
G01*
X154525000Y-76622500D02*
X155475000Y-76622500D01*
G75*
G02*
X155725000Y-76872500I0J-250000D01*
G01*
X155725000Y-77547500D01*
G75*
G02*
X155475000Y-77797500I-250000J0D01*
G01*
X154525000Y-77797500D01*
G75*
G02*
X154275000Y-77547500I0J250000D01*
G01*
X154275000Y-76872500D01*
G75*
G02*
X154525000Y-76622500I250000J0D01*
G01*
G37*
G36*
G01*
X154525000Y-78697500D02*
X155475000Y-78697500D01*
G75*
G02*
X155725000Y-78947500I0J-250000D01*
G01*
X155725000Y-79622500D01*
G75*
G02*
X155475000Y-79872500I-250000J0D01*
G01*
X154525000Y-79872500D01*
G75*
G02*
X154275000Y-79622500I0J250000D01*
G01*
X154275000Y-78947500D01*
G75*
G02*
X154525000Y-78697500I250000J0D01*
G01*
G37*
G36*
G01*
X174450000Y-92100000D02*
X173550000Y-92100000D01*
G75*
G02*
X173300000Y-91850000I0J250000D01*
G01*
X173300000Y-91150000D01*
G75*
G02*
X173550000Y-90900000I250000J0D01*
G01*
X174450000Y-90900000D01*
G75*
G02*
X174700000Y-91150000I0J-250000D01*
G01*
X174700000Y-91850000D01*
G75*
G02*
X174450000Y-92100000I-250000J0D01*
G01*
G37*
G36*
G01*
X174450000Y-90100000D02*
X173550000Y-90100000D01*
G75*
G02*
X173300000Y-89850000I0J250000D01*
G01*
X173300000Y-89150000D01*
G75*
G02*
X173550000Y-88900000I250000J0D01*
G01*
X174450000Y-88900000D01*
G75*
G02*
X174700000Y-89150000I0J-250000D01*
G01*
X174700000Y-89850000D01*
G75*
G02*
X174450000Y-90100000I-250000J0D01*
G01*
G37*
G36*
G01*
X150775000Y-78625000D02*
X151725000Y-78625000D01*
G75*
G02*
X151975000Y-78875000I0J-250000D01*
G01*
X151975000Y-79550000D01*
G75*
G02*
X151725000Y-79800000I-250000J0D01*
G01*
X150775000Y-79800000D01*
G75*
G02*
X150525000Y-79550000I0J250000D01*
G01*
X150525000Y-78875000D01*
G75*
G02*
X150775000Y-78625000I250000J0D01*
G01*
G37*
G36*
G01*
X150775000Y-80700000D02*
X151725000Y-80700000D01*
G75*
G02*
X151975000Y-80950000I0J-250000D01*
G01*
X151975000Y-81625000D01*
G75*
G02*
X151725000Y-81875000I-250000J0D01*
G01*
X150775000Y-81875000D01*
G75*
G02*
X150525000Y-81625000I0J250000D01*
G01*
X150525000Y-80950000D01*
G75*
G02*
X150775000Y-80700000I250000J0D01*
G01*
G37*
G36*
G01*
X123475000Y-88125000D02*
X122525000Y-88125000D01*
G75*
G02*
X122275000Y-87875000I0J250000D01*
G01*
X122275000Y-87200000D01*
G75*
G02*
X122525000Y-86950000I250000J0D01*
G01*
X123475000Y-86950000D01*
G75*
G02*
X123725000Y-87200000I0J-250000D01*
G01*
X123725000Y-87875000D01*
G75*
G02*
X123475000Y-88125000I-250000J0D01*
G01*
G37*
G36*
G01*
X123475000Y-86050000D02*
X122525000Y-86050000D01*
G75*
G02*
X122275000Y-85800000I0J250000D01*
G01*
X122275000Y-85125000D01*
G75*
G02*
X122525000Y-84875000I250000J0D01*
G01*
X123475000Y-84875000D01*
G75*
G02*
X123725000Y-85125000I0J-250000D01*
G01*
X123725000Y-85800000D01*
G75*
G02*
X123475000Y-86050000I-250000J0D01*
G01*
G37*
D17*
X173250000Y-87500000D03*
X173750000Y-87500000D03*
X174250000Y-87500000D03*
X174250000Y-86000000D03*
X173750000Y-86000000D03*
X173250000Y-86000000D03*
M02*
