M48
; FORMAT={-:-/ absolute / metric / decimal}
; #@! TF.GenerationSoftware,Kicad,Pcbnew,6.0.10+dfsg-1~bpo11+1
; #@! TF.FileFunction,Plated,1,2,PTH
FMAT,2
METRIC
; #@! TA.AperFunction,Plated,PTH,ViaDrill
T1C0.300
; #@! TA.AperFunction,Plated,PTH,ComponentDrill
T2C0.500
; #@! TA.AperFunction,Plated,PTH,ComponentDrill
T3C1.000
; #@! TA.AperFunction,Plated,PTH,ComponentDrill
T4C1.600
; #@! TA.AperFunction,Plated,PTH,ComponentDrill
T5C2.700
; #@! TA.AperFunction,Plated,PTH,ComponentDrill
T6C3.200
%
G90
G05
T1
X126.0Y-71.5
X126.0Y-77.0
X126.0Y-82.5
X126.0Y-88.0
X128.75Y-69.25
X128.75Y-74.75
X128.75Y-80.25
X128.75Y-85.75
X132.0Y-104.0
X132.0Y-105.0
X132.0Y-106.0
X133.0Y-68.0
X133.25Y-92.75
X133.5Y-70.5
X133.5Y-72.5
X133.5Y-76.0
X133.5Y-78.0
X133.5Y-81.5
X133.5Y-83.5
X133.5Y-87.0
X133.5Y-89.0
X135.25Y-82.5
X135.25Y-86.5
X135.299Y-84.5
X136.25Y-96.0
X139.0Y-101.25
X139.463Y-61.0
X139.463Y-76.0
X139.463Y-91.0
X139.463Y-97.0
X139.463Y-106.0
X139.463Y-121.0
X139.5Y-59.0
X139.5Y-74.0
X139.5Y-82.5
X139.5Y-84.5
X139.5Y-86.5
X139.5Y-89.0
X139.5Y-104.0
X139.5Y-119.0
X140.034Y-78.467
X140.5Y-98.0
X141.25Y-101.25
X141.5Y-84.5
X141.5Y-87.751
X141.537Y-67.0
X141.537Y-97.0
X142.25Y-81.25
X142.374Y-78.25
X142.427Y-96.003
X142.5Y-62.5
X142.5Y-66.0
X148.0Y-61.0
X148.0Y-62.0
X148.0Y-63.0
X148.0Y-64.0
X148.0Y-76.0
X148.0Y-77.0
X148.0Y-78.0
X148.0Y-79.0
X148.0Y-91.0
X148.0Y-92.0
X148.0Y-93.0
X148.0Y-94.0
X148.0Y-106.0
X148.0Y-107.0
X148.0Y-108.0
X148.0Y-109.0
X148.0Y-121.0
X148.0Y-122.0
X148.0Y-123.0
X148.0Y-124.0
X149.0Y-61.0
X149.0Y-62.0
X149.0Y-63.0
X149.0Y-64.0
X149.0Y-76.0
X149.0Y-77.0
X149.0Y-78.0
X149.0Y-79.0
X149.0Y-91.0
X149.0Y-92.0
X149.0Y-93.0
X149.0Y-94.0
X149.0Y-106.0
X149.0Y-107.0
X149.0Y-108.0
X149.0Y-109.0
X149.0Y-121.0
X149.0Y-122.0
X149.0Y-123.0
X149.0Y-124.0
X149.5Y-58.0
X149.5Y-59.0
X149.5Y-73.0
X149.5Y-74.0
X149.5Y-88.0
X149.5Y-89.0
X149.5Y-103.0
X149.5Y-104.0
X149.5Y-118.0
X149.5Y-119.0
X150.0Y-61.0
X150.0Y-62.0
X150.0Y-63.0
X150.0Y-64.0
X150.0Y-76.0
X150.0Y-77.0
X150.0Y-78.0
X150.0Y-79.0
X150.0Y-91.0
X150.0Y-92.0
X150.0Y-93.0
X150.0Y-94.0
X150.0Y-106.0
X150.0Y-107.0
X150.0Y-108.0
X150.0Y-109.0
X150.0Y-121.0
X150.0Y-122.0
X150.0Y-123.0
X150.0Y-124.0
X150.5Y-58.0
X150.5Y-73.0
X150.5Y-88.0
X150.5Y-103.0
X150.5Y-118.0
X150.75Y-59.0
X150.75Y-74.0
X150.75Y-89.0
X150.75Y-104.0
X150.75Y-119.0
X151.0Y-61.0
X151.0Y-62.0
X151.0Y-63.0
X151.0Y-64.0
X151.0Y-76.0
X151.0Y-77.0
X151.0Y-78.0
X151.0Y-79.0
X151.0Y-91.0
X151.0Y-92.0
X151.0Y-93.0
X151.0Y-94.0
X151.0Y-106.0
X151.0Y-107.0
X151.0Y-108.0
X151.0Y-109.0
X151.0Y-121.0
X151.0Y-122.0
X151.0Y-123.0
X151.0Y-124.0
X151.5Y-58.0
X151.5Y-73.0
X151.5Y-88.0
X151.5Y-103.0
X151.5Y-118.0
X152.5Y-58.0
X152.5Y-59.0
X152.5Y-73.0
X152.5Y-74.0
X152.5Y-88.0
X152.5Y-89.0
X152.5Y-103.0
X152.5Y-104.0
X152.5Y-118.0
X152.5Y-119.0
X156.0Y-58.0
X156.0Y-73.0
X156.0Y-88.0
X156.0Y-103.0
X156.0Y-118.0
T2
X126.6Y-65.0
X126.6Y-95.0
X126.6Y-125.0
X127.303Y-63.303
X127.303Y-66.697
X127.303Y-93.303
X127.303Y-96.697
X127.303Y-123.303
X127.303Y-126.697
X129.0Y-62.6
X129.0Y-67.4
X129.0Y-92.6
X129.0Y-97.4
X129.0Y-122.6
X129.0Y-127.4
X130.697Y-63.303
X130.697Y-66.697
X130.697Y-93.303
X130.697Y-96.697
X130.697Y-123.303
X130.697Y-126.697
X131.4Y-65.0
X131.4Y-95.0
X131.4Y-125.0
X154.468Y-62.5
X154.468Y-67.5
X154.468Y-77.5
X154.468Y-82.5
X154.468Y-92.5
X154.468Y-97.5
X154.468Y-107.5
X154.468Y-112.5
X154.468Y-122.5
X154.468Y-127.5
X154.722Y-61.484
X154.722Y-63.516
X154.722Y-66.484
X154.722Y-68.516
X154.722Y-76.484
X154.722Y-78.516
X154.722Y-81.484
X154.722Y-83.516
X154.722Y-91.484
X154.722Y-93.516
X154.722Y-96.484
X154.722Y-98.516
X154.722Y-106.484
X154.722Y-108.516
X154.722Y-111.484
X154.722Y-113.516
X154.722Y-121.484
X154.722Y-123.516
X154.722Y-126.484
X154.722Y-128.516
X155.484Y-60.722
X155.484Y-64.278
X155.484Y-65.722
X155.484Y-69.278
X155.484Y-75.722
X155.484Y-79.278
X155.484Y-80.722
X155.484Y-84.278
X155.484Y-90.722
X155.484Y-94.278
X155.484Y-95.722
X155.484Y-99.278
X155.484Y-105.722
X155.484Y-109.278
X155.484Y-110.722
X155.484Y-114.278
X155.484Y-120.722
X155.484Y-124.278
X155.484Y-125.722
X155.484Y-129.278
X157.516Y-60.722
X157.516Y-64.278
X157.516Y-65.722
X157.516Y-69.278
X157.516Y-75.722
X157.516Y-79.278
X157.516Y-80.722
X157.516Y-84.278
X157.516Y-90.722
X157.516Y-94.278
X157.516Y-95.722
X157.516Y-99.278
X157.516Y-105.722
X157.516Y-109.278
X157.516Y-110.722
X157.516Y-114.278
X157.516Y-120.722
X157.516Y-124.278
X157.516Y-125.722
X157.516Y-129.278
X158.278Y-61.484
X158.278Y-63.516
X158.278Y-66.484
X158.278Y-68.516
X158.278Y-76.484
X158.278Y-78.516
X158.278Y-81.484
X158.278Y-83.516
X158.278Y-91.484
X158.278Y-93.516
X158.278Y-96.484
X158.278Y-98.516
X158.278Y-106.484
X158.278Y-108.516
X158.278Y-111.484
X158.278Y-113.516
X158.278Y-121.484
X158.278Y-123.516
X158.278Y-126.484
X158.278Y-128.516
X158.532Y-62.5
X158.532Y-67.5
X158.532Y-77.5
X158.532Y-82.5
X158.532Y-92.5
X158.532Y-97.5
X158.532Y-107.5
X158.532Y-112.5
X158.532Y-122.5
X158.532Y-127.5
X162.25Y-59.984
X162.25Y-62.016
X162.25Y-63.5
X162.25Y-65.5
X162.25Y-67.0
X162.25Y-69.0
X162.25Y-74.984
X162.25Y-77.016
X162.25Y-78.5
X162.25Y-80.5
X162.25Y-82.0
X162.25Y-84.0
X162.25Y-89.984
X162.25Y-92.016
X162.25Y-93.5
X162.25Y-95.5
X162.25Y-97.0
X162.25Y-99.0
X162.25Y-104.984
X162.25Y-107.016
X162.25Y-108.5
X162.25Y-110.5
X162.25Y-112.0
X162.25Y-114.0
X162.25Y-119.984
X162.25Y-122.016
X162.25Y-123.5
X162.25Y-125.5
X162.25Y-127.0
X162.25Y-129.0
X165.75Y-60.0
X165.75Y-62.016
X165.75Y-63.5
X165.75Y-65.5
X165.75Y-67.0
X165.75Y-69.0
X165.75Y-75.0
X165.75Y-77.016
X165.75Y-78.5
X165.75Y-80.5
X165.75Y-82.0
X165.75Y-84.0
X165.75Y-90.0
X165.75Y-92.016
X165.75Y-93.5
X165.75Y-95.5
X165.75Y-97.0
X165.75Y-99.0
X165.75Y-105.0
X165.75Y-107.016
X165.75Y-108.5
X165.75Y-110.5
X165.75Y-112.0
X165.75Y-114.0
X165.75Y-120.0
X165.75Y-122.016
X165.75Y-123.5
X165.75Y-125.5
X165.75Y-127.0
X165.75Y-129.0
X169.468Y-62.5
X169.468Y-67.5
X169.468Y-77.5
X169.468Y-82.5
X169.468Y-92.5
X169.468Y-97.5
X169.468Y-107.5
X169.468Y-112.5
X169.468Y-122.5
X169.468Y-127.5
X169.722Y-61.484
X169.722Y-63.516
X169.722Y-66.484
X169.722Y-68.516
X169.722Y-76.484
X169.722Y-78.516
X169.722Y-81.484
X169.722Y-83.516
X169.722Y-91.484
X169.722Y-93.516
X169.722Y-96.484
X169.722Y-98.516
X169.722Y-106.484
X169.722Y-108.516
X169.722Y-111.484
X169.722Y-113.516
X169.722Y-121.484
X169.722Y-123.516
X169.722Y-126.484
X169.722Y-128.516
X170.484Y-60.722
X170.484Y-64.278
X170.484Y-65.722
X170.484Y-69.278
X170.484Y-75.722
X170.484Y-79.278
X170.484Y-80.722
X170.484Y-84.278
X170.484Y-90.722
X170.484Y-94.278
X170.484Y-95.722
X170.484Y-99.278
X170.484Y-105.722
X170.484Y-109.278
X170.484Y-110.722
X170.484Y-114.278
X170.484Y-120.722
X170.484Y-124.278
X170.484Y-125.722
X170.484Y-129.278
X172.516Y-60.722
X172.516Y-64.278
X172.516Y-65.722
X172.516Y-69.278
X172.516Y-75.722
X172.516Y-79.278
X172.516Y-80.722
X172.516Y-84.278
X172.516Y-90.722
X172.516Y-94.278
X172.516Y-95.722
X172.516Y-99.278
X172.516Y-105.722
X172.516Y-109.278
X172.516Y-110.722
X172.516Y-114.278
X172.516Y-120.722
X172.516Y-124.278
X172.516Y-125.722
X172.516Y-129.278
X173.278Y-61.484
X173.278Y-63.516
X173.278Y-66.484
X173.278Y-68.516
X173.278Y-76.484
X173.278Y-78.516
X173.278Y-81.484
X173.278Y-83.516
X173.278Y-91.484
X173.278Y-93.516
X173.278Y-96.484
X173.278Y-98.516
X173.278Y-106.484
X173.278Y-108.516
X173.278Y-111.484
X173.278Y-113.516
X173.278Y-121.484
X173.278Y-123.516
X173.278Y-126.484
X173.278Y-128.516
X173.532Y-62.5
X173.532Y-67.5
X173.532Y-77.5
X173.532Y-82.5
X173.532Y-92.5
X173.532Y-97.5
X173.532Y-107.5
X173.532Y-112.5
X173.532Y-122.5
X173.532Y-127.5
X176.6Y-65.0
X176.6Y-95.0
X176.6Y-125.0
X177.303Y-63.303
X177.303Y-66.697
X177.303Y-93.303
X177.303Y-96.697
X177.303Y-123.303
X177.303Y-126.697
X179.0Y-62.6
X179.0Y-67.4
X179.0Y-92.6
X179.0Y-97.4
X179.0Y-122.6
X179.0Y-127.4
X180.697Y-63.303
X180.697Y-66.697
X180.697Y-93.303
X180.697Y-96.697
X180.697Y-123.303
X180.697Y-126.697
X181.4Y-65.0
X181.4Y-95.0
X181.4Y-125.0
T3
X118.96Y-70.84
X118.96Y-73.38
X118.96Y-75.92
X118.96Y-78.46
X118.96Y-81.0
X118.96Y-83.54
X118.96Y-86.08
X118.96Y-88.62
X121.5Y-70.84
X121.5Y-73.38
X121.5Y-75.92
X121.5Y-78.46
X121.5Y-81.0
X121.5Y-83.54
X121.5Y-86.08
X121.5Y-88.62
T4
X129.0Y-58.0
T5
X156.5Y-62.5
X156.5Y-67.5
X156.5Y-77.5
X156.5Y-82.5
X156.5Y-92.5
X156.5Y-97.5
X156.5Y-107.5
X156.5Y-112.5
X156.5Y-122.5
X156.5Y-127.5
X164.0Y-61.0
X164.0Y-64.5
X164.0Y-68.0
X164.0Y-76.0
X164.0Y-79.5
X164.0Y-83.0
X164.0Y-91.0
X164.0Y-94.5
X164.0Y-98.0
X164.0Y-106.0
X164.0Y-109.5
X164.0Y-113.0
X164.0Y-121.0
X164.0Y-124.5
X164.0Y-128.0
X171.5Y-62.5
X171.5Y-67.5
X171.5Y-77.5
X171.5Y-82.5
X171.5Y-92.5
X171.5Y-97.5
X171.5Y-107.5
X171.5Y-112.5
X171.5Y-122.5
X171.5Y-127.5
T6
X129.0Y-65.0
X129.0Y-95.0
X129.0Y-125.0
X179.0Y-65.0
X179.0Y-95.0
X179.0Y-125.0
T0
M30
