M48
; FORMAT={-:-/ absolute / metric / decimal}
; #@! TF.GenerationSoftware,Kicad,Pcbnew,6.0.10+dfsg-1~bpo11+1
; #@! TF.FileFunction,Plated,1,2,PTH
FMAT,2
METRIC
; #@! TA.AperFunction,Plated,PTH,ViaDrill
T1C0.300
; #@! TA.AperFunction,Plated,PTH,ComponentDrill
T2C0.500
; #@! TA.AperFunction,Plated,PTH,ComponentDrill
T3C1.000
; #@! TA.AperFunction,Plated,PTH,ComponentDrill
T4C1.600
; #@! TA.AperFunction,Plated,PTH,ComponentDrill
T5C2.700
; #@! TA.AperFunction,Plated,PTH,ComponentDrill
T6C3.200
%
G90
G05
T1
X120.0Y-94.0
X120.0Y-95.0
X120.0Y-96.0
X120.0Y-97.0
X121.0Y-94.0
X121.0Y-95.0
X121.0Y-96.0
X121.0Y-97.0
X122.0Y-94.0
X122.0Y-95.0
X122.0Y-96.0
X122.0Y-97.0
X123.0Y-85.462
X123.0Y-94.0
X123.0Y-95.0
X123.0Y-96.0
X123.0Y-97.0
X125.0Y-85.5
X125.0Y-95.5
X125.0Y-96.75
X125.0Y-98.5
X126.0Y-95.5
X126.0Y-96.5
X126.0Y-97.5
X126.0Y-98.5
X126.0Y-102.0
X135.0Y-94.0
X135.0Y-95.0
X135.0Y-96.0
X135.0Y-97.0
X136.0Y-94.0
X136.0Y-95.0
X136.0Y-96.0
X136.0Y-97.0
X137.0Y-94.0
X137.0Y-95.0
X137.0Y-96.0
X137.0Y-97.0
X138.0Y-78.0
X138.0Y-85.462
X138.0Y-94.0
X138.0Y-95.0
X138.0Y-96.0
X138.0Y-97.0
X139.0Y-78.0
X140.0Y-78.0
X140.0Y-85.5
X140.0Y-95.5
X140.0Y-96.75
X140.0Y-98.5
X141.0Y-95.5
X141.0Y-96.5
X141.0Y-97.5
X141.0Y-98.5
X141.0Y-102.0
X142.75Y-85.0
X142.75Y-87.25
X146.0Y-86.5
X147.0Y-85.462
X147.0Y-87.537
X147.997Y-88.427
X148.0Y-82.25
X150.0Y-94.0
X150.0Y-95.0
X150.0Y-96.0
X150.0Y-97.0
X151.0Y-94.0
X151.0Y-95.0
X151.0Y-96.0
X151.0Y-97.0
X151.25Y-79.25
X152.0Y-94.0
X152.0Y-95.0
X152.0Y-96.0
X152.0Y-97.0
X153.0Y-85.462
X153.0Y-94.0
X153.0Y-95.0
X153.0Y-96.0
X153.0Y-97.0
X155.0Y-79.5
X155.0Y-85.5
X155.0Y-95.5
X155.0Y-96.75
X155.0Y-98.5
X156.0Y-72.0
X156.0Y-95.5
X156.0Y-96.5
X156.0Y-97.5
X156.0Y-98.5
X156.0Y-102.0
X156.249Y-87.5
X157.0Y-79.5
X157.5Y-81.25
X157.5Y-85.5
X158.25Y-74.75
X159.5Y-81.299
X159.5Y-85.5
X159.5Y-87.5
X160.5Y-79.5
X161.5Y-72.0
X161.5Y-81.25
X161.5Y-85.5
X162.5Y-79.5
X162.75Y-88.25
X163.75Y-74.75
X165.0Y-94.0
X165.0Y-95.0
X165.0Y-96.0
X165.0Y-97.0
X165.533Y-86.034
X165.75Y-88.374
X166.0Y-79.5
X166.0Y-94.0
X166.0Y-95.0
X166.0Y-96.0
X166.0Y-97.0
X167.0Y-72.0
X167.0Y-94.0
X167.0Y-95.0
X167.0Y-96.0
X167.0Y-97.0
X168.0Y-79.5
X168.0Y-85.462
X168.0Y-94.0
X168.0Y-95.0
X168.0Y-96.0
X168.0Y-97.0
X169.25Y-74.75
X170.0Y-85.5
X170.0Y-95.5
X170.0Y-96.75
X170.0Y-98.5
X171.0Y-95.5
X171.0Y-96.5
X171.0Y-97.5
X171.0Y-98.5
X171.0Y-102.0
X171.5Y-79.5
X172.5Y-72.0
X173.5Y-79.5
X174.75Y-74.75
X176.0Y-79.0
X177.0Y-87.537
X178.0Y-88.5
X180.0Y-94.0
X180.0Y-95.0
X180.0Y-96.0
X180.0Y-97.0
X181.0Y-94.0
X181.0Y-95.0
X181.0Y-96.0
X181.0Y-97.0
X181.5Y-88.5
X182.0Y-94.0
X182.0Y-95.0
X182.0Y-96.0
X182.0Y-97.0
X183.0Y-85.462
X183.0Y-94.0
X183.0Y-95.0
X183.0Y-96.0
X183.0Y-97.0
X185.0Y-85.5
X185.0Y-95.5
X185.0Y-96.75
X185.0Y-98.5
X186.0Y-95.5
X186.0Y-96.5
X186.0Y-97.5
X186.0Y-98.5
X186.0Y-102.0
T2
X114.722Y-101.484
X114.722Y-103.516
X114.722Y-116.484
X114.722Y-118.516
X115.0Y-108.25
X115.0Y-111.75
X115.484Y-100.722
X115.484Y-104.278
X115.484Y-115.722
X115.484Y-119.278
X116.5Y-100.468
X116.5Y-104.532
X116.5Y-115.468
X116.5Y-119.532
X116.6Y-75.0
X116.6Y-125.0
X117.0Y-108.25
X117.0Y-111.75
X117.303Y-73.303
X117.303Y-76.697
X117.303Y-123.303
X117.303Y-126.697
X117.516Y-100.722
X117.516Y-104.278
X117.516Y-115.722
X117.516Y-119.278
X118.278Y-101.484
X118.278Y-103.516
X118.278Y-116.484
X118.278Y-118.516
X118.5Y-108.25
X118.5Y-111.75
X119.0Y-72.6
X119.0Y-77.4
X119.0Y-122.6
X119.0Y-127.4
X119.722Y-101.484
X119.722Y-103.516
X119.722Y-116.484
X119.722Y-118.516
X120.484Y-100.722
X120.484Y-104.278
X120.484Y-115.722
X120.484Y-119.278
X120.5Y-108.25
X120.5Y-111.75
X120.697Y-73.303
X120.697Y-76.697
X120.697Y-123.303
X120.697Y-126.697
X121.4Y-75.0
X121.4Y-125.0
X121.5Y-100.468
X121.5Y-104.532
X121.5Y-115.468
X121.5Y-119.532
X121.984Y-108.25
X121.984Y-111.75
X122.516Y-100.722
X122.516Y-104.278
X122.516Y-115.722
X122.516Y-119.278
X123.278Y-101.484
X123.278Y-103.516
X123.278Y-116.484
X123.278Y-118.516
X124.0Y-111.75
X124.016Y-108.25
X129.722Y-101.484
X129.722Y-103.516
X129.722Y-116.484
X129.722Y-118.516
X130.0Y-108.25
X130.0Y-111.75
X130.484Y-100.722
X130.484Y-104.278
X130.484Y-115.722
X130.484Y-119.278
X131.5Y-100.468
X131.5Y-104.532
X131.5Y-115.468
X131.5Y-119.532
X132.0Y-108.25
X132.0Y-111.75
X132.516Y-100.722
X132.516Y-104.278
X132.516Y-115.722
X132.516Y-119.278
X133.278Y-101.484
X133.278Y-103.516
X133.278Y-116.484
X133.278Y-118.516
X133.5Y-108.25
X133.5Y-111.75
X134.722Y-101.484
X134.722Y-103.516
X134.722Y-116.484
X134.722Y-118.516
X135.484Y-100.722
X135.484Y-104.278
X135.484Y-115.722
X135.484Y-119.278
X135.5Y-108.25
X135.5Y-111.75
X136.5Y-100.468
X136.5Y-104.532
X136.5Y-115.468
X136.5Y-119.532
X136.984Y-108.25
X136.984Y-111.75
X137.516Y-100.722
X137.516Y-104.278
X137.516Y-115.722
X137.516Y-119.278
X138.278Y-101.484
X138.278Y-103.516
X138.278Y-116.484
X138.278Y-118.516
X139.0Y-111.75
X139.016Y-108.25
X144.722Y-101.484
X144.722Y-103.516
X144.722Y-116.484
X144.722Y-118.516
X145.0Y-108.25
X145.0Y-111.75
X145.484Y-100.722
X145.484Y-104.278
X145.484Y-115.722
X145.484Y-119.278
X146.5Y-100.468
X146.5Y-104.532
X146.5Y-115.468
X146.5Y-119.532
X146.6Y-75.0
X146.6Y-125.0
X147.0Y-108.25
X147.0Y-111.75
X147.303Y-73.303
X147.303Y-76.697
X147.303Y-123.303
X147.303Y-126.697
X147.516Y-100.722
X147.516Y-104.278
X147.516Y-115.722
X147.516Y-119.278
X148.278Y-101.484
X148.278Y-103.516
X148.278Y-116.484
X148.278Y-118.516
X148.5Y-108.25
X148.5Y-111.75
X149.0Y-72.6
X149.0Y-77.4
X149.0Y-122.6
X149.0Y-127.4
X149.722Y-101.484
X149.722Y-103.516
X149.722Y-116.484
X149.722Y-118.516
X150.484Y-100.722
X150.484Y-104.278
X150.484Y-115.722
X150.484Y-119.278
X150.5Y-108.25
X150.5Y-111.75
X150.697Y-73.303
X150.697Y-76.697
X150.697Y-123.303
X150.697Y-126.697
X151.4Y-75.0
X151.4Y-125.0
X151.5Y-100.468
X151.5Y-104.532
X151.5Y-115.468
X151.5Y-119.532
X151.984Y-108.25
X151.984Y-111.75
X152.516Y-100.722
X152.516Y-104.278
X152.516Y-115.722
X152.516Y-119.278
X153.278Y-101.484
X153.278Y-103.516
X153.278Y-116.484
X153.278Y-118.516
X154.0Y-111.75
X154.016Y-108.25
X159.722Y-101.484
X159.722Y-103.516
X159.722Y-116.484
X159.722Y-118.516
X160.0Y-108.25
X160.0Y-111.75
X160.484Y-100.722
X160.484Y-104.278
X160.484Y-115.722
X160.484Y-119.278
X161.5Y-100.468
X161.5Y-104.532
X161.5Y-115.468
X161.5Y-119.532
X162.0Y-108.25
X162.0Y-111.75
X162.516Y-100.722
X162.516Y-104.278
X162.516Y-115.722
X162.516Y-119.278
X163.278Y-101.484
X163.278Y-103.516
X163.278Y-116.484
X163.278Y-118.516
X163.5Y-108.25
X163.5Y-111.75
X164.722Y-101.484
X164.722Y-103.516
X164.722Y-116.484
X164.722Y-118.516
X165.484Y-100.722
X165.484Y-104.278
X165.484Y-115.722
X165.484Y-119.278
X165.5Y-108.25
X165.5Y-111.75
X166.5Y-100.468
X166.5Y-104.532
X166.5Y-115.468
X166.5Y-119.532
X166.984Y-108.25
X166.984Y-111.75
X167.516Y-100.722
X167.516Y-104.278
X167.516Y-115.722
X167.516Y-119.278
X168.278Y-101.484
X168.278Y-103.516
X168.278Y-116.484
X168.278Y-118.516
X169.0Y-111.75
X169.016Y-108.25
X174.722Y-101.484
X174.722Y-103.516
X174.722Y-116.484
X174.722Y-118.516
X175.0Y-108.25
X175.0Y-111.75
X175.484Y-100.722
X175.484Y-104.278
X175.484Y-115.722
X175.484Y-119.278
X176.5Y-100.468
X176.5Y-104.532
X176.5Y-115.468
X176.5Y-119.532
X176.6Y-75.0
X176.6Y-125.0
X177.0Y-108.25
X177.0Y-111.75
X177.303Y-73.303
X177.303Y-76.697
X177.303Y-123.303
X177.303Y-126.697
X177.516Y-100.722
X177.516Y-104.278
X177.516Y-115.722
X177.516Y-119.278
X178.278Y-101.484
X178.278Y-103.516
X178.278Y-116.484
X178.278Y-118.516
X178.5Y-108.25
X178.5Y-111.75
X179.0Y-72.6
X179.0Y-77.4
X179.0Y-122.6
X179.0Y-127.4
X179.722Y-101.484
X179.722Y-103.516
X179.722Y-116.484
X179.722Y-118.516
X180.484Y-100.722
X180.484Y-104.278
X180.484Y-115.722
X180.484Y-119.278
X180.5Y-108.25
X180.5Y-111.75
X180.697Y-73.303
X180.697Y-76.697
X180.697Y-123.303
X180.697Y-126.697
X181.4Y-75.0
X181.4Y-125.0
X181.5Y-100.468
X181.5Y-104.532
X181.5Y-115.468
X181.5Y-119.532
X181.984Y-108.25
X181.984Y-111.75
X182.516Y-100.722
X182.516Y-104.278
X182.516Y-115.722
X182.516Y-119.278
X183.278Y-101.484
X183.278Y-103.516
X183.278Y-116.484
X183.278Y-118.516
X184.0Y-111.75
X184.016Y-108.25
T3
X155.38Y-64.96
X155.38Y-67.5
X157.92Y-64.96
X157.92Y-67.5
X160.46Y-64.96
X160.46Y-67.5
X163.0Y-64.96
X163.0Y-67.5
X165.54Y-64.96
X165.54Y-67.5
X168.08Y-64.96
X168.08Y-67.5
X170.62Y-64.96
X170.62Y-67.5
X173.16Y-64.96
X173.16Y-67.5
T4
X186.0Y-75.0
T5
X116.0Y-110.0
X116.5Y-102.5
X116.5Y-117.5
X119.5Y-110.0
X121.5Y-102.5
X121.5Y-117.5
X123.0Y-110.0
X131.0Y-110.0
X131.5Y-102.5
X131.5Y-117.5
X134.5Y-110.0
X136.5Y-102.5
X136.5Y-117.5
X138.0Y-110.0
X146.0Y-110.0
X146.5Y-102.5
X146.5Y-117.5
X149.5Y-110.0
X151.5Y-102.5
X151.5Y-117.5
X153.0Y-110.0
X161.0Y-110.0
X161.5Y-102.5
X161.5Y-117.5
X164.5Y-110.0
X166.5Y-102.5
X166.5Y-117.5
X168.0Y-110.0
X176.0Y-110.0
X176.5Y-102.5
X176.5Y-117.5
X179.5Y-110.0
X181.5Y-102.5
X181.5Y-117.5
X183.0Y-110.0
T6
X119.0Y-75.0
X119.0Y-125.0
X149.0Y-75.0
X149.0Y-125.0
X179.0Y-75.0
X179.0Y-125.0
T0
M30
