G04 #@! TF.GenerationSoftware,KiCad,Pcbnew,6.0.10+dfsg-1~bpo11+1*
G04 #@! TF.ProjectId,pwr,7077722e-6b69-4636-9164-5f7063625858,rev?*
G04 #@! TF.SameCoordinates,Original*
G04 #@! TF.FileFunction,Legend,Bot*
G04 #@! TF.FilePolarity,Positive*
%FSLAX46Y46*%
G04 Gerber Fmt 4.6, Leading zero omitted, Abs format (unit mm)*
%MOMM*%
%LPD*%
G01*
G04 APERTURE LIST*
G04 #@! TA.AperFunction,Profile*
%ADD10C,0.100000*%
G04 #@! TD*
%ADD11C,0.300000*%
%ADD12C,0.150000*%
%ADD13C,0.120000*%
%ADD14C,0.800000*%
%ADD15C,6.400000*%
%ADD16C,0.700000*%
%ADD17C,3.000000*%
%ADD18C,1.700000*%
%ADD19R,0.640000X1.900000*%
G04 APERTURE END LIST*
D10*
X184000000Y-130000000D02*
G75*
G03*
X189000000Y-125000000I0J5000000D01*
G01*
X111500000Y-125000000D02*
G75*
G03*
X116500000Y-130000000I5000000J0D01*
G01*
X116500000Y-55000000D02*
X184000000Y-55000000D01*
X111500000Y-125000000D02*
X111500000Y-60000000D01*
X189000000Y-60000000D02*
G75*
G03*
X184000000Y-55000000I-5000000J0D01*
G01*
X184000000Y-130000000D02*
X116500000Y-130000000D01*
X116500000Y-55000000D02*
G75*
G03*
X111500000Y-60000000I0J-5000000D01*
G01*
X189000000Y-60000000D02*
X189000000Y-125000000D01*
D11*
X173816000Y-61585952D02*
X173892190Y-61738333D01*
X173892190Y-61966904D01*
X173816000Y-62195476D01*
X173663619Y-62347857D01*
X173511238Y-62424047D01*
X173206476Y-62500238D01*
X172977904Y-62500238D01*
X172673142Y-62424047D01*
X172520761Y-62347857D01*
X172368380Y-62195476D01*
X172292190Y-61966904D01*
X172292190Y-61814523D01*
X172368380Y-61585952D01*
X172444571Y-61509761D01*
X172977904Y-61509761D01*
X172977904Y-61814523D01*
X172292190Y-60824047D02*
X173892190Y-60824047D01*
X172292190Y-59909761D01*
X173892190Y-59909761D01*
X172292190Y-59147857D02*
X173892190Y-59147857D01*
X173892190Y-58766904D01*
X173816000Y-58538333D01*
X173663619Y-58385952D01*
X173511238Y-58309761D01*
X173206476Y-58233571D01*
X172977904Y-58233571D01*
X172673142Y-58309761D01*
X172520761Y-58385952D01*
X172368380Y-58538333D01*
X172292190Y-58766904D01*
X172292190Y-59147857D01*
X171240000Y-61585952D02*
X171316190Y-61738333D01*
X171316190Y-61966904D01*
X171240000Y-62195476D01*
X171087619Y-62347857D01*
X170935238Y-62424047D01*
X170630476Y-62500238D01*
X170401904Y-62500238D01*
X170097142Y-62424047D01*
X169944761Y-62347857D01*
X169792380Y-62195476D01*
X169716190Y-61966904D01*
X169716190Y-61814523D01*
X169792380Y-61585952D01*
X169868571Y-61509761D01*
X170401904Y-61509761D01*
X170401904Y-61814523D01*
X169716190Y-60824047D02*
X171316190Y-60824047D01*
X169716190Y-59909761D01*
X171316190Y-59909761D01*
X169716190Y-59147857D02*
X171316190Y-59147857D01*
X171316190Y-58766904D01*
X171240000Y-58538333D01*
X171087619Y-58385952D01*
X170935238Y-58309761D01*
X170630476Y-58233571D01*
X170401904Y-58233571D01*
X170097142Y-58309761D01*
X169944761Y-58385952D01*
X169792380Y-58538333D01*
X169716190Y-58766904D01*
X169716190Y-59147857D01*
X168664000Y-61585952D02*
X168740190Y-61738333D01*
X168740190Y-61966904D01*
X168664000Y-62195476D01*
X168511619Y-62347857D01*
X168359238Y-62424047D01*
X168054476Y-62500238D01*
X167825904Y-62500238D01*
X167521142Y-62424047D01*
X167368761Y-62347857D01*
X167216380Y-62195476D01*
X167140190Y-61966904D01*
X167140190Y-61814523D01*
X167216380Y-61585952D01*
X167292571Y-61509761D01*
X167825904Y-61509761D01*
X167825904Y-61814523D01*
X167140190Y-60824047D02*
X168740190Y-60824047D01*
X167140190Y-59909761D01*
X168740190Y-59909761D01*
X167140190Y-59147857D02*
X168740190Y-59147857D01*
X168740190Y-58766904D01*
X168664000Y-58538333D01*
X168511619Y-58385952D01*
X168359238Y-58309761D01*
X168054476Y-58233571D01*
X167825904Y-58233571D01*
X167521142Y-58309761D01*
X167368761Y-58385952D01*
X167216380Y-58538333D01*
X167140190Y-58766904D01*
X167140190Y-59147857D01*
X166088000Y-61585952D02*
X166164190Y-61738333D01*
X166164190Y-61966904D01*
X166088000Y-62195476D01*
X165935619Y-62347857D01*
X165783238Y-62424047D01*
X165478476Y-62500238D01*
X165249904Y-62500238D01*
X164945142Y-62424047D01*
X164792761Y-62347857D01*
X164640380Y-62195476D01*
X164564190Y-61966904D01*
X164564190Y-61814523D01*
X164640380Y-61585952D01*
X164716571Y-61509761D01*
X165249904Y-61509761D01*
X165249904Y-61814523D01*
X164564190Y-60824047D02*
X166164190Y-60824047D01*
X164564190Y-59909761D01*
X166164190Y-59909761D01*
X164564190Y-59147857D02*
X166164190Y-59147857D01*
X166164190Y-58766904D01*
X166088000Y-58538333D01*
X165935619Y-58385952D01*
X165783238Y-58309761D01*
X165478476Y-58233571D01*
X165249904Y-58233571D01*
X164945142Y-58309761D01*
X164792761Y-58385952D01*
X164640380Y-58538333D01*
X164564190Y-58766904D01*
X164564190Y-59147857D01*
X163512000Y-61585952D02*
X163588190Y-61738333D01*
X163588190Y-61966904D01*
X163512000Y-62195476D01*
X163359619Y-62347857D01*
X163207238Y-62424047D01*
X162902476Y-62500238D01*
X162673904Y-62500238D01*
X162369142Y-62424047D01*
X162216761Y-62347857D01*
X162064380Y-62195476D01*
X161988190Y-61966904D01*
X161988190Y-61814523D01*
X162064380Y-61585952D01*
X162140571Y-61509761D01*
X162673904Y-61509761D01*
X162673904Y-61814523D01*
X161988190Y-60824047D02*
X163588190Y-60824047D01*
X161988190Y-59909761D01*
X163588190Y-59909761D01*
X161988190Y-59147857D02*
X163588190Y-59147857D01*
X163588190Y-58766904D01*
X163512000Y-58538333D01*
X163359619Y-58385952D01*
X163207238Y-58309761D01*
X162902476Y-58233571D01*
X162673904Y-58233571D01*
X162369142Y-58309761D01*
X162216761Y-58385952D01*
X162064380Y-58538333D01*
X161988190Y-58766904D01*
X161988190Y-59147857D01*
X160936000Y-61585952D02*
X161012190Y-61738333D01*
X161012190Y-61966904D01*
X160936000Y-62195476D01*
X160783619Y-62347857D01*
X160631238Y-62424047D01*
X160326476Y-62500238D01*
X160097904Y-62500238D01*
X159793142Y-62424047D01*
X159640761Y-62347857D01*
X159488380Y-62195476D01*
X159412190Y-61966904D01*
X159412190Y-61814523D01*
X159488380Y-61585952D01*
X159564571Y-61509761D01*
X160097904Y-61509761D01*
X160097904Y-61814523D01*
X159412190Y-60824047D02*
X161012190Y-60824047D01*
X159412190Y-59909761D01*
X161012190Y-59909761D01*
X159412190Y-59147857D02*
X161012190Y-59147857D01*
X161012190Y-58766904D01*
X160936000Y-58538333D01*
X160783619Y-58385952D01*
X160631238Y-58309761D01*
X160326476Y-58233571D01*
X160097904Y-58233571D01*
X159793142Y-58309761D01*
X159640761Y-58385952D01*
X159488380Y-58538333D01*
X159412190Y-58766904D01*
X159412190Y-59147857D01*
X158360000Y-61585952D02*
X158436190Y-61738333D01*
X158436190Y-61966904D01*
X158360000Y-62195476D01*
X158207619Y-62347857D01*
X158055238Y-62424047D01*
X157750476Y-62500238D01*
X157521904Y-62500238D01*
X157217142Y-62424047D01*
X157064761Y-62347857D01*
X156912380Y-62195476D01*
X156836190Y-61966904D01*
X156836190Y-61814523D01*
X156912380Y-61585952D01*
X156988571Y-61509761D01*
X157521904Y-61509761D01*
X157521904Y-61814523D01*
X156836190Y-60824047D02*
X158436190Y-60824047D01*
X156836190Y-59909761D01*
X158436190Y-59909761D01*
X156836190Y-59147857D02*
X158436190Y-59147857D01*
X158436190Y-58766904D01*
X158360000Y-58538333D01*
X158207619Y-58385952D01*
X158055238Y-58309761D01*
X157750476Y-58233571D01*
X157521904Y-58233571D01*
X157217142Y-58309761D01*
X157064761Y-58385952D01*
X156912380Y-58538333D01*
X156836190Y-58766904D01*
X156836190Y-59147857D01*
X155860190Y-62576428D02*
X155860190Y-61585952D01*
X155250666Y-62119285D01*
X155250666Y-61890714D01*
X155174476Y-61738333D01*
X155098285Y-61662142D01*
X154945904Y-61585952D01*
X154564952Y-61585952D01*
X154412571Y-61662142D01*
X154336380Y-61738333D01*
X154260190Y-61890714D01*
X154260190Y-62347857D01*
X154336380Y-62500238D01*
X154412571Y-62576428D01*
X155860190Y-61128809D02*
X154260190Y-60595476D01*
X155860190Y-60062142D01*
X155860190Y-59681190D02*
X155860190Y-58690714D01*
X155250666Y-59224047D01*
X155250666Y-58995476D01*
X155174476Y-58843095D01*
X155098285Y-58766904D01*
X154945904Y-58690714D01*
X154564952Y-58690714D01*
X154412571Y-58766904D01*
X154336380Y-58843095D01*
X154260190Y-58995476D01*
X154260190Y-59452619D01*
X154336380Y-59605000D01*
X154412571Y-59681190D01*
X172292190Y-76595000D02*
X173892190Y-76595000D01*
X173892190Y-75985476D01*
X173816000Y-75833095D01*
X173739809Y-75756904D01*
X173587428Y-75680714D01*
X173358857Y-75680714D01*
X173206476Y-75756904D01*
X173130285Y-75833095D01*
X173054095Y-75985476D01*
X173054095Y-76595000D01*
X173892190Y-75147380D02*
X172292190Y-74766428D01*
X173435047Y-74461666D01*
X172292190Y-74156904D01*
X173892190Y-73775952D01*
X172292190Y-73166428D02*
X173892190Y-73166428D01*
X172749333Y-72633095D01*
X173892190Y-72099761D01*
X172292190Y-72099761D01*
X172292190Y-70499761D02*
X172292190Y-71414047D01*
X172292190Y-70956904D02*
X173892190Y-70956904D01*
X173663619Y-71109285D01*
X173511238Y-71261666D01*
X173435047Y-71414047D01*
X169716190Y-76595000D02*
X171316190Y-76595000D01*
X171316190Y-75985476D01*
X171240000Y-75833095D01*
X171163809Y-75756904D01*
X171011428Y-75680714D01*
X170782857Y-75680714D01*
X170630476Y-75756904D01*
X170554285Y-75833095D01*
X170478095Y-75985476D01*
X170478095Y-76595000D01*
X171316190Y-75147380D02*
X169716190Y-74766428D01*
X170859047Y-74461666D01*
X169716190Y-74156904D01*
X171316190Y-73775952D01*
X169716190Y-73166428D02*
X171316190Y-73166428D01*
X170173333Y-72633095D01*
X171316190Y-72099761D01*
X169716190Y-72099761D01*
X171163809Y-71414047D02*
X171240000Y-71337857D01*
X171316190Y-71185476D01*
X171316190Y-70804523D01*
X171240000Y-70652142D01*
X171163809Y-70575952D01*
X171011428Y-70499761D01*
X170859047Y-70499761D01*
X170630476Y-70575952D01*
X169716190Y-71490238D01*
X169716190Y-70499761D01*
X167140190Y-76595000D02*
X168740190Y-76595000D01*
X168740190Y-75985476D01*
X168664000Y-75833095D01*
X168587809Y-75756904D01*
X168435428Y-75680714D01*
X168206857Y-75680714D01*
X168054476Y-75756904D01*
X167978285Y-75833095D01*
X167902095Y-75985476D01*
X167902095Y-76595000D01*
X168740190Y-75147380D02*
X167140190Y-74766428D01*
X168283047Y-74461666D01*
X167140190Y-74156904D01*
X168740190Y-73775952D01*
X167140190Y-73166428D02*
X168740190Y-73166428D01*
X167597333Y-72633095D01*
X168740190Y-72099761D01*
X167140190Y-72099761D01*
X168740190Y-71490238D02*
X168740190Y-70499761D01*
X168130666Y-71033095D01*
X168130666Y-70804523D01*
X168054476Y-70652142D01*
X167978285Y-70575952D01*
X167825904Y-70499761D01*
X167444952Y-70499761D01*
X167292571Y-70575952D01*
X167216380Y-70652142D01*
X167140190Y-70804523D01*
X167140190Y-71261666D01*
X167216380Y-71414047D01*
X167292571Y-71490238D01*
X164564190Y-76595000D02*
X166164190Y-76595000D01*
X166164190Y-75985476D01*
X166088000Y-75833095D01*
X166011809Y-75756904D01*
X165859428Y-75680714D01*
X165630857Y-75680714D01*
X165478476Y-75756904D01*
X165402285Y-75833095D01*
X165326095Y-75985476D01*
X165326095Y-76595000D01*
X166164190Y-75147380D02*
X164564190Y-74766428D01*
X165707047Y-74461666D01*
X164564190Y-74156904D01*
X166164190Y-73775952D01*
X164564190Y-73166428D02*
X166164190Y-73166428D01*
X165021333Y-72633095D01*
X166164190Y-72099761D01*
X164564190Y-72099761D01*
X165630857Y-70652142D02*
X164564190Y-70652142D01*
X166240380Y-71033095D02*
X165097523Y-71414047D01*
X165097523Y-70423571D01*
X161988190Y-76595000D02*
X163588190Y-76595000D01*
X163588190Y-75985476D01*
X163512000Y-75833095D01*
X163435809Y-75756904D01*
X163283428Y-75680714D01*
X163054857Y-75680714D01*
X162902476Y-75756904D01*
X162826285Y-75833095D01*
X162750095Y-75985476D01*
X162750095Y-76595000D01*
X163588190Y-75147380D02*
X161988190Y-74766428D01*
X163131047Y-74461666D01*
X161988190Y-74156904D01*
X163588190Y-73775952D01*
X161988190Y-73166428D02*
X163588190Y-73166428D01*
X162445333Y-72633095D01*
X163588190Y-72099761D01*
X161988190Y-72099761D01*
X163588190Y-70575952D02*
X163588190Y-71337857D01*
X162826285Y-71414047D01*
X162902476Y-71337857D01*
X162978666Y-71185476D01*
X162978666Y-70804523D01*
X162902476Y-70652142D01*
X162826285Y-70575952D01*
X162673904Y-70499761D01*
X162292952Y-70499761D01*
X162140571Y-70575952D01*
X162064380Y-70652142D01*
X161988190Y-70804523D01*
X161988190Y-71185476D01*
X162064380Y-71337857D01*
X162140571Y-71414047D01*
X159869333Y-76823571D02*
X159869333Y-76061666D01*
X159412190Y-76975952D02*
X161012190Y-76442619D01*
X159412190Y-75909285D01*
X159412190Y-74614047D02*
X159412190Y-75375952D01*
X161012190Y-75375952D01*
X160250285Y-74080714D02*
X160250285Y-73547380D01*
X159412190Y-73318809D02*
X159412190Y-74080714D01*
X161012190Y-74080714D01*
X161012190Y-73318809D01*
X159412190Y-71718809D02*
X160174095Y-72252142D01*
X159412190Y-72633095D02*
X161012190Y-72633095D01*
X161012190Y-72023571D01*
X160936000Y-71871190D01*
X160859809Y-71795000D01*
X160707428Y-71718809D01*
X160478857Y-71718809D01*
X160326476Y-71795000D01*
X160250285Y-71871190D01*
X160174095Y-72023571D01*
X160174095Y-72633095D01*
X161012190Y-71261666D02*
X161012190Y-70347380D01*
X159412190Y-70804523D02*
X161012190Y-70804523D01*
X156912380Y-74385476D02*
X156836190Y-74156904D01*
X156836190Y-73775952D01*
X156912380Y-73623571D01*
X156988571Y-73547380D01*
X157140952Y-73471190D01*
X157293333Y-73471190D01*
X157445714Y-73547380D01*
X157521904Y-73623571D01*
X157598095Y-73775952D01*
X157674285Y-74080714D01*
X157750476Y-74233095D01*
X157826666Y-74309285D01*
X157979047Y-74385476D01*
X158131428Y-74385476D01*
X158283809Y-74309285D01*
X158360000Y-74233095D01*
X158436190Y-74080714D01*
X158436190Y-73699761D01*
X158360000Y-73471190D01*
X156836190Y-72785476D02*
X158436190Y-72785476D01*
X158436190Y-72404523D01*
X158360000Y-72175952D01*
X158207619Y-72023571D01*
X158055238Y-71947380D01*
X157750476Y-71871190D01*
X157521904Y-71871190D01*
X157217142Y-71947380D01*
X157064761Y-72023571D01*
X156912380Y-72175952D01*
X156836190Y-72404523D01*
X156836190Y-72785476D01*
X157293333Y-71261666D02*
X157293333Y-70499761D01*
X156836190Y-71414047D02*
X158436190Y-70880714D01*
X156836190Y-70347380D01*
X154336380Y-74309285D02*
X154260190Y-74080714D01*
X154260190Y-73699761D01*
X154336380Y-73547380D01*
X154412571Y-73471190D01*
X154564952Y-73395000D01*
X154717333Y-73395000D01*
X154869714Y-73471190D01*
X154945904Y-73547380D01*
X155022095Y-73699761D01*
X155098285Y-74004523D01*
X155174476Y-74156904D01*
X155250666Y-74233095D01*
X155403047Y-74309285D01*
X155555428Y-74309285D01*
X155707809Y-74233095D01*
X155784000Y-74156904D01*
X155860190Y-74004523D01*
X155860190Y-73623571D01*
X155784000Y-73395000D01*
X154412571Y-71795000D02*
X154336380Y-71871190D01*
X154260190Y-72099761D01*
X154260190Y-72252142D01*
X154336380Y-72480714D01*
X154488761Y-72633095D01*
X154641142Y-72709285D01*
X154945904Y-72785476D01*
X155174476Y-72785476D01*
X155479238Y-72709285D01*
X155631619Y-72633095D01*
X155784000Y-72480714D01*
X155860190Y-72252142D01*
X155860190Y-72099761D01*
X155784000Y-71871190D01*
X155707809Y-71795000D01*
X154260190Y-70347380D02*
X154260190Y-71109285D01*
X155860190Y-71109285D01*
D12*
X139647619Y-99061904D02*
X139647619Y-99633333D01*
X139685714Y-99747619D01*
X139761904Y-99823809D01*
X139876190Y-99861904D01*
X139952380Y-99861904D01*
X138847619Y-99861904D02*
X139304761Y-99861904D01*
X139076190Y-99861904D02*
X139076190Y-99061904D01*
X139152380Y-99176190D01*
X139228571Y-99252380D01*
X139304761Y-99290476D01*
X138580952Y-99061904D02*
X138085714Y-99061904D01*
X138352380Y-99366666D01*
X138238095Y-99366666D01*
X138161904Y-99404761D01*
X138123809Y-99442857D01*
X138085714Y-99519047D01*
X138085714Y-99709523D01*
X138123809Y-99785714D01*
X138161904Y-99823809D01*
X138238095Y-99861904D01*
X138466666Y-99861904D01*
X138542857Y-99823809D01*
X138580952Y-99785714D01*
X140571428Y-102607142D02*
X139428571Y-102607142D01*
X128571428Y-102607142D02*
X127428571Y-102607142D01*
X128000000Y-103178571D02*
X128000000Y-102035714D01*
X179266667Y-113061904D02*
X179266667Y-113633333D01*
X179304762Y-113747619D01*
X179380953Y-113823809D01*
X179495239Y-113861904D01*
X179571429Y-113861904D01*
X178923810Y-113138095D02*
X178885715Y-113100000D01*
X178809524Y-113061904D01*
X178619048Y-113061904D01*
X178542858Y-113100000D01*
X178504762Y-113138095D01*
X178466667Y-113214285D01*
X178466667Y-113290476D01*
X178504762Y-113404761D01*
X178961905Y-113861904D01*
X178466667Y-113861904D01*
X173571428Y-117607142D02*
X172428571Y-117607142D01*
X173000000Y-118178571D02*
X173000000Y-117035714D01*
X185571428Y-117607142D02*
X184428571Y-117607142D01*
X169266666Y-99061904D02*
X169266666Y-99633333D01*
X169304761Y-99747619D01*
X169380952Y-99823809D01*
X169495238Y-99861904D01*
X169571428Y-99861904D01*
X168961904Y-99061904D02*
X168428571Y-99061904D01*
X168771428Y-99861904D01*
X170571428Y-102607142D02*
X169428571Y-102607142D01*
X158571428Y-102607142D02*
X157428571Y-102607142D01*
X158000000Y-103178571D02*
X158000000Y-102035714D01*
X145796904Y-85490476D02*
X146444523Y-85490476D01*
X146520714Y-85528571D01*
X146558809Y-85566666D01*
X146596904Y-85642857D01*
X146596904Y-85795238D01*
X146558809Y-85871428D01*
X146520714Y-85909523D01*
X146444523Y-85947619D01*
X145796904Y-85947619D01*
X146596904Y-86366666D02*
X146596904Y-86519047D01*
X146558809Y-86595238D01*
X146520714Y-86633333D01*
X146406428Y-86709523D01*
X146254047Y-86747619D01*
X145949285Y-86747619D01*
X145873095Y-86709523D01*
X145835000Y-86671428D01*
X145796904Y-86595238D01*
X145796904Y-86442857D01*
X145835000Y-86366666D01*
X145873095Y-86328571D01*
X145949285Y-86290476D01*
X146139761Y-86290476D01*
X146215952Y-86328571D01*
X146254047Y-86366666D01*
X146292142Y-86442857D01*
X146292142Y-86595238D01*
X146254047Y-86671428D01*
X146215952Y-86709523D01*
X146139761Y-86747619D01*
X184266666Y-99061904D02*
X184266666Y-99633333D01*
X184304761Y-99747619D01*
X184380952Y-99823809D01*
X184495238Y-99861904D01*
X184571428Y-99861904D01*
X183542857Y-99328571D02*
X183542857Y-99861904D01*
X183733333Y-99023809D02*
X183923809Y-99595238D01*
X183428571Y-99595238D01*
X173571428Y-102607142D02*
X172428571Y-102607142D01*
X173000000Y-103178571D02*
X173000000Y-102035714D01*
X185571428Y-102607142D02*
X184428571Y-102607142D01*
X134647620Y-113061904D02*
X134647620Y-113633333D01*
X134685715Y-113747619D01*
X134761905Y-113823809D01*
X134876191Y-113861904D01*
X134952381Y-113861904D01*
X133847620Y-113861904D02*
X134304762Y-113861904D01*
X134076191Y-113861904D02*
X134076191Y-113061904D01*
X134152381Y-113176190D01*
X134228572Y-113252380D01*
X134304762Y-113290476D01*
X133085715Y-113861904D02*
X133542858Y-113861904D01*
X133314286Y-113861904D02*
X133314286Y-113061904D01*
X133390477Y-113176190D01*
X133466667Y-113252380D01*
X133542858Y-113290476D01*
X128571428Y-117607142D02*
X127428571Y-117607142D01*
X128000000Y-118178571D02*
X128000000Y-117035714D01*
X140571428Y-117607142D02*
X139428571Y-117607142D01*
X119647620Y-113061904D02*
X119647620Y-113633333D01*
X119685715Y-113747619D01*
X119761905Y-113823809D01*
X119876191Y-113861904D01*
X119952381Y-113861904D01*
X118847620Y-113861904D02*
X119304762Y-113861904D01*
X119076191Y-113861904D02*
X119076191Y-113061904D01*
X119152381Y-113176190D01*
X119228572Y-113252380D01*
X119304762Y-113290476D01*
X118161905Y-113328571D02*
X118161905Y-113861904D01*
X118352381Y-113023809D02*
X118542858Y-113595238D01*
X118047620Y-113595238D01*
X125571428Y-117607142D02*
X124428571Y-117607142D01*
X113571428Y-117607142D02*
X112428571Y-117607142D01*
X113000000Y-118178571D02*
X113000000Y-117035714D01*
X160796904Y-85490476D02*
X161444523Y-85490476D01*
X161520714Y-85528571D01*
X161558809Y-85566666D01*
X161596904Y-85642857D01*
X161596904Y-85795238D01*
X161558809Y-85871428D01*
X161520714Y-85909523D01*
X161444523Y-85947619D01*
X160796904Y-85947619D01*
X161139761Y-86442857D02*
X161101666Y-86366666D01*
X161063571Y-86328571D01*
X160987380Y-86290476D01*
X160949285Y-86290476D01*
X160873095Y-86328571D01*
X160835000Y-86366666D01*
X160796904Y-86442857D01*
X160796904Y-86595238D01*
X160835000Y-86671428D01*
X160873095Y-86709523D01*
X160949285Y-86747619D01*
X160987380Y-86747619D01*
X161063571Y-86709523D01*
X161101666Y-86671428D01*
X161139761Y-86595238D01*
X161139761Y-86442857D01*
X161177857Y-86366666D01*
X161215952Y-86328571D01*
X161292142Y-86290476D01*
X161444523Y-86290476D01*
X161520714Y-86328571D01*
X161558809Y-86366666D01*
X161596904Y-86442857D01*
X161596904Y-86595238D01*
X161558809Y-86671428D01*
X161520714Y-86709523D01*
X161444523Y-86747619D01*
X161292142Y-86747619D01*
X161215952Y-86709523D01*
X161177857Y-86671428D01*
X161139761Y-86595238D01*
X115796904Y-85109523D02*
X116444523Y-85109523D01*
X116520714Y-85147619D01*
X116558809Y-85185714D01*
X116596904Y-85261904D01*
X116596904Y-85414285D01*
X116558809Y-85490476D01*
X116520714Y-85528571D01*
X116444523Y-85566666D01*
X115796904Y-85566666D01*
X116596904Y-86366666D02*
X116596904Y-85909523D01*
X116596904Y-86138095D02*
X115796904Y-86138095D01*
X115911190Y-86061904D01*
X115987380Y-85985714D01*
X116025476Y-85909523D01*
X116596904Y-87128571D02*
X116596904Y-86671428D01*
X116596904Y-86900000D02*
X115796904Y-86900000D01*
X115911190Y-86823809D01*
X115987380Y-86747619D01*
X116025476Y-86671428D01*
X124647619Y-99061904D02*
X124647619Y-99633333D01*
X124685714Y-99747619D01*
X124761904Y-99823809D01*
X124876190Y-99861904D01*
X124952380Y-99861904D01*
X123847619Y-99861904D02*
X124304761Y-99861904D01*
X124076190Y-99861904D02*
X124076190Y-99061904D01*
X124152380Y-99176190D01*
X124228571Y-99252380D01*
X124304761Y-99290476D01*
X123161904Y-99061904D02*
X123314285Y-99061904D01*
X123390476Y-99100000D01*
X123428571Y-99138095D01*
X123504761Y-99252380D01*
X123542857Y-99404761D01*
X123542857Y-99709523D01*
X123504761Y-99785714D01*
X123466666Y-99823809D01*
X123390476Y-99861904D01*
X123238095Y-99861904D01*
X123161904Y-99823809D01*
X123123809Y-99785714D01*
X123085714Y-99709523D01*
X123085714Y-99519047D01*
X123123809Y-99442857D01*
X123161904Y-99404761D01*
X123238095Y-99366666D01*
X123390476Y-99366666D01*
X123466666Y-99404761D01*
X123504761Y-99442857D01*
X123542857Y-99519047D01*
X125571428Y-102607142D02*
X124428571Y-102607142D01*
X113571428Y-102607142D02*
X112428571Y-102607142D01*
X113000000Y-103178571D02*
X113000000Y-102035714D01*
X149266667Y-113061904D02*
X149266667Y-113633333D01*
X149304762Y-113747619D01*
X149380953Y-113823809D01*
X149495239Y-113861904D01*
X149571429Y-113861904D01*
X148771429Y-113404761D02*
X148847620Y-113366666D01*
X148885715Y-113328571D01*
X148923810Y-113252380D01*
X148923810Y-113214285D01*
X148885715Y-113138095D01*
X148847620Y-113100000D01*
X148771429Y-113061904D01*
X148619048Y-113061904D01*
X148542858Y-113100000D01*
X148504762Y-113138095D01*
X148466667Y-113214285D01*
X148466667Y-113252380D01*
X148504762Y-113328571D01*
X148542858Y-113366666D01*
X148619048Y-113404761D01*
X148771429Y-113404761D01*
X148847620Y-113442857D01*
X148885715Y-113480952D01*
X148923810Y-113557142D01*
X148923810Y-113709523D01*
X148885715Y-113785714D01*
X148847620Y-113823809D01*
X148771429Y-113861904D01*
X148619048Y-113861904D01*
X148542858Y-113823809D01*
X148504762Y-113785714D01*
X148466667Y-113709523D01*
X148466667Y-113557142D01*
X148504762Y-113480952D01*
X148542858Y-113442857D01*
X148619048Y-113404761D01*
X155571428Y-117607142D02*
X154428571Y-117607142D01*
X143571428Y-117607142D02*
X142428571Y-117607142D01*
X143000000Y-118178571D02*
X143000000Y-117035714D01*
X164266667Y-113061904D02*
X164266667Y-113633333D01*
X164304762Y-113747619D01*
X164380953Y-113823809D01*
X164495239Y-113861904D01*
X164571429Y-113861904D01*
X163504762Y-113061904D02*
X163885715Y-113061904D01*
X163923810Y-113442857D01*
X163885715Y-113404761D01*
X163809524Y-113366666D01*
X163619048Y-113366666D01*
X163542858Y-113404761D01*
X163504762Y-113442857D01*
X163466667Y-113519047D01*
X163466667Y-113709523D01*
X163504762Y-113785714D01*
X163542858Y-113823809D01*
X163619048Y-113861904D01*
X163809524Y-113861904D01*
X163885715Y-113823809D01*
X163923810Y-113785714D01*
X158571428Y-117607142D02*
X157428571Y-117607142D01*
X158000000Y-118178571D02*
X158000000Y-117035714D01*
X170571428Y-117607142D02*
X169428571Y-117607142D01*
X130796904Y-85109523D02*
X131444523Y-85109523D01*
X131520714Y-85147619D01*
X131558809Y-85185714D01*
X131596904Y-85261904D01*
X131596904Y-85414285D01*
X131558809Y-85490476D01*
X131520714Y-85528571D01*
X131444523Y-85566666D01*
X130796904Y-85566666D01*
X131596904Y-86366666D02*
X131596904Y-85909523D01*
X131596904Y-86138095D02*
X130796904Y-86138095D01*
X130911190Y-86061904D01*
X130987380Y-85985714D01*
X131025476Y-85909523D01*
X130796904Y-86861904D02*
X130796904Y-86938095D01*
X130835000Y-87014285D01*
X130873095Y-87052380D01*
X130949285Y-87090476D01*
X131101666Y-87128571D01*
X131292142Y-87128571D01*
X131444523Y-87090476D01*
X131520714Y-87052380D01*
X131558809Y-87014285D01*
X131596904Y-86938095D01*
X131596904Y-86861904D01*
X131558809Y-86785714D01*
X131520714Y-86747619D01*
X131444523Y-86709523D01*
X131292142Y-86671428D01*
X131101666Y-86671428D01*
X130949285Y-86709523D01*
X130873095Y-86747619D01*
X130835000Y-86785714D01*
X130796904Y-86861904D01*
X154647619Y-99061904D02*
X154647619Y-99633333D01*
X154685714Y-99747619D01*
X154761904Y-99823809D01*
X154876190Y-99861904D01*
X154952380Y-99861904D01*
X153847619Y-99861904D02*
X154304761Y-99861904D01*
X154076190Y-99861904D02*
X154076190Y-99061904D01*
X154152380Y-99176190D01*
X154228571Y-99252380D01*
X154304761Y-99290476D01*
X153352380Y-99061904D02*
X153276190Y-99061904D01*
X153200000Y-99100000D01*
X153161904Y-99138095D01*
X153123809Y-99214285D01*
X153085714Y-99366666D01*
X153085714Y-99557142D01*
X153123809Y-99709523D01*
X153161904Y-99785714D01*
X153200000Y-99823809D01*
X153276190Y-99861904D01*
X153352380Y-99861904D01*
X153428571Y-99823809D01*
X153466666Y-99785714D01*
X153504761Y-99709523D01*
X153542857Y-99557142D01*
X153542857Y-99366666D01*
X153504761Y-99214285D01*
X153466666Y-99138095D01*
X153428571Y-99100000D01*
X153352380Y-99061904D01*
X143571428Y-102607142D02*
X142428571Y-102607142D01*
X143000000Y-103178571D02*
X143000000Y-102035714D01*
X155571428Y-102607142D02*
X154428571Y-102607142D01*
X175696904Y-85490476D02*
X176344523Y-85490476D01*
X176420714Y-85528571D01*
X176458809Y-85566666D01*
X176496904Y-85642857D01*
X176496904Y-85795238D01*
X176458809Y-85871428D01*
X176420714Y-85909523D01*
X176344523Y-85947619D01*
X175696904Y-85947619D01*
X175696904Y-86252380D02*
X175696904Y-86785714D01*
X176496904Y-86442857D01*
D13*
X139210000Y-101090000D02*
X137510000Y-99790000D01*
X137510000Y-105210000D02*
X128790000Y-105210000D01*
X137510000Y-99790000D02*
X128790000Y-99790000D01*
X128790000Y-99790000D02*
X128790000Y-105210000D01*
X139210000Y-101090000D02*
X139210000Y-103910000D01*
X139210000Y-103910000D02*
X137510000Y-105210000D01*
G36*
X117245834Y-99108803D02*
G01*
X116651219Y-98928429D01*
X116103218Y-98635516D01*
X115622891Y-98241322D01*
X115228697Y-97760996D01*
X114935785Y-97212995D01*
X114847133Y-96920750D01*
X117864875Y-96920750D01*
X117983938Y-97551781D01*
X118349063Y-98055812D01*
X118624891Y-98246312D01*
X118960250Y-98389188D01*
X119355141Y-98478484D01*
X119809563Y-98508250D01*
X120198500Y-98484437D01*
X120579500Y-98424906D01*
X120908906Y-98341563D01*
X121135125Y-98254250D01*
X120936688Y-97444625D01*
X120492188Y-97603375D01*
X120188578Y-97656953D01*
X119817500Y-97674813D01*
X119345219Y-97611313D01*
X119051531Y-97448594D01*
X118904688Y-97222375D01*
X118865000Y-96960437D01*
X118932469Y-96583406D01*
X119202344Y-96289719D01*
X119777813Y-96099219D01*
X120208422Y-96048617D01*
X120754125Y-96031750D01*
X120682688Y-95371945D01*
X120627125Y-94726031D01*
X120585453Y-94097977D01*
X120555688Y-93491750D01*
X118047438Y-93491750D01*
X118047438Y-94301375D01*
X119738125Y-94301375D01*
X119777813Y-94833187D01*
X119817500Y-95285625D01*
X119216896Y-95366764D01*
X118727417Y-95525514D01*
X118349063Y-95761875D01*
X118080069Y-96074083D01*
X117918674Y-96460375D01*
X117864875Y-96920750D01*
X114847133Y-96920750D01*
X114755410Y-96618379D01*
X114694505Y-96000000D01*
X114755410Y-95381621D01*
X114935785Y-94787005D01*
X115228697Y-94239004D01*
X115622891Y-93758678D01*
X116103218Y-93364484D01*
X116651219Y-93071571D01*
X117245834Y-92891197D01*
X117864214Y-92830292D01*
X121135787Y-92830292D01*
X121754166Y-92891197D01*
X122348781Y-93071571D01*
X122896782Y-93364484D01*
X123377109Y-93758678D01*
X123771303Y-94239004D01*
X124064215Y-94787005D01*
X124244590Y-95381621D01*
X124305495Y-96000000D01*
X124244590Y-96618379D01*
X124064215Y-97212995D01*
X123771303Y-97760996D01*
X123377109Y-98241322D01*
X122896782Y-98635516D01*
X122348781Y-98928429D01*
X121754166Y-99108803D01*
X121135787Y-99169708D01*
X117864214Y-99169708D01*
X117245834Y-99108803D01*
G37*
X173790000Y-114790000D02*
X173790000Y-120210000D01*
X182510000Y-114790000D02*
X173790000Y-114790000D01*
X184210000Y-116090000D02*
X184210000Y-118910000D01*
X184210000Y-116090000D02*
X182510000Y-114790000D01*
X182510000Y-120210000D02*
X173790000Y-120210000D01*
X184210000Y-118910000D02*
X182510000Y-120210000D01*
X167510000Y-99790000D02*
X158790000Y-99790000D01*
X169210000Y-101090000D02*
X169210000Y-103910000D01*
X169210000Y-101090000D02*
X167510000Y-99790000D01*
X158790000Y-99790000D02*
X158790000Y-105210000D01*
X169210000Y-103910000D02*
X167510000Y-105210000D01*
X167510000Y-105210000D02*
X158790000Y-105210000D01*
G36*
X162217279Y-99112696D02*
G01*
X161621919Y-98932095D01*
X161073232Y-98638816D01*
X160918973Y-98512219D01*
X162837094Y-98512219D01*
X166043844Y-98512219D01*
X166063687Y-98313781D01*
X166059719Y-98147094D01*
X166023008Y-97766094D01*
X165912875Y-97416844D01*
X165746187Y-97096367D01*
X165539812Y-96801687D01*
X165305656Y-96529828D01*
X165055625Y-96277812D01*
X164805594Y-96040680D01*
X164571437Y-95813469D01*
X164198375Y-95384844D01*
X164051531Y-94964156D01*
X164234094Y-94499812D01*
X164694469Y-94337094D01*
X165178656Y-94448219D01*
X165678719Y-94821281D01*
X166162906Y-94138656D01*
X165820602Y-93848937D01*
X165428687Y-93646531D01*
X165012961Y-93527469D01*
X164599219Y-93487781D01*
X164019781Y-93575094D01*
X163527656Y-93837031D01*
X163186344Y-94277562D01*
X163059344Y-94892719D01*
X163154594Y-95380875D01*
X163408594Y-95837281D01*
X163765781Y-96265906D01*
X164170594Y-96662781D01*
X164408719Y-96889000D01*
X164662719Y-97158875D01*
X164865125Y-97440656D01*
X164948469Y-97702594D01*
X162837094Y-97702594D01*
X162837094Y-98512219D01*
X160918973Y-98512219D01*
X160592304Y-98244129D01*
X160197616Y-97763200D01*
X159904337Y-97214514D01*
X159723737Y-96619154D01*
X159662755Y-96000000D01*
X159723737Y-95380846D01*
X159904337Y-94785486D01*
X160197616Y-94236800D01*
X160592304Y-93755871D01*
X161073232Y-93361184D01*
X161621919Y-93067905D01*
X162217279Y-92887304D01*
X162836432Y-92826323D01*
X166163568Y-92826323D01*
X166782721Y-92887304D01*
X167378081Y-93067905D01*
X167926768Y-93361184D01*
X168407696Y-93755871D01*
X168802384Y-94236799D01*
X169095663Y-94785486D01*
X169276263Y-95380846D01*
X169337245Y-96000000D01*
X169276263Y-96619154D01*
X169095663Y-97214514D01*
X168802384Y-97763201D01*
X168407696Y-98244129D01*
X167926768Y-98638816D01*
X167378081Y-98932095D01*
X166782721Y-99112696D01*
X166163568Y-99173677D01*
X162836432Y-99173677D01*
X162217279Y-99112696D01*
G37*
X147035000Y-82450000D02*
X147685000Y-82450000D01*
X147035000Y-89500000D02*
X147035000Y-82450000D01*
X151935000Y-82500000D02*
X151935000Y-89550000D01*
X151285000Y-82500000D02*
X151935000Y-82500000D01*
X147700000Y-82450000D02*
X147700000Y-79750000D01*
X147035000Y-89500000D02*
X147685000Y-89500000D01*
X151285000Y-89550000D02*
X151935000Y-89550000D01*
G36*
X132495425Y-74490350D02*
G01*
X132581150Y-74502256D01*
X132581150Y-76483456D01*
X132528762Y-76488219D01*
X132476375Y-76488219D01*
X132140619Y-76412019D01*
X131921544Y-76202469D01*
X131802481Y-75885763D01*
X131775692Y-75693477D01*
X131766762Y-75483331D01*
X131795337Y-75111856D01*
X131895350Y-74792769D01*
X132090612Y-74571313D01*
X132409700Y-74487969D01*
X132495425Y-74490350D01*
G37*
G36*
X123556212Y-73581506D02*
G01*
X138443787Y-73581506D01*
X139594884Y-77418494D01*
X122405116Y-77418494D01*
X122809928Y-76069119D01*
X124151525Y-76069119D01*
X124222962Y-76447738D01*
X124442037Y-76750156D01*
X124607534Y-76864456D01*
X124808750Y-76950181D01*
X125045684Y-77003759D01*
X125318337Y-77021619D01*
X125551700Y-77007331D01*
X125780300Y-76971613D01*
X125827360Y-76959706D01*
X126370850Y-76959706D01*
X126980450Y-76959706D01*
X127109037Y-76729916D01*
X127237625Y-76526319D01*
X127362641Y-76345344D01*
X127480512Y-76183419D01*
X127616244Y-76371538D01*
X127737687Y-76554894D01*
X127853178Y-76746584D01*
X127971050Y-76959706D01*
X128566362Y-76959706D01*
X128402056Y-76681100D01*
X128206794Y-76385825D01*
X127992481Y-76088169D01*
X127775787Y-75807181D01*
X128010152Y-75483331D01*
X131171450Y-75483331D01*
X131197048Y-75862545D01*
X131273844Y-76181038D01*
X131395883Y-76442380D01*
X131557212Y-76650144D01*
X131755452Y-76806711D01*
X131988219Y-76914463D01*
X132250752Y-76976970D01*
X132538287Y-76997806D01*
X132845469Y-76981138D01*
X132971265Y-76959706D01*
X133614612Y-76959706D01*
X135505325Y-76959706D01*
X135995862Y-76959706D01*
X137848475Y-76959706D01*
X137848475Y-74011719D01*
X137257925Y-74011719D01*
X137257925Y-76473931D01*
X135995862Y-76473931D01*
X135995862Y-76959706D01*
X135505325Y-76959706D01*
X135505325Y-74011719D01*
X133719387Y-74011719D01*
X133719387Y-74497494D01*
X134919537Y-74497494D01*
X134919537Y-75159481D01*
X133876550Y-75159481D01*
X133876550Y-75645256D01*
X134919537Y-75645256D01*
X134919537Y-76473931D01*
X133614612Y-76473931D01*
X133614612Y-76959706D01*
X132971265Y-76959706D01*
X133166937Y-76926369D01*
X133166937Y-74049819D01*
X132790700Y-73992669D01*
X132462087Y-73978381D01*
X132184077Y-73999813D01*
X131931069Y-74064106D01*
X131709017Y-74174239D01*
X131523875Y-74333188D01*
X131375642Y-74541547D01*
X131264319Y-74799913D01*
X131194667Y-75112452D01*
X131171450Y-75483331D01*
X128010152Y-75483331D01*
X128561600Y-74721331D01*
X127947237Y-74721331D01*
X127451937Y-75421419D01*
X126994737Y-74721331D01*
X126399425Y-74721331D01*
X127123325Y-75797656D01*
X126899487Y-76090550D01*
X126689937Y-76402494D01*
X126508962Y-76702531D01*
X126370850Y-76959706D01*
X125827360Y-76959706D01*
X125977944Y-76921606D01*
X126113675Y-76869219D01*
X125994612Y-76383444D01*
X125727912Y-76478694D01*
X125545747Y-76510841D01*
X125323100Y-76521556D01*
X125039731Y-76483456D01*
X124863519Y-76385825D01*
X124775412Y-76250094D01*
X124751600Y-76092931D01*
X124792081Y-75866713D01*
X124954006Y-75690500D01*
X125299287Y-75576200D01*
X125557653Y-75545839D01*
X125885075Y-75535719D01*
X125842212Y-75139836D01*
X125808875Y-74752288D01*
X125783872Y-74375455D01*
X125766012Y-74011719D01*
X124261062Y-74011719D01*
X124261062Y-74497494D01*
X125275475Y-74497494D01*
X125299287Y-74816581D01*
X125323100Y-75088044D01*
X124962737Y-75136727D01*
X124669050Y-75231977D01*
X124442037Y-75373794D01*
X124280642Y-75561119D01*
X124183804Y-75792894D01*
X124151525Y-76069119D01*
X122809928Y-76069119D01*
X123556212Y-73581506D01*
G37*
X184210000Y-103910000D02*
X182510000Y-105210000D01*
X173790000Y-99790000D02*
X173790000Y-105210000D01*
X184210000Y-101090000D02*
X182510000Y-99790000D01*
X182510000Y-99790000D02*
X173790000Y-99790000D01*
X182510000Y-105210000D02*
X173790000Y-105210000D01*
X184210000Y-101090000D02*
X184210000Y-103910000D01*
X139210000Y-116090000D02*
X137510000Y-114790000D01*
X137510000Y-114790000D02*
X128790000Y-114790000D01*
X139210000Y-116090000D02*
X139210000Y-118910000D01*
X128790000Y-114790000D02*
X128790000Y-120210000D01*
X139210000Y-118910000D02*
X137510000Y-120210000D01*
X137510000Y-120210000D02*
X128790000Y-120210000D01*
X124210000Y-118910000D02*
X122510000Y-120210000D01*
X124210000Y-116090000D02*
X122510000Y-114790000D01*
X113790000Y-114790000D02*
X113790000Y-120210000D01*
X122510000Y-114790000D02*
X113790000Y-114790000D01*
X122510000Y-120210000D02*
X113790000Y-120210000D01*
X124210000Y-116090000D02*
X124210000Y-118910000D01*
X166935000Y-82500000D02*
X166935000Y-89550000D01*
X162700000Y-82450000D02*
X162700000Y-79750000D01*
X162035000Y-82450000D02*
X162685000Y-82450000D01*
X162035000Y-89500000D02*
X162685000Y-89500000D01*
X166285000Y-82500000D02*
X166935000Y-82500000D01*
X166285000Y-89550000D02*
X166935000Y-89550000D01*
X162035000Y-89500000D02*
X162035000Y-82450000D01*
X117035000Y-89500000D02*
X117685000Y-89500000D01*
X121285000Y-82500000D02*
X121935000Y-82500000D01*
X117035000Y-89500000D02*
X117035000Y-82450000D01*
X117035000Y-82450000D02*
X117685000Y-82450000D01*
X121935000Y-82500000D02*
X121935000Y-89550000D01*
X117700000Y-82450000D02*
X117700000Y-79750000D01*
X121285000Y-89550000D02*
X121935000Y-89550000D01*
G36*
X132113025Y-99058201D02*
G01*
X131528088Y-98880762D01*
X130989007Y-98592617D01*
X130516499Y-98204840D01*
X130128721Y-97732332D01*
X129896448Y-97297781D01*
X132722000Y-97297781D01*
X133253812Y-97297781D01*
X133253812Y-98456656D01*
X134230125Y-98456656D01*
X134230125Y-97297781D01*
X136278000Y-97297781D01*
X136278000Y-96583406D01*
X136105359Y-96253008D01*
X135889062Y-95880938D01*
X135639031Y-95483070D01*
X135365187Y-95075281D01*
X135071500Y-94665508D01*
X134761937Y-94261687D01*
X134444437Y-93881680D01*
X134126937Y-93543344D01*
X133253812Y-93543344D01*
X133253812Y-96496094D01*
X132722000Y-96496094D01*
X132722000Y-97297781D01*
X129896448Y-97297781D01*
X129840576Y-97193251D01*
X129663138Y-96608314D01*
X129603224Y-96000000D01*
X129663138Y-95391686D01*
X129840576Y-94806749D01*
X130128721Y-94267668D01*
X130516499Y-93795160D01*
X130989007Y-93407383D01*
X131528088Y-93119238D01*
X132113025Y-92941799D01*
X132721338Y-92881885D01*
X136278661Y-92881885D01*
X136886975Y-92941799D01*
X137471912Y-93119238D01*
X138010993Y-93407382D01*
X138483501Y-93795160D01*
X138871279Y-94267668D01*
X139159424Y-94806749D01*
X139336862Y-95391686D01*
X139396776Y-96000000D01*
X139336862Y-96608314D01*
X139159424Y-97193251D01*
X138871279Y-97732332D01*
X138483501Y-98204840D01*
X138010993Y-98592618D01*
X137471912Y-98880762D01*
X136886975Y-99058201D01*
X136278661Y-99118115D01*
X132721338Y-99118115D01*
X132113025Y-99058201D01*
G37*
G36*
X134523812Y-95154656D02*
G01*
X134821469Y-95587250D01*
X135103250Y-96043656D01*
X135341375Y-96496094D01*
X134230125Y-96496094D01*
X134230125Y-94765719D01*
X134523812Y-95154656D01*
G37*
X124210000Y-103910000D02*
X122510000Y-105210000D01*
X122510000Y-99790000D02*
X113790000Y-99790000D01*
X113790000Y-99790000D02*
X113790000Y-105210000D01*
X122510000Y-105210000D02*
X113790000Y-105210000D01*
X124210000Y-101090000D02*
X124210000Y-103910000D01*
X124210000Y-101090000D02*
X122510000Y-99790000D01*
G36*
X155854634Y-123064837D02*
G01*
X173145366Y-123064837D01*
X171984269Y-126935162D01*
X157015731Y-126935162D01*
X156610919Y-125585787D01*
X157611044Y-125585787D01*
X157682481Y-125964406D01*
X157901556Y-126266825D01*
X158067053Y-126381125D01*
X158268269Y-126466850D01*
X158505203Y-126520428D01*
X158777856Y-126538287D01*
X159011219Y-126524000D01*
X159239819Y-126488281D01*
X159286876Y-126476375D01*
X159830369Y-126476375D01*
X160439969Y-126476375D01*
X160568556Y-126246584D01*
X160697144Y-126042987D01*
X160822159Y-125862012D01*
X160940031Y-125700087D01*
X161075762Y-125888206D01*
X161197206Y-126071562D01*
X161312697Y-126263253D01*
X161430569Y-126476375D01*
X162025881Y-126476375D01*
X161861575Y-126197769D01*
X161666312Y-125902494D01*
X161452000Y-125604837D01*
X161301416Y-125409575D01*
X164688119Y-125409575D01*
X164700025Y-125654844D01*
X164735744Y-125876300D01*
X164801228Y-126070372D01*
X164902431Y-126233487D01*
X165040544Y-126363861D01*
X165216756Y-126459706D01*
X165435831Y-126518642D01*
X165702531Y-126538287D01*
X165965064Y-126518642D01*
X166181163Y-126459706D01*
X166488344Y-126233487D01*
X166585975Y-126070372D01*
X166650269Y-125876300D01*
X166683300Y-125671512D01*
X167074131Y-125671512D01*
X167141402Y-126038820D01*
X167343213Y-126312069D01*
X167553556Y-126437746D01*
X167825813Y-126513152D01*
X168159981Y-126538287D01*
X168489784Y-126518642D01*
X168745769Y-126459706D01*
X169074381Y-126314450D01*
X168902931Y-125838200D01*
X168595750Y-125981075D01*
X168397511Y-126031081D01*
X168159981Y-126047750D01*
X167914712Y-126016794D01*
X167759931Y-125931069D01*
X167681350Y-125807244D01*
X167659919Y-125666750D01*
X167712306Y-125504825D01*
X167845656Y-125378619D01*
X168026631Y-125278606D01*
X168226656Y-125195262D01*
X168502881Y-125085725D01*
X168762438Y-124928562D01*
X168955319Y-124692819D01*
X169001454Y-124480887D01*
X169398231Y-124480887D01*
X169432892Y-124800769D01*
X169536873Y-125055562D01*
X169710175Y-125245269D01*
X169946977Y-125376237D01*
X170241458Y-125454819D01*
X170593619Y-125481012D01*
X170803169Y-125481012D01*
X170803169Y-126476375D01*
X171388956Y-126476375D01*
X171388956Y-123566487D01*
X171196075Y-123533150D01*
X170979381Y-123511719D01*
X170765069Y-123499812D01*
X170579331Y-123495050D01*
X170232727Y-123520715D01*
X169942215Y-123597708D01*
X169707794Y-123726031D01*
X169535815Y-123912562D01*
X169432627Y-124164181D01*
X169398231Y-124480887D01*
X169001454Y-124480887D01*
X169031519Y-124342775D01*
X168964248Y-123973681D01*
X168762438Y-123695075D01*
X168560560Y-123565429D01*
X168313704Y-123487642D01*
X168021869Y-123461712D01*
X167767670Y-123477191D01*
X167548000Y-123523625D01*
X167207481Y-123661737D01*
X167378931Y-124114175D01*
X167643250Y-123999875D01*
X167979006Y-123952250D01*
X168238298Y-123989821D01*
X168393873Y-124102533D01*
X168445731Y-124290387D01*
X168398106Y-124440406D01*
X168276662Y-124554706D01*
X168109975Y-124642812D01*
X167926619Y-124714250D01*
X167638488Y-124830931D01*
X167362263Y-125002381D01*
X167155094Y-125269081D01*
X167094372Y-125449461D01*
X167074131Y-125671512D01*
X166683300Y-125671512D01*
X166685988Y-125654844D01*
X166697894Y-125409575D01*
X166697894Y-123528387D01*
X166107344Y-123528387D01*
X166107344Y-125371475D01*
X166088294Y-125683419D01*
X166024000Y-125885825D01*
X165897794Y-125995362D01*
X165693006Y-126028700D01*
X165488219Y-125995362D01*
X165359631Y-125883444D01*
X165292956Y-125678656D01*
X165273906Y-125366712D01*
X165273906Y-123528387D01*
X164688119Y-123528387D01*
X164688119Y-125409575D01*
X161301416Y-125409575D01*
X161235306Y-125323850D01*
X162021119Y-124238000D01*
X161406756Y-124238000D01*
X160911456Y-124938087D01*
X160454256Y-124238000D01*
X159858944Y-124238000D01*
X160582844Y-125314325D01*
X160359006Y-125607219D01*
X160149456Y-125919162D01*
X159968481Y-126219200D01*
X159830369Y-126476375D01*
X159286876Y-126476375D01*
X159437463Y-126438275D01*
X159573194Y-126385887D01*
X159454131Y-125900112D01*
X159187431Y-125995362D01*
X159005266Y-126027509D01*
X158782619Y-126038225D01*
X158499250Y-126000125D01*
X158323038Y-125902494D01*
X158234931Y-125766762D01*
X158211119Y-125609600D01*
X158251600Y-125383381D01*
X158413525Y-125207169D01*
X158758806Y-125092869D01*
X159017172Y-125062508D01*
X159344594Y-125052387D01*
X159301731Y-124656505D01*
X159268394Y-124268956D01*
X159243391Y-123892123D01*
X159225531Y-123528387D01*
X157720581Y-123528387D01*
X157720581Y-124014162D01*
X158734994Y-124014162D01*
X158758806Y-124333250D01*
X158782619Y-124604712D01*
X158422256Y-124653396D01*
X158128569Y-124748646D01*
X157901556Y-124890462D01*
X157740160Y-125077787D01*
X157643323Y-125309562D01*
X157611044Y-125585787D01*
X156610919Y-125585787D01*
X155854634Y-123064837D01*
G37*
G36*
X170657912Y-124007019D02*
G01*
X170803169Y-124018925D01*
X170803169Y-124971425D01*
X170565044Y-124971425D01*
X170318584Y-124943445D01*
X170141181Y-124859506D01*
X170034025Y-124707702D01*
X169998306Y-124476125D01*
X170033430Y-124256455D01*
X170138800Y-124111794D01*
X170302511Y-124031427D01*
X170512656Y-124004637D01*
X170657912Y-124007019D01*
G37*
X143790000Y-114790000D02*
X143790000Y-120210000D01*
X154210000Y-116090000D02*
X154210000Y-118910000D01*
X154210000Y-118910000D02*
X152510000Y-120210000D01*
X152510000Y-120210000D02*
X143790000Y-120210000D01*
X154210000Y-116090000D02*
X152510000Y-114790000D01*
X152510000Y-114790000D02*
X143790000Y-114790000D01*
X158790000Y-114790000D02*
X158790000Y-120210000D01*
X167510000Y-120210000D02*
X158790000Y-120210000D01*
X169210000Y-116090000D02*
X167510000Y-114790000D01*
X169210000Y-118910000D02*
X167510000Y-120210000D01*
X167510000Y-114790000D02*
X158790000Y-114790000D01*
X169210000Y-116090000D02*
X169210000Y-118910000D01*
G36*
X147242932Y-99163298D02*
G01*
X146637893Y-98979762D01*
X146080287Y-98681715D01*
X145591540Y-98280611D01*
X145190436Y-97791864D01*
X144892389Y-97234258D01*
X144821366Y-97000125D01*
X147872812Y-97000125D01*
X147983937Y-97627188D01*
X148325250Y-98123281D01*
X148587187Y-98309813D01*
X148912625Y-98448719D01*
X149303547Y-98535039D01*
X149761937Y-98563813D01*
X150146906Y-98536031D01*
X150535844Y-98468563D01*
X150881125Y-98381250D01*
X151127187Y-98293938D01*
X150936687Y-97476375D01*
X150464406Y-97643063D01*
X150145914Y-97708547D01*
X149769875Y-97730375D01*
X149344227Y-97676797D01*
X149067406Y-97516062D01*
X148865000Y-96984250D01*
X148942391Y-96653852D01*
X149174562Y-96440531D01*
X149525797Y-96324445D01*
X149960375Y-96285750D01*
X150262000Y-96285750D01*
X150262000Y-95476125D01*
X149896875Y-95476125D01*
X149595250Y-95444375D01*
X149325375Y-95341188D01*
X149130906Y-95150688D01*
X149055500Y-94849063D01*
X149218219Y-94424406D01*
X149666687Y-94269625D01*
X150218344Y-94360906D01*
X150690625Y-94587125D01*
X151039875Y-93872750D01*
X150472344Y-93583031D01*
X150096305Y-93472898D01*
X149674625Y-93436188D01*
X149288664Y-93461984D01*
X148956281Y-93539375D01*
X148452250Y-93829094D01*
X148158562Y-94269625D01*
X148063312Y-94817313D01*
X148230000Y-95380875D01*
X148674500Y-95793625D01*
X148336164Y-95990078D01*
X148083156Y-96261938D01*
X147925398Y-96601266D01*
X147872812Y-97000125D01*
X144821366Y-97000125D01*
X144708853Y-96629219D01*
X144646880Y-96000000D01*
X144708853Y-95370781D01*
X144892389Y-94765742D01*
X145190436Y-94208136D01*
X145591540Y-93719389D01*
X146080287Y-93318285D01*
X146637893Y-93020238D01*
X147242932Y-92836702D01*
X147872151Y-92774729D01*
X151127849Y-92774729D01*
X151757068Y-92836702D01*
X152362107Y-93020238D01*
X152919713Y-93318285D01*
X153408460Y-93719389D01*
X153809564Y-94208136D01*
X154107611Y-94765742D01*
X154291147Y-95370781D01*
X154353120Y-96000000D01*
X154291147Y-96629219D01*
X154107611Y-97234258D01*
X153809564Y-97791864D01*
X153408460Y-98280611D01*
X152919713Y-98681715D01*
X152362107Y-98979762D01*
X151757068Y-99163298D01*
X151127849Y-99225271D01*
X147872151Y-99225271D01*
X147242932Y-99163298D01*
G37*
X132035000Y-89500000D02*
X132035000Y-82450000D01*
X136285000Y-82500000D02*
X136935000Y-82500000D01*
X132035000Y-82450000D02*
X132685000Y-82450000D01*
X132035000Y-89500000D02*
X132685000Y-89500000D01*
X136285000Y-89550000D02*
X136935000Y-89550000D01*
X136935000Y-82500000D02*
X136935000Y-89550000D01*
X132700000Y-82450000D02*
X132700000Y-79750000D01*
X154210000Y-101090000D02*
X154210000Y-103910000D01*
X152510000Y-105210000D02*
X143790000Y-105210000D01*
X154210000Y-103910000D02*
X152510000Y-105210000D01*
X154210000Y-101090000D02*
X152510000Y-99790000D01*
X143790000Y-99790000D02*
X143790000Y-105210000D01*
X152510000Y-99790000D02*
X143790000Y-99790000D01*
G36*
X177259868Y-99058201D02*
G01*
X176674931Y-98880762D01*
X176135851Y-98592617D01*
X175970182Y-98456656D01*
X177868844Y-98456656D01*
X180853344Y-98456656D01*
X180853344Y-97647031D01*
X179821469Y-97647031D01*
X179821469Y-94900656D01*
X180329469Y-95182438D01*
X180813656Y-95376906D01*
X181131156Y-94567281D01*
X180718406Y-94384719D01*
X180273906Y-94138656D01*
X179853219Y-93852906D01*
X179511906Y-93543344D01*
X178845156Y-93543344D01*
X178845156Y-97647031D01*
X177868844Y-97647031D01*
X177868844Y-98456656D01*
X175970182Y-98456656D01*
X175663342Y-98204840D01*
X175275565Y-97732332D01*
X174987420Y-97193251D01*
X174809981Y-96608314D01*
X174750068Y-96000000D01*
X174809981Y-95391686D01*
X174987420Y-94806749D01*
X175275565Y-94267668D01*
X175663342Y-93795160D01*
X176135851Y-93407383D01*
X176674931Y-93119238D01*
X177259868Y-92941799D01*
X177868182Y-92881885D01*
X181131818Y-92881885D01*
X181740132Y-92941799D01*
X182325068Y-93119238D01*
X182864149Y-93407382D01*
X183336658Y-93795160D01*
X183724435Y-94267668D01*
X184012580Y-94806749D01*
X184190019Y-95391686D01*
X184249932Y-96000000D01*
X184190019Y-96608314D01*
X184012580Y-97193251D01*
X183724435Y-97732332D01*
X183336658Y-98204840D01*
X182864149Y-98592618D01*
X182325068Y-98880762D01*
X181740132Y-99058201D01*
X181131818Y-99118115D01*
X177868182Y-99118115D01*
X177259868Y-99058201D01*
G37*
X176935000Y-89500000D02*
X176935000Y-82450000D01*
X181835000Y-82500000D02*
X181835000Y-89550000D01*
X176935000Y-82450000D02*
X177585000Y-82450000D01*
X176935000Y-89500000D02*
X177585000Y-89500000D01*
X181185000Y-82500000D02*
X181835000Y-82500000D01*
X177600000Y-82450000D02*
X177600000Y-79750000D01*
X181185000Y-89550000D02*
X181835000Y-89550000D01*
%LPC*%
D14*
X179000000Y-122600000D03*
X180697056Y-123302944D03*
X177302944Y-123302944D03*
X179000000Y-127400000D03*
D15*
X179000000Y-125000000D03*
D14*
X176600000Y-125000000D03*
X180697056Y-126697056D03*
X181400000Y-125000000D03*
X177302944Y-126697056D03*
D16*
X132000000Y-111750000D03*
G36*
X132550000Y-111475000D02*
G01*
X132533898Y-111632160D01*
X132477389Y-111802529D01*
X132383202Y-111955329D01*
X132256390Y-112082362D01*
X132103755Y-112176816D01*
X131933484Y-112233622D01*
X131775000Y-112250000D01*
X130070000Y-112250000D01*
X129450000Y-111630000D01*
X129450000Y-108525000D01*
X129466102Y-108367840D01*
X129522611Y-108197471D01*
X129616798Y-108044671D01*
X129743610Y-107917638D01*
X129896245Y-107823184D01*
X130066516Y-107766378D01*
X130225000Y-107750000D01*
X131775000Y-107750000D01*
X131932160Y-107766102D01*
X132102529Y-107822611D01*
X132255329Y-107916798D01*
X132382362Y-108043610D01*
X132476816Y-108196245D01*
X132533622Y-108366516D01*
X132550000Y-108525000D01*
X132550000Y-111475000D01*
G37*
X132000000Y-108250000D03*
X130000000Y-108250000D03*
X130000000Y-111750000D03*
X133500000Y-111750000D03*
X135500000Y-111750000D03*
G36*
G01*
X136050000Y-108525000D02*
X136050000Y-111475000D01*
G75*
G02*
X135275000Y-112250000I-775000J0D01*
G01*
X133725000Y-112250000D01*
G75*
G02*
X132950000Y-111475000I0J775000D01*
G01*
X132950000Y-108525000D01*
G75*
G02*
X133725000Y-107750000I775000J0D01*
G01*
X135275000Y-107750000D01*
G75*
G02*
X136050000Y-108525000I0J-775000D01*
G01*
G37*
X133500000Y-108250000D03*
X135500000Y-108250000D03*
X139016000Y-108250000D03*
X136984000Y-108250000D03*
X139000000Y-111750000D03*
X136984000Y-111750000D03*
G36*
G01*
X139550000Y-108525000D02*
X139550000Y-111475000D01*
G75*
G02*
X138775000Y-112250000I-775000J0D01*
G01*
X137225000Y-112250000D01*
G75*
G02*
X136450000Y-111475000I0J775000D01*
G01*
X136450000Y-108525000D01*
G75*
G02*
X137225000Y-107750000I775000J0D01*
G01*
X138775000Y-107750000D01*
G75*
G02*
X139550000Y-108525000I0J-775000D01*
G01*
G37*
X177000000Y-108250000D03*
X177000000Y-111750000D03*
X175000000Y-111750000D03*
X175000000Y-108250000D03*
G36*
X177550000Y-111475000D02*
G01*
X177533898Y-111632160D01*
X177477389Y-111802529D01*
X177383202Y-111955329D01*
X177256390Y-112082362D01*
X177103755Y-112176816D01*
X176933484Y-112233622D01*
X176775000Y-112250000D01*
X175070000Y-112250000D01*
X174450000Y-111630000D01*
X174450000Y-108525000D01*
X174466102Y-108367840D01*
X174522611Y-108197471D01*
X174616798Y-108044671D01*
X174743610Y-107917638D01*
X174896245Y-107823184D01*
X175066516Y-107766378D01*
X175225000Y-107750000D01*
X176775000Y-107750000D01*
X176932160Y-107766102D01*
X177102529Y-107822611D01*
X177255329Y-107916798D01*
X177382362Y-108043610D01*
X177476816Y-108196245D01*
X177533622Y-108366516D01*
X177550000Y-108525000D01*
X177550000Y-111475000D01*
G37*
G36*
G01*
X181050000Y-108525000D02*
X181050000Y-111475000D01*
G75*
G02*
X180275000Y-112250000I-775000J0D01*
G01*
X178725000Y-112250000D01*
G75*
G02*
X177950000Y-111475000I0J775000D01*
G01*
X177950000Y-108525000D01*
G75*
G02*
X178725000Y-107750000I775000J0D01*
G01*
X180275000Y-107750000D01*
G75*
G02*
X181050000Y-108525000I0J-775000D01*
G01*
G37*
X178500000Y-111750000D03*
X180500000Y-111750000D03*
X180500000Y-108250000D03*
X178500000Y-108250000D03*
G36*
G01*
X184550000Y-108525000D02*
X184550000Y-111475000D01*
G75*
G02*
X183775000Y-112250000I-775000J0D01*
G01*
X182225000Y-112250000D01*
G75*
G02*
X181450000Y-111475000I0J775000D01*
G01*
X181450000Y-108525000D01*
G75*
G02*
X182225000Y-107750000I775000J0D01*
G01*
X183775000Y-107750000D01*
G75*
G02*
X184550000Y-108525000I0J-775000D01*
G01*
G37*
X181984000Y-111750000D03*
X184000000Y-111750000D03*
X181984000Y-108250000D03*
X184016000Y-108250000D03*
G36*
X117550000Y-111475000D02*
G01*
X117533898Y-111632160D01*
X117477389Y-111802529D01*
X117383202Y-111955329D01*
X117256390Y-112082362D01*
X117103755Y-112176816D01*
X116933484Y-112233622D01*
X116775000Y-112250000D01*
X115070000Y-112250000D01*
X114450000Y-111630000D01*
X114450000Y-108525000D01*
X114466102Y-108367840D01*
X114522611Y-108197471D01*
X114616798Y-108044671D01*
X114743610Y-107917638D01*
X114896245Y-107823184D01*
X115066516Y-107766378D01*
X115225000Y-107750000D01*
X116775000Y-107750000D01*
X116932160Y-107766102D01*
X117102529Y-107822611D01*
X117255329Y-107916798D01*
X117382362Y-108043610D01*
X117476816Y-108196245D01*
X117533622Y-108366516D01*
X117550000Y-108525000D01*
X117550000Y-111475000D01*
G37*
X117000000Y-108250000D03*
X117000000Y-111750000D03*
X115000000Y-108250000D03*
X115000000Y-111750000D03*
G36*
G01*
X121050000Y-108525000D02*
X121050000Y-111475000D01*
G75*
G02*
X120275000Y-112250000I-775000J0D01*
G01*
X118725000Y-112250000D01*
G75*
G02*
X117950000Y-111475000I0J775000D01*
G01*
X117950000Y-108525000D01*
G75*
G02*
X118725000Y-107750000I775000J0D01*
G01*
X120275000Y-107750000D01*
G75*
G02*
X121050000Y-108525000I0J-775000D01*
G01*
G37*
X118500000Y-108250000D03*
X120500000Y-111750000D03*
X118500000Y-111750000D03*
X120500000Y-108250000D03*
G36*
G01*
X124550000Y-108525000D02*
X124550000Y-111475000D01*
G75*
G02*
X123775000Y-112250000I-775000J0D01*
G01*
X122225000Y-112250000D01*
G75*
G02*
X121450000Y-111475000I0J775000D01*
G01*
X121450000Y-108525000D01*
G75*
G02*
X122225000Y-107750000I775000J0D01*
G01*
X123775000Y-107750000D01*
G75*
G02*
X124550000Y-108525000I0J-775000D01*
G01*
G37*
X124000000Y-111750000D03*
X124016000Y-108250000D03*
X121984000Y-111750000D03*
X121984000Y-108250000D03*
D14*
X119000000Y-77400000D03*
X121400000Y-75000000D03*
X120697056Y-76697056D03*
X116600000Y-75000000D03*
X119000000Y-72600000D03*
X120697056Y-73302944D03*
D15*
X119000000Y-75000000D03*
D14*
X117302944Y-73302944D03*
X117302944Y-76697056D03*
D16*
X145000000Y-111750000D03*
X147000000Y-108250000D03*
G36*
X147550000Y-111475000D02*
G01*
X147533898Y-111632160D01*
X147477389Y-111802529D01*
X147383202Y-111955329D01*
X147256390Y-112082362D01*
X147103755Y-112176816D01*
X146933484Y-112233622D01*
X146775000Y-112250000D01*
X145070000Y-112250000D01*
X144450000Y-111630000D01*
X144450000Y-108525000D01*
X144466102Y-108367840D01*
X144522611Y-108197471D01*
X144616798Y-108044671D01*
X144743610Y-107917638D01*
X144896245Y-107823184D01*
X145066516Y-107766378D01*
X145225000Y-107750000D01*
X146775000Y-107750000D01*
X146932160Y-107766102D01*
X147102529Y-107822611D01*
X147255329Y-107916798D01*
X147382362Y-108043610D01*
X147476816Y-108196245D01*
X147533622Y-108366516D01*
X147550000Y-108525000D01*
X147550000Y-111475000D01*
G37*
X147000000Y-111750000D03*
X145000000Y-108250000D03*
X148500000Y-108250000D03*
X148500000Y-111750000D03*
X150500000Y-108250000D03*
G36*
G01*
X151050000Y-108525000D02*
X151050000Y-111475000D01*
G75*
G02*
X150275000Y-112250000I-775000J0D01*
G01*
X148725000Y-112250000D01*
G75*
G02*
X147950000Y-111475000I0J775000D01*
G01*
X147950000Y-108525000D01*
G75*
G02*
X148725000Y-107750000I775000J0D01*
G01*
X150275000Y-107750000D01*
G75*
G02*
X151050000Y-108525000I0J-775000D01*
G01*
G37*
X150500000Y-111750000D03*
X154000000Y-111750000D03*
X154016000Y-108250000D03*
X151984000Y-111750000D03*
G36*
G01*
X154550000Y-108525000D02*
X154550000Y-111475000D01*
G75*
G02*
X153775000Y-112250000I-775000J0D01*
G01*
X152225000Y-112250000D01*
G75*
G02*
X151450000Y-111475000I0J775000D01*
G01*
X151450000Y-108525000D01*
G75*
G02*
X152225000Y-107750000I775000J0D01*
G01*
X153775000Y-107750000D01*
G75*
G02*
X154550000Y-108525000I0J-775000D01*
G01*
G37*
X151984000Y-108250000D03*
D17*
X186000000Y-75000000D03*
D14*
X120697056Y-123302944D03*
D15*
X119000000Y-125000000D03*
D14*
X117302944Y-126697056D03*
X119000000Y-127400000D03*
X121400000Y-125000000D03*
X116600000Y-125000000D03*
X119000000Y-122600000D03*
X120697056Y-126697056D03*
X117302944Y-123302944D03*
X181400000Y-75000000D03*
X180697056Y-73302944D03*
D15*
X179000000Y-75000000D03*
D14*
X180697056Y-76697056D03*
X179000000Y-72600000D03*
X176600000Y-75000000D03*
X177302944Y-76697056D03*
X177302944Y-73302944D03*
X179000000Y-77400000D03*
G36*
G01*
X155980000Y-68350000D02*
X154780000Y-68350000D01*
G75*
G02*
X154530000Y-68100000I0J250000D01*
G01*
X154530000Y-66900000D01*
G75*
G02*
X154780000Y-66650000I250000J0D01*
G01*
X155980000Y-66650000D01*
G75*
G02*
X156230000Y-66900000I0J-250000D01*
G01*
X156230000Y-68100000D01*
G75*
G02*
X155980000Y-68350000I-250000J0D01*
G01*
G37*
D18*
X155380000Y-64960000D03*
X157920000Y-67500000D03*
X157920000Y-64960000D03*
X160460000Y-67500000D03*
X160460000Y-64960000D03*
X163000000Y-67500000D03*
X163000000Y-64960000D03*
X165540000Y-67500000D03*
X165540000Y-64960000D03*
X168080000Y-67500000D03*
X168080000Y-64960000D03*
X170620000Y-67500000D03*
X170620000Y-64960000D03*
X173160000Y-67500000D03*
X173160000Y-64960000D03*
D14*
X146600000Y-125000000D03*
D15*
X149000000Y-125000000D03*
D14*
X149000000Y-122600000D03*
X150697056Y-126697056D03*
X150697056Y-123302944D03*
X147302944Y-123302944D03*
X151400000Y-125000000D03*
X147302944Y-126697056D03*
X149000000Y-127400000D03*
X146600000Y-75000000D03*
X151400000Y-75000000D03*
X147302944Y-76697056D03*
D15*
X149000000Y-75000000D03*
D14*
X150697056Y-73302944D03*
X147302944Y-73302944D03*
X149000000Y-77400000D03*
X149000000Y-72600000D03*
X150697056Y-76697056D03*
D16*
X160000000Y-108250000D03*
G36*
X162550000Y-111475000D02*
G01*
X162533898Y-111632160D01*
X162477389Y-111802529D01*
X162383202Y-111955329D01*
X162256390Y-112082362D01*
X162103755Y-112176816D01*
X161933484Y-112233622D01*
X161775000Y-112250000D01*
X160070000Y-112250000D01*
X159450000Y-111630000D01*
X159450000Y-108525000D01*
X159466102Y-108367840D01*
X159522611Y-108197471D01*
X159616798Y-108044671D01*
X159743610Y-107917638D01*
X159896245Y-107823184D01*
X160066516Y-107766378D01*
X160225000Y-107750000D01*
X161775000Y-107750000D01*
X161932160Y-107766102D01*
X162102529Y-107822611D01*
X162255329Y-107916798D01*
X162382362Y-108043610D01*
X162476816Y-108196245D01*
X162533622Y-108366516D01*
X162550000Y-108525000D01*
X162550000Y-111475000D01*
G37*
X160000000Y-111750000D03*
X162000000Y-108250000D03*
X162000000Y-111750000D03*
X165500000Y-108250000D03*
X163500000Y-108250000D03*
G36*
G01*
X166050000Y-108525000D02*
X166050000Y-111475000D01*
G75*
G02*
X165275000Y-112250000I-775000J0D01*
G01*
X163725000Y-112250000D01*
G75*
G02*
X162950000Y-111475000I0J775000D01*
G01*
X162950000Y-108525000D01*
G75*
G02*
X163725000Y-107750000I775000J0D01*
G01*
X165275000Y-107750000D01*
G75*
G02*
X166050000Y-108525000I0J-775000D01*
G01*
G37*
X163500000Y-111750000D03*
X165500000Y-111750000D03*
X169000000Y-111750000D03*
G36*
G01*
X169550000Y-108525000D02*
X169550000Y-111475000D01*
G75*
G02*
X168775000Y-112250000I-775000J0D01*
G01*
X167225000Y-112250000D01*
G75*
G02*
X166450000Y-111475000I0J775000D01*
G01*
X166450000Y-108525000D01*
G75*
G02*
X167225000Y-107750000I775000J0D01*
G01*
X168775000Y-107750000D01*
G75*
G02*
X169550000Y-108525000I0J-775000D01*
G01*
G37*
X166984000Y-111750000D03*
X169016000Y-108250000D03*
X166984000Y-108250000D03*
X137516000Y-104278000D03*
X138278000Y-103516000D03*
X135484000Y-104278000D03*
X134722000Y-101484000D03*
X137516000Y-100722000D03*
X135484000Y-100722000D03*
X138278000Y-101484000D03*
X134722000Y-103516000D03*
X136500000Y-100468000D03*
G36*
G01*
X138650000Y-101075000D02*
X138650000Y-103925000D01*
G75*
G02*
X137575000Y-105000000I-1075000J0D01*
G01*
X135425000Y-105000000D01*
G75*
G02*
X134350000Y-103925000I0J1075000D01*
G01*
X134350000Y-101075000D01*
G75*
G02*
X135425000Y-100000000I1075000J0D01*
G01*
X137575000Y-100000000D01*
G75*
G02*
X138650000Y-101075000I0J-1075000D01*
G01*
G37*
X136500000Y-104532000D03*
X131500000Y-100468000D03*
X131500000Y-104532000D03*
G36*
G01*
X133650000Y-101075000D02*
X133650000Y-103925000D01*
G75*
G02*
X132575000Y-105000000I-1075000J0D01*
G01*
X130425000Y-105000000D01*
G75*
G02*
X129350000Y-103925000I0J1075000D01*
G01*
X129350000Y-101075000D01*
G75*
G02*
X130425000Y-100000000I1075000J0D01*
G01*
X132575000Y-100000000D01*
G75*
G02*
X133650000Y-101075000I0J-1075000D01*
G01*
G37*
X133278000Y-101484000D03*
X130484000Y-100722000D03*
X133278000Y-103516000D03*
X130484000Y-104278000D03*
X129722000Y-101484000D03*
X132516000Y-100722000D03*
X129722000Y-103516000D03*
X132516000Y-104278000D03*
X180484000Y-119278000D03*
X183278000Y-118516000D03*
X182516000Y-119278000D03*
X183278000Y-116484000D03*
X180484000Y-115722000D03*
X181500000Y-119532000D03*
X179722000Y-116484000D03*
X182516000Y-115722000D03*
X179722000Y-118516000D03*
G36*
G01*
X183650000Y-116075000D02*
X183650000Y-118925000D01*
G75*
G02*
X182575000Y-120000000I-1075000J0D01*
G01*
X180425000Y-120000000D01*
G75*
G02*
X179350000Y-118925000I0J1075000D01*
G01*
X179350000Y-116075000D01*
G75*
G02*
X180425000Y-115000000I1075000J0D01*
G01*
X182575000Y-115000000D01*
G75*
G02*
X183650000Y-116075000I0J-1075000D01*
G01*
G37*
X181500000Y-115468000D03*
X178278000Y-118516000D03*
X177516000Y-119278000D03*
X176500000Y-115468000D03*
X175484000Y-115722000D03*
X176500000Y-119532000D03*
X174722000Y-116484000D03*
X174722000Y-118516000D03*
X175484000Y-119278000D03*
X177516000Y-115722000D03*
G36*
G01*
X178650000Y-116075000D02*
X178650000Y-118925000D01*
G75*
G02*
X177575000Y-120000000I-1075000J0D01*
G01*
X175425000Y-120000000D01*
G75*
G02*
X174350000Y-118925000I0J1075000D01*
G01*
X174350000Y-116075000D01*
G75*
G02*
X175425000Y-115000000I1075000J0D01*
G01*
X177575000Y-115000000D01*
G75*
G02*
X178650000Y-116075000I0J-1075000D01*
G01*
G37*
X178278000Y-116484000D03*
X164722000Y-103516000D03*
X164722000Y-101484000D03*
X168278000Y-101484000D03*
X166500000Y-104532000D03*
X168278000Y-103516000D03*
X167516000Y-104278000D03*
X165484000Y-100722000D03*
G36*
G01*
X168650000Y-101075000D02*
X168650000Y-103925000D01*
G75*
G02*
X167575000Y-105000000I-1075000J0D01*
G01*
X165425000Y-105000000D01*
G75*
G02*
X164350000Y-103925000I0J1075000D01*
G01*
X164350000Y-101075000D01*
G75*
G02*
X165425000Y-100000000I1075000J0D01*
G01*
X167575000Y-100000000D01*
G75*
G02*
X168650000Y-101075000I0J-1075000D01*
G01*
G37*
X167516000Y-100722000D03*
X166500000Y-100468000D03*
X165484000Y-104278000D03*
X162516000Y-100722000D03*
X159722000Y-101484000D03*
X159722000Y-103516000D03*
X163278000Y-103516000D03*
G36*
G01*
X163650000Y-101075000D02*
X163650000Y-103925000D01*
G75*
G02*
X162575000Y-105000000I-1075000J0D01*
G01*
X160425000Y-105000000D01*
G75*
G02*
X159350000Y-103925000I0J1075000D01*
G01*
X159350000Y-101075000D01*
G75*
G02*
X160425000Y-100000000I1075000J0D01*
G01*
X162575000Y-100000000D01*
G75*
G02*
X163650000Y-101075000I0J-1075000D01*
G01*
G37*
X160484000Y-104278000D03*
X161500000Y-104532000D03*
X163278000Y-101484000D03*
X161500000Y-100468000D03*
X162516000Y-104278000D03*
X160484000Y-100722000D03*
D19*
X148230000Y-80630000D03*
X149500000Y-80630000D03*
X150770000Y-80630000D03*
X150770000Y-91370000D03*
X149500000Y-91370000D03*
X148230000Y-91370000D03*
D16*
X179722000Y-101484000D03*
X180484000Y-104278000D03*
X181500000Y-100468000D03*
X180484000Y-100722000D03*
X182516000Y-104278000D03*
X181500000Y-104532000D03*
X182516000Y-100722000D03*
X183278000Y-103516000D03*
X179722000Y-103516000D03*
G36*
G01*
X183650000Y-101075000D02*
X183650000Y-103925000D01*
G75*
G02*
X182575000Y-105000000I-1075000J0D01*
G01*
X180425000Y-105000000D01*
G75*
G02*
X179350000Y-103925000I0J1075000D01*
G01*
X179350000Y-101075000D01*
G75*
G02*
X180425000Y-100000000I1075000J0D01*
G01*
X182575000Y-100000000D01*
G75*
G02*
X183650000Y-101075000I0J-1075000D01*
G01*
G37*
X183278000Y-101484000D03*
X174722000Y-103516000D03*
X174722000Y-101484000D03*
X177516000Y-100722000D03*
X175484000Y-100722000D03*
X176500000Y-100468000D03*
X178278000Y-101484000D03*
X177516000Y-104278000D03*
G36*
G01*
X178650000Y-101075000D02*
X178650000Y-103925000D01*
G75*
G02*
X177575000Y-105000000I-1075000J0D01*
G01*
X175425000Y-105000000D01*
G75*
G02*
X174350000Y-103925000I0J1075000D01*
G01*
X174350000Y-101075000D01*
G75*
G02*
X175425000Y-100000000I1075000J0D01*
G01*
X177575000Y-100000000D01*
G75*
G02*
X178650000Y-101075000I0J-1075000D01*
G01*
G37*
X175484000Y-104278000D03*
X178278000Y-103516000D03*
X176500000Y-104532000D03*
X134722000Y-116484000D03*
X136500000Y-119532000D03*
X135484000Y-115722000D03*
X137516000Y-115722000D03*
G36*
G01*
X138650000Y-116075000D02*
X138650000Y-118925000D01*
G75*
G02*
X137575000Y-120000000I-1075000J0D01*
G01*
X135425000Y-120000000D01*
G75*
G02*
X134350000Y-118925000I0J1075000D01*
G01*
X134350000Y-116075000D01*
G75*
G02*
X135425000Y-115000000I1075000J0D01*
G01*
X137575000Y-115000000D01*
G75*
G02*
X138650000Y-116075000I0J-1075000D01*
G01*
G37*
X138278000Y-118516000D03*
X138278000Y-116484000D03*
X135484000Y-119278000D03*
X136500000Y-115468000D03*
X137516000Y-119278000D03*
X134722000Y-118516000D03*
X129722000Y-116484000D03*
X133278000Y-116484000D03*
X132516000Y-119278000D03*
X133278000Y-118516000D03*
X130484000Y-115722000D03*
X130484000Y-119278000D03*
X129722000Y-118516000D03*
G36*
G01*
X133650000Y-116075000D02*
X133650000Y-118925000D01*
G75*
G02*
X132575000Y-120000000I-1075000J0D01*
G01*
X130425000Y-120000000D01*
G75*
G02*
X129350000Y-118925000I0J1075000D01*
G01*
X129350000Y-116075000D01*
G75*
G02*
X130425000Y-115000000I1075000J0D01*
G01*
X132575000Y-115000000D01*
G75*
G02*
X133650000Y-116075000I0J-1075000D01*
G01*
G37*
X131500000Y-119532000D03*
X132516000Y-115722000D03*
X131500000Y-115468000D03*
G36*
G01*
X123650000Y-116075000D02*
X123650000Y-118925000D01*
G75*
G02*
X122575000Y-120000000I-1075000J0D01*
G01*
X120425000Y-120000000D01*
G75*
G02*
X119350000Y-118925000I0J1075000D01*
G01*
X119350000Y-116075000D01*
G75*
G02*
X120425000Y-115000000I1075000J0D01*
G01*
X122575000Y-115000000D01*
G75*
G02*
X123650000Y-116075000I0J-1075000D01*
G01*
G37*
X121500000Y-119532000D03*
X123278000Y-116484000D03*
X122516000Y-119278000D03*
X122516000Y-115722000D03*
X123278000Y-118516000D03*
X119722000Y-116484000D03*
X120484000Y-115722000D03*
X119722000Y-118516000D03*
X120484000Y-119278000D03*
X121500000Y-115468000D03*
X117516000Y-119278000D03*
X116500000Y-119532000D03*
X114722000Y-118516000D03*
G36*
G01*
X118650000Y-116075000D02*
X118650000Y-118925000D01*
G75*
G02*
X117575000Y-120000000I-1075000J0D01*
G01*
X115425000Y-120000000D01*
G75*
G02*
X114350000Y-118925000I0J1075000D01*
G01*
X114350000Y-116075000D01*
G75*
G02*
X115425000Y-115000000I1075000J0D01*
G01*
X117575000Y-115000000D01*
G75*
G02*
X118650000Y-116075000I0J-1075000D01*
G01*
G37*
X118278000Y-118516000D03*
X114722000Y-116484000D03*
X115484000Y-119278000D03*
X118278000Y-116484000D03*
X116500000Y-115468000D03*
X117516000Y-115722000D03*
X115484000Y-115722000D03*
D19*
X163230000Y-80630000D03*
X164500000Y-80630000D03*
X165770000Y-80630000D03*
X165770000Y-91370000D03*
X164500000Y-91370000D03*
X163230000Y-91370000D03*
X118230000Y-80630000D03*
X119500000Y-80630000D03*
X120770000Y-80630000D03*
X120770000Y-91370000D03*
X119500000Y-91370000D03*
X118230000Y-91370000D03*
D16*
X121500000Y-100468000D03*
X121500000Y-104532000D03*
X123278000Y-103516000D03*
X120484000Y-100722000D03*
X122516000Y-100722000D03*
X120484000Y-104278000D03*
X122516000Y-104278000D03*
X123278000Y-101484000D03*
G36*
G01*
X123650000Y-101075000D02*
X123650000Y-103925000D01*
G75*
G02*
X122575000Y-105000000I-1075000J0D01*
G01*
X120425000Y-105000000D01*
G75*
G02*
X119350000Y-103925000I0J1075000D01*
G01*
X119350000Y-101075000D01*
G75*
G02*
X120425000Y-100000000I1075000J0D01*
G01*
X122575000Y-100000000D01*
G75*
G02*
X123650000Y-101075000I0J-1075000D01*
G01*
G37*
X119722000Y-101484000D03*
X119722000Y-103516000D03*
X118278000Y-103516000D03*
X117516000Y-104278000D03*
X114722000Y-103516000D03*
X116500000Y-100468000D03*
X116500000Y-104532000D03*
X114722000Y-101484000D03*
X115484000Y-100722000D03*
X118278000Y-101484000D03*
G36*
G01*
X118650000Y-101075000D02*
X118650000Y-103925000D01*
G75*
G02*
X117575000Y-105000000I-1075000J0D01*
G01*
X115425000Y-105000000D01*
G75*
G02*
X114350000Y-103925000I0J1075000D01*
G01*
X114350000Y-101075000D01*
G75*
G02*
X115425000Y-100000000I1075000J0D01*
G01*
X117575000Y-100000000D01*
G75*
G02*
X118650000Y-101075000I0J-1075000D01*
G01*
G37*
X117516000Y-100722000D03*
X115484000Y-104278000D03*
X153278000Y-118516000D03*
G36*
G01*
X153650000Y-116075000D02*
X153650000Y-118925000D01*
G75*
G02*
X152575000Y-120000000I-1075000J0D01*
G01*
X150425000Y-120000000D01*
G75*
G02*
X149350000Y-118925000I0J1075000D01*
G01*
X149350000Y-116075000D01*
G75*
G02*
X150425000Y-115000000I1075000J0D01*
G01*
X152575000Y-115000000D01*
G75*
G02*
X153650000Y-116075000I0J-1075000D01*
G01*
G37*
X152516000Y-115722000D03*
X151500000Y-115468000D03*
X153278000Y-116484000D03*
X149722000Y-118516000D03*
X149722000Y-116484000D03*
X151500000Y-119532000D03*
X152516000Y-119278000D03*
X150484000Y-119278000D03*
X150484000Y-115722000D03*
X146500000Y-115468000D03*
X144722000Y-116484000D03*
X145484000Y-119278000D03*
X147516000Y-115722000D03*
X147516000Y-119278000D03*
X146500000Y-119532000D03*
X148278000Y-116484000D03*
X148278000Y-118516000D03*
X145484000Y-115722000D03*
X144722000Y-118516000D03*
G36*
G01*
X148650000Y-116075000D02*
X148650000Y-118925000D01*
G75*
G02*
X147575000Y-120000000I-1075000J0D01*
G01*
X145425000Y-120000000D01*
G75*
G02*
X144350000Y-118925000I0J1075000D01*
G01*
X144350000Y-116075000D01*
G75*
G02*
X145425000Y-115000000I1075000J0D01*
G01*
X147575000Y-115000000D01*
G75*
G02*
X148650000Y-116075000I0J-1075000D01*
G01*
G37*
X168278000Y-116484000D03*
X166500000Y-119532000D03*
X165484000Y-119278000D03*
X168278000Y-118516000D03*
X164722000Y-116484000D03*
X167516000Y-119278000D03*
G36*
G01*
X168650000Y-116075000D02*
X168650000Y-118925000D01*
G75*
G02*
X167575000Y-120000000I-1075000J0D01*
G01*
X165425000Y-120000000D01*
G75*
G02*
X164350000Y-118925000I0J1075000D01*
G01*
X164350000Y-116075000D01*
G75*
G02*
X165425000Y-115000000I1075000J0D01*
G01*
X167575000Y-115000000D01*
G75*
G02*
X168650000Y-116075000I0J-1075000D01*
G01*
G37*
X167516000Y-115722000D03*
X166500000Y-115468000D03*
X165484000Y-115722000D03*
X164722000Y-118516000D03*
X163278000Y-116484000D03*
X161500000Y-115468000D03*
G36*
G01*
X163650000Y-116075000D02*
X163650000Y-118925000D01*
G75*
G02*
X162575000Y-120000000I-1075000J0D01*
G01*
X160425000Y-120000000D01*
G75*
G02*
X159350000Y-118925000I0J1075000D01*
G01*
X159350000Y-116075000D01*
G75*
G02*
X160425000Y-115000000I1075000J0D01*
G01*
X162575000Y-115000000D01*
G75*
G02*
X163650000Y-116075000I0J-1075000D01*
G01*
G37*
X159722000Y-118516000D03*
X162516000Y-115722000D03*
X160484000Y-115722000D03*
X162516000Y-119278000D03*
X163278000Y-118516000D03*
X161500000Y-119532000D03*
X159722000Y-116484000D03*
X160484000Y-119278000D03*
D19*
X133230000Y-80630000D03*
X134500000Y-80630000D03*
X135770000Y-80630000D03*
X135770000Y-91370000D03*
X134500000Y-91370000D03*
X133230000Y-91370000D03*
D16*
X153278000Y-103516000D03*
X150484000Y-104278000D03*
X149722000Y-101484000D03*
X151500000Y-104532000D03*
X150484000Y-100722000D03*
X153278000Y-101484000D03*
X149722000Y-103516000D03*
X152516000Y-104278000D03*
X152516000Y-100722000D03*
G36*
G01*
X153650000Y-101075000D02*
X153650000Y-103925000D01*
G75*
G02*
X152575000Y-105000000I-1075000J0D01*
G01*
X150425000Y-105000000D01*
G75*
G02*
X149350000Y-103925000I0J1075000D01*
G01*
X149350000Y-101075000D01*
G75*
G02*
X150425000Y-100000000I1075000J0D01*
G01*
X152575000Y-100000000D01*
G75*
G02*
X153650000Y-101075000I0J-1075000D01*
G01*
G37*
X151500000Y-100468000D03*
X146500000Y-104532000D03*
X145484000Y-104278000D03*
X144722000Y-101484000D03*
X147516000Y-104278000D03*
X147516000Y-100722000D03*
X144722000Y-103516000D03*
X148278000Y-101484000D03*
X146500000Y-100468000D03*
X148278000Y-103516000D03*
X145484000Y-100722000D03*
G36*
G01*
X148650000Y-101075000D02*
X148650000Y-103925000D01*
G75*
G02*
X147575000Y-105000000I-1075000J0D01*
G01*
X145425000Y-105000000D01*
G75*
G02*
X144350000Y-103925000I0J1075000D01*
G01*
X144350000Y-101075000D01*
G75*
G02*
X145425000Y-100000000I1075000J0D01*
G01*
X147575000Y-100000000D01*
G75*
G02*
X148650000Y-101075000I0J-1075000D01*
G01*
G37*
D19*
X178130000Y-80630000D03*
X179400000Y-80630000D03*
X180670000Y-80630000D03*
X180670000Y-91370000D03*
X179400000Y-91370000D03*
X178130000Y-91370000D03*
M02*
