G04 #@! TF.GenerationSoftware,KiCad,Pcbnew,6.0.10+dfsg-1~bpo11+1*
G04 #@! TF.ProjectId,pwr,7077722e-6b69-4636-9164-5f7063625858,rev?*
G04 #@! TF.SameCoordinates,Original*
G04 #@! TF.FileFunction,Soldermask,Top*
G04 #@! TF.FilePolarity,Negative*
%FSLAX46Y46*%
G04 Gerber Fmt 4.6, Leading zero omitted, Abs format (unit mm)*
%MOMM*%
%LPD*%
G01*
G04 APERTURE LIST*
G04 #@! TA.AperFunction,Profile*
%ADD10C,0.100000*%
G04 #@! TD*
%ADD11C,2.500000*%
%ADD12C,0.700000*%
%ADD13R,1.100000X1.100000*%
%ADD14R,0.500000X0.650000*%
%ADD15R,4.600000X4.120000*%
%ADD16R,0.500000X0.550000*%
%ADD17R,0.650000X1.560000*%
%ADD18R,0.700000X0.340000*%
%ADD19C,0.800000*%
%ADD20C,6.400000*%
%ADD21C,3.000000*%
%ADD22C,1.700000*%
G04 APERTURE END LIST*
D10*
X184000000Y-60000000D02*
G75*
G03*
X179000000Y-55000000I-5000000J0D01*
G01*
X179000000Y-132500000D02*
G75*
G03*
X184000000Y-127500000I0J5000000D01*
G01*
X109000000Y-127500000D02*
X109000000Y-60000000D01*
X179000000Y-132500000D02*
X114000000Y-132500000D01*
X114000000Y-55000000D02*
G75*
G03*
X109000000Y-60000000I0J-5000000D01*
G01*
X184000000Y-60000000D02*
X184000000Y-127500000D01*
X109000000Y-127500000D02*
G75*
G03*
X114000000Y-132500000I5000000J0D01*
G01*
X114000000Y-55000000D02*
X179000000Y-55000000D01*
G36*
G01*
X138900000Y-82950000D02*
X138900000Y-82050000D01*
G75*
G02*
X139150000Y-81800000I250000J0D01*
G01*
X139850000Y-81800000D01*
G75*
G02*
X140100000Y-82050000I0J-250000D01*
G01*
X140100000Y-82950000D01*
G75*
G02*
X139850000Y-83200000I-250000J0D01*
G01*
X139150000Y-83200000D01*
G75*
G02*
X138900000Y-82950000I0J250000D01*
G01*
G37*
G36*
G01*
X140900000Y-82950000D02*
X140900000Y-82050000D01*
G75*
G02*
X141150000Y-81800000I250000J0D01*
G01*
X141850000Y-81800000D01*
G75*
G02*
X142100000Y-82050000I0J-250000D01*
G01*
X142100000Y-82950000D01*
G75*
G02*
X141850000Y-83200000I-250000J0D01*
G01*
X141150000Y-83200000D01*
G75*
G02*
X140900000Y-82950000I0J250000D01*
G01*
G37*
G36*
G01*
X122100000Y-63050000D02*
X122100000Y-63950000D01*
G75*
G02*
X121850000Y-64200000I-250000J0D01*
G01*
X121150000Y-64200000D01*
G75*
G02*
X120900000Y-63950000I0J250000D01*
G01*
X120900000Y-63050000D01*
G75*
G02*
X121150000Y-62800000I250000J0D01*
G01*
X121850000Y-62800000D01*
G75*
G02*
X122100000Y-63050000I0J-250000D01*
G01*
G37*
G36*
G01*
X120100000Y-63050000D02*
X120100000Y-63950000D01*
G75*
G02*
X119850000Y-64200000I-250000J0D01*
G01*
X119150000Y-64200000D01*
G75*
G02*
X118900000Y-63950000I0J250000D01*
G01*
X118900000Y-63050000D01*
G75*
G02*
X119150000Y-62800000I250000J0D01*
G01*
X119850000Y-62800000D01*
G75*
G02*
X120100000Y-63050000I0J-250000D01*
G01*
G37*
G36*
G01*
X130647500Y-70950000D02*
X130647500Y-70050000D01*
G75*
G02*
X130897500Y-69800000I250000J0D01*
G01*
X131597500Y-69800000D01*
G75*
G02*
X131847500Y-70050000I0J-250000D01*
G01*
X131847500Y-70950000D01*
G75*
G02*
X131597500Y-71200000I-250000J0D01*
G01*
X130897500Y-71200000D01*
G75*
G02*
X130647500Y-70950000I0J250000D01*
G01*
G37*
G36*
G01*
X132647500Y-70950000D02*
X132647500Y-70050000D01*
G75*
G02*
X132897500Y-69800000I250000J0D01*
G01*
X133597500Y-69800000D01*
G75*
G02*
X133847500Y-70050000I0J-250000D01*
G01*
X133847500Y-70950000D01*
G75*
G02*
X133597500Y-71200000I-250000J0D01*
G01*
X132897500Y-71200000D01*
G75*
G02*
X132647500Y-70950000I0J250000D01*
G01*
G37*
G36*
G01*
X138900000Y-125450000D02*
X138900000Y-124550000D01*
G75*
G02*
X139150000Y-124300000I250000J0D01*
G01*
X139850000Y-124300000D01*
G75*
G02*
X140100000Y-124550000I0J-250000D01*
G01*
X140100000Y-125450000D01*
G75*
G02*
X139850000Y-125700000I-250000J0D01*
G01*
X139150000Y-125700000D01*
G75*
G02*
X138900000Y-125450000I0J250000D01*
G01*
G37*
G36*
G01*
X140900000Y-125450000D02*
X140900000Y-124550000D01*
G75*
G02*
X141150000Y-124300000I250000J0D01*
G01*
X141850000Y-124300000D01*
G75*
G02*
X142100000Y-124550000I0J-250000D01*
G01*
X142100000Y-125450000D01*
G75*
G02*
X141850000Y-125700000I-250000J0D01*
G01*
X141150000Y-125700000D01*
G75*
G02*
X140900000Y-125450000I0J250000D01*
G01*
G37*
G36*
G01*
X138900000Y-104450000D02*
X138900000Y-103550000D01*
G75*
G02*
X139150000Y-103300000I250000J0D01*
G01*
X139850000Y-103300000D01*
G75*
G02*
X140100000Y-103550000I0J-250000D01*
G01*
X140100000Y-104450000D01*
G75*
G02*
X139850000Y-104700000I-250000J0D01*
G01*
X139150000Y-104700000D01*
G75*
G02*
X138900000Y-104450000I0J250000D01*
G01*
G37*
G36*
G01*
X140900000Y-104450000D02*
X140900000Y-103550000D01*
G75*
G02*
X141150000Y-103300000I250000J0D01*
G01*
X141850000Y-103300000D01*
G75*
G02*
X142100000Y-103550000I0J-250000D01*
G01*
X142100000Y-104450000D01*
G75*
G02*
X141850000Y-104700000I-250000J0D01*
G01*
X141150000Y-104700000D01*
G75*
G02*
X140900000Y-104450000I0J250000D01*
G01*
G37*
G36*
G01*
X138900000Y-110450000D02*
X138900000Y-109550000D01*
G75*
G02*
X139150000Y-109300000I250000J0D01*
G01*
X139850000Y-109300000D01*
G75*
G02*
X140100000Y-109550000I0J-250000D01*
G01*
X140100000Y-110450000D01*
G75*
G02*
X139850000Y-110700000I-250000J0D01*
G01*
X139150000Y-110700000D01*
G75*
G02*
X138900000Y-110450000I0J250000D01*
G01*
G37*
G36*
G01*
X140900000Y-110450000D02*
X140900000Y-109550000D01*
G75*
G02*
X141150000Y-109300000I250000J0D01*
G01*
X141850000Y-109300000D01*
G75*
G02*
X142100000Y-109550000I0J-250000D01*
G01*
X142100000Y-110450000D01*
G75*
G02*
X141850000Y-110700000I-250000J0D01*
G01*
X141150000Y-110700000D01*
G75*
G02*
X140900000Y-110450000I0J250000D01*
G01*
G37*
D11*
X156000000Y-88000000D03*
G36*
G01*
X142900000Y-61450000D02*
X142900000Y-60550000D01*
G75*
G02*
X143150000Y-60300000I250000J0D01*
G01*
X143850000Y-60300000D01*
G75*
G02*
X144100000Y-60550000I0J-250000D01*
G01*
X144100000Y-61450000D01*
G75*
G02*
X143850000Y-61700000I-250000J0D01*
G01*
X143150000Y-61700000D01*
G75*
G02*
X142900000Y-61450000I0J250000D01*
G01*
G37*
G36*
G01*
X144900000Y-61450000D02*
X144900000Y-60550000D01*
G75*
G02*
X145150000Y-60300000I250000J0D01*
G01*
X145850000Y-60300000D01*
G75*
G02*
X146100000Y-60550000I0J-250000D01*
G01*
X146100000Y-61450000D01*
G75*
G02*
X145850000Y-61700000I-250000J0D01*
G01*
X145150000Y-61700000D01*
G75*
G02*
X144900000Y-61450000I0J250000D01*
G01*
G37*
G36*
G01*
X146875000Y-81475000D02*
X146875000Y-80525000D01*
G75*
G02*
X147125000Y-80275000I250000J0D01*
G01*
X147800000Y-80275000D01*
G75*
G02*
X148050000Y-80525000I0J-250000D01*
G01*
X148050000Y-81475000D01*
G75*
G02*
X147800000Y-81725000I-250000J0D01*
G01*
X147125000Y-81725000D01*
G75*
G02*
X146875000Y-81475000I0J250000D01*
G01*
G37*
G36*
G01*
X148950000Y-81475000D02*
X148950000Y-80525000D01*
G75*
G02*
X149200000Y-80275000I250000J0D01*
G01*
X149875000Y-80275000D01*
G75*
G02*
X150125000Y-80525000I0J-250000D01*
G01*
X150125000Y-81475000D01*
G75*
G02*
X149875000Y-81725000I-250000J0D01*
G01*
X149200000Y-81725000D01*
G75*
G02*
X148950000Y-81475000I0J250000D01*
G01*
G37*
G36*
G01*
X130622500Y-72975000D02*
X130622500Y-72025000D01*
G75*
G02*
X130872500Y-71775000I250000J0D01*
G01*
X131547500Y-71775000D01*
G75*
G02*
X131797500Y-72025000I0J-250000D01*
G01*
X131797500Y-72975000D01*
G75*
G02*
X131547500Y-73225000I-250000J0D01*
G01*
X130872500Y-73225000D01*
G75*
G02*
X130622500Y-72975000I0J250000D01*
G01*
G37*
G36*
G01*
X132697500Y-72975000D02*
X132697500Y-72025000D01*
G75*
G02*
X132947500Y-71775000I250000J0D01*
G01*
X133622500Y-71775000D01*
G75*
G02*
X133872500Y-72025000I0J-250000D01*
G01*
X133872500Y-72975000D01*
G75*
G02*
X133622500Y-73225000I-250000J0D01*
G01*
X132947500Y-73225000D01*
G75*
G02*
X132697500Y-72975000I0J250000D01*
G01*
G37*
G36*
G01*
X130647500Y-87450000D02*
X130647500Y-86550000D01*
G75*
G02*
X130897500Y-86300000I250000J0D01*
G01*
X131597500Y-86300000D01*
G75*
G02*
X131847500Y-86550000I0J-250000D01*
G01*
X131847500Y-87450000D01*
G75*
G02*
X131597500Y-87700000I-250000J0D01*
G01*
X130897500Y-87700000D01*
G75*
G02*
X130647500Y-87450000I0J250000D01*
G01*
G37*
G36*
G01*
X132647500Y-87450000D02*
X132647500Y-86550000D01*
G75*
G02*
X132897500Y-86300000I250000J0D01*
G01*
X133597500Y-86300000D01*
G75*
G02*
X133847500Y-86550000I0J-250000D01*
G01*
X133847500Y-87450000D01*
G75*
G02*
X133597500Y-87700000I-250000J0D01*
G01*
X132897500Y-87700000D01*
G75*
G02*
X132647500Y-87450000I0J250000D01*
G01*
G37*
D12*
X165750000Y-112000000D03*
G36*
X165475000Y-111450000D02*
G01*
X165632160Y-111466102D01*
X165802529Y-111522611D01*
X165955329Y-111616798D01*
X166082362Y-111743610D01*
X166176816Y-111896245D01*
X166233622Y-112066516D01*
X166250000Y-112225000D01*
X166250000Y-113930000D01*
X165630000Y-114550000D01*
X162525000Y-114550000D01*
X162367840Y-114533898D01*
X162197471Y-114477389D01*
X162044671Y-114383202D01*
X161917638Y-114256390D01*
X161823184Y-114103755D01*
X161766378Y-113933484D01*
X161750000Y-113775000D01*
X161750000Y-112225000D01*
X161766102Y-112067840D01*
X161822611Y-111897471D01*
X161916798Y-111744671D01*
X162043610Y-111617638D01*
X162196245Y-111523184D01*
X162366516Y-111466378D01*
X162525000Y-111450000D01*
X165475000Y-111450000D01*
G37*
X162250000Y-112000000D03*
X162250000Y-114000000D03*
X165750000Y-114000000D03*
X165750000Y-110500000D03*
X165750000Y-108500000D03*
G36*
G01*
X162525000Y-107950000D02*
X165475000Y-107950000D01*
G75*
G02*
X166250000Y-108725000I0J-775000D01*
G01*
X166250000Y-110275000D01*
G75*
G02*
X165475000Y-111050000I-775000J0D01*
G01*
X162525000Y-111050000D01*
G75*
G02*
X161750000Y-110275000I0J775000D01*
G01*
X161750000Y-108725000D01*
G75*
G02*
X162525000Y-107950000I775000J0D01*
G01*
G37*
X162250000Y-110500000D03*
X162250000Y-108500000D03*
X162250000Y-104984000D03*
X162250000Y-107016000D03*
X165750000Y-105000000D03*
X165750000Y-107016000D03*
G36*
G01*
X162525000Y-104450000D02*
X165475000Y-104450000D01*
G75*
G02*
X166250000Y-105225000I0J-775000D01*
G01*
X166250000Y-106775000D01*
G75*
G02*
X165475000Y-107550000I-775000J0D01*
G01*
X162525000Y-107550000D01*
G75*
G02*
X161750000Y-106775000I0J775000D01*
G01*
X161750000Y-105225000D01*
G75*
G02*
X162525000Y-104450000I775000J0D01*
G01*
G37*
G36*
G01*
X142125000Y-75525000D02*
X142125000Y-76475000D01*
G75*
G02*
X141875000Y-76725000I-250000J0D01*
G01*
X141200000Y-76725000D01*
G75*
G02*
X140950000Y-76475000I0J250000D01*
G01*
X140950000Y-75525000D01*
G75*
G02*
X141200000Y-75275000I250000J0D01*
G01*
X141875000Y-75275000D01*
G75*
G02*
X142125000Y-75525000I0J-250000D01*
G01*
G37*
G36*
G01*
X140050000Y-75525000D02*
X140050000Y-76475000D01*
G75*
G02*
X139800000Y-76725000I-250000J0D01*
G01*
X139125000Y-76725000D01*
G75*
G02*
X138875000Y-76475000I0J250000D01*
G01*
X138875000Y-75525000D01*
G75*
G02*
X139125000Y-75275000I250000J0D01*
G01*
X139800000Y-75275000D01*
G75*
G02*
X140050000Y-75525000I0J-250000D01*
G01*
G37*
G36*
G01*
X138900000Y-59450000D02*
X138900000Y-58550000D01*
G75*
G02*
X139150000Y-58300000I250000J0D01*
G01*
X139850000Y-58300000D01*
G75*
G02*
X140100000Y-58550000I0J-250000D01*
G01*
X140100000Y-59450000D01*
G75*
G02*
X139850000Y-59700000I-250000J0D01*
G01*
X139150000Y-59700000D01*
G75*
G02*
X138900000Y-59450000I0J250000D01*
G01*
G37*
G36*
G01*
X140900000Y-59450000D02*
X140900000Y-58550000D01*
G75*
G02*
X141150000Y-58300000I250000J0D01*
G01*
X141850000Y-58300000D01*
G75*
G02*
X142100000Y-58550000I0J-250000D01*
G01*
X142100000Y-59450000D01*
G75*
G02*
X141850000Y-59700000I-250000J0D01*
G01*
X141150000Y-59700000D01*
G75*
G02*
X140900000Y-59450000I0J250000D01*
G01*
G37*
G36*
G01*
X130622500Y-83975000D02*
X130622500Y-83025000D01*
G75*
G02*
X130872500Y-82775000I250000J0D01*
G01*
X131547500Y-82775000D01*
G75*
G02*
X131797500Y-83025000I0J-250000D01*
G01*
X131797500Y-83975000D01*
G75*
G02*
X131547500Y-84225000I-250000J0D01*
G01*
X130872500Y-84225000D01*
G75*
G02*
X130622500Y-83975000I0J250000D01*
G01*
G37*
G36*
G01*
X132697500Y-83975000D02*
X132697500Y-83025000D01*
G75*
G02*
X132947500Y-82775000I250000J0D01*
G01*
X133622500Y-82775000D01*
G75*
G02*
X133872500Y-83025000I0J-250000D01*
G01*
X133872500Y-83975000D01*
G75*
G02*
X133622500Y-84225000I-250000J0D01*
G01*
X132947500Y-84225000D01*
G75*
G02*
X132697500Y-83975000I0J250000D01*
G01*
G37*
G36*
G01*
X146100000Y-118550000D02*
X146100000Y-119450000D01*
G75*
G02*
X145850000Y-119700000I-250000J0D01*
G01*
X145150000Y-119700000D01*
G75*
G02*
X144900000Y-119450000I0J250000D01*
G01*
X144900000Y-118550000D01*
G75*
G02*
X145150000Y-118300000I250000J0D01*
G01*
X145850000Y-118300000D01*
G75*
G02*
X146100000Y-118550000I0J-250000D01*
G01*
G37*
G36*
G01*
X144100000Y-118550000D02*
X144100000Y-119450000D01*
G75*
G02*
X143850000Y-119700000I-250000J0D01*
G01*
X143150000Y-119700000D01*
G75*
G02*
X142900000Y-119450000I0J250000D01*
G01*
X142900000Y-118550000D01*
G75*
G02*
X143150000Y-118300000I250000J0D01*
G01*
X143850000Y-118300000D01*
G75*
G02*
X144100000Y-118550000I0J-250000D01*
G01*
G37*
D11*
X156000000Y-58000000D03*
G36*
G01*
X150125000Y-84525000D02*
X150125000Y-85475000D01*
G75*
G02*
X149875000Y-85725000I-250000J0D01*
G01*
X149200000Y-85725000D01*
G75*
G02*
X148950000Y-85475000I0J250000D01*
G01*
X148950000Y-84525000D01*
G75*
G02*
X149200000Y-84275000I250000J0D01*
G01*
X149875000Y-84275000D01*
G75*
G02*
X150125000Y-84525000I0J-250000D01*
G01*
G37*
G36*
G01*
X148050000Y-84525000D02*
X148050000Y-85475000D01*
G75*
G02*
X147800000Y-85725000I-250000J0D01*
G01*
X147125000Y-85725000D01*
G75*
G02*
X146875000Y-85475000I0J250000D01*
G01*
X146875000Y-84525000D01*
G75*
G02*
X147125000Y-84275000I250000J0D01*
G01*
X147800000Y-84275000D01*
G75*
G02*
X148050000Y-84525000I0J-250000D01*
G01*
G37*
D13*
X151600000Y-83900000D03*
X151600000Y-81100000D03*
X151600000Y-98900000D03*
X151600000Y-96100000D03*
G36*
G01*
X146875000Y-96475000D02*
X146875000Y-95525000D01*
G75*
G02*
X147125000Y-95275000I250000J0D01*
G01*
X147800000Y-95275000D01*
G75*
G02*
X148050000Y-95525000I0J-250000D01*
G01*
X148050000Y-96475000D01*
G75*
G02*
X147800000Y-96725000I-250000J0D01*
G01*
X147125000Y-96725000D01*
G75*
G02*
X146875000Y-96475000I0J250000D01*
G01*
G37*
G36*
G01*
X148950000Y-96475000D02*
X148950000Y-95525000D01*
G75*
G02*
X149200000Y-95275000I250000J0D01*
G01*
X149875000Y-95275000D01*
G75*
G02*
X150125000Y-95525000I0J-250000D01*
G01*
X150125000Y-96475000D01*
G75*
G02*
X149875000Y-96725000I-250000J0D01*
G01*
X149200000Y-96725000D01*
G75*
G02*
X148950000Y-96475000I0J250000D01*
G01*
G37*
G36*
G01*
X142875000Y-128475000D02*
X142875000Y-127525000D01*
G75*
G02*
X143125000Y-127275000I250000J0D01*
G01*
X143800000Y-127275000D01*
G75*
G02*
X144050000Y-127525000I0J-250000D01*
G01*
X144050000Y-128475000D01*
G75*
G02*
X143800000Y-128725000I-250000J0D01*
G01*
X143125000Y-128725000D01*
G75*
G02*
X142875000Y-128475000I0J250000D01*
G01*
G37*
G36*
G01*
X144950000Y-128475000D02*
X144950000Y-127525000D01*
G75*
G02*
X145200000Y-127275000I250000J0D01*
G01*
X145875000Y-127275000D01*
G75*
G02*
X146125000Y-127525000I0J-250000D01*
G01*
X146125000Y-128475000D01*
G75*
G02*
X145875000Y-128725000I-250000J0D01*
G01*
X145200000Y-128725000D01*
G75*
G02*
X144950000Y-128475000I0J250000D01*
G01*
G37*
G36*
G01*
X142900000Y-106450000D02*
X142900000Y-105550000D01*
G75*
G02*
X143150000Y-105300000I250000J0D01*
G01*
X143850000Y-105300000D01*
G75*
G02*
X144100000Y-105550000I0J-250000D01*
G01*
X144100000Y-106450000D01*
G75*
G02*
X143850000Y-106700000I-250000J0D01*
G01*
X143150000Y-106700000D01*
G75*
G02*
X142900000Y-106450000I0J250000D01*
G01*
G37*
G36*
G01*
X144900000Y-106450000D02*
X144900000Y-105550000D01*
G75*
G02*
X145150000Y-105300000I250000J0D01*
G01*
X145850000Y-105300000D01*
G75*
G02*
X146100000Y-105550000I0J-250000D01*
G01*
X146100000Y-106450000D01*
G75*
G02*
X145850000Y-106700000I-250000J0D01*
G01*
X145150000Y-106700000D01*
G75*
G02*
X144900000Y-106450000I0J250000D01*
G01*
G37*
D14*
X151440000Y-88785000D03*
X150170000Y-88785000D03*
X148900000Y-88785000D03*
X147630000Y-88785000D03*
D15*
X149535000Y-92000000D03*
D16*
X147630000Y-94335000D03*
X151440000Y-94335000D03*
X150170000Y-94335000D03*
X148900000Y-94335000D03*
G36*
G01*
X146875000Y-111475000D02*
X146875000Y-110525000D01*
G75*
G02*
X147125000Y-110275000I250000J0D01*
G01*
X147800000Y-110275000D01*
G75*
G02*
X148050000Y-110525000I0J-250000D01*
G01*
X148050000Y-111475000D01*
G75*
G02*
X147800000Y-111725000I-250000J0D01*
G01*
X147125000Y-111725000D01*
G75*
G02*
X146875000Y-111475000I0J250000D01*
G01*
G37*
G36*
G01*
X148950000Y-111475000D02*
X148950000Y-110525000D01*
G75*
G02*
X149200000Y-110275000I250000J0D01*
G01*
X149875000Y-110275000D01*
G75*
G02*
X150125000Y-110525000I0J-250000D01*
G01*
X150125000Y-111475000D01*
G75*
G02*
X149875000Y-111725000I-250000J0D01*
G01*
X149200000Y-111725000D01*
G75*
G02*
X148950000Y-111475000I0J250000D01*
G01*
G37*
G36*
G01*
X146100000Y-103550000D02*
X146100000Y-104450000D01*
G75*
G02*
X145850000Y-104700000I-250000J0D01*
G01*
X145150000Y-104700000D01*
G75*
G02*
X144900000Y-104450000I0J250000D01*
G01*
X144900000Y-103550000D01*
G75*
G02*
X145150000Y-103300000I250000J0D01*
G01*
X145850000Y-103300000D01*
G75*
G02*
X146100000Y-103550000I0J-250000D01*
G01*
G37*
G36*
G01*
X144100000Y-103550000D02*
X144100000Y-104450000D01*
G75*
G02*
X143850000Y-104700000I-250000J0D01*
G01*
X143150000Y-104700000D01*
G75*
G02*
X142900000Y-104450000I0J250000D01*
G01*
X142900000Y-103550000D01*
G75*
G02*
X143150000Y-103300000I250000J0D01*
G01*
X143850000Y-103300000D01*
G75*
G02*
X144100000Y-103550000I0J-250000D01*
G01*
G37*
D12*
X162250000Y-67000000D03*
X165750000Y-67000000D03*
X165750000Y-69000000D03*
X162250000Y-69000000D03*
G36*
X165475000Y-66450000D02*
G01*
X165632160Y-66466102D01*
X165802529Y-66522611D01*
X165955329Y-66616798D01*
X166082362Y-66743610D01*
X166176816Y-66896245D01*
X166233622Y-67066516D01*
X166250000Y-67225000D01*
X166250000Y-68930000D01*
X165630000Y-69550000D01*
X162525000Y-69550000D01*
X162367840Y-69533898D01*
X162197471Y-69477389D01*
X162044671Y-69383202D01*
X161917638Y-69256390D01*
X161823184Y-69103755D01*
X161766378Y-68933484D01*
X161750000Y-68775000D01*
X161750000Y-67225000D01*
X161766102Y-67067840D01*
X161822611Y-66897471D01*
X161916798Y-66744671D01*
X162043610Y-66617638D01*
X162196245Y-66523184D01*
X162366516Y-66466378D01*
X162525000Y-66450000D01*
X165475000Y-66450000D01*
G37*
G36*
G01*
X162525000Y-62950000D02*
X165475000Y-62950000D01*
G75*
G02*
X166250000Y-63725000I0J-775000D01*
G01*
X166250000Y-65275000D01*
G75*
G02*
X165475000Y-66050000I-775000J0D01*
G01*
X162525000Y-66050000D01*
G75*
G02*
X161750000Y-65275000I0J775000D01*
G01*
X161750000Y-63725000D01*
G75*
G02*
X162525000Y-62950000I775000J0D01*
G01*
G37*
X165750000Y-65500000D03*
X165750000Y-63500000D03*
X162250000Y-63500000D03*
X162250000Y-65500000D03*
G36*
G01*
X162525000Y-59450000D02*
X165475000Y-59450000D01*
G75*
G02*
X166250000Y-60225000I0J-775000D01*
G01*
X166250000Y-61775000D01*
G75*
G02*
X165475000Y-62550000I-775000J0D01*
G01*
X162525000Y-62550000D01*
G75*
G02*
X161750000Y-61775000I0J775000D01*
G01*
X161750000Y-60225000D01*
G75*
G02*
X162525000Y-59450000I775000J0D01*
G01*
G37*
X165750000Y-62016000D03*
X165750000Y-60000000D03*
X162250000Y-62016000D03*
X162250000Y-59984000D03*
G36*
G01*
X118900000Y-61950000D02*
X118900000Y-61050000D01*
G75*
G02*
X119150000Y-60800000I250000J0D01*
G01*
X119800000Y-60800000D01*
G75*
G02*
X120050000Y-61050000I0J-250000D01*
G01*
X120050000Y-61950000D01*
G75*
G02*
X119800000Y-62200000I-250000J0D01*
G01*
X119150000Y-62200000D01*
G75*
G02*
X118900000Y-61950000I0J250000D01*
G01*
G37*
G36*
G01*
X120950000Y-61950000D02*
X120950000Y-61050000D01*
G75*
G02*
X121200000Y-60800000I250000J0D01*
G01*
X121850000Y-60800000D01*
G75*
G02*
X122100000Y-61050000I0J-250000D01*
G01*
X122100000Y-61950000D01*
G75*
G02*
X121850000Y-62200000I-250000J0D01*
G01*
X121200000Y-62200000D01*
G75*
G02*
X120950000Y-61950000I0J250000D01*
G01*
G37*
G36*
G01*
X130622500Y-78475000D02*
X130622500Y-77525000D01*
G75*
G02*
X130872500Y-77275000I250000J0D01*
G01*
X131547500Y-77275000D01*
G75*
G02*
X131797500Y-77525000I0J-250000D01*
G01*
X131797500Y-78475000D01*
G75*
G02*
X131547500Y-78725000I-250000J0D01*
G01*
X130872500Y-78725000D01*
G75*
G02*
X130622500Y-78475000I0J250000D01*
G01*
G37*
G36*
G01*
X132697500Y-78475000D02*
X132697500Y-77525000D01*
G75*
G02*
X132947500Y-77275000I250000J0D01*
G01*
X133622500Y-77275000D01*
G75*
G02*
X133872500Y-77525000I0J-250000D01*
G01*
X133872500Y-78475000D01*
G75*
G02*
X133622500Y-78725000I-250000J0D01*
G01*
X132947500Y-78725000D01*
G75*
G02*
X132697500Y-78475000I0J250000D01*
G01*
G37*
D17*
X143550000Y-125850000D03*
X144500000Y-125850000D03*
X145450000Y-125850000D03*
X145450000Y-123150000D03*
X143550000Y-123150000D03*
G36*
G01*
X142125000Y-105525000D02*
X142125000Y-106475000D01*
G75*
G02*
X141875000Y-106725000I-250000J0D01*
G01*
X141200000Y-106725000D01*
G75*
G02*
X140950000Y-106475000I0J250000D01*
G01*
X140950000Y-105525000D01*
G75*
G02*
X141200000Y-105275000I250000J0D01*
G01*
X141875000Y-105275000D01*
G75*
G02*
X142125000Y-105525000I0J-250000D01*
G01*
G37*
G36*
G01*
X140050000Y-105525000D02*
X140050000Y-106475000D01*
G75*
G02*
X139800000Y-106725000I-250000J0D01*
G01*
X139125000Y-106725000D01*
G75*
G02*
X138875000Y-106475000I0J250000D01*
G01*
X138875000Y-105525000D01*
G75*
G02*
X139125000Y-105275000I250000J0D01*
G01*
X139800000Y-105275000D01*
G75*
G02*
X140050000Y-105525000I0J-250000D01*
G01*
G37*
X143550000Y-110850000D03*
X144500000Y-110850000D03*
X145450000Y-110850000D03*
X145450000Y-108150000D03*
X143550000Y-108150000D03*
D11*
X156000000Y-118000000D03*
G36*
G01*
X125947500Y-70700000D02*
X125947500Y-70400000D01*
G75*
G02*
X126097500Y-70250000I150000J0D01*
G01*
X127122500Y-70250000D01*
G75*
G02*
X127272500Y-70400000I0J-150000D01*
G01*
X127272500Y-70700000D01*
G75*
G02*
X127122500Y-70850000I-150000J0D01*
G01*
X126097500Y-70850000D01*
G75*
G02*
X125947500Y-70700000I0J150000D01*
G01*
G37*
G36*
G01*
X125947500Y-71650000D02*
X125947500Y-71350000D01*
G75*
G02*
X126097500Y-71200000I150000J0D01*
G01*
X127122500Y-71200000D01*
G75*
G02*
X127272500Y-71350000I0J-150000D01*
G01*
X127272500Y-71650000D01*
G75*
G02*
X127122500Y-71800000I-150000J0D01*
G01*
X126097500Y-71800000D01*
G75*
G02*
X125947500Y-71650000I0J150000D01*
G01*
G37*
G36*
G01*
X125947500Y-72600000D02*
X125947500Y-72300000D01*
G75*
G02*
X126097500Y-72150000I150000J0D01*
G01*
X127122500Y-72150000D01*
G75*
G02*
X127272500Y-72300000I0J-150000D01*
G01*
X127272500Y-72600000D01*
G75*
G02*
X127122500Y-72750000I-150000J0D01*
G01*
X126097500Y-72750000D01*
G75*
G02*
X125947500Y-72600000I0J150000D01*
G01*
G37*
G36*
G01*
X128222500Y-72600000D02*
X128222500Y-72300000D01*
G75*
G02*
X128372500Y-72150000I150000J0D01*
G01*
X129397500Y-72150000D01*
G75*
G02*
X129547500Y-72300000I0J-150000D01*
G01*
X129547500Y-72600000D01*
G75*
G02*
X129397500Y-72750000I-150000J0D01*
G01*
X128372500Y-72750000D01*
G75*
G02*
X128222500Y-72600000I0J150000D01*
G01*
G37*
G36*
G01*
X128222500Y-71650000D02*
X128222500Y-71350000D01*
G75*
G02*
X128372500Y-71200000I150000J0D01*
G01*
X129397500Y-71200000D01*
G75*
G02*
X129547500Y-71350000I0J-150000D01*
G01*
X129547500Y-71650000D01*
G75*
G02*
X129397500Y-71800000I-150000J0D01*
G01*
X128372500Y-71800000D01*
G75*
G02*
X128222500Y-71650000I0J150000D01*
G01*
G37*
G36*
G01*
X128222500Y-70700000D02*
X128222500Y-70400000D01*
G75*
G02*
X128372500Y-70250000I150000J0D01*
G01*
X129397500Y-70250000D01*
G75*
G02*
X129547500Y-70400000I0J-150000D01*
G01*
X129547500Y-70700000D01*
G75*
G02*
X129397500Y-70850000I-150000J0D01*
G01*
X128372500Y-70850000D01*
G75*
G02*
X128222500Y-70700000I0J150000D01*
G01*
G37*
G36*
G01*
X119600000Y-106000000D02*
X119600000Y-104000000D01*
G75*
G02*
X119850000Y-103750000I250000J0D01*
G01*
X123750000Y-103750000D01*
G75*
G02*
X124000000Y-104000000I0J-250000D01*
G01*
X124000000Y-106000000D01*
G75*
G02*
X123750000Y-106250000I-250000J0D01*
G01*
X119850000Y-106250000D01*
G75*
G02*
X119600000Y-106000000I0J250000D01*
G01*
G37*
G36*
G01*
X128000000Y-106000000D02*
X128000000Y-104000000D01*
G75*
G02*
X128250000Y-103750000I250000J0D01*
G01*
X132150000Y-103750000D01*
G75*
G02*
X132400000Y-104000000I0J-250000D01*
G01*
X132400000Y-106000000D01*
G75*
G02*
X132150000Y-106250000I-250000J0D01*
G01*
X128250000Y-106250000D01*
G75*
G02*
X128000000Y-106000000I0J250000D01*
G01*
G37*
G36*
G01*
X150125000Y-69525000D02*
X150125000Y-70475000D01*
G75*
G02*
X149875000Y-70725000I-250000J0D01*
G01*
X149200000Y-70725000D01*
G75*
G02*
X148950000Y-70475000I0J250000D01*
G01*
X148950000Y-69525000D01*
G75*
G02*
X149200000Y-69275000I250000J0D01*
G01*
X149875000Y-69275000D01*
G75*
G02*
X150125000Y-69525000I0J-250000D01*
G01*
G37*
G36*
G01*
X148050000Y-69525000D02*
X148050000Y-70475000D01*
G75*
G02*
X147800000Y-70725000I-250000J0D01*
G01*
X147125000Y-70725000D01*
G75*
G02*
X146875000Y-70475000I0J250000D01*
G01*
X146875000Y-69525000D01*
G75*
G02*
X147125000Y-69275000I250000J0D01*
G01*
X147800000Y-69275000D01*
G75*
G02*
X148050000Y-69525000I0J-250000D01*
G01*
G37*
D13*
X151600000Y-68900000D03*
X151600000Y-66100000D03*
D14*
X151440000Y-73785000D03*
X150170000Y-73785000D03*
X148900000Y-73785000D03*
X147630000Y-73785000D03*
D16*
X147630000Y-79335000D03*
X148900000Y-79335000D03*
X151440000Y-79335000D03*
X150170000Y-79335000D03*
D15*
X149535000Y-77000000D03*
G36*
G01*
X142125000Y-90525000D02*
X142125000Y-91475000D01*
G75*
G02*
X141875000Y-91725000I-250000J0D01*
G01*
X141200000Y-91725000D01*
G75*
G02*
X140950000Y-91475000I0J250000D01*
G01*
X140950000Y-90525000D01*
G75*
G02*
X141200000Y-90275000I250000J0D01*
G01*
X141875000Y-90275000D01*
G75*
G02*
X142125000Y-90525000I0J-250000D01*
G01*
G37*
G36*
G01*
X140050000Y-90525000D02*
X140050000Y-91475000D01*
G75*
G02*
X139800000Y-91725000I-250000J0D01*
G01*
X139125000Y-91725000D01*
G75*
G02*
X138875000Y-91475000I0J250000D01*
G01*
X138875000Y-90525000D01*
G75*
G02*
X139125000Y-90275000I250000J0D01*
G01*
X139800000Y-90275000D01*
G75*
G02*
X140050000Y-90525000I0J-250000D01*
G01*
G37*
G36*
G01*
X138900000Y-119450000D02*
X138900000Y-118550000D01*
G75*
G02*
X139150000Y-118300000I250000J0D01*
G01*
X139850000Y-118300000D01*
G75*
G02*
X140100000Y-118550000I0J-250000D01*
G01*
X140100000Y-119450000D01*
G75*
G02*
X139850000Y-119700000I-250000J0D01*
G01*
X139150000Y-119700000D01*
G75*
G02*
X138900000Y-119450000I0J250000D01*
G01*
G37*
G36*
G01*
X140900000Y-119450000D02*
X140900000Y-118550000D01*
G75*
G02*
X141150000Y-118300000I250000J0D01*
G01*
X141850000Y-118300000D01*
G75*
G02*
X142100000Y-118550000I0J-250000D01*
G01*
X142100000Y-119450000D01*
G75*
G02*
X141850000Y-119700000I-250000J0D01*
G01*
X141150000Y-119700000D01*
G75*
G02*
X140900000Y-119450000I0J250000D01*
G01*
G37*
G36*
G01*
X142900000Y-76450000D02*
X142900000Y-75550000D01*
G75*
G02*
X143150000Y-75300000I250000J0D01*
G01*
X143850000Y-75300000D01*
G75*
G02*
X144100000Y-75550000I0J-250000D01*
G01*
X144100000Y-76450000D01*
G75*
G02*
X143850000Y-76700000I-250000J0D01*
G01*
X143150000Y-76700000D01*
G75*
G02*
X142900000Y-76450000I0J250000D01*
G01*
G37*
G36*
G01*
X144900000Y-76450000D02*
X144900000Y-75550000D01*
G75*
G02*
X145150000Y-75300000I250000J0D01*
G01*
X145850000Y-75300000D01*
G75*
G02*
X146100000Y-75550000I0J-250000D01*
G01*
X146100000Y-76450000D01*
G75*
G02*
X145850000Y-76700000I-250000J0D01*
G01*
X145150000Y-76700000D01*
G75*
G02*
X144900000Y-76450000I0J250000D01*
G01*
G37*
G36*
X165475000Y-126450000D02*
G01*
X165632160Y-126466102D01*
X165802529Y-126522611D01*
X165955329Y-126616798D01*
X166082362Y-126743610D01*
X166176816Y-126896245D01*
X166233622Y-127066516D01*
X166250000Y-127225000D01*
X166250000Y-128930000D01*
X165630000Y-129550000D01*
X162525000Y-129550000D01*
X162367840Y-129533898D01*
X162197471Y-129477389D01*
X162044671Y-129383202D01*
X161917638Y-129256390D01*
X161823184Y-129103755D01*
X161766378Y-128933484D01*
X161750000Y-128775000D01*
X161750000Y-127225000D01*
X161766102Y-127067840D01*
X161822611Y-126897471D01*
X161916798Y-126744671D01*
X162043610Y-126617638D01*
X162196245Y-126523184D01*
X162366516Y-126466378D01*
X162525000Y-126450000D01*
X165475000Y-126450000D01*
G37*
D12*
X162250000Y-127000000D03*
X165750000Y-127000000D03*
X162250000Y-129000000D03*
X165750000Y-129000000D03*
G36*
G01*
X162525000Y-122950000D02*
X165475000Y-122950000D01*
G75*
G02*
X166250000Y-123725000I0J-775000D01*
G01*
X166250000Y-125275000D01*
G75*
G02*
X165475000Y-126050000I-775000J0D01*
G01*
X162525000Y-126050000D01*
G75*
G02*
X161750000Y-125275000I0J775000D01*
G01*
X161750000Y-123725000D01*
G75*
G02*
X162525000Y-122950000I775000J0D01*
G01*
G37*
X162250000Y-125500000D03*
X165750000Y-123500000D03*
X165750000Y-125500000D03*
X162250000Y-123500000D03*
G36*
G01*
X162525000Y-119450000D02*
X165475000Y-119450000D01*
G75*
G02*
X166250000Y-120225000I0J-775000D01*
G01*
X166250000Y-121775000D01*
G75*
G02*
X165475000Y-122550000I-775000J0D01*
G01*
X162525000Y-122550000D01*
G75*
G02*
X161750000Y-121775000I0J775000D01*
G01*
X161750000Y-120225000D01*
G75*
G02*
X162525000Y-119450000I775000J0D01*
G01*
G37*
X165750000Y-120000000D03*
X162250000Y-119984000D03*
X165750000Y-122016000D03*
X162250000Y-122016000D03*
G36*
G01*
X146100000Y-129550000D02*
X146100000Y-130450000D01*
G75*
G02*
X145850000Y-130700000I-250000J0D01*
G01*
X145150000Y-130700000D01*
G75*
G02*
X144900000Y-130450000I0J250000D01*
G01*
X144900000Y-129550000D01*
G75*
G02*
X145150000Y-129300000I250000J0D01*
G01*
X145850000Y-129300000D01*
G75*
G02*
X146100000Y-129550000I0J-250000D01*
G01*
G37*
G36*
G01*
X144100000Y-129550000D02*
X144100000Y-130450000D01*
G75*
G02*
X143850000Y-130700000I-250000J0D01*
G01*
X143150000Y-130700000D01*
G75*
G02*
X142900000Y-130450000I0J250000D01*
G01*
X142900000Y-129550000D01*
G75*
G02*
X143150000Y-129300000I250000J0D01*
G01*
X143850000Y-129300000D01*
G75*
G02*
X144100000Y-129550000I0J-250000D01*
G01*
G37*
G36*
G01*
X142900000Y-91450000D02*
X142900000Y-90550000D01*
G75*
G02*
X143150000Y-90300000I250000J0D01*
G01*
X143850000Y-90300000D01*
G75*
G02*
X144100000Y-90550000I0J-250000D01*
G01*
X144100000Y-91450000D01*
G75*
G02*
X143850000Y-91700000I-250000J0D01*
G01*
X143150000Y-91700000D01*
G75*
G02*
X142900000Y-91450000I0J250000D01*
G01*
G37*
G36*
G01*
X144900000Y-91450000D02*
X144900000Y-90550000D01*
G75*
G02*
X145150000Y-90300000I250000J0D01*
G01*
X145850000Y-90300000D01*
G75*
G02*
X146100000Y-90550000I0J-250000D01*
G01*
X146100000Y-91450000D01*
G75*
G02*
X145850000Y-91700000I-250000J0D01*
G01*
X145150000Y-91700000D01*
G75*
G02*
X144900000Y-91450000I0J250000D01*
G01*
G37*
G36*
G01*
X142875000Y-113475000D02*
X142875000Y-112525000D01*
G75*
G02*
X143125000Y-112275000I250000J0D01*
G01*
X143800000Y-112275000D01*
G75*
G02*
X144050000Y-112525000I0J-250000D01*
G01*
X144050000Y-113475000D01*
G75*
G02*
X143800000Y-113725000I-250000J0D01*
G01*
X143125000Y-113725000D01*
G75*
G02*
X142875000Y-113475000I0J250000D01*
G01*
G37*
G36*
G01*
X144950000Y-113475000D02*
X144950000Y-112525000D01*
G75*
G02*
X145200000Y-112275000I250000J0D01*
G01*
X145875000Y-112275000D01*
G75*
G02*
X146125000Y-112525000I0J-250000D01*
G01*
X146125000Y-113475000D01*
G75*
G02*
X145875000Y-113725000I-250000J0D01*
G01*
X145200000Y-113725000D01*
G75*
G02*
X144950000Y-113475000I0J250000D01*
G01*
G37*
G36*
G01*
X142875000Y-83475000D02*
X142875000Y-82525000D01*
G75*
G02*
X143125000Y-82275000I250000J0D01*
G01*
X143800000Y-82275000D01*
G75*
G02*
X144050000Y-82525000I0J-250000D01*
G01*
X144050000Y-83475000D01*
G75*
G02*
X143800000Y-83725000I-250000J0D01*
G01*
X143125000Y-83725000D01*
G75*
G02*
X142875000Y-83475000I0J250000D01*
G01*
G37*
G36*
G01*
X144950000Y-83475000D02*
X144950000Y-82525000D01*
G75*
G02*
X145200000Y-82275000I250000J0D01*
G01*
X145875000Y-82275000D01*
G75*
G02*
X146125000Y-82525000I0J-250000D01*
G01*
X146125000Y-83475000D01*
G75*
G02*
X145875000Y-83725000I-250000J0D01*
G01*
X145200000Y-83725000D01*
G75*
G02*
X144950000Y-83475000I0J250000D01*
G01*
G37*
D18*
X141250000Y-100750000D03*
X141250000Y-100250000D03*
X141250000Y-99750000D03*
X139750000Y-99750000D03*
X139750000Y-100250000D03*
X139750000Y-100750000D03*
G36*
G01*
X146100000Y-73550000D02*
X146100000Y-74450000D01*
G75*
G02*
X145850000Y-74700000I-250000J0D01*
G01*
X145150000Y-74700000D01*
G75*
G02*
X144900000Y-74450000I0J250000D01*
G01*
X144900000Y-73550000D01*
G75*
G02*
X145150000Y-73300000I250000J0D01*
G01*
X145850000Y-73300000D01*
G75*
G02*
X146100000Y-73550000I0J-250000D01*
G01*
G37*
G36*
G01*
X144100000Y-73550000D02*
X144100000Y-74450000D01*
G75*
G02*
X143850000Y-74700000I-250000J0D01*
G01*
X143150000Y-74700000D01*
G75*
G02*
X142900000Y-74450000I0J250000D01*
G01*
X142900000Y-73550000D01*
G75*
G02*
X143150000Y-73300000I250000J0D01*
G01*
X143850000Y-73300000D01*
G75*
G02*
X144100000Y-73550000I0J-250000D01*
G01*
G37*
D19*
X179000000Y-127400000D03*
X177302944Y-126697056D03*
X181400000Y-125000000D03*
X177302944Y-123302944D03*
X180697056Y-123302944D03*
X179000000Y-122600000D03*
D20*
X179000000Y-125000000D03*
D19*
X180697056Y-126697056D03*
X176600000Y-125000000D03*
G36*
G01*
X150125000Y-129525000D02*
X150125000Y-130475000D01*
G75*
G02*
X149875000Y-130725000I-250000J0D01*
G01*
X149200000Y-130725000D01*
G75*
G02*
X148950000Y-130475000I0J250000D01*
G01*
X148950000Y-129525000D01*
G75*
G02*
X149200000Y-129275000I250000J0D01*
G01*
X149875000Y-129275000D01*
G75*
G02*
X150125000Y-129525000I0J-250000D01*
G01*
G37*
G36*
G01*
X148050000Y-129525000D02*
X148050000Y-130475000D01*
G75*
G02*
X147800000Y-130725000I-250000J0D01*
G01*
X147125000Y-130725000D01*
G75*
G02*
X146875000Y-130475000I0J250000D01*
G01*
X146875000Y-129525000D01*
G75*
G02*
X147125000Y-129275000I250000J0D01*
G01*
X147800000Y-129275000D01*
G75*
G02*
X148050000Y-129525000I0J-250000D01*
G01*
G37*
D13*
X151600000Y-113900000D03*
X151600000Y-111100000D03*
G36*
G01*
X138900000Y-80450000D02*
X138900000Y-79550000D01*
G75*
G02*
X139150000Y-79300000I250000J0D01*
G01*
X139850000Y-79300000D01*
G75*
G02*
X140100000Y-79550000I0J-250000D01*
G01*
X140100000Y-80450000D01*
G75*
G02*
X139850000Y-80700000I-250000J0D01*
G01*
X139150000Y-80700000D01*
G75*
G02*
X138900000Y-80450000I0J250000D01*
G01*
G37*
G36*
G01*
X140900000Y-80450000D02*
X140900000Y-79550000D01*
G75*
G02*
X141150000Y-79300000I250000J0D01*
G01*
X141850000Y-79300000D01*
G75*
G02*
X142100000Y-79550000I0J-250000D01*
G01*
X142100000Y-80450000D01*
G75*
G02*
X141850000Y-80700000I-250000J0D01*
G01*
X141150000Y-80700000D01*
G75*
G02*
X140900000Y-80450000I0J250000D01*
G01*
G37*
G36*
G01*
X146875000Y-66475000D02*
X146875000Y-65525000D01*
G75*
G02*
X147125000Y-65275000I250000J0D01*
G01*
X147800000Y-65275000D01*
G75*
G02*
X148050000Y-65525000I0J-250000D01*
G01*
X148050000Y-66475000D01*
G75*
G02*
X147800000Y-66725000I-250000J0D01*
G01*
X147125000Y-66725000D01*
G75*
G02*
X146875000Y-66475000I0J250000D01*
G01*
G37*
G36*
G01*
X148950000Y-66475000D02*
X148950000Y-65525000D01*
G75*
G02*
X149200000Y-65275000I250000J0D01*
G01*
X149875000Y-65275000D01*
G75*
G02*
X150125000Y-65525000I0J-250000D01*
G01*
X150125000Y-66475000D01*
G75*
G02*
X149875000Y-66725000I-250000J0D01*
G01*
X149200000Y-66725000D01*
G75*
G02*
X148950000Y-66475000I0J250000D01*
G01*
G37*
D19*
X131400000Y-125000000D03*
X129000000Y-122600000D03*
X130697056Y-123302944D03*
X129000000Y-127400000D03*
X126600000Y-125000000D03*
X127302944Y-123302944D03*
D20*
X129000000Y-125000000D03*
D19*
X127302944Y-126697056D03*
X130697056Y-126697056D03*
G36*
G01*
X142875000Y-68475000D02*
X142875000Y-67525000D01*
G75*
G02*
X143125000Y-67275000I250000J0D01*
G01*
X143800000Y-67275000D01*
G75*
G02*
X144050000Y-67525000I0J-250000D01*
G01*
X144050000Y-68475000D01*
G75*
G02*
X143800000Y-68725000I-250000J0D01*
G01*
X143125000Y-68725000D01*
G75*
G02*
X142875000Y-68475000I0J250000D01*
G01*
G37*
G36*
G01*
X144950000Y-68475000D02*
X144950000Y-67525000D01*
G75*
G02*
X145200000Y-67275000I250000J0D01*
G01*
X145875000Y-67275000D01*
G75*
G02*
X146125000Y-67525000I0J-250000D01*
G01*
X146125000Y-68475000D01*
G75*
G02*
X145875000Y-68725000I-250000J0D01*
G01*
X145200000Y-68725000D01*
G75*
G02*
X144950000Y-68475000I0J250000D01*
G01*
G37*
D14*
X151440000Y-103785000D03*
X150170000Y-103785000D03*
X148900000Y-103785000D03*
X147630000Y-103785000D03*
D16*
X150170000Y-109335000D03*
D15*
X149535000Y-107000000D03*
D16*
X148900000Y-109335000D03*
X147630000Y-109335000D03*
X151440000Y-109335000D03*
G36*
G01*
X138900000Y-89450000D02*
X138900000Y-88550000D01*
G75*
G02*
X139150000Y-88300000I250000J0D01*
G01*
X139850000Y-88300000D01*
G75*
G02*
X140100000Y-88550000I0J-250000D01*
G01*
X140100000Y-89450000D01*
G75*
G02*
X139850000Y-89700000I-250000J0D01*
G01*
X139150000Y-89700000D01*
G75*
G02*
X138900000Y-89450000I0J250000D01*
G01*
G37*
G36*
G01*
X140900000Y-89450000D02*
X140900000Y-88550000D01*
G75*
G02*
X141150000Y-88300000I250000J0D01*
G01*
X141850000Y-88300000D01*
G75*
G02*
X142100000Y-88550000I0J-250000D01*
G01*
X142100000Y-89450000D01*
G75*
G02*
X141850000Y-89700000I-250000J0D01*
G01*
X141150000Y-89700000D01*
G75*
G02*
X140900000Y-89450000I0J250000D01*
G01*
G37*
G36*
G01*
X146100000Y-84550000D02*
X146100000Y-85450000D01*
G75*
G02*
X145850000Y-85700000I-250000J0D01*
G01*
X145150000Y-85700000D01*
G75*
G02*
X144900000Y-85450000I0J250000D01*
G01*
X144900000Y-84550000D01*
G75*
G02*
X145150000Y-84300000I250000J0D01*
G01*
X145850000Y-84300000D01*
G75*
G02*
X146100000Y-84550000I0J-250000D01*
G01*
G37*
G36*
G01*
X144100000Y-84550000D02*
X144100000Y-85450000D01*
G75*
G02*
X143850000Y-85700000I-250000J0D01*
G01*
X143150000Y-85700000D01*
G75*
G02*
X142900000Y-85450000I0J250000D01*
G01*
X142900000Y-84550000D01*
G75*
G02*
X143150000Y-84300000I250000J0D01*
G01*
X143850000Y-84300000D01*
G75*
G02*
X144100000Y-84550000I0J-250000D01*
G01*
G37*
D12*
X165750000Y-99000000D03*
X162250000Y-97000000D03*
G36*
X165475000Y-96450000D02*
G01*
X165632160Y-96466102D01*
X165802529Y-96522611D01*
X165955329Y-96616798D01*
X166082362Y-96743610D01*
X166176816Y-96896245D01*
X166233622Y-97066516D01*
X166250000Y-97225000D01*
X166250000Y-98930000D01*
X165630000Y-99550000D01*
X162525000Y-99550000D01*
X162367840Y-99533898D01*
X162197471Y-99477389D01*
X162044671Y-99383202D01*
X161917638Y-99256390D01*
X161823184Y-99103755D01*
X161766378Y-98933484D01*
X161750000Y-98775000D01*
X161750000Y-97225000D01*
X161766102Y-97067840D01*
X161822611Y-96897471D01*
X161916798Y-96744671D01*
X162043610Y-96617638D01*
X162196245Y-96523184D01*
X162366516Y-96466378D01*
X162525000Y-96450000D01*
X165475000Y-96450000D01*
G37*
X165750000Y-97000000D03*
X162250000Y-99000000D03*
X162250000Y-95500000D03*
X165750000Y-95500000D03*
X162250000Y-93500000D03*
G36*
G01*
X162525000Y-92950000D02*
X165475000Y-92950000D01*
G75*
G02*
X166250000Y-93725000I0J-775000D01*
G01*
X166250000Y-95275000D01*
G75*
G02*
X165475000Y-96050000I-775000J0D01*
G01*
X162525000Y-96050000D01*
G75*
G02*
X161750000Y-95275000I0J775000D01*
G01*
X161750000Y-93725000D01*
G75*
G02*
X162525000Y-92950000I775000J0D01*
G01*
G37*
X165750000Y-93500000D03*
X165750000Y-90000000D03*
X162250000Y-89984000D03*
X165750000Y-92016000D03*
G36*
G01*
X162525000Y-89450000D02*
X165475000Y-89450000D01*
G75*
G02*
X166250000Y-90225000I0J-775000D01*
G01*
X166250000Y-91775000D01*
G75*
G02*
X165475000Y-92550000I-775000J0D01*
G01*
X162525000Y-92550000D01*
G75*
G02*
X161750000Y-91775000I0J775000D01*
G01*
X161750000Y-90225000D01*
G75*
G02*
X162525000Y-89450000I775000J0D01*
G01*
G37*
X162250000Y-92016000D03*
G36*
G01*
X146100000Y-114550000D02*
X146100000Y-115450000D01*
G75*
G02*
X145850000Y-115700000I-250000J0D01*
G01*
X145150000Y-115700000D01*
G75*
G02*
X144900000Y-115450000I0J250000D01*
G01*
X144900000Y-114550000D01*
G75*
G02*
X145150000Y-114300000I250000J0D01*
G01*
X145850000Y-114300000D01*
G75*
G02*
X146100000Y-114550000I0J-250000D01*
G01*
G37*
G36*
G01*
X144100000Y-114550000D02*
X144100000Y-115450000D01*
G75*
G02*
X143850000Y-115700000I-250000J0D01*
G01*
X143150000Y-115700000D01*
G75*
G02*
X142900000Y-115450000I0J250000D01*
G01*
X142900000Y-114550000D01*
G75*
G02*
X143150000Y-114300000I250000J0D01*
G01*
X143850000Y-114300000D01*
G75*
G02*
X144100000Y-114550000I0J-250000D01*
G01*
G37*
G36*
G01*
X138900000Y-74450000D02*
X138900000Y-73550000D01*
G75*
G02*
X139150000Y-73300000I250000J0D01*
G01*
X139850000Y-73300000D01*
G75*
G02*
X140100000Y-73550000I0J-250000D01*
G01*
X140100000Y-74450000D01*
G75*
G02*
X139850000Y-74700000I-250000J0D01*
G01*
X139150000Y-74700000D01*
G75*
G02*
X138900000Y-74450000I0J250000D01*
G01*
G37*
G36*
G01*
X140900000Y-74450000D02*
X140900000Y-73550000D01*
G75*
G02*
X141150000Y-73300000I250000J0D01*
G01*
X141850000Y-73300000D01*
G75*
G02*
X142100000Y-73550000I0J-250000D01*
G01*
X142100000Y-74450000D01*
G75*
G02*
X141850000Y-74700000I-250000J0D01*
G01*
X141150000Y-74700000D01*
G75*
G02*
X140900000Y-74450000I0J250000D01*
G01*
G37*
D21*
X129000000Y-58000000D03*
D19*
X129000000Y-62600000D03*
X127302944Y-63302944D03*
D20*
X129000000Y-65000000D03*
D19*
X130697056Y-63302944D03*
X126600000Y-65000000D03*
X129000000Y-67400000D03*
X130697056Y-66697056D03*
X127302944Y-66697056D03*
X131400000Y-65000000D03*
G36*
G01*
X150125000Y-114525000D02*
X150125000Y-115475000D01*
G75*
G02*
X149875000Y-115725000I-250000J0D01*
G01*
X149200000Y-115725000D01*
G75*
G02*
X148950000Y-115475000I0J250000D01*
G01*
X148950000Y-114525000D01*
G75*
G02*
X149200000Y-114275000I250000J0D01*
G01*
X149875000Y-114275000D01*
G75*
G02*
X150125000Y-114525000I0J-250000D01*
G01*
G37*
G36*
G01*
X148050000Y-114525000D02*
X148050000Y-115475000D01*
G75*
G02*
X147800000Y-115725000I-250000J0D01*
G01*
X147125000Y-115725000D01*
G75*
G02*
X146875000Y-115475000I0J250000D01*
G01*
X146875000Y-114525000D01*
G75*
G02*
X147125000Y-114275000I250000J0D01*
G01*
X147800000Y-114275000D01*
G75*
G02*
X148050000Y-114525000I0J-250000D01*
G01*
G37*
G36*
G01*
X138900000Y-95450000D02*
X138900000Y-94550000D01*
G75*
G02*
X139150000Y-94300000I250000J0D01*
G01*
X139850000Y-94300000D01*
G75*
G02*
X140100000Y-94550000I0J-250000D01*
G01*
X140100000Y-95450000D01*
G75*
G02*
X139850000Y-95700000I-250000J0D01*
G01*
X139150000Y-95700000D01*
G75*
G02*
X138900000Y-95450000I0J250000D01*
G01*
G37*
G36*
G01*
X140900000Y-95450000D02*
X140900000Y-94550000D01*
G75*
G02*
X141150000Y-94300000I250000J0D01*
G01*
X141850000Y-94300000D01*
G75*
G02*
X142100000Y-94550000I0J-250000D01*
G01*
X142100000Y-95450000D01*
G75*
G02*
X141850000Y-95700000I-250000J0D01*
G01*
X141150000Y-95700000D01*
G75*
G02*
X140900000Y-95450000I0J250000D01*
G01*
G37*
G36*
G01*
X136100000Y-61050000D02*
X136100000Y-61950000D01*
G75*
G02*
X135850000Y-62200000I-250000J0D01*
G01*
X135200000Y-62200000D01*
G75*
G02*
X134950000Y-61950000I0J250000D01*
G01*
X134950000Y-61050000D01*
G75*
G02*
X135200000Y-60800000I250000J0D01*
G01*
X135850000Y-60800000D01*
G75*
G02*
X136100000Y-61050000I0J-250000D01*
G01*
G37*
G36*
G01*
X134050000Y-61050000D02*
X134050000Y-61950000D01*
G75*
G02*
X133800000Y-62200000I-250000J0D01*
G01*
X133150000Y-62200000D01*
G75*
G02*
X132900000Y-61950000I0J250000D01*
G01*
X132900000Y-61050000D01*
G75*
G02*
X133150000Y-60800000I250000J0D01*
G01*
X133800000Y-60800000D01*
G75*
G02*
X134050000Y-61050000I0J-250000D01*
G01*
G37*
G36*
G01*
X146100000Y-58550000D02*
X146100000Y-59450000D01*
G75*
G02*
X145850000Y-59700000I-250000J0D01*
G01*
X145150000Y-59700000D01*
G75*
G02*
X144900000Y-59450000I0J250000D01*
G01*
X144900000Y-58550000D01*
G75*
G02*
X145150000Y-58300000I250000J0D01*
G01*
X145850000Y-58300000D01*
G75*
G02*
X146100000Y-58550000I0J-250000D01*
G01*
G37*
G36*
G01*
X144100000Y-58550000D02*
X144100000Y-59450000D01*
G75*
G02*
X143850000Y-59700000I-250000J0D01*
G01*
X143150000Y-59700000D01*
G75*
G02*
X142900000Y-59450000I0J250000D01*
G01*
X142900000Y-58550000D01*
G75*
G02*
X143150000Y-58300000I250000J0D01*
G01*
X143850000Y-58300000D01*
G75*
G02*
X144100000Y-58550000I0J-250000D01*
G01*
G37*
G36*
G01*
X122350000Y-88020000D02*
X122350000Y-89220000D01*
G75*
G02*
X122100000Y-89470000I-250000J0D01*
G01*
X120900000Y-89470000D01*
G75*
G02*
X120650000Y-89220000I0J250000D01*
G01*
X120650000Y-88020000D01*
G75*
G02*
X120900000Y-87770000I250000J0D01*
G01*
X122100000Y-87770000D01*
G75*
G02*
X122350000Y-88020000I0J-250000D01*
G01*
G37*
D22*
X118960000Y-88620000D03*
X121500000Y-86080000D03*
X118960000Y-86080000D03*
X121500000Y-83540000D03*
X118960000Y-83540000D03*
X121500000Y-81000000D03*
X118960000Y-81000000D03*
X121500000Y-78460000D03*
X118960000Y-78460000D03*
X121500000Y-75920000D03*
X118960000Y-75920000D03*
X121500000Y-73380000D03*
X118960000Y-73380000D03*
X121500000Y-70840000D03*
X118960000Y-70840000D03*
G36*
G01*
X130647500Y-81950000D02*
X130647500Y-81050000D01*
G75*
G02*
X130897500Y-80800000I250000J0D01*
G01*
X131597500Y-80800000D01*
G75*
G02*
X131847500Y-81050000I0J-250000D01*
G01*
X131847500Y-81950000D01*
G75*
G02*
X131597500Y-82200000I-250000J0D01*
G01*
X130897500Y-82200000D01*
G75*
G02*
X130647500Y-81950000I0J250000D01*
G01*
G37*
G36*
G01*
X132647500Y-81950000D02*
X132647500Y-81050000D01*
G75*
G02*
X132897500Y-80800000I250000J0D01*
G01*
X133597500Y-80800000D01*
G75*
G02*
X133847500Y-81050000I0J-250000D01*
G01*
X133847500Y-81950000D01*
G75*
G02*
X133597500Y-82200000I-250000J0D01*
G01*
X132897500Y-82200000D01*
G75*
G02*
X132647500Y-81950000I0J250000D01*
G01*
G37*
G36*
G01*
X146875000Y-126475000D02*
X146875000Y-125525000D01*
G75*
G02*
X147125000Y-125275000I250000J0D01*
G01*
X147800000Y-125275000D01*
G75*
G02*
X148050000Y-125525000I0J-250000D01*
G01*
X148050000Y-126475000D01*
G75*
G02*
X147800000Y-126725000I-250000J0D01*
G01*
X147125000Y-126725000D01*
G75*
G02*
X146875000Y-126475000I0J250000D01*
G01*
G37*
G36*
G01*
X148950000Y-126475000D02*
X148950000Y-125525000D01*
G75*
G02*
X149200000Y-125275000I250000J0D01*
G01*
X149875000Y-125275000D01*
G75*
G02*
X150125000Y-125525000I0J-250000D01*
G01*
X150125000Y-126475000D01*
G75*
G02*
X149875000Y-126725000I-250000J0D01*
G01*
X149200000Y-126725000D01*
G75*
G02*
X148950000Y-126475000I0J250000D01*
G01*
G37*
G36*
G01*
X138900000Y-84950000D02*
X138900000Y-84050000D01*
G75*
G02*
X139150000Y-83800000I250000J0D01*
G01*
X139850000Y-83800000D01*
G75*
G02*
X140100000Y-84050000I0J-250000D01*
G01*
X140100000Y-84950000D01*
G75*
G02*
X139850000Y-85200000I-250000J0D01*
G01*
X139150000Y-85200000D01*
G75*
G02*
X138900000Y-84950000I0J250000D01*
G01*
G37*
G36*
G01*
X140900000Y-84950000D02*
X140900000Y-84050000D01*
G75*
G02*
X141150000Y-83800000I250000J0D01*
G01*
X141850000Y-83800000D01*
G75*
G02*
X142100000Y-84050000I0J-250000D01*
G01*
X142100000Y-84950000D01*
G75*
G02*
X141850000Y-85200000I-250000J0D01*
G01*
X141150000Y-85200000D01*
G75*
G02*
X140900000Y-84950000I0J250000D01*
G01*
G37*
G36*
G01*
X130647500Y-76450000D02*
X130647500Y-75550000D01*
G75*
G02*
X130897500Y-75300000I250000J0D01*
G01*
X131597500Y-75300000D01*
G75*
G02*
X131847500Y-75550000I0J-250000D01*
G01*
X131847500Y-76450000D01*
G75*
G02*
X131597500Y-76700000I-250000J0D01*
G01*
X130897500Y-76700000D01*
G75*
G02*
X130647500Y-76450000I0J250000D01*
G01*
G37*
G36*
G01*
X132647500Y-76450000D02*
X132647500Y-75550000D01*
G75*
G02*
X132897500Y-75300000I250000J0D01*
G01*
X133597500Y-75300000D01*
G75*
G02*
X133847500Y-75550000I0J-250000D01*
G01*
X133847500Y-76450000D01*
G75*
G02*
X133597500Y-76700000I-250000J0D01*
G01*
X132897500Y-76700000D01*
G75*
G02*
X132647500Y-76450000I0J250000D01*
G01*
G37*
G36*
G01*
X125947500Y-81700000D02*
X125947500Y-81400000D01*
G75*
G02*
X126097500Y-81250000I150000J0D01*
G01*
X127122500Y-81250000D01*
G75*
G02*
X127272500Y-81400000I0J-150000D01*
G01*
X127272500Y-81700000D01*
G75*
G02*
X127122500Y-81850000I-150000J0D01*
G01*
X126097500Y-81850000D01*
G75*
G02*
X125947500Y-81700000I0J150000D01*
G01*
G37*
G36*
G01*
X125947500Y-82650000D02*
X125947500Y-82350000D01*
G75*
G02*
X126097500Y-82200000I150000J0D01*
G01*
X127122500Y-82200000D01*
G75*
G02*
X127272500Y-82350000I0J-150000D01*
G01*
X127272500Y-82650000D01*
G75*
G02*
X127122500Y-82800000I-150000J0D01*
G01*
X126097500Y-82800000D01*
G75*
G02*
X125947500Y-82650000I0J150000D01*
G01*
G37*
G36*
G01*
X125947500Y-83600000D02*
X125947500Y-83300000D01*
G75*
G02*
X126097500Y-83150000I150000J0D01*
G01*
X127122500Y-83150000D01*
G75*
G02*
X127272500Y-83300000I0J-150000D01*
G01*
X127272500Y-83600000D01*
G75*
G02*
X127122500Y-83750000I-150000J0D01*
G01*
X126097500Y-83750000D01*
G75*
G02*
X125947500Y-83600000I0J150000D01*
G01*
G37*
G36*
G01*
X128222500Y-83600000D02*
X128222500Y-83300000D01*
G75*
G02*
X128372500Y-83150000I150000J0D01*
G01*
X129397500Y-83150000D01*
G75*
G02*
X129547500Y-83300000I0J-150000D01*
G01*
X129547500Y-83600000D01*
G75*
G02*
X129397500Y-83750000I-150000J0D01*
G01*
X128372500Y-83750000D01*
G75*
G02*
X128222500Y-83600000I0J150000D01*
G01*
G37*
G36*
G01*
X128222500Y-82650000D02*
X128222500Y-82350000D01*
G75*
G02*
X128372500Y-82200000I150000J0D01*
G01*
X129397500Y-82200000D01*
G75*
G02*
X129547500Y-82350000I0J-150000D01*
G01*
X129547500Y-82650000D01*
G75*
G02*
X129397500Y-82800000I-150000J0D01*
G01*
X128372500Y-82800000D01*
G75*
G02*
X128222500Y-82650000I0J150000D01*
G01*
G37*
G36*
G01*
X128222500Y-81700000D02*
X128222500Y-81400000D01*
G75*
G02*
X128372500Y-81250000I150000J0D01*
G01*
X129397500Y-81250000D01*
G75*
G02*
X129547500Y-81400000I0J-150000D01*
G01*
X129547500Y-81700000D01*
G75*
G02*
X129397500Y-81850000I-150000J0D01*
G01*
X128372500Y-81850000D01*
G75*
G02*
X128222500Y-81700000I0J150000D01*
G01*
G37*
G36*
G01*
X132900000Y-63950000D02*
X132900000Y-63050000D01*
G75*
G02*
X133150000Y-62800000I250000J0D01*
G01*
X133850000Y-62800000D01*
G75*
G02*
X134100000Y-63050000I0J-250000D01*
G01*
X134100000Y-63950000D01*
G75*
G02*
X133850000Y-64200000I-250000J0D01*
G01*
X133150000Y-64200000D01*
G75*
G02*
X132900000Y-63950000I0J250000D01*
G01*
G37*
G36*
G01*
X134900000Y-63950000D02*
X134900000Y-63050000D01*
G75*
G02*
X135150000Y-62800000I250000J0D01*
G01*
X135850000Y-62800000D01*
G75*
G02*
X136100000Y-63050000I0J-250000D01*
G01*
X136100000Y-63950000D01*
G75*
G02*
X135850000Y-64200000I-250000J0D01*
G01*
X135150000Y-64200000D01*
G75*
G02*
X134900000Y-63950000I0J250000D01*
G01*
G37*
G36*
G01*
X138875000Y-97475000D02*
X138875000Y-96525000D01*
G75*
G02*
X139125000Y-96275000I250000J0D01*
G01*
X139800000Y-96275000D01*
G75*
G02*
X140050000Y-96525000I0J-250000D01*
G01*
X140050000Y-97475000D01*
G75*
G02*
X139800000Y-97725000I-250000J0D01*
G01*
X139125000Y-97725000D01*
G75*
G02*
X138875000Y-97475000I0J250000D01*
G01*
G37*
G36*
G01*
X140950000Y-97475000D02*
X140950000Y-96525000D01*
G75*
G02*
X141200000Y-96275000I250000J0D01*
G01*
X141875000Y-96275000D01*
G75*
G02*
X142125000Y-96525000I0J-250000D01*
G01*
X142125000Y-97475000D01*
G75*
G02*
X141875000Y-97725000I-250000J0D01*
G01*
X141200000Y-97725000D01*
G75*
G02*
X140950000Y-97475000I0J250000D01*
G01*
G37*
G36*
G01*
X150125000Y-99525000D02*
X150125000Y-100475000D01*
G75*
G02*
X149875000Y-100725000I-250000J0D01*
G01*
X149200000Y-100725000D01*
G75*
G02*
X148950000Y-100475000I0J250000D01*
G01*
X148950000Y-99525000D01*
G75*
G02*
X149200000Y-99275000I250000J0D01*
G01*
X149875000Y-99275000D01*
G75*
G02*
X150125000Y-99525000I0J-250000D01*
G01*
G37*
G36*
G01*
X148050000Y-99525000D02*
X148050000Y-100475000D01*
G75*
G02*
X147800000Y-100725000I-250000J0D01*
G01*
X147125000Y-100725000D01*
G75*
G02*
X146875000Y-100475000I0J250000D01*
G01*
X146875000Y-99525000D01*
G75*
G02*
X147125000Y-99275000I250000J0D01*
G01*
X147800000Y-99275000D01*
G75*
G02*
X148050000Y-99525000I0J-250000D01*
G01*
G37*
G36*
G01*
X138900000Y-86950000D02*
X138900000Y-86050000D01*
G75*
G02*
X139150000Y-85800000I250000J0D01*
G01*
X139850000Y-85800000D01*
G75*
G02*
X140100000Y-86050000I0J-250000D01*
G01*
X140100000Y-86950000D01*
G75*
G02*
X139850000Y-87200000I-250000J0D01*
G01*
X139150000Y-87200000D01*
G75*
G02*
X138900000Y-86950000I0J250000D01*
G01*
G37*
G36*
G01*
X140900000Y-86950000D02*
X140900000Y-86050000D01*
G75*
G02*
X141150000Y-85800000I250000J0D01*
G01*
X141850000Y-85800000D01*
G75*
G02*
X142100000Y-86050000I0J-250000D01*
G01*
X142100000Y-86950000D01*
G75*
G02*
X141850000Y-87200000I-250000J0D01*
G01*
X141150000Y-87200000D01*
G75*
G02*
X140900000Y-86950000I0J250000D01*
G01*
G37*
G36*
G01*
X142900000Y-121450000D02*
X142900000Y-120550000D01*
G75*
G02*
X143150000Y-120300000I250000J0D01*
G01*
X143850000Y-120300000D01*
G75*
G02*
X144100000Y-120550000I0J-250000D01*
G01*
X144100000Y-121450000D01*
G75*
G02*
X143850000Y-121700000I-250000J0D01*
G01*
X143150000Y-121700000D01*
G75*
G02*
X142900000Y-121450000I0J250000D01*
G01*
G37*
G36*
G01*
X144900000Y-121450000D02*
X144900000Y-120550000D01*
G75*
G02*
X145150000Y-120300000I250000J0D01*
G01*
X145850000Y-120300000D01*
G75*
G02*
X146100000Y-120550000I0J-250000D01*
G01*
X146100000Y-121450000D01*
G75*
G02*
X145850000Y-121700000I-250000J0D01*
G01*
X145150000Y-121700000D01*
G75*
G02*
X144900000Y-121450000I0J250000D01*
G01*
G37*
D14*
X151440000Y-58785000D03*
X150170000Y-58785000D03*
X148900000Y-58785000D03*
X147630000Y-58785000D03*
D16*
X147630000Y-64335000D03*
X151440000Y-64335000D03*
X150170000Y-64335000D03*
X148900000Y-64335000D03*
D15*
X149535000Y-62000000D03*
D17*
X143550000Y-95850000D03*
X144500000Y-95850000D03*
X145450000Y-95850000D03*
X145450000Y-93150000D03*
X143550000Y-93150000D03*
G36*
G01*
X125947500Y-76200000D02*
X125947500Y-75900000D01*
G75*
G02*
X126097500Y-75750000I150000J0D01*
G01*
X127122500Y-75750000D01*
G75*
G02*
X127272500Y-75900000I0J-150000D01*
G01*
X127272500Y-76200000D01*
G75*
G02*
X127122500Y-76350000I-150000J0D01*
G01*
X126097500Y-76350000D01*
G75*
G02*
X125947500Y-76200000I0J150000D01*
G01*
G37*
G36*
G01*
X125947500Y-77150000D02*
X125947500Y-76850000D01*
G75*
G02*
X126097500Y-76700000I150000J0D01*
G01*
X127122500Y-76700000D01*
G75*
G02*
X127272500Y-76850000I0J-150000D01*
G01*
X127272500Y-77150000D01*
G75*
G02*
X127122500Y-77300000I-150000J0D01*
G01*
X126097500Y-77300000D01*
G75*
G02*
X125947500Y-77150000I0J150000D01*
G01*
G37*
G36*
G01*
X125947500Y-78100000D02*
X125947500Y-77800000D01*
G75*
G02*
X126097500Y-77650000I150000J0D01*
G01*
X127122500Y-77650000D01*
G75*
G02*
X127272500Y-77800000I0J-150000D01*
G01*
X127272500Y-78100000D01*
G75*
G02*
X127122500Y-78250000I-150000J0D01*
G01*
X126097500Y-78250000D01*
G75*
G02*
X125947500Y-78100000I0J150000D01*
G01*
G37*
G36*
G01*
X128222500Y-78100000D02*
X128222500Y-77800000D01*
G75*
G02*
X128372500Y-77650000I150000J0D01*
G01*
X129397500Y-77650000D01*
G75*
G02*
X129547500Y-77800000I0J-150000D01*
G01*
X129547500Y-78100000D01*
G75*
G02*
X129397500Y-78250000I-150000J0D01*
G01*
X128372500Y-78250000D01*
G75*
G02*
X128222500Y-78100000I0J150000D01*
G01*
G37*
G36*
G01*
X128222500Y-77150000D02*
X128222500Y-76850000D01*
G75*
G02*
X128372500Y-76700000I150000J0D01*
G01*
X129397500Y-76700000D01*
G75*
G02*
X129547500Y-76850000I0J-150000D01*
G01*
X129547500Y-77150000D01*
G75*
G02*
X129397500Y-77300000I-150000J0D01*
G01*
X128372500Y-77300000D01*
G75*
G02*
X128222500Y-77150000I0J150000D01*
G01*
G37*
G36*
G01*
X128222500Y-76200000D02*
X128222500Y-75900000D01*
G75*
G02*
X128372500Y-75750000I150000J0D01*
G01*
X129397500Y-75750000D01*
G75*
G02*
X129547500Y-75900000I0J-150000D01*
G01*
X129547500Y-76200000D01*
G75*
G02*
X129397500Y-76350000I-150000J0D01*
G01*
X128372500Y-76350000D01*
G75*
G02*
X128222500Y-76200000I0J150000D01*
G01*
G37*
G36*
G01*
X138900000Y-65450000D02*
X138900000Y-64550000D01*
G75*
G02*
X139150000Y-64300000I250000J0D01*
G01*
X139850000Y-64300000D01*
G75*
G02*
X140100000Y-64550000I0J-250000D01*
G01*
X140100000Y-65450000D01*
G75*
G02*
X139850000Y-65700000I-250000J0D01*
G01*
X139150000Y-65700000D01*
G75*
G02*
X138900000Y-65450000I0J250000D01*
G01*
G37*
G36*
G01*
X140900000Y-65450000D02*
X140900000Y-64550000D01*
G75*
G02*
X141150000Y-64300000I250000J0D01*
G01*
X141850000Y-64300000D01*
G75*
G02*
X142100000Y-64550000I0J-250000D01*
G01*
X142100000Y-65450000D01*
G75*
G02*
X141850000Y-65700000I-250000J0D01*
G01*
X141150000Y-65700000D01*
G75*
G02*
X140900000Y-65450000I0J250000D01*
G01*
G37*
G36*
G01*
X146100000Y-88550000D02*
X146100000Y-89450000D01*
G75*
G02*
X145850000Y-89700000I-250000J0D01*
G01*
X145150000Y-89700000D01*
G75*
G02*
X144900000Y-89450000I0J250000D01*
G01*
X144900000Y-88550000D01*
G75*
G02*
X145150000Y-88300000I250000J0D01*
G01*
X145850000Y-88300000D01*
G75*
G02*
X146100000Y-88550000I0J-250000D01*
G01*
G37*
G36*
G01*
X144100000Y-88550000D02*
X144100000Y-89450000D01*
G75*
G02*
X143850000Y-89700000I-250000J0D01*
G01*
X143150000Y-89700000D01*
G75*
G02*
X142900000Y-89450000I0J250000D01*
G01*
X142900000Y-88550000D01*
G75*
G02*
X143150000Y-88300000I250000J0D01*
G01*
X143850000Y-88300000D01*
G75*
G02*
X144100000Y-88550000I0J-250000D01*
G01*
G37*
G36*
G01*
X125947500Y-87200000D02*
X125947500Y-86900000D01*
G75*
G02*
X126097500Y-86750000I150000J0D01*
G01*
X127122500Y-86750000D01*
G75*
G02*
X127272500Y-86900000I0J-150000D01*
G01*
X127272500Y-87200000D01*
G75*
G02*
X127122500Y-87350000I-150000J0D01*
G01*
X126097500Y-87350000D01*
G75*
G02*
X125947500Y-87200000I0J150000D01*
G01*
G37*
G36*
G01*
X125947500Y-88150000D02*
X125947500Y-87850000D01*
G75*
G02*
X126097500Y-87700000I150000J0D01*
G01*
X127122500Y-87700000D01*
G75*
G02*
X127272500Y-87850000I0J-150000D01*
G01*
X127272500Y-88150000D01*
G75*
G02*
X127122500Y-88300000I-150000J0D01*
G01*
X126097500Y-88300000D01*
G75*
G02*
X125947500Y-88150000I0J150000D01*
G01*
G37*
G36*
G01*
X125947500Y-89100000D02*
X125947500Y-88800000D01*
G75*
G02*
X126097500Y-88650000I150000J0D01*
G01*
X127122500Y-88650000D01*
G75*
G02*
X127272500Y-88800000I0J-150000D01*
G01*
X127272500Y-89100000D01*
G75*
G02*
X127122500Y-89250000I-150000J0D01*
G01*
X126097500Y-89250000D01*
G75*
G02*
X125947500Y-89100000I0J150000D01*
G01*
G37*
G36*
G01*
X128222500Y-89100000D02*
X128222500Y-88800000D01*
G75*
G02*
X128372500Y-88650000I150000J0D01*
G01*
X129397500Y-88650000D01*
G75*
G02*
X129547500Y-88800000I0J-150000D01*
G01*
X129547500Y-89100000D01*
G75*
G02*
X129397500Y-89250000I-150000J0D01*
G01*
X128372500Y-89250000D01*
G75*
G02*
X128222500Y-89100000I0J150000D01*
G01*
G37*
G36*
G01*
X128222500Y-88150000D02*
X128222500Y-87850000D01*
G75*
G02*
X128372500Y-87700000I150000J0D01*
G01*
X129397500Y-87700000D01*
G75*
G02*
X129547500Y-87850000I0J-150000D01*
G01*
X129547500Y-88150000D01*
G75*
G02*
X129397500Y-88300000I-150000J0D01*
G01*
X128372500Y-88300000D01*
G75*
G02*
X128222500Y-88150000I0J150000D01*
G01*
G37*
G36*
G01*
X128222500Y-87200000D02*
X128222500Y-86900000D01*
G75*
G02*
X128372500Y-86750000I150000J0D01*
G01*
X129397500Y-86750000D01*
G75*
G02*
X129547500Y-86900000I0J-150000D01*
G01*
X129547500Y-87200000D01*
G75*
G02*
X129397500Y-87350000I-150000J0D01*
G01*
X128372500Y-87350000D01*
G75*
G02*
X128222500Y-87200000I0J150000D01*
G01*
G37*
D19*
X129000000Y-97400000D03*
X129000000Y-92600000D03*
X130697056Y-96697056D03*
D20*
X129000000Y-95000000D03*
D19*
X127302944Y-93302944D03*
X127302944Y-96697056D03*
X131400000Y-95000000D03*
X126600000Y-95000000D03*
X130697056Y-93302944D03*
D11*
X156000000Y-103094000D03*
X156000000Y-73000000D03*
G36*
G01*
X142125000Y-60525000D02*
X142125000Y-61475000D01*
G75*
G02*
X141875000Y-61725000I-250000J0D01*
G01*
X141200000Y-61725000D01*
G75*
G02*
X140950000Y-61475000I0J250000D01*
G01*
X140950000Y-60525000D01*
G75*
G02*
X141200000Y-60275000I250000J0D01*
G01*
X141875000Y-60275000D01*
G75*
G02*
X142125000Y-60525000I0J-250000D01*
G01*
G37*
G36*
G01*
X140050000Y-60525000D02*
X140050000Y-61475000D01*
G75*
G02*
X139800000Y-61725000I-250000J0D01*
G01*
X139125000Y-61725000D01*
G75*
G02*
X138875000Y-61475000I0J250000D01*
G01*
X138875000Y-60525000D01*
G75*
G02*
X139125000Y-60275000I250000J0D01*
G01*
X139800000Y-60275000D01*
G75*
G02*
X140050000Y-60525000I0J-250000D01*
G01*
G37*
G36*
G01*
X142875000Y-98475000D02*
X142875000Y-97525000D01*
G75*
G02*
X143125000Y-97275000I250000J0D01*
G01*
X143800000Y-97275000D01*
G75*
G02*
X144050000Y-97525000I0J-250000D01*
G01*
X144050000Y-98475000D01*
G75*
G02*
X143800000Y-98725000I-250000J0D01*
G01*
X143125000Y-98725000D01*
G75*
G02*
X142875000Y-98475000I0J250000D01*
G01*
G37*
G36*
G01*
X144950000Y-98475000D02*
X144950000Y-97525000D01*
G75*
G02*
X145200000Y-97275000I250000J0D01*
G01*
X145875000Y-97275000D01*
G75*
G02*
X146125000Y-97525000I0J-250000D01*
G01*
X146125000Y-98475000D01*
G75*
G02*
X145875000Y-98725000I-250000J0D01*
G01*
X145200000Y-98725000D01*
G75*
G02*
X144950000Y-98475000I0J250000D01*
G01*
G37*
D12*
X162250000Y-84000000D03*
G36*
X165475000Y-81450000D02*
G01*
X165632160Y-81466102D01*
X165802529Y-81522611D01*
X165955329Y-81616798D01*
X166082362Y-81743610D01*
X166176816Y-81896245D01*
X166233622Y-82066516D01*
X166250000Y-82225000D01*
X166250000Y-83930000D01*
X165630000Y-84550000D01*
X162525000Y-84550000D01*
X162367840Y-84533898D01*
X162197471Y-84477389D01*
X162044671Y-84383202D01*
X161917638Y-84256390D01*
X161823184Y-84103755D01*
X161766378Y-83933484D01*
X161750000Y-83775000D01*
X161750000Y-82225000D01*
X161766102Y-82067840D01*
X161822611Y-81897471D01*
X161916798Y-81744671D01*
X162043610Y-81617638D01*
X162196245Y-81523184D01*
X162366516Y-81466378D01*
X162525000Y-81450000D01*
X165475000Y-81450000D01*
G37*
X165750000Y-84000000D03*
X162250000Y-82000000D03*
X165750000Y-82000000D03*
X162250000Y-78500000D03*
X162250000Y-80500000D03*
G36*
G01*
X162525000Y-77950000D02*
X165475000Y-77950000D01*
G75*
G02*
X166250000Y-78725000I0J-775000D01*
G01*
X166250000Y-80275000D01*
G75*
G02*
X165475000Y-81050000I-775000J0D01*
G01*
X162525000Y-81050000D01*
G75*
G02*
X161750000Y-80275000I0J775000D01*
G01*
X161750000Y-78725000D01*
G75*
G02*
X162525000Y-77950000I775000J0D01*
G01*
G37*
X165750000Y-80500000D03*
X165750000Y-78500000D03*
X165750000Y-75000000D03*
G36*
G01*
X162525000Y-74450000D02*
X165475000Y-74450000D01*
G75*
G02*
X166250000Y-75225000I0J-775000D01*
G01*
X166250000Y-76775000D01*
G75*
G02*
X165475000Y-77550000I-775000J0D01*
G01*
X162525000Y-77550000D01*
G75*
G02*
X161750000Y-76775000I0J775000D01*
G01*
X161750000Y-75225000D01*
G75*
G02*
X162525000Y-74450000I775000J0D01*
G01*
G37*
X165750000Y-77016000D03*
X162250000Y-74984000D03*
X162250000Y-77016000D03*
G36*
G01*
X138875000Y-67475000D02*
X138875000Y-66525000D01*
G75*
G02*
X139125000Y-66275000I250000J0D01*
G01*
X139800000Y-66275000D01*
G75*
G02*
X140050000Y-66525000I0J-250000D01*
G01*
X140050000Y-67475000D01*
G75*
G02*
X139800000Y-67725000I-250000J0D01*
G01*
X139125000Y-67725000D01*
G75*
G02*
X138875000Y-67475000I0J250000D01*
G01*
G37*
G36*
G01*
X140950000Y-67475000D02*
X140950000Y-66525000D01*
G75*
G02*
X141200000Y-66275000I250000J0D01*
G01*
X141875000Y-66275000D01*
G75*
G02*
X142125000Y-66525000I0J-250000D01*
G01*
X142125000Y-67475000D01*
G75*
G02*
X141875000Y-67725000I-250000J0D01*
G01*
X141200000Y-67725000D01*
G75*
G02*
X140950000Y-67475000I0J250000D01*
G01*
G37*
D17*
X143550000Y-65850000D03*
X144500000Y-65850000D03*
X145450000Y-65850000D03*
X145450000Y-63150000D03*
X143550000Y-63150000D03*
D14*
X151440000Y-118785000D03*
X150170000Y-118785000D03*
X148900000Y-118785000D03*
X147630000Y-118785000D03*
D16*
X150170000Y-124335000D03*
X148900000Y-124335000D03*
X147630000Y-124335000D03*
D15*
X149535000Y-122000000D03*
D16*
X151440000Y-124335000D03*
D13*
X151600000Y-128900000D03*
X151600000Y-126100000D03*
G36*
G01*
X146100000Y-99550000D02*
X146100000Y-100450000D01*
G75*
G02*
X145850000Y-100700000I-250000J0D01*
G01*
X145150000Y-100700000D01*
G75*
G02*
X144900000Y-100450000I0J250000D01*
G01*
X144900000Y-99550000D01*
G75*
G02*
X145150000Y-99300000I250000J0D01*
G01*
X145850000Y-99300000D01*
G75*
G02*
X146100000Y-99550000I0J-250000D01*
G01*
G37*
G36*
G01*
X144100000Y-99550000D02*
X144100000Y-100450000D01*
G75*
G02*
X143850000Y-100700000I-250000J0D01*
G01*
X143150000Y-100700000D01*
G75*
G02*
X142900000Y-100450000I0J250000D01*
G01*
X142900000Y-99550000D01*
G75*
G02*
X143150000Y-99300000I250000J0D01*
G01*
X143850000Y-99300000D01*
G75*
G02*
X144100000Y-99550000I0J-250000D01*
G01*
G37*
D17*
X143550000Y-80850000D03*
X144500000Y-80850000D03*
X145450000Y-80850000D03*
X145450000Y-78150000D03*
X143550000Y-78150000D03*
G36*
G01*
X130622500Y-89475000D02*
X130622500Y-88525000D01*
G75*
G02*
X130872500Y-88275000I250000J0D01*
G01*
X131547500Y-88275000D01*
G75*
G02*
X131797500Y-88525000I0J-250000D01*
G01*
X131797500Y-89475000D01*
G75*
G02*
X131547500Y-89725000I-250000J0D01*
G01*
X130872500Y-89725000D01*
G75*
G02*
X130622500Y-89475000I0J250000D01*
G01*
G37*
G36*
G01*
X132697500Y-89475000D02*
X132697500Y-88525000D01*
G75*
G02*
X132947500Y-88275000I250000J0D01*
G01*
X133622500Y-88275000D01*
G75*
G02*
X133872500Y-88525000I0J-250000D01*
G01*
X133872500Y-89475000D01*
G75*
G02*
X133622500Y-89725000I-250000J0D01*
G01*
X132947500Y-89725000D01*
G75*
G02*
X132697500Y-89475000I0J250000D01*
G01*
G37*
G36*
G01*
X146100000Y-69550000D02*
X146100000Y-70450000D01*
G75*
G02*
X145850000Y-70700000I-250000J0D01*
G01*
X145150000Y-70700000D01*
G75*
G02*
X144900000Y-70450000I0J250000D01*
G01*
X144900000Y-69550000D01*
G75*
G02*
X145150000Y-69300000I250000J0D01*
G01*
X145850000Y-69300000D01*
G75*
G02*
X146100000Y-69550000I0J-250000D01*
G01*
G37*
G36*
G01*
X144100000Y-69550000D02*
X144100000Y-70450000D01*
G75*
G02*
X143850000Y-70700000I-250000J0D01*
G01*
X143150000Y-70700000D01*
G75*
G02*
X142900000Y-70450000I0J250000D01*
G01*
X142900000Y-69550000D01*
G75*
G02*
X143150000Y-69300000I250000J0D01*
G01*
X143850000Y-69300000D01*
G75*
G02*
X144100000Y-69550000I0J-250000D01*
G01*
G37*
G36*
G01*
X132625000Y-93225000D02*
X132625000Y-92275000D01*
G75*
G02*
X132875000Y-92025000I250000J0D01*
G01*
X133550000Y-92025000D01*
G75*
G02*
X133800000Y-92275000I0J-250000D01*
G01*
X133800000Y-93225000D01*
G75*
G02*
X133550000Y-93475000I-250000J0D01*
G01*
X132875000Y-93475000D01*
G75*
G02*
X132625000Y-93225000I0J250000D01*
G01*
G37*
G36*
G01*
X134700000Y-93225000D02*
X134700000Y-92275000D01*
G75*
G02*
X134950000Y-92025000I250000J0D01*
G01*
X135625000Y-92025000D01*
G75*
G02*
X135875000Y-92275000I0J-250000D01*
G01*
X135875000Y-93225000D01*
G75*
G02*
X135625000Y-93475000I-250000J0D01*
G01*
X134950000Y-93475000D01*
G75*
G02*
X134700000Y-93225000I0J250000D01*
G01*
G37*
G36*
G01*
X142125000Y-120525000D02*
X142125000Y-121475000D01*
G75*
G02*
X141875000Y-121725000I-250000J0D01*
G01*
X141200000Y-121725000D01*
G75*
G02*
X140950000Y-121475000I0J250000D01*
G01*
X140950000Y-120525000D01*
G75*
G02*
X141200000Y-120275000I250000J0D01*
G01*
X141875000Y-120275000D01*
G75*
G02*
X142125000Y-120525000I0J-250000D01*
G01*
G37*
G36*
G01*
X140050000Y-120525000D02*
X140050000Y-121475000D01*
G75*
G02*
X139800000Y-121725000I-250000J0D01*
G01*
X139125000Y-121725000D01*
G75*
G02*
X138875000Y-121475000I0J250000D01*
G01*
X138875000Y-120525000D01*
G75*
G02*
X139125000Y-120275000I250000J0D01*
G01*
X139800000Y-120275000D01*
G75*
G02*
X140050000Y-120525000I0J-250000D01*
G01*
G37*
D18*
X141500000Y-70750000D03*
X141500000Y-70250000D03*
X141500000Y-69750000D03*
X140000000Y-69750000D03*
X140000000Y-70250000D03*
X140000000Y-70750000D03*
D19*
X181400000Y-95000000D03*
X176600000Y-95000000D03*
X180697056Y-93302944D03*
X177302944Y-96697056D03*
X179000000Y-97400000D03*
D20*
X179000000Y-95000000D03*
D19*
X177302944Y-93302944D03*
X179000000Y-92600000D03*
X180697056Y-96697056D03*
X176600000Y-65000000D03*
D20*
X179000000Y-65000000D03*
D19*
X177302944Y-66697056D03*
X180697056Y-63302944D03*
X179000000Y-62600000D03*
X177302944Y-63302944D03*
X181400000Y-65000000D03*
X180697056Y-66697056D03*
X179000000Y-67400000D03*
D12*
X158278000Y-106484000D03*
X157516000Y-105722000D03*
X158278000Y-108516000D03*
X155484000Y-109278000D03*
X154722000Y-106484000D03*
X154722000Y-108516000D03*
X155484000Y-105722000D03*
X157516000Y-109278000D03*
X154468000Y-107500000D03*
G36*
G01*
X155075000Y-105350000D02*
X157925000Y-105350000D01*
G75*
G02*
X159000000Y-106425000I0J-1075000D01*
G01*
X159000000Y-108575000D01*
G75*
G02*
X157925000Y-109650000I-1075000J0D01*
G01*
X155075000Y-109650000D01*
G75*
G02*
X154000000Y-108575000I0J1075000D01*
G01*
X154000000Y-106425000D01*
G75*
G02*
X155075000Y-105350000I1075000J0D01*
G01*
G37*
X158532000Y-107500000D03*
X154468000Y-112500000D03*
X158532000Y-112500000D03*
G36*
G01*
X155075000Y-110350000D02*
X157925000Y-110350000D01*
G75*
G02*
X159000000Y-111425000I0J-1075000D01*
G01*
X159000000Y-113575000D01*
G75*
G02*
X157925000Y-114650000I-1075000J0D01*
G01*
X155075000Y-114650000D01*
G75*
G02*
X154000000Y-113575000I0J1075000D01*
G01*
X154000000Y-111425000D01*
G75*
G02*
X155075000Y-110350000I1075000J0D01*
G01*
G37*
X155484000Y-110722000D03*
X154722000Y-113516000D03*
X157516000Y-110722000D03*
X158278000Y-113516000D03*
X155484000Y-114278000D03*
X154722000Y-111484000D03*
X157516000Y-114278000D03*
X158278000Y-111484000D03*
X173278000Y-63516000D03*
X172516000Y-60722000D03*
X173278000Y-61484000D03*
X170484000Y-60722000D03*
X169722000Y-63516000D03*
X173532000Y-62500000D03*
X170484000Y-64278000D03*
X169722000Y-61484000D03*
X172516000Y-64278000D03*
G36*
G01*
X170075000Y-60350000D02*
X172925000Y-60350000D01*
G75*
G02*
X174000000Y-61425000I0J-1075000D01*
G01*
X174000000Y-63575000D01*
G75*
G02*
X172925000Y-64650000I-1075000J0D01*
G01*
X170075000Y-64650000D01*
G75*
G02*
X169000000Y-63575000I0J1075000D01*
G01*
X169000000Y-61425000D01*
G75*
G02*
X170075000Y-60350000I1075000J0D01*
G01*
G37*
X169468000Y-62500000D03*
X172516000Y-65722000D03*
X173278000Y-66484000D03*
X169468000Y-67500000D03*
X169722000Y-68516000D03*
X173532000Y-67500000D03*
X170484000Y-69278000D03*
X172516000Y-69278000D03*
X173278000Y-68516000D03*
X169722000Y-66484000D03*
G36*
G01*
X170075000Y-65350000D02*
X172925000Y-65350000D01*
G75*
G02*
X174000000Y-66425000I0J-1075000D01*
G01*
X174000000Y-68575000D01*
G75*
G02*
X172925000Y-69650000I-1075000J0D01*
G01*
X170075000Y-69650000D01*
G75*
G02*
X169000000Y-68575000I0J1075000D01*
G01*
X169000000Y-66425000D01*
G75*
G02*
X170075000Y-65350000I1075000J0D01*
G01*
G37*
X170484000Y-65722000D03*
X157516000Y-79278000D03*
X155484000Y-79278000D03*
X155484000Y-75722000D03*
X158532000Y-77500000D03*
X157516000Y-75722000D03*
X158278000Y-76484000D03*
X154722000Y-78516000D03*
G36*
G01*
X155075000Y-75350000D02*
X157925000Y-75350000D01*
G75*
G02*
X159000000Y-76425000I0J-1075000D01*
G01*
X159000000Y-78575000D01*
G75*
G02*
X157925000Y-79650000I-1075000J0D01*
G01*
X155075000Y-79650000D01*
G75*
G02*
X154000000Y-78575000I0J1075000D01*
G01*
X154000000Y-76425000D01*
G75*
G02*
X155075000Y-75350000I1075000J0D01*
G01*
G37*
X154722000Y-76484000D03*
X154468000Y-77500000D03*
X158278000Y-78516000D03*
X154722000Y-81484000D03*
X155484000Y-84278000D03*
X157516000Y-84278000D03*
X157516000Y-80722000D03*
G36*
G01*
X155075000Y-80350000D02*
X157925000Y-80350000D01*
G75*
G02*
X159000000Y-81425000I0J-1075000D01*
G01*
X159000000Y-83575000D01*
G75*
G02*
X157925000Y-84650000I-1075000J0D01*
G01*
X155075000Y-84650000D01*
G75*
G02*
X154000000Y-83575000I0J1075000D01*
G01*
X154000000Y-81425000D01*
G75*
G02*
X155075000Y-80350000I1075000J0D01*
G01*
G37*
X158278000Y-83516000D03*
X158532000Y-82500000D03*
X155484000Y-80722000D03*
X154468000Y-82500000D03*
X158278000Y-81484000D03*
X154722000Y-83516000D03*
X155484000Y-64278000D03*
X158278000Y-63516000D03*
X154468000Y-62500000D03*
X154722000Y-63516000D03*
X158278000Y-61484000D03*
X158532000Y-62500000D03*
X154722000Y-61484000D03*
X157516000Y-60722000D03*
X157516000Y-64278000D03*
G36*
G01*
X155075000Y-60350000D02*
X157925000Y-60350000D01*
G75*
G02*
X159000000Y-61425000I0J-1075000D01*
G01*
X159000000Y-63575000D01*
G75*
G02*
X157925000Y-64650000I-1075000J0D01*
G01*
X155075000Y-64650000D01*
G75*
G02*
X154000000Y-63575000I0J1075000D01*
G01*
X154000000Y-61425000D01*
G75*
G02*
X155075000Y-60350000I1075000J0D01*
G01*
G37*
X155484000Y-60722000D03*
X157516000Y-69278000D03*
X155484000Y-69278000D03*
X154722000Y-66484000D03*
X154722000Y-68516000D03*
X154468000Y-67500000D03*
X155484000Y-65722000D03*
X158278000Y-66484000D03*
G36*
G01*
X155075000Y-65350000D02*
X157925000Y-65350000D01*
G75*
G02*
X159000000Y-66425000I0J-1075000D01*
G01*
X159000000Y-68575000D01*
G75*
G02*
X157925000Y-69650000I-1075000J0D01*
G01*
X155075000Y-69650000D01*
G75*
G02*
X154000000Y-68575000I0J1075000D01*
G01*
X154000000Y-66425000D01*
G75*
G02*
X155075000Y-65350000I1075000J0D01*
G01*
G37*
X158278000Y-68516000D03*
X157516000Y-65722000D03*
X158532000Y-67500000D03*
X170484000Y-109278000D03*
X173532000Y-107500000D03*
X169722000Y-108516000D03*
X169722000Y-106484000D03*
G36*
G01*
X170075000Y-105350000D02*
X172925000Y-105350000D01*
G75*
G02*
X174000000Y-106425000I0J-1075000D01*
G01*
X174000000Y-108575000D01*
G75*
G02*
X172925000Y-109650000I-1075000J0D01*
G01*
X170075000Y-109650000D01*
G75*
G02*
X169000000Y-108575000I0J1075000D01*
G01*
X169000000Y-106425000D01*
G75*
G02*
X170075000Y-105350000I1075000J0D01*
G01*
G37*
X172516000Y-105722000D03*
X170484000Y-105722000D03*
X173278000Y-108516000D03*
X169468000Y-107500000D03*
X173278000Y-106484000D03*
X172516000Y-109278000D03*
X170484000Y-114278000D03*
X170484000Y-110722000D03*
X173278000Y-111484000D03*
X172516000Y-110722000D03*
X169722000Y-113516000D03*
X173278000Y-113516000D03*
X172516000Y-114278000D03*
G36*
G01*
X170075000Y-110350000D02*
X172925000Y-110350000D01*
G75*
G02*
X174000000Y-111425000I0J-1075000D01*
G01*
X174000000Y-113575000D01*
G75*
G02*
X172925000Y-114650000I-1075000J0D01*
G01*
X170075000Y-114650000D01*
G75*
G02*
X169000000Y-113575000I0J1075000D01*
G01*
X169000000Y-111425000D01*
G75*
G02*
X170075000Y-110350000I1075000J0D01*
G01*
G37*
X173532000Y-112500000D03*
X169722000Y-111484000D03*
X169468000Y-112500000D03*
G36*
G01*
X170075000Y-120350000D02*
X172925000Y-120350000D01*
G75*
G02*
X174000000Y-121425000I0J-1075000D01*
G01*
X174000000Y-123575000D01*
G75*
G02*
X172925000Y-124650000I-1075000J0D01*
G01*
X170075000Y-124650000D01*
G75*
G02*
X169000000Y-123575000I0J1075000D01*
G01*
X169000000Y-121425000D01*
G75*
G02*
X170075000Y-120350000I1075000J0D01*
G01*
G37*
X173532000Y-122500000D03*
X170484000Y-120722000D03*
X173278000Y-121484000D03*
X169722000Y-121484000D03*
X172516000Y-120722000D03*
X170484000Y-124278000D03*
X169722000Y-123516000D03*
X172516000Y-124278000D03*
X173278000Y-123516000D03*
X169468000Y-122500000D03*
X173278000Y-126484000D03*
X173532000Y-127500000D03*
X172516000Y-129278000D03*
G36*
G01*
X170075000Y-125350000D02*
X172925000Y-125350000D01*
G75*
G02*
X174000000Y-126425000I0J-1075000D01*
G01*
X174000000Y-128575000D01*
G75*
G02*
X172925000Y-129650000I-1075000J0D01*
G01*
X170075000Y-129650000D01*
G75*
G02*
X169000000Y-128575000I0J1075000D01*
G01*
X169000000Y-126425000D01*
G75*
G02*
X170075000Y-125350000I1075000J0D01*
G01*
G37*
X172516000Y-125722000D03*
X170484000Y-129278000D03*
X173278000Y-128516000D03*
X170484000Y-125722000D03*
X169468000Y-127500000D03*
X169722000Y-126484000D03*
X169722000Y-128516000D03*
X154468000Y-122500000D03*
X158532000Y-122500000D03*
X157516000Y-120722000D03*
X154722000Y-123516000D03*
X154722000Y-121484000D03*
X158278000Y-123516000D03*
X158278000Y-121484000D03*
X155484000Y-120722000D03*
G36*
G01*
X155075000Y-120350000D02*
X157925000Y-120350000D01*
G75*
G02*
X159000000Y-121425000I0J-1075000D01*
G01*
X159000000Y-123575000D01*
G75*
G02*
X157925000Y-124650000I-1075000J0D01*
G01*
X155075000Y-124650000D01*
G75*
G02*
X154000000Y-123575000I0J1075000D01*
G01*
X154000000Y-121425000D01*
G75*
G02*
X155075000Y-120350000I1075000J0D01*
G01*
G37*
X155484000Y-124278000D03*
X157516000Y-124278000D03*
X157516000Y-125722000D03*
X158278000Y-126484000D03*
X157516000Y-129278000D03*
X154468000Y-127500000D03*
X158532000Y-127500000D03*
X155484000Y-129278000D03*
X154722000Y-128516000D03*
X155484000Y-125722000D03*
G36*
G01*
X155075000Y-125350000D02*
X157925000Y-125350000D01*
G75*
G02*
X159000000Y-126425000I0J-1075000D01*
G01*
X159000000Y-128575000D01*
G75*
G02*
X157925000Y-129650000I-1075000J0D01*
G01*
X155075000Y-129650000D01*
G75*
G02*
X154000000Y-128575000I0J1075000D01*
G01*
X154000000Y-126425000D01*
G75*
G02*
X155075000Y-125350000I1075000J0D01*
G01*
G37*
X154722000Y-126484000D03*
X158278000Y-128516000D03*
X172516000Y-90722000D03*
G36*
G01*
X170075000Y-90350000D02*
X172925000Y-90350000D01*
G75*
G02*
X174000000Y-91425000I0J-1075000D01*
G01*
X174000000Y-93575000D01*
G75*
G02*
X172925000Y-94650000I-1075000J0D01*
G01*
X170075000Y-94650000D01*
G75*
G02*
X169000000Y-93575000I0J1075000D01*
G01*
X169000000Y-91425000D01*
G75*
G02*
X170075000Y-90350000I1075000J0D01*
G01*
G37*
X169722000Y-91484000D03*
X169468000Y-92500000D03*
X170484000Y-90722000D03*
X172516000Y-94278000D03*
X170484000Y-94278000D03*
X173532000Y-92500000D03*
X173278000Y-91484000D03*
X173278000Y-93516000D03*
X169722000Y-93516000D03*
X169468000Y-97500000D03*
X170484000Y-99278000D03*
X173278000Y-98516000D03*
X169722000Y-96484000D03*
X173278000Y-96484000D03*
X173532000Y-97500000D03*
X170484000Y-95722000D03*
X172516000Y-95722000D03*
X169722000Y-98516000D03*
X172516000Y-99278000D03*
G36*
G01*
X170075000Y-95350000D02*
X172925000Y-95350000D01*
G75*
G02*
X174000000Y-96425000I0J-1075000D01*
G01*
X174000000Y-98575000D01*
G75*
G02*
X172925000Y-99650000I-1075000J0D01*
G01*
X170075000Y-99650000D01*
G75*
G02*
X169000000Y-98575000I0J1075000D01*
G01*
X169000000Y-96425000D01*
G75*
G02*
X170075000Y-95350000I1075000J0D01*
G01*
G37*
X170484000Y-75722000D03*
X173532000Y-77500000D03*
X173278000Y-78516000D03*
X172516000Y-75722000D03*
X170484000Y-79278000D03*
X173278000Y-76484000D03*
G36*
G01*
X170075000Y-75350000D02*
X172925000Y-75350000D01*
G75*
G02*
X174000000Y-76425000I0J-1075000D01*
G01*
X174000000Y-78575000D01*
G75*
G02*
X172925000Y-79650000I-1075000J0D01*
G01*
X170075000Y-79650000D01*
G75*
G02*
X169000000Y-78575000I0J1075000D01*
G01*
X169000000Y-76425000D01*
G75*
G02*
X170075000Y-75350000I1075000J0D01*
G01*
G37*
X169722000Y-76484000D03*
X169468000Y-77500000D03*
X169722000Y-78516000D03*
X172516000Y-79278000D03*
X170484000Y-80722000D03*
X169468000Y-82500000D03*
G36*
G01*
X170075000Y-80350000D02*
X172925000Y-80350000D01*
G75*
G02*
X174000000Y-81425000I0J-1075000D01*
G01*
X174000000Y-83575000D01*
G75*
G02*
X172925000Y-84650000I-1075000J0D01*
G01*
X170075000Y-84650000D01*
G75*
G02*
X169000000Y-83575000I0J1075000D01*
G01*
X169000000Y-81425000D01*
G75*
G02*
X170075000Y-80350000I1075000J0D01*
G01*
G37*
X172516000Y-84278000D03*
X169722000Y-81484000D03*
X169722000Y-83516000D03*
X173278000Y-81484000D03*
X172516000Y-80722000D03*
X173532000Y-82500000D03*
X170484000Y-84278000D03*
X173278000Y-83516000D03*
X157516000Y-90722000D03*
X158278000Y-93516000D03*
X155484000Y-94278000D03*
X158532000Y-92500000D03*
X154722000Y-93516000D03*
X155484000Y-90722000D03*
X157516000Y-94278000D03*
X158278000Y-91484000D03*
X154722000Y-91484000D03*
G36*
G01*
X155075000Y-90350000D02*
X157925000Y-90350000D01*
G75*
G02*
X159000000Y-91425000I0J-1075000D01*
G01*
X159000000Y-93575000D01*
G75*
G02*
X157925000Y-94650000I-1075000J0D01*
G01*
X155075000Y-94650000D01*
G75*
G02*
X154000000Y-93575000I0J1075000D01*
G01*
X154000000Y-91425000D01*
G75*
G02*
X155075000Y-90350000I1075000J0D01*
G01*
G37*
X154468000Y-92500000D03*
X158532000Y-97500000D03*
X158278000Y-98516000D03*
X155484000Y-99278000D03*
X158278000Y-96484000D03*
X154722000Y-96484000D03*
X157516000Y-99278000D03*
X155484000Y-95722000D03*
X154468000Y-97500000D03*
X157516000Y-95722000D03*
X154722000Y-98516000D03*
G36*
G01*
X155075000Y-95350000D02*
X157925000Y-95350000D01*
G75*
G02*
X159000000Y-96425000I0J-1075000D01*
G01*
X159000000Y-98575000D01*
G75*
G02*
X157925000Y-99650000I-1075000J0D01*
G01*
X155075000Y-99650000D01*
G75*
G02*
X154000000Y-98575000I0J1075000D01*
G01*
X154000000Y-96425000D01*
G75*
G02*
X155075000Y-95350000I1075000J0D01*
G01*
G37*
M02*
