G04 #@! TF.GenerationSoftware,KiCad,Pcbnew,6.0.10+dfsg-1~bpo11+1*
G04 #@! TF.ProjectId,pwr,7077722e-6b69-4636-9164-5f7063625858,rev?*
G04 #@! TF.SameCoordinates,Original*
G04 #@! TF.FileFunction,Soldermask,Top*
G04 #@! TF.FilePolarity,Negative*
%FSLAX46Y46*%
G04 Gerber Fmt 4.6, Leading zero omitted, Abs format (unit mm)*
%MOMM*%
%LPD*%
G01*
G04 APERTURE LIST*
G04 #@! TA.AperFunction,Profile*
%ADD10C,0.100000*%
G04 #@! TD*
%ADD11C,2.500000*%
%ADD12C,0.700000*%
%ADD13R,1.100000X1.100000*%
%ADD14R,0.650000X0.500000*%
%ADD15R,4.120000X4.600000*%
%ADD16R,0.550000X0.500000*%
%ADD17R,1.560000X0.650000*%
%ADD18R,0.340000X0.700000*%
%ADD19C,0.800000*%
%ADD20C,6.400000*%
%ADD21C,3.000000*%
%ADD22C,1.700000*%
G04 APERTURE END LIST*
D10*
X184000000Y-130000000D02*
G75*
G03*
X189000000Y-125000000I0J5000000D01*
G01*
X111500000Y-125000000D02*
G75*
G03*
X116500000Y-130000000I5000000J0D01*
G01*
X116500000Y-55000000D02*
X184000000Y-55000000D01*
X111500000Y-125000000D02*
X111500000Y-60000000D01*
X189000000Y-60000000D02*
G75*
G03*
X184000000Y-55000000I-5000000J0D01*
G01*
X184000000Y-130000000D02*
X116500000Y-130000000D01*
X116500000Y-55000000D02*
G75*
G03*
X111500000Y-60000000I0J-5000000D01*
G01*
X189000000Y-60000000D02*
X189000000Y-125000000D01*
G36*
G01*
X161050000Y-84900000D02*
X161950000Y-84900000D01*
G75*
G02*
X162200000Y-85150000I0J-250000D01*
G01*
X162200000Y-85850000D01*
G75*
G02*
X161950000Y-86100000I-250000J0D01*
G01*
X161050000Y-86100000D01*
G75*
G02*
X160800000Y-85850000I0J250000D01*
G01*
X160800000Y-85150000D01*
G75*
G02*
X161050000Y-84900000I250000J0D01*
G01*
G37*
G36*
G01*
X161050000Y-86900000D02*
X161950000Y-86900000D01*
G75*
G02*
X162200000Y-87150000I0J-250000D01*
G01*
X162200000Y-87850000D01*
G75*
G02*
X161950000Y-88100000I-250000J0D01*
G01*
X161050000Y-88100000D01*
G75*
G02*
X160800000Y-87850000I0J250000D01*
G01*
X160800000Y-87150000D01*
G75*
G02*
X161050000Y-86900000I250000J0D01*
G01*
G37*
G36*
G01*
X180950000Y-68100000D02*
X180050000Y-68100000D01*
G75*
G02*
X179800000Y-67850000I0J250000D01*
G01*
X179800000Y-67150000D01*
G75*
G02*
X180050000Y-66900000I250000J0D01*
G01*
X180950000Y-66900000D01*
G75*
G02*
X181200000Y-67150000I0J-250000D01*
G01*
X181200000Y-67850000D01*
G75*
G02*
X180950000Y-68100000I-250000J0D01*
G01*
G37*
G36*
G01*
X180950000Y-66100000D02*
X180050000Y-66100000D01*
G75*
G02*
X179800000Y-65850000I0J250000D01*
G01*
X179800000Y-65150000D01*
G75*
G02*
X180050000Y-64900000I250000J0D01*
G01*
X180950000Y-64900000D01*
G75*
G02*
X181200000Y-65150000I0J-250000D01*
G01*
X181200000Y-65850000D01*
G75*
G02*
X180950000Y-66100000I-250000J0D01*
G01*
G37*
G36*
G01*
X173050000Y-76647500D02*
X173950000Y-76647500D01*
G75*
G02*
X174200000Y-76897500I0J-250000D01*
G01*
X174200000Y-77597500D01*
G75*
G02*
X173950000Y-77847500I-250000J0D01*
G01*
X173050000Y-77847500D01*
G75*
G02*
X172800000Y-77597500I0J250000D01*
G01*
X172800000Y-76897500D01*
G75*
G02*
X173050000Y-76647500I250000J0D01*
G01*
G37*
G36*
G01*
X173050000Y-78647500D02*
X173950000Y-78647500D01*
G75*
G02*
X174200000Y-78897500I0J-250000D01*
G01*
X174200000Y-79597500D01*
G75*
G02*
X173950000Y-79847500I-250000J0D01*
G01*
X173050000Y-79847500D01*
G75*
G02*
X172800000Y-79597500I0J250000D01*
G01*
X172800000Y-78897500D01*
G75*
G02*
X173050000Y-78647500I250000J0D01*
G01*
G37*
G36*
G01*
X118550000Y-84900000D02*
X119450000Y-84900000D01*
G75*
G02*
X119700000Y-85150000I0J-250000D01*
G01*
X119700000Y-85850000D01*
G75*
G02*
X119450000Y-86100000I-250000J0D01*
G01*
X118550000Y-86100000D01*
G75*
G02*
X118300000Y-85850000I0J250000D01*
G01*
X118300000Y-85150000D01*
G75*
G02*
X118550000Y-84900000I250000J0D01*
G01*
G37*
G36*
G01*
X118550000Y-86900000D02*
X119450000Y-86900000D01*
G75*
G02*
X119700000Y-87150000I0J-250000D01*
G01*
X119700000Y-87850000D01*
G75*
G02*
X119450000Y-88100000I-250000J0D01*
G01*
X118550000Y-88100000D01*
G75*
G02*
X118300000Y-87850000I0J250000D01*
G01*
X118300000Y-87150000D01*
G75*
G02*
X118550000Y-86900000I250000J0D01*
G01*
G37*
G36*
G01*
X139550000Y-84900000D02*
X140450000Y-84900000D01*
G75*
G02*
X140700000Y-85150000I0J-250000D01*
G01*
X140700000Y-85850000D01*
G75*
G02*
X140450000Y-86100000I-250000J0D01*
G01*
X139550000Y-86100000D01*
G75*
G02*
X139300000Y-85850000I0J250000D01*
G01*
X139300000Y-85150000D01*
G75*
G02*
X139550000Y-84900000I250000J0D01*
G01*
G37*
G36*
G01*
X139550000Y-86900000D02*
X140450000Y-86900000D01*
G75*
G02*
X140700000Y-87150000I0J-250000D01*
G01*
X140700000Y-87850000D01*
G75*
G02*
X140450000Y-88100000I-250000J0D01*
G01*
X139550000Y-88100000D01*
G75*
G02*
X139300000Y-87850000I0J250000D01*
G01*
X139300000Y-87150000D01*
G75*
G02*
X139550000Y-86900000I250000J0D01*
G01*
G37*
G36*
G01*
X133550000Y-84900000D02*
X134450000Y-84900000D01*
G75*
G02*
X134700000Y-85150000I0J-250000D01*
G01*
X134700000Y-85850000D01*
G75*
G02*
X134450000Y-86100000I-250000J0D01*
G01*
X133550000Y-86100000D01*
G75*
G02*
X133300000Y-85850000I0J250000D01*
G01*
X133300000Y-85150000D01*
G75*
G02*
X133550000Y-84900000I250000J0D01*
G01*
G37*
G36*
G01*
X133550000Y-86900000D02*
X134450000Y-86900000D01*
G75*
G02*
X134700000Y-87150000I0J-250000D01*
G01*
X134700000Y-87850000D01*
G75*
G02*
X134450000Y-88100000I-250000J0D01*
G01*
X133550000Y-88100000D01*
G75*
G02*
X133300000Y-87850000I0J250000D01*
G01*
X133300000Y-87150000D01*
G75*
G02*
X133550000Y-86900000I250000J0D01*
G01*
G37*
D11*
X156000000Y-102000000D03*
G36*
G01*
X182550000Y-88900000D02*
X183450000Y-88900000D01*
G75*
G02*
X183700000Y-89150000I0J-250000D01*
G01*
X183700000Y-89850000D01*
G75*
G02*
X183450000Y-90100000I-250000J0D01*
G01*
X182550000Y-90100000D01*
G75*
G02*
X182300000Y-89850000I0J250000D01*
G01*
X182300000Y-89150000D01*
G75*
G02*
X182550000Y-88900000I250000J0D01*
G01*
G37*
G36*
G01*
X182550000Y-90900000D02*
X183450000Y-90900000D01*
G75*
G02*
X183700000Y-91150000I0J-250000D01*
G01*
X183700000Y-91850000D01*
G75*
G02*
X183450000Y-92100000I-250000J0D01*
G01*
X182550000Y-92100000D01*
G75*
G02*
X182300000Y-91850000I0J250000D01*
G01*
X182300000Y-91150000D01*
G75*
G02*
X182550000Y-90900000I250000J0D01*
G01*
G37*
G36*
G01*
X162525000Y-92875000D02*
X163475000Y-92875000D01*
G75*
G02*
X163725000Y-93125000I0J-250000D01*
G01*
X163725000Y-93800000D01*
G75*
G02*
X163475000Y-94050000I-250000J0D01*
G01*
X162525000Y-94050000D01*
G75*
G02*
X162275000Y-93800000I0J250000D01*
G01*
X162275000Y-93125000D01*
G75*
G02*
X162525000Y-92875000I250000J0D01*
G01*
G37*
G36*
G01*
X162525000Y-94950000D02*
X163475000Y-94950000D01*
G75*
G02*
X163725000Y-95200000I0J-250000D01*
G01*
X163725000Y-95875000D01*
G75*
G02*
X163475000Y-96125000I-250000J0D01*
G01*
X162525000Y-96125000D01*
G75*
G02*
X162275000Y-95875000I0J250000D01*
G01*
X162275000Y-95200000D01*
G75*
G02*
X162525000Y-94950000I250000J0D01*
G01*
G37*
G36*
G01*
X171025000Y-76622500D02*
X171975000Y-76622500D01*
G75*
G02*
X172225000Y-76872500I0J-250000D01*
G01*
X172225000Y-77547500D01*
G75*
G02*
X171975000Y-77797500I-250000J0D01*
G01*
X171025000Y-77797500D01*
G75*
G02*
X170775000Y-77547500I0J250000D01*
G01*
X170775000Y-76872500D01*
G75*
G02*
X171025000Y-76622500I250000J0D01*
G01*
G37*
G36*
G01*
X171025000Y-78697500D02*
X171975000Y-78697500D01*
G75*
G02*
X172225000Y-78947500I0J-250000D01*
G01*
X172225000Y-79622500D01*
G75*
G02*
X171975000Y-79872500I-250000J0D01*
G01*
X171025000Y-79872500D01*
G75*
G02*
X170775000Y-79622500I0J250000D01*
G01*
X170775000Y-78947500D01*
G75*
G02*
X171025000Y-78697500I250000J0D01*
G01*
G37*
G36*
G01*
X156550000Y-76647500D02*
X157450000Y-76647500D01*
G75*
G02*
X157700000Y-76897500I0J-250000D01*
G01*
X157700000Y-77597500D01*
G75*
G02*
X157450000Y-77847500I-250000J0D01*
G01*
X156550000Y-77847500D01*
G75*
G02*
X156300000Y-77597500I0J250000D01*
G01*
X156300000Y-76897500D01*
G75*
G02*
X156550000Y-76647500I250000J0D01*
G01*
G37*
G36*
G01*
X156550000Y-78647500D02*
X157450000Y-78647500D01*
G75*
G02*
X157700000Y-78897500I0J-250000D01*
G01*
X157700000Y-79597500D01*
G75*
G02*
X157450000Y-79847500I-250000J0D01*
G01*
X156550000Y-79847500D01*
G75*
G02*
X156300000Y-79597500I0J250000D01*
G01*
X156300000Y-78897500D01*
G75*
G02*
X156550000Y-78647500I250000J0D01*
G01*
G37*
D12*
X132000000Y-111750000D03*
G36*
X132550000Y-111475000D02*
G01*
X132533898Y-111632160D01*
X132477389Y-111802529D01*
X132383202Y-111955329D01*
X132256390Y-112082362D01*
X132103755Y-112176816D01*
X131933484Y-112233622D01*
X131775000Y-112250000D01*
X130070000Y-112250000D01*
X129450000Y-111630000D01*
X129450000Y-108525000D01*
X129466102Y-108367840D01*
X129522611Y-108197471D01*
X129616798Y-108044671D01*
X129743610Y-107917638D01*
X129896245Y-107823184D01*
X130066516Y-107766378D01*
X130225000Y-107750000D01*
X131775000Y-107750000D01*
X131932160Y-107766102D01*
X132102529Y-107822611D01*
X132255329Y-107916798D01*
X132382362Y-108043610D01*
X132476816Y-108196245D01*
X132533622Y-108366516D01*
X132550000Y-108525000D01*
X132550000Y-111475000D01*
G37*
X132000000Y-108250000D03*
X130000000Y-108250000D03*
X130000000Y-111750000D03*
X133500000Y-111750000D03*
X135500000Y-111750000D03*
G36*
G01*
X136050000Y-108525000D02*
X136050000Y-111475000D01*
G75*
G02*
X135275000Y-112250000I-775000J0D01*
G01*
X133725000Y-112250000D01*
G75*
G02*
X132950000Y-111475000I0J775000D01*
G01*
X132950000Y-108525000D01*
G75*
G02*
X133725000Y-107750000I775000J0D01*
G01*
X135275000Y-107750000D01*
G75*
G02*
X136050000Y-108525000I0J-775000D01*
G01*
G37*
X133500000Y-108250000D03*
X135500000Y-108250000D03*
X139016000Y-108250000D03*
X136984000Y-108250000D03*
X139000000Y-111750000D03*
X136984000Y-111750000D03*
G36*
G01*
X139550000Y-108525000D02*
X139550000Y-111475000D01*
G75*
G02*
X138775000Y-112250000I-775000J0D01*
G01*
X137225000Y-112250000D01*
G75*
G02*
X136450000Y-111475000I0J775000D01*
G01*
X136450000Y-108525000D01*
G75*
G02*
X137225000Y-107750000I775000J0D01*
G01*
X138775000Y-107750000D01*
G75*
G02*
X139550000Y-108525000I0J-775000D01*
G01*
G37*
G36*
G01*
X168475000Y-88125000D02*
X167525000Y-88125000D01*
G75*
G02*
X167275000Y-87875000I0J250000D01*
G01*
X167275000Y-87200000D01*
G75*
G02*
X167525000Y-86950000I250000J0D01*
G01*
X168475000Y-86950000D01*
G75*
G02*
X168725000Y-87200000I0J-250000D01*
G01*
X168725000Y-87875000D01*
G75*
G02*
X168475000Y-88125000I-250000J0D01*
G01*
G37*
G36*
G01*
X168475000Y-86050000D02*
X167525000Y-86050000D01*
G75*
G02*
X167275000Y-85800000I0J250000D01*
G01*
X167275000Y-85125000D01*
G75*
G02*
X167525000Y-84875000I250000J0D01*
G01*
X168475000Y-84875000D01*
G75*
G02*
X168725000Y-85125000I0J-250000D01*
G01*
X168725000Y-85800000D01*
G75*
G02*
X168475000Y-86050000I-250000J0D01*
G01*
G37*
G36*
G01*
X184550000Y-84900000D02*
X185450000Y-84900000D01*
G75*
G02*
X185700000Y-85150000I0J-250000D01*
G01*
X185700000Y-85850000D01*
G75*
G02*
X185450000Y-86100000I-250000J0D01*
G01*
X184550000Y-86100000D01*
G75*
G02*
X184300000Y-85850000I0J250000D01*
G01*
X184300000Y-85150000D01*
G75*
G02*
X184550000Y-84900000I250000J0D01*
G01*
G37*
G36*
G01*
X184550000Y-86900000D02*
X185450000Y-86900000D01*
G75*
G02*
X185700000Y-87150000I0J-250000D01*
G01*
X185700000Y-87850000D01*
G75*
G02*
X185450000Y-88100000I-250000J0D01*
G01*
X184550000Y-88100000D01*
G75*
G02*
X184300000Y-87850000I0J250000D01*
G01*
X184300000Y-87150000D01*
G75*
G02*
X184550000Y-86900000I250000J0D01*
G01*
G37*
G36*
G01*
X160025000Y-76622500D02*
X160975000Y-76622500D01*
G75*
G02*
X161225000Y-76872500I0J-250000D01*
G01*
X161225000Y-77547500D01*
G75*
G02*
X160975000Y-77797500I-250000J0D01*
G01*
X160025000Y-77797500D01*
G75*
G02*
X159775000Y-77547500I0J250000D01*
G01*
X159775000Y-76872500D01*
G75*
G02*
X160025000Y-76622500I250000J0D01*
G01*
G37*
G36*
G01*
X160025000Y-78697500D02*
X160975000Y-78697500D01*
G75*
G02*
X161225000Y-78947500I0J-250000D01*
G01*
X161225000Y-79622500D01*
G75*
G02*
X160975000Y-79872500I-250000J0D01*
G01*
X160025000Y-79872500D01*
G75*
G02*
X159775000Y-79622500I0J250000D01*
G01*
X159775000Y-78947500D01*
G75*
G02*
X160025000Y-78697500I250000J0D01*
G01*
G37*
G36*
G01*
X125450000Y-92100000D02*
X124550000Y-92100000D01*
G75*
G02*
X124300000Y-91850000I0J250000D01*
G01*
X124300000Y-91150000D01*
G75*
G02*
X124550000Y-90900000I250000J0D01*
G01*
X125450000Y-90900000D01*
G75*
G02*
X125700000Y-91150000I0J-250000D01*
G01*
X125700000Y-91850000D01*
G75*
G02*
X125450000Y-92100000I-250000J0D01*
G01*
G37*
G36*
G01*
X125450000Y-90100000D02*
X124550000Y-90100000D01*
G75*
G02*
X124300000Y-89850000I0J250000D01*
G01*
X124300000Y-89150000D01*
G75*
G02*
X124550000Y-88900000I250000J0D01*
G01*
X125450000Y-88900000D01*
G75*
G02*
X125700000Y-89150000I0J-250000D01*
G01*
X125700000Y-89850000D01*
G75*
G02*
X125450000Y-90100000I-250000J0D01*
G01*
G37*
D11*
X186000000Y-102000000D03*
G36*
G01*
X159475000Y-96125000D02*
X158525000Y-96125000D01*
G75*
G02*
X158275000Y-95875000I0J250000D01*
G01*
X158275000Y-95200000D01*
G75*
G02*
X158525000Y-94950000I250000J0D01*
G01*
X159475000Y-94950000D01*
G75*
G02*
X159725000Y-95200000I0J-250000D01*
G01*
X159725000Y-95875000D01*
G75*
G02*
X159475000Y-96125000I-250000J0D01*
G01*
G37*
G36*
G01*
X159475000Y-94050000D02*
X158525000Y-94050000D01*
G75*
G02*
X158275000Y-93800000I0J250000D01*
G01*
X158275000Y-93125000D01*
G75*
G02*
X158525000Y-92875000I250000J0D01*
G01*
X159475000Y-92875000D01*
G75*
G02*
X159725000Y-93125000I0J-250000D01*
G01*
X159725000Y-93800000D01*
G75*
G02*
X159475000Y-94050000I-250000J0D01*
G01*
G37*
D13*
X160100000Y-97600000D03*
X162900000Y-97600000D03*
X145100000Y-97600000D03*
X147900000Y-97600000D03*
G36*
G01*
X147525000Y-92875000D02*
X148475000Y-92875000D01*
G75*
G02*
X148725000Y-93125000I0J-250000D01*
G01*
X148725000Y-93800000D01*
G75*
G02*
X148475000Y-94050000I-250000J0D01*
G01*
X147525000Y-94050000D01*
G75*
G02*
X147275000Y-93800000I0J250000D01*
G01*
X147275000Y-93125000D01*
G75*
G02*
X147525000Y-92875000I250000J0D01*
G01*
G37*
G36*
G01*
X147525000Y-94950000D02*
X148475000Y-94950000D01*
G75*
G02*
X148725000Y-95200000I0J-250000D01*
G01*
X148725000Y-95875000D01*
G75*
G02*
X148475000Y-96125000I-250000J0D01*
G01*
X147525000Y-96125000D01*
G75*
G02*
X147275000Y-95875000I0J250000D01*
G01*
X147275000Y-95200000D01*
G75*
G02*
X147525000Y-94950000I250000J0D01*
G01*
G37*
G36*
G01*
X115525000Y-88875000D02*
X116475000Y-88875000D01*
G75*
G02*
X116725000Y-89125000I0J-250000D01*
G01*
X116725000Y-89800000D01*
G75*
G02*
X116475000Y-90050000I-250000J0D01*
G01*
X115525000Y-90050000D01*
G75*
G02*
X115275000Y-89800000I0J250000D01*
G01*
X115275000Y-89125000D01*
G75*
G02*
X115525000Y-88875000I250000J0D01*
G01*
G37*
G36*
G01*
X115525000Y-90950000D02*
X116475000Y-90950000D01*
G75*
G02*
X116725000Y-91200000I0J-250000D01*
G01*
X116725000Y-91875000D01*
G75*
G02*
X116475000Y-92125000I-250000J0D01*
G01*
X115525000Y-92125000D01*
G75*
G02*
X115275000Y-91875000I0J250000D01*
G01*
X115275000Y-91200000D01*
G75*
G02*
X115525000Y-90950000I250000J0D01*
G01*
G37*
G36*
G01*
X137550000Y-88900000D02*
X138450000Y-88900000D01*
G75*
G02*
X138700000Y-89150000I0J-250000D01*
G01*
X138700000Y-89850000D01*
G75*
G02*
X138450000Y-90100000I-250000J0D01*
G01*
X137550000Y-90100000D01*
G75*
G02*
X137300000Y-89850000I0J250000D01*
G01*
X137300000Y-89150000D01*
G75*
G02*
X137550000Y-88900000I250000J0D01*
G01*
G37*
G36*
G01*
X137550000Y-90900000D02*
X138450000Y-90900000D01*
G75*
G02*
X138700000Y-91150000I0J-250000D01*
G01*
X138700000Y-91850000D01*
G75*
G02*
X138450000Y-92100000I-250000J0D01*
G01*
X137550000Y-92100000D01*
G75*
G02*
X137300000Y-91850000I0J250000D01*
G01*
X137300000Y-91150000D01*
G75*
G02*
X137550000Y-90900000I250000J0D01*
G01*
G37*
D14*
X155215000Y-97440000D03*
X155215000Y-96170000D03*
X155215000Y-94900000D03*
X155215000Y-93630000D03*
D15*
X152000000Y-95535000D03*
D16*
X149665000Y-93630000D03*
X149665000Y-97440000D03*
X149665000Y-96170000D03*
X149665000Y-94900000D03*
G36*
G01*
X132525000Y-92875000D02*
X133475000Y-92875000D01*
G75*
G02*
X133725000Y-93125000I0J-250000D01*
G01*
X133725000Y-93800000D01*
G75*
G02*
X133475000Y-94050000I-250000J0D01*
G01*
X132525000Y-94050000D01*
G75*
G02*
X132275000Y-93800000I0J250000D01*
G01*
X132275000Y-93125000D01*
G75*
G02*
X132525000Y-92875000I250000J0D01*
G01*
G37*
G36*
G01*
X132525000Y-94950000D02*
X133475000Y-94950000D01*
G75*
G02*
X133725000Y-95200000I0J-250000D01*
G01*
X133725000Y-95875000D01*
G75*
G02*
X133475000Y-96125000I-250000J0D01*
G01*
X132525000Y-96125000D01*
G75*
G02*
X132275000Y-95875000I0J250000D01*
G01*
X132275000Y-95200000D01*
G75*
G02*
X132525000Y-94950000I250000J0D01*
G01*
G37*
G36*
G01*
X140450000Y-92100000D02*
X139550000Y-92100000D01*
G75*
G02*
X139300000Y-91850000I0J250000D01*
G01*
X139300000Y-91150000D01*
G75*
G02*
X139550000Y-90900000I250000J0D01*
G01*
X140450000Y-90900000D01*
G75*
G02*
X140700000Y-91150000I0J-250000D01*
G01*
X140700000Y-91850000D01*
G75*
G02*
X140450000Y-92100000I-250000J0D01*
G01*
G37*
G36*
G01*
X140450000Y-90100000D02*
X139550000Y-90100000D01*
G75*
G02*
X139300000Y-89850000I0J250000D01*
G01*
X139300000Y-89150000D01*
G75*
G02*
X139550000Y-88900000I250000J0D01*
G01*
X140450000Y-88900000D01*
G75*
G02*
X140700000Y-89150000I0J-250000D01*
G01*
X140700000Y-89850000D01*
G75*
G02*
X140450000Y-90100000I-250000J0D01*
G01*
G37*
D12*
X177000000Y-108250000D03*
X177000000Y-111750000D03*
X175000000Y-111750000D03*
X175000000Y-108250000D03*
G36*
X177550000Y-111475000D02*
G01*
X177533898Y-111632160D01*
X177477389Y-111802529D01*
X177383202Y-111955329D01*
X177256390Y-112082362D01*
X177103755Y-112176816D01*
X176933484Y-112233622D01*
X176775000Y-112250000D01*
X175070000Y-112250000D01*
X174450000Y-111630000D01*
X174450000Y-108525000D01*
X174466102Y-108367840D01*
X174522611Y-108197471D01*
X174616798Y-108044671D01*
X174743610Y-107917638D01*
X174896245Y-107823184D01*
X175066516Y-107766378D01*
X175225000Y-107750000D01*
X176775000Y-107750000D01*
X176932160Y-107766102D01*
X177102529Y-107822611D01*
X177255329Y-107916798D01*
X177382362Y-108043610D01*
X177476816Y-108196245D01*
X177533622Y-108366516D01*
X177550000Y-108525000D01*
X177550000Y-111475000D01*
G37*
G36*
G01*
X181050000Y-108525000D02*
X181050000Y-111475000D01*
G75*
G02*
X180275000Y-112250000I-775000J0D01*
G01*
X178725000Y-112250000D01*
G75*
G02*
X177950000Y-111475000I0J775000D01*
G01*
X177950000Y-108525000D01*
G75*
G02*
X178725000Y-107750000I775000J0D01*
G01*
X180275000Y-107750000D01*
G75*
G02*
X181050000Y-108525000I0J-775000D01*
G01*
G37*
X178500000Y-111750000D03*
X180500000Y-111750000D03*
X180500000Y-108250000D03*
X178500000Y-108250000D03*
G36*
G01*
X184550000Y-108525000D02*
X184550000Y-111475000D01*
G75*
G02*
X183775000Y-112250000I-775000J0D01*
G01*
X182225000Y-112250000D01*
G75*
G02*
X181450000Y-111475000I0J775000D01*
G01*
X181450000Y-108525000D01*
G75*
G02*
X182225000Y-107750000I775000J0D01*
G01*
X183775000Y-107750000D01*
G75*
G02*
X184550000Y-108525000I0J-775000D01*
G01*
G37*
X181984000Y-111750000D03*
X184000000Y-111750000D03*
X181984000Y-108250000D03*
X184016000Y-108250000D03*
G36*
G01*
X182050000Y-64900000D02*
X182950000Y-64900000D01*
G75*
G02*
X183200000Y-65150000I0J-250000D01*
G01*
X183200000Y-65800000D01*
G75*
G02*
X182950000Y-66050000I-250000J0D01*
G01*
X182050000Y-66050000D01*
G75*
G02*
X181800000Y-65800000I0J250000D01*
G01*
X181800000Y-65150000D01*
G75*
G02*
X182050000Y-64900000I250000J0D01*
G01*
G37*
G36*
G01*
X182050000Y-66950000D02*
X182950000Y-66950000D01*
G75*
G02*
X183200000Y-67200000I0J-250000D01*
G01*
X183200000Y-67850000D01*
G75*
G02*
X182950000Y-68100000I-250000J0D01*
G01*
X182050000Y-68100000D01*
G75*
G02*
X181800000Y-67850000I0J250000D01*
G01*
X181800000Y-67200000D01*
G75*
G02*
X182050000Y-66950000I250000J0D01*
G01*
G37*
G36*
G01*
X165525000Y-76622500D02*
X166475000Y-76622500D01*
G75*
G02*
X166725000Y-76872500I0J-250000D01*
G01*
X166725000Y-77547500D01*
G75*
G02*
X166475000Y-77797500I-250000J0D01*
G01*
X165525000Y-77797500D01*
G75*
G02*
X165275000Y-77547500I0J250000D01*
G01*
X165275000Y-76872500D01*
G75*
G02*
X165525000Y-76622500I250000J0D01*
G01*
G37*
G36*
G01*
X165525000Y-78697500D02*
X166475000Y-78697500D01*
G75*
G02*
X166725000Y-78947500I0J-250000D01*
G01*
X166725000Y-79622500D01*
G75*
G02*
X166475000Y-79872500I-250000J0D01*
G01*
X165525000Y-79872500D01*
G75*
G02*
X165275000Y-79622500I0J250000D01*
G01*
X165275000Y-78947500D01*
G75*
G02*
X165525000Y-78697500I250000J0D01*
G01*
G37*
D17*
X118150000Y-89550000D03*
X118150000Y-90500000D03*
X118150000Y-91450000D03*
X120850000Y-91450000D03*
X120850000Y-89550000D03*
G36*
G01*
X138475000Y-88125000D02*
X137525000Y-88125000D01*
G75*
G02*
X137275000Y-87875000I0J250000D01*
G01*
X137275000Y-87200000D01*
G75*
G02*
X137525000Y-86950000I250000J0D01*
G01*
X138475000Y-86950000D01*
G75*
G02*
X138725000Y-87200000I0J-250000D01*
G01*
X138725000Y-87875000D01*
G75*
G02*
X138475000Y-88125000I-250000J0D01*
G01*
G37*
G36*
G01*
X138475000Y-86050000D02*
X137525000Y-86050000D01*
G75*
G02*
X137275000Y-85800000I0J250000D01*
G01*
X137275000Y-85125000D01*
G75*
G02*
X137525000Y-84875000I250000J0D01*
G01*
X138475000Y-84875000D01*
G75*
G02*
X138725000Y-85125000I0J-250000D01*
G01*
X138725000Y-85800000D01*
G75*
G02*
X138475000Y-86050000I-250000J0D01*
G01*
G37*
X133150000Y-89550000D03*
X133150000Y-90500000D03*
X133150000Y-91450000D03*
X135850000Y-91450000D03*
X135850000Y-89550000D03*
D11*
X126000000Y-102000000D03*
G36*
G01*
X173300000Y-71947500D02*
X173600000Y-71947500D01*
G75*
G02*
X173750000Y-72097500I0J-150000D01*
G01*
X173750000Y-73122500D01*
G75*
G02*
X173600000Y-73272500I-150000J0D01*
G01*
X173300000Y-73272500D01*
G75*
G02*
X173150000Y-73122500I0J150000D01*
G01*
X173150000Y-72097500D01*
G75*
G02*
X173300000Y-71947500I150000J0D01*
G01*
G37*
G36*
G01*
X172350000Y-71947500D02*
X172650000Y-71947500D01*
G75*
G02*
X172800000Y-72097500I0J-150000D01*
G01*
X172800000Y-73122500D01*
G75*
G02*
X172650000Y-73272500I-150000J0D01*
G01*
X172350000Y-73272500D01*
G75*
G02*
X172200000Y-73122500I0J150000D01*
G01*
X172200000Y-72097500D01*
G75*
G02*
X172350000Y-71947500I150000J0D01*
G01*
G37*
G36*
G01*
X171400000Y-71947500D02*
X171700000Y-71947500D01*
G75*
G02*
X171850000Y-72097500I0J-150000D01*
G01*
X171850000Y-73122500D01*
G75*
G02*
X171700000Y-73272500I-150000J0D01*
G01*
X171400000Y-73272500D01*
G75*
G02*
X171250000Y-73122500I0J150000D01*
G01*
X171250000Y-72097500D01*
G75*
G02*
X171400000Y-71947500I150000J0D01*
G01*
G37*
G36*
G01*
X171400000Y-74222500D02*
X171700000Y-74222500D01*
G75*
G02*
X171850000Y-74372500I0J-150000D01*
G01*
X171850000Y-75397500D01*
G75*
G02*
X171700000Y-75547500I-150000J0D01*
G01*
X171400000Y-75547500D01*
G75*
G02*
X171250000Y-75397500I0J150000D01*
G01*
X171250000Y-74372500D01*
G75*
G02*
X171400000Y-74222500I150000J0D01*
G01*
G37*
G36*
G01*
X172350000Y-74222500D02*
X172650000Y-74222500D01*
G75*
G02*
X172800000Y-74372500I0J-150000D01*
G01*
X172800000Y-75397500D01*
G75*
G02*
X172650000Y-75547500I-150000J0D01*
G01*
X172350000Y-75547500D01*
G75*
G02*
X172200000Y-75397500I0J150000D01*
G01*
X172200000Y-74372500D01*
G75*
G02*
X172350000Y-74222500I150000J0D01*
G01*
G37*
G36*
G01*
X173300000Y-74222500D02*
X173600000Y-74222500D01*
G75*
G02*
X173750000Y-74372500I0J-150000D01*
G01*
X173750000Y-75397500D01*
G75*
G02*
X173600000Y-75547500I-150000J0D01*
G01*
X173300000Y-75547500D01*
G75*
G02*
X173150000Y-75397500I0J150000D01*
G01*
X173150000Y-74372500D01*
G75*
G02*
X173300000Y-74222500I150000J0D01*
G01*
G37*
G36*
G01*
X138000000Y-65600000D02*
X140000000Y-65600000D01*
G75*
G02*
X140250000Y-65850000I0J-250000D01*
G01*
X140250000Y-69750000D01*
G75*
G02*
X140000000Y-70000000I-250000J0D01*
G01*
X138000000Y-70000000D01*
G75*
G02*
X137750000Y-69750000I0J250000D01*
G01*
X137750000Y-65850000D01*
G75*
G02*
X138000000Y-65600000I250000J0D01*
G01*
G37*
G36*
G01*
X138000000Y-74000000D02*
X140000000Y-74000000D01*
G75*
G02*
X140250000Y-74250000I0J-250000D01*
G01*
X140250000Y-78150000D01*
G75*
G02*
X140000000Y-78400000I-250000J0D01*
G01*
X138000000Y-78400000D01*
G75*
G02*
X137750000Y-78150000I0J250000D01*
G01*
X137750000Y-74250000D01*
G75*
G02*
X138000000Y-74000000I250000J0D01*
G01*
G37*
G36*
G01*
X174475000Y-96125000D02*
X173525000Y-96125000D01*
G75*
G02*
X173275000Y-95875000I0J250000D01*
G01*
X173275000Y-95200000D01*
G75*
G02*
X173525000Y-94950000I250000J0D01*
G01*
X174475000Y-94950000D01*
G75*
G02*
X174725000Y-95200000I0J-250000D01*
G01*
X174725000Y-95875000D01*
G75*
G02*
X174475000Y-96125000I-250000J0D01*
G01*
G37*
G36*
G01*
X174475000Y-94050000D02*
X173525000Y-94050000D01*
G75*
G02*
X173275000Y-93800000I0J250000D01*
G01*
X173275000Y-93125000D01*
G75*
G02*
X173525000Y-92875000I250000J0D01*
G01*
X174475000Y-92875000D01*
G75*
G02*
X174725000Y-93125000I0J-250000D01*
G01*
X174725000Y-93800000D01*
G75*
G02*
X174475000Y-94050000I-250000J0D01*
G01*
G37*
D13*
X175100000Y-97600000D03*
X177900000Y-97600000D03*
D14*
X170215000Y-97440000D03*
X170215000Y-96170000D03*
X170215000Y-94900000D03*
X170215000Y-93630000D03*
D16*
X164665000Y-93630000D03*
X164665000Y-94900000D03*
X164665000Y-97440000D03*
X164665000Y-96170000D03*
D15*
X167000000Y-95535000D03*
G36*
G01*
X153475000Y-88125000D02*
X152525000Y-88125000D01*
G75*
G02*
X152275000Y-87875000I0J250000D01*
G01*
X152275000Y-87200000D01*
G75*
G02*
X152525000Y-86950000I250000J0D01*
G01*
X153475000Y-86950000D01*
G75*
G02*
X153725000Y-87200000I0J-250000D01*
G01*
X153725000Y-87875000D01*
G75*
G02*
X153475000Y-88125000I-250000J0D01*
G01*
G37*
G36*
G01*
X153475000Y-86050000D02*
X152525000Y-86050000D01*
G75*
G02*
X152275000Y-85800000I0J250000D01*
G01*
X152275000Y-85125000D01*
G75*
G02*
X152525000Y-84875000I250000J0D01*
G01*
X153475000Y-84875000D01*
G75*
G02*
X153725000Y-85125000I0J-250000D01*
G01*
X153725000Y-85800000D01*
G75*
G02*
X153475000Y-86050000I-250000J0D01*
G01*
G37*
G36*
G01*
X124550000Y-84900000D02*
X125450000Y-84900000D01*
G75*
G02*
X125700000Y-85150000I0J-250000D01*
G01*
X125700000Y-85850000D01*
G75*
G02*
X125450000Y-86100000I-250000J0D01*
G01*
X124550000Y-86100000D01*
G75*
G02*
X124300000Y-85850000I0J250000D01*
G01*
X124300000Y-85150000D01*
G75*
G02*
X124550000Y-84900000I250000J0D01*
G01*
G37*
G36*
G01*
X124550000Y-86900000D02*
X125450000Y-86900000D01*
G75*
G02*
X125700000Y-87150000I0J-250000D01*
G01*
X125700000Y-87850000D01*
G75*
G02*
X125450000Y-88100000I-250000J0D01*
G01*
X124550000Y-88100000D01*
G75*
G02*
X124300000Y-87850000I0J250000D01*
G01*
X124300000Y-87150000D01*
G75*
G02*
X124550000Y-86900000I250000J0D01*
G01*
G37*
G36*
G01*
X167550000Y-88900000D02*
X168450000Y-88900000D01*
G75*
G02*
X168700000Y-89150000I0J-250000D01*
G01*
X168700000Y-89850000D01*
G75*
G02*
X168450000Y-90100000I-250000J0D01*
G01*
X167550000Y-90100000D01*
G75*
G02*
X167300000Y-89850000I0J250000D01*
G01*
X167300000Y-89150000D01*
G75*
G02*
X167550000Y-88900000I250000J0D01*
G01*
G37*
G36*
G01*
X167550000Y-90900000D02*
X168450000Y-90900000D01*
G75*
G02*
X168700000Y-91150000I0J-250000D01*
G01*
X168700000Y-91850000D01*
G75*
G02*
X168450000Y-92100000I-250000J0D01*
G01*
X167550000Y-92100000D01*
G75*
G02*
X167300000Y-91850000I0J250000D01*
G01*
X167300000Y-91150000D01*
G75*
G02*
X167550000Y-90900000I250000J0D01*
G01*
G37*
G36*
X117550000Y-111475000D02*
G01*
X117533898Y-111632160D01*
X117477389Y-111802529D01*
X117383202Y-111955329D01*
X117256390Y-112082362D01*
X117103755Y-112176816D01*
X116933484Y-112233622D01*
X116775000Y-112250000D01*
X115070000Y-112250000D01*
X114450000Y-111630000D01*
X114450000Y-108525000D01*
X114466102Y-108367840D01*
X114522611Y-108197471D01*
X114616798Y-108044671D01*
X114743610Y-107917638D01*
X114896245Y-107823184D01*
X115066516Y-107766378D01*
X115225000Y-107750000D01*
X116775000Y-107750000D01*
X116932160Y-107766102D01*
X117102529Y-107822611D01*
X117255329Y-107916798D01*
X117382362Y-108043610D01*
X117476816Y-108196245D01*
X117533622Y-108366516D01*
X117550000Y-108525000D01*
X117550000Y-111475000D01*
G37*
D12*
X117000000Y-108250000D03*
X117000000Y-111750000D03*
X115000000Y-108250000D03*
X115000000Y-111750000D03*
G36*
G01*
X121050000Y-108525000D02*
X121050000Y-111475000D01*
G75*
G02*
X120275000Y-112250000I-775000J0D01*
G01*
X118725000Y-112250000D01*
G75*
G02*
X117950000Y-111475000I0J775000D01*
G01*
X117950000Y-108525000D01*
G75*
G02*
X118725000Y-107750000I775000J0D01*
G01*
X120275000Y-107750000D01*
G75*
G02*
X121050000Y-108525000I0J-775000D01*
G01*
G37*
X118500000Y-108250000D03*
X120500000Y-111750000D03*
X118500000Y-111750000D03*
X120500000Y-108250000D03*
G36*
G01*
X124550000Y-108525000D02*
X124550000Y-111475000D01*
G75*
G02*
X123775000Y-112250000I-775000J0D01*
G01*
X122225000Y-112250000D01*
G75*
G02*
X121450000Y-111475000I0J775000D01*
G01*
X121450000Y-108525000D01*
G75*
G02*
X122225000Y-107750000I775000J0D01*
G01*
X123775000Y-107750000D01*
G75*
G02*
X124550000Y-108525000I0J-775000D01*
G01*
G37*
X124000000Y-111750000D03*
X124016000Y-108250000D03*
X121984000Y-111750000D03*
X121984000Y-108250000D03*
G36*
G01*
X114450000Y-92100000D02*
X113550000Y-92100000D01*
G75*
G02*
X113300000Y-91850000I0J250000D01*
G01*
X113300000Y-91150000D01*
G75*
G02*
X113550000Y-90900000I250000J0D01*
G01*
X114450000Y-90900000D01*
G75*
G02*
X114700000Y-91150000I0J-250000D01*
G01*
X114700000Y-91850000D01*
G75*
G02*
X114450000Y-92100000I-250000J0D01*
G01*
G37*
G36*
G01*
X114450000Y-90100000D02*
X113550000Y-90100000D01*
G75*
G02*
X113300000Y-89850000I0J250000D01*
G01*
X113300000Y-89150000D01*
G75*
G02*
X113550000Y-88900000I250000J0D01*
G01*
X114450000Y-88900000D01*
G75*
G02*
X114700000Y-89150000I0J-250000D01*
G01*
X114700000Y-89850000D01*
G75*
G02*
X114450000Y-90100000I-250000J0D01*
G01*
G37*
G36*
G01*
X152550000Y-88900000D02*
X153450000Y-88900000D01*
G75*
G02*
X153700000Y-89150000I0J-250000D01*
G01*
X153700000Y-89850000D01*
G75*
G02*
X153450000Y-90100000I-250000J0D01*
G01*
X152550000Y-90100000D01*
G75*
G02*
X152300000Y-89850000I0J250000D01*
G01*
X152300000Y-89150000D01*
G75*
G02*
X152550000Y-88900000I250000J0D01*
G01*
G37*
G36*
G01*
X152550000Y-90900000D02*
X153450000Y-90900000D01*
G75*
G02*
X153700000Y-91150000I0J-250000D01*
G01*
X153700000Y-91850000D01*
G75*
G02*
X153450000Y-92100000I-250000J0D01*
G01*
X152550000Y-92100000D01*
G75*
G02*
X152300000Y-91850000I0J250000D01*
G01*
X152300000Y-91150000D01*
G75*
G02*
X152550000Y-90900000I250000J0D01*
G01*
G37*
G36*
G01*
X130525000Y-88875000D02*
X131475000Y-88875000D01*
G75*
G02*
X131725000Y-89125000I0J-250000D01*
G01*
X131725000Y-89800000D01*
G75*
G02*
X131475000Y-90050000I-250000J0D01*
G01*
X130525000Y-90050000D01*
G75*
G02*
X130275000Y-89800000I0J250000D01*
G01*
X130275000Y-89125000D01*
G75*
G02*
X130525000Y-88875000I250000J0D01*
G01*
G37*
G36*
G01*
X130525000Y-90950000D02*
X131475000Y-90950000D01*
G75*
G02*
X131725000Y-91200000I0J-250000D01*
G01*
X131725000Y-91875000D01*
G75*
G02*
X131475000Y-92125000I-250000J0D01*
G01*
X130525000Y-92125000D01*
G75*
G02*
X130275000Y-91875000I0J250000D01*
G01*
X130275000Y-91200000D01*
G75*
G02*
X130525000Y-90950000I250000J0D01*
G01*
G37*
G36*
G01*
X160525000Y-88875000D02*
X161475000Y-88875000D01*
G75*
G02*
X161725000Y-89125000I0J-250000D01*
G01*
X161725000Y-89800000D01*
G75*
G02*
X161475000Y-90050000I-250000J0D01*
G01*
X160525000Y-90050000D01*
G75*
G02*
X160275000Y-89800000I0J250000D01*
G01*
X160275000Y-89125000D01*
G75*
G02*
X160525000Y-88875000I250000J0D01*
G01*
G37*
G36*
G01*
X160525000Y-90950000D02*
X161475000Y-90950000D01*
G75*
G02*
X161725000Y-91200000I0J-250000D01*
G01*
X161725000Y-91875000D01*
G75*
G02*
X161475000Y-92125000I-250000J0D01*
G01*
X160525000Y-92125000D01*
G75*
G02*
X160275000Y-91875000I0J250000D01*
G01*
X160275000Y-91200000D01*
G75*
G02*
X160525000Y-90950000I250000J0D01*
G01*
G37*
D18*
X143250000Y-87250000D03*
X143750000Y-87250000D03*
X144250000Y-87250000D03*
X144250000Y-85750000D03*
X143750000Y-85750000D03*
X143250000Y-85750000D03*
G36*
G01*
X170450000Y-92100000D02*
X169550000Y-92100000D01*
G75*
G02*
X169300000Y-91850000I0J250000D01*
G01*
X169300000Y-91150000D01*
G75*
G02*
X169550000Y-90900000I250000J0D01*
G01*
X170450000Y-90900000D01*
G75*
G02*
X170700000Y-91150000I0J-250000D01*
G01*
X170700000Y-91850000D01*
G75*
G02*
X170450000Y-92100000I-250000J0D01*
G01*
G37*
G36*
G01*
X170450000Y-90100000D02*
X169550000Y-90100000D01*
G75*
G02*
X169300000Y-89850000I0J250000D01*
G01*
X169300000Y-89150000D01*
G75*
G02*
X169550000Y-88900000I250000J0D01*
G01*
X170450000Y-88900000D01*
G75*
G02*
X170700000Y-89150000I0J-250000D01*
G01*
X170700000Y-89850000D01*
G75*
G02*
X170450000Y-90100000I-250000J0D01*
G01*
G37*
D19*
X116600000Y-125000000D03*
X117302944Y-123302944D03*
X119000000Y-127400000D03*
X120697056Y-123302944D03*
X120697056Y-126697056D03*
X121400000Y-125000000D03*
D20*
X119000000Y-125000000D03*
D19*
X117302944Y-126697056D03*
X119000000Y-122600000D03*
G36*
G01*
X114475000Y-96125000D02*
X113525000Y-96125000D01*
G75*
G02*
X113275000Y-95875000I0J250000D01*
G01*
X113275000Y-95200000D01*
G75*
G02*
X113525000Y-94950000I250000J0D01*
G01*
X114475000Y-94950000D01*
G75*
G02*
X114725000Y-95200000I0J-250000D01*
G01*
X114725000Y-95875000D01*
G75*
G02*
X114475000Y-96125000I-250000J0D01*
G01*
G37*
G36*
G01*
X114475000Y-94050000D02*
X113525000Y-94050000D01*
G75*
G02*
X113275000Y-93800000I0J250000D01*
G01*
X113275000Y-93125000D01*
G75*
G02*
X113525000Y-92875000I250000J0D01*
G01*
X114475000Y-92875000D01*
G75*
G02*
X114725000Y-93125000I0J-250000D01*
G01*
X114725000Y-93800000D01*
G75*
G02*
X114475000Y-94050000I-250000J0D01*
G01*
G37*
D13*
X130100000Y-97600000D03*
X132900000Y-97600000D03*
G36*
G01*
X163550000Y-84900000D02*
X164450000Y-84900000D01*
G75*
G02*
X164700000Y-85150000I0J-250000D01*
G01*
X164700000Y-85850000D01*
G75*
G02*
X164450000Y-86100000I-250000J0D01*
G01*
X163550000Y-86100000D01*
G75*
G02*
X163300000Y-85850000I0J250000D01*
G01*
X163300000Y-85150000D01*
G75*
G02*
X163550000Y-84900000I250000J0D01*
G01*
G37*
G36*
G01*
X163550000Y-86900000D02*
X164450000Y-86900000D01*
G75*
G02*
X164700000Y-87150000I0J-250000D01*
G01*
X164700000Y-87850000D01*
G75*
G02*
X164450000Y-88100000I-250000J0D01*
G01*
X163550000Y-88100000D01*
G75*
G02*
X163300000Y-87850000I0J250000D01*
G01*
X163300000Y-87150000D01*
G75*
G02*
X163550000Y-86900000I250000J0D01*
G01*
G37*
G36*
G01*
X177525000Y-92875000D02*
X178475000Y-92875000D01*
G75*
G02*
X178725000Y-93125000I0J-250000D01*
G01*
X178725000Y-93800000D01*
G75*
G02*
X178475000Y-94050000I-250000J0D01*
G01*
X177525000Y-94050000D01*
G75*
G02*
X177275000Y-93800000I0J250000D01*
G01*
X177275000Y-93125000D01*
G75*
G02*
X177525000Y-92875000I250000J0D01*
G01*
G37*
G36*
G01*
X177525000Y-94950000D02*
X178475000Y-94950000D01*
G75*
G02*
X178725000Y-95200000I0J-250000D01*
G01*
X178725000Y-95875000D01*
G75*
G02*
X178475000Y-96125000I-250000J0D01*
G01*
X177525000Y-96125000D01*
G75*
G02*
X177275000Y-95875000I0J250000D01*
G01*
X177275000Y-95200000D01*
G75*
G02*
X177525000Y-94950000I250000J0D01*
G01*
G37*
D19*
X119000000Y-77400000D03*
X121400000Y-75000000D03*
X120697056Y-76697056D03*
X116600000Y-75000000D03*
X119000000Y-72600000D03*
X120697056Y-73302944D03*
D20*
X119000000Y-75000000D03*
D19*
X117302944Y-73302944D03*
X117302944Y-76697056D03*
G36*
G01*
X175525000Y-88875000D02*
X176475000Y-88875000D01*
G75*
G02*
X176725000Y-89125000I0J-250000D01*
G01*
X176725000Y-89800000D01*
G75*
G02*
X176475000Y-90050000I-250000J0D01*
G01*
X175525000Y-90050000D01*
G75*
G02*
X175275000Y-89800000I0J250000D01*
G01*
X175275000Y-89125000D01*
G75*
G02*
X175525000Y-88875000I250000J0D01*
G01*
G37*
G36*
G01*
X175525000Y-90950000D02*
X176475000Y-90950000D01*
G75*
G02*
X176725000Y-91200000I0J-250000D01*
G01*
X176725000Y-91875000D01*
G75*
G02*
X176475000Y-92125000I-250000J0D01*
G01*
X175525000Y-92125000D01*
G75*
G02*
X175275000Y-91875000I0J250000D01*
G01*
X175275000Y-91200000D01*
G75*
G02*
X175525000Y-90950000I250000J0D01*
G01*
G37*
D14*
X140215000Y-97440000D03*
X140215000Y-96170000D03*
X140215000Y-94900000D03*
X140215000Y-93630000D03*
D16*
X134665000Y-96170000D03*
D15*
X137000000Y-95535000D03*
D16*
X134665000Y-94900000D03*
X134665000Y-93630000D03*
X134665000Y-97440000D03*
G36*
G01*
X154550000Y-84900000D02*
X155450000Y-84900000D01*
G75*
G02*
X155700000Y-85150000I0J-250000D01*
G01*
X155700000Y-85850000D01*
G75*
G02*
X155450000Y-86100000I-250000J0D01*
G01*
X154550000Y-86100000D01*
G75*
G02*
X154300000Y-85850000I0J250000D01*
G01*
X154300000Y-85150000D01*
G75*
G02*
X154550000Y-84900000I250000J0D01*
G01*
G37*
G36*
G01*
X154550000Y-86900000D02*
X155450000Y-86900000D01*
G75*
G02*
X155700000Y-87150000I0J-250000D01*
G01*
X155700000Y-87850000D01*
G75*
G02*
X155450000Y-88100000I-250000J0D01*
G01*
X154550000Y-88100000D01*
G75*
G02*
X154300000Y-87850000I0J250000D01*
G01*
X154300000Y-87150000D01*
G75*
G02*
X154550000Y-86900000I250000J0D01*
G01*
G37*
G36*
G01*
X159450000Y-92100000D02*
X158550000Y-92100000D01*
G75*
G02*
X158300000Y-91850000I0J250000D01*
G01*
X158300000Y-91150000D01*
G75*
G02*
X158550000Y-90900000I250000J0D01*
G01*
X159450000Y-90900000D01*
G75*
G02*
X159700000Y-91150000I0J-250000D01*
G01*
X159700000Y-91850000D01*
G75*
G02*
X159450000Y-92100000I-250000J0D01*
G01*
G37*
G36*
G01*
X159450000Y-90100000D02*
X158550000Y-90100000D01*
G75*
G02*
X158300000Y-89850000I0J250000D01*
G01*
X158300000Y-89150000D01*
G75*
G02*
X158550000Y-88900000I250000J0D01*
G01*
X159450000Y-88900000D01*
G75*
G02*
X159700000Y-89150000I0J-250000D01*
G01*
X159700000Y-89850000D01*
G75*
G02*
X159450000Y-90100000I-250000J0D01*
G01*
G37*
D12*
X145000000Y-111750000D03*
X147000000Y-108250000D03*
G36*
X147550000Y-111475000D02*
G01*
X147533898Y-111632160D01*
X147477389Y-111802529D01*
X147383202Y-111955329D01*
X147256390Y-112082362D01*
X147103755Y-112176816D01*
X146933484Y-112233622D01*
X146775000Y-112250000D01*
X145070000Y-112250000D01*
X144450000Y-111630000D01*
X144450000Y-108525000D01*
X144466102Y-108367840D01*
X144522611Y-108197471D01*
X144616798Y-108044671D01*
X144743610Y-107917638D01*
X144896245Y-107823184D01*
X145066516Y-107766378D01*
X145225000Y-107750000D01*
X146775000Y-107750000D01*
X146932160Y-107766102D01*
X147102529Y-107822611D01*
X147255329Y-107916798D01*
X147382362Y-108043610D01*
X147476816Y-108196245D01*
X147533622Y-108366516D01*
X147550000Y-108525000D01*
X147550000Y-111475000D01*
G37*
X147000000Y-111750000D03*
X145000000Y-108250000D03*
X148500000Y-108250000D03*
X148500000Y-111750000D03*
X150500000Y-108250000D03*
G36*
G01*
X151050000Y-108525000D02*
X151050000Y-111475000D01*
G75*
G02*
X150275000Y-112250000I-775000J0D01*
G01*
X148725000Y-112250000D01*
G75*
G02*
X147950000Y-111475000I0J775000D01*
G01*
X147950000Y-108525000D01*
G75*
G02*
X148725000Y-107750000I775000J0D01*
G01*
X150275000Y-107750000D01*
G75*
G02*
X151050000Y-108525000I0J-775000D01*
G01*
G37*
X150500000Y-111750000D03*
X154000000Y-111750000D03*
X154016000Y-108250000D03*
X151984000Y-111750000D03*
G36*
G01*
X154550000Y-108525000D02*
X154550000Y-111475000D01*
G75*
G02*
X153775000Y-112250000I-775000J0D01*
G01*
X152225000Y-112250000D01*
G75*
G02*
X151450000Y-111475000I0J775000D01*
G01*
X151450000Y-108525000D01*
G75*
G02*
X152225000Y-107750000I775000J0D01*
G01*
X153775000Y-107750000D01*
G75*
G02*
X154550000Y-108525000I0J-775000D01*
G01*
G37*
X151984000Y-108250000D03*
G36*
G01*
X129450000Y-92100000D02*
X128550000Y-92100000D01*
G75*
G02*
X128300000Y-91850000I0J250000D01*
G01*
X128300000Y-91150000D01*
G75*
G02*
X128550000Y-90900000I250000J0D01*
G01*
X129450000Y-90900000D01*
G75*
G02*
X129700000Y-91150000I0J-250000D01*
G01*
X129700000Y-91850000D01*
G75*
G02*
X129450000Y-92100000I-250000J0D01*
G01*
G37*
G36*
G01*
X129450000Y-90100000D02*
X128550000Y-90100000D01*
G75*
G02*
X128300000Y-89850000I0J250000D01*
G01*
X128300000Y-89150000D01*
G75*
G02*
X128550000Y-88900000I250000J0D01*
G01*
X129450000Y-88900000D01*
G75*
G02*
X129700000Y-89150000I0J-250000D01*
G01*
X129700000Y-89850000D01*
G75*
G02*
X129450000Y-90100000I-250000J0D01*
G01*
G37*
G36*
G01*
X169550000Y-84900000D02*
X170450000Y-84900000D01*
G75*
G02*
X170700000Y-85150000I0J-250000D01*
G01*
X170700000Y-85850000D01*
G75*
G02*
X170450000Y-86100000I-250000J0D01*
G01*
X169550000Y-86100000D01*
G75*
G02*
X169300000Y-85850000I0J250000D01*
G01*
X169300000Y-85150000D01*
G75*
G02*
X169550000Y-84900000I250000J0D01*
G01*
G37*
G36*
G01*
X169550000Y-86900000D02*
X170450000Y-86900000D01*
G75*
G02*
X170700000Y-87150000I0J-250000D01*
G01*
X170700000Y-87850000D01*
G75*
G02*
X170450000Y-88100000I-250000J0D01*
G01*
X169550000Y-88100000D01*
G75*
G02*
X169300000Y-87850000I0J250000D01*
G01*
X169300000Y-87150000D01*
G75*
G02*
X169550000Y-86900000I250000J0D01*
G01*
G37*
D21*
X186000000Y-75000000D03*
D19*
X181400000Y-75000000D03*
X180697056Y-73302944D03*
D20*
X179000000Y-75000000D03*
D19*
X180697056Y-76697056D03*
X179000000Y-72600000D03*
X176600000Y-75000000D03*
X177302944Y-76697056D03*
X177302944Y-73302944D03*
X179000000Y-77400000D03*
G36*
G01*
X129475000Y-96125000D02*
X128525000Y-96125000D01*
G75*
G02*
X128275000Y-95875000I0J250000D01*
G01*
X128275000Y-95200000D01*
G75*
G02*
X128525000Y-94950000I250000J0D01*
G01*
X129475000Y-94950000D01*
G75*
G02*
X129725000Y-95200000I0J-250000D01*
G01*
X129725000Y-95875000D01*
G75*
G02*
X129475000Y-96125000I-250000J0D01*
G01*
G37*
G36*
G01*
X129475000Y-94050000D02*
X128525000Y-94050000D01*
G75*
G02*
X128275000Y-93800000I0J250000D01*
G01*
X128275000Y-93125000D01*
G75*
G02*
X128525000Y-92875000I250000J0D01*
G01*
X129475000Y-92875000D01*
G75*
G02*
X129725000Y-93125000I0J-250000D01*
G01*
X129725000Y-93800000D01*
G75*
G02*
X129475000Y-94050000I-250000J0D01*
G01*
G37*
G36*
G01*
X148550000Y-84900000D02*
X149450000Y-84900000D01*
G75*
G02*
X149700000Y-85150000I0J-250000D01*
G01*
X149700000Y-85850000D01*
G75*
G02*
X149450000Y-86100000I-250000J0D01*
G01*
X148550000Y-86100000D01*
G75*
G02*
X148300000Y-85850000I0J250000D01*
G01*
X148300000Y-85150000D01*
G75*
G02*
X148550000Y-84900000I250000J0D01*
G01*
G37*
G36*
G01*
X148550000Y-86900000D02*
X149450000Y-86900000D01*
G75*
G02*
X149700000Y-87150000I0J-250000D01*
G01*
X149700000Y-87850000D01*
G75*
G02*
X149450000Y-88100000I-250000J0D01*
G01*
X148550000Y-88100000D01*
G75*
G02*
X148300000Y-87850000I0J250000D01*
G01*
X148300000Y-87150000D01*
G75*
G02*
X148550000Y-86900000I250000J0D01*
G01*
G37*
G36*
G01*
X182950000Y-82100000D02*
X182050000Y-82100000D01*
G75*
G02*
X181800000Y-81850000I0J250000D01*
G01*
X181800000Y-81200000D01*
G75*
G02*
X182050000Y-80950000I250000J0D01*
G01*
X182950000Y-80950000D01*
G75*
G02*
X183200000Y-81200000I0J-250000D01*
G01*
X183200000Y-81850000D01*
G75*
G02*
X182950000Y-82100000I-250000J0D01*
G01*
G37*
G36*
G01*
X182950000Y-80050000D02*
X182050000Y-80050000D01*
G75*
G02*
X181800000Y-79800000I0J250000D01*
G01*
X181800000Y-79150000D01*
G75*
G02*
X182050000Y-78900000I250000J0D01*
G01*
X182950000Y-78900000D01*
G75*
G02*
X183200000Y-79150000I0J-250000D01*
G01*
X183200000Y-79800000D01*
G75*
G02*
X182950000Y-80050000I-250000J0D01*
G01*
G37*
G36*
G01*
X185450000Y-92100000D02*
X184550000Y-92100000D01*
G75*
G02*
X184300000Y-91850000I0J250000D01*
G01*
X184300000Y-91150000D01*
G75*
G02*
X184550000Y-90900000I250000J0D01*
G01*
X185450000Y-90900000D01*
G75*
G02*
X185700000Y-91150000I0J-250000D01*
G01*
X185700000Y-91850000D01*
G75*
G02*
X185450000Y-92100000I-250000J0D01*
G01*
G37*
G36*
G01*
X185450000Y-90100000D02*
X184550000Y-90100000D01*
G75*
G02*
X184300000Y-89850000I0J250000D01*
G01*
X184300000Y-89150000D01*
G75*
G02*
X184550000Y-88900000I250000J0D01*
G01*
X185450000Y-88900000D01*
G75*
G02*
X185700000Y-89150000I0J-250000D01*
G01*
X185700000Y-89850000D01*
G75*
G02*
X185450000Y-90100000I-250000J0D01*
G01*
G37*
G36*
G01*
X155980000Y-68350000D02*
X154780000Y-68350000D01*
G75*
G02*
X154530000Y-68100000I0J250000D01*
G01*
X154530000Y-66900000D01*
G75*
G02*
X154780000Y-66650000I250000J0D01*
G01*
X155980000Y-66650000D01*
G75*
G02*
X156230000Y-66900000I0J-250000D01*
G01*
X156230000Y-68100000D01*
G75*
G02*
X155980000Y-68350000I-250000J0D01*
G01*
G37*
D22*
X155380000Y-64960000D03*
X157920000Y-67500000D03*
X157920000Y-64960000D03*
X160460000Y-67500000D03*
X160460000Y-64960000D03*
X163000000Y-67500000D03*
X163000000Y-64960000D03*
X165540000Y-67500000D03*
X165540000Y-64960000D03*
X168080000Y-67500000D03*
X168080000Y-64960000D03*
X170620000Y-67500000D03*
X170620000Y-64960000D03*
X173160000Y-67500000D03*
X173160000Y-64960000D03*
G36*
G01*
X162050000Y-76647500D02*
X162950000Y-76647500D01*
G75*
G02*
X163200000Y-76897500I0J-250000D01*
G01*
X163200000Y-77597500D01*
G75*
G02*
X162950000Y-77847500I-250000J0D01*
G01*
X162050000Y-77847500D01*
G75*
G02*
X161800000Y-77597500I0J250000D01*
G01*
X161800000Y-76897500D01*
G75*
G02*
X162050000Y-76647500I250000J0D01*
G01*
G37*
G36*
G01*
X162050000Y-78647500D02*
X162950000Y-78647500D01*
G75*
G02*
X163200000Y-78897500I0J-250000D01*
G01*
X163200000Y-79597500D01*
G75*
G02*
X162950000Y-79847500I-250000J0D01*
G01*
X162050000Y-79847500D01*
G75*
G02*
X161800000Y-79597500I0J250000D01*
G01*
X161800000Y-78897500D01*
G75*
G02*
X162050000Y-78647500I250000J0D01*
G01*
G37*
G36*
G01*
X117525000Y-92875000D02*
X118475000Y-92875000D01*
G75*
G02*
X118725000Y-93125000I0J-250000D01*
G01*
X118725000Y-93800000D01*
G75*
G02*
X118475000Y-94050000I-250000J0D01*
G01*
X117525000Y-94050000D01*
G75*
G02*
X117275000Y-93800000I0J250000D01*
G01*
X117275000Y-93125000D01*
G75*
G02*
X117525000Y-92875000I250000J0D01*
G01*
G37*
G36*
G01*
X117525000Y-94950000D02*
X118475000Y-94950000D01*
G75*
G02*
X118725000Y-95200000I0J-250000D01*
G01*
X118725000Y-95875000D01*
G75*
G02*
X118475000Y-96125000I-250000J0D01*
G01*
X117525000Y-96125000D01*
G75*
G02*
X117275000Y-95875000I0J250000D01*
G01*
X117275000Y-95200000D01*
G75*
G02*
X117525000Y-94950000I250000J0D01*
G01*
G37*
G36*
G01*
X159050000Y-84900000D02*
X159950000Y-84900000D01*
G75*
G02*
X160200000Y-85150000I0J-250000D01*
G01*
X160200000Y-85850000D01*
G75*
G02*
X159950000Y-86100000I-250000J0D01*
G01*
X159050000Y-86100000D01*
G75*
G02*
X158800000Y-85850000I0J250000D01*
G01*
X158800000Y-85150000D01*
G75*
G02*
X159050000Y-84900000I250000J0D01*
G01*
G37*
G36*
G01*
X159050000Y-86900000D02*
X159950000Y-86900000D01*
G75*
G02*
X160200000Y-87150000I0J-250000D01*
G01*
X160200000Y-87850000D01*
G75*
G02*
X159950000Y-88100000I-250000J0D01*
G01*
X159050000Y-88100000D01*
G75*
G02*
X158800000Y-87850000I0J250000D01*
G01*
X158800000Y-87150000D01*
G75*
G02*
X159050000Y-86900000I250000J0D01*
G01*
G37*
G36*
G01*
X167550000Y-76647500D02*
X168450000Y-76647500D01*
G75*
G02*
X168700000Y-76897500I0J-250000D01*
G01*
X168700000Y-77597500D01*
G75*
G02*
X168450000Y-77847500I-250000J0D01*
G01*
X167550000Y-77847500D01*
G75*
G02*
X167300000Y-77597500I0J250000D01*
G01*
X167300000Y-76897500D01*
G75*
G02*
X167550000Y-76647500I250000J0D01*
G01*
G37*
G36*
G01*
X167550000Y-78647500D02*
X168450000Y-78647500D01*
G75*
G02*
X168700000Y-78897500I0J-250000D01*
G01*
X168700000Y-79597500D01*
G75*
G02*
X168450000Y-79847500I-250000J0D01*
G01*
X167550000Y-79847500D01*
G75*
G02*
X167300000Y-79597500I0J250000D01*
G01*
X167300000Y-78897500D01*
G75*
G02*
X167550000Y-78647500I250000J0D01*
G01*
G37*
G36*
G01*
X162300000Y-71947500D02*
X162600000Y-71947500D01*
G75*
G02*
X162750000Y-72097500I0J-150000D01*
G01*
X162750000Y-73122500D01*
G75*
G02*
X162600000Y-73272500I-150000J0D01*
G01*
X162300000Y-73272500D01*
G75*
G02*
X162150000Y-73122500I0J150000D01*
G01*
X162150000Y-72097500D01*
G75*
G02*
X162300000Y-71947500I150000J0D01*
G01*
G37*
G36*
G01*
X161350000Y-71947500D02*
X161650000Y-71947500D01*
G75*
G02*
X161800000Y-72097500I0J-150000D01*
G01*
X161800000Y-73122500D01*
G75*
G02*
X161650000Y-73272500I-150000J0D01*
G01*
X161350000Y-73272500D01*
G75*
G02*
X161200000Y-73122500I0J150000D01*
G01*
X161200000Y-72097500D01*
G75*
G02*
X161350000Y-71947500I150000J0D01*
G01*
G37*
G36*
G01*
X160400000Y-71947500D02*
X160700000Y-71947500D01*
G75*
G02*
X160850000Y-72097500I0J-150000D01*
G01*
X160850000Y-73122500D01*
G75*
G02*
X160700000Y-73272500I-150000J0D01*
G01*
X160400000Y-73272500D01*
G75*
G02*
X160250000Y-73122500I0J150000D01*
G01*
X160250000Y-72097500D01*
G75*
G02*
X160400000Y-71947500I150000J0D01*
G01*
G37*
G36*
G01*
X160400000Y-74222500D02*
X160700000Y-74222500D01*
G75*
G02*
X160850000Y-74372500I0J-150000D01*
G01*
X160850000Y-75397500D01*
G75*
G02*
X160700000Y-75547500I-150000J0D01*
G01*
X160400000Y-75547500D01*
G75*
G02*
X160250000Y-75397500I0J150000D01*
G01*
X160250000Y-74372500D01*
G75*
G02*
X160400000Y-74222500I150000J0D01*
G01*
G37*
G36*
G01*
X161350000Y-74222500D02*
X161650000Y-74222500D01*
G75*
G02*
X161800000Y-74372500I0J-150000D01*
G01*
X161800000Y-75397500D01*
G75*
G02*
X161650000Y-75547500I-150000J0D01*
G01*
X161350000Y-75547500D01*
G75*
G02*
X161200000Y-75397500I0J150000D01*
G01*
X161200000Y-74372500D01*
G75*
G02*
X161350000Y-74222500I150000J0D01*
G01*
G37*
G36*
G01*
X162300000Y-74222500D02*
X162600000Y-74222500D01*
G75*
G02*
X162750000Y-74372500I0J-150000D01*
G01*
X162750000Y-75397500D01*
G75*
G02*
X162600000Y-75547500I-150000J0D01*
G01*
X162300000Y-75547500D01*
G75*
G02*
X162150000Y-75397500I0J150000D01*
G01*
X162150000Y-74372500D01*
G75*
G02*
X162300000Y-74222500I150000J0D01*
G01*
G37*
G36*
G01*
X180050000Y-78900000D02*
X180950000Y-78900000D01*
G75*
G02*
X181200000Y-79150000I0J-250000D01*
G01*
X181200000Y-79850000D01*
G75*
G02*
X180950000Y-80100000I-250000J0D01*
G01*
X180050000Y-80100000D01*
G75*
G02*
X179800000Y-79850000I0J250000D01*
G01*
X179800000Y-79150000D01*
G75*
G02*
X180050000Y-78900000I250000J0D01*
G01*
G37*
G36*
G01*
X180050000Y-80900000D02*
X180950000Y-80900000D01*
G75*
G02*
X181200000Y-81150000I0J-250000D01*
G01*
X181200000Y-81850000D01*
G75*
G02*
X180950000Y-82100000I-250000J0D01*
G01*
X180050000Y-82100000D01*
G75*
G02*
X179800000Y-81850000I0J250000D01*
G01*
X179800000Y-81150000D01*
G75*
G02*
X180050000Y-80900000I250000J0D01*
G01*
G37*
G36*
G01*
X146525000Y-84875000D02*
X147475000Y-84875000D01*
G75*
G02*
X147725000Y-85125000I0J-250000D01*
G01*
X147725000Y-85800000D01*
G75*
G02*
X147475000Y-86050000I-250000J0D01*
G01*
X146525000Y-86050000D01*
G75*
G02*
X146275000Y-85800000I0J250000D01*
G01*
X146275000Y-85125000D01*
G75*
G02*
X146525000Y-84875000I250000J0D01*
G01*
G37*
G36*
G01*
X146525000Y-86950000D02*
X147475000Y-86950000D01*
G75*
G02*
X147725000Y-87200000I0J-250000D01*
G01*
X147725000Y-87875000D01*
G75*
G02*
X147475000Y-88125000I-250000J0D01*
G01*
X146525000Y-88125000D01*
G75*
G02*
X146275000Y-87875000I0J250000D01*
G01*
X146275000Y-87200000D01*
G75*
G02*
X146525000Y-86950000I250000J0D01*
G01*
G37*
G36*
G01*
X144475000Y-96125000D02*
X143525000Y-96125000D01*
G75*
G02*
X143275000Y-95875000I0J250000D01*
G01*
X143275000Y-95200000D01*
G75*
G02*
X143525000Y-94950000I250000J0D01*
G01*
X144475000Y-94950000D01*
G75*
G02*
X144725000Y-95200000I0J-250000D01*
G01*
X144725000Y-95875000D01*
G75*
G02*
X144475000Y-96125000I-250000J0D01*
G01*
G37*
G36*
G01*
X144475000Y-94050000D02*
X143525000Y-94050000D01*
G75*
G02*
X143275000Y-93800000I0J250000D01*
G01*
X143275000Y-93125000D01*
G75*
G02*
X143525000Y-92875000I250000J0D01*
G01*
X144475000Y-92875000D01*
G75*
G02*
X144725000Y-93125000I0J-250000D01*
G01*
X144725000Y-93800000D01*
G75*
G02*
X144475000Y-94050000I-250000J0D01*
G01*
G37*
G36*
G01*
X157050000Y-84900000D02*
X157950000Y-84900000D01*
G75*
G02*
X158200000Y-85150000I0J-250000D01*
G01*
X158200000Y-85850000D01*
G75*
G02*
X157950000Y-86100000I-250000J0D01*
G01*
X157050000Y-86100000D01*
G75*
G02*
X156800000Y-85850000I0J250000D01*
G01*
X156800000Y-85150000D01*
G75*
G02*
X157050000Y-84900000I250000J0D01*
G01*
G37*
G36*
G01*
X157050000Y-86900000D02*
X157950000Y-86900000D01*
G75*
G02*
X158200000Y-87150000I0J-250000D01*
G01*
X158200000Y-87850000D01*
G75*
G02*
X157950000Y-88100000I-250000J0D01*
G01*
X157050000Y-88100000D01*
G75*
G02*
X156800000Y-87850000I0J250000D01*
G01*
X156800000Y-87150000D01*
G75*
G02*
X157050000Y-86900000I250000J0D01*
G01*
G37*
G36*
G01*
X122550000Y-88900000D02*
X123450000Y-88900000D01*
G75*
G02*
X123700000Y-89150000I0J-250000D01*
G01*
X123700000Y-89850000D01*
G75*
G02*
X123450000Y-90100000I-250000J0D01*
G01*
X122550000Y-90100000D01*
G75*
G02*
X122300000Y-89850000I0J250000D01*
G01*
X122300000Y-89150000D01*
G75*
G02*
X122550000Y-88900000I250000J0D01*
G01*
G37*
G36*
G01*
X122550000Y-90900000D02*
X123450000Y-90900000D01*
G75*
G02*
X123700000Y-91150000I0J-250000D01*
G01*
X123700000Y-91850000D01*
G75*
G02*
X123450000Y-92100000I-250000J0D01*
G01*
X122550000Y-92100000D01*
G75*
G02*
X122300000Y-91850000I0J250000D01*
G01*
X122300000Y-91150000D01*
G75*
G02*
X122550000Y-90900000I250000J0D01*
G01*
G37*
D14*
X185215000Y-97440000D03*
X185215000Y-96170000D03*
X185215000Y-94900000D03*
X185215000Y-93630000D03*
D16*
X179665000Y-93630000D03*
X179665000Y-97440000D03*
X179665000Y-96170000D03*
X179665000Y-94900000D03*
D15*
X182000000Y-95535000D03*
D17*
X148150000Y-89550000D03*
X148150000Y-90500000D03*
X148150000Y-91450000D03*
X150850000Y-91450000D03*
X150850000Y-89550000D03*
G36*
G01*
X167800000Y-71947500D02*
X168100000Y-71947500D01*
G75*
G02*
X168250000Y-72097500I0J-150000D01*
G01*
X168250000Y-73122500D01*
G75*
G02*
X168100000Y-73272500I-150000J0D01*
G01*
X167800000Y-73272500D01*
G75*
G02*
X167650000Y-73122500I0J150000D01*
G01*
X167650000Y-72097500D01*
G75*
G02*
X167800000Y-71947500I150000J0D01*
G01*
G37*
G36*
G01*
X166850000Y-71947500D02*
X167150000Y-71947500D01*
G75*
G02*
X167300000Y-72097500I0J-150000D01*
G01*
X167300000Y-73122500D01*
G75*
G02*
X167150000Y-73272500I-150000J0D01*
G01*
X166850000Y-73272500D01*
G75*
G02*
X166700000Y-73122500I0J150000D01*
G01*
X166700000Y-72097500D01*
G75*
G02*
X166850000Y-71947500I150000J0D01*
G01*
G37*
G36*
G01*
X165900000Y-71947500D02*
X166200000Y-71947500D01*
G75*
G02*
X166350000Y-72097500I0J-150000D01*
G01*
X166350000Y-73122500D01*
G75*
G02*
X166200000Y-73272500I-150000J0D01*
G01*
X165900000Y-73272500D01*
G75*
G02*
X165750000Y-73122500I0J150000D01*
G01*
X165750000Y-72097500D01*
G75*
G02*
X165900000Y-71947500I150000J0D01*
G01*
G37*
G36*
G01*
X165900000Y-74222500D02*
X166200000Y-74222500D01*
G75*
G02*
X166350000Y-74372500I0J-150000D01*
G01*
X166350000Y-75397500D01*
G75*
G02*
X166200000Y-75547500I-150000J0D01*
G01*
X165900000Y-75547500D01*
G75*
G02*
X165750000Y-75397500I0J150000D01*
G01*
X165750000Y-74372500D01*
G75*
G02*
X165900000Y-74222500I150000J0D01*
G01*
G37*
G36*
G01*
X166850000Y-74222500D02*
X167150000Y-74222500D01*
G75*
G02*
X167300000Y-74372500I0J-150000D01*
G01*
X167300000Y-75397500D01*
G75*
G02*
X167150000Y-75547500I-150000J0D01*
G01*
X166850000Y-75547500D01*
G75*
G02*
X166700000Y-75397500I0J150000D01*
G01*
X166700000Y-74372500D01*
G75*
G02*
X166850000Y-74222500I150000J0D01*
G01*
G37*
G36*
G01*
X167800000Y-74222500D02*
X168100000Y-74222500D01*
G75*
G02*
X168250000Y-74372500I0J-150000D01*
G01*
X168250000Y-75397500D01*
G75*
G02*
X168100000Y-75547500I-150000J0D01*
G01*
X167800000Y-75547500D01*
G75*
G02*
X167650000Y-75397500I0J150000D01*
G01*
X167650000Y-74372500D01*
G75*
G02*
X167800000Y-74222500I150000J0D01*
G01*
G37*
G36*
G01*
X178550000Y-84900000D02*
X179450000Y-84900000D01*
G75*
G02*
X179700000Y-85150000I0J-250000D01*
G01*
X179700000Y-85850000D01*
G75*
G02*
X179450000Y-86100000I-250000J0D01*
G01*
X178550000Y-86100000D01*
G75*
G02*
X178300000Y-85850000I0J250000D01*
G01*
X178300000Y-85150000D01*
G75*
G02*
X178550000Y-84900000I250000J0D01*
G01*
G37*
G36*
G01*
X178550000Y-86900000D02*
X179450000Y-86900000D01*
G75*
G02*
X179700000Y-87150000I0J-250000D01*
G01*
X179700000Y-87850000D01*
G75*
G02*
X179450000Y-88100000I-250000J0D01*
G01*
X178550000Y-88100000D01*
G75*
G02*
X178300000Y-87850000I0J250000D01*
G01*
X178300000Y-87150000D01*
G75*
G02*
X178550000Y-86900000I250000J0D01*
G01*
G37*
G36*
G01*
X155450000Y-92100000D02*
X154550000Y-92100000D01*
G75*
G02*
X154300000Y-91850000I0J250000D01*
G01*
X154300000Y-91150000D01*
G75*
G02*
X154550000Y-90900000I250000J0D01*
G01*
X155450000Y-90900000D01*
G75*
G02*
X155700000Y-91150000I0J-250000D01*
G01*
X155700000Y-91850000D01*
G75*
G02*
X155450000Y-92100000I-250000J0D01*
G01*
G37*
G36*
G01*
X155450000Y-90100000D02*
X154550000Y-90100000D01*
G75*
G02*
X154300000Y-89850000I0J250000D01*
G01*
X154300000Y-89150000D01*
G75*
G02*
X154550000Y-88900000I250000J0D01*
G01*
X155450000Y-88900000D01*
G75*
G02*
X155700000Y-89150000I0J-250000D01*
G01*
X155700000Y-89850000D01*
G75*
G02*
X155450000Y-90100000I-250000J0D01*
G01*
G37*
G36*
G01*
X156800000Y-71947500D02*
X157100000Y-71947500D01*
G75*
G02*
X157250000Y-72097500I0J-150000D01*
G01*
X157250000Y-73122500D01*
G75*
G02*
X157100000Y-73272500I-150000J0D01*
G01*
X156800000Y-73272500D01*
G75*
G02*
X156650000Y-73122500I0J150000D01*
G01*
X156650000Y-72097500D01*
G75*
G02*
X156800000Y-71947500I150000J0D01*
G01*
G37*
G36*
G01*
X155850000Y-71947500D02*
X156150000Y-71947500D01*
G75*
G02*
X156300000Y-72097500I0J-150000D01*
G01*
X156300000Y-73122500D01*
G75*
G02*
X156150000Y-73272500I-150000J0D01*
G01*
X155850000Y-73272500D01*
G75*
G02*
X155700000Y-73122500I0J150000D01*
G01*
X155700000Y-72097500D01*
G75*
G02*
X155850000Y-71947500I150000J0D01*
G01*
G37*
G36*
G01*
X154900000Y-71947500D02*
X155200000Y-71947500D01*
G75*
G02*
X155350000Y-72097500I0J-150000D01*
G01*
X155350000Y-73122500D01*
G75*
G02*
X155200000Y-73272500I-150000J0D01*
G01*
X154900000Y-73272500D01*
G75*
G02*
X154750000Y-73122500I0J150000D01*
G01*
X154750000Y-72097500D01*
G75*
G02*
X154900000Y-71947500I150000J0D01*
G01*
G37*
G36*
G01*
X154900000Y-74222500D02*
X155200000Y-74222500D01*
G75*
G02*
X155350000Y-74372500I0J-150000D01*
G01*
X155350000Y-75397500D01*
G75*
G02*
X155200000Y-75547500I-150000J0D01*
G01*
X154900000Y-75547500D01*
G75*
G02*
X154750000Y-75397500I0J150000D01*
G01*
X154750000Y-74372500D01*
G75*
G02*
X154900000Y-74222500I150000J0D01*
G01*
G37*
G36*
G01*
X155850000Y-74222500D02*
X156150000Y-74222500D01*
G75*
G02*
X156300000Y-74372500I0J-150000D01*
G01*
X156300000Y-75397500D01*
G75*
G02*
X156150000Y-75547500I-150000J0D01*
G01*
X155850000Y-75547500D01*
G75*
G02*
X155700000Y-75397500I0J150000D01*
G01*
X155700000Y-74372500D01*
G75*
G02*
X155850000Y-74222500I150000J0D01*
G01*
G37*
G36*
G01*
X156800000Y-74222500D02*
X157100000Y-74222500D01*
G75*
G02*
X157250000Y-74372500I0J-150000D01*
G01*
X157250000Y-75397500D01*
G75*
G02*
X157100000Y-75547500I-150000J0D01*
G01*
X156800000Y-75547500D01*
G75*
G02*
X156650000Y-75397500I0J150000D01*
G01*
X156650000Y-74372500D01*
G75*
G02*
X156800000Y-74222500I150000J0D01*
G01*
G37*
D19*
X146600000Y-75000000D03*
X151400000Y-75000000D03*
X147302944Y-76697056D03*
D20*
X149000000Y-75000000D03*
D19*
X150697056Y-73302944D03*
X147302944Y-73302944D03*
X149000000Y-77400000D03*
X149000000Y-72600000D03*
X150697056Y-76697056D03*
D11*
X140906000Y-102000000D03*
X171000000Y-102000000D03*
G36*
G01*
X183475000Y-88125000D02*
X182525000Y-88125000D01*
G75*
G02*
X182275000Y-87875000I0J250000D01*
G01*
X182275000Y-87200000D01*
G75*
G02*
X182525000Y-86950000I250000J0D01*
G01*
X183475000Y-86950000D01*
G75*
G02*
X183725000Y-87200000I0J-250000D01*
G01*
X183725000Y-87875000D01*
G75*
G02*
X183475000Y-88125000I-250000J0D01*
G01*
G37*
G36*
G01*
X183475000Y-86050000D02*
X182525000Y-86050000D01*
G75*
G02*
X182275000Y-85800000I0J250000D01*
G01*
X182275000Y-85125000D01*
G75*
G02*
X182525000Y-84875000I250000J0D01*
G01*
X183475000Y-84875000D01*
G75*
G02*
X183725000Y-85125000I0J-250000D01*
G01*
X183725000Y-85800000D01*
G75*
G02*
X183475000Y-86050000I-250000J0D01*
G01*
G37*
G36*
G01*
X145525000Y-88875000D02*
X146475000Y-88875000D01*
G75*
G02*
X146725000Y-89125000I0J-250000D01*
G01*
X146725000Y-89800000D01*
G75*
G02*
X146475000Y-90050000I-250000J0D01*
G01*
X145525000Y-90050000D01*
G75*
G02*
X145275000Y-89800000I0J250000D01*
G01*
X145275000Y-89125000D01*
G75*
G02*
X145525000Y-88875000I250000J0D01*
G01*
G37*
G36*
G01*
X145525000Y-90950000D02*
X146475000Y-90950000D01*
G75*
G02*
X146725000Y-91200000I0J-250000D01*
G01*
X146725000Y-91875000D01*
G75*
G02*
X146475000Y-92125000I-250000J0D01*
G01*
X145525000Y-92125000D01*
G75*
G02*
X145275000Y-91875000I0J250000D01*
G01*
X145275000Y-91200000D01*
G75*
G02*
X145525000Y-90950000I250000J0D01*
G01*
G37*
D12*
X160000000Y-108250000D03*
G36*
X162550000Y-111475000D02*
G01*
X162533898Y-111632160D01*
X162477389Y-111802529D01*
X162383202Y-111955329D01*
X162256390Y-112082362D01*
X162103755Y-112176816D01*
X161933484Y-112233622D01*
X161775000Y-112250000D01*
X160070000Y-112250000D01*
X159450000Y-111630000D01*
X159450000Y-108525000D01*
X159466102Y-108367840D01*
X159522611Y-108197471D01*
X159616798Y-108044671D01*
X159743610Y-107917638D01*
X159896245Y-107823184D01*
X160066516Y-107766378D01*
X160225000Y-107750000D01*
X161775000Y-107750000D01*
X161932160Y-107766102D01*
X162102529Y-107822611D01*
X162255329Y-107916798D01*
X162382362Y-108043610D01*
X162476816Y-108196245D01*
X162533622Y-108366516D01*
X162550000Y-108525000D01*
X162550000Y-111475000D01*
G37*
X160000000Y-111750000D03*
X162000000Y-108250000D03*
X162000000Y-111750000D03*
X165500000Y-108250000D03*
X163500000Y-108250000D03*
G36*
G01*
X166050000Y-108525000D02*
X166050000Y-111475000D01*
G75*
G02*
X165275000Y-112250000I-775000J0D01*
G01*
X163725000Y-112250000D01*
G75*
G02*
X162950000Y-111475000I0J775000D01*
G01*
X162950000Y-108525000D01*
G75*
G02*
X163725000Y-107750000I775000J0D01*
G01*
X165275000Y-107750000D01*
G75*
G02*
X166050000Y-108525000I0J-775000D01*
G01*
G37*
X163500000Y-111750000D03*
X165500000Y-111750000D03*
X169000000Y-111750000D03*
G36*
G01*
X169550000Y-108525000D02*
X169550000Y-111475000D01*
G75*
G02*
X168775000Y-112250000I-775000J0D01*
G01*
X167225000Y-112250000D01*
G75*
G02*
X166450000Y-111475000I0J775000D01*
G01*
X166450000Y-108525000D01*
G75*
G02*
X167225000Y-107750000I775000J0D01*
G01*
X168775000Y-107750000D01*
G75*
G02*
X169550000Y-108525000I0J-775000D01*
G01*
G37*
X166984000Y-111750000D03*
X169016000Y-108250000D03*
X166984000Y-108250000D03*
G36*
G01*
X176525000Y-84875000D02*
X177475000Y-84875000D01*
G75*
G02*
X177725000Y-85125000I0J-250000D01*
G01*
X177725000Y-85800000D01*
G75*
G02*
X177475000Y-86050000I-250000J0D01*
G01*
X176525000Y-86050000D01*
G75*
G02*
X176275000Y-85800000I0J250000D01*
G01*
X176275000Y-85125000D01*
G75*
G02*
X176525000Y-84875000I250000J0D01*
G01*
G37*
G36*
G01*
X176525000Y-86950000D02*
X177475000Y-86950000D01*
G75*
G02*
X177725000Y-87200000I0J-250000D01*
G01*
X177725000Y-87875000D01*
G75*
G02*
X177475000Y-88125000I-250000J0D01*
G01*
X176525000Y-88125000D01*
G75*
G02*
X176275000Y-87875000I0J250000D01*
G01*
X176275000Y-87200000D01*
G75*
G02*
X176525000Y-86950000I250000J0D01*
G01*
G37*
D17*
X178150000Y-89550000D03*
X178150000Y-90500000D03*
X178150000Y-91450000D03*
X180850000Y-91450000D03*
X180850000Y-89550000D03*
D14*
X125215000Y-97440000D03*
X125215000Y-96170000D03*
X125215000Y-94900000D03*
X125215000Y-93630000D03*
D16*
X119665000Y-96170000D03*
X119665000Y-94900000D03*
X119665000Y-93630000D03*
D15*
X122000000Y-95535000D03*
D16*
X119665000Y-97440000D03*
D13*
X115100000Y-97600000D03*
X117900000Y-97600000D03*
G36*
G01*
X144450000Y-92100000D02*
X143550000Y-92100000D01*
G75*
G02*
X143300000Y-91850000I0J250000D01*
G01*
X143300000Y-91150000D01*
G75*
G02*
X143550000Y-90900000I250000J0D01*
G01*
X144450000Y-90900000D01*
G75*
G02*
X144700000Y-91150000I0J-250000D01*
G01*
X144700000Y-91850000D01*
G75*
G02*
X144450000Y-92100000I-250000J0D01*
G01*
G37*
G36*
G01*
X144450000Y-90100000D02*
X143550000Y-90100000D01*
G75*
G02*
X143300000Y-89850000I0J250000D01*
G01*
X143300000Y-89150000D01*
G75*
G02*
X143550000Y-88900000I250000J0D01*
G01*
X144450000Y-88900000D01*
G75*
G02*
X144700000Y-89150000I0J-250000D01*
G01*
X144700000Y-89850000D01*
G75*
G02*
X144450000Y-90100000I-250000J0D01*
G01*
G37*
D17*
X163150000Y-89550000D03*
X163150000Y-90500000D03*
X163150000Y-91450000D03*
X165850000Y-91450000D03*
X165850000Y-89550000D03*
G36*
G01*
X154525000Y-76622500D02*
X155475000Y-76622500D01*
G75*
G02*
X155725000Y-76872500I0J-250000D01*
G01*
X155725000Y-77547500D01*
G75*
G02*
X155475000Y-77797500I-250000J0D01*
G01*
X154525000Y-77797500D01*
G75*
G02*
X154275000Y-77547500I0J250000D01*
G01*
X154275000Y-76872500D01*
G75*
G02*
X154525000Y-76622500I250000J0D01*
G01*
G37*
G36*
G01*
X154525000Y-78697500D02*
X155475000Y-78697500D01*
G75*
G02*
X155725000Y-78947500I0J-250000D01*
G01*
X155725000Y-79622500D01*
G75*
G02*
X155475000Y-79872500I-250000J0D01*
G01*
X154525000Y-79872500D01*
G75*
G02*
X154275000Y-79622500I0J250000D01*
G01*
X154275000Y-78947500D01*
G75*
G02*
X154525000Y-78697500I250000J0D01*
G01*
G37*
G36*
G01*
X174450000Y-92100000D02*
X173550000Y-92100000D01*
G75*
G02*
X173300000Y-91850000I0J250000D01*
G01*
X173300000Y-91150000D01*
G75*
G02*
X173550000Y-90900000I250000J0D01*
G01*
X174450000Y-90900000D01*
G75*
G02*
X174700000Y-91150000I0J-250000D01*
G01*
X174700000Y-91850000D01*
G75*
G02*
X174450000Y-92100000I-250000J0D01*
G01*
G37*
G36*
G01*
X174450000Y-90100000D02*
X173550000Y-90100000D01*
G75*
G02*
X173300000Y-89850000I0J250000D01*
G01*
X173300000Y-89150000D01*
G75*
G02*
X173550000Y-88900000I250000J0D01*
G01*
X174450000Y-88900000D01*
G75*
G02*
X174700000Y-89150000I0J-250000D01*
G01*
X174700000Y-89850000D01*
G75*
G02*
X174450000Y-90100000I-250000J0D01*
G01*
G37*
G36*
G01*
X150775000Y-78625000D02*
X151725000Y-78625000D01*
G75*
G02*
X151975000Y-78875000I0J-250000D01*
G01*
X151975000Y-79550000D01*
G75*
G02*
X151725000Y-79800000I-250000J0D01*
G01*
X150775000Y-79800000D01*
G75*
G02*
X150525000Y-79550000I0J250000D01*
G01*
X150525000Y-78875000D01*
G75*
G02*
X150775000Y-78625000I250000J0D01*
G01*
G37*
G36*
G01*
X150775000Y-80700000D02*
X151725000Y-80700000D01*
G75*
G02*
X151975000Y-80950000I0J-250000D01*
G01*
X151975000Y-81625000D01*
G75*
G02*
X151725000Y-81875000I-250000J0D01*
G01*
X150775000Y-81875000D01*
G75*
G02*
X150525000Y-81625000I0J250000D01*
G01*
X150525000Y-80950000D01*
G75*
G02*
X150775000Y-80700000I250000J0D01*
G01*
G37*
G36*
G01*
X123475000Y-88125000D02*
X122525000Y-88125000D01*
G75*
G02*
X122275000Y-87875000I0J250000D01*
G01*
X122275000Y-87200000D01*
G75*
G02*
X122525000Y-86950000I250000J0D01*
G01*
X123475000Y-86950000D01*
G75*
G02*
X123725000Y-87200000I0J-250000D01*
G01*
X123725000Y-87875000D01*
G75*
G02*
X123475000Y-88125000I-250000J0D01*
G01*
G37*
G36*
G01*
X123475000Y-86050000D02*
X122525000Y-86050000D01*
G75*
G02*
X122275000Y-85800000I0J250000D01*
G01*
X122275000Y-85125000D01*
G75*
G02*
X122525000Y-84875000I250000J0D01*
G01*
X123475000Y-84875000D01*
G75*
G02*
X123725000Y-85125000I0J-250000D01*
G01*
X123725000Y-85800000D01*
G75*
G02*
X123475000Y-86050000I-250000J0D01*
G01*
G37*
D18*
X173250000Y-87500000D03*
X173750000Y-87500000D03*
X174250000Y-87500000D03*
X174250000Y-86000000D03*
X173750000Y-86000000D03*
X173250000Y-86000000D03*
D19*
X149000000Y-127400000D03*
X149000000Y-122600000D03*
X150697056Y-126697056D03*
X147302944Y-123302944D03*
X146600000Y-125000000D03*
D20*
X149000000Y-125000000D03*
D19*
X150697056Y-123302944D03*
X151400000Y-125000000D03*
X147302944Y-126697056D03*
X179000000Y-122600000D03*
D20*
X179000000Y-125000000D03*
D19*
X177302944Y-123302944D03*
X180697056Y-126697056D03*
X181400000Y-125000000D03*
X180697056Y-123302944D03*
X179000000Y-127400000D03*
X177302944Y-126697056D03*
X176600000Y-125000000D03*
D12*
X137516000Y-104278000D03*
X138278000Y-103516000D03*
X135484000Y-104278000D03*
X134722000Y-101484000D03*
X137516000Y-100722000D03*
X135484000Y-100722000D03*
X138278000Y-101484000D03*
X134722000Y-103516000D03*
X136500000Y-100468000D03*
G36*
G01*
X138650000Y-101075000D02*
X138650000Y-103925000D01*
G75*
G02*
X137575000Y-105000000I-1075000J0D01*
G01*
X135425000Y-105000000D01*
G75*
G02*
X134350000Y-103925000I0J1075000D01*
G01*
X134350000Y-101075000D01*
G75*
G02*
X135425000Y-100000000I1075000J0D01*
G01*
X137575000Y-100000000D01*
G75*
G02*
X138650000Y-101075000I0J-1075000D01*
G01*
G37*
X136500000Y-104532000D03*
X131500000Y-100468000D03*
X131500000Y-104532000D03*
G36*
G01*
X133650000Y-101075000D02*
X133650000Y-103925000D01*
G75*
G02*
X132575000Y-105000000I-1075000J0D01*
G01*
X130425000Y-105000000D01*
G75*
G02*
X129350000Y-103925000I0J1075000D01*
G01*
X129350000Y-101075000D01*
G75*
G02*
X130425000Y-100000000I1075000J0D01*
G01*
X132575000Y-100000000D01*
G75*
G02*
X133650000Y-101075000I0J-1075000D01*
G01*
G37*
X133278000Y-101484000D03*
X130484000Y-100722000D03*
X133278000Y-103516000D03*
X130484000Y-104278000D03*
X129722000Y-101484000D03*
X132516000Y-100722000D03*
X129722000Y-103516000D03*
X132516000Y-104278000D03*
X180484000Y-119278000D03*
X183278000Y-118516000D03*
X182516000Y-119278000D03*
X183278000Y-116484000D03*
X180484000Y-115722000D03*
X181500000Y-119532000D03*
X179722000Y-116484000D03*
X182516000Y-115722000D03*
X179722000Y-118516000D03*
G36*
G01*
X183650000Y-116075000D02*
X183650000Y-118925000D01*
G75*
G02*
X182575000Y-120000000I-1075000J0D01*
G01*
X180425000Y-120000000D01*
G75*
G02*
X179350000Y-118925000I0J1075000D01*
G01*
X179350000Y-116075000D01*
G75*
G02*
X180425000Y-115000000I1075000J0D01*
G01*
X182575000Y-115000000D01*
G75*
G02*
X183650000Y-116075000I0J-1075000D01*
G01*
G37*
X181500000Y-115468000D03*
X178278000Y-118516000D03*
X177516000Y-119278000D03*
X176500000Y-115468000D03*
X175484000Y-115722000D03*
X176500000Y-119532000D03*
X174722000Y-116484000D03*
X174722000Y-118516000D03*
X175484000Y-119278000D03*
X177516000Y-115722000D03*
G36*
G01*
X178650000Y-116075000D02*
X178650000Y-118925000D01*
G75*
G02*
X177575000Y-120000000I-1075000J0D01*
G01*
X175425000Y-120000000D01*
G75*
G02*
X174350000Y-118925000I0J1075000D01*
G01*
X174350000Y-116075000D01*
G75*
G02*
X175425000Y-115000000I1075000J0D01*
G01*
X177575000Y-115000000D01*
G75*
G02*
X178650000Y-116075000I0J-1075000D01*
G01*
G37*
X178278000Y-116484000D03*
X164722000Y-103516000D03*
X164722000Y-101484000D03*
X168278000Y-101484000D03*
X166500000Y-104532000D03*
X168278000Y-103516000D03*
X167516000Y-104278000D03*
X165484000Y-100722000D03*
G36*
G01*
X168650000Y-101075000D02*
X168650000Y-103925000D01*
G75*
G02*
X167575000Y-105000000I-1075000J0D01*
G01*
X165425000Y-105000000D01*
G75*
G02*
X164350000Y-103925000I0J1075000D01*
G01*
X164350000Y-101075000D01*
G75*
G02*
X165425000Y-100000000I1075000J0D01*
G01*
X167575000Y-100000000D01*
G75*
G02*
X168650000Y-101075000I0J-1075000D01*
G01*
G37*
X167516000Y-100722000D03*
X166500000Y-100468000D03*
X165484000Y-104278000D03*
X162516000Y-100722000D03*
X159722000Y-101484000D03*
X159722000Y-103516000D03*
X163278000Y-103516000D03*
G36*
G01*
X163650000Y-101075000D02*
X163650000Y-103925000D01*
G75*
G02*
X162575000Y-105000000I-1075000J0D01*
G01*
X160425000Y-105000000D01*
G75*
G02*
X159350000Y-103925000I0J1075000D01*
G01*
X159350000Y-101075000D01*
G75*
G02*
X160425000Y-100000000I1075000J0D01*
G01*
X162575000Y-100000000D01*
G75*
G02*
X163650000Y-101075000I0J-1075000D01*
G01*
G37*
X160484000Y-104278000D03*
X161500000Y-104532000D03*
X163278000Y-101484000D03*
X161500000Y-100468000D03*
X162516000Y-104278000D03*
X160484000Y-100722000D03*
X179722000Y-101484000D03*
X180484000Y-104278000D03*
X181500000Y-100468000D03*
X180484000Y-100722000D03*
X182516000Y-104278000D03*
X181500000Y-104532000D03*
X182516000Y-100722000D03*
X183278000Y-103516000D03*
X179722000Y-103516000D03*
G36*
G01*
X183650000Y-101075000D02*
X183650000Y-103925000D01*
G75*
G02*
X182575000Y-105000000I-1075000J0D01*
G01*
X180425000Y-105000000D01*
G75*
G02*
X179350000Y-103925000I0J1075000D01*
G01*
X179350000Y-101075000D01*
G75*
G02*
X180425000Y-100000000I1075000J0D01*
G01*
X182575000Y-100000000D01*
G75*
G02*
X183650000Y-101075000I0J-1075000D01*
G01*
G37*
X183278000Y-101484000D03*
X174722000Y-103516000D03*
X174722000Y-101484000D03*
X177516000Y-100722000D03*
X175484000Y-100722000D03*
X176500000Y-100468000D03*
X178278000Y-101484000D03*
X177516000Y-104278000D03*
G36*
G01*
X178650000Y-101075000D02*
X178650000Y-103925000D01*
G75*
G02*
X177575000Y-105000000I-1075000J0D01*
G01*
X175425000Y-105000000D01*
G75*
G02*
X174350000Y-103925000I0J1075000D01*
G01*
X174350000Y-101075000D01*
G75*
G02*
X175425000Y-100000000I1075000J0D01*
G01*
X177575000Y-100000000D01*
G75*
G02*
X178650000Y-101075000I0J-1075000D01*
G01*
G37*
X175484000Y-104278000D03*
X178278000Y-103516000D03*
X176500000Y-104532000D03*
X134722000Y-116484000D03*
X136500000Y-119532000D03*
X135484000Y-115722000D03*
X137516000Y-115722000D03*
G36*
G01*
X138650000Y-116075000D02*
X138650000Y-118925000D01*
G75*
G02*
X137575000Y-120000000I-1075000J0D01*
G01*
X135425000Y-120000000D01*
G75*
G02*
X134350000Y-118925000I0J1075000D01*
G01*
X134350000Y-116075000D01*
G75*
G02*
X135425000Y-115000000I1075000J0D01*
G01*
X137575000Y-115000000D01*
G75*
G02*
X138650000Y-116075000I0J-1075000D01*
G01*
G37*
X138278000Y-118516000D03*
X138278000Y-116484000D03*
X135484000Y-119278000D03*
X136500000Y-115468000D03*
X137516000Y-119278000D03*
X134722000Y-118516000D03*
X129722000Y-116484000D03*
X133278000Y-116484000D03*
X132516000Y-119278000D03*
X133278000Y-118516000D03*
X130484000Y-115722000D03*
X130484000Y-119278000D03*
X129722000Y-118516000D03*
G36*
G01*
X133650000Y-116075000D02*
X133650000Y-118925000D01*
G75*
G02*
X132575000Y-120000000I-1075000J0D01*
G01*
X130425000Y-120000000D01*
G75*
G02*
X129350000Y-118925000I0J1075000D01*
G01*
X129350000Y-116075000D01*
G75*
G02*
X130425000Y-115000000I1075000J0D01*
G01*
X132575000Y-115000000D01*
G75*
G02*
X133650000Y-116075000I0J-1075000D01*
G01*
G37*
X131500000Y-119532000D03*
X132516000Y-115722000D03*
X131500000Y-115468000D03*
G36*
G01*
X123650000Y-116075000D02*
X123650000Y-118925000D01*
G75*
G02*
X122575000Y-120000000I-1075000J0D01*
G01*
X120425000Y-120000000D01*
G75*
G02*
X119350000Y-118925000I0J1075000D01*
G01*
X119350000Y-116075000D01*
G75*
G02*
X120425000Y-115000000I1075000J0D01*
G01*
X122575000Y-115000000D01*
G75*
G02*
X123650000Y-116075000I0J-1075000D01*
G01*
G37*
X121500000Y-119532000D03*
X123278000Y-116484000D03*
X122516000Y-119278000D03*
X122516000Y-115722000D03*
X123278000Y-118516000D03*
X119722000Y-116484000D03*
X120484000Y-115722000D03*
X119722000Y-118516000D03*
X120484000Y-119278000D03*
X121500000Y-115468000D03*
X117516000Y-119278000D03*
X116500000Y-119532000D03*
X114722000Y-118516000D03*
G36*
G01*
X118650000Y-116075000D02*
X118650000Y-118925000D01*
G75*
G02*
X117575000Y-120000000I-1075000J0D01*
G01*
X115425000Y-120000000D01*
G75*
G02*
X114350000Y-118925000I0J1075000D01*
G01*
X114350000Y-116075000D01*
G75*
G02*
X115425000Y-115000000I1075000J0D01*
G01*
X117575000Y-115000000D01*
G75*
G02*
X118650000Y-116075000I0J-1075000D01*
G01*
G37*
X118278000Y-118516000D03*
X114722000Y-116484000D03*
X115484000Y-119278000D03*
X118278000Y-116484000D03*
X116500000Y-115468000D03*
X117516000Y-115722000D03*
X115484000Y-115722000D03*
X121500000Y-100468000D03*
X121500000Y-104532000D03*
X123278000Y-103516000D03*
X120484000Y-100722000D03*
X122516000Y-100722000D03*
X120484000Y-104278000D03*
X122516000Y-104278000D03*
X123278000Y-101484000D03*
G36*
G01*
X123650000Y-101075000D02*
X123650000Y-103925000D01*
G75*
G02*
X122575000Y-105000000I-1075000J0D01*
G01*
X120425000Y-105000000D01*
G75*
G02*
X119350000Y-103925000I0J1075000D01*
G01*
X119350000Y-101075000D01*
G75*
G02*
X120425000Y-100000000I1075000J0D01*
G01*
X122575000Y-100000000D01*
G75*
G02*
X123650000Y-101075000I0J-1075000D01*
G01*
G37*
X119722000Y-101484000D03*
X119722000Y-103516000D03*
X118278000Y-103516000D03*
X117516000Y-104278000D03*
X114722000Y-103516000D03*
X116500000Y-100468000D03*
X116500000Y-104532000D03*
X114722000Y-101484000D03*
X115484000Y-100722000D03*
X118278000Y-101484000D03*
G36*
G01*
X118650000Y-101075000D02*
X118650000Y-103925000D01*
G75*
G02*
X117575000Y-105000000I-1075000J0D01*
G01*
X115425000Y-105000000D01*
G75*
G02*
X114350000Y-103925000I0J1075000D01*
G01*
X114350000Y-101075000D01*
G75*
G02*
X115425000Y-100000000I1075000J0D01*
G01*
X117575000Y-100000000D01*
G75*
G02*
X118650000Y-101075000I0J-1075000D01*
G01*
G37*
X117516000Y-100722000D03*
X115484000Y-104278000D03*
X153278000Y-118516000D03*
G36*
G01*
X153650000Y-116075000D02*
X153650000Y-118925000D01*
G75*
G02*
X152575000Y-120000000I-1075000J0D01*
G01*
X150425000Y-120000000D01*
G75*
G02*
X149350000Y-118925000I0J1075000D01*
G01*
X149350000Y-116075000D01*
G75*
G02*
X150425000Y-115000000I1075000J0D01*
G01*
X152575000Y-115000000D01*
G75*
G02*
X153650000Y-116075000I0J-1075000D01*
G01*
G37*
X152516000Y-115722000D03*
X151500000Y-115468000D03*
X153278000Y-116484000D03*
X149722000Y-118516000D03*
X149722000Y-116484000D03*
X151500000Y-119532000D03*
X152516000Y-119278000D03*
X150484000Y-119278000D03*
X150484000Y-115722000D03*
X146500000Y-115468000D03*
X144722000Y-116484000D03*
X145484000Y-119278000D03*
X147516000Y-115722000D03*
X147516000Y-119278000D03*
X146500000Y-119532000D03*
X148278000Y-116484000D03*
X148278000Y-118516000D03*
X145484000Y-115722000D03*
X144722000Y-118516000D03*
G36*
G01*
X148650000Y-116075000D02*
X148650000Y-118925000D01*
G75*
G02*
X147575000Y-120000000I-1075000J0D01*
G01*
X145425000Y-120000000D01*
G75*
G02*
X144350000Y-118925000I0J1075000D01*
G01*
X144350000Y-116075000D01*
G75*
G02*
X145425000Y-115000000I1075000J0D01*
G01*
X147575000Y-115000000D01*
G75*
G02*
X148650000Y-116075000I0J-1075000D01*
G01*
G37*
X168278000Y-116484000D03*
X166500000Y-119532000D03*
X165484000Y-119278000D03*
X168278000Y-118516000D03*
X164722000Y-116484000D03*
X167516000Y-119278000D03*
G36*
G01*
X168650000Y-116075000D02*
X168650000Y-118925000D01*
G75*
G02*
X167575000Y-120000000I-1075000J0D01*
G01*
X165425000Y-120000000D01*
G75*
G02*
X164350000Y-118925000I0J1075000D01*
G01*
X164350000Y-116075000D01*
G75*
G02*
X165425000Y-115000000I1075000J0D01*
G01*
X167575000Y-115000000D01*
G75*
G02*
X168650000Y-116075000I0J-1075000D01*
G01*
G37*
X167516000Y-115722000D03*
X166500000Y-115468000D03*
X165484000Y-115722000D03*
X164722000Y-118516000D03*
X163278000Y-116484000D03*
X161500000Y-115468000D03*
G36*
G01*
X163650000Y-116075000D02*
X163650000Y-118925000D01*
G75*
G02*
X162575000Y-120000000I-1075000J0D01*
G01*
X160425000Y-120000000D01*
G75*
G02*
X159350000Y-118925000I0J1075000D01*
G01*
X159350000Y-116075000D01*
G75*
G02*
X160425000Y-115000000I1075000J0D01*
G01*
X162575000Y-115000000D01*
G75*
G02*
X163650000Y-116075000I0J-1075000D01*
G01*
G37*
X159722000Y-118516000D03*
X162516000Y-115722000D03*
X160484000Y-115722000D03*
X162516000Y-119278000D03*
X163278000Y-118516000D03*
X161500000Y-119532000D03*
X159722000Y-116484000D03*
X160484000Y-119278000D03*
X153278000Y-103516000D03*
X150484000Y-104278000D03*
X149722000Y-101484000D03*
X151500000Y-104532000D03*
X150484000Y-100722000D03*
X153278000Y-101484000D03*
X149722000Y-103516000D03*
X152516000Y-104278000D03*
X152516000Y-100722000D03*
G36*
G01*
X153650000Y-101075000D02*
X153650000Y-103925000D01*
G75*
G02*
X152575000Y-105000000I-1075000J0D01*
G01*
X150425000Y-105000000D01*
G75*
G02*
X149350000Y-103925000I0J1075000D01*
G01*
X149350000Y-101075000D01*
G75*
G02*
X150425000Y-100000000I1075000J0D01*
G01*
X152575000Y-100000000D01*
G75*
G02*
X153650000Y-101075000I0J-1075000D01*
G01*
G37*
X151500000Y-100468000D03*
X146500000Y-104532000D03*
X145484000Y-104278000D03*
X144722000Y-101484000D03*
X147516000Y-104278000D03*
X147516000Y-100722000D03*
X144722000Y-103516000D03*
X148278000Y-101484000D03*
X146500000Y-100468000D03*
X148278000Y-103516000D03*
X145484000Y-100722000D03*
G36*
G01*
X148650000Y-101075000D02*
X148650000Y-103925000D01*
G75*
G02*
X147575000Y-105000000I-1075000J0D01*
G01*
X145425000Y-105000000D01*
G75*
G02*
X144350000Y-103925000I0J1075000D01*
G01*
X144350000Y-101075000D01*
G75*
G02*
X145425000Y-100000000I1075000J0D01*
G01*
X147575000Y-100000000D01*
G75*
G02*
X148650000Y-101075000I0J-1075000D01*
G01*
G37*
M02*
