M48
; FORMAT={-:-/ absolute / metric / decimal}
; #@! TF.GenerationSoftware,Kicad,Pcbnew,6.0.10+dfsg-1~bpo11+1
; #@! TF.FileFunction,Plated,1,2,PTH
FMAT,2
METRIC
; #@! TA.AperFunction,Plated,PTH,ViaDrill
T1C0.300
; #@! TA.AperFunction,Plated,PTH,ComponentDrill
T2C0.500
; #@! TA.AperFunction,Plated,PTH,ComponentDrill
T3C1.000
; #@! TA.AperFunction,Plated,PTH,ComponentDrill
T4C1.600
; #@! TA.AperFunction,Plated,PTH,ComponentDrill
T5C2.700
; #@! TA.AperFunction,Plated,PTH,ComponentDrill
T6C3.200
%
G90
G05
T1
X112.5Y-90.0
X112.5Y-91.0
X112.5Y-92.0
X112.5Y-93.0
X112.5Y-94.0
X112.5Y-95.0
X112.5Y-96.0
X112.5Y-97.0
X112.5Y-98.0
X112.5Y-99.0
X112.5Y-100.0
X112.55Y-60.629
X112.55Y-65.652
X112.55Y-70.675
X112.55Y-75.698
X112.55Y-80.722
X112.55Y-85.745
X113.5Y-90.0
X113.5Y-91.0
X113.5Y-92.0
X113.5Y-93.0
X113.5Y-94.0
X113.5Y-95.0
X113.5Y-96.0
X113.5Y-97.0
X113.5Y-98.0
X113.5Y-99.0
X113.5Y-100.0
X113.5Y-101.0
X114.5Y-90.0
X114.5Y-98.0
X114.5Y-99.0
X114.5Y-100.0
X114.756Y-56.46
X115.0Y-95.0
X115.0Y-96.0
X115.5Y-90.0
X115.5Y-99.0
X115.969Y-87.35
X116.0Y-95.0
X116.0Y-96.0
X116.0Y-97.0
X116.5Y-90.0
X116.715Y-82.069
X117.0Y-95.0
X117.0Y-96.0
X117.0Y-97.0
X117.0Y-98.0
X117.5Y-90.0
X118.0Y-81.5
X118.0Y-95.0
X118.0Y-96.0
X118.0Y-97.0
X118.0Y-98.0
X118.0Y-99.0
X118.83Y-78.661
X119.0Y-94.0
X119.0Y-95.0
X119.0Y-96.0
X119.0Y-97.0
X119.0Y-98.0
X119.0Y-99.0
X119.469Y-85.354
X119.5Y-89.2
X119.716Y-56.05
X120.0Y-94.0
X120.0Y-95.0
X120.0Y-96.0
X120.0Y-97.0
X120.0Y-98.0
X120.0Y-99.0
X120.5Y-83.0
X120.5Y-90.0
X120.5Y-91.0
X120.5Y-92.0
X121.0Y-81.5
X121.0Y-94.0
X121.0Y-95.0
X121.0Y-96.0
X121.0Y-97.0
X121.0Y-98.0
X121.0Y-99.0
X121.5Y-90.0
X121.5Y-91.0
X121.5Y-92.0
X122.0Y-94.0
X122.0Y-95.0
X122.0Y-96.0
X122.0Y-97.0
X122.0Y-98.0
X122.0Y-99.0
X122.25Y-80.756
X123.0Y-94.0
X123.0Y-95.0
X123.0Y-96.0
X123.0Y-97.0
X123.0Y-98.0
X123.0Y-99.0
X123.733Y-83.396
X124.739Y-56.05
X125.0Y-95.5
X125.0Y-96.75
X125.0Y-98.5
X125.0Y-99.5
X125.0Y-100.5
X125.669Y-77.852
X126.0Y-94.5
X126.0Y-95.5
X126.0Y-96.5
X126.0Y-97.5
X126.0Y-98.5
X126.0Y-99.5
X126.0Y-100.5
X126.0Y-102.0
X126.015Y-87.35
X127.474Y-80.3
X127.5Y-90.0
X127.5Y-91.0
X127.5Y-92.0
X127.5Y-93.0
X127.5Y-94.0
X127.5Y-95.0
X127.5Y-96.0
X127.5Y-97.0
X127.5Y-98.0
X127.5Y-99.0
X127.5Y-100.0
X128.5Y-90.0
X128.5Y-91.0
X128.5Y-92.0
X128.5Y-93.0
X128.5Y-94.0
X128.5Y-95.0
X128.5Y-96.0
X128.5Y-97.0
X128.5Y-98.0
X128.5Y-99.0
X128.5Y-100.0
X128.5Y-101.0
X129.5Y-90.0
X129.5Y-98.0
X129.5Y-99.0
X129.5Y-100.0
X129.763Y-56.05
X130.0Y-95.0
X130.0Y-96.0
X130.5Y-90.0
X130.5Y-99.0
X130.665Y-77.7
X131.0Y-95.0
X131.0Y-96.0
X131.0Y-97.0
X131.039Y-87.35
X131.5Y-90.0
X131.697Y-80.984
X132.0Y-95.0
X132.0Y-96.0
X132.0Y-97.0
X132.0Y-98.0
X132.5Y-90.0
X133.0Y-81.5
X133.0Y-95.0
X133.0Y-96.0
X133.0Y-97.0
X133.0Y-98.0
X133.0Y-99.0
X133.511Y-84.85
X134.0Y-94.0
X134.0Y-95.0
X134.0Y-96.0
X134.0Y-97.0
X134.0Y-98.0
X134.0Y-99.0
X134.5Y-89.2
X134.786Y-56.05
X135.0Y-94.0
X135.0Y-95.0
X135.0Y-96.0
X135.0Y-97.0
X135.0Y-98.0
X135.0Y-99.0
X135.5Y-83.0
X135.5Y-90.0
X135.5Y-91.0
X135.5Y-92.0
X135.688Y-77.7
X136.0Y-81.5
X136.0Y-94.0
X136.0Y-95.0
X136.0Y-96.0
X136.0Y-97.0
X136.0Y-98.0
X136.0Y-99.0
X136.062Y-87.35
X136.5Y-90.0
X136.5Y-91.0
X136.5Y-92.0
X136.7Y-68.738
X137.0Y-94.0
X137.0Y-95.0
X137.0Y-96.0
X137.0Y-97.0
X137.0Y-98.0
X137.0Y-99.0
X137.346Y-81.105
X137.945Y-84.184
X138.0Y-78.0
X138.0Y-94.0
X138.0Y-95.0
X138.0Y-96.0
X138.0Y-97.0
X138.0Y-98.0
X138.0Y-99.0
X138.017Y-64.549
X139.0Y-78.0
X139.809Y-56.05
X139.961Y-71.05
X140.0Y-78.0
X140.0Y-95.5
X140.0Y-96.75
X140.0Y-98.5
X140.0Y-99.5
X140.0Y-100.5
X141.0Y-94.5
X141.0Y-95.5
X141.0Y-96.5
X141.0Y-97.5
X141.0Y-98.5
X141.0Y-99.5
X141.0Y-100.5
X141.0Y-102.0
X141.085Y-87.35
X141.753Y-81.251
X142.5Y-90.0
X142.5Y-91.0
X142.5Y-92.0
X142.5Y-93.0
X142.5Y-94.0
X142.5Y-95.0
X142.5Y-96.0
X142.5Y-97.0
X142.5Y-98.0
X142.5Y-99.0
X142.5Y-100.0
X142.535Y-68.05
X142.874Y-63.95
X142.9Y-87.4
X143.5Y-90.0
X143.5Y-91.0
X143.5Y-92.0
X143.5Y-93.0
X143.5Y-94.0
X143.5Y-95.0
X143.5Y-96.0
X143.5Y-97.0
X143.5Y-98.0
X143.5Y-99.0
X143.5Y-100.0
X143.5Y-101.0
X144.5Y-90.0
X144.5Y-98.0
X144.5Y-99.0
X144.5Y-100.0
X144.8Y-85.849
X144.833Y-56.05
X145.0Y-95.0
X145.0Y-96.0
X145.5Y-90.0
X145.5Y-99.0
X145.6Y-87.0
X145.735Y-77.7
X146.0Y-95.0
X146.0Y-96.0
X146.0Y-97.0
X146.5Y-68.5
X146.5Y-69.5
X146.5Y-90.0
X146.658Y-81.404
X147.0Y-95.0
X147.0Y-96.0
X147.0Y-97.0
X147.0Y-98.0
X147.5Y-68.5
X147.5Y-69.5
X147.5Y-90.0
X147.898Y-63.95
X148.0Y-81.0
X148.0Y-95.0
X148.0Y-96.0
X148.0Y-97.0
X148.0Y-98.0
X148.0Y-99.0
X148.5Y-86.0
X149.0Y-94.0
X149.0Y-95.0
X149.0Y-96.0
X149.0Y-97.0
X149.0Y-98.0
X149.0Y-99.0
X149.5Y-86.0
X149.5Y-89.2
X149.856Y-56.05
X150.0Y-94.0
X150.0Y-95.0
X150.0Y-96.0
X150.0Y-97.0
X150.0Y-98.0
X150.0Y-99.0
X150.5Y-86.0
X150.5Y-90.0
X150.5Y-91.0
X150.5Y-92.0
X151.0Y-81.0
X151.0Y-94.0
X151.0Y-95.0
X151.0Y-96.0
X151.0Y-97.0
X151.0Y-98.0
X151.0Y-99.0
X151.5Y-83.0
X151.5Y-90.0
X151.5Y-91.0
X151.5Y-92.0
X151.7Y-68.605
X152.0Y-94.0
X152.0Y-95.0
X152.0Y-96.0
X152.0Y-97.0
X152.0Y-98.0
X152.0Y-99.0
X152.5Y-85.209
X152.564Y-62.964
X152.951Y-79.0
X153.0Y-94.0
X153.0Y-95.0
X153.0Y-96.0
X153.0Y-97.0
X153.0Y-98.0
X153.0Y-99.0
X153.5Y-83.0
X153.5Y-86.0
X154.5Y-85.5
X154.879Y-56.05
X155.0Y-79.5
X155.0Y-83.0
X155.0Y-95.5
X155.0Y-96.75
X155.0Y-98.5
X155.0Y-99.5
X155.0Y-100.5
X156.0Y-72.0
X156.0Y-80.5
X156.0Y-85.8
X156.0Y-94.5
X156.0Y-95.5
X156.0Y-96.5
X156.0Y-97.5
X156.0Y-98.5
X156.0Y-99.5
X156.0Y-100.5
X156.0Y-102.0
X157.4Y-78.75
X157.5Y-83.4
X157.5Y-90.0
X157.5Y-91.0
X157.5Y-92.0
X157.5Y-93.0
X157.5Y-94.0
X157.5Y-95.0
X157.5Y-96.0
X157.5Y-97.0
X157.5Y-98.0
X157.5Y-99.0
X157.5Y-100.0
X158.2Y-80.5
X158.25Y-74.75
X158.5Y-90.0
X158.5Y-91.0
X158.5Y-92.0
X158.5Y-93.0
X158.5Y-94.0
X158.5Y-95.0
X158.5Y-96.0
X158.5Y-97.0
X158.5Y-98.0
X158.5Y-99.0
X158.5Y-100.0
X158.5Y-101.0
X159.249Y-68.971
X159.25Y-80.25
X159.5Y-90.0
X159.5Y-98.0
X159.5Y-99.0
X159.5Y-100.0
X159.902Y-56.05
X160.0Y-95.0
X160.0Y-96.0
X160.114Y-83.365
X160.5Y-79.5
X160.5Y-87.0
X160.5Y-90.0
X160.5Y-99.0
X161.0Y-95.0
X161.0Y-96.0
X161.0Y-97.0
X161.5Y-72.0
X161.5Y-82.749
X161.5Y-90.0
X161.8Y-78.7
X162.0Y-95.0
X162.0Y-96.0
X162.0Y-97.0
X162.0Y-98.0
X162.5Y-90.0
X163.0Y-95.0
X163.0Y-96.0
X163.0Y-97.0
X163.0Y-98.0
X163.0Y-99.0
X163.3Y-82.0
X163.75Y-74.75
X163.809Y-85.609
X164.0Y-94.0
X164.0Y-95.0
X164.0Y-96.0
X164.0Y-97.0
X164.0Y-98.0
X164.0Y-99.0
X164.308Y-69.962
X164.5Y-89.2
X164.926Y-56.05
X165.0Y-94.0
X165.0Y-95.0
X165.0Y-96.0
X165.0Y-97.0
X165.0Y-98.0
X165.0Y-99.0
X165.5Y-90.0
X165.5Y-91.0
X165.5Y-92.0
X166.0Y-94.0
X166.0Y-95.0
X166.0Y-96.0
X166.0Y-97.0
X166.0Y-98.0
X166.0Y-99.0
X166.5Y-79.0
X166.5Y-90.0
X166.5Y-91.0
X166.5Y-92.0
X166.6Y-80.6
X167.0Y-72.0
X167.0Y-94.0
X167.0Y-95.0
X167.0Y-96.0
X167.0Y-97.0
X167.0Y-98.0
X167.0Y-99.0
X168.0Y-79.5
X168.0Y-94.0
X168.0Y-95.0
X168.0Y-96.0
X168.0Y-97.0
X168.0Y-98.0
X168.0Y-99.0
X168.2Y-83.2
X169.25Y-74.75
X169.32Y-69.254
X169.949Y-56.05
X170.0Y-95.5
X170.0Y-96.75
X170.0Y-98.5
X170.0Y-99.5
X170.0Y-100.5
X170.34Y-84.055
X171.0Y-94.5
X171.0Y-95.5
X171.0Y-96.5
X171.0Y-97.5
X171.0Y-98.5
X171.0Y-99.5
X171.0Y-100.5
X171.0Y-102.0
X171.5Y-79.5
X172.5Y-72.0
X172.5Y-90.0
X172.5Y-91.0
X172.5Y-92.0
X172.5Y-93.0
X172.5Y-94.0
X172.5Y-95.0
X172.5Y-96.0
X172.5Y-97.0
X172.5Y-98.0
X172.5Y-99.0
X172.5Y-100.0
X173.5Y-79.5
X173.5Y-90.0
X173.5Y-91.0
X173.5Y-92.0
X173.5Y-93.0
X173.5Y-94.0
X173.5Y-95.0
X173.5Y-96.0
X173.5Y-97.0
X173.5Y-98.0
X173.5Y-99.0
X173.5Y-100.0
X173.5Y-101.0
X174.022Y-82.96
X174.5Y-90.0
X174.5Y-98.0
X174.5Y-99.0
X174.5Y-100.0
X174.75Y-74.75
X174.783Y-70.378
X174.972Y-56.05
X175.0Y-95.0
X175.0Y-96.0
X175.5Y-90.0
X175.5Y-99.0
X176.0Y-79.0
X176.0Y-85.037
X176.0Y-95.0
X176.0Y-96.0
X176.0Y-97.0
X176.5Y-90.0
X176.956Y-84.515
X177.0Y-95.0
X177.0Y-96.0
X177.0Y-97.0
X177.0Y-98.0
X177.385Y-87.35
X177.5Y-90.0
X178.0Y-80.0
X178.0Y-95.0
X178.0Y-96.0
X178.0Y-97.0
X178.0Y-98.0
X178.0Y-99.0
X178.952Y-66.549
X179.0Y-94.0
X179.0Y-95.0
X179.0Y-96.0
X179.0Y-97.0
X179.0Y-98.0
X179.0Y-99.0
X179.4Y-89.2
X179.996Y-56.05
X180.0Y-94.0
X180.0Y-95.0
X180.0Y-96.0
X180.0Y-97.0
X180.0Y-98.0
X180.0Y-99.0
X180.5Y-82.5
X180.5Y-90.0
X180.5Y-91.0
X180.5Y-92.0
X181.0Y-80.0
X181.0Y-94.0
X181.0Y-95.0
X181.0Y-96.0
X181.0Y-97.0
X181.0Y-98.0
X181.0Y-99.0
X181.5Y-63.956
X181.5Y-90.0
X181.5Y-91.0
X181.5Y-92.0
X182.0Y-94.0
X182.0Y-95.0
X182.0Y-96.0
X182.0Y-97.0
X182.0Y-98.0
X182.0Y-99.0
X182.08Y-82.7
X182.11Y-70.729
X182.667Y-87.35
X182.965Y-80.299
X183.0Y-94.0
X183.0Y-95.0
X183.0Y-96.0
X183.0Y-97.0
X183.0Y-98.0
X183.0Y-99.0
X184.072Y-66.543
X185.0Y-89.5
X185.0Y-95.5
X185.0Y-96.75
X185.0Y-98.5
X185.0Y-99.5
X185.0Y-100.5
X185.007Y-56.182
X185.988Y-77.957
X186.0Y-94.5
X186.0Y-95.5
X186.0Y-96.5
X186.0Y-97.5
X186.0Y-98.5
X186.0Y-99.5
X186.0Y-100.5
X186.0Y-102.0
X187.0Y-83.223
X187.942Y-59.841
X187.95Y-64.864
X187.95Y-69.887
X187.95Y-74.91
X187.95Y-87.35
T2
X114.722Y-101.484
X114.722Y-103.516
X114.722Y-116.484
X114.722Y-118.516
X115.0Y-108.25
X115.0Y-111.75
X115.484Y-100.722
X115.484Y-104.278
X115.484Y-115.722
X115.484Y-119.278
X116.5Y-100.468
X116.5Y-104.532
X116.5Y-115.468
X116.5Y-119.532
X116.6Y-75.0
X116.6Y-125.0
X117.0Y-108.25
X117.0Y-111.75
X117.303Y-73.303
X117.303Y-76.697
X117.303Y-123.303
X117.303Y-126.697
X117.516Y-100.722
X117.516Y-104.278
X117.516Y-115.722
X117.516Y-119.278
X118.278Y-101.484
X118.278Y-103.516
X118.278Y-116.484
X118.278Y-118.516
X118.5Y-108.25
X118.5Y-111.75
X119.0Y-72.6
X119.0Y-77.4
X119.0Y-122.6
X119.0Y-127.4
X119.722Y-101.484
X119.722Y-103.516
X119.722Y-116.484
X119.722Y-118.516
X120.484Y-100.722
X120.484Y-104.278
X120.484Y-115.722
X120.484Y-119.278
X120.5Y-108.25
X120.5Y-111.75
X120.697Y-73.303
X120.697Y-76.697
X120.697Y-123.303
X120.697Y-126.697
X121.4Y-75.0
X121.4Y-125.0
X121.5Y-100.468
X121.5Y-104.532
X121.5Y-115.468
X121.5Y-119.532
X121.984Y-108.25
X121.984Y-111.75
X122.516Y-100.722
X122.516Y-104.278
X122.516Y-115.722
X122.516Y-119.278
X123.278Y-101.484
X123.278Y-103.516
X123.278Y-116.484
X123.278Y-118.516
X124.0Y-111.75
X124.016Y-108.25
X129.722Y-101.484
X129.722Y-103.516
X129.722Y-116.484
X129.722Y-118.516
X130.0Y-108.25
X130.0Y-111.75
X130.484Y-100.722
X130.484Y-104.278
X130.484Y-115.722
X130.484Y-119.278
X131.5Y-100.468
X131.5Y-104.532
X131.5Y-115.468
X131.5Y-119.532
X132.0Y-108.25
X132.0Y-111.75
X132.516Y-100.722
X132.516Y-104.278
X132.516Y-115.722
X132.516Y-119.278
X133.278Y-101.484
X133.278Y-103.516
X133.278Y-116.484
X133.278Y-118.516
X133.5Y-108.25
X133.5Y-111.75
X134.722Y-101.484
X134.722Y-103.516
X134.722Y-116.484
X134.722Y-118.516
X135.484Y-100.722
X135.484Y-104.278
X135.484Y-115.722
X135.484Y-119.278
X135.5Y-108.25
X135.5Y-111.75
X136.5Y-100.468
X136.5Y-104.532
X136.5Y-115.468
X136.5Y-119.532
X136.984Y-108.25
X136.984Y-111.75
X137.516Y-100.722
X137.516Y-104.278
X137.516Y-115.722
X137.516Y-119.278
X138.278Y-101.484
X138.278Y-103.516
X138.278Y-116.484
X138.278Y-118.516
X139.0Y-111.75
X139.016Y-108.25
X144.722Y-101.484
X144.722Y-103.516
X144.722Y-116.484
X144.722Y-118.516
X145.0Y-108.25
X145.0Y-111.75
X145.484Y-100.722
X145.484Y-104.278
X145.484Y-115.722
X145.484Y-119.278
X146.5Y-100.468
X146.5Y-104.532
X146.5Y-115.468
X146.5Y-119.532
X146.6Y-75.0
X146.6Y-125.0
X147.0Y-108.25
X147.0Y-111.75
X147.303Y-73.303
X147.303Y-76.697
X147.303Y-123.303
X147.303Y-126.697
X147.516Y-100.722
X147.516Y-104.278
X147.516Y-115.722
X147.516Y-119.278
X148.278Y-101.484
X148.278Y-103.516
X148.278Y-116.484
X148.278Y-118.516
X148.5Y-108.25
X148.5Y-111.75
X149.0Y-72.6
X149.0Y-77.4
X149.0Y-122.6
X149.0Y-127.4
X149.722Y-101.484
X149.722Y-103.516
X149.722Y-116.484
X149.722Y-118.516
X150.484Y-100.722
X150.484Y-104.278
X150.484Y-115.722
X150.484Y-119.278
X150.5Y-108.25
X150.5Y-111.75
X150.697Y-73.303
X150.697Y-76.697
X150.697Y-123.303
X150.697Y-126.697
X151.4Y-75.0
X151.4Y-125.0
X151.5Y-100.468
X151.5Y-104.532
X151.5Y-115.468
X151.5Y-119.532
X151.984Y-108.25
X151.984Y-111.75
X152.516Y-100.722
X152.516Y-104.278
X152.516Y-115.722
X152.516Y-119.278
X153.278Y-101.484
X153.278Y-103.516
X153.278Y-116.484
X153.278Y-118.516
X154.0Y-111.75
X154.016Y-108.25
X159.722Y-101.484
X159.722Y-103.516
X159.722Y-116.484
X159.722Y-118.516
X160.0Y-108.25
X160.0Y-111.75
X160.484Y-100.722
X160.484Y-104.278
X160.484Y-115.722
X160.484Y-119.278
X161.5Y-100.468
X161.5Y-104.532
X161.5Y-115.468
X161.5Y-119.532
X162.0Y-108.25
X162.0Y-111.75
X162.516Y-100.722
X162.516Y-104.278
X162.516Y-115.722
X162.516Y-119.278
X163.278Y-101.484
X163.278Y-103.516
X163.278Y-116.484
X163.278Y-118.516
X163.5Y-108.25
X163.5Y-111.75
X164.722Y-101.484
X164.722Y-103.516
X164.722Y-116.484
X164.722Y-118.516
X165.484Y-100.722
X165.484Y-104.278
X165.484Y-115.722
X165.484Y-119.278
X165.5Y-108.25
X165.5Y-111.75
X166.5Y-100.468
X166.5Y-104.532
X166.5Y-115.468
X166.5Y-119.532
X166.984Y-108.25
X166.984Y-111.75
X167.516Y-100.722
X167.516Y-104.278
X167.516Y-115.722
X167.516Y-119.278
X168.278Y-101.484
X168.278Y-103.516
X168.278Y-116.484
X168.278Y-118.516
X169.0Y-111.75
X169.016Y-108.25
X174.722Y-101.484
X174.722Y-103.516
X174.722Y-116.484
X174.722Y-118.516
X175.0Y-108.25
X175.0Y-111.75
X175.484Y-100.722
X175.484Y-104.278
X175.484Y-115.722
X175.484Y-119.278
X176.5Y-100.468
X176.5Y-104.532
X176.5Y-115.468
X176.5Y-119.532
X176.6Y-75.0
X176.6Y-125.0
X177.0Y-108.25
X177.0Y-111.75
X177.303Y-73.303
X177.303Y-76.697
X177.303Y-123.303
X177.303Y-126.697
X177.516Y-100.722
X177.516Y-104.278
X177.516Y-115.722
X177.516Y-119.278
X178.278Y-101.484
X178.278Y-103.516
X178.278Y-116.484
X178.278Y-118.516
X178.5Y-108.25
X178.5Y-111.75
X179.0Y-72.6
X179.0Y-77.4
X179.0Y-122.6
X179.0Y-127.4
X179.722Y-101.484
X179.722Y-103.516
X179.722Y-116.484
X179.722Y-118.516
X180.484Y-100.722
X180.484Y-104.278
X180.484Y-115.722
X180.484Y-119.278
X180.5Y-108.25
X180.5Y-111.75
X180.697Y-73.303
X180.697Y-76.697
X180.697Y-123.303
X180.697Y-126.697
X181.4Y-75.0
X181.4Y-125.0
X181.5Y-100.468
X181.5Y-104.532
X181.5Y-115.468
X181.5Y-119.532
X181.984Y-108.25
X181.984Y-111.75
X182.516Y-100.722
X182.516Y-104.278
X182.516Y-115.722
X182.516Y-119.278
X183.278Y-101.484
X183.278Y-103.516
X183.278Y-116.484
X183.278Y-118.516
X184.0Y-111.75
X184.016Y-108.25
T3
X155.38Y-64.96
X155.38Y-67.5
X157.92Y-64.96
X157.92Y-67.5
X160.46Y-64.96
X160.46Y-67.5
X163.0Y-64.96
X163.0Y-67.5
X165.54Y-64.96
X165.54Y-67.5
X168.08Y-64.96
X168.08Y-67.5
X170.62Y-64.96
X170.62Y-67.5
X173.16Y-64.96
X173.16Y-67.5
T4
X186.0Y-75.0
T5
X116.0Y-110.0
X116.5Y-102.5
X116.5Y-117.5
X119.5Y-110.0
X121.5Y-102.5
X121.5Y-117.5
X123.0Y-110.0
X131.0Y-110.0
X131.5Y-102.5
X131.5Y-117.5
X134.5Y-110.0
X136.5Y-102.5
X136.5Y-117.5
X138.0Y-110.0
X146.0Y-110.0
X146.5Y-102.5
X146.5Y-117.5
X149.5Y-110.0
X151.5Y-102.5
X151.5Y-117.5
X153.0Y-110.0
X161.0Y-110.0
X161.5Y-102.5
X161.5Y-117.5
X164.5Y-110.0
X166.5Y-102.5
X166.5Y-117.5
X168.0Y-110.0
X176.0Y-110.0
X176.5Y-102.5
X176.5Y-117.5
X179.5Y-110.0
X181.5Y-102.5
X181.5Y-117.5
X183.0Y-110.0
T6
X119.0Y-75.0
X119.0Y-125.0
X149.0Y-75.0
X149.0Y-125.0
X179.0Y-75.0
X179.0Y-125.0
T0
M30
