G04 #@! TF.GenerationSoftware,KiCad,Pcbnew,6.0.10+dfsg-1~bpo11+1*
G04 #@! TF.ProjectId,pwr,7077722e-6b69-4636-9164-5f7063625858,rev?*
G04 #@! TF.SameCoordinates,Original*
G04 #@! TF.FileFunction,Copper,L2,Bot*
G04 #@! TF.FilePolarity,Positive*
%FSLAX46Y46*%
G04 Gerber Fmt 4.6, Leading zero omitted, Abs format (unit mm)*
%MOMM*%
%LPD*%
G01*
G04 APERTURE LIST*
G04 #@! TA.AperFunction,Profile*
%ADD10C,0.100000*%
G04 #@! TD*
G04 #@! TA.AperFunction,ComponentPad*
%ADD11C,0.700000*%
G04 #@! TD*
G04 #@! TA.AperFunction,ComponentPad*
%ADD12C,0.800000*%
G04 #@! TD*
G04 #@! TA.AperFunction,ComponentPad*
%ADD13C,6.400000*%
G04 #@! TD*
G04 #@! TA.AperFunction,ComponentPad*
%ADD14C,3.000000*%
G04 #@! TD*
G04 #@! TA.AperFunction,ComponentPad*
%ADD15C,1.700000*%
G04 #@! TD*
G04 #@! TA.AperFunction,ViaPad*
%ADD16C,0.700000*%
G04 #@! TD*
G04 #@! TA.AperFunction,Conductor*
%ADD17C,0.500000*%
G04 #@! TD*
G04 #@! TA.AperFunction,Conductor*
%ADD18C,0.300000*%
G04 #@! TD*
G04 APERTURE END LIST*
D10*
X184000000Y-130000000D02*
G75*
G03*
X189000000Y-125000000I0J5000000D01*
G01*
X111500000Y-125000000D02*
G75*
G03*
X116500000Y-130000000I5000000J0D01*
G01*
X116500000Y-55000000D02*
X184000000Y-55000000D01*
X111500000Y-125000000D02*
X111500000Y-60000000D01*
X189000000Y-60000000D02*
G75*
G03*
X184000000Y-55000000I-5000000J0D01*
G01*
X184000000Y-130000000D02*
X116500000Y-130000000D01*
X116500000Y-55000000D02*
G75*
G03*
X111500000Y-60000000I0J-5000000D01*
G01*
X189000000Y-60000000D02*
X189000000Y-125000000D01*
D11*
X132000000Y-111750000D03*
G04 #@! TA.AperFunction,ComponentPad*
G36*
X132550000Y-111475000D02*
G01*
X132533898Y-111632160D01*
X132477389Y-111802529D01*
X132383202Y-111955329D01*
X132256390Y-112082362D01*
X132103755Y-112176816D01*
X131933484Y-112233622D01*
X131775000Y-112250000D01*
X130070000Y-112250000D01*
X129450000Y-111630000D01*
X129450000Y-108525000D01*
X129466102Y-108367840D01*
X129522611Y-108197471D01*
X129616798Y-108044671D01*
X129743610Y-107917638D01*
X129896245Y-107823184D01*
X130066516Y-107766378D01*
X130225000Y-107750000D01*
X131775000Y-107750000D01*
X131932160Y-107766102D01*
X132102529Y-107822611D01*
X132255329Y-107916798D01*
X132382362Y-108043610D01*
X132476816Y-108196245D01*
X132533622Y-108366516D01*
X132550000Y-108525000D01*
X132550000Y-111475000D01*
G37*
G04 #@! TD.AperFunction*
X132000000Y-108250000D03*
X130000000Y-108250000D03*
X130000000Y-111750000D03*
X133500000Y-111750000D03*
X135500000Y-111750000D03*
G04 #@! TA.AperFunction,ComponentPad*
G36*
G01*
X136050000Y-108525000D02*
X136050000Y-111475000D01*
G75*
G02*
X135275000Y-112250000I-775000J0D01*
G01*
X133725000Y-112250000D01*
G75*
G02*
X132950000Y-111475000I0J775000D01*
G01*
X132950000Y-108525000D01*
G75*
G02*
X133725000Y-107750000I775000J0D01*
G01*
X135275000Y-107750000D01*
G75*
G02*
X136050000Y-108525000I0J-775000D01*
G01*
G37*
G04 #@! TD.AperFunction*
X133500000Y-108250000D03*
X135500000Y-108250000D03*
X139016000Y-108250000D03*
X136984000Y-108250000D03*
X139000000Y-111750000D03*
X136984000Y-111750000D03*
G04 #@! TA.AperFunction,ComponentPad*
G36*
G01*
X139550000Y-108525000D02*
X139550000Y-111475000D01*
G75*
G02*
X138775000Y-112250000I-775000J0D01*
G01*
X137225000Y-112250000D01*
G75*
G02*
X136450000Y-111475000I0J775000D01*
G01*
X136450000Y-108525000D01*
G75*
G02*
X137225000Y-107750000I775000J0D01*
G01*
X138775000Y-107750000D01*
G75*
G02*
X139550000Y-108525000I0J-775000D01*
G01*
G37*
G04 #@! TD.AperFunction*
X177000000Y-108250000D03*
X177000000Y-111750000D03*
X175000000Y-111750000D03*
X175000000Y-108250000D03*
G04 #@! TA.AperFunction,ComponentPad*
G36*
X177550000Y-111475000D02*
G01*
X177533898Y-111632160D01*
X177477389Y-111802529D01*
X177383202Y-111955329D01*
X177256390Y-112082362D01*
X177103755Y-112176816D01*
X176933484Y-112233622D01*
X176775000Y-112250000D01*
X175070000Y-112250000D01*
X174450000Y-111630000D01*
X174450000Y-108525000D01*
X174466102Y-108367840D01*
X174522611Y-108197471D01*
X174616798Y-108044671D01*
X174743610Y-107917638D01*
X174896245Y-107823184D01*
X175066516Y-107766378D01*
X175225000Y-107750000D01*
X176775000Y-107750000D01*
X176932160Y-107766102D01*
X177102529Y-107822611D01*
X177255329Y-107916798D01*
X177382362Y-108043610D01*
X177476816Y-108196245D01*
X177533622Y-108366516D01*
X177550000Y-108525000D01*
X177550000Y-111475000D01*
G37*
G04 #@! TD.AperFunction*
G04 #@! TA.AperFunction,ComponentPad*
G36*
G01*
X181050000Y-108525000D02*
X181050000Y-111475000D01*
G75*
G02*
X180275000Y-112250000I-775000J0D01*
G01*
X178725000Y-112250000D01*
G75*
G02*
X177950000Y-111475000I0J775000D01*
G01*
X177950000Y-108525000D01*
G75*
G02*
X178725000Y-107750000I775000J0D01*
G01*
X180275000Y-107750000D01*
G75*
G02*
X181050000Y-108525000I0J-775000D01*
G01*
G37*
G04 #@! TD.AperFunction*
X178500000Y-111750000D03*
X180500000Y-111750000D03*
X180500000Y-108250000D03*
X178500000Y-108250000D03*
G04 #@! TA.AperFunction,ComponentPad*
G36*
G01*
X184550000Y-108525000D02*
X184550000Y-111475000D01*
G75*
G02*
X183775000Y-112250000I-775000J0D01*
G01*
X182225000Y-112250000D01*
G75*
G02*
X181450000Y-111475000I0J775000D01*
G01*
X181450000Y-108525000D01*
G75*
G02*
X182225000Y-107750000I775000J0D01*
G01*
X183775000Y-107750000D01*
G75*
G02*
X184550000Y-108525000I0J-775000D01*
G01*
G37*
G04 #@! TD.AperFunction*
X181984000Y-111750000D03*
X184000000Y-111750000D03*
X181984000Y-108250000D03*
X184016000Y-108250000D03*
G04 #@! TA.AperFunction,ComponentPad*
G36*
X117550000Y-111475000D02*
G01*
X117533898Y-111632160D01*
X117477389Y-111802529D01*
X117383202Y-111955329D01*
X117256390Y-112082362D01*
X117103755Y-112176816D01*
X116933484Y-112233622D01*
X116775000Y-112250000D01*
X115070000Y-112250000D01*
X114450000Y-111630000D01*
X114450000Y-108525000D01*
X114466102Y-108367840D01*
X114522611Y-108197471D01*
X114616798Y-108044671D01*
X114743610Y-107917638D01*
X114896245Y-107823184D01*
X115066516Y-107766378D01*
X115225000Y-107750000D01*
X116775000Y-107750000D01*
X116932160Y-107766102D01*
X117102529Y-107822611D01*
X117255329Y-107916798D01*
X117382362Y-108043610D01*
X117476816Y-108196245D01*
X117533622Y-108366516D01*
X117550000Y-108525000D01*
X117550000Y-111475000D01*
G37*
G04 #@! TD.AperFunction*
X117000000Y-108250000D03*
X117000000Y-111750000D03*
X115000000Y-108250000D03*
X115000000Y-111750000D03*
G04 #@! TA.AperFunction,ComponentPad*
G36*
G01*
X121050000Y-108525000D02*
X121050000Y-111475000D01*
G75*
G02*
X120275000Y-112250000I-775000J0D01*
G01*
X118725000Y-112250000D01*
G75*
G02*
X117950000Y-111475000I0J775000D01*
G01*
X117950000Y-108525000D01*
G75*
G02*
X118725000Y-107750000I775000J0D01*
G01*
X120275000Y-107750000D01*
G75*
G02*
X121050000Y-108525000I0J-775000D01*
G01*
G37*
G04 #@! TD.AperFunction*
X118500000Y-108250000D03*
X120500000Y-111750000D03*
X118500000Y-111750000D03*
X120500000Y-108250000D03*
G04 #@! TA.AperFunction,ComponentPad*
G36*
G01*
X124550000Y-108525000D02*
X124550000Y-111475000D01*
G75*
G02*
X123775000Y-112250000I-775000J0D01*
G01*
X122225000Y-112250000D01*
G75*
G02*
X121450000Y-111475000I0J775000D01*
G01*
X121450000Y-108525000D01*
G75*
G02*
X122225000Y-107750000I775000J0D01*
G01*
X123775000Y-107750000D01*
G75*
G02*
X124550000Y-108525000I0J-775000D01*
G01*
G37*
G04 #@! TD.AperFunction*
X124000000Y-111750000D03*
X124016000Y-108250000D03*
X121984000Y-111750000D03*
X121984000Y-108250000D03*
D12*
X116600000Y-125000000D03*
X117302944Y-123302944D03*
X119000000Y-127400000D03*
X120697056Y-123302944D03*
X120697056Y-126697056D03*
X121400000Y-125000000D03*
D13*
X119000000Y-125000000D03*
D12*
X117302944Y-126697056D03*
X119000000Y-122600000D03*
X119000000Y-77400000D03*
X121400000Y-75000000D03*
X120697056Y-76697056D03*
X116600000Y-75000000D03*
X119000000Y-72600000D03*
X120697056Y-73302944D03*
D13*
X119000000Y-75000000D03*
D12*
X117302944Y-73302944D03*
X117302944Y-76697056D03*
D11*
X145000000Y-111750000D03*
X147000000Y-108250000D03*
G04 #@! TA.AperFunction,ComponentPad*
G36*
X147550000Y-111475000D02*
G01*
X147533898Y-111632160D01*
X147477389Y-111802529D01*
X147383202Y-111955329D01*
X147256390Y-112082362D01*
X147103755Y-112176816D01*
X146933484Y-112233622D01*
X146775000Y-112250000D01*
X145070000Y-112250000D01*
X144450000Y-111630000D01*
X144450000Y-108525000D01*
X144466102Y-108367840D01*
X144522611Y-108197471D01*
X144616798Y-108044671D01*
X144743610Y-107917638D01*
X144896245Y-107823184D01*
X145066516Y-107766378D01*
X145225000Y-107750000D01*
X146775000Y-107750000D01*
X146932160Y-107766102D01*
X147102529Y-107822611D01*
X147255329Y-107916798D01*
X147382362Y-108043610D01*
X147476816Y-108196245D01*
X147533622Y-108366516D01*
X147550000Y-108525000D01*
X147550000Y-111475000D01*
G37*
G04 #@! TD.AperFunction*
X147000000Y-111750000D03*
X145000000Y-108250000D03*
X148500000Y-108250000D03*
X148500000Y-111750000D03*
X150500000Y-108250000D03*
G04 #@! TA.AperFunction,ComponentPad*
G36*
G01*
X151050000Y-108525000D02*
X151050000Y-111475000D01*
G75*
G02*
X150275000Y-112250000I-775000J0D01*
G01*
X148725000Y-112250000D01*
G75*
G02*
X147950000Y-111475000I0J775000D01*
G01*
X147950000Y-108525000D01*
G75*
G02*
X148725000Y-107750000I775000J0D01*
G01*
X150275000Y-107750000D01*
G75*
G02*
X151050000Y-108525000I0J-775000D01*
G01*
G37*
G04 #@! TD.AperFunction*
X150500000Y-111750000D03*
X154000000Y-111750000D03*
X154016000Y-108250000D03*
X151984000Y-111750000D03*
G04 #@! TA.AperFunction,ComponentPad*
G36*
G01*
X154550000Y-108525000D02*
X154550000Y-111475000D01*
G75*
G02*
X153775000Y-112250000I-775000J0D01*
G01*
X152225000Y-112250000D01*
G75*
G02*
X151450000Y-111475000I0J775000D01*
G01*
X151450000Y-108525000D01*
G75*
G02*
X152225000Y-107750000I775000J0D01*
G01*
X153775000Y-107750000D01*
G75*
G02*
X154550000Y-108525000I0J-775000D01*
G01*
G37*
G04 #@! TD.AperFunction*
X151984000Y-108250000D03*
D14*
X186000000Y-75000000D03*
D12*
X181400000Y-75000000D03*
X180697056Y-73302944D03*
D13*
X179000000Y-75000000D03*
D12*
X180697056Y-76697056D03*
X179000000Y-72600000D03*
X176600000Y-75000000D03*
X177302944Y-76697056D03*
X177302944Y-73302944D03*
X179000000Y-77400000D03*
G04 #@! TA.AperFunction,ComponentPad*
G36*
G01*
X155980000Y-68350000D02*
X154780000Y-68350000D01*
G75*
G02*
X154530000Y-68100000I0J250000D01*
G01*
X154530000Y-66900000D01*
G75*
G02*
X154780000Y-66650000I250000J0D01*
G01*
X155980000Y-66650000D01*
G75*
G02*
X156230000Y-66900000I0J-250000D01*
G01*
X156230000Y-68100000D01*
G75*
G02*
X155980000Y-68350000I-250000J0D01*
G01*
G37*
G04 #@! TD.AperFunction*
D15*
X155380000Y-64960000D03*
X157920000Y-67500000D03*
X157920000Y-64960000D03*
X160460000Y-67500000D03*
X160460000Y-64960000D03*
X163000000Y-67500000D03*
X163000000Y-64960000D03*
X165540000Y-67500000D03*
X165540000Y-64960000D03*
X168080000Y-67500000D03*
X168080000Y-64960000D03*
X170620000Y-67500000D03*
X170620000Y-64960000D03*
X173160000Y-67500000D03*
X173160000Y-64960000D03*
D12*
X146600000Y-75000000D03*
X151400000Y-75000000D03*
X147302944Y-76697056D03*
D13*
X149000000Y-75000000D03*
D12*
X150697056Y-73302944D03*
X147302944Y-73302944D03*
X149000000Y-77400000D03*
X149000000Y-72600000D03*
X150697056Y-76697056D03*
D11*
X160000000Y-108250000D03*
G04 #@! TA.AperFunction,ComponentPad*
G36*
X162550000Y-111475000D02*
G01*
X162533898Y-111632160D01*
X162477389Y-111802529D01*
X162383202Y-111955329D01*
X162256390Y-112082362D01*
X162103755Y-112176816D01*
X161933484Y-112233622D01*
X161775000Y-112250000D01*
X160070000Y-112250000D01*
X159450000Y-111630000D01*
X159450000Y-108525000D01*
X159466102Y-108367840D01*
X159522611Y-108197471D01*
X159616798Y-108044671D01*
X159743610Y-107917638D01*
X159896245Y-107823184D01*
X160066516Y-107766378D01*
X160225000Y-107750000D01*
X161775000Y-107750000D01*
X161932160Y-107766102D01*
X162102529Y-107822611D01*
X162255329Y-107916798D01*
X162382362Y-108043610D01*
X162476816Y-108196245D01*
X162533622Y-108366516D01*
X162550000Y-108525000D01*
X162550000Y-111475000D01*
G37*
G04 #@! TD.AperFunction*
X160000000Y-111750000D03*
X162000000Y-108250000D03*
X162000000Y-111750000D03*
X165500000Y-108250000D03*
X163500000Y-108250000D03*
G04 #@! TA.AperFunction,ComponentPad*
G36*
G01*
X166050000Y-108525000D02*
X166050000Y-111475000D01*
G75*
G02*
X165275000Y-112250000I-775000J0D01*
G01*
X163725000Y-112250000D01*
G75*
G02*
X162950000Y-111475000I0J775000D01*
G01*
X162950000Y-108525000D01*
G75*
G02*
X163725000Y-107750000I775000J0D01*
G01*
X165275000Y-107750000D01*
G75*
G02*
X166050000Y-108525000I0J-775000D01*
G01*
G37*
G04 #@! TD.AperFunction*
X163500000Y-111750000D03*
X165500000Y-111750000D03*
X169000000Y-111750000D03*
G04 #@! TA.AperFunction,ComponentPad*
G36*
G01*
X169550000Y-108525000D02*
X169550000Y-111475000D01*
G75*
G02*
X168775000Y-112250000I-775000J0D01*
G01*
X167225000Y-112250000D01*
G75*
G02*
X166450000Y-111475000I0J775000D01*
G01*
X166450000Y-108525000D01*
G75*
G02*
X167225000Y-107750000I775000J0D01*
G01*
X168775000Y-107750000D01*
G75*
G02*
X169550000Y-108525000I0J-775000D01*
G01*
G37*
G04 #@! TD.AperFunction*
X166984000Y-111750000D03*
X169016000Y-108250000D03*
X166984000Y-108250000D03*
D12*
X149000000Y-127400000D03*
X149000000Y-122600000D03*
X150697056Y-126697056D03*
X147302944Y-123302944D03*
X146600000Y-125000000D03*
D13*
X149000000Y-125000000D03*
D12*
X150697056Y-123302944D03*
X151400000Y-125000000D03*
X147302944Y-126697056D03*
X179000000Y-122600000D03*
D13*
X179000000Y-125000000D03*
D12*
X177302944Y-123302944D03*
X180697056Y-126697056D03*
X181400000Y-125000000D03*
X180697056Y-123302944D03*
X179000000Y-127400000D03*
X177302944Y-126697056D03*
X176600000Y-125000000D03*
D11*
X137516000Y-104278000D03*
X138278000Y-103516000D03*
X135484000Y-104278000D03*
X134722000Y-101484000D03*
X137516000Y-100722000D03*
X135484000Y-100722000D03*
X138278000Y-101484000D03*
X134722000Y-103516000D03*
X136500000Y-100468000D03*
G04 #@! TA.AperFunction,ComponentPad*
G36*
G01*
X138650000Y-101075000D02*
X138650000Y-103925000D01*
G75*
G02*
X137575000Y-105000000I-1075000J0D01*
G01*
X135425000Y-105000000D01*
G75*
G02*
X134350000Y-103925000I0J1075000D01*
G01*
X134350000Y-101075000D01*
G75*
G02*
X135425000Y-100000000I1075000J0D01*
G01*
X137575000Y-100000000D01*
G75*
G02*
X138650000Y-101075000I0J-1075000D01*
G01*
G37*
G04 #@! TD.AperFunction*
X136500000Y-104532000D03*
X131500000Y-100468000D03*
X131500000Y-104532000D03*
G04 #@! TA.AperFunction,ComponentPad*
G36*
G01*
X133650000Y-101075000D02*
X133650000Y-103925000D01*
G75*
G02*
X132575000Y-105000000I-1075000J0D01*
G01*
X130425000Y-105000000D01*
G75*
G02*
X129350000Y-103925000I0J1075000D01*
G01*
X129350000Y-101075000D01*
G75*
G02*
X130425000Y-100000000I1075000J0D01*
G01*
X132575000Y-100000000D01*
G75*
G02*
X133650000Y-101075000I0J-1075000D01*
G01*
G37*
G04 #@! TD.AperFunction*
X133278000Y-101484000D03*
X130484000Y-100722000D03*
X133278000Y-103516000D03*
X130484000Y-104278000D03*
X129722000Y-101484000D03*
X132516000Y-100722000D03*
X129722000Y-103516000D03*
X132516000Y-104278000D03*
X180484000Y-119278000D03*
X183278000Y-118516000D03*
X182516000Y-119278000D03*
X183278000Y-116484000D03*
X180484000Y-115722000D03*
X181500000Y-119532000D03*
X179722000Y-116484000D03*
X182516000Y-115722000D03*
X179722000Y-118516000D03*
G04 #@! TA.AperFunction,ComponentPad*
G36*
G01*
X183650000Y-116075000D02*
X183650000Y-118925000D01*
G75*
G02*
X182575000Y-120000000I-1075000J0D01*
G01*
X180425000Y-120000000D01*
G75*
G02*
X179350000Y-118925000I0J1075000D01*
G01*
X179350000Y-116075000D01*
G75*
G02*
X180425000Y-115000000I1075000J0D01*
G01*
X182575000Y-115000000D01*
G75*
G02*
X183650000Y-116075000I0J-1075000D01*
G01*
G37*
G04 #@! TD.AperFunction*
X181500000Y-115468000D03*
X178278000Y-118516000D03*
X177516000Y-119278000D03*
X176500000Y-115468000D03*
X175484000Y-115722000D03*
X176500000Y-119532000D03*
X174722000Y-116484000D03*
X174722000Y-118516000D03*
X175484000Y-119278000D03*
X177516000Y-115722000D03*
G04 #@! TA.AperFunction,ComponentPad*
G36*
G01*
X178650000Y-116075000D02*
X178650000Y-118925000D01*
G75*
G02*
X177575000Y-120000000I-1075000J0D01*
G01*
X175425000Y-120000000D01*
G75*
G02*
X174350000Y-118925000I0J1075000D01*
G01*
X174350000Y-116075000D01*
G75*
G02*
X175425000Y-115000000I1075000J0D01*
G01*
X177575000Y-115000000D01*
G75*
G02*
X178650000Y-116075000I0J-1075000D01*
G01*
G37*
G04 #@! TD.AperFunction*
X178278000Y-116484000D03*
X164722000Y-103516000D03*
X164722000Y-101484000D03*
X168278000Y-101484000D03*
X166500000Y-104532000D03*
X168278000Y-103516000D03*
X167516000Y-104278000D03*
X165484000Y-100722000D03*
G04 #@! TA.AperFunction,ComponentPad*
G36*
G01*
X168650000Y-101075000D02*
X168650000Y-103925000D01*
G75*
G02*
X167575000Y-105000000I-1075000J0D01*
G01*
X165425000Y-105000000D01*
G75*
G02*
X164350000Y-103925000I0J1075000D01*
G01*
X164350000Y-101075000D01*
G75*
G02*
X165425000Y-100000000I1075000J0D01*
G01*
X167575000Y-100000000D01*
G75*
G02*
X168650000Y-101075000I0J-1075000D01*
G01*
G37*
G04 #@! TD.AperFunction*
X167516000Y-100722000D03*
X166500000Y-100468000D03*
X165484000Y-104278000D03*
X162516000Y-100722000D03*
X159722000Y-101484000D03*
X159722000Y-103516000D03*
X163278000Y-103516000D03*
G04 #@! TA.AperFunction,ComponentPad*
G36*
G01*
X163650000Y-101075000D02*
X163650000Y-103925000D01*
G75*
G02*
X162575000Y-105000000I-1075000J0D01*
G01*
X160425000Y-105000000D01*
G75*
G02*
X159350000Y-103925000I0J1075000D01*
G01*
X159350000Y-101075000D01*
G75*
G02*
X160425000Y-100000000I1075000J0D01*
G01*
X162575000Y-100000000D01*
G75*
G02*
X163650000Y-101075000I0J-1075000D01*
G01*
G37*
G04 #@! TD.AperFunction*
X160484000Y-104278000D03*
X161500000Y-104532000D03*
X163278000Y-101484000D03*
X161500000Y-100468000D03*
X162516000Y-104278000D03*
X160484000Y-100722000D03*
X179722000Y-101484000D03*
X180484000Y-104278000D03*
X181500000Y-100468000D03*
X180484000Y-100722000D03*
X182516000Y-104278000D03*
X181500000Y-104532000D03*
X182516000Y-100722000D03*
X183278000Y-103516000D03*
X179722000Y-103516000D03*
G04 #@! TA.AperFunction,ComponentPad*
G36*
G01*
X183650000Y-101075000D02*
X183650000Y-103925000D01*
G75*
G02*
X182575000Y-105000000I-1075000J0D01*
G01*
X180425000Y-105000000D01*
G75*
G02*
X179350000Y-103925000I0J1075000D01*
G01*
X179350000Y-101075000D01*
G75*
G02*
X180425000Y-100000000I1075000J0D01*
G01*
X182575000Y-100000000D01*
G75*
G02*
X183650000Y-101075000I0J-1075000D01*
G01*
G37*
G04 #@! TD.AperFunction*
X183278000Y-101484000D03*
X174722000Y-103516000D03*
X174722000Y-101484000D03*
X177516000Y-100722000D03*
X175484000Y-100722000D03*
X176500000Y-100468000D03*
X178278000Y-101484000D03*
X177516000Y-104278000D03*
G04 #@! TA.AperFunction,ComponentPad*
G36*
G01*
X178650000Y-101075000D02*
X178650000Y-103925000D01*
G75*
G02*
X177575000Y-105000000I-1075000J0D01*
G01*
X175425000Y-105000000D01*
G75*
G02*
X174350000Y-103925000I0J1075000D01*
G01*
X174350000Y-101075000D01*
G75*
G02*
X175425000Y-100000000I1075000J0D01*
G01*
X177575000Y-100000000D01*
G75*
G02*
X178650000Y-101075000I0J-1075000D01*
G01*
G37*
G04 #@! TD.AperFunction*
X175484000Y-104278000D03*
X178278000Y-103516000D03*
X176500000Y-104532000D03*
X134722000Y-116484000D03*
X136500000Y-119532000D03*
X135484000Y-115722000D03*
X137516000Y-115722000D03*
G04 #@! TA.AperFunction,ComponentPad*
G36*
G01*
X138650000Y-116075000D02*
X138650000Y-118925000D01*
G75*
G02*
X137575000Y-120000000I-1075000J0D01*
G01*
X135425000Y-120000000D01*
G75*
G02*
X134350000Y-118925000I0J1075000D01*
G01*
X134350000Y-116075000D01*
G75*
G02*
X135425000Y-115000000I1075000J0D01*
G01*
X137575000Y-115000000D01*
G75*
G02*
X138650000Y-116075000I0J-1075000D01*
G01*
G37*
G04 #@! TD.AperFunction*
X138278000Y-118516000D03*
X138278000Y-116484000D03*
X135484000Y-119278000D03*
X136500000Y-115468000D03*
X137516000Y-119278000D03*
X134722000Y-118516000D03*
X129722000Y-116484000D03*
X133278000Y-116484000D03*
X132516000Y-119278000D03*
X133278000Y-118516000D03*
X130484000Y-115722000D03*
X130484000Y-119278000D03*
X129722000Y-118516000D03*
G04 #@! TA.AperFunction,ComponentPad*
G36*
G01*
X133650000Y-116075000D02*
X133650000Y-118925000D01*
G75*
G02*
X132575000Y-120000000I-1075000J0D01*
G01*
X130425000Y-120000000D01*
G75*
G02*
X129350000Y-118925000I0J1075000D01*
G01*
X129350000Y-116075000D01*
G75*
G02*
X130425000Y-115000000I1075000J0D01*
G01*
X132575000Y-115000000D01*
G75*
G02*
X133650000Y-116075000I0J-1075000D01*
G01*
G37*
G04 #@! TD.AperFunction*
X131500000Y-119532000D03*
X132516000Y-115722000D03*
X131500000Y-115468000D03*
G04 #@! TA.AperFunction,ComponentPad*
G36*
G01*
X123650000Y-116075000D02*
X123650000Y-118925000D01*
G75*
G02*
X122575000Y-120000000I-1075000J0D01*
G01*
X120425000Y-120000000D01*
G75*
G02*
X119350000Y-118925000I0J1075000D01*
G01*
X119350000Y-116075000D01*
G75*
G02*
X120425000Y-115000000I1075000J0D01*
G01*
X122575000Y-115000000D01*
G75*
G02*
X123650000Y-116075000I0J-1075000D01*
G01*
G37*
G04 #@! TD.AperFunction*
X121500000Y-119532000D03*
X123278000Y-116484000D03*
X122516000Y-119278000D03*
X122516000Y-115722000D03*
X123278000Y-118516000D03*
X119722000Y-116484000D03*
X120484000Y-115722000D03*
X119722000Y-118516000D03*
X120484000Y-119278000D03*
X121500000Y-115468000D03*
X117516000Y-119278000D03*
X116500000Y-119532000D03*
X114722000Y-118516000D03*
G04 #@! TA.AperFunction,ComponentPad*
G36*
G01*
X118650000Y-116075000D02*
X118650000Y-118925000D01*
G75*
G02*
X117575000Y-120000000I-1075000J0D01*
G01*
X115425000Y-120000000D01*
G75*
G02*
X114350000Y-118925000I0J1075000D01*
G01*
X114350000Y-116075000D01*
G75*
G02*
X115425000Y-115000000I1075000J0D01*
G01*
X117575000Y-115000000D01*
G75*
G02*
X118650000Y-116075000I0J-1075000D01*
G01*
G37*
G04 #@! TD.AperFunction*
X118278000Y-118516000D03*
X114722000Y-116484000D03*
X115484000Y-119278000D03*
X118278000Y-116484000D03*
X116500000Y-115468000D03*
X117516000Y-115722000D03*
X115484000Y-115722000D03*
X121500000Y-100468000D03*
X121500000Y-104532000D03*
X123278000Y-103516000D03*
X120484000Y-100722000D03*
X122516000Y-100722000D03*
X120484000Y-104278000D03*
X122516000Y-104278000D03*
X123278000Y-101484000D03*
G04 #@! TA.AperFunction,ComponentPad*
G36*
G01*
X123650000Y-101075000D02*
X123650000Y-103925000D01*
G75*
G02*
X122575000Y-105000000I-1075000J0D01*
G01*
X120425000Y-105000000D01*
G75*
G02*
X119350000Y-103925000I0J1075000D01*
G01*
X119350000Y-101075000D01*
G75*
G02*
X120425000Y-100000000I1075000J0D01*
G01*
X122575000Y-100000000D01*
G75*
G02*
X123650000Y-101075000I0J-1075000D01*
G01*
G37*
G04 #@! TD.AperFunction*
X119722000Y-101484000D03*
X119722000Y-103516000D03*
X118278000Y-103516000D03*
X117516000Y-104278000D03*
X114722000Y-103516000D03*
X116500000Y-100468000D03*
X116500000Y-104532000D03*
X114722000Y-101484000D03*
X115484000Y-100722000D03*
X118278000Y-101484000D03*
G04 #@! TA.AperFunction,ComponentPad*
G36*
G01*
X118650000Y-101075000D02*
X118650000Y-103925000D01*
G75*
G02*
X117575000Y-105000000I-1075000J0D01*
G01*
X115425000Y-105000000D01*
G75*
G02*
X114350000Y-103925000I0J1075000D01*
G01*
X114350000Y-101075000D01*
G75*
G02*
X115425000Y-100000000I1075000J0D01*
G01*
X117575000Y-100000000D01*
G75*
G02*
X118650000Y-101075000I0J-1075000D01*
G01*
G37*
G04 #@! TD.AperFunction*
X117516000Y-100722000D03*
X115484000Y-104278000D03*
X153278000Y-118516000D03*
G04 #@! TA.AperFunction,ComponentPad*
G36*
G01*
X153650000Y-116075000D02*
X153650000Y-118925000D01*
G75*
G02*
X152575000Y-120000000I-1075000J0D01*
G01*
X150425000Y-120000000D01*
G75*
G02*
X149350000Y-118925000I0J1075000D01*
G01*
X149350000Y-116075000D01*
G75*
G02*
X150425000Y-115000000I1075000J0D01*
G01*
X152575000Y-115000000D01*
G75*
G02*
X153650000Y-116075000I0J-1075000D01*
G01*
G37*
G04 #@! TD.AperFunction*
X152516000Y-115722000D03*
X151500000Y-115468000D03*
X153278000Y-116484000D03*
X149722000Y-118516000D03*
X149722000Y-116484000D03*
X151500000Y-119532000D03*
X152516000Y-119278000D03*
X150484000Y-119278000D03*
X150484000Y-115722000D03*
X146500000Y-115468000D03*
X144722000Y-116484000D03*
X145484000Y-119278000D03*
X147516000Y-115722000D03*
X147516000Y-119278000D03*
X146500000Y-119532000D03*
X148278000Y-116484000D03*
X148278000Y-118516000D03*
X145484000Y-115722000D03*
X144722000Y-118516000D03*
G04 #@! TA.AperFunction,ComponentPad*
G36*
G01*
X148650000Y-116075000D02*
X148650000Y-118925000D01*
G75*
G02*
X147575000Y-120000000I-1075000J0D01*
G01*
X145425000Y-120000000D01*
G75*
G02*
X144350000Y-118925000I0J1075000D01*
G01*
X144350000Y-116075000D01*
G75*
G02*
X145425000Y-115000000I1075000J0D01*
G01*
X147575000Y-115000000D01*
G75*
G02*
X148650000Y-116075000I0J-1075000D01*
G01*
G37*
G04 #@! TD.AperFunction*
X168278000Y-116484000D03*
X166500000Y-119532000D03*
X165484000Y-119278000D03*
X168278000Y-118516000D03*
X164722000Y-116484000D03*
X167516000Y-119278000D03*
G04 #@! TA.AperFunction,ComponentPad*
G36*
G01*
X168650000Y-116075000D02*
X168650000Y-118925000D01*
G75*
G02*
X167575000Y-120000000I-1075000J0D01*
G01*
X165425000Y-120000000D01*
G75*
G02*
X164350000Y-118925000I0J1075000D01*
G01*
X164350000Y-116075000D01*
G75*
G02*
X165425000Y-115000000I1075000J0D01*
G01*
X167575000Y-115000000D01*
G75*
G02*
X168650000Y-116075000I0J-1075000D01*
G01*
G37*
G04 #@! TD.AperFunction*
X167516000Y-115722000D03*
X166500000Y-115468000D03*
X165484000Y-115722000D03*
X164722000Y-118516000D03*
X163278000Y-116484000D03*
X161500000Y-115468000D03*
G04 #@! TA.AperFunction,ComponentPad*
G36*
G01*
X163650000Y-116075000D02*
X163650000Y-118925000D01*
G75*
G02*
X162575000Y-120000000I-1075000J0D01*
G01*
X160425000Y-120000000D01*
G75*
G02*
X159350000Y-118925000I0J1075000D01*
G01*
X159350000Y-116075000D01*
G75*
G02*
X160425000Y-115000000I1075000J0D01*
G01*
X162575000Y-115000000D01*
G75*
G02*
X163650000Y-116075000I0J-1075000D01*
G01*
G37*
G04 #@! TD.AperFunction*
X159722000Y-118516000D03*
X162516000Y-115722000D03*
X160484000Y-115722000D03*
X162516000Y-119278000D03*
X163278000Y-118516000D03*
X161500000Y-119532000D03*
X159722000Y-116484000D03*
X160484000Y-119278000D03*
X153278000Y-103516000D03*
X150484000Y-104278000D03*
X149722000Y-101484000D03*
X151500000Y-104532000D03*
X150484000Y-100722000D03*
X153278000Y-101484000D03*
X149722000Y-103516000D03*
X152516000Y-104278000D03*
X152516000Y-100722000D03*
G04 #@! TA.AperFunction,ComponentPad*
G36*
G01*
X153650000Y-101075000D02*
X153650000Y-103925000D01*
G75*
G02*
X152575000Y-105000000I-1075000J0D01*
G01*
X150425000Y-105000000D01*
G75*
G02*
X149350000Y-103925000I0J1075000D01*
G01*
X149350000Y-101075000D01*
G75*
G02*
X150425000Y-100000000I1075000J0D01*
G01*
X152575000Y-100000000D01*
G75*
G02*
X153650000Y-101075000I0J-1075000D01*
G01*
G37*
G04 #@! TD.AperFunction*
X151500000Y-100468000D03*
X146500000Y-104532000D03*
X145484000Y-104278000D03*
X144722000Y-101484000D03*
X147516000Y-104278000D03*
X147516000Y-100722000D03*
X144722000Y-103516000D03*
X148278000Y-101484000D03*
X146500000Y-100468000D03*
X148278000Y-103516000D03*
X145484000Y-100722000D03*
G04 #@! TA.AperFunction,ComponentPad*
G36*
G01*
X148650000Y-101075000D02*
X148650000Y-103925000D01*
G75*
G02*
X147575000Y-105000000I-1075000J0D01*
G01*
X145425000Y-105000000D01*
G75*
G02*
X144350000Y-103925000I0J1075000D01*
G01*
X144350000Y-101075000D01*
G75*
G02*
X145425000Y-100000000I1075000J0D01*
G01*
X147575000Y-100000000D01*
G75*
G02*
X148650000Y-101075000I0J-1075000D01*
G01*
G37*
G04 #@! TD.AperFunction*
D16*
X162500000Y-79500000D03*
X157000000Y-79500000D03*
X147000000Y-85462500D03*
X168000000Y-79500000D03*
X169250000Y-74750000D03*
X163750000Y-74750000D03*
X173500000Y-79500000D03*
X148000000Y-82250000D03*
X174750000Y-74750000D03*
X158250000Y-74750000D03*
X176000000Y-79000000D03*
X151250000Y-79250000D03*
X177000000Y-87537500D03*
X153000000Y-85462500D03*
X170000000Y-85500000D03*
X147000000Y-87537500D03*
X123000000Y-85462500D03*
X138000000Y-85462500D03*
X185000000Y-85500000D03*
X171500000Y-79500000D03*
X140000000Y-78000000D03*
X125000000Y-85500000D03*
X166000000Y-79500000D03*
X161500000Y-72000000D03*
X168000000Y-85462500D03*
X172500000Y-72000000D03*
X155000000Y-79500000D03*
X167000000Y-72000000D03*
X160500000Y-79500000D03*
X183000000Y-85462500D03*
X155000000Y-85500000D03*
X140000000Y-85500000D03*
X139000000Y-78000000D03*
X138000000Y-78000000D03*
X156000000Y-72000000D03*
X183000000Y-96000000D03*
X183000000Y-94000000D03*
X181000000Y-94000000D03*
X180000000Y-96000000D03*
X182000000Y-94000000D03*
X182000000Y-96000000D03*
X180000000Y-97000000D03*
X180000000Y-94000000D03*
X181000000Y-96000000D03*
X183000000Y-97000000D03*
X182000000Y-95000000D03*
X180000000Y-95000000D03*
X183000000Y-95000000D03*
X181000000Y-97000000D03*
X181000000Y-95000000D03*
X182000000Y-97000000D03*
X165000000Y-96000000D03*
X166000000Y-95000000D03*
X165000000Y-97000000D03*
X166000000Y-96000000D03*
X168000000Y-94000000D03*
X168000000Y-96000000D03*
X167000000Y-94000000D03*
X168000000Y-95000000D03*
X165000000Y-95000000D03*
X167000000Y-97000000D03*
X168000000Y-97000000D03*
X166000000Y-94000000D03*
X167000000Y-95000000D03*
X165000000Y-94000000D03*
X166000000Y-97000000D03*
X167000000Y-96000000D03*
X186000000Y-97500000D03*
X186000000Y-98500000D03*
X186000000Y-95500000D03*
X186000000Y-96500000D03*
X186000000Y-102000000D03*
X185000000Y-96750000D03*
X185000000Y-98500000D03*
X185000000Y-95500000D03*
X170000000Y-98500000D03*
X171000000Y-95500000D03*
X171000000Y-97500000D03*
X171000000Y-96500000D03*
X170000000Y-95500000D03*
X171000000Y-98500000D03*
X170000000Y-96750000D03*
X171000000Y-102000000D03*
X156000000Y-96500000D03*
X156000000Y-102000000D03*
X156000000Y-97500000D03*
X155000000Y-96750000D03*
X155000000Y-98500000D03*
X156000000Y-98500000D03*
X155000000Y-95500000D03*
X156000000Y-95500000D03*
X153000000Y-97000000D03*
X152000000Y-95000000D03*
X152000000Y-96000000D03*
X153000000Y-94000000D03*
X151000000Y-95000000D03*
X150000000Y-94000000D03*
X150000000Y-97000000D03*
X150000000Y-95000000D03*
X153000000Y-95000000D03*
X150000000Y-96000000D03*
X152000000Y-97000000D03*
X151000000Y-96000000D03*
X151000000Y-97000000D03*
X153000000Y-96000000D03*
X151000000Y-94000000D03*
X152000000Y-94000000D03*
X141000000Y-98500000D03*
X141000000Y-95500000D03*
X141000000Y-97500000D03*
X141000000Y-102000000D03*
X140000000Y-98500000D03*
X141000000Y-96500000D03*
X140000000Y-95500000D03*
X140000000Y-96750000D03*
X135000000Y-97000000D03*
X135000000Y-94000000D03*
X135000000Y-95000000D03*
X138000000Y-94000000D03*
X136000000Y-97000000D03*
X138000000Y-97000000D03*
X137000000Y-95000000D03*
X138000000Y-96000000D03*
X137000000Y-94000000D03*
X135000000Y-96000000D03*
X137000000Y-97000000D03*
X136000000Y-96000000D03*
X138000000Y-95000000D03*
X137000000Y-96000000D03*
X136000000Y-95000000D03*
X136000000Y-94000000D03*
X126000000Y-96500000D03*
X125000000Y-96750000D03*
X126000000Y-95500000D03*
X126000000Y-98500000D03*
X126000000Y-102000000D03*
X125000000Y-98500000D03*
X126000000Y-97500000D03*
X125000000Y-95500000D03*
X120000000Y-94000000D03*
X122000000Y-96000000D03*
X123000000Y-95000000D03*
X122000000Y-94000000D03*
X121000000Y-97000000D03*
X121000000Y-96000000D03*
X120000000Y-95000000D03*
X121000000Y-95000000D03*
X120000000Y-96000000D03*
X120000000Y-97000000D03*
X122000000Y-97000000D03*
X123000000Y-94000000D03*
X123000000Y-97000000D03*
X121000000Y-94000000D03*
X122000000Y-95000000D03*
X123000000Y-96000000D03*
X161500000Y-85500000D03*
X161500000Y-81250000D03*
X157500000Y-81250000D03*
X157500000Y-85500000D03*
X162750000Y-88250000D03*
X165750254Y-88373618D03*
X178000000Y-88500000D03*
X181500000Y-88500000D03*
X147996849Y-88427257D03*
X142750000Y-85000000D03*
X159500000Y-87500000D03*
X165532656Y-86034168D03*
X156249500Y-87500000D03*
X146000000Y-86500000D03*
X142750000Y-87250000D03*
X159500000Y-85500000D03*
X159500000Y-81299500D03*
D17*
X162500000Y-79500000D02*
X163750000Y-78250000D01*
X147000000Y-85462500D02*
X147000000Y-83250000D01*
X147000000Y-83250000D02*
X148000000Y-82250000D01*
X158250000Y-78250000D02*
X158250000Y-74750000D01*
X176000000Y-79000000D02*
X175250000Y-78250000D01*
X174750000Y-78250000D02*
X174750000Y-74750000D01*
X169250000Y-78250000D02*
X169250000Y-74750000D01*
X175250000Y-78250000D02*
X174750000Y-78250000D01*
X157000000Y-79500000D02*
X158250000Y-78250000D01*
X168000000Y-79500000D02*
X169250000Y-78250000D01*
X173500000Y-79500000D02*
X174750000Y-78250000D01*
X163750000Y-78250000D02*
X163750000Y-74750000D01*
X161500000Y-81250000D02*
X161500000Y-85500000D01*
X157500000Y-81250000D02*
X157500000Y-85500000D01*
D18*
X162500000Y-88500000D02*
X149000000Y-88500000D01*
X165750254Y-88373618D02*
X162873618Y-88373618D01*
X162750000Y-88250000D02*
X162500000Y-88500000D01*
X148069592Y-88500000D02*
X147996849Y-88427257D01*
X178000000Y-88500000D02*
X181500000Y-88500000D01*
X162873618Y-88373618D02*
X162750000Y-88250000D01*
X149000000Y-88500000D02*
X148069592Y-88500000D01*
X159514117Y-87514117D02*
X159500000Y-87500000D01*
X145433381Y-85000000D02*
X142750000Y-85000000D01*
X164052707Y-87514117D02*
X159514117Y-87514117D01*
X165532656Y-86034168D02*
X164052707Y-87514117D01*
X147933381Y-87500000D02*
X145433381Y-85000000D01*
X156249500Y-87500000D02*
X147933381Y-87500000D01*
X146000000Y-86500000D02*
X143500000Y-86500000D01*
X143500000Y-86500000D02*
X142750000Y-87250000D01*
D17*
X159500000Y-81299500D02*
X159500000Y-85500000D01*
G04 #@! TA.AperFunction,Conductor*
G36*
X133479998Y-106890931D02*
G01*
X133463095Y-106911905D01*
X132500000Y-107875000D01*
X132500000Y-113875000D01*
X133463095Y-114838095D01*
X133497121Y-114900407D01*
X133500000Y-114927190D01*
X133500000Y-116236635D01*
X133479998Y-116304756D01*
X133426342Y-116351249D01*
X133362239Y-116362085D01*
X129545218Y-116004239D01*
X129479262Y-115977966D01*
X129467884Y-115967884D01*
X127536905Y-114036905D01*
X127502879Y-113974593D01*
X127500000Y-113947810D01*
X127500000Y-106552190D01*
X127520002Y-106484069D01*
X127536905Y-106463095D01*
X129500000Y-104500000D01*
X129500000Y-102501000D01*
X129520002Y-102432879D01*
X129573658Y-102386386D01*
X129626000Y-102375000D01*
X133374000Y-102375000D01*
X133442121Y-102395002D01*
X133488614Y-102448658D01*
X133500000Y-102501000D01*
X133500000Y-106822810D01*
X133479998Y-106890931D01*
G37*
G04 #@! TD.AperFunction*
G04 #@! TA.AperFunction,Conductor*
G36*
X153979998Y-103515931D02*
G01*
X153963095Y-103536905D01*
X153089095Y-104410905D01*
X153026783Y-104444931D01*
X152955968Y-104439866D01*
X152910905Y-104410905D01*
X148887805Y-100387805D01*
X148868784Y-100363417D01*
X148778842Y-100213134D01*
X148621912Y-100028088D01*
X148436866Y-99871158D01*
X148432423Y-99868499D01*
X148286584Y-99781216D01*
X148262195Y-99762195D01*
X147036905Y-98536905D01*
X147002879Y-98474593D01*
X147000000Y-98447810D01*
X147000000Y-95052190D01*
X147020002Y-94984069D01*
X147036905Y-94963095D01*
X147463095Y-94536905D01*
X147525407Y-94502879D01*
X147552190Y-94500000D01*
X148500000Y-94500000D01*
X149463095Y-93536905D01*
X149525407Y-93502879D01*
X149552190Y-93500000D01*
X153874000Y-93500000D01*
X153942121Y-93520002D01*
X153988614Y-93573658D01*
X154000000Y-93626000D01*
X154000000Y-103447810D01*
X153979998Y-103515931D01*
G37*
G04 #@! TD.AperFunction*
G04 #@! TA.AperFunction,Conductor*
G36*
X118479998Y-106890931D02*
G01*
X118463095Y-106911905D01*
X117500000Y-107875000D01*
X117500000Y-113875000D01*
X118463095Y-114838095D01*
X118497121Y-114900407D01*
X118500000Y-114927190D01*
X118500000Y-116249000D01*
X118479998Y-116317121D01*
X118426342Y-116363614D01*
X118374000Y-116375000D01*
X114626000Y-116375000D01*
X114557879Y-116354998D01*
X114511386Y-116301342D01*
X114500000Y-116249000D01*
X114500000Y-115500000D01*
X112536905Y-113536905D01*
X112502879Y-113474593D01*
X112500000Y-113447810D01*
X112500000Y-106552190D01*
X112520002Y-106484069D01*
X112536905Y-106463095D01*
X114500000Y-104500000D01*
X114500000Y-102501000D01*
X114520002Y-102432879D01*
X114573658Y-102386386D01*
X114626000Y-102375000D01*
X118374000Y-102375000D01*
X118442121Y-102395002D01*
X118488614Y-102448658D01*
X118500000Y-102501000D01*
X118500000Y-106822810D01*
X118479998Y-106890931D01*
G37*
G04 #@! TD.AperFunction*
G04 #@! TA.AperFunction,Conductor*
G36*
X171479998Y-109515931D02*
G01*
X171463095Y-109536905D01*
X169564217Y-111435783D01*
X169501905Y-111469809D01*
X169431090Y-111464744D01*
X169418773Y-111459386D01*
X166569651Y-110034826D01*
X166517667Y-109986471D01*
X166500000Y-109922128D01*
X166500000Y-108052190D01*
X166520002Y-107984069D01*
X166536905Y-107963095D01*
X169500000Y-105000000D01*
X169500000Y-94626000D01*
X169520002Y-94557879D01*
X169573658Y-94511386D01*
X169626000Y-94500000D01*
X170447810Y-94500000D01*
X170515931Y-94520002D01*
X170536905Y-94536905D01*
X171463095Y-95463095D01*
X171497121Y-95525407D01*
X171500000Y-95552190D01*
X171500000Y-109447810D01*
X171479998Y-109515931D01*
G37*
G04 #@! TD.AperFunction*
G04 #@! TA.AperFunction,Conductor*
G36*
X178479998Y-106890931D02*
G01*
X178463095Y-106911905D01*
X177500000Y-107875000D01*
X177500000Y-113875000D01*
X178463095Y-114838095D01*
X178497121Y-114900407D01*
X178500000Y-114927190D01*
X178500000Y-116236635D01*
X178479998Y-116304756D01*
X178426342Y-116351249D01*
X178362239Y-116362085D01*
X174545218Y-116004239D01*
X174479262Y-115977966D01*
X174467884Y-115967884D01*
X172536905Y-114036905D01*
X172502879Y-113974593D01*
X172500000Y-113947810D01*
X172500000Y-106552190D01*
X172520002Y-106484069D01*
X172536905Y-106463095D01*
X174500000Y-104500000D01*
X174500000Y-102501000D01*
X174520002Y-102432879D01*
X174573658Y-102386386D01*
X174626000Y-102375000D01*
X178374000Y-102375000D01*
X178442121Y-102395002D01*
X178488614Y-102448658D01*
X178500000Y-102501000D01*
X178500000Y-106822810D01*
X178479998Y-106890931D01*
G37*
G04 #@! TD.AperFunction*
G04 #@! TA.AperFunction,Conductor*
G36*
X138479998Y-115942121D02*
G01*
X138426342Y-115988614D01*
X138374000Y-116000000D01*
X134626000Y-116000000D01*
X134557879Y-115979998D01*
X134511386Y-115926342D01*
X134500000Y-115874000D01*
X134500000Y-114500000D01*
X133036905Y-113036905D01*
X133002879Y-112974593D01*
X133000000Y-112947810D01*
X133000000Y-111126000D01*
X133020002Y-111057879D01*
X133073658Y-111011386D01*
X133126000Y-111000000D01*
X135874000Y-111000000D01*
X135942121Y-111020002D01*
X135988614Y-111073658D01*
X136000000Y-111126000D01*
X136000000Y-112000000D01*
X138463095Y-114463095D01*
X138497121Y-114525407D01*
X138500000Y-114552190D01*
X138500000Y-115874000D01*
X138479998Y-115942121D01*
G37*
G04 #@! TD.AperFunction*
G04 #@! TA.AperFunction,Conductor*
G36*
X153479998Y-115942121D02*
G01*
X153426342Y-115988614D01*
X153374000Y-116000000D01*
X149626000Y-116000000D01*
X149557879Y-115979998D01*
X149511386Y-115926342D01*
X149500000Y-115874000D01*
X149500000Y-114500000D01*
X148036905Y-113036905D01*
X148002879Y-112974593D01*
X148000000Y-112947810D01*
X148000000Y-111126000D01*
X148020002Y-111057879D01*
X148073658Y-111011386D01*
X148126000Y-111000000D01*
X150874000Y-111000000D01*
X150942121Y-111020002D01*
X150988614Y-111073658D01*
X151000000Y-111126000D01*
X151000000Y-112000000D01*
X153463095Y-114463095D01*
X153497121Y-114525407D01*
X153500000Y-114552190D01*
X153500000Y-115874000D01*
X153479998Y-115942121D01*
G37*
G04 #@! TD.AperFunction*
G04 #@! TA.AperFunction,Conductor*
G36*
X163479998Y-106890931D02*
G01*
X163463095Y-106911905D01*
X162500000Y-107875000D01*
X162500000Y-113875000D01*
X163463095Y-114838095D01*
X163497121Y-114900407D01*
X163500000Y-114927190D01*
X163500000Y-116236635D01*
X163479998Y-116304756D01*
X163426342Y-116351249D01*
X163362239Y-116362085D01*
X159545218Y-116004239D01*
X159479262Y-115977966D01*
X159467884Y-115967884D01*
X157536905Y-114036905D01*
X157502879Y-113974593D01*
X157500000Y-113947810D01*
X157500000Y-106552190D01*
X157520002Y-106484069D01*
X157536905Y-106463095D01*
X159500000Y-104500000D01*
X159500000Y-102501000D01*
X159520002Y-102432879D01*
X159573658Y-102386386D01*
X159626000Y-102375000D01*
X163374000Y-102375000D01*
X163442121Y-102395002D01*
X163488614Y-102448658D01*
X163500000Y-102501000D01*
X163500000Y-106822810D01*
X163479998Y-106890931D01*
G37*
G04 #@! TD.AperFunction*
G04 #@! TA.AperFunction,Conductor*
G36*
X148479998Y-106890931D02*
G01*
X148463095Y-106911905D01*
X147500000Y-107875000D01*
X147500000Y-113875000D01*
X148463095Y-114838095D01*
X148497121Y-114900407D01*
X148500000Y-114927190D01*
X148500000Y-116236635D01*
X148479998Y-116304756D01*
X148426342Y-116351249D01*
X148362239Y-116362085D01*
X144545218Y-116004239D01*
X144479262Y-115977966D01*
X144467884Y-115967884D01*
X142536905Y-114036905D01*
X142502879Y-113974593D01*
X142500000Y-113947810D01*
X142500000Y-106552190D01*
X142520002Y-106484069D01*
X142536905Y-106463095D01*
X144500000Y-104500000D01*
X144500000Y-102501000D01*
X144520002Y-102432879D01*
X144573658Y-102386386D01*
X144626000Y-102375000D01*
X148374000Y-102375000D01*
X148442121Y-102395002D01*
X148488614Y-102448658D01*
X148500000Y-102501000D01*
X148500000Y-106822810D01*
X148479998Y-106890931D01*
G37*
G04 #@! TD.AperFunction*
G04 #@! TA.AperFunction,Conductor*
G36*
X126479998Y-109515931D02*
G01*
X126463095Y-109536905D01*
X124564217Y-111435783D01*
X124501905Y-111469809D01*
X124431090Y-111464744D01*
X124418773Y-111459386D01*
X121569651Y-110034826D01*
X121517667Y-109986471D01*
X121500000Y-109922128D01*
X121500000Y-108052190D01*
X121520002Y-107984069D01*
X121536905Y-107963095D01*
X124500000Y-105000000D01*
X124500000Y-94626000D01*
X124520002Y-94557879D01*
X124573658Y-94511386D01*
X124626000Y-94500000D01*
X125447810Y-94500000D01*
X125515931Y-94520002D01*
X125536905Y-94536905D01*
X126463095Y-95463095D01*
X126497121Y-95525407D01*
X126500000Y-95552190D01*
X126500000Y-109447810D01*
X126479998Y-109515931D01*
G37*
G04 #@! TD.AperFunction*
G04 #@! TA.AperFunction,Conductor*
G36*
X156479998Y-109515931D02*
G01*
X156463095Y-109536905D01*
X154564217Y-111435783D01*
X154501905Y-111469809D01*
X154431090Y-111464744D01*
X154418773Y-111459386D01*
X151569651Y-110034826D01*
X151517667Y-109986471D01*
X151500000Y-109922128D01*
X151500000Y-108052190D01*
X151520002Y-107984069D01*
X151536905Y-107963095D01*
X154500000Y-105000000D01*
X154500000Y-94626000D01*
X154520002Y-94557879D01*
X154573658Y-94511386D01*
X154626000Y-94500000D01*
X155447810Y-94500000D01*
X155515931Y-94520002D01*
X155536905Y-94536905D01*
X156463095Y-95463095D01*
X156497121Y-95525407D01*
X156500000Y-95552190D01*
X156500000Y-109447810D01*
X156479998Y-109515931D01*
G37*
G04 #@! TD.AperFunction*
G04 #@! TA.AperFunction,Conductor*
G36*
X183479998Y-115942121D02*
G01*
X183426342Y-115988614D01*
X183374000Y-116000000D01*
X179626000Y-116000000D01*
X179557879Y-115979998D01*
X179511386Y-115926342D01*
X179500000Y-115874000D01*
X179500000Y-114500000D01*
X178036905Y-113036905D01*
X178002879Y-112974593D01*
X178000000Y-112947810D01*
X178000000Y-111126000D01*
X178020002Y-111057879D01*
X178073658Y-111011386D01*
X178126000Y-111000000D01*
X180874000Y-111000000D01*
X180942121Y-111020002D01*
X180988614Y-111073658D01*
X181000000Y-111126000D01*
X181000000Y-112000000D01*
X183463095Y-114463095D01*
X183497121Y-114525407D01*
X183500000Y-114552190D01*
X183500000Y-115874000D01*
X183479998Y-115942121D01*
G37*
G04 #@! TD.AperFunction*
G04 #@! TA.AperFunction,Conductor*
G36*
X111900500Y-90000000D02*
G01*
X111900500Y-60041436D01*
X111902051Y-60021726D01*
X111903941Y-60009793D01*
X111905492Y-60000000D01*
X111903941Y-59990206D01*
X111903564Y-59987826D01*
X111902132Y-59962621D01*
X111917762Y-59604624D01*
X111918720Y-59593673D01*
X111969660Y-59206754D01*
X111971569Y-59195930D01*
X112056033Y-58814934D01*
X112058878Y-58804316D01*
X112176231Y-58432122D01*
X112179984Y-58421807D01*
X112329338Y-58061234D01*
X112333971Y-58051299D01*
X112514180Y-57705122D01*
X112519670Y-57695613D01*
X112729356Y-57366472D01*
X112735661Y-57357468D01*
X112973229Y-57047864D01*
X112980294Y-57039444D01*
X113243945Y-56751718D01*
X113251718Y-56743945D01*
X113539444Y-56480294D01*
X113547864Y-56473229D01*
X113857468Y-56235661D01*
X113866472Y-56229356D01*
X114195613Y-56019670D01*
X114205122Y-56014180D01*
X114551299Y-55833971D01*
X114561243Y-55829334D01*
X114921800Y-55679987D01*
X114932129Y-55676228D01*
X115234311Y-55580951D01*
X115304317Y-55558878D01*
X115314934Y-55556033D01*
X115695930Y-55471569D01*
X115706754Y-55469660D01*
X116093673Y-55418720D01*
X116104624Y-55417762D01*
X116462617Y-55402132D01*
X116487826Y-55403564D01*
X116490206Y-55403941D01*
X116500000Y-55405492D01*
X116521726Y-55402051D01*
X116541436Y-55400500D01*
X148010545Y-55400500D01*
X148010545Y-81494825D01*
X148003538Y-81495512D01*
X148003535Y-81495512D01*
X147971839Y-81498620D01*
X147842975Y-81511255D01*
X147683209Y-81564402D01*
X147677187Y-81568049D01*
X147677185Y-81568050D01*
X147552190Y-81643750D01*
X147539188Y-81651624D01*
X147534125Y-81656513D01*
X147534124Y-81656514D01*
X147460280Y-81727825D01*
X147418071Y-81768586D01*
X147414212Y-81774483D01*
X147329734Y-81903577D01*
X147329732Y-81903581D01*
X147325875Y-81909475D01*
X147323419Y-81916079D01*
X147279377Y-82034505D01*
X147250374Y-82079680D01*
X146597302Y-82732752D01*
X146588685Y-82740593D01*
X146582060Y-82744798D01*
X146576633Y-82750577D01*
X146576632Y-82750578D01*
X146534151Y-82795816D01*
X146531396Y-82798658D01*
X146511088Y-82818966D01*
X146508655Y-82822103D01*
X146508446Y-82822372D01*
X146500734Y-82831402D01*
X146469552Y-82864607D01*
X146459401Y-82883070D01*
X146448550Y-82899590D01*
X146435637Y-82916237D01*
X146417545Y-82958046D01*
X146412323Y-82968706D01*
X146390373Y-83008632D01*
X146385134Y-83029037D01*
X146378730Y-83047742D01*
X146370364Y-83067074D01*
X146369124Y-83074900D01*
X146369123Y-83074905D01*
X146363235Y-83112076D01*
X146360829Y-83123696D01*
X146351472Y-83160142D01*
X146349500Y-83167823D01*
X146349500Y-83188884D01*
X146347949Y-83208596D01*
X146344653Y-83229405D01*
X146345399Y-83237297D01*
X146348941Y-83274767D01*
X146349500Y-83286625D01*
X146349500Y-84833405D01*
X146329498Y-84901526D01*
X146275842Y-84948019D01*
X146205568Y-84958123D01*
X146140988Y-84928629D01*
X146134405Y-84922500D01*
X145833263Y-84621358D01*
X145829610Y-84617549D01*
X145787582Y-84571844D01*
X145750579Y-84548901D01*
X145740829Y-84542200D01*
X145706164Y-84515888D01*
X145692186Y-84510354D01*
X145672182Y-84500293D01*
X145659395Y-84492365D01*
X145651144Y-84489968D01*
X145651142Y-84489967D01*
X145617609Y-84480225D01*
X145606379Y-84476380D01*
X145565928Y-84460364D01*
X145557387Y-84459466D01*
X145557386Y-84459466D01*
X145550973Y-84458792D01*
X145528998Y-84454480D01*
X145514556Y-84450285D01*
X145503866Y-84449500D01*
X145469164Y-84449500D01*
X145455994Y-84448810D01*
X145415927Y-84444599D01*
X145407462Y-84446031D01*
X145407453Y-84446031D01*
X145397381Y-84447735D01*
X145376368Y-84449500D01*
X143313602Y-84449500D01*
X143245481Y-84429498D01*
X143233966Y-84421143D01*
X143232272Y-84419761D01*
X143227339Y-84414724D01*
X143085810Y-84323515D01*
X142927591Y-84265927D01*
X142760545Y-84244825D01*
X142753538Y-84245512D01*
X142753535Y-84245512D01*
X142692555Y-84251491D01*
X142592975Y-84261255D01*
X142433209Y-84314402D01*
X142289188Y-84401624D01*
X142284125Y-84406513D01*
X142284124Y-84406514D01*
X142221174Y-84467305D01*
X142168071Y-84518586D01*
X142164212Y-84524483D01*
X142079734Y-84653577D01*
X142079732Y-84653581D01*
X142075875Y-84659475D01*
X142017185Y-84817289D01*
X142016254Y-84824270D01*
X142016253Y-84824272D01*
X142010177Y-84869812D01*
X141994917Y-84984183D01*
X141995555Y-84991194D01*
X141995555Y-84991198D01*
X142009538Y-85144843D01*
X142010177Y-85151864D01*
X142012355Y-85158566D01*
X142012355Y-85158568D01*
X142060030Y-85305298D01*
X142060031Y-85305301D01*
X142062207Y-85311997D01*
X142148422Y-85456623D01*
X142153273Y-85461717D01*
X142153276Y-85461721D01*
X142259678Y-85573454D01*
X142259680Y-85573455D01*
X142264535Y-85578554D01*
X142289188Y-85594934D01*
X142398915Y-85667836D01*
X142404777Y-85671731D01*
X142562177Y-85731521D01*
X142692555Y-85749845D01*
X142724990Y-85754404D01*
X142724994Y-85754404D01*
X142728912Y-85754955D01*
X142750000Y-85755249D01*
X142917324Y-85736481D01*
X143076332Y-85681108D01*
X143219121Y-85591884D01*
X143224120Y-85586920D01*
X143229641Y-85582544D01*
X143230453Y-85583568D01*
X143286381Y-85553286D01*
X143312729Y-85550500D01*
X145153166Y-85550500D01*
X145221287Y-85570502D01*
X145242261Y-85587405D01*
X145389261Y-85734405D01*
X145423287Y-85796717D01*
X145418222Y-85867532D01*
X145375675Y-85924368D01*
X145309155Y-85949179D01*
X145300166Y-85949500D01*
X143514993Y-85949500D01*
X143509717Y-85949389D01*
X143447706Y-85946790D01*
X143439341Y-85948752D01*
X143405338Y-85956727D01*
X143393667Y-85958890D01*
X143350568Y-85964794D01*
X143342684Y-85968206D01*
X143342683Y-85968206D01*
X143336770Y-85970765D01*
X143315501Y-85977799D01*
X143300864Y-85981232D01*
X143293339Y-85985369D01*
X143293336Y-85985370D01*
X143262732Y-86002195D01*
X143252087Y-86007411D01*
X143212145Y-86024695D01*
X143200459Y-86034158D01*
X143181875Y-86046645D01*
X143168692Y-86053893D01*
X143160578Y-86060897D01*
X143136042Y-86085433D01*
X143126241Y-86094258D01*
X143101608Y-86114206D01*
X143094930Y-86119614D01*
X143089956Y-86126613D01*
X143089955Y-86126614D01*
X143084034Y-86134946D01*
X143070424Y-86151051D01*
X142910328Y-86311148D01*
X142754868Y-86466608D01*
X142692555Y-86500633D01*
X142678067Y-86502912D01*
X142592975Y-86511255D01*
X142433209Y-86564402D01*
X142289188Y-86651624D01*
X142284125Y-86656513D01*
X142284124Y-86656514D01*
X142221174Y-86717305D01*
X142168071Y-86768586D01*
X142164212Y-86774483D01*
X142079734Y-86903577D01*
X142079732Y-86903581D01*
X142075875Y-86909475D01*
X142017185Y-87067289D01*
X142016254Y-87074270D01*
X142016253Y-87074272D01*
X142010177Y-87119812D01*
X141994917Y-87234183D01*
X141995555Y-87241194D01*
X141995555Y-87241198D01*
X142009538Y-87394843D01*
X142010177Y-87401864D01*
X142012355Y-87408566D01*
X142012355Y-87408568D01*
X142060030Y-87555298D01*
X142060031Y-87555301D01*
X142062207Y-87561997D01*
X142148422Y-87706623D01*
X142153273Y-87711717D01*
X142153276Y-87711721D01*
X142259678Y-87823454D01*
X142259680Y-87823455D01*
X142264535Y-87828554D01*
X142289188Y-87844934D01*
X142398915Y-87917836D01*
X142404777Y-87921731D01*
X142562177Y-87981521D01*
X142692555Y-87999845D01*
X142724990Y-88004404D01*
X142724994Y-88004404D01*
X142728912Y-88004955D01*
X142750000Y-88005249D01*
X142917324Y-87986481D01*
X143076332Y-87931108D01*
X143219121Y-87841884D01*
X143230453Y-87830631D01*
X143333597Y-87728205D01*
X143333600Y-87728201D01*
X143338594Y-87723242D01*
X143428813Y-87581079D01*
X143439341Y-87551513D01*
X143482932Y-87429097D01*
X143482933Y-87429092D01*
X143485294Y-87422462D01*
X143497625Y-87319055D01*
X143525553Y-87253782D01*
X143533644Y-87244880D01*
X143691119Y-87087405D01*
X143753431Y-87053379D01*
X143780214Y-87050500D01*
X145436463Y-87050500D01*
X145504584Y-87070502D01*
X145512226Y-87076129D01*
X145514535Y-87078554D01*
X145654777Y-87171731D01*
X145812177Y-87231521D01*
X145978912Y-87254955D01*
X146000000Y-87255249D01*
X146003923Y-87254809D01*
X146160328Y-87237266D01*
X146160331Y-87237265D01*
X146167324Y-87236481D01*
X146326332Y-87181108D01*
X146469121Y-87091884D01*
X146500734Y-87060491D01*
X146519323Y-87042032D01*
X146581754Y-87008226D01*
X146652551Y-87013538D01*
X146697201Y-87042344D01*
X147418768Y-87763911D01*
X147452794Y-87826223D01*
X147447729Y-87897038D01*
X147423204Y-87934470D01*
X147424477Y-87935523D01*
X147419990Y-87940947D01*
X147414920Y-87945843D01*
X147411062Y-87951739D01*
X147326583Y-88080834D01*
X147326581Y-88080838D01*
X147322724Y-88086732D01*
X147264034Y-88244546D01*
X147263103Y-88251527D01*
X147263102Y-88251529D01*
X147257026Y-88297069D01*
X147241766Y-88411440D01*
X147242404Y-88418451D01*
X147242404Y-88418455D01*
X147256387Y-88572100D01*
X147257026Y-88579121D01*
X147259204Y-88585823D01*
X147259204Y-88585825D01*
X147306879Y-88732555D01*
X147306880Y-88732558D01*
X147309056Y-88739254D01*
X147395271Y-88883880D01*
X147400122Y-88888974D01*
X147400125Y-88888978D01*
X147506527Y-89000711D01*
X147506529Y-89000712D01*
X147511384Y-89005811D01*
X147534124Y-89020920D01*
X147645764Y-89095093D01*
X147651626Y-89098988D01*
X147809026Y-89158778D01*
X147975761Y-89182212D01*
X147996849Y-89182506D01*
X148164173Y-89163738D01*
X148323181Y-89108365D01*
X148329152Y-89104634D01*
X148329156Y-89104632D01*
X148385145Y-89069646D01*
X148451914Y-89050500D01*
X162485007Y-89050500D01*
X162490283Y-89050611D01*
X162543709Y-89052850D01*
X162552294Y-89053210D01*
X162560659Y-89051248D01*
X162594662Y-89043273D01*
X162606333Y-89041110D01*
X162640919Y-89036372D01*
X162649432Y-89035206D01*
X162663230Y-89029235D01*
X162684499Y-89022201D01*
X162690772Y-89020730D01*
X162690774Y-89020729D01*
X162699136Y-89018768D01*
X162706664Y-89014630D01*
X162710245Y-89013255D01*
X162748345Y-89005226D01*
X162750000Y-89005249D01*
X162832464Y-88995999D01*
X162910328Y-88987266D01*
X162910331Y-88987265D01*
X162917324Y-88986481D01*
X163076278Y-88931127D01*
X163117715Y-88924118D01*
X165186717Y-88924118D01*
X165254838Y-88944120D01*
X165262480Y-88949747D01*
X165264789Y-88952172D01*
X165405031Y-89045349D01*
X165562431Y-89105139D01*
X165699980Y-89124471D01*
X165725244Y-89128022D01*
X165725248Y-89128022D01*
X165729166Y-89128573D01*
X165750254Y-89128867D01*
X165917578Y-89110099D01*
X166076586Y-89054726D01*
X166219375Y-88965502D01*
X166227593Y-88957341D01*
X166333851Y-88851823D01*
X166333854Y-88851819D01*
X166338848Y-88846860D01*
X166346877Y-88834209D01*
X166388306Y-88768926D01*
X166429067Y-88704697D01*
X166485548Y-88546080D01*
X166486381Y-88539092D01*
X166486382Y-88539089D01*
X166497703Y-88444150D01*
X166505485Y-88378891D01*
X166504749Y-88371888D01*
X166504749Y-88371887D01*
X166499961Y-88326330D01*
X166487885Y-88211439D01*
X166485616Y-88204773D01*
X166485615Y-88204770D01*
X166435894Y-88058716D01*
X166435893Y-88058713D01*
X166433624Y-88052049D01*
X166429936Y-88046054D01*
X166429934Y-88046050D01*
X166349089Y-87914639D01*
X166349087Y-87914637D01*
X166345398Y-87908640D01*
X166227593Y-87788342D01*
X166086064Y-87697133D01*
X165927845Y-87639545D01*
X165760799Y-87618443D01*
X165753792Y-87619130D01*
X165753789Y-87619130D01*
X165703256Y-87624085D01*
X165593229Y-87634873D01*
X165433463Y-87688020D01*
X165427441Y-87691667D01*
X165427439Y-87691668D01*
X165368946Y-87727093D01*
X165289442Y-87775242D01*
X165284378Y-87780132D01*
X165284377Y-87780133D01*
X165276483Y-87787756D01*
X165213585Y-87820688D01*
X165188957Y-87823118D01*
X164826421Y-87823118D01*
X164758300Y-87803116D01*
X164711807Y-87749460D01*
X164701703Y-87679186D01*
X164731197Y-87614606D01*
X164737314Y-87608034D01*
X165527671Y-86817677D01*
X165589982Y-86783653D01*
X165602720Y-86781558D01*
X165692977Y-86771434D01*
X165699980Y-86770649D01*
X165754177Y-86751776D01*
X165852334Y-86717593D01*
X165858988Y-86715276D01*
X166001777Y-86626052D01*
X166009995Y-86617891D01*
X166116253Y-86512373D01*
X166116256Y-86512369D01*
X166121250Y-86507410D01*
X166126639Y-86498919D01*
X166204271Y-86376589D01*
X166211469Y-86365247D01*
X166267950Y-86206630D01*
X166268783Y-86199642D01*
X166268784Y-86199639D01*
X166279894Y-86106468D01*
X166287887Y-86039441D01*
X166287151Y-86032438D01*
X166287151Y-86032437D01*
X166282363Y-85986880D01*
X166270287Y-85871989D01*
X166268018Y-85865323D01*
X166268017Y-85865320D01*
X166218296Y-85719266D01*
X166218295Y-85719263D01*
X166216026Y-85712599D01*
X166212338Y-85706604D01*
X166212336Y-85706600D01*
X166131491Y-85575189D01*
X166131489Y-85575187D01*
X166127800Y-85569190D01*
X166009995Y-85448892D01*
X165868466Y-85357683D01*
X165710247Y-85300095D01*
X165543201Y-85278993D01*
X165536194Y-85279680D01*
X165536191Y-85279680D01*
X165527669Y-85280516D01*
X165375631Y-85295423D01*
X165215865Y-85348570D01*
X165209843Y-85352217D01*
X165209841Y-85352218D01*
X165186717Y-85366223D01*
X165071844Y-85435792D01*
X164950727Y-85552754D01*
X164946868Y-85558651D01*
X164862390Y-85687745D01*
X164862388Y-85687749D01*
X164858531Y-85693643D01*
X164799841Y-85851457D01*
X164798910Y-85858438D01*
X164798909Y-85858440D01*
X164792960Y-85903027D01*
X164784387Y-85967278D01*
X164755553Y-86032155D01*
X164748590Y-86039709D01*
X163861587Y-86926712D01*
X163799275Y-86960738D01*
X163772492Y-86963617D01*
X160078184Y-86963617D01*
X160010063Y-86943615D01*
X159988161Y-86925775D01*
X159977339Y-86914724D01*
X159835810Y-86823515D01*
X159677591Y-86765927D01*
X159510545Y-86744825D01*
X159503538Y-86745512D01*
X159503535Y-86745512D01*
X159474990Y-86748311D01*
X159342975Y-86761255D01*
X159183209Y-86814402D01*
X159177187Y-86818049D01*
X159177185Y-86818050D01*
X159096558Y-86866880D01*
X159039188Y-86901624D01*
X159034125Y-86906513D01*
X159034124Y-86906514D01*
X158987631Y-86951412D01*
X158918071Y-87018586D01*
X158914212Y-87024483D01*
X158829734Y-87153577D01*
X158829732Y-87153581D01*
X158825875Y-87159475D01*
X158767185Y-87317289D01*
X158766254Y-87324270D01*
X158766253Y-87324272D01*
X158760177Y-87369812D01*
X158744917Y-87484183D01*
X158745555Y-87491194D01*
X158745555Y-87491198D01*
X158759538Y-87644843D01*
X158760177Y-87651864D01*
X158762355Y-87658566D01*
X158762355Y-87658568D01*
X158784267Y-87726006D01*
X158803294Y-87784566D01*
X158805322Y-87855531D01*
X158768659Y-87916329D01*
X158704947Y-87947655D01*
X158683461Y-87949500D01*
X157064761Y-87949500D01*
X156996640Y-87929498D01*
X156950147Y-87875842D01*
X156940043Y-87805568D01*
X156946061Y-87781236D01*
X156984794Y-87672462D01*
X156985627Y-87665474D01*
X156985628Y-87665471D01*
X156996738Y-87572300D01*
X157004731Y-87505273D01*
X157003995Y-87498270D01*
X157003995Y-87498269D01*
X157000000Y-87460261D01*
X156987131Y-87337821D01*
X156984862Y-87331155D01*
X156984861Y-87331152D01*
X156935140Y-87185098D01*
X156935139Y-87185095D01*
X156932870Y-87178431D01*
X156929182Y-87172436D01*
X156929180Y-87172432D01*
X156848335Y-87041021D01*
X156848333Y-87041019D01*
X156844644Y-87035022D01*
X156806748Y-86996324D01*
X156740425Y-86928598D01*
X156726839Y-86914724D01*
X156585310Y-86823515D01*
X156578690Y-86821105D01*
X156578687Y-86821104D01*
X156545211Y-86808920D01*
X156427091Y-86765927D01*
X156260045Y-86744825D01*
X156253038Y-86745512D01*
X156253035Y-86745512D01*
X156244917Y-86746308D01*
X156092475Y-86761255D01*
X155932709Y-86814402D01*
X155926687Y-86818049D01*
X155926685Y-86818050D01*
X155804020Y-86892339D01*
X155788688Y-86901624D01*
X155783624Y-86906514D01*
X155783623Y-86906515D01*
X155775729Y-86914138D01*
X155712831Y-86947070D01*
X155688203Y-86949500D01*
X148213597Y-86949500D01*
X148145476Y-86929498D01*
X148124502Y-86912596D01*
X147754397Y-86542492D01*
X147455411Y-86243506D01*
X147421386Y-86181193D01*
X147426450Y-86110378D01*
X147465550Y-86056616D01*
X147469121Y-86054384D01*
X147482068Y-86041527D01*
X147583597Y-85940705D01*
X147583600Y-85940701D01*
X147588594Y-85935742D01*
X147678813Y-85793579D01*
X147735294Y-85634962D01*
X147736127Y-85627974D01*
X147736128Y-85627971D01*
X147747238Y-85534800D01*
X147755231Y-85467773D01*
X147754495Y-85460770D01*
X147754495Y-85460769D01*
X147749707Y-85415212D01*
X147737631Y-85300321D01*
X147735362Y-85293655D01*
X147735361Y-85293652D01*
X147689892Y-85160089D01*
X147683370Y-85140931D01*
X147669182Y-85117869D01*
X147650500Y-85051848D01*
X147650500Y-83571636D01*
X147670502Y-83503515D01*
X147687405Y-83482541D01*
X148171683Y-82998263D01*
X148219340Y-82968367D01*
X148316530Y-82934521D01*
X148326332Y-82931108D01*
X148469121Y-82841884D01*
X148477339Y-82833723D01*
X148583597Y-82728205D01*
X148583600Y-82728201D01*
X148588594Y-82723242D01*
X148678813Y-82581079D01*
X148735294Y-82422462D01*
X148736127Y-82415474D01*
X148736128Y-82415471D01*
X148749827Y-82300590D01*
X148755231Y-82255273D01*
X148754495Y-82248270D01*
X148754495Y-82248269D01*
X148749827Y-82203858D01*
X148737631Y-82087821D01*
X148735362Y-82081155D01*
X148735361Y-82081152D01*
X148685640Y-81935098D01*
X148685639Y-81935095D01*
X148683370Y-81928431D01*
X148679682Y-81922436D01*
X148679680Y-81922432D01*
X148598835Y-81791021D01*
X148598833Y-81791019D01*
X148595144Y-81785022D01*
X148477339Y-81664724D01*
X148335810Y-81573515D01*
X148329190Y-81571105D01*
X148329187Y-81571104D01*
X148256701Y-81544721D01*
X148177591Y-81515927D01*
X148010545Y-81494825D01*
X148010545Y-55400500D01*
X155380000Y-55400500D01*
X155380000Y-63704723D01*
X155162023Y-63723793D01*
X154950670Y-63780425D01*
X154945690Y-63782747D01*
X154945688Y-63782748D01*
X154767449Y-63865863D01*
X154752362Y-63872898D01*
X154573123Y-63998402D01*
X154418402Y-64153123D01*
X154415245Y-64157631D01*
X154415243Y-64157634D01*
X154296055Y-64327852D01*
X154292898Y-64332361D01*
X154290575Y-64337343D01*
X154290572Y-64337348D01*
X154202748Y-64525688D01*
X154200425Y-64530670D01*
X154199003Y-64535978D01*
X154199002Y-64535980D01*
X154182291Y-64598347D01*
X154143793Y-64742023D01*
X154124723Y-64960000D01*
X154143793Y-65177977D01*
X154182291Y-65321653D01*
X154199002Y-65384020D01*
X154199003Y-65384022D01*
X154200425Y-65389330D01*
X154202748Y-65394312D01*
X154290572Y-65582652D01*
X154290575Y-65582657D01*
X154292898Y-65587639D01*
X154296055Y-65592148D01*
X154415243Y-65762366D01*
X154415245Y-65762369D01*
X154418402Y-65766877D01*
X154573123Y-65921598D01*
X154723121Y-66026627D01*
X154767449Y-66082082D01*
X154774758Y-66152702D01*
X154742728Y-66216062D01*
X154681527Y-66252048D01*
X154681297Y-66252098D01*
X154677431Y-66252402D01*
X154671251Y-66254197D01*
X154671248Y-66254198D01*
X154569228Y-66283838D01*
X154519602Y-66298256D01*
X154378135Y-66381919D01*
X154261919Y-66498135D01*
X154178256Y-66639602D01*
X154176045Y-66647214D01*
X154176044Y-66647215D01*
X154171002Y-66664570D01*
X154132402Y-66797431D01*
X154131367Y-66810584D01*
X154129693Y-66831847D01*
X154129692Y-66831860D01*
X154129500Y-66834306D01*
X154129500Y-68165694D01*
X154129692Y-68168140D01*
X154129693Y-68168153D01*
X154131367Y-68189416D01*
X154132402Y-68202569D01*
X154171002Y-68335430D01*
X154176044Y-68352785D01*
X154176045Y-68352786D01*
X154178256Y-68360398D01*
X154261919Y-68501865D01*
X154378135Y-68618081D01*
X154519602Y-68701744D01*
X154573123Y-68717294D01*
X154671246Y-68745801D01*
X154677431Y-68747598D01*
X154696245Y-68749079D01*
X154711847Y-68750307D01*
X154711860Y-68750308D01*
X154714306Y-68750500D01*
X156045694Y-68750500D01*
X156048140Y-68750308D01*
X156048153Y-68750307D01*
X156076150Y-68748103D01*
X156082569Y-68747598D01*
X156182365Y-68718604D01*
X156232785Y-68703956D01*
X156232786Y-68703955D01*
X156240398Y-68701744D01*
X156266253Y-68686454D01*
X156375044Y-68622115D01*
X156381865Y-68618081D01*
X156498081Y-68501865D01*
X156502115Y-68495044D01*
X156577709Y-68367221D01*
X156577709Y-68367220D01*
X156581744Y-68360398D01*
X156583955Y-68352786D01*
X156583956Y-68352785D01*
X156614783Y-68246678D01*
X156627598Y-68202569D01*
X156628120Y-68202721D01*
X156658124Y-68143098D01*
X156719259Y-68107000D01*
X156790205Y-68109685D01*
X156848437Y-68150299D01*
X156853373Y-68156881D01*
X156955243Y-68302366D01*
X156955245Y-68302369D01*
X156958402Y-68306877D01*
X157113123Y-68461598D01*
X157292362Y-68587102D01*
X157319152Y-68599595D01*
X157485688Y-68677252D01*
X157485690Y-68677253D01*
X157490670Y-68679575D01*
X157496053Y-68681018D01*
X157660328Y-68725035D01*
X157702023Y-68736207D01*
X157920000Y-68755277D01*
X158137977Y-68736207D01*
X158260545Y-68703365D01*
X158260545Y-73994825D01*
X158253538Y-73995512D01*
X158253535Y-73995512D01*
X158185640Y-74002169D01*
X158092975Y-74011255D01*
X157933209Y-74064402D01*
X157927187Y-74068049D01*
X157927185Y-74068050D01*
X157819678Y-74133159D01*
X157789188Y-74151624D01*
X157668071Y-74268586D01*
X157664212Y-74274483D01*
X157579734Y-74403577D01*
X157579732Y-74403581D01*
X157575875Y-74409475D01*
X157517185Y-74567289D01*
X157516254Y-74574270D01*
X157516253Y-74574272D01*
X157510545Y-74617054D01*
X157494917Y-74734183D01*
X157495555Y-74741194D01*
X157495555Y-74741198D01*
X157509538Y-74894843D01*
X157510177Y-74901864D01*
X157512355Y-74908566D01*
X157512355Y-74908568D01*
X157560030Y-75055298D01*
X157560031Y-75055301D01*
X157562207Y-75061997D01*
X157581729Y-75094745D01*
X157599500Y-75159263D01*
X157599500Y-77928364D01*
X157579498Y-77996485D01*
X157562595Y-78017459D01*
X156827810Y-78752244D01*
X156778487Y-78782707D01*
X156760177Y-78788798D01*
X156683209Y-78814402D01*
X156677187Y-78818049D01*
X156677185Y-78818050D01*
X156578687Y-78877703D01*
X156539188Y-78901624D01*
X156534125Y-78906513D01*
X156534124Y-78906514D01*
X156502115Y-78937425D01*
X156418071Y-79018586D01*
X156414212Y-79024483D01*
X156329734Y-79153577D01*
X156329732Y-79153581D01*
X156325875Y-79159475D01*
X156267185Y-79317289D01*
X156266254Y-79324270D01*
X156266253Y-79324272D01*
X156260177Y-79369812D01*
X156244917Y-79484183D01*
X156245555Y-79491194D01*
X156245555Y-79491198D01*
X156259538Y-79644843D01*
X156260177Y-79651864D01*
X156262355Y-79658566D01*
X156262355Y-79658568D01*
X156310030Y-79805298D01*
X156310031Y-79805301D01*
X156312207Y-79811997D01*
X156398422Y-79956623D01*
X156403273Y-79961717D01*
X156403276Y-79961721D01*
X156509678Y-80073454D01*
X156509680Y-80073455D01*
X156514535Y-80078554D01*
X156539188Y-80094934D01*
X156648915Y-80167836D01*
X156654777Y-80171731D01*
X156812177Y-80231521D01*
X156923139Y-80247116D01*
X156974990Y-80254404D01*
X156974994Y-80254404D01*
X156978912Y-80254955D01*
X157000000Y-80255249D01*
X157020400Y-80252961D01*
X157160328Y-80237266D01*
X157160331Y-80237265D01*
X157167324Y-80236481D01*
X157326332Y-80181108D01*
X157469121Y-80091884D01*
X157482872Y-80078229D01*
X157510545Y-80050749D01*
X157510545Y-80494825D01*
X157503538Y-80495512D01*
X157503535Y-80495512D01*
X157463147Y-80499472D01*
X157342975Y-80511255D01*
X157183209Y-80564402D01*
X157177187Y-80568049D01*
X157177185Y-80568050D01*
X157099702Y-80614976D01*
X157039188Y-80651624D01*
X157034125Y-80656513D01*
X157034124Y-80656514D01*
X156984861Y-80704087D01*
X156918071Y-80768586D01*
X156914212Y-80774483D01*
X156829734Y-80903577D01*
X156829732Y-80903581D01*
X156825875Y-80909475D01*
X156767185Y-81067289D01*
X156766254Y-81074270D01*
X156766253Y-81074272D01*
X156760177Y-81119812D01*
X156744917Y-81234183D01*
X156745555Y-81241194D01*
X156745555Y-81241198D01*
X156759538Y-81394843D01*
X156760177Y-81401864D01*
X156762355Y-81408566D01*
X156762355Y-81408568D01*
X156810030Y-81555298D01*
X156810031Y-81555301D01*
X156812207Y-81561997D01*
X156831729Y-81594745D01*
X156849500Y-81659263D01*
X156849500Y-85085810D01*
X156831397Y-85146529D01*
X156832908Y-85147292D01*
X156829728Y-85153588D01*
X156825875Y-85159475D01*
X156823423Y-85166067D01*
X156823422Y-85166070D01*
X156814727Y-85189451D01*
X156767185Y-85317289D01*
X156766254Y-85324270D01*
X156766253Y-85324272D01*
X156760177Y-85369812D01*
X156744917Y-85484183D01*
X156745555Y-85491194D01*
X156745555Y-85491198D01*
X156759538Y-85644843D01*
X156760177Y-85651864D01*
X156762355Y-85658566D01*
X156762355Y-85658568D01*
X156810030Y-85805298D01*
X156810031Y-85805301D01*
X156812207Y-85811997D01*
X156898422Y-85956623D01*
X156903273Y-85961717D01*
X156903276Y-85961721D01*
X157009678Y-86073454D01*
X157009680Y-86073455D01*
X157014535Y-86078554D01*
X157039188Y-86094934D01*
X157130927Y-86155885D01*
X157154777Y-86171731D01*
X157181009Y-86181696D01*
X157305591Y-86229019D01*
X157312177Y-86231521D01*
X157478912Y-86254955D01*
X157500000Y-86255249D01*
X157509538Y-86254179D01*
X157660328Y-86237266D01*
X157660331Y-86237265D01*
X157667324Y-86236481D01*
X157826332Y-86181108D01*
X157969121Y-86091884D01*
X157977339Y-86083723D01*
X158083597Y-85978205D01*
X158083600Y-85978201D01*
X158088594Y-85973242D01*
X158099984Y-85955295D01*
X158132498Y-85904060D01*
X158178813Y-85831079D01*
X158235294Y-85672462D01*
X158236127Y-85665474D01*
X158236128Y-85665471D01*
X158247238Y-85572300D01*
X158255231Y-85505273D01*
X158254495Y-85498270D01*
X158254495Y-85498269D01*
X158249707Y-85452712D01*
X158237631Y-85337821D01*
X158235362Y-85331155D01*
X158235361Y-85331152D01*
X158185640Y-85185099D01*
X158183370Y-85178431D01*
X158169182Y-85155369D01*
X158150500Y-85089348D01*
X158150500Y-81662299D01*
X158170113Y-81594788D01*
X158178813Y-81581079D01*
X158235294Y-81422462D01*
X158236127Y-81415474D01*
X158236128Y-81415471D01*
X158247238Y-81322300D01*
X158255231Y-81255273D01*
X158254495Y-81248270D01*
X158254495Y-81248269D01*
X158249707Y-81202712D01*
X158237631Y-81087821D01*
X158235362Y-81081155D01*
X158235361Y-81081152D01*
X158185640Y-80935098D01*
X158185639Y-80935095D01*
X158183370Y-80928431D01*
X158179682Y-80922436D01*
X158179680Y-80922432D01*
X158098835Y-80791021D01*
X158098833Y-80791019D01*
X158095144Y-80785022D01*
X157977339Y-80664724D01*
X157835810Y-80573515D01*
X157829190Y-80571105D01*
X157829187Y-80571104D01*
X157756701Y-80544721D01*
X157677591Y-80515927D01*
X157510545Y-80494825D01*
X157510545Y-80050749D01*
X157583597Y-79978205D01*
X157583600Y-79978201D01*
X157588594Y-79973242D01*
X157678813Y-79831079D01*
X157719028Y-79718142D01*
X157748632Y-79671314D01*
X158652698Y-78767248D01*
X158661315Y-78759407D01*
X158667940Y-78755202D01*
X158704947Y-78715794D01*
X158715849Y-78704184D01*
X158718604Y-78701342D01*
X158738911Y-78681035D01*
X158741340Y-78677904D01*
X158741345Y-78677898D01*
X158741558Y-78677623D01*
X158749255Y-78668610D01*
X158780448Y-78635393D01*
X158785573Y-78626071D01*
X158790596Y-78616934D01*
X158801450Y-78600410D01*
X158809504Y-78590027D01*
X158809505Y-78590026D01*
X158814362Y-78583764D01*
X158832455Y-78541952D01*
X158837670Y-78531307D01*
X158859627Y-78491368D01*
X158861598Y-78483689D01*
X158861599Y-78483688D01*
X158864867Y-78470959D01*
X158871273Y-78452250D01*
X158876488Y-78440200D01*
X158876490Y-78440195D01*
X158879635Y-78432926D01*
X158886762Y-78387930D01*
X158889169Y-78376310D01*
X158898528Y-78339860D01*
X158898529Y-78339855D01*
X158900500Y-78332177D01*
X158900500Y-78311116D01*
X158902051Y-78291404D01*
X158903276Y-78283670D01*
X158905347Y-78270595D01*
X158902460Y-78240053D01*
X158901059Y-78225235D01*
X158900500Y-78213377D01*
X158900500Y-75162299D01*
X158920113Y-75094788D01*
X158928813Y-75081079D01*
X158985294Y-74922462D01*
X158986127Y-74915474D01*
X158986128Y-74915471D01*
X158997238Y-74822300D01*
X159005231Y-74755273D01*
X159004495Y-74748270D01*
X159004495Y-74748269D01*
X158999707Y-74702712D01*
X158987631Y-74587821D01*
X158985362Y-74581155D01*
X158985361Y-74581152D01*
X158935640Y-74435098D01*
X158935639Y-74435095D01*
X158933370Y-74428431D01*
X158929682Y-74422436D01*
X158929680Y-74422432D01*
X158848835Y-74291021D01*
X158848833Y-74291019D01*
X158845144Y-74285022D01*
X158823419Y-74262837D01*
X158745849Y-74183626D01*
X158727339Y-74164724D01*
X158585810Y-74073515D01*
X158427591Y-74015927D01*
X158260545Y-73994825D01*
X158260545Y-68703365D01*
X158349330Y-68679575D01*
X158547638Y-68587102D01*
X158726877Y-68461598D01*
X158881598Y-68306877D01*
X158884755Y-68302369D01*
X158884757Y-68302366D01*
X159003945Y-68132148D01*
X159003947Y-68132145D01*
X159007102Y-68127639D01*
X159009425Y-68122657D01*
X159009428Y-68122652D01*
X159075805Y-67980305D01*
X159122722Y-67927020D01*
X159191000Y-67907559D01*
X159258960Y-67928101D01*
X159304195Y-67980305D01*
X159370572Y-68122652D01*
X159370575Y-68122657D01*
X159372898Y-68127639D01*
X159395158Y-68159430D01*
X159495243Y-68302366D01*
X159495245Y-68302369D01*
X159498402Y-68306877D01*
X159510545Y-68319020D01*
X159510545Y-80544325D01*
X159503538Y-80545012D01*
X159503535Y-80545012D01*
X159474990Y-80547811D01*
X159342975Y-80560755D01*
X159183209Y-80613902D01*
X159177187Y-80617549D01*
X159177185Y-80617550D01*
X159096558Y-80666380D01*
X159039188Y-80701124D01*
X159034125Y-80706013D01*
X159034124Y-80706014D01*
X158987631Y-80750912D01*
X158918071Y-80818086D01*
X158914212Y-80823983D01*
X158829734Y-80953077D01*
X158829732Y-80953081D01*
X158825875Y-80958975D01*
X158767185Y-81116789D01*
X158766254Y-81123770D01*
X158766253Y-81123772D01*
X158760177Y-81169312D01*
X158744917Y-81283683D01*
X158745555Y-81290694D01*
X158745555Y-81290698D01*
X158759538Y-81444343D01*
X158760177Y-81451364D01*
X158762355Y-81458066D01*
X158762355Y-81458068D01*
X158810030Y-81604798D01*
X158810031Y-81604801D01*
X158812207Y-81611497D01*
X158831729Y-81644245D01*
X158849500Y-81708763D01*
X158849500Y-85085810D01*
X158831397Y-85146529D01*
X158832908Y-85147292D01*
X158829728Y-85153588D01*
X158825875Y-85159475D01*
X158823423Y-85166067D01*
X158823422Y-85166070D01*
X158805322Y-85214741D01*
X158767185Y-85317289D01*
X158766254Y-85324270D01*
X158766253Y-85324272D01*
X158760177Y-85369812D01*
X158744917Y-85484183D01*
X158745555Y-85491194D01*
X158745555Y-85491198D01*
X158759538Y-85644843D01*
X158760177Y-85651864D01*
X158762355Y-85658566D01*
X158762355Y-85658568D01*
X158810030Y-85805298D01*
X158810031Y-85805301D01*
X158812207Y-85811997D01*
X158898422Y-85956623D01*
X158903273Y-85961717D01*
X158903276Y-85961721D01*
X159009678Y-86073454D01*
X159009680Y-86073455D01*
X159014535Y-86078554D01*
X159039188Y-86094934D01*
X159121040Y-86149316D01*
X159154777Y-86171731D01*
X159204723Y-86190704D01*
X159220136Y-86196558D01*
X159312177Y-86231521D01*
X159478912Y-86254955D01*
X159500000Y-86255249D01*
X159667324Y-86236481D01*
X159826332Y-86181108D01*
X159969121Y-86091884D01*
X159977339Y-86083723D01*
X160083597Y-85978205D01*
X160083600Y-85978201D01*
X160088594Y-85973242D01*
X160178813Y-85831079D01*
X160235294Y-85672462D01*
X160236127Y-85665474D01*
X160236128Y-85665471D01*
X160247502Y-85570087D01*
X160255231Y-85505273D01*
X160254495Y-85498270D01*
X160254495Y-85498269D01*
X160249707Y-85452712D01*
X160237631Y-85337821D01*
X160235362Y-85331155D01*
X160235361Y-85331152D01*
X160185640Y-85185099D01*
X160183370Y-85178431D01*
X160169182Y-85155369D01*
X160150500Y-85089348D01*
X160150500Y-81711799D01*
X160170113Y-81644288D01*
X160178813Y-81630579D01*
X160235294Y-81471962D01*
X160236127Y-81464974D01*
X160236128Y-81464971D01*
X160247502Y-81369587D01*
X160255231Y-81304773D01*
X160254495Y-81297770D01*
X160254495Y-81297769D01*
X160249707Y-81252212D01*
X160237631Y-81137321D01*
X160235362Y-81130655D01*
X160235361Y-81130652D01*
X160185640Y-80984598D01*
X160185639Y-80984595D01*
X160183370Y-80977931D01*
X160179682Y-80971936D01*
X160179680Y-80971932D01*
X160098835Y-80840521D01*
X160098833Y-80840519D01*
X160095144Y-80834522D01*
X160083597Y-80822731D01*
X159997072Y-80734375D01*
X159977339Y-80714224D01*
X159835810Y-80623015D01*
X159677591Y-80565427D01*
X159510545Y-80544325D01*
X159510545Y-68319020D01*
X159653123Y-68461598D01*
X159832362Y-68587102D01*
X159963147Y-68648089D01*
X160025688Y-68677252D01*
X160025690Y-68677253D01*
X160030670Y-68679575D01*
X160242023Y-68736207D01*
X160460000Y-68755277D01*
X160677977Y-68736207D01*
X160832908Y-68694693D01*
X160884020Y-68680998D01*
X160884022Y-68680997D01*
X160889330Y-68679575D01*
X161087638Y-68587102D01*
X161266877Y-68461598D01*
X161421598Y-68306877D01*
X161424755Y-68302369D01*
X161424757Y-68302366D01*
X161510545Y-68179848D01*
X161510545Y-80494825D01*
X161503538Y-80495512D01*
X161503535Y-80495512D01*
X161474990Y-80498311D01*
X161342975Y-80511255D01*
X161183209Y-80564402D01*
X161177187Y-80568049D01*
X161177185Y-80568050D01*
X161087638Y-80622282D01*
X161039188Y-80651624D01*
X161034125Y-80656513D01*
X161034124Y-80656514D01*
X160960280Y-80727825D01*
X160918071Y-80768586D01*
X160914212Y-80774483D01*
X160829734Y-80903577D01*
X160829732Y-80903581D01*
X160825875Y-80909475D01*
X160767185Y-81067289D01*
X160766254Y-81074270D01*
X160766253Y-81074272D01*
X160760177Y-81119812D01*
X160744917Y-81234183D01*
X160745555Y-81241194D01*
X160745555Y-81241198D01*
X160759538Y-81394843D01*
X160760177Y-81401864D01*
X160762355Y-81408566D01*
X160762355Y-81408568D01*
X160810030Y-81555298D01*
X160810031Y-81555301D01*
X160812207Y-81561997D01*
X160831729Y-81594745D01*
X160849500Y-81659263D01*
X160849500Y-85085810D01*
X160831397Y-85146529D01*
X160832908Y-85147292D01*
X160829728Y-85153588D01*
X160825875Y-85159475D01*
X160823423Y-85166067D01*
X160823422Y-85166070D01*
X160812207Y-85196227D01*
X160767185Y-85317289D01*
X160766254Y-85324270D01*
X160766253Y-85324272D01*
X160760177Y-85369812D01*
X160744917Y-85484183D01*
X160745555Y-85491194D01*
X160745555Y-85491198D01*
X160759538Y-85644843D01*
X160760177Y-85651864D01*
X160762355Y-85658566D01*
X160762355Y-85658568D01*
X160810030Y-85805298D01*
X160810031Y-85805301D01*
X160812207Y-85811997D01*
X160898422Y-85956623D01*
X160903273Y-85961717D01*
X160903276Y-85961721D01*
X161009678Y-86073454D01*
X161009680Y-86073455D01*
X161014535Y-86078554D01*
X161039188Y-86094934D01*
X161148915Y-86167836D01*
X161154777Y-86171731D01*
X161312177Y-86231521D01*
X161478912Y-86254955D01*
X161500000Y-86255249D01*
X161549428Y-86249705D01*
X161660328Y-86237266D01*
X161660331Y-86237265D01*
X161667324Y-86236481D01*
X161826332Y-86181108D01*
X161969121Y-86091884D01*
X161977339Y-86083723D01*
X162083597Y-85978205D01*
X162083600Y-85978201D01*
X162088594Y-85973242D01*
X162178813Y-85831079D01*
X162235294Y-85672462D01*
X162236127Y-85665474D01*
X162236128Y-85665471D01*
X162247238Y-85572300D01*
X162255231Y-85505273D01*
X162254495Y-85498270D01*
X162254495Y-85498269D01*
X162249707Y-85452712D01*
X162237631Y-85337821D01*
X162235362Y-85331155D01*
X162235361Y-85331152D01*
X162197635Y-85220334D01*
X162183370Y-85178431D01*
X162169182Y-85155369D01*
X162150500Y-85089348D01*
X162150500Y-81662299D01*
X162170113Y-81594788D01*
X162178813Y-81581079D01*
X162235294Y-81422462D01*
X162236127Y-81415474D01*
X162236128Y-81415471D01*
X162247238Y-81322300D01*
X162255231Y-81255273D01*
X162254495Y-81248270D01*
X162254495Y-81248269D01*
X162249707Y-81202712D01*
X162237631Y-81087821D01*
X162235362Y-81081155D01*
X162235361Y-81081152D01*
X162185640Y-80935098D01*
X162185639Y-80935095D01*
X162183370Y-80928431D01*
X162179682Y-80922436D01*
X162179680Y-80922432D01*
X162098835Y-80791021D01*
X162098833Y-80791019D01*
X162095144Y-80785022D01*
X161977339Y-80664724D01*
X161835810Y-80573515D01*
X161829190Y-80571105D01*
X161829187Y-80571104D01*
X161762355Y-80546779D01*
X161677591Y-80515927D01*
X161510545Y-80494825D01*
X161510545Y-68179848D01*
X161543945Y-68132148D01*
X161543947Y-68132145D01*
X161547102Y-68127639D01*
X161549425Y-68122657D01*
X161549428Y-68122652D01*
X161615805Y-67980305D01*
X161662722Y-67927020D01*
X161731000Y-67907559D01*
X161798960Y-67928101D01*
X161844195Y-67980305D01*
X161910572Y-68122652D01*
X161910575Y-68122657D01*
X161912898Y-68127639D01*
X161974120Y-68215073D01*
X162035243Y-68302366D01*
X162035245Y-68302369D01*
X162038402Y-68306877D01*
X162193123Y-68461598D01*
X162372362Y-68587102D01*
X162474990Y-68634959D01*
X162565688Y-68677252D01*
X162565690Y-68677253D01*
X162570670Y-68679575D01*
X162782023Y-68736207D01*
X163000000Y-68755277D01*
X163217977Y-68736207D01*
X163429330Y-68679575D01*
X163493929Y-68649452D01*
X163622657Y-68589425D01*
X163622660Y-68589423D01*
X163627638Y-68587102D01*
X163760545Y-68494040D01*
X163760545Y-73994825D01*
X163592975Y-74011255D01*
X163433209Y-74064402D01*
X163427187Y-74068049D01*
X163427185Y-74068050D01*
X163324389Y-74130306D01*
X163289188Y-74151624D01*
X163168071Y-74268586D01*
X163164212Y-74274483D01*
X163079734Y-74403577D01*
X163079732Y-74403581D01*
X163075875Y-74409475D01*
X163017185Y-74567289D01*
X163016254Y-74574270D01*
X163016253Y-74574272D01*
X163010177Y-74619812D01*
X162994917Y-74734183D01*
X162995555Y-74741194D01*
X162995555Y-74741198D01*
X163009538Y-74894843D01*
X163010177Y-74901864D01*
X163012355Y-74908566D01*
X163012355Y-74908568D01*
X163060030Y-75055298D01*
X163060031Y-75055301D01*
X163062207Y-75061997D01*
X163081729Y-75094745D01*
X163099500Y-75159263D01*
X163099500Y-77928364D01*
X163079498Y-77996485D01*
X163062595Y-78017459D01*
X162327810Y-78752244D01*
X162278487Y-78782707D01*
X162255231Y-78790443D01*
X162183209Y-78814402D01*
X162177187Y-78818049D01*
X162177185Y-78818050D01*
X162088594Y-78871703D01*
X162039188Y-78901624D01*
X162034125Y-78906513D01*
X162034124Y-78906514D01*
X161982267Y-78956592D01*
X161918071Y-79018586D01*
X161914212Y-79024483D01*
X161829734Y-79153577D01*
X161829732Y-79153581D01*
X161825875Y-79159475D01*
X161767185Y-79317289D01*
X161766254Y-79324270D01*
X161766253Y-79324272D01*
X161760177Y-79369812D01*
X161744917Y-79484183D01*
X161745555Y-79491194D01*
X161745555Y-79491198D01*
X161759538Y-79644843D01*
X161760177Y-79651864D01*
X161762355Y-79658566D01*
X161762355Y-79658568D01*
X161810030Y-79805298D01*
X161810031Y-79805301D01*
X161812207Y-79811997D01*
X161898422Y-79956623D01*
X161903273Y-79961717D01*
X161903276Y-79961721D01*
X162009678Y-80073454D01*
X162009680Y-80073455D01*
X162014535Y-80078554D01*
X162035243Y-80092313D01*
X162148915Y-80167836D01*
X162154777Y-80171731D01*
X162312177Y-80231521D01*
X162478912Y-80254955D01*
X162500000Y-80255249D01*
X162552190Y-80249395D01*
X162660328Y-80237266D01*
X162660331Y-80237265D01*
X162667324Y-80236481D01*
X162826332Y-80181108D01*
X162969121Y-80091884D01*
X162994525Y-80066657D01*
X163083597Y-79978205D01*
X163083600Y-79978201D01*
X163088594Y-79973242D01*
X163117715Y-79927355D01*
X163123681Y-79917953D01*
X163178813Y-79831079D01*
X163219028Y-79718142D01*
X163248632Y-79671314D01*
X164152698Y-78767248D01*
X164161315Y-78759407D01*
X164167940Y-78755202D01*
X164176363Y-78746233D01*
X164215849Y-78704184D01*
X164218604Y-78701342D01*
X164238911Y-78681035D01*
X164241340Y-78677904D01*
X164241345Y-78677898D01*
X164241558Y-78677623D01*
X164249255Y-78668610D01*
X164280448Y-78635393D01*
X164285573Y-78626071D01*
X164290596Y-78616934D01*
X164301450Y-78600410D01*
X164309504Y-78590027D01*
X164309505Y-78590026D01*
X164314362Y-78583764D01*
X164332455Y-78541952D01*
X164337670Y-78531307D01*
X164359627Y-78491368D01*
X164361598Y-78483689D01*
X164361599Y-78483688D01*
X164364867Y-78470959D01*
X164371273Y-78452250D01*
X164376488Y-78440200D01*
X164376490Y-78440195D01*
X164379635Y-78432926D01*
X164386762Y-78387930D01*
X164389169Y-78376310D01*
X164398528Y-78339860D01*
X164398529Y-78339855D01*
X164400500Y-78332177D01*
X164400500Y-78311116D01*
X164402051Y-78291404D01*
X164402258Y-78290098D01*
X164405347Y-78270595D01*
X164404601Y-78262704D01*
X164401059Y-78225235D01*
X164400500Y-78213377D01*
X164400500Y-75162299D01*
X164420113Y-75094788D01*
X164428813Y-75081079D01*
X164485294Y-74922462D01*
X164486127Y-74915474D01*
X164486128Y-74915471D01*
X164497238Y-74822300D01*
X164505231Y-74755273D01*
X164504495Y-74748270D01*
X164504495Y-74748269D01*
X164499707Y-74702712D01*
X164487631Y-74587821D01*
X164485362Y-74581155D01*
X164485361Y-74581152D01*
X164435640Y-74435098D01*
X164435639Y-74435095D01*
X164433370Y-74428431D01*
X164429682Y-74422436D01*
X164429680Y-74422432D01*
X164348835Y-74291021D01*
X164348833Y-74291019D01*
X164345144Y-74285022D01*
X164331067Y-74270647D01*
X164236207Y-74173780D01*
X164227339Y-74164724D01*
X164085810Y-74073515D01*
X163927591Y-74015927D01*
X163760545Y-73994825D01*
X163760545Y-68494040D01*
X163806877Y-68461598D01*
X163961598Y-68306877D01*
X163964755Y-68302369D01*
X163964757Y-68302366D01*
X164083945Y-68132148D01*
X164083947Y-68132145D01*
X164087102Y-68127639D01*
X164089425Y-68122657D01*
X164089428Y-68122652D01*
X164155805Y-67980305D01*
X164202722Y-67927020D01*
X164271000Y-67907559D01*
X164338960Y-67928101D01*
X164384195Y-67980305D01*
X164450572Y-68122652D01*
X164450575Y-68122657D01*
X164452898Y-68127639D01*
X164482931Y-68170531D01*
X164575243Y-68302366D01*
X164575245Y-68302369D01*
X164578402Y-68306877D01*
X164733123Y-68461598D01*
X164912362Y-68587102D01*
X164946868Y-68603193D01*
X165105688Y-68677252D01*
X165105690Y-68677253D01*
X165110670Y-68679575D01*
X165322023Y-68736207D01*
X165540000Y-68755277D01*
X165757977Y-68736207D01*
X165969330Y-68679575D01*
X165974312Y-68677252D01*
X166162657Y-68589425D01*
X166162660Y-68589423D01*
X166167638Y-68587102D01*
X166346877Y-68461598D01*
X166501598Y-68306877D01*
X166504755Y-68302369D01*
X166504757Y-68302366D01*
X166623945Y-68132148D01*
X166623947Y-68132145D01*
X166627102Y-68127639D01*
X166629425Y-68122657D01*
X166629428Y-68122652D01*
X166695805Y-67980305D01*
X166742722Y-67927020D01*
X166811000Y-67907559D01*
X166878960Y-67928101D01*
X166924195Y-67980305D01*
X166990572Y-68122652D01*
X166990575Y-68122657D01*
X166992898Y-68127639D01*
X166996055Y-68132148D01*
X167115243Y-68302366D01*
X167115245Y-68302369D01*
X167118402Y-68306877D01*
X167273123Y-68461598D01*
X167452362Y-68587102D01*
X167534124Y-68625229D01*
X167645688Y-68677252D01*
X167645690Y-68677253D01*
X167650670Y-68679575D01*
X167862023Y-68736207D01*
X168080000Y-68755277D01*
X168297977Y-68736207D01*
X168509330Y-68679575D01*
X168517185Y-68675912D01*
X168702657Y-68589425D01*
X168702660Y-68589423D01*
X168707638Y-68587102D01*
X168886877Y-68461598D01*
X169041598Y-68306877D01*
X169044755Y-68302369D01*
X169044757Y-68302366D01*
X169163945Y-68132148D01*
X169163947Y-68132145D01*
X169167102Y-68127639D01*
X169169425Y-68122657D01*
X169169428Y-68122652D01*
X169235805Y-67980305D01*
X169260545Y-67952207D01*
X169260545Y-73994825D01*
X169253538Y-73995512D01*
X169253535Y-73995512D01*
X169171002Y-74003605D01*
X169092975Y-74011255D01*
X168933209Y-74064402D01*
X168927187Y-74068049D01*
X168927185Y-74068050D01*
X168886877Y-74092462D01*
X168789188Y-74151624D01*
X168668071Y-74268586D01*
X168664212Y-74274483D01*
X168579734Y-74403577D01*
X168579732Y-74403581D01*
X168575875Y-74409475D01*
X168517185Y-74567289D01*
X168516254Y-74574270D01*
X168516253Y-74574272D01*
X168510177Y-74619812D01*
X168494917Y-74734183D01*
X168495555Y-74741194D01*
X168495555Y-74741198D01*
X168509538Y-74894843D01*
X168510177Y-74901864D01*
X168512355Y-74908566D01*
X168512355Y-74908568D01*
X168560030Y-75055298D01*
X168560031Y-75055301D01*
X168562207Y-75061997D01*
X168581729Y-75094745D01*
X168599500Y-75159263D01*
X168599500Y-77928364D01*
X168579498Y-77996485D01*
X168562595Y-78017459D01*
X167827810Y-78752244D01*
X167778487Y-78782707D01*
X167727166Y-78799779D01*
X167683209Y-78814402D01*
X167539188Y-78901624D01*
X167534125Y-78906513D01*
X167534124Y-78906514D01*
X167460280Y-78977825D01*
X167418071Y-79018586D01*
X167414212Y-79024483D01*
X167329734Y-79153577D01*
X167329732Y-79153581D01*
X167325875Y-79159475D01*
X167267185Y-79317289D01*
X167266254Y-79324270D01*
X167266253Y-79324272D01*
X167260177Y-79369812D01*
X167244917Y-79484183D01*
X167245555Y-79491194D01*
X167245555Y-79491198D01*
X167259538Y-79644843D01*
X167260177Y-79651864D01*
X167262355Y-79658566D01*
X167262355Y-79658568D01*
X167310030Y-79805298D01*
X167310031Y-79805301D01*
X167312207Y-79811997D01*
X167398422Y-79956623D01*
X167403273Y-79961717D01*
X167403276Y-79961721D01*
X167509678Y-80073454D01*
X167509680Y-80073455D01*
X167514535Y-80078554D01*
X167539188Y-80094934D01*
X167648915Y-80167836D01*
X167654777Y-80171731D01*
X167812177Y-80231521D01*
X167978912Y-80254955D01*
X168000000Y-80255249D01*
X168167324Y-80236481D01*
X168326332Y-80181108D01*
X168469121Y-80091884D01*
X168474120Y-80086920D01*
X168583597Y-79978205D01*
X168583600Y-79978201D01*
X168588594Y-79973242D01*
X168678813Y-79831079D01*
X168719028Y-79718142D01*
X168748632Y-79671314D01*
X169652698Y-78767248D01*
X169661315Y-78759407D01*
X169667940Y-78755202D01*
X169715850Y-78704183D01*
X169718604Y-78701342D01*
X169738911Y-78681035D01*
X169741340Y-78677904D01*
X169741345Y-78677898D01*
X169741558Y-78677623D01*
X169749255Y-78668610D01*
X169780448Y-78635393D01*
X169785573Y-78626071D01*
X169790596Y-78616934D01*
X169801450Y-78600410D01*
X169809504Y-78590027D01*
X169809505Y-78590026D01*
X169814362Y-78583764D01*
X169832455Y-78541952D01*
X169837670Y-78531307D01*
X169859627Y-78491368D01*
X169861598Y-78483689D01*
X169861599Y-78483688D01*
X169864867Y-78470959D01*
X169871273Y-78452250D01*
X169876488Y-78440200D01*
X169876490Y-78440195D01*
X169879635Y-78432926D01*
X169886762Y-78387930D01*
X169889169Y-78376310D01*
X169898528Y-78339860D01*
X169898529Y-78339855D01*
X169900500Y-78332177D01*
X169900500Y-78311116D01*
X169902051Y-78291404D01*
X169902258Y-78290098D01*
X169905347Y-78270595D01*
X169904601Y-78262704D01*
X169901059Y-78225235D01*
X169900500Y-78213377D01*
X169900500Y-75162299D01*
X169920113Y-75094788D01*
X169928813Y-75081079D01*
X169985294Y-74922462D01*
X169986127Y-74915474D01*
X169986128Y-74915471D01*
X169997343Y-74821421D01*
X170005231Y-74755273D01*
X170004495Y-74748270D01*
X170004495Y-74748269D01*
X169999707Y-74702712D01*
X169987631Y-74587821D01*
X169985362Y-74581155D01*
X169985361Y-74581152D01*
X169935640Y-74435098D01*
X169935639Y-74435095D01*
X169933370Y-74428431D01*
X169929682Y-74422436D01*
X169929680Y-74422432D01*
X169848835Y-74291021D01*
X169848833Y-74291019D01*
X169845144Y-74285022D01*
X169809504Y-74248628D01*
X169758557Y-74196603D01*
X169727339Y-74164724D01*
X169585810Y-74073515D01*
X169579190Y-74071105D01*
X169579187Y-74071104D01*
X169539807Y-74056771D01*
X169427591Y-74015927D01*
X169260545Y-73994825D01*
X169260545Y-67952207D01*
X169282722Y-67927020D01*
X169351000Y-67907559D01*
X169418960Y-67928101D01*
X169464195Y-67980305D01*
X169530572Y-68122652D01*
X169530575Y-68122657D01*
X169532898Y-68127639D01*
X169576756Y-68190275D01*
X169655243Y-68302366D01*
X169655245Y-68302369D01*
X169658402Y-68306877D01*
X169813123Y-68461598D01*
X169992362Y-68587102D01*
X170190670Y-68679575D01*
X170402023Y-68736207D01*
X170620000Y-68755277D01*
X170837977Y-68736207D01*
X171049330Y-68679575D01*
X171247638Y-68587102D01*
X171426877Y-68461598D01*
X171581598Y-68306877D01*
X171584755Y-68302369D01*
X171584757Y-68302366D01*
X171703945Y-68132148D01*
X171703947Y-68132145D01*
X171707102Y-68127639D01*
X171709425Y-68122657D01*
X171709428Y-68122652D01*
X171775805Y-67980305D01*
X171822722Y-67927020D01*
X171891000Y-67907559D01*
X171958960Y-67928101D01*
X172004195Y-67980305D01*
X172070572Y-68122652D01*
X172070575Y-68122657D01*
X172072898Y-68127639D01*
X172094500Y-68158490D01*
X172195243Y-68302366D01*
X172195245Y-68302369D01*
X172198402Y-68306877D01*
X172353123Y-68461598D01*
X172532362Y-68587102D01*
X172730670Y-68679575D01*
X172744917Y-68683393D01*
X172898422Y-68724524D01*
X172942023Y-68736207D01*
X173160000Y-68755277D01*
X173377977Y-68736207D01*
X173589330Y-68679575D01*
X173787638Y-68587102D01*
X173966877Y-68461598D01*
X174121598Y-68306877D01*
X174124755Y-68302369D01*
X174124757Y-68302366D01*
X174243945Y-68132148D01*
X174243947Y-68132145D01*
X174247102Y-68127639D01*
X174249425Y-68122657D01*
X174249428Y-68122652D01*
X174337252Y-67934312D01*
X174337253Y-67934311D01*
X174339575Y-67929330D01*
X174340997Y-67924022D01*
X174340998Y-67924020D01*
X174358620Y-67858255D01*
X174396207Y-67717977D01*
X174415277Y-67500000D01*
X174396207Y-67282023D01*
X174358620Y-67141745D01*
X174340998Y-67075980D01*
X174340997Y-67075978D01*
X174339575Y-67070670D01*
X174337253Y-67065690D01*
X174337252Y-67065688D01*
X174249425Y-66877343D01*
X174249423Y-66877340D01*
X174247102Y-66872362D01*
X174121598Y-66693123D01*
X173966877Y-66538402D01*
X173787638Y-66412898D01*
X173589330Y-66320425D01*
X173377977Y-66263793D01*
X173160000Y-66244723D01*
X172942023Y-66263793D01*
X172898422Y-66275476D01*
X172744917Y-66316608D01*
X172730670Y-66320425D01*
X172532362Y-66412898D01*
X172353123Y-66538402D01*
X172198402Y-66693123D01*
X172195245Y-66697631D01*
X172195243Y-66697634D01*
X172094500Y-66841510D01*
X172072898Y-66872361D01*
X172070575Y-66877343D01*
X172070572Y-66877348D01*
X172004195Y-67019695D01*
X171957278Y-67072980D01*
X171889000Y-67092441D01*
X171821040Y-67071899D01*
X171775805Y-67019695D01*
X171709425Y-66877343D01*
X171709423Y-66877340D01*
X171707102Y-66872362D01*
X171581598Y-66693123D01*
X171426877Y-66538402D01*
X171247638Y-66412898D01*
X171049330Y-66320425D01*
X170837977Y-66263793D01*
X170620000Y-66244723D01*
X170402023Y-66263793D01*
X170190670Y-66320425D01*
X169992362Y-66412898D01*
X169813123Y-66538402D01*
X169658402Y-66693123D01*
X169655245Y-66697631D01*
X169655243Y-66697634D01*
X169576756Y-66809725D01*
X169532898Y-66872361D01*
X169530575Y-66877343D01*
X169530572Y-66877348D01*
X169464195Y-67019695D01*
X169417278Y-67072980D01*
X169349000Y-67092441D01*
X169281040Y-67071899D01*
X169235805Y-67019695D01*
X169169425Y-66877343D01*
X169169423Y-66877340D01*
X169167102Y-66872362D01*
X169041598Y-66693123D01*
X168886877Y-66538402D01*
X168707638Y-66412898D01*
X168702660Y-66410577D01*
X168702657Y-66410575D01*
X168517185Y-66324088D01*
X168509330Y-66320425D01*
X168297977Y-66263793D01*
X168080000Y-66244723D01*
X167862023Y-66263793D01*
X167650670Y-66320425D01*
X167645690Y-66322747D01*
X167645688Y-66322748D01*
X167534124Y-66374772D01*
X167452362Y-66412898D01*
X167273123Y-66538402D01*
X167118402Y-66693123D01*
X167115245Y-66697631D01*
X167115243Y-66697634D01*
X166996055Y-66867852D01*
X166992898Y-66872361D01*
X166990575Y-66877343D01*
X166990572Y-66877348D01*
X166924195Y-67019695D01*
X166877278Y-67072980D01*
X166809000Y-67092441D01*
X166741040Y-67071899D01*
X166695805Y-67019695D01*
X166629425Y-66877343D01*
X166629423Y-66877340D01*
X166627102Y-66872362D01*
X166501598Y-66693123D01*
X166346877Y-66538402D01*
X166167638Y-66412898D01*
X166162660Y-66410577D01*
X166162657Y-66410575D01*
X165974312Y-66322748D01*
X165969330Y-66320425D01*
X165757977Y-66263793D01*
X165540000Y-66244723D01*
X165322023Y-66263793D01*
X165110670Y-66320425D01*
X165105690Y-66322747D01*
X165105688Y-66322748D01*
X164946868Y-66396808D01*
X164912362Y-66412898D01*
X164733123Y-66538402D01*
X164578402Y-66693123D01*
X164575245Y-66697631D01*
X164575243Y-66697634D01*
X164482931Y-66829469D01*
X164452898Y-66872361D01*
X164450575Y-66877343D01*
X164450572Y-66877348D01*
X164384195Y-67019695D01*
X164337278Y-67072980D01*
X164269000Y-67092441D01*
X164201040Y-67071899D01*
X164155805Y-67019695D01*
X164089425Y-66877343D01*
X164089423Y-66877340D01*
X164087102Y-66872362D01*
X163961598Y-66693123D01*
X163806877Y-66538402D01*
X163627638Y-66412898D01*
X163622660Y-66410577D01*
X163622657Y-66410575D01*
X163493929Y-66350548D01*
X163429330Y-66320425D01*
X163217977Y-66263793D01*
X163000000Y-66244723D01*
X162782023Y-66263793D01*
X162570670Y-66320425D01*
X162565690Y-66322747D01*
X162565688Y-66322748D01*
X162474990Y-66365042D01*
X162372362Y-66412898D01*
X162193123Y-66538402D01*
X162038402Y-66693123D01*
X162035245Y-66697631D01*
X162035243Y-66697634D01*
X161974120Y-66784927D01*
X161912898Y-66872361D01*
X161910575Y-66877343D01*
X161910572Y-66877348D01*
X161844195Y-67019695D01*
X161797278Y-67072980D01*
X161729000Y-67092441D01*
X161661040Y-67071899D01*
X161615805Y-67019695D01*
X161549425Y-66877343D01*
X161549423Y-66877340D01*
X161547102Y-66872362D01*
X161421598Y-66693123D01*
X161266877Y-66538402D01*
X161087638Y-66412898D01*
X160889330Y-66320425D01*
X160884022Y-66319003D01*
X160884020Y-66319002D01*
X160832908Y-66305307D01*
X160677977Y-66263793D01*
X160460000Y-66244723D01*
X160242023Y-66263793D01*
X160030670Y-66320425D01*
X160025690Y-66322747D01*
X160025688Y-66322748D01*
X159963147Y-66351912D01*
X159832362Y-66412898D01*
X159653123Y-66538402D01*
X159498402Y-66693123D01*
X159495245Y-66697631D01*
X159495243Y-66697634D01*
X159395158Y-66840570D01*
X159372898Y-66872361D01*
X159370575Y-66877343D01*
X159370572Y-66877348D01*
X159304195Y-67019695D01*
X159257278Y-67072980D01*
X159189000Y-67092441D01*
X159121040Y-67071899D01*
X159075805Y-67019695D01*
X159009425Y-66877343D01*
X159009423Y-66877340D01*
X159007102Y-66872362D01*
X158881598Y-66693123D01*
X158726877Y-66538402D01*
X158547638Y-66412898D01*
X158349330Y-66320425D01*
X158137977Y-66263793D01*
X157920000Y-66244723D01*
X157702023Y-66263793D01*
X157660328Y-66274965D01*
X157496053Y-66318983D01*
X157490670Y-66320425D01*
X157485690Y-66322747D01*
X157485688Y-66322748D01*
X157319152Y-66400406D01*
X157292362Y-66412898D01*
X157113123Y-66538402D01*
X156958402Y-66693123D01*
X156955245Y-66697631D01*
X156955243Y-66697634D01*
X156853373Y-66843119D01*
X156797916Y-66887447D01*
X156727296Y-66894756D01*
X156663936Y-66862725D01*
X156627951Y-66801524D01*
X156627902Y-66801300D01*
X156627598Y-66797431D01*
X156614783Y-66753322D01*
X156583956Y-66647215D01*
X156583955Y-66647214D01*
X156581744Y-66639602D01*
X156577709Y-66632780D01*
X156577709Y-66632779D01*
X156502115Y-66504956D01*
X156498081Y-66498135D01*
X156381865Y-66381919D01*
X156375044Y-66377885D01*
X156266253Y-66313547D01*
X156240398Y-66298256D01*
X156232786Y-66296045D01*
X156232785Y-66296044D01*
X156182365Y-66281396D01*
X156082569Y-66252402D01*
X156082720Y-66251882D01*
X156023089Y-66221869D01*
X155986996Y-66160731D01*
X155989686Y-66089786D01*
X156030305Y-66031557D01*
X156036868Y-66026635D01*
X156186877Y-65921598D01*
X156341598Y-65766877D01*
X156344755Y-65762369D01*
X156344757Y-65762366D01*
X156463945Y-65592148D01*
X156463947Y-65592145D01*
X156467102Y-65587639D01*
X156469425Y-65582657D01*
X156469428Y-65582652D01*
X156557252Y-65394312D01*
X156557253Y-65394311D01*
X156559575Y-65389330D01*
X156560997Y-65384022D01*
X156560998Y-65384020D01*
X156585310Y-65293286D01*
X156616207Y-65177977D01*
X156635277Y-64960000D01*
X156616207Y-64742023D01*
X156585310Y-64626714D01*
X156560998Y-64535980D01*
X156560997Y-64535978D01*
X156559575Y-64530670D01*
X156557253Y-64525690D01*
X156557252Y-64525688D01*
X156469425Y-64337343D01*
X156469423Y-64337340D01*
X156467102Y-64332362D01*
X156341598Y-64153123D01*
X156186877Y-63998402D01*
X156007638Y-63872898D01*
X155809330Y-63780425D01*
X155597977Y-63723793D01*
X155380000Y-63704723D01*
X155380000Y-55400500D01*
X174760545Y-55400500D01*
X174760545Y-73994825D01*
X174592975Y-74011255D01*
X174433209Y-74064402D01*
X174427187Y-74068049D01*
X174427185Y-74068050D01*
X174329202Y-74127391D01*
X174289188Y-74151624D01*
X174168071Y-74268586D01*
X174164212Y-74274483D01*
X174079734Y-74403577D01*
X174079732Y-74403581D01*
X174075875Y-74409475D01*
X174017185Y-74567289D01*
X174016254Y-74574270D01*
X174016253Y-74574272D01*
X174010177Y-74619812D01*
X173994917Y-74734183D01*
X173995555Y-74741194D01*
X173995555Y-74741198D01*
X174009538Y-74894843D01*
X174010177Y-74901864D01*
X174012355Y-74908566D01*
X174012355Y-74908568D01*
X174060030Y-75055298D01*
X174060031Y-75055301D01*
X174062207Y-75061997D01*
X174081729Y-75094745D01*
X174099500Y-75159263D01*
X174099500Y-77928364D01*
X174079498Y-77996485D01*
X174062595Y-78017459D01*
X173327810Y-78752244D01*
X173278487Y-78782707D01*
X173183209Y-78814402D01*
X173177187Y-78818049D01*
X173177185Y-78818050D01*
X173154525Y-78831774D01*
X173039188Y-78901624D01*
X173034125Y-78906513D01*
X173034124Y-78906514D01*
X172960280Y-78977825D01*
X172918071Y-79018586D01*
X172914212Y-79024483D01*
X172829734Y-79153577D01*
X172829732Y-79153581D01*
X172825875Y-79159475D01*
X172767185Y-79317289D01*
X172766254Y-79324270D01*
X172766253Y-79324272D01*
X172760177Y-79369812D01*
X172744917Y-79484183D01*
X172745555Y-79491194D01*
X172745555Y-79491198D01*
X172759538Y-79644843D01*
X172760177Y-79651864D01*
X172762355Y-79658566D01*
X172762355Y-79658568D01*
X172810030Y-79805298D01*
X172810031Y-79805301D01*
X172812207Y-79811997D01*
X172898422Y-79956623D01*
X172903273Y-79961717D01*
X172903276Y-79961721D01*
X173009678Y-80073454D01*
X173009680Y-80073455D01*
X173014535Y-80078554D01*
X173039188Y-80094934D01*
X173148915Y-80167836D01*
X173154777Y-80171731D01*
X173312177Y-80231521D01*
X173478912Y-80254955D01*
X173500000Y-80255249D01*
X173589330Y-80245229D01*
X173660328Y-80237266D01*
X173660331Y-80237265D01*
X173667324Y-80236481D01*
X173826332Y-80181108D01*
X173969121Y-80091884D01*
X173974120Y-80086920D01*
X174083597Y-79978205D01*
X174083600Y-79978201D01*
X174088594Y-79973242D01*
X174178813Y-79831079D01*
X174219028Y-79718142D01*
X174248632Y-79671314D01*
X174910905Y-79009041D01*
X174973217Y-78975015D01*
X175044032Y-78980080D01*
X175089095Y-79009041D01*
X175252387Y-79172333D01*
X175283125Y-79222492D01*
X175310030Y-79305298D01*
X175310031Y-79305301D01*
X175312207Y-79311997D01*
X175398422Y-79456623D01*
X175403273Y-79461717D01*
X175403276Y-79461721D01*
X175509678Y-79573454D01*
X175509680Y-79573455D01*
X175514535Y-79578554D01*
X175531295Y-79589690D01*
X175616934Y-79646588D01*
X175654777Y-79671731D01*
X175812177Y-79731521D01*
X175978912Y-79754955D01*
X176000000Y-79755249D01*
X176167324Y-79736481D01*
X176326332Y-79681108D01*
X176469121Y-79591884D01*
X176477339Y-79583723D01*
X176583597Y-79478205D01*
X176583600Y-79478201D01*
X176588594Y-79473242D01*
X176596823Y-79460276D01*
X176623681Y-79417953D01*
X176678813Y-79331079D01*
X176735294Y-79172462D01*
X176736127Y-79165474D01*
X176736128Y-79165471D01*
X176747238Y-79072300D01*
X176755231Y-79005273D01*
X176754495Y-78998270D01*
X176754495Y-78998269D01*
X176749707Y-78952712D01*
X176737631Y-78837821D01*
X176735362Y-78831155D01*
X176735361Y-78831152D01*
X176685640Y-78685098D01*
X176685639Y-78685095D01*
X176683370Y-78678431D01*
X176679682Y-78672436D01*
X176679680Y-78672432D01*
X176598835Y-78541021D01*
X176598833Y-78541019D01*
X176595144Y-78535022D01*
X176477339Y-78414724D01*
X176335810Y-78323515D01*
X176329190Y-78321105D01*
X176329187Y-78321104D01*
X176216860Y-78280220D01*
X176170860Y-78250914D01*
X175767248Y-77847302D01*
X175759407Y-77838685D01*
X175755202Y-77832060D01*
X175749423Y-77826633D01*
X175749422Y-77826632D01*
X175704184Y-77784151D01*
X175701342Y-77781396D01*
X175681035Y-77761089D01*
X175677904Y-77758660D01*
X175677898Y-77758655D01*
X175677623Y-77758442D01*
X175668610Y-77750745D01*
X175635393Y-77719552D01*
X175628446Y-77715733D01*
X175616934Y-77709404D01*
X175600410Y-77698550D01*
X175583764Y-77685638D01*
X175541955Y-77667546D01*
X175531307Y-77662330D01*
X175491368Y-77640373D01*
X175483689Y-77638401D01*
X175480114Y-77636986D01*
X175424141Y-77593311D01*
X175400500Y-77519835D01*
X175400500Y-75162299D01*
X175420113Y-75094788D01*
X175428813Y-75081079D01*
X175485294Y-74922462D01*
X175486127Y-74915474D01*
X175486128Y-74915471D01*
X175498312Y-74813295D01*
X175505231Y-74755273D01*
X175504495Y-74748270D01*
X175504495Y-74748269D01*
X175499707Y-74702712D01*
X175487631Y-74587821D01*
X175485362Y-74581155D01*
X175485361Y-74581152D01*
X175435640Y-74435098D01*
X175435639Y-74435095D01*
X175433370Y-74428431D01*
X175429682Y-74422436D01*
X175429680Y-74422432D01*
X175348835Y-74291021D01*
X175348833Y-74291019D01*
X175345144Y-74285022D01*
X175340215Y-74279989D01*
X175234311Y-74171844D01*
X175227339Y-74164724D01*
X175085810Y-74073515D01*
X174927591Y-74015927D01*
X174760545Y-73994825D01*
X174760545Y-55400500D01*
X178010545Y-55400500D01*
X178010545Y-87744825D01*
X178003538Y-87745512D01*
X178003535Y-87745512D01*
X177974990Y-87748311D01*
X177842975Y-87761255D01*
X177683209Y-87814402D01*
X177677187Y-87818049D01*
X177677185Y-87818050D01*
X177552190Y-87893750D01*
X177539188Y-87901624D01*
X177534125Y-87906513D01*
X177534124Y-87906514D01*
X177508851Y-87930920D01*
X177418071Y-88018586D01*
X177414212Y-88024483D01*
X177329734Y-88153577D01*
X177329732Y-88153581D01*
X177325875Y-88159475D01*
X177267185Y-88317289D01*
X177266254Y-88324270D01*
X177266253Y-88324272D01*
X177260177Y-88369812D01*
X177244917Y-88484183D01*
X177245555Y-88491194D01*
X177245555Y-88491198D01*
X177259538Y-88644843D01*
X177260177Y-88651864D01*
X177262355Y-88658566D01*
X177262355Y-88658568D01*
X177310030Y-88805298D01*
X177310031Y-88805301D01*
X177312207Y-88811997D01*
X177398422Y-88956623D01*
X177403273Y-88961717D01*
X177403276Y-88961721D01*
X177509678Y-89073454D01*
X177509680Y-89073455D01*
X177514535Y-89078554D01*
X177526036Y-89086196D01*
X177648915Y-89167836D01*
X177654777Y-89171731D01*
X177812177Y-89231521D01*
X177978912Y-89254955D01*
X178000000Y-89255249D01*
X178167324Y-89236481D01*
X178326332Y-89181108D01*
X178469121Y-89091884D01*
X178474119Y-89086920D01*
X178479641Y-89082544D01*
X178480453Y-89083568D01*
X178536381Y-89053286D01*
X178562729Y-89050500D01*
X180936463Y-89050500D01*
X181004584Y-89070502D01*
X181012226Y-89076129D01*
X181014535Y-89078554D01*
X181154777Y-89171731D01*
X181312177Y-89231521D01*
X181478912Y-89254955D01*
X181500000Y-89255249D01*
X181667324Y-89236481D01*
X181826332Y-89181108D01*
X181969121Y-89091884D01*
X181977339Y-89083723D01*
X182083597Y-88978205D01*
X182083600Y-88978201D01*
X182088594Y-88973242D01*
X182178813Y-88831079D01*
X182235294Y-88672462D01*
X182236127Y-88665474D01*
X182236128Y-88665471D01*
X182247238Y-88572300D01*
X182255231Y-88505273D01*
X182254495Y-88498270D01*
X182254495Y-88498269D01*
X182249707Y-88452712D01*
X182237631Y-88337821D01*
X182235362Y-88331155D01*
X182235361Y-88331152D01*
X182185640Y-88185098D01*
X182185639Y-88185095D01*
X182183370Y-88178431D01*
X182179682Y-88172436D01*
X182179680Y-88172432D01*
X182098835Y-88041021D01*
X182098833Y-88041019D01*
X182095144Y-88035022D01*
X181977339Y-87914724D01*
X181835810Y-87823515D01*
X181677591Y-87765927D01*
X181510545Y-87744825D01*
X181503538Y-87745512D01*
X181503535Y-87745512D01*
X181474990Y-87748311D01*
X181342975Y-87761255D01*
X181183209Y-87814402D01*
X181177187Y-87818049D01*
X181177185Y-87818050D01*
X181110925Y-87858179D01*
X181039188Y-87901624D01*
X181034124Y-87906514D01*
X181034123Y-87906515D01*
X181026229Y-87914138D01*
X180963331Y-87947070D01*
X180938703Y-87949500D01*
X178563602Y-87949500D01*
X178495481Y-87929498D01*
X178483966Y-87921143D01*
X178482272Y-87919761D01*
X178477339Y-87914724D01*
X178335810Y-87823515D01*
X178177591Y-87765927D01*
X178010545Y-87744825D01*
X178010545Y-55400500D01*
X183958564Y-55400500D01*
X183978274Y-55402051D01*
X183990207Y-55403941D01*
X184000000Y-55405492D01*
X184012174Y-55403564D01*
X184037383Y-55402132D01*
X184362130Y-55416311D01*
X184395376Y-55417762D01*
X184406327Y-55418720D01*
X184415810Y-55419969D01*
X184793246Y-55469660D01*
X184804070Y-55471569D01*
X185185066Y-55556033D01*
X185195684Y-55558878D01*
X185447810Y-55638373D01*
X185567878Y-55676231D01*
X185578200Y-55679987D01*
X185755039Y-55753236D01*
X185938766Y-55829338D01*
X185948701Y-55833971D01*
X186294878Y-56014180D01*
X186304387Y-56019670D01*
X186633528Y-56229356D01*
X186642532Y-56235661D01*
X186952136Y-56473229D01*
X186960556Y-56480294D01*
X187248282Y-56743945D01*
X187256055Y-56751718D01*
X187519706Y-57039444D01*
X187526771Y-57047864D01*
X187764339Y-57357468D01*
X187770644Y-57366472D01*
X187980330Y-57695613D01*
X187985820Y-57705122D01*
X188166029Y-58051299D01*
X188170662Y-58061234D01*
X188320016Y-58421807D01*
X188323769Y-58432122D01*
X188441122Y-58804317D01*
X188443967Y-58814934D01*
X188528431Y-59195930D01*
X188530340Y-59206754D01*
X188581280Y-59593673D01*
X188582238Y-59604624D01*
X188597868Y-59962621D01*
X188596436Y-59987826D01*
X188594508Y-60000000D01*
X188597949Y-60021726D01*
X188599500Y-60041436D01*
X188599500Y-90000000D01*
X111900500Y-90000000D01*
G37*
G04 #@! TD.AperFunction*
G04 #@! TA.AperFunction,Conductor*
G36*
X141479998Y-109515931D02*
G01*
X141463095Y-109536905D01*
X139564217Y-111435783D01*
X139501905Y-111469809D01*
X139431090Y-111464744D01*
X139418773Y-111459386D01*
X136569651Y-110034826D01*
X136517667Y-109986471D01*
X136500000Y-109922128D01*
X136500000Y-108052190D01*
X136520002Y-107984069D01*
X136536905Y-107963095D01*
X139500000Y-105000000D01*
X139500000Y-94626000D01*
X139520002Y-94557879D01*
X139573658Y-94511386D01*
X139626000Y-94500000D01*
X140447810Y-94500000D01*
X140515931Y-94520002D01*
X140536905Y-94536905D01*
X141463095Y-95463095D01*
X141497121Y-95525407D01*
X141500000Y-95552190D01*
X141500000Y-109447810D01*
X141479998Y-109515931D01*
G37*
G04 #@! TD.AperFunction*
G04 #@! TA.AperFunction,Conductor*
G36*
X138979998Y-103515931D02*
G01*
X138963095Y-103536905D01*
X138089095Y-104410905D01*
X138026783Y-104444931D01*
X137955968Y-104439866D01*
X137910905Y-104410905D01*
X133887805Y-100387805D01*
X133868784Y-100363417D01*
X133778842Y-100213134D01*
X133621912Y-100028088D01*
X133436866Y-99871158D01*
X133432423Y-99868499D01*
X133286584Y-99781216D01*
X133262195Y-99762195D01*
X132036905Y-98536905D01*
X132002879Y-98474593D01*
X132000000Y-98447810D01*
X132000000Y-95052190D01*
X132020002Y-94984069D01*
X132036905Y-94963095D01*
X132463095Y-94536905D01*
X132525407Y-94502879D01*
X132552190Y-94500000D01*
X133500000Y-94500000D01*
X134463095Y-93536905D01*
X134525407Y-93502879D01*
X134552190Y-93500000D01*
X138874000Y-93500000D01*
X138942121Y-93520002D01*
X138988614Y-93573658D01*
X139000000Y-93626000D01*
X139000000Y-103447810D01*
X138979998Y-103515931D01*
G37*
G04 #@! TD.AperFunction*
G04 #@! TA.AperFunction,Conductor*
G36*
X123979998Y-103515931D02*
G01*
X123963095Y-103536905D01*
X123089095Y-104410905D01*
X123026783Y-104444931D01*
X122955968Y-104439866D01*
X122910905Y-104410905D01*
X118887805Y-100387805D01*
X118868784Y-100363417D01*
X118778842Y-100213134D01*
X118621912Y-100028088D01*
X118436866Y-99871158D01*
X118432423Y-99868499D01*
X118286584Y-99781216D01*
X118262195Y-99762195D01*
X117036905Y-98536905D01*
X117002879Y-98474593D01*
X117000000Y-98447810D01*
X117000000Y-95052190D01*
X117020002Y-94984069D01*
X117036905Y-94963095D01*
X117463095Y-94536905D01*
X117525407Y-94502879D01*
X117552190Y-94500000D01*
X118500000Y-94500000D01*
X119463095Y-93536905D01*
X119525407Y-93502879D01*
X119552190Y-93500000D01*
X123874000Y-93500000D01*
X123942121Y-93520002D01*
X123988614Y-93573658D01*
X124000000Y-93626000D01*
X124000000Y-103447810D01*
X123979998Y-103515931D01*
G37*
G04 #@! TD.AperFunction*
G04 #@! TA.AperFunction,Conductor*
G36*
X186479998Y-109515931D02*
G01*
X186463095Y-109536905D01*
X184564217Y-111435783D01*
X184501905Y-111469809D01*
X184431090Y-111464744D01*
X184418773Y-111459386D01*
X181569651Y-110034826D01*
X181517667Y-109986471D01*
X181500000Y-109922128D01*
X181500000Y-108052190D01*
X181520002Y-107984069D01*
X181536905Y-107963095D01*
X184500000Y-105000000D01*
X184500000Y-94626000D01*
X184520002Y-94557879D01*
X184573658Y-94511386D01*
X184626000Y-94500000D01*
X185447810Y-94500000D01*
X185515931Y-94520002D01*
X185536905Y-94536905D01*
X186463095Y-95463095D01*
X186497121Y-95525407D01*
X186500000Y-95552190D01*
X186500000Y-109447810D01*
X186479998Y-109515931D01*
G37*
G04 #@! TD.AperFunction*
G04 #@! TA.AperFunction,Conductor*
G36*
X168479998Y-115942121D02*
G01*
X168426342Y-115988614D01*
X168374000Y-116000000D01*
X164626000Y-116000000D01*
X164557879Y-115979998D01*
X164511386Y-115926342D01*
X164500000Y-115874000D01*
X164500000Y-114500000D01*
X163036905Y-113036905D01*
X163002879Y-112974593D01*
X163000000Y-112947810D01*
X163000000Y-111126000D01*
X163020002Y-111057879D01*
X163073658Y-111011386D01*
X163126000Y-111000000D01*
X165874000Y-111000000D01*
X165942121Y-111020002D01*
X165988614Y-111073658D01*
X166000000Y-111126000D01*
X166000000Y-112000000D01*
X168463095Y-114463095D01*
X168497121Y-114525407D01*
X168500000Y-114552190D01*
X168500000Y-115874000D01*
X168479998Y-115942121D01*
G37*
G04 #@! TD.AperFunction*
G04 #@! TA.AperFunction,Conductor*
G36*
X168979998Y-103515931D02*
G01*
X168963095Y-103536905D01*
X168089095Y-104410905D01*
X168026783Y-104444931D01*
X167955968Y-104439866D01*
X167910905Y-104410905D01*
X163887805Y-100387805D01*
X163868784Y-100363417D01*
X163778842Y-100213134D01*
X163621912Y-100028088D01*
X163436866Y-99871158D01*
X163432423Y-99868499D01*
X163286584Y-99781216D01*
X163262195Y-99762195D01*
X162036905Y-98536905D01*
X162002879Y-98474593D01*
X162000000Y-98447810D01*
X162000000Y-95052190D01*
X162020002Y-94984069D01*
X162036905Y-94963095D01*
X162463095Y-94536905D01*
X162525407Y-94502879D01*
X162552190Y-94500000D01*
X163500000Y-94500000D01*
X164463095Y-93536905D01*
X164525407Y-93502879D01*
X164552190Y-93500000D01*
X168874000Y-93500000D01*
X168942121Y-93520002D01*
X168988614Y-93573658D01*
X169000000Y-93626000D01*
X169000000Y-103447810D01*
X168979998Y-103515931D01*
G37*
G04 #@! TD.AperFunction*
G04 #@! TA.AperFunction,Conductor*
G36*
X123479998Y-115942121D02*
G01*
X123426342Y-115988614D01*
X123374000Y-116000000D01*
X119626000Y-116000000D01*
X119557879Y-115979998D01*
X119511386Y-115926342D01*
X119500000Y-115874000D01*
X119500000Y-114500000D01*
X118036905Y-113036905D01*
X118002879Y-112974593D01*
X118000000Y-112947810D01*
X118000000Y-111126000D01*
X118020002Y-111057879D01*
X118073658Y-111011386D01*
X118126000Y-111000000D01*
X120874000Y-111000000D01*
X120942121Y-111020002D01*
X120988614Y-111073658D01*
X121000000Y-111126000D01*
X121000000Y-112000000D01*
X123463095Y-114463095D01*
X123497121Y-114525407D01*
X123500000Y-114552190D01*
X123500000Y-115874000D01*
X123479998Y-115942121D01*
G37*
G04 #@! TD.AperFunction*
G04 #@! TA.AperFunction,Conductor*
G36*
X183979998Y-103515931D02*
G01*
X183963095Y-103536905D01*
X183089095Y-104410905D01*
X183026783Y-104444931D01*
X182955968Y-104439866D01*
X182910905Y-104410905D01*
X178887805Y-100387805D01*
X178868784Y-100363417D01*
X178778842Y-100213134D01*
X178621912Y-100028088D01*
X178436866Y-99871158D01*
X178432423Y-99868499D01*
X178286584Y-99781216D01*
X178262195Y-99762195D01*
X177036905Y-98536905D01*
X177002879Y-98474593D01*
X177000000Y-98447810D01*
X177000000Y-95052190D01*
X177020002Y-94984069D01*
X177036905Y-94963095D01*
X177463095Y-94536905D01*
X177525407Y-94502879D01*
X177552190Y-94500000D01*
X178500000Y-94500000D01*
X179463095Y-93536905D01*
X179525407Y-93502879D01*
X179552190Y-93500000D01*
X183874000Y-93500000D01*
X183942121Y-93520002D01*
X183988614Y-93573658D01*
X184000000Y-93626000D01*
X184000000Y-103447810D01*
X183979998Y-103515931D01*
G37*
G04 #@! TD.AperFunction*
M02*
