%TF.GenerationSoftware,KiCad,Pcbnew,6.0.10+dfsg-1~bpo11+1*%
%TF.ProjectId,ui,75692e6b-6963-4616-945f-706362585858,rev?*%
%TF.SameCoordinates,Original*%
%TF.FileFunction,Drillmap*%
%TF.FilePolarity,Positive*%
%FSLAX45Y45*%
G04 Gerber Fmt 4.5, Leading zero omitted, Abs format (unit mm)*
%MOMM*%
%LPD*%
G01*
G04 APERTURE LIST*
%ADD10C,0.100000*%
%ADD11C,0.200000*%
G04 APERTURE END LIST*
D10*
X22000000Y-3000000D02*
X15500000Y-3000000D01*
X22000000Y-25000000D02*
G75*
G03*
X22500000Y-24500000I0J500000D01*
G01*
X15000000Y-3500000D02*
X15000000Y-24500000D01*
X15500000Y-3000000D02*
G75*
G03*
X15000000Y-3500000I0J-500000D01*
G01*
X22500000Y-3500000D02*
G75*
G03*
X22000000Y-3000000I-500000J0D01*
G01*
X22500000Y-24500000D02*
X22500000Y-3500000D01*
X15500000Y-25000000D02*
X22000000Y-25000000D01*
X15000000Y-24500000D02*
G75*
G03*
X15500000Y-25000000I500000J0D01*
G01*
D11*
X15252619Y-25315476D02*
X15252619Y-25115476D01*
X15300238Y-25115476D01*
X15328809Y-25125000D01*
X15347857Y-25144048D01*
X15357381Y-25163095D01*
X15366905Y-25201190D01*
X15366905Y-25229762D01*
X15357381Y-25267857D01*
X15347857Y-25286905D01*
X15328809Y-25305952D01*
X15300238Y-25315476D01*
X15252619Y-25315476D01*
X15452619Y-25315476D02*
X15452619Y-25182143D01*
X15452619Y-25220238D02*
X15462143Y-25201190D01*
X15471667Y-25191667D01*
X15490714Y-25182143D01*
X15509762Y-25182143D01*
X15576428Y-25315476D02*
X15576428Y-25182143D01*
X15576428Y-25115476D02*
X15566905Y-25125000D01*
X15576428Y-25134524D01*
X15585952Y-25125000D01*
X15576428Y-25115476D01*
X15576428Y-25134524D01*
X15700238Y-25315476D02*
X15681190Y-25305952D01*
X15671667Y-25286905D01*
X15671667Y-25115476D01*
X15805000Y-25315476D02*
X15785952Y-25305952D01*
X15776428Y-25286905D01*
X15776428Y-25115476D01*
X16033571Y-25315476D02*
X16033571Y-25115476D01*
X16100238Y-25258333D01*
X16166905Y-25115476D01*
X16166905Y-25315476D01*
X16347857Y-25315476D02*
X16347857Y-25210714D01*
X16338333Y-25191667D01*
X16319286Y-25182143D01*
X16281190Y-25182143D01*
X16262143Y-25191667D01*
X16347857Y-25305952D02*
X16328809Y-25315476D01*
X16281190Y-25315476D01*
X16262143Y-25305952D01*
X16252619Y-25286905D01*
X16252619Y-25267857D01*
X16262143Y-25248809D01*
X16281190Y-25239286D01*
X16328809Y-25239286D01*
X16347857Y-25229762D01*
X16443095Y-25182143D02*
X16443095Y-25382143D01*
X16443095Y-25191667D02*
X16462143Y-25182143D01*
X16500238Y-25182143D01*
X16519286Y-25191667D01*
X16528809Y-25201190D01*
X16538333Y-25220238D01*
X16538333Y-25277381D01*
X16528809Y-25296428D01*
X16519286Y-25305952D01*
X16500238Y-25315476D01*
X16462143Y-25315476D01*
X16443095Y-25305952D01*
X16624048Y-25296428D02*
X16633571Y-25305952D01*
X16624048Y-25315476D01*
X16614524Y-25305952D01*
X16624048Y-25296428D01*
X16624048Y-25315476D01*
X16624048Y-25191667D02*
X16633571Y-25201190D01*
X16624048Y-25210714D01*
X16614524Y-25201190D01*
X16624048Y-25191667D01*
X16624048Y-25210714D01*
M02*
