G04 #@! TF.GenerationSoftware,KiCad,Pcbnew,6.0.10+dfsg-1~bpo11+1*
G04 #@! TF.ProjectId,ui,75692e6b-6963-4616-945f-706362585858,rev?*
G04 #@! TF.SameCoordinates,Original*
G04 #@! TF.FileFunction,Soldermask,Bot*
G04 #@! TF.FilePolarity,Negative*
%FSLAX46Y46*%
G04 Gerber Fmt 4.6, Leading zero omitted, Abs format (unit mm)*
%MOMM*%
%LPD*%
G01*
G04 APERTURE LIST*
G04 #@! TA.AperFunction,Profile*
%ADD10C,0.100000*%
G04 #@! TD*
%ADD11C,0.800000*%
%ADD12C,6.400000*%
%ADD13C,0.900000*%
%ADD14C,13.000000*%
%ADD15O,1.950000X1.700000*%
%ADD16C,1.734000*%
%ADD17C,3.000000*%
%ADD18R,1.700000X1.700000*%
%ADD19C,1.700000*%
%ADD20O,2.000000X1.700000*%
%ADD21R,1.500000X1.500000*%
%ADD22C,1.500000*%
%ADD23R,2.000000X2.000000*%
%ADD24C,2.000000*%
%ADD25C,3.200000*%
G04 APERTURE END LIST*
D10*
X220000000Y-30000000D02*
X155000000Y-30000000D01*
X220000000Y-250000000D02*
G75*
G03*
X225000000Y-245000000I0J5000000D01*
G01*
X150000000Y-35000000D02*
X150000000Y-245000000D01*
X155000000Y-30000000D02*
G75*
G03*
X150000000Y-35000000I0J-5000000D01*
G01*
X225000000Y-35000000D02*
G75*
G03*
X220000000Y-30000000I-5000000J0D01*
G01*
X225000000Y-245000000D02*
X225000000Y-35000000D01*
X155000000Y-250000000D02*
X220000000Y-250000000D01*
X150000000Y-245000000D02*
G75*
G03*
X155000000Y-250000000I5000000J0D01*
G01*
D11*
X155100000Y-80000000D03*
X159197056Y-81697056D03*
X157500000Y-77600000D03*
X157500000Y-82400000D03*
D12*
X157500000Y-80000000D03*
D11*
X155802944Y-81697056D03*
X159900000Y-80000000D03*
X159197056Y-78302944D03*
X155802944Y-78302944D03*
D13*
X170000000Y-44875000D03*
X170000000Y-35125000D03*
D14*
X170000000Y-40000000D03*
D13*
X173447146Y-36552854D03*
X166552854Y-36552854D03*
X165125000Y-40000000D03*
X173447146Y-43447146D03*
X166552854Y-43447146D03*
X174875000Y-40000000D03*
G36*
G01*
X216725000Y-138350000D02*
X215275000Y-138350000D01*
G75*
G02*
X215025000Y-138100000I0J250000D01*
G01*
X215025000Y-136900000D01*
G75*
G02*
X215275000Y-136650000I250000J0D01*
G01*
X216725000Y-136650000D01*
G75*
G02*
X216975000Y-136900000I0J-250000D01*
G01*
X216975000Y-138100000D01*
G75*
G02*
X216725000Y-138350000I-250000J0D01*
G01*
G37*
D15*
X216000000Y-135000000D03*
X216000000Y-132500000D03*
G36*
G01*
X153233000Y-138415000D02*
X153233000Y-136885000D01*
G75*
G02*
X153335000Y-136783000I102000J0D01*
G01*
X154865000Y-136783000D01*
G75*
G02*
X154967000Y-136885000I0J-102000D01*
G01*
X154967000Y-138415000D01*
G75*
G02*
X154865000Y-138517000I-102000J0D01*
G01*
X153335000Y-138517000D01*
G75*
G02*
X153233000Y-138415000I0J102000D01*
G01*
G37*
D16*
X154100000Y-140190000D03*
X154100000Y-142730000D03*
X154100000Y-145270000D03*
X154100000Y-147810000D03*
X154100000Y-150350000D03*
X154100000Y-152890000D03*
X154100000Y-155430000D03*
X154100000Y-157970000D03*
X154100000Y-160510000D03*
X154100000Y-163050000D03*
X154100000Y-165590000D03*
X154100000Y-168130000D03*
X154100000Y-170670000D03*
X154100000Y-173210000D03*
X154100000Y-175750000D03*
X154100000Y-178290000D03*
X154100000Y-180830000D03*
X154100000Y-183370000D03*
X179500000Y-183370000D03*
X179500000Y-180830000D03*
X179500000Y-178290000D03*
X179500000Y-175750000D03*
X179500000Y-173210000D03*
X179500000Y-170670000D03*
X179500000Y-168130000D03*
X179500000Y-165590000D03*
X179500000Y-163050000D03*
X179500000Y-160510000D03*
X179500000Y-157970000D03*
X179500000Y-155430000D03*
X179500000Y-152890000D03*
X179500000Y-150350000D03*
X179500000Y-147810000D03*
X179500000Y-145270000D03*
X179500000Y-142730000D03*
X179500000Y-140190000D03*
X179500000Y-137650000D03*
D12*
X157500000Y-240000000D03*
D11*
X159197056Y-238302944D03*
X157500000Y-242400000D03*
X155802944Y-241697056D03*
X159197056Y-241697056D03*
X159900000Y-240000000D03*
X155802944Y-238302944D03*
X155100000Y-240000000D03*
X157500000Y-237600000D03*
X157500000Y-197600000D03*
X155802944Y-201697056D03*
X155100000Y-200000000D03*
D12*
X157500000Y-200000000D03*
D11*
X155802944Y-198302944D03*
X159900000Y-200000000D03*
X157500000Y-202400000D03*
X159197056Y-201697056D03*
X159197056Y-198302944D03*
D17*
X217500000Y-180000000D03*
D11*
X215802944Y-201697056D03*
X217500000Y-197600000D03*
X219900000Y-200000000D03*
X219197056Y-201697056D03*
X215802944Y-198302944D03*
X219197056Y-198302944D03*
D12*
X217500000Y-200000000D03*
D11*
X217500000Y-202400000D03*
X215100000Y-200000000D03*
D18*
X177180000Y-96190000D03*
D19*
X177180000Y-98730000D03*
X177180000Y-101270000D03*
X177180000Y-103810000D03*
X217820000Y-94920000D03*
X217820000Y-100000000D03*
X217820000Y-105080000D03*
G36*
G01*
X178290000Y-218397500D02*
X179490000Y-218397500D01*
G75*
G02*
X179740000Y-218647500I0J-250000D01*
G01*
X179740000Y-219847500D01*
G75*
G02*
X179490000Y-220097500I-250000J0D01*
G01*
X178290000Y-220097500D01*
G75*
G02*
X178040000Y-219847500I0J250000D01*
G01*
X178040000Y-218647500D01*
G75*
G02*
X178290000Y-218397500I250000J0D01*
G01*
G37*
X178890000Y-221787500D03*
X176350000Y-219247500D03*
X176350000Y-221787500D03*
X173810000Y-219247500D03*
X173810000Y-221787500D03*
X171270000Y-219247500D03*
X171270000Y-221787500D03*
X168730000Y-219247500D03*
X168730000Y-221787500D03*
X166190000Y-219247500D03*
X166190000Y-221787500D03*
X163650000Y-219247500D03*
X163650000Y-221787500D03*
X161110000Y-219247500D03*
X161110000Y-221787500D03*
D11*
X215802944Y-78302944D03*
X219197056Y-81697056D03*
D12*
X217500000Y-80000000D03*
D11*
X219197056Y-78302944D03*
X217500000Y-82400000D03*
X217500000Y-77600000D03*
X215802944Y-81697056D03*
X215100000Y-80000000D03*
X219900000Y-80000000D03*
X215802944Y-161697056D03*
X215100000Y-160000000D03*
X215802944Y-158302944D03*
X219197056Y-158302944D03*
X219900000Y-160000000D03*
X219197056Y-161697056D03*
X217500000Y-162400000D03*
X217500000Y-157600000D03*
D12*
X217500000Y-160000000D03*
G36*
G01*
X218050000Y-68350000D02*
X216550000Y-68350000D01*
G75*
G02*
X216300000Y-68100000I0J250000D01*
G01*
X216300000Y-66900000D01*
G75*
G02*
X216550000Y-66650000I250000J0D01*
G01*
X218050000Y-66650000D01*
G75*
G02*
X218300000Y-66900000I0J-250000D01*
G01*
X218300000Y-68100000D01*
G75*
G02*
X218050000Y-68350000I-250000J0D01*
G01*
G37*
D20*
X217300000Y-65000000D03*
D11*
X215100000Y-120000000D03*
X219900000Y-120000000D03*
X217500000Y-122400000D03*
X215802944Y-121697056D03*
X219197056Y-118302944D03*
X215802944Y-118302944D03*
X217500000Y-117600000D03*
D12*
X217500000Y-120000000D03*
D11*
X219197056Y-121697056D03*
D12*
X157500000Y-40000000D03*
D11*
X155802944Y-41697056D03*
X157500000Y-42400000D03*
X155802944Y-38302944D03*
X157500000Y-37600000D03*
X159900000Y-40000000D03*
X159197056Y-38302944D03*
X155100000Y-40000000D03*
X159197056Y-41697056D03*
X155802944Y-121697056D03*
X159197056Y-118302944D03*
X155100000Y-120000000D03*
X155802944Y-118302944D03*
X157500000Y-117600000D03*
X159900000Y-120000000D03*
X159197056Y-121697056D03*
D12*
X157500000Y-120000000D03*
D11*
X157500000Y-122400000D03*
X219900000Y-40000000D03*
X215100000Y-40000000D03*
X215802944Y-38302944D03*
X217500000Y-37600000D03*
X217500000Y-42400000D03*
D12*
X217500000Y-40000000D03*
D11*
X219197056Y-41697056D03*
X219197056Y-38302944D03*
X215802944Y-41697056D03*
X219197056Y-241697056D03*
X219197056Y-238302944D03*
X215100000Y-240000000D03*
X215802944Y-238302944D03*
D12*
X217500000Y-240000000D03*
D11*
X217500000Y-242400000D03*
X219900000Y-240000000D03*
X215802944Y-241697056D03*
X217500000Y-237600000D03*
G36*
G01*
X179550000Y-38400000D02*
X180450000Y-38400000D01*
G75*
G02*
X180700000Y-38650000I0J-250000D01*
G01*
X180700000Y-39300000D01*
G75*
G02*
X180450000Y-39550000I-250000J0D01*
G01*
X179550000Y-39550000D01*
G75*
G02*
X179300000Y-39300000I0J250000D01*
G01*
X179300000Y-38650000D01*
G75*
G02*
X179550000Y-38400000I250000J0D01*
G01*
G37*
G36*
G01*
X179550000Y-40450000D02*
X180450000Y-40450000D01*
G75*
G02*
X180700000Y-40700000I0J-250000D01*
G01*
X180700000Y-41350000D01*
G75*
G02*
X180450000Y-41600000I-250000J0D01*
G01*
X179550000Y-41600000D01*
G75*
G02*
X179300000Y-41350000I0J250000D01*
G01*
X179300000Y-40700000D01*
G75*
G02*
X179550000Y-40450000I250000J0D01*
G01*
G37*
D21*
X203850000Y-164972500D03*
D22*
X201310000Y-164972500D03*
X198770000Y-164972500D03*
X196230000Y-164972500D03*
X193690000Y-164972500D03*
X191150000Y-164972500D03*
X191150000Y-154812500D03*
X193690000Y-154812500D03*
X196230000Y-154812500D03*
X198770000Y-154812500D03*
X201310000Y-154812500D03*
X203850000Y-154812500D03*
D21*
X203850000Y-84972500D03*
D22*
X201310000Y-84972500D03*
X198770000Y-84972500D03*
X196230000Y-84972500D03*
X193690000Y-84972500D03*
X191150000Y-84972500D03*
X191150000Y-74812500D03*
X193690000Y-74812500D03*
X196230000Y-74812500D03*
X198770000Y-74812500D03*
X201310000Y-74812500D03*
X203850000Y-74812500D03*
D23*
X167500000Y-232750000D03*
D24*
X172500000Y-232750000D03*
X170000000Y-232750000D03*
D25*
X164400000Y-240250000D03*
X175600000Y-240250000D03*
D24*
X172500000Y-247250000D03*
X167500000Y-247250000D03*
D21*
X203850000Y-244972500D03*
D22*
X201310000Y-244972500D03*
X198770000Y-244972500D03*
X196230000Y-244972500D03*
X193690000Y-244972500D03*
X191150000Y-244972500D03*
X191150000Y-234812500D03*
X193690000Y-234812500D03*
X196230000Y-234812500D03*
X198770000Y-234812500D03*
X201310000Y-234812500D03*
X203850000Y-234812500D03*
D23*
X167500000Y-152750000D03*
D24*
X172500000Y-152750000D03*
X170000000Y-152750000D03*
D25*
X164400000Y-160250000D03*
X175600000Y-160250000D03*
D24*
X172500000Y-167250000D03*
X167500000Y-167250000D03*
D23*
X167500000Y-72750000D03*
D24*
X172500000Y-72750000D03*
X170000000Y-72750000D03*
D25*
X164400000Y-80250000D03*
X175600000Y-80250000D03*
D24*
X172500000Y-87250000D03*
X167500000Y-87250000D03*
D23*
X167500000Y-112750000D03*
D24*
X172500000Y-112750000D03*
X170000000Y-112750000D03*
D25*
X164400000Y-120250000D03*
X175600000Y-120250000D03*
D24*
X172500000Y-127250000D03*
X167500000Y-127250000D03*
D21*
X203850000Y-204972500D03*
D22*
X201310000Y-204972500D03*
X198770000Y-204972500D03*
X196230000Y-204972500D03*
X193690000Y-204972500D03*
X191150000Y-204972500D03*
X191150000Y-194812500D03*
X193690000Y-194812500D03*
X196230000Y-194812500D03*
X198770000Y-194812500D03*
X201310000Y-194812500D03*
X203850000Y-194812500D03*
D23*
X167500000Y-192750000D03*
D24*
X172500000Y-192750000D03*
X170000000Y-192750000D03*
D25*
X175600000Y-200250000D03*
X164400000Y-200250000D03*
D24*
X172500000Y-207250000D03*
X167500000Y-207250000D03*
D21*
X203850000Y-124972500D03*
D22*
X201310000Y-124972500D03*
X198770000Y-124972500D03*
X196230000Y-124972500D03*
X193690000Y-124972500D03*
X191150000Y-124972500D03*
X191150000Y-114812500D03*
X193690000Y-114812500D03*
X196230000Y-114812500D03*
X198770000Y-114812500D03*
X201310000Y-114812500D03*
X203850000Y-114812500D03*
D21*
X203850000Y-44972500D03*
D22*
X201310000Y-44972500D03*
X198770000Y-44972500D03*
X196230000Y-44972500D03*
X193690000Y-44972500D03*
X191150000Y-44972500D03*
X191150000Y-34812500D03*
X193690000Y-34812500D03*
X196230000Y-34812500D03*
X198770000Y-34812500D03*
X201310000Y-34812500D03*
X203850000Y-34812500D03*
M02*
