G04 #@! TF.GenerationSoftware,KiCad,Pcbnew,6.0.10+dfsg-1~bpo11+1*
G04 #@! TF.ProjectId,ui,75692e6b-6963-4616-945f-706362585858,rev?*
G04 #@! TF.SameCoordinates,Original*
G04 #@! TF.FileFunction,Legend,Bot*
G04 #@! TF.FilePolarity,Positive*
%FSLAX46Y46*%
G04 Gerber Fmt 4.6, Leading zero omitted, Abs format (unit mm)*
%MOMM*%
%LPD*%
G01*
G04 APERTURE LIST*
G04 #@! TA.AperFunction,Profile*
%ADD10C,0.100000*%
G04 #@! TD*
%ADD11C,0.150000*%
%ADD12C,0.120000*%
%ADD13C,0.800000*%
%ADD14C,6.400000*%
%ADD15C,0.900000*%
%ADD16C,13.000000*%
%ADD17O,1.950000X1.700000*%
%ADD18C,1.734000*%
%ADD19C,3.000000*%
%ADD20R,1.700000X1.700000*%
%ADD21C,1.700000*%
%ADD22O,2.000000X1.700000*%
%ADD23R,1.500000X1.500000*%
%ADD24C,1.500000*%
%ADD25R,2.000000X2.000000*%
%ADD26C,2.000000*%
%ADD27C,3.200000*%
G04 APERTURE END LIST*
D10*
X220000000Y-30000000D02*
X155000000Y-30000000D01*
X220000000Y-250000000D02*
G75*
G03*
X225000000Y-245000000I0J5000000D01*
G01*
X150000000Y-35000000D02*
X150000000Y-245000000D01*
X155000000Y-30000000D02*
G75*
G03*
X150000000Y-35000000I0J-5000000D01*
G01*
X225000000Y-35000000D02*
G75*
G03*
X220000000Y-30000000I-5000000J0D01*
G01*
X225000000Y-245000000D02*
X225000000Y-35000000D01*
X155000000Y-250000000D02*
X220000000Y-250000000D01*
X150000000Y-245000000D02*
G75*
G03*
X155000000Y-250000000I5000000J0D01*
G01*
D11*
X178711904Y-38647619D02*
X177911904Y-38647619D01*
X177911904Y-38838095D01*
X177950000Y-38952380D01*
X178026190Y-39028571D01*
X178102380Y-39066666D01*
X178254761Y-39104761D01*
X178369047Y-39104761D01*
X178521428Y-39066666D01*
X178597619Y-39028571D01*
X178673809Y-38952380D01*
X178711904Y-38838095D01*
X178711904Y-38647619D01*
X178711904Y-39866666D02*
X178711904Y-39409523D01*
X178711904Y-39638095D02*
X177911904Y-39638095D01*
X178026190Y-39561904D01*
X178102380Y-39485714D01*
X178140476Y-39409523D01*
X177911904Y-40361904D02*
X177911904Y-40438095D01*
X177950000Y-40514285D01*
X177988095Y-40552380D01*
X178064285Y-40590476D01*
X178216666Y-40628571D01*
X178407142Y-40628571D01*
X178559523Y-40590476D01*
X178635714Y-40552380D01*
X178673809Y-40514285D01*
X178711904Y-40438095D01*
X178711904Y-40361904D01*
X178673809Y-40285714D01*
X178635714Y-40247619D01*
X178559523Y-40209523D01*
X178407142Y-40171428D01*
X178216666Y-40171428D01*
X178064285Y-40209523D01*
X177988095Y-40247619D01*
X177950000Y-40285714D01*
X177911904Y-40361904D01*
X177911904Y-40895238D02*
X177911904Y-41390476D01*
X178216666Y-41123809D01*
X178216666Y-41238095D01*
X178254761Y-41314285D01*
X178292857Y-41352380D01*
X178369047Y-41390476D01*
X178559523Y-41390476D01*
X178635714Y-41352380D01*
X178673809Y-41314285D01*
X178711904Y-41238095D01*
X178711904Y-41009523D01*
X178673809Y-40933333D01*
X178635714Y-40895238D01*
X213011904Y-163628571D02*
X213659523Y-163628571D01*
X213735714Y-163666666D01*
X213773809Y-163704761D01*
X213811904Y-163780952D01*
X213811904Y-163933333D01*
X213773809Y-164009523D01*
X213735714Y-164047619D01*
X213659523Y-164085714D01*
X213011904Y-164085714D01*
X213011904Y-164390476D02*
X213011904Y-164885714D01*
X213316666Y-164619047D01*
X213316666Y-164733333D01*
X213354761Y-164809523D01*
X213392857Y-164847619D01*
X213469047Y-164885714D01*
X213659523Y-164885714D01*
X213735714Y-164847619D01*
X213773809Y-164809523D01*
X213811904Y-164733333D01*
X213811904Y-164504761D01*
X213773809Y-164428571D01*
X213735714Y-164390476D01*
X213011904Y-165380952D02*
X213011904Y-165457142D01*
X213050000Y-165533333D01*
X213088095Y-165571428D01*
X213164285Y-165609523D01*
X213316666Y-165647619D01*
X213507142Y-165647619D01*
X213659523Y-165609523D01*
X213735714Y-165571428D01*
X213773809Y-165533333D01*
X213811904Y-165457142D01*
X213811904Y-165380952D01*
X213773809Y-165304761D01*
X213735714Y-165266666D01*
X213659523Y-165228571D01*
X213507142Y-165190476D01*
X213316666Y-165190476D01*
X213164285Y-165228571D01*
X213088095Y-165266666D01*
X213050000Y-165304761D01*
X213011904Y-165380952D01*
X213011904Y-165914285D02*
X213011904Y-166409523D01*
X213316666Y-166142857D01*
X213316666Y-166257142D01*
X213354761Y-166333333D01*
X213392857Y-166371428D01*
X213469047Y-166409523D01*
X213659523Y-166409523D01*
X213735714Y-166371428D01*
X213773809Y-166333333D01*
X213811904Y-166257142D01*
X213811904Y-166028571D01*
X213773809Y-165952380D01*
X213735714Y-165914285D01*
X213011904Y-83628571D02*
X213659523Y-83628571D01*
X213735714Y-83666666D01*
X213773809Y-83704761D01*
X213811904Y-83780952D01*
X213811904Y-83933333D01*
X213773809Y-84009523D01*
X213735714Y-84047619D01*
X213659523Y-84085714D01*
X213011904Y-84085714D01*
X213088095Y-84428571D02*
X213050000Y-84466666D01*
X213011904Y-84542857D01*
X213011904Y-84733333D01*
X213050000Y-84809523D01*
X213088095Y-84847619D01*
X213164285Y-84885714D01*
X213240476Y-84885714D01*
X213354761Y-84847619D01*
X213811904Y-84390476D01*
X213811904Y-84885714D01*
X213011904Y-85380952D02*
X213011904Y-85457142D01*
X213050000Y-85533333D01*
X213088095Y-85571428D01*
X213164285Y-85609523D01*
X213316666Y-85647619D01*
X213507142Y-85647619D01*
X213659523Y-85609523D01*
X213735714Y-85571428D01*
X213773809Y-85533333D01*
X213811904Y-85457142D01*
X213811904Y-85380952D01*
X213773809Y-85304761D01*
X213735714Y-85266666D01*
X213659523Y-85228571D01*
X213507142Y-85190476D01*
X213316666Y-85190476D01*
X213164285Y-85228571D01*
X213088095Y-85266666D01*
X213050000Y-85304761D01*
X213011904Y-85380952D01*
X213011904Y-85914285D02*
X213011904Y-86409523D01*
X213316666Y-86142857D01*
X213316666Y-86257142D01*
X213354761Y-86333333D01*
X213392857Y-86371428D01*
X213469047Y-86409523D01*
X213659523Y-86409523D01*
X213735714Y-86371428D01*
X213773809Y-86333333D01*
X213811904Y-86257142D01*
X213811904Y-86028571D01*
X213773809Y-85952380D01*
X213735714Y-85914285D01*
X163123809Y-233721428D02*
X163161904Y-233835714D01*
X163161904Y-234026190D01*
X163123809Y-234102380D01*
X163085714Y-234140476D01*
X163009523Y-234178571D01*
X162933333Y-234178571D01*
X162857142Y-234140476D01*
X162819047Y-234102380D01*
X162780952Y-234026190D01*
X162742857Y-233873809D01*
X162704761Y-233797619D01*
X162666666Y-233759523D01*
X162590476Y-233721428D01*
X162514285Y-233721428D01*
X162438095Y-233759523D01*
X162400000Y-233797619D01*
X162361904Y-233873809D01*
X162361904Y-234064285D01*
X162400000Y-234178571D01*
X162361904Y-234445238D02*
X163161904Y-234635714D01*
X162590476Y-234788095D01*
X163161904Y-234940476D01*
X162361904Y-235130952D01*
X163161904Y-235473809D02*
X163161904Y-235626190D01*
X163123809Y-235702380D01*
X163085714Y-235740476D01*
X162971428Y-235816666D01*
X162819047Y-235854761D01*
X162514285Y-235854761D01*
X162438095Y-235816666D01*
X162400000Y-235778571D01*
X162361904Y-235702380D01*
X162361904Y-235550000D01*
X162400000Y-235473809D01*
X162438095Y-235435714D01*
X162514285Y-235397619D01*
X162704761Y-235397619D01*
X162780952Y-235435714D01*
X162819047Y-235473809D01*
X162857142Y-235550000D01*
X162857142Y-235702380D01*
X162819047Y-235778571D01*
X162780952Y-235816666D01*
X162704761Y-235854761D01*
X162361904Y-236350000D02*
X162361904Y-236426190D01*
X162400000Y-236502380D01*
X162438095Y-236540476D01*
X162514285Y-236578571D01*
X162666666Y-236616666D01*
X162857142Y-236616666D01*
X163009523Y-236578571D01*
X163085714Y-236540476D01*
X163123809Y-236502380D01*
X163161904Y-236426190D01*
X163161904Y-236350000D01*
X163123809Y-236273809D01*
X163085714Y-236235714D01*
X163009523Y-236197619D01*
X162857142Y-236159523D01*
X162666666Y-236159523D01*
X162514285Y-236197619D01*
X162438095Y-236235714D01*
X162400000Y-236273809D01*
X162361904Y-236350000D01*
X163161904Y-237378571D02*
X163161904Y-236921428D01*
X163161904Y-237150000D02*
X162361904Y-237150000D01*
X162476190Y-237073809D01*
X162552380Y-236997619D01*
X162590476Y-236921428D01*
X213011904Y-243628571D02*
X213659523Y-243628571D01*
X213735714Y-243666666D01*
X213773809Y-243704761D01*
X213811904Y-243780952D01*
X213811904Y-243933333D01*
X213773809Y-244009523D01*
X213735714Y-244047619D01*
X213659523Y-244085714D01*
X213011904Y-244085714D01*
X213278571Y-244809523D02*
X213811904Y-244809523D01*
X212973809Y-244619047D02*
X213545238Y-244428571D01*
X213545238Y-244923809D01*
X213011904Y-245380952D02*
X213011904Y-245457142D01*
X213050000Y-245533333D01*
X213088095Y-245571428D01*
X213164285Y-245609523D01*
X213316666Y-245647619D01*
X213507142Y-245647619D01*
X213659523Y-245609523D01*
X213735714Y-245571428D01*
X213773809Y-245533333D01*
X213811904Y-245457142D01*
X213811904Y-245380952D01*
X213773809Y-245304761D01*
X213735714Y-245266666D01*
X213659523Y-245228571D01*
X213507142Y-245190476D01*
X213316666Y-245190476D01*
X213164285Y-245228571D01*
X213088095Y-245266666D01*
X213050000Y-245304761D01*
X213011904Y-245380952D01*
X213011904Y-245914285D02*
X213011904Y-246409523D01*
X213316666Y-246142857D01*
X213316666Y-246257142D01*
X213354761Y-246333333D01*
X213392857Y-246371428D01*
X213469047Y-246409523D01*
X213659523Y-246409523D01*
X213735714Y-246371428D01*
X213773809Y-246333333D01*
X213811904Y-246257142D01*
X213811904Y-246028571D01*
X213773809Y-245952380D01*
X213735714Y-245914285D01*
X163123809Y-153721428D02*
X163161904Y-153835714D01*
X163161904Y-154026190D01*
X163123809Y-154102380D01*
X163085714Y-154140476D01*
X163009523Y-154178571D01*
X162933333Y-154178571D01*
X162857142Y-154140476D01*
X162819047Y-154102380D01*
X162780952Y-154026190D01*
X162742857Y-153873809D01*
X162704761Y-153797619D01*
X162666666Y-153759523D01*
X162590476Y-153721428D01*
X162514285Y-153721428D01*
X162438095Y-153759523D01*
X162400000Y-153797619D01*
X162361904Y-153873809D01*
X162361904Y-154064285D01*
X162400000Y-154178571D01*
X162361904Y-154445238D02*
X163161904Y-154635714D01*
X162590476Y-154788095D01*
X163161904Y-154940476D01*
X162361904Y-155130952D01*
X162361904Y-155359523D02*
X162361904Y-155892857D01*
X163161904Y-155550000D01*
X162361904Y-156350000D02*
X162361904Y-156426190D01*
X162400000Y-156502380D01*
X162438095Y-156540476D01*
X162514285Y-156578571D01*
X162666666Y-156616666D01*
X162857142Y-156616666D01*
X163009523Y-156578571D01*
X163085714Y-156540476D01*
X163123809Y-156502380D01*
X163161904Y-156426190D01*
X163161904Y-156350000D01*
X163123809Y-156273809D01*
X163085714Y-156235714D01*
X163009523Y-156197619D01*
X162857142Y-156159523D01*
X162666666Y-156159523D01*
X162514285Y-156197619D01*
X162438095Y-156235714D01*
X162400000Y-156273809D01*
X162361904Y-156350000D01*
X163161904Y-157378571D02*
X163161904Y-156921428D01*
X163161904Y-157150000D02*
X162361904Y-157150000D01*
X162476190Y-157073809D01*
X162552380Y-156997619D01*
X162590476Y-156921428D01*
X163123809Y-73721428D02*
X163161904Y-73835714D01*
X163161904Y-74026190D01*
X163123809Y-74102380D01*
X163085714Y-74140476D01*
X163009523Y-74178571D01*
X162933333Y-74178571D01*
X162857142Y-74140476D01*
X162819047Y-74102380D01*
X162780952Y-74026190D01*
X162742857Y-73873809D01*
X162704761Y-73797619D01*
X162666666Y-73759523D01*
X162590476Y-73721428D01*
X162514285Y-73721428D01*
X162438095Y-73759523D01*
X162400000Y-73797619D01*
X162361904Y-73873809D01*
X162361904Y-74064285D01*
X162400000Y-74178571D01*
X162361904Y-74445238D02*
X163161904Y-74635714D01*
X162590476Y-74788095D01*
X163161904Y-74940476D01*
X162361904Y-75130952D01*
X162361904Y-75816666D02*
X162361904Y-75435714D01*
X162742857Y-75397619D01*
X162704761Y-75435714D01*
X162666666Y-75511904D01*
X162666666Y-75702380D01*
X162704761Y-75778571D01*
X162742857Y-75816666D01*
X162819047Y-75854761D01*
X163009523Y-75854761D01*
X163085714Y-75816666D01*
X163123809Y-75778571D01*
X163161904Y-75702380D01*
X163161904Y-75511904D01*
X163123809Y-75435714D01*
X163085714Y-75397619D01*
X162361904Y-76350000D02*
X162361904Y-76426190D01*
X162400000Y-76502380D01*
X162438095Y-76540476D01*
X162514285Y-76578571D01*
X162666666Y-76616666D01*
X162857142Y-76616666D01*
X163009523Y-76578571D01*
X163085714Y-76540476D01*
X163123809Y-76502380D01*
X163161904Y-76426190D01*
X163161904Y-76350000D01*
X163123809Y-76273809D01*
X163085714Y-76235714D01*
X163009523Y-76197619D01*
X162857142Y-76159523D01*
X162666666Y-76159523D01*
X162514285Y-76197619D01*
X162438095Y-76235714D01*
X162400000Y-76273809D01*
X162361904Y-76350000D01*
X163161904Y-77378571D02*
X163161904Y-76921428D01*
X163161904Y-77150000D02*
X162361904Y-77150000D01*
X162476190Y-77073809D01*
X162552380Y-76997619D01*
X162590476Y-76921428D01*
X163123809Y-113721428D02*
X163161904Y-113835714D01*
X163161904Y-114026190D01*
X163123809Y-114102380D01*
X163085714Y-114140476D01*
X163009523Y-114178571D01*
X162933333Y-114178571D01*
X162857142Y-114140476D01*
X162819047Y-114102380D01*
X162780952Y-114026190D01*
X162742857Y-113873809D01*
X162704761Y-113797619D01*
X162666666Y-113759523D01*
X162590476Y-113721428D01*
X162514285Y-113721428D01*
X162438095Y-113759523D01*
X162400000Y-113797619D01*
X162361904Y-113873809D01*
X162361904Y-114064285D01*
X162400000Y-114178571D01*
X162361904Y-114445238D02*
X163161904Y-114635714D01*
X162590476Y-114788095D01*
X163161904Y-114940476D01*
X162361904Y-115130952D01*
X162361904Y-115778571D02*
X162361904Y-115626190D01*
X162400000Y-115550000D01*
X162438095Y-115511904D01*
X162552380Y-115435714D01*
X162704761Y-115397619D01*
X163009523Y-115397619D01*
X163085714Y-115435714D01*
X163123809Y-115473809D01*
X163161904Y-115550000D01*
X163161904Y-115702380D01*
X163123809Y-115778571D01*
X163085714Y-115816666D01*
X163009523Y-115854761D01*
X162819047Y-115854761D01*
X162742857Y-115816666D01*
X162704761Y-115778571D01*
X162666666Y-115702380D01*
X162666666Y-115550000D01*
X162704761Y-115473809D01*
X162742857Y-115435714D01*
X162819047Y-115397619D01*
X162361904Y-116350000D02*
X162361904Y-116426190D01*
X162400000Y-116502380D01*
X162438095Y-116540476D01*
X162514285Y-116578571D01*
X162666666Y-116616666D01*
X162857142Y-116616666D01*
X163009523Y-116578571D01*
X163085714Y-116540476D01*
X163123809Y-116502380D01*
X163161904Y-116426190D01*
X163161904Y-116350000D01*
X163123809Y-116273809D01*
X163085714Y-116235714D01*
X163009523Y-116197619D01*
X162857142Y-116159523D01*
X162666666Y-116159523D01*
X162514285Y-116197619D01*
X162438095Y-116235714D01*
X162400000Y-116273809D01*
X162361904Y-116350000D01*
X163161904Y-117378571D02*
X163161904Y-116921428D01*
X163161904Y-117150000D02*
X162361904Y-117150000D01*
X162476190Y-117073809D01*
X162552380Y-116997619D01*
X162590476Y-116921428D01*
X213011904Y-203628571D02*
X213659523Y-203628571D01*
X213735714Y-203666666D01*
X213773809Y-203704761D01*
X213811904Y-203780952D01*
X213811904Y-203933333D01*
X213773809Y-204009523D01*
X213735714Y-204047619D01*
X213659523Y-204085714D01*
X213011904Y-204085714D01*
X213278571Y-204809523D02*
X213811904Y-204809523D01*
X212973809Y-204619047D02*
X213545238Y-204428571D01*
X213545238Y-204923809D01*
X213011904Y-205380952D02*
X213011904Y-205457142D01*
X213050000Y-205533333D01*
X213088095Y-205571428D01*
X213164285Y-205609523D01*
X213316666Y-205647619D01*
X213507142Y-205647619D01*
X213659523Y-205609523D01*
X213735714Y-205571428D01*
X213773809Y-205533333D01*
X213811904Y-205457142D01*
X213811904Y-205380952D01*
X213773809Y-205304761D01*
X213735714Y-205266666D01*
X213659523Y-205228571D01*
X213507142Y-205190476D01*
X213316666Y-205190476D01*
X213164285Y-205228571D01*
X213088095Y-205266666D01*
X213050000Y-205304761D01*
X213011904Y-205380952D01*
X213088095Y-205952380D02*
X213050000Y-205990476D01*
X213011904Y-206066666D01*
X213011904Y-206257142D01*
X213050000Y-206333333D01*
X213088095Y-206371428D01*
X213164285Y-206409523D01*
X213240476Y-206409523D01*
X213354761Y-206371428D01*
X213811904Y-205914285D01*
X213811904Y-206409523D01*
X163123809Y-193721428D02*
X163161904Y-193835714D01*
X163161904Y-194026190D01*
X163123809Y-194102380D01*
X163085714Y-194140476D01*
X163009523Y-194178571D01*
X162933333Y-194178571D01*
X162857142Y-194140476D01*
X162819047Y-194102380D01*
X162780952Y-194026190D01*
X162742857Y-193873809D01*
X162704761Y-193797619D01*
X162666666Y-193759523D01*
X162590476Y-193721428D01*
X162514285Y-193721428D01*
X162438095Y-193759523D01*
X162400000Y-193797619D01*
X162361904Y-193873809D01*
X162361904Y-194064285D01*
X162400000Y-194178571D01*
X162361904Y-194445238D02*
X163161904Y-194635714D01*
X162590476Y-194788095D01*
X163161904Y-194940476D01*
X162361904Y-195130952D01*
X162704761Y-195550000D02*
X162666666Y-195473809D01*
X162628571Y-195435714D01*
X162552380Y-195397619D01*
X162514285Y-195397619D01*
X162438095Y-195435714D01*
X162400000Y-195473809D01*
X162361904Y-195550000D01*
X162361904Y-195702380D01*
X162400000Y-195778571D01*
X162438095Y-195816666D01*
X162514285Y-195854761D01*
X162552380Y-195854761D01*
X162628571Y-195816666D01*
X162666666Y-195778571D01*
X162704761Y-195702380D01*
X162704761Y-195550000D01*
X162742857Y-195473809D01*
X162780952Y-195435714D01*
X162857142Y-195397619D01*
X163009523Y-195397619D01*
X163085714Y-195435714D01*
X163123809Y-195473809D01*
X163161904Y-195550000D01*
X163161904Y-195702380D01*
X163123809Y-195778571D01*
X163085714Y-195816666D01*
X163009523Y-195854761D01*
X162857142Y-195854761D01*
X162780952Y-195816666D01*
X162742857Y-195778571D01*
X162704761Y-195702380D01*
X162361904Y-196350000D02*
X162361904Y-196426190D01*
X162400000Y-196502380D01*
X162438095Y-196540476D01*
X162514285Y-196578571D01*
X162666666Y-196616666D01*
X162857142Y-196616666D01*
X163009523Y-196578571D01*
X163085714Y-196540476D01*
X163123809Y-196502380D01*
X163161904Y-196426190D01*
X163161904Y-196350000D01*
X163123809Y-196273809D01*
X163085714Y-196235714D01*
X163009523Y-196197619D01*
X162857142Y-196159523D01*
X162666666Y-196159523D01*
X162514285Y-196197619D01*
X162438095Y-196235714D01*
X162400000Y-196273809D01*
X162361904Y-196350000D01*
X163161904Y-197378571D02*
X163161904Y-196921428D01*
X163161904Y-197150000D02*
X162361904Y-197150000D01*
X162476190Y-197073809D01*
X162552380Y-196997619D01*
X162590476Y-196921428D01*
X213011904Y-123628571D02*
X213659523Y-123628571D01*
X213735714Y-123666666D01*
X213773809Y-123704761D01*
X213811904Y-123780952D01*
X213811904Y-123933333D01*
X213773809Y-124009523D01*
X213735714Y-124047619D01*
X213659523Y-124085714D01*
X213011904Y-124085714D01*
X213011904Y-124390476D02*
X213011904Y-124885714D01*
X213316666Y-124619047D01*
X213316666Y-124733333D01*
X213354761Y-124809523D01*
X213392857Y-124847619D01*
X213469047Y-124885714D01*
X213659523Y-124885714D01*
X213735714Y-124847619D01*
X213773809Y-124809523D01*
X213811904Y-124733333D01*
X213811904Y-124504761D01*
X213773809Y-124428571D01*
X213735714Y-124390476D01*
X213011904Y-125380952D02*
X213011904Y-125457142D01*
X213050000Y-125533333D01*
X213088095Y-125571428D01*
X213164285Y-125609523D01*
X213316666Y-125647619D01*
X213507142Y-125647619D01*
X213659523Y-125609523D01*
X213735714Y-125571428D01*
X213773809Y-125533333D01*
X213811904Y-125457142D01*
X213811904Y-125380952D01*
X213773809Y-125304761D01*
X213735714Y-125266666D01*
X213659523Y-125228571D01*
X213507142Y-125190476D01*
X213316666Y-125190476D01*
X213164285Y-125228571D01*
X213088095Y-125266666D01*
X213050000Y-125304761D01*
X213011904Y-125380952D01*
X213088095Y-125952380D02*
X213050000Y-125990476D01*
X213011904Y-126066666D01*
X213011904Y-126257142D01*
X213050000Y-126333333D01*
X213088095Y-126371428D01*
X213164285Y-126409523D01*
X213240476Y-126409523D01*
X213354761Y-126371428D01*
X213811904Y-125914285D01*
X213811904Y-126409523D01*
X213061904Y-43628571D02*
X213709523Y-43628571D01*
X213785714Y-43666666D01*
X213823809Y-43704761D01*
X213861904Y-43780952D01*
X213861904Y-43933333D01*
X213823809Y-44009523D01*
X213785714Y-44047619D01*
X213709523Y-44085714D01*
X213061904Y-44085714D01*
X213138095Y-44428571D02*
X213100000Y-44466666D01*
X213061904Y-44542857D01*
X213061904Y-44733333D01*
X213100000Y-44809523D01*
X213138095Y-44847619D01*
X213214285Y-44885714D01*
X213290476Y-44885714D01*
X213404761Y-44847619D01*
X213861904Y-44390476D01*
X213861904Y-44885714D01*
X213061904Y-45380952D02*
X213061904Y-45457142D01*
X213100000Y-45533333D01*
X213138095Y-45571428D01*
X213214285Y-45609523D01*
X213366666Y-45647619D01*
X213557142Y-45647619D01*
X213709523Y-45609523D01*
X213785714Y-45571428D01*
X213823809Y-45533333D01*
X213861904Y-45457142D01*
X213861904Y-45380952D01*
X213823809Y-45304761D01*
X213785714Y-45266666D01*
X213709523Y-45228571D01*
X213557142Y-45190476D01*
X213366666Y-45190476D01*
X213214285Y-45228571D01*
X213138095Y-45266666D01*
X213100000Y-45304761D01*
X213061904Y-45380952D01*
X213138095Y-45952380D02*
X213100000Y-45990476D01*
X213061904Y-46066666D01*
X213061904Y-46257142D01*
X213100000Y-46333333D01*
X213138095Y-46371428D01*
X213214285Y-46409523D01*
X213290476Y-46409523D01*
X213404761Y-46371428D01*
X213861904Y-45914285D01*
X213861904Y-46409523D01*
D12*
X180960000Y-38140000D02*
X180960000Y-41000000D01*
X179040000Y-38140000D02*
X180960000Y-38140000D01*
X179040000Y-41000000D02*
X179040000Y-38140000D01*
X205120000Y-156082500D02*
X205755000Y-159892500D01*
X202580000Y-156082500D02*
X198770000Y-156082500D01*
X191150000Y-163702500D02*
X190515000Y-159892500D01*
X189880000Y-156082500D02*
X186070000Y-156082500D01*
X203215000Y-159892500D02*
X199405000Y-159892500D01*
X199405000Y-159892500D02*
X200040000Y-163702500D01*
X203850000Y-163702500D02*
X203215000Y-159892500D01*
X190515000Y-159892500D02*
X186705000Y-159892500D01*
X205755000Y-159892500D02*
X206390000Y-163702500D01*
X209565000Y-159892500D02*
X208930000Y-156082500D01*
X208930000Y-156082500D02*
X205120000Y-156082500D01*
X210200000Y-163702500D02*
X209565000Y-159892500D01*
X190515000Y-159892500D02*
X189880000Y-156082500D01*
X196865000Y-159892500D02*
X193055000Y-159892500D01*
X197500000Y-163702500D02*
X196865000Y-159892500D01*
X186070000Y-156082500D02*
X186705000Y-159892500D01*
X203215000Y-159892500D02*
X202580000Y-156082500D01*
X192420000Y-156082500D02*
X193055000Y-159892500D01*
X198770000Y-156082500D02*
X199405000Y-159892500D01*
X186705000Y-159892500D02*
X187340000Y-163702500D01*
X196230000Y-156082500D02*
X192420000Y-156082500D01*
X209565000Y-159892500D02*
X205755000Y-159892500D01*
X206390000Y-163702500D02*
X210200000Y-163702500D01*
X193690000Y-163702500D02*
X197500000Y-163702500D01*
X204750000Y-167172500D02*
X202750000Y-167172500D01*
X196865000Y-159892500D02*
X196230000Y-156082500D01*
X200040000Y-163702500D02*
X203850000Y-163702500D01*
X193055000Y-159892500D02*
X193690000Y-163702500D01*
X187340000Y-163702500D02*
X191150000Y-163702500D01*
X212500000Y-166892500D02*
X182500000Y-166892500D01*
X182500000Y-166892500D02*
X182500000Y-152892500D01*
X182500000Y-152892500D02*
X212500000Y-152892500D01*
X212500000Y-152892500D02*
X212500000Y-166892500D01*
X205374000Y-163702500D02*
G75*
G03*
X205374000Y-163702500I-254000J0D01*
G01*
X199024000Y-163702500D02*
G75*
G03*
X199024000Y-163702500I-254000J0D01*
G01*
X186324000Y-163702500D02*
G75*
G03*
X186324000Y-163702500I-254000J0D01*
G01*
X192674000Y-163702500D02*
G75*
G03*
X192674000Y-163702500I-254000J0D01*
G01*
G36*
X216950600Y-34111062D02*
G01*
X217001400Y-34307912D01*
X217045850Y-34503175D01*
X217085537Y-34706375D01*
X216701362Y-34706375D01*
X216739462Y-34503175D01*
X216782325Y-34307912D01*
X216833125Y-34111062D01*
X216891862Y-33899925D01*
X216950600Y-34111062D01*
G37*
G36*
X214468820Y-36178860D02*
G01*
X214305059Y-36154568D01*
X214144467Y-36114342D01*
X213988592Y-36058569D01*
X213838934Y-35987786D01*
X213696935Y-35902675D01*
X213563962Y-35804056D01*
X213441296Y-35692877D01*
X213330117Y-35570211D01*
X213266364Y-35484250D01*
X214634437Y-35484250D01*
X215869512Y-35484250D01*
X216123512Y-35484250D01*
X216542612Y-35484250D01*
X216634687Y-35030225D01*
X217158562Y-35030225D01*
X217247462Y-35484250D01*
X217653862Y-35484250D01*
X217597855Y-35255967D01*
X217541594Y-35035940D01*
X217485079Y-34824167D01*
X217428310Y-34620650D01*
X217371287Y-34425387D01*
X217300445Y-34189545D01*
X217230794Y-33959853D01*
X217194938Y-33842775D01*
X217761812Y-33842775D01*
X218279337Y-33842775D01*
X218279337Y-35484250D01*
X218673037Y-35484250D01*
X218673037Y-34500000D01*
X219355662Y-34500000D01*
X219367172Y-34738423D01*
X219401700Y-34945691D01*
X219459247Y-35121804D01*
X219539812Y-35266762D01*
X219679512Y-35410519D01*
X219853079Y-35496774D01*
X220060512Y-35525525D01*
X220273061Y-35496774D01*
X220449274Y-35410519D01*
X220589150Y-35266762D01*
X220669021Y-35121804D01*
X220726072Y-34945691D01*
X220760302Y-34738423D01*
X220771712Y-34500000D01*
X220760005Y-34261577D01*
X220724881Y-34054309D01*
X220666342Y-33878196D01*
X220646316Y-33842775D01*
X220936812Y-33842775D01*
X221454337Y-33842775D01*
X221454337Y-35484250D01*
X221848037Y-35484250D01*
X221848037Y-33842775D01*
X222365562Y-33842775D01*
X222365562Y-33518925D01*
X220936812Y-33518925D01*
X220936812Y-33842775D01*
X220646316Y-33842775D01*
X220584387Y-33733237D01*
X220443276Y-33589481D01*
X220269710Y-33503226D01*
X220063687Y-33474475D01*
X219851315Y-33503226D01*
X219675632Y-33589481D01*
X219536637Y-33733237D01*
X219457461Y-33878196D01*
X219400906Y-34054309D01*
X219366973Y-34261577D01*
X219355662Y-34500000D01*
X218673037Y-34500000D01*
X218673037Y-33842775D01*
X219190562Y-33842775D01*
X219190562Y-33518925D01*
X217761812Y-33518925D01*
X217761812Y-33842775D01*
X217194938Y-33842775D01*
X217162333Y-33736313D01*
X217095062Y-33518925D01*
X216669612Y-33518925D01*
X216599862Y-33738099D01*
X216530309Y-33963822D01*
X216460955Y-34196093D01*
X216391800Y-34434912D01*
X216336872Y-34631826D01*
X216282580Y-34835216D01*
X216228922Y-35045084D01*
X216175900Y-35261428D01*
X216123512Y-35484250D01*
X215869512Y-35484250D01*
X215869512Y-33518925D01*
X215475812Y-33518925D01*
X215475812Y-35160400D01*
X214634437Y-35160400D01*
X214634437Y-35484250D01*
X213266364Y-35484250D01*
X213231498Y-35437238D01*
X213146386Y-35295238D01*
X213075604Y-35145581D01*
X213019831Y-34989705D01*
X212979605Y-34829114D01*
X212955313Y-34665353D01*
X212947190Y-34500000D01*
X212955313Y-34334647D01*
X212979605Y-34170886D01*
X213019831Y-34010295D01*
X213075604Y-33854419D01*
X213146386Y-33704762D01*
X213231498Y-33562762D01*
X213330117Y-33429789D01*
X213441296Y-33307123D01*
X213563962Y-33195944D01*
X213696935Y-33097325D01*
X213838934Y-33012214D01*
X213988592Y-32941431D01*
X214144467Y-32885658D01*
X214305059Y-32845432D01*
X214468820Y-32821140D01*
X214634173Y-32813017D01*
X222365827Y-32813017D01*
X222531180Y-32821140D01*
X222694941Y-32845432D01*
X222855532Y-32885658D01*
X223011408Y-32941431D01*
X223161065Y-33012214D01*
X223303065Y-33097325D01*
X223436038Y-33195944D01*
X223558704Y-33307123D01*
X223669883Y-33429789D01*
X223768502Y-33562762D01*
X223853614Y-33704762D01*
X223924396Y-33854419D01*
X223980169Y-34010295D01*
X224020395Y-34170886D01*
X224044687Y-34334647D01*
X224052810Y-34500000D01*
X224044687Y-34665353D01*
X224020395Y-34829114D01*
X223980169Y-34989705D01*
X223924396Y-35145581D01*
X223853614Y-35295238D01*
X223768502Y-35437238D01*
X223669883Y-35570211D01*
X223558704Y-35692877D01*
X223436038Y-35804056D01*
X223303065Y-35902675D01*
X223161065Y-35987786D01*
X223011408Y-36058569D01*
X222855532Y-36114342D01*
X222694941Y-36154568D01*
X222531180Y-36178860D01*
X222365827Y-36186983D01*
X214634173Y-36186983D01*
X214468820Y-36178860D01*
G37*
G36*
X220225612Y-33868175D02*
G01*
X220319275Y-34015812D01*
X220363725Y-34233300D01*
X220372059Y-34361887D01*
X220374837Y-34500000D01*
X220372059Y-34638509D01*
X220363725Y-34768287D01*
X220319275Y-34985775D01*
X220225612Y-35131825D01*
X220063687Y-35185800D01*
X219903350Y-35131825D01*
X219808100Y-34984187D01*
X219763650Y-34766700D01*
X219755316Y-34638112D01*
X219752537Y-34500000D01*
X219755316Y-34361491D01*
X219763650Y-34231712D01*
X219808100Y-34014225D01*
X219901762Y-33868175D01*
X220063687Y-33814200D01*
X220225612Y-33868175D01*
G37*
G36*
X217171242Y-115658322D02*
G01*
X217009485Y-115634327D01*
X216850858Y-115594594D01*
X216696890Y-115539503D01*
X216549063Y-115469586D01*
X216408801Y-115385516D01*
X216277454Y-115288103D01*
X216156288Y-115178284D01*
X216046470Y-115057119D01*
X216007732Y-115004887D01*
X217334837Y-115004887D01*
X218617537Y-115004887D01*
X218625475Y-114925512D01*
X218623887Y-114858838D01*
X218609203Y-114706437D01*
X218565150Y-114566737D01*
X218498475Y-114438547D01*
X218415925Y-114320675D01*
X218322262Y-114211931D01*
X218222250Y-114111125D01*
X218122237Y-114016272D01*
X218028575Y-113925387D01*
X217879350Y-113753938D01*
X217820612Y-113585663D01*
X217893637Y-113399925D01*
X218077787Y-113334837D01*
X218271462Y-113379287D01*
X218471487Y-113528512D01*
X218665162Y-113255462D01*
X218528241Y-113139575D01*
X218371475Y-113058613D01*
X218205184Y-113010988D01*
X218039687Y-112995113D01*
X217807912Y-113030037D01*
X217611062Y-113134812D01*
X217474537Y-113311025D01*
X217423737Y-113557087D01*
X217461837Y-113752350D01*
X217563437Y-113934912D01*
X217706312Y-114106362D01*
X217868237Y-114265113D01*
X217963487Y-114355600D01*
X218065087Y-114463550D01*
X218146050Y-114576262D01*
X218179387Y-114681038D01*
X217334837Y-114681038D01*
X217334837Y-115004887D01*
X216007732Y-115004887D01*
X215949057Y-114925772D01*
X215864987Y-114785510D01*
X215795070Y-114637683D01*
X215739979Y-114483715D01*
X215700245Y-114325088D01*
X215676251Y-114163330D01*
X215668227Y-114000000D01*
X215676251Y-113836670D01*
X215700245Y-113674912D01*
X215739979Y-113516285D01*
X215795070Y-113362317D01*
X215864987Y-113214490D01*
X215949057Y-113074228D01*
X216046470Y-112942881D01*
X216156288Y-112821716D01*
X216277454Y-112711897D01*
X216408801Y-112614484D01*
X216549063Y-112530414D01*
X216696890Y-112460497D01*
X216850858Y-112405406D01*
X217009485Y-112365673D01*
X217171242Y-112341678D01*
X217334573Y-112333654D01*
X218665427Y-112333654D01*
X218828758Y-112341678D01*
X218990515Y-112365673D01*
X219149142Y-112405406D01*
X219303110Y-112460497D01*
X219450937Y-112530414D01*
X219591199Y-112614484D01*
X219722546Y-112711897D01*
X219843711Y-112821716D01*
X219953530Y-112942881D01*
X220050943Y-113074228D01*
X220135013Y-113214490D01*
X220204930Y-113362317D01*
X220260021Y-113516285D01*
X220299755Y-113674912D01*
X220323749Y-113836670D01*
X220331773Y-114000000D01*
X220323749Y-114163330D01*
X220299755Y-114325088D01*
X220260021Y-114483715D01*
X220204930Y-114637683D01*
X220135013Y-114785510D01*
X220050943Y-114925772D01*
X219953530Y-115057119D01*
X219843711Y-115178284D01*
X219722546Y-115288103D01*
X219591199Y-115385516D01*
X219450937Y-115469586D01*
X219303110Y-115539503D01*
X219149142Y-115594594D01*
X218990515Y-115634327D01*
X218828758Y-115658322D01*
X218665427Y-115666346D01*
X217334573Y-115666346D01*
X217171242Y-115658322D01*
G37*
G36*
X217183507Y-155678860D02*
G01*
X217019746Y-155654568D01*
X216859155Y-155614342D01*
X216703280Y-155558569D01*
X216553622Y-155487786D01*
X216411623Y-155402675D01*
X216278650Y-155304056D01*
X216155983Y-155192877D01*
X216044805Y-155070211D01*
X215946185Y-154937238D01*
X215861074Y-154795238D01*
X215790291Y-154645581D01*
X215734518Y-154489705D01*
X215712061Y-154400050D01*
X217349125Y-154400050D01*
X217393575Y-154650875D01*
X217530100Y-154849312D01*
X217634875Y-154923925D01*
X217765050Y-154979487D01*
X217921419Y-155014016D01*
X218104775Y-155025525D01*
X218258762Y-155014412D01*
X218414337Y-154987425D01*
X218552450Y-154952500D01*
X218650875Y-154917575D01*
X218574675Y-154590550D01*
X218385762Y-154657225D01*
X218258366Y-154683419D01*
X218107950Y-154692150D01*
X217937691Y-154670719D01*
X217826962Y-154606425D01*
X217746000Y-154393700D01*
X217776956Y-154261541D01*
X217869825Y-154176212D01*
X218010319Y-154129778D01*
X218184150Y-154114300D01*
X218304800Y-154114300D01*
X218304800Y-153790450D01*
X218158750Y-153790450D01*
X218038100Y-153777750D01*
X217930150Y-153736475D01*
X217852362Y-153660275D01*
X217822200Y-153539625D01*
X217887287Y-153369762D01*
X218066675Y-153307850D01*
X218287337Y-153344362D01*
X218476250Y-153434850D01*
X218615950Y-153149100D01*
X218388937Y-153033212D01*
X218238522Y-152989159D01*
X218069850Y-152974475D01*
X217915466Y-152984794D01*
X217782512Y-153015750D01*
X217580900Y-153131637D01*
X217463425Y-153307850D01*
X217425325Y-153526925D01*
X217492000Y-153752350D01*
X217669800Y-153917450D01*
X217534466Y-153996031D01*
X217433262Y-154104775D01*
X217370159Y-154240506D01*
X217349125Y-154400050D01*
X215712061Y-154400050D01*
X215694292Y-154329114D01*
X215670000Y-154165353D01*
X215661877Y-154000000D01*
X215670000Y-153834647D01*
X215694292Y-153670886D01*
X215734518Y-153510295D01*
X215790291Y-153354419D01*
X215861074Y-153204762D01*
X215946185Y-153062762D01*
X216044805Y-152929789D01*
X216155983Y-152807123D01*
X216278650Y-152695944D01*
X216411623Y-152597325D01*
X216553622Y-152512214D01*
X216703280Y-152441431D01*
X216859155Y-152385658D01*
X217019746Y-152345432D01*
X217183507Y-152321140D01*
X217348860Y-152313017D01*
X218651140Y-152313017D01*
X218816493Y-152321140D01*
X218980254Y-152345432D01*
X219140845Y-152385658D01*
X219296720Y-152441431D01*
X219446378Y-152512214D01*
X219588377Y-152597325D01*
X219721350Y-152695944D01*
X219844017Y-152807123D01*
X219955195Y-152929789D01*
X220053815Y-153062762D01*
X220138926Y-153204762D01*
X220209709Y-153354419D01*
X220265482Y-153510295D01*
X220305708Y-153670886D01*
X220330000Y-153834647D01*
X220338123Y-154000000D01*
X220330000Y-154165353D01*
X220305708Y-154329114D01*
X220265482Y-154489705D01*
X220209709Y-154645581D01*
X220138926Y-154795238D01*
X220053815Y-154937238D01*
X219955195Y-155070211D01*
X219844017Y-155192877D01*
X219721350Y-155304056D01*
X219588377Y-155402675D01*
X219446378Y-155487786D01*
X219296720Y-155558569D01*
X219140845Y-155614342D01*
X218980254Y-155654568D01*
X218816493Y-155678860D01*
X218651140Y-155686983D01*
X217348860Y-155686983D01*
X217183507Y-155678860D01*
G37*
X187340000Y-83702500D02*
X191150000Y-83702500D01*
X210200000Y-83702500D02*
X209565000Y-79892500D01*
X193690000Y-83702500D02*
X197500000Y-83702500D01*
X203850000Y-83702500D02*
X203215000Y-79892500D01*
X190515000Y-79892500D02*
X186705000Y-79892500D01*
X209565000Y-79892500D02*
X205755000Y-79892500D01*
X203215000Y-79892500D02*
X202580000Y-76082500D01*
X189880000Y-76082500D02*
X186070000Y-76082500D01*
X206390000Y-83702500D02*
X210200000Y-83702500D01*
X186070000Y-76082500D02*
X186705000Y-79892500D01*
X209565000Y-79892500D02*
X208930000Y-76082500D01*
X205755000Y-79892500D02*
X206390000Y-83702500D01*
X203215000Y-79892500D02*
X199405000Y-79892500D01*
X190515000Y-79892500D02*
X189880000Y-76082500D01*
X204750000Y-87172500D02*
X202750000Y-87172500D01*
X198770000Y-76082500D02*
X199405000Y-79892500D01*
X197500000Y-83702500D02*
X196865000Y-79892500D01*
X205120000Y-76082500D02*
X205755000Y-79892500D01*
X192420000Y-76082500D02*
X193055000Y-79892500D01*
X200040000Y-83702500D02*
X203850000Y-83702500D01*
X202580000Y-76082500D02*
X198770000Y-76082500D01*
X208930000Y-76082500D02*
X205120000Y-76082500D01*
X199405000Y-79892500D02*
X200040000Y-83702500D01*
X196230000Y-76082500D02*
X192420000Y-76082500D01*
X191150000Y-83702500D02*
X190515000Y-79892500D01*
X196865000Y-79892500D02*
X193055000Y-79892500D01*
X193055000Y-79892500D02*
X193690000Y-83702500D01*
X186705000Y-79892500D02*
X187340000Y-83702500D01*
X196865000Y-79892500D02*
X196230000Y-76082500D01*
X212500000Y-86892500D02*
X182500000Y-86892500D01*
X182500000Y-86892500D02*
X182500000Y-72892500D01*
X182500000Y-72892500D02*
X212500000Y-72892500D01*
X212500000Y-72892500D02*
X212500000Y-86892500D01*
X205374000Y-83702500D02*
G75*
G03*
X205374000Y-83702500I-254000J0D01*
G01*
X199024000Y-83702500D02*
G75*
G03*
X199024000Y-83702500I-254000J0D01*
G01*
X192674000Y-83702500D02*
G75*
G03*
X192674000Y-83702500I-254000J0D01*
G01*
X186324000Y-83702500D02*
G75*
G03*
X186324000Y-83702500I-254000J0D01*
G01*
G36*
X217127383Y-195636204D02*
G01*
X216967783Y-195612530D01*
X216811272Y-195573326D01*
X216659358Y-195518970D01*
X216513502Y-195449985D01*
X216375111Y-195367036D01*
X216245516Y-195270923D01*
X216125966Y-195162569D01*
X216017613Y-195043019D01*
X215921499Y-194913425D01*
X215838550Y-194775033D01*
X215769566Y-194629178D01*
X215730184Y-194519113D01*
X217288800Y-194519113D01*
X217501525Y-194519113D01*
X217501525Y-194982663D01*
X217892050Y-194982663D01*
X217892050Y-194519113D01*
X218711200Y-194519113D01*
X218711200Y-194233362D01*
X218642144Y-194101203D01*
X218555625Y-193952375D01*
X218455612Y-193793228D01*
X218346075Y-193630113D01*
X218228600Y-193466203D01*
X218104775Y-193304675D01*
X217977775Y-193152672D01*
X217850775Y-193017338D01*
X217501525Y-193017338D01*
X217501525Y-194198438D01*
X217288800Y-194198438D01*
X217288800Y-194519113D01*
X215730184Y-194519113D01*
X215715210Y-194477263D01*
X215676006Y-194320752D01*
X215652332Y-194161152D01*
X215644415Y-194000000D01*
X215652332Y-193838848D01*
X215676006Y-193679248D01*
X215715210Y-193522737D01*
X215769566Y-193370822D01*
X215838550Y-193224967D01*
X215921499Y-193086575D01*
X216017613Y-192956981D01*
X216125966Y-192837431D01*
X216245516Y-192729077D01*
X216375111Y-192632964D01*
X216513502Y-192550015D01*
X216659358Y-192481030D01*
X216811272Y-192426674D01*
X216967783Y-192387470D01*
X217127383Y-192363796D01*
X217288535Y-192355879D01*
X218711465Y-192355879D01*
X218872617Y-192363796D01*
X219032217Y-192387470D01*
X219188728Y-192426674D01*
X219340642Y-192481030D01*
X219486498Y-192550015D01*
X219624889Y-192632963D01*
X219754484Y-192729077D01*
X219874034Y-192837431D01*
X219982387Y-192956981D01*
X220078501Y-193086575D01*
X220161450Y-193224967D01*
X220230434Y-193370822D01*
X220284790Y-193522737D01*
X220323994Y-193679248D01*
X220347668Y-193838848D01*
X220355585Y-194000000D01*
X220347668Y-194161152D01*
X220323994Y-194320752D01*
X220284790Y-194477263D01*
X220230434Y-194629178D01*
X220161450Y-194775033D01*
X220078501Y-194913425D01*
X219982387Y-195043019D01*
X219874034Y-195162569D01*
X219754484Y-195270923D01*
X219624889Y-195367037D01*
X219486498Y-195449985D01*
X219340642Y-195518970D01*
X219188728Y-195573326D01*
X219032217Y-195612530D01*
X218872617Y-195636204D01*
X218711465Y-195644121D01*
X217288535Y-195644121D01*
X217127383Y-195636204D01*
G37*
G36*
X218009525Y-193661863D02*
G01*
X218128587Y-193834900D01*
X218241300Y-194017463D01*
X218336550Y-194198438D01*
X217892050Y-194198438D01*
X217892050Y-193506288D01*
X218009525Y-193661863D01*
G37*
X164100000Y-238250000D02*
X164100000Y-234150000D01*
X175900000Y-238250000D02*
X175900000Y-234150000D01*
X166200000Y-232750000D02*
X165900000Y-232450000D01*
X169500000Y-240250000D02*
X170500000Y-240250000D01*
X175900000Y-246350000D02*
X175900000Y-242250000D01*
X164100000Y-234150000D02*
X175900000Y-234150000D01*
X170000000Y-239750000D02*
X170000000Y-240750000D01*
X164100000Y-246350000D02*
X166500000Y-246350000D01*
X165900000Y-232450000D02*
X165900000Y-233050000D01*
X168700000Y-246350000D02*
X171300000Y-246350000D01*
X165900000Y-233050000D02*
X166200000Y-232750000D01*
X173500000Y-246350000D02*
X175900000Y-246350000D01*
X164100000Y-242250000D02*
X164100000Y-246350000D01*
X173000000Y-240250000D02*
G75*
G03*
X173000000Y-240250000I-3000000J0D01*
G01*
G36*
X217182511Y-235656742D02*
G01*
X217020907Y-235632770D01*
X216862432Y-235593074D01*
X216708610Y-235538036D01*
X216560924Y-235468186D01*
X216420795Y-235384196D01*
X216289574Y-235286876D01*
X216168524Y-235177162D01*
X216058810Y-235056112D01*
X215961489Y-234924890D01*
X215877500Y-234784762D01*
X215807649Y-234637075D01*
X215752611Y-234483254D01*
X215723817Y-234368300D01*
X217345950Y-234368300D01*
X217393575Y-234620713D01*
X217539625Y-234822325D01*
X217649956Y-234898525D01*
X217784100Y-234955675D01*
X217942056Y-234991394D01*
X218123825Y-235003300D01*
X218279400Y-234993775D01*
X218431800Y-234969962D01*
X218563563Y-234936625D01*
X218654050Y-234901700D01*
X218574675Y-234577850D01*
X218396875Y-234641350D01*
X218275431Y-234662781D01*
X218127000Y-234669925D01*
X217938088Y-234644525D01*
X217820613Y-234579437D01*
X217761875Y-234488950D01*
X217746000Y-234384175D01*
X217772988Y-234233362D01*
X217880938Y-234115887D01*
X218111125Y-234039687D01*
X218283369Y-234019447D01*
X218501650Y-234012700D01*
X218473075Y-233748778D01*
X218450850Y-233490412D01*
X218434181Y-233239191D01*
X218422275Y-232996700D01*
X217418975Y-232996700D01*
X217418975Y-233320550D01*
X218095250Y-233320550D01*
X218111125Y-233533275D01*
X218127000Y-233714250D01*
X217886758Y-233746706D01*
X217690967Y-233810206D01*
X217539625Y-233904750D01*
X217432028Y-234029633D01*
X217367469Y-234184150D01*
X217345950Y-234368300D01*
X215723817Y-234368300D01*
X215712915Y-234324778D01*
X215688943Y-234163175D01*
X215680927Y-234000000D01*
X215688943Y-233836825D01*
X215712915Y-233675222D01*
X215752611Y-233516746D01*
X215807649Y-233362925D01*
X215877500Y-233215238D01*
X215961489Y-233075110D01*
X216058810Y-232943888D01*
X216168524Y-232822838D01*
X216289574Y-232713124D01*
X216420795Y-232615804D01*
X216560924Y-232531814D01*
X216708610Y-232461964D01*
X216862432Y-232406926D01*
X217020907Y-232367230D01*
X217182511Y-232343258D01*
X217345685Y-232335242D01*
X218654315Y-232335242D01*
X218817489Y-232343258D01*
X218979093Y-232367230D01*
X219137568Y-232406926D01*
X219291390Y-232461964D01*
X219439076Y-232531814D01*
X219579205Y-232615804D01*
X219710426Y-232713124D01*
X219831476Y-232822838D01*
X219941190Y-232943888D01*
X220038511Y-233075110D01*
X220122500Y-233215238D01*
X220192351Y-233362925D01*
X220247389Y-233516746D01*
X220287085Y-233675222D01*
X220311057Y-233836825D01*
X220319073Y-234000000D01*
X220311057Y-234163175D01*
X220287085Y-234324778D01*
X220247389Y-234483254D01*
X220192351Y-234637075D01*
X220122500Y-234784762D01*
X220038511Y-234924890D01*
X219941190Y-235056112D01*
X219831476Y-235177162D01*
X219710426Y-235286876D01*
X219579205Y-235384196D01*
X219439076Y-235468186D01*
X219291390Y-235538036D01*
X219137568Y-235593074D01*
X218979093Y-235632770D01*
X218817489Y-235656742D01*
X218654315Y-235664758D01*
X217345685Y-235664758D01*
X217182511Y-235656742D01*
G37*
X208930000Y-236082500D02*
X205120000Y-236082500D01*
X186705000Y-239892500D02*
X187340000Y-243702500D01*
X205755000Y-239892500D02*
X206390000Y-243702500D01*
X189880000Y-236082500D02*
X186070000Y-236082500D01*
X202580000Y-236082500D02*
X198770000Y-236082500D01*
X191150000Y-243702500D02*
X190515000Y-239892500D01*
X204750000Y-247172500D02*
X202750000Y-247172500D01*
X200040000Y-243702500D02*
X203850000Y-243702500D01*
X193690000Y-243702500D02*
X197500000Y-243702500D01*
X196865000Y-239892500D02*
X196230000Y-236082500D01*
X203215000Y-239892500D02*
X199405000Y-239892500D01*
X210200000Y-243702500D02*
X209565000Y-239892500D01*
X190515000Y-239892500D02*
X186705000Y-239892500D01*
X186070000Y-236082500D02*
X186705000Y-239892500D01*
X198770000Y-236082500D02*
X199405000Y-239892500D01*
X203850000Y-243702500D02*
X203215000Y-239892500D01*
X205120000Y-236082500D02*
X205755000Y-239892500D01*
X196230000Y-236082500D02*
X192420000Y-236082500D01*
X209565000Y-239892500D02*
X208930000Y-236082500D01*
X192420000Y-236082500D02*
X193055000Y-239892500D01*
X209565000Y-239892500D02*
X205755000Y-239892500D01*
X199405000Y-239892500D02*
X200040000Y-243702500D01*
X193055000Y-239892500D02*
X193690000Y-243702500D01*
X196865000Y-239892500D02*
X193055000Y-239892500D01*
X203215000Y-239892500D02*
X202580000Y-236082500D01*
X197500000Y-243702500D02*
X196865000Y-239892500D01*
X206390000Y-243702500D02*
X210200000Y-243702500D01*
X190515000Y-239892500D02*
X189880000Y-236082500D01*
X187340000Y-243702500D02*
X191150000Y-243702500D01*
X212500000Y-246892500D02*
X182500000Y-246892500D01*
X182500000Y-246892500D02*
X182500000Y-232892500D01*
X182500000Y-232892500D02*
X212500000Y-232892500D01*
X212500000Y-232892500D02*
X212500000Y-246892500D01*
X186324000Y-243702500D02*
G75*
G03*
X186324000Y-243702500I-254000J0D01*
G01*
X205374000Y-243702500D02*
G75*
G03*
X205374000Y-243702500I-254000J0D01*
G01*
X199024000Y-243702500D02*
G75*
G03*
X199024000Y-243702500I-254000J0D01*
G01*
X192674000Y-243702500D02*
G75*
G03*
X192674000Y-243702500I-254000J0D01*
G01*
X175900000Y-158250000D02*
X175900000Y-154150000D01*
X168700000Y-166350000D02*
X171300000Y-166350000D01*
X164100000Y-162250000D02*
X164100000Y-166350000D01*
X164100000Y-158250000D02*
X164100000Y-154150000D01*
X164100000Y-154150000D02*
X175900000Y-154150000D01*
X165900000Y-153050000D02*
X166200000Y-152750000D01*
X170000000Y-159750000D02*
X170000000Y-160750000D01*
X165900000Y-152450000D02*
X165900000Y-153050000D01*
X166200000Y-152750000D02*
X165900000Y-152450000D01*
X173500000Y-166350000D02*
X175900000Y-166350000D01*
X164100000Y-166350000D02*
X166500000Y-166350000D01*
X175900000Y-166350000D02*
X175900000Y-162250000D01*
X169500000Y-160250000D02*
X170500000Y-160250000D01*
X173000000Y-160250000D02*
G75*
G03*
X173000000Y-160250000I-3000000J0D01*
G01*
X164100000Y-78250000D02*
X164100000Y-74150000D01*
X165900000Y-73050000D02*
X166200000Y-72750000D01*
X170000000Y-79750000D02*
X170000000Y-80750000D01*
X164100000Y-74150000D02*
X175900000Y-74150000D01*
X175900000Y-86350000D02*
X175900000Y-82250000D01*
X168700000Y-86350000D02*
X171300000Y-86350000D01*
X164100000Y-86350000D02*
X166500000Y-86350000D01*
X166200000Y-72750000D02*
X165900000Y-72450000D01*
X165900000Y-72450000D02*
X165900000Y-73050000D01*
X169500000Y-80250000D02*
X170500000Y-80250000D01*
X175900000Y-78250000D02*
X175900000Y-74150000D01*
X173500000Y-86350000D02*
X175900000Y-86350000D01*
X164100000Y-82250000D02*
X164100000Y-86350000D01*
X173000000Y-80250000D02*
G75*
G03*
X173000000Y-80250000I-3000000J0D01*
G01*
X164100000Y-118250000D02*
X164100000Y-114150000D01*
X175900000Y-126350000D02*
X175900000Y-122250000D01*
X165900000Y-112450000D02*
X165900000Y-113050000D01*
X175900000Y-118250000D02*
X175900000Y-114150000D01*
X164100000Y-126350000D02*
X166500000Y-126350000D01*
X166200000Y-112750000D02*
X165900000Y-112450000D01*
X164100000Y-114150000D02*
X175900000Y-114150000D01*
X173500000Y-126350000D02*
X175900000Y-126350000D01*
X164100000Y-122250000D02*
X164100000Y-126350000D01*
X165900000Y-113050000D02*
X166200000Y-112750000D01*
X170000000Y-119750000D02*
X170000000Y-120750000D01*
X169500000Y-120250000D02*
X170500000Y-120250000D01*
X168700000Y-126350000D02*
X171300000Y-126350000D01*
X173000000Y-120250000D02*
G75*
G03*
X173000000Y-120250000I-3000000J0D01*
G01*
G36*
X217186121Y-75636204D02*
G01*
X217026521Y-75612529D01*
X216870010Y-75573326D01*
X216718095Y-75518970D01*
X216572240Y-75449985D01*
X216433848Y-75367036D01*
X216304254Y-75270923D01*
X216184704Y-75162569D01*
X216076350Y-75043019D01*
X216031587Y-74982663D01*
X217347537Y-74982663D01*
X218541337Y-74982663D01*
X218541337Y-74658813D01*
X218128587Y-74658813D01*
X218128587Y-73560262D01*
X218331787Y-73672975D01*
X218525462Y-73750763D01*
X218652462Y-73426913D01*
X218487362Y-73353888D01*
X218309562Y-73255462D01*
X218141287Y-73141163D01*
X218004762Y-73017338D01*
X217738062Y-73017338D01*
X217738062Y-74658813D01*
X217347537Y-74658813D01*
X217347537Y-74982663D01*
X216031587Y-74982663D01*
X215980236Y-74913425D01*
X215897288Y-74775033D01*
X215828303Y-74629178D01*
X215773947Y-74477263D01*
X215734743Y-74320752D01*
X215711069Y-74161152D01*
X215703152Y-74000000D01*
X215711069Y-73838848D01*
X215734743Y-73679248D01*
X215773947Y-73522737D01*
X215828303Y-73370822D01*
X215897288Y-73224967D01*
X215980236Y-73086575D01*
X216076350Y-72956981D01*
X216184704Y-72837431D01*
X216304254Y-72729077D01*
X216433848Y-72632964D01*
X216572240Y-72550015D01*
X216718095Y-72481030D01*
X216870010Y-72426674D01*
X217026521Y-72387471D01*
X217186121Y-72363796D01*
X217347273Y-72355879D01*
X218652727Y-72355879D01*
X218813879Y-72363796D01*
X218973479Y-72387470D01*
X219129990Y-72426674D01*
X219281905Y-72481030D01*
X219427760Y-72550015D01*
X219566152Y-72632963D01*
X219695746Y-72729077D01*
X219815296Y-72837431D01*
X219923650Y-72956981D01*
X220019764Y-73086575D01*
X220102712Y-73224967D01*
X220171697Y-73370822D01*
X220226053Y-73522737D01*
X220265257Y-73679248D01*
X220288931Y-73838848D01*
X220296848Y-74000000D01*
X220288931Y-74161152D01*
X220265257Y-74320752D01*
X220226053Y-74477263D01*
X220171697Y-74629178D01*
X220102712Y-74775033D01*
X220019764Y-74913425D01*
X219923650Y-75043019D01*
X219815296Y-75162569D01*
X219695746Y-75270923D01*
X219566152Y-75367037D01*
X219427760Y-75449985D01*
X219281905Y-75518970D01*
X219129990Y-75573326D01*
X218973479Y-75612530D01*
X218813879Y-75636204D01*
X218652727Y-75644121D01*
X217347273Y-75644121D01*
X217186121Y-75636204D01*
G37*
X190515000Y-199892500D02*
X189880000Y-196082500D01*
X186705000Y-199892500D02*
X187340000Y-203702500D01*
X209565000Y-199892500D02*
X205755000Y-199892500D01*
X200040000Y-203702500D02*
X203850000Y-203702500D01*
X198770000Y-196082500D02*
X199405000Y-199892500D01*
X196865000Y-199892500D02*
X193055000Y-199892500D01*
X196230000Y-196082500D02*
X192420000Y-196082500D01*
X205120000Y-196082500D02*
X205755000Y-199892500D01*
X186070000Y-196082500D02*
X186705000Y-199892500D01*
X202580000Y-196082500D02*
X198770000Y-196082500D01*
X192420000Y-196082500D02*
X193055000Y-199892500D01*
X206390000Y-203702500D02*
X210200000Y-203702500D01*
X191150000Y-203702500D02*
X190515000Y-199892500D01*
X203215000Y-199892500D02*
X199405000Y-199892500D01*
X189880000Y-196082500D02*
X186070000Y-196082500D01*
X196865000Y-199892500D02*
X196230000Y-196082500D01*
X205755000Y-199892500D02*
X206390000Y-203702500D01*
X197500000Y-203702500D02*
X196865000Y-199892500D01*
X190515000Y-199892500D02*
X186705000Y-199892500D01*
X210200000Y-203702500D02*
X209565000Y-199892500D01*
X203215000Y-199892500D02*
X202580000Y-196082500D01*
X208930000Y-196082500D02*
X205120000Y-196082500D01*
X204750000Y-207172500D02*
X202750000Y-207172500D01*
X193690000Y-203702500D02*
X197500000Y-203702500D01*
X187340000Y-203702500D02*
X191150000Y-203702500D01*
X193055000Y-199892500D02*
X193690000Y-203702500D01*
X199405000Y-199892500D02*
X200040000Y-203702500D01*
X209565000Y-199892500D02*
X208930000Y-196082500D01*
X203850000Y-203702500D02*
X203215000Y-199892500D01*
X212500000Y-206892500D02*
X182500000Y-206892500D01*
X182500000Y-206892500D02*
X182500000Y-192892500D01*
X182500000Y-192892500D02*
X212500000Y-192892500D01*
X212500000Y-192892500D02*
X212500000Y-206892500D01*
X192674000Y-203702500D02*
G75*
G03*
X192674000Y-203702500I-254000J0D01*
G01*
X186324000Y-203702500D02*
G75*
G03*
X186324000Y-203702500I-254000J0D01*
G01*
X199024000Y-203702500D02*
G75*
G03*
X199024000Y-203702500I-254000J0D01*
G01*
X205374000Y-203702500D02*
G75*
G03*
X205374000Y-203702500I-254000J0D01*
G01*
X175900000Y-206350000D02*
X175900000Y-202250000D01*
X169500000Y-200250000D02*
X170500000Y-200250000D01*
X164100000Y-198250000D02*
X164100000Y-194150000D01*
X164100000Y-194150000D02*
X175900000Y-194150000D01*
X170000000Y-199750000D02*
X170000000Y-200750000D01*
X173500000Y-206350000D02*
X175900000Y-206350000D01*
X164100000Y-206350000D02*
X166500000Y-206350000D01*
X175900000Y-198250000D02*
X175900000Y-194150000D01*
X165900000Y-193050000D02*
X166200000Y-192750000D01*
X165900000Y-192450000D02*
X165900000Y-193050000D01*
X166200000Y-192750000D02*
X165900000Y-192450000D01*
X168700000Y-206350000D02*
X171300000Y-206350000D01*
X164100000Y-202250000D02*
X164100000Y-206350000D01*
X173000000Y-200250000D02*
G75*
G03*
X173000000Y-200250000I-3000000J0D01*
G01*
X193690000Y-123702500D02*
X197500000Y-123702500D01*
X186070000Y-116082500D02*
X186705000Y-119892500D01*
X198770000Y-116082500D02*
X199405000Y-119892500D01*
X191150000Y-123702500D02*
X190515000Y-119892500D01*
X186705000Y-119892500D02*
X187340000Y-123702500D01*
X193055000Y-119892500D02*
X193690000Y-123702500D01*
X192420000Y-116082500D02*
X193055000Y-119892500D01*
X210200000Y-123702500D02*
X209565000Y-119892500D01*
X202580000Y-116082500D02*
X198770000Y-116082500D01*
X203850000Y-123702500D02*
X203215000Y-119892500D01*
X203215000Y-119892500D02*
X199405000Y-119892500D01*
X189880000Y-116082500D02*
X186070000Y-116082500D01*
X196865000Y-119892500D02*
X196230000Y-116082500D01*
X200040000Y-123702500D02*
X203850000Y-123702500D01*
X209565000Y-119892500D02*
X208930000Y-116082500D01*
X203215000Y-119892500D02*
X202580000Y-116082500D01*
X190515000Y-119892500D02*
X186705000Y-119892500D01*
X208930000Y-116082500D02*
X205120000Y-116082500D01*
X196230000Y-116082500D02*
X192420000Y-116082500D01*
X204750000Y-127172500D02*
X202750000Y-127172500D01*
X187340000Y-123702500D02*
X191150000Y-123702500D01*
X199405000Y-119892500D02*
X200040000Y-123702500D01*
X190515000Y-119892500D02*
X189880000Y-116082500D01*
X205755000Y-119892500D02*
X206390000Y-123702500D01*
X206390000Y-123702500D02*
X210200000Y-123702500D01*
X196865000Y-119892500D02*
X193055000Y-119892500D01*
X209565000Y-119892500D02*
X205755000Y-119892500D01*
X205120000Y-116082500D02*
X205755000Y-119892500D01*
X197500000Y-123702500D02*
X196865000Y-119892500D01*
X212500000Y-126892500D02*
X182500000Y-126892500D01*
X182500000Y-126892500D02*
X182500000Y-112892500D01*
X182500000Y-112892500D02*
X212500000Y-112892500D01*
X212500000Y-112892500D02*
X212500000Y-126892500D01*
X186324000Y-123702500D02*
G75*
G03*
X186324000Y-123702500I-254000J0D01*
G01*
X192674000Y-123702500D02*
G75*
G03*
X192674000Y-123702500I-254000J0D01*
G01*
X199024000Y-123702500D02*
G75*
G03*
X199024000Y-123702500I-254000J0D01*
G01*
X205374000Y-123702500D02*
G75*
G03*
X205374000Y-123702500I-254000J0D01*
G01*
X209565000Y-39892500D02*
X208930000Y-36082500D01*
X203850000Y-43702500D02*
X203215000Y-39892500D01*
X196230000Y-36082500D02*
X192420000Y-36082500D01*
X208930000Y-36082500D02*
X205120000Y-36082500D01*
X203215000Y-39892500D02*
X199405000Y-39892500D01*
X190515000Y-39892500D02*
X189880000Y-36082500D01*
X189880000Y-36082500D02*
X186070000Y-36082500D01*
X192420000Y-36082500D02*
X193055000Y-39892500D01*
X204750000Y-47172500D02*
X202750000Y-47172500D01*
X191150000Y-43702500D02*
X190515000Y-39892500D01*
X197500000Y-43702500D02*
X196865000Y-39892500D01*
X199405000Y-39892500D02*
X200040000Y-43702500D01*
X196865000Y-39892500D02*
X196230000Y-36082500D01*
X187340000Y-43702500D02*
X191150000Y-43702500D01*
X198770000Y-36082500D02*
X199405000Y-39892500D01*
X202580000Y-36082500D02*
X198770000Y-36082500D01*
X205120000Y-36082500D02*
X205755000Y-39892500D01*
X206390000Y-43702500D02*
X210200000Y-43702500D01*
X205755000Y-39892500D02*
X206390000Y-43702500D01*
X196865000Y-39892500D02*
X193055000Y-39892500D01*
X193055000Y-39892500D02*
X193690000Y-43702500D01*
X200040000Y-43702500D02*
X203850000Y-43702500D01*
X186705000Y-39892500D02*
X187340000Y-43702500D01*
X210200000Y-43702500D02*
X209565000Y-39892500D01*
X193690000Y-43702500D02*
X197500000Y-43702500D01*
X203215000Y-39892500D02*
X202580000Y-36082500D01*
X190515000Y-39892500D02*
X186705000Y-39892500D01*
X186070000Y-36082500D02*
X186705000Y-39892500D01*
X209565000Y-39892500D02*
X205755000Y-39892500D01*
X212500000Y-46892500D02*
X182500000Y-46892500D01*
X182500000Y-46892500D02*
X182500000Y-32892500D01*
X182500000Y-32892500D02*
X212500000Y-32892500D01*
X212500000Y-32892500D02*
X212500000Y-46892500D01*
X205374000Y-43702500D02*
G75*
G03*
X205374000Y-43702500I-254000J0D01*
G01*
X199024000Y-43702500D02*
G75*
G03*
X199024000Y-43702500I-254000J0D01*
G01*
X186324000Y-43702500D02*
G75*
G03*
X186324000Y-43702500I-254000J0D01*
G01*
X192674000Y-43702500D02*
G75*
G03*
X192674000Y-43702500I-254000J0D01*
G01*
%LPC*%
D13*
X155100000Y-80000000D03*
X159197056Y-81697056D03*
X157500000Y-77600000D03*
X157500000Y-82400000D03*
D14*
X157500000Y-80000000D03*
D13*
X155802944Y-81697056D03*
X159900000Y-80000000D03*
X159197056Y-78302944D03*
X155802944Y-78302944D03*
D15*
X170000000Y-44875000D03*
X170000000Y-35125000D03*
D16*
X170000000Y-40000000D03*
D15*
X173447146Y-36552854D03*
X166552854Y-36552854D03*
X165125000Y-40000000D03*
X173447146Y-43447146D03*
X166552854Y-43447146D03*
X174875000Y-40000000D03*
G36*
G01*
X216725000Y-138350000D02*
X215275000Y-138350000D01*
G75*
G02*
X215025000Y-138100000I0J250000D01*
G01*
X215025000Y-136900000D01*
G75*
G02*
X215275000Y-136650000I250000J0D01*
G01*
X216725000Y-136650000D01*
G75*
G02*
X216975000Y-136900000I0J-250000D01*
G01*
X216975000Y-138100000D01*
G75*
G02*
X216725000Y-138350000I-250000J0D01*
G01*
G37*
D17*
X216000000Y-135000000D03*
X216000000Y-132500000D03*
G36*
G01*
X153233000Y-138415000D02*
X153233000Y-136885000D01*
G75*
G02*
X153335000Y-136783000I102000J0D01*
G01*
X154865000Y-136783000D01*
G75*
G02*
X154967000Y-136885000I0J-102000D01*
G01*
X154967000Y-138415000D01*
G75*
G02*
X154865000Y-138517000I-102000J0D01*
G01*
X153335000Y-138517000D01*
G75*
G02*
X153233000Y-138415000I0J102000D01*
G01*
G37*
D18*
X154100000Y-140190000D03*
X154100000Y-142730000D03*
X154100000Y-145270000D03*
X154100000Y-147810000D03*
X154100000Y-150350000D03*
X154100000Y-152890000D03*
X154100000Y-155430000D03*
X154100000Y-157970000D03*
X154100000Y-160510000D03*
X154100000Y-163050000D03*
X154100000Y-165590000D03*
X154100000Y-168130000D03*
X154100000Y-170670000D03*
X154100000Y-173210000D03*
X154100000Y-175750000D03*
X154100000Y-178290000D03*
X154100000Y-180830000D03*
X154100000Y-183370000D03*
X179500000Y-183370000D03*
X179500000Y-180830000D03*
X179500000Y-178290000D03*
X179500000Y-175750000D03*
X179500000Y-173210000D03*
X179500000Y-170670000D03*
X179500000Y-168130000D03*
X179500000Y-165590000D03*
X179500000Y-163050000D03*
X179500000Y-160510000D03*
X179500000Y-157970000D03*
X179500000Y-155430000D03*
X179500000Y-152890000D03*
X179500000Y-150350000D03*
X179500000Y-147810000D03*
X179500000Y-145270000D03*
X179500000Y-142730000D03*
X179500000Y-140190000D03*
X179500000Y-137650000D03*
D14*
X157500000Y-240000000D03*
D13*
X159197056Y-238302944D03*
X157500000Y-242400000D03*
X155802944Y-241697056D03*
X159197056Y-241697056D03*
X159900000Y-240000000D03*
X155802944Y-238302944D03*
X155100000Y-240000000D03*
X157500000Y-237600000D03*
X157500000Y-197600000D03*
X155802944Y-201697056D03*
X155100000Y-200000000D03*
D14*
X157500000Y-200000000D03*
D13*
X155802944Y-198302944D03*
X159900000Y-200000000D03*
X157500000Y-202400000D03*
X159197056Y-201697056D03*
X159197056Y-198302944D03*
D19*
X217500000Y-180000000D03*
D13*
X215802944Y-201697056D03*
X217500000Y-197600000D03*
X219900000Y-200000000D03*
X219197056Y-201697056D03*
X215802944Y-198302944D03*
X219197056Y-198302944D03*
D14*
X217500000Y-200000000D03*
D13*
X217500000Y-202400000D03*
X215100000Y-200000000D03*
D20*
X177180000Y-96190000D03*
D21*
X177180000Y-98730000D03*
X177180000Y-101270000D03*
X177180000Y-103810000D03*
X217820000Y-94920000D03*
X217820000Y-100000000D03*
X217820000Y-105080000D03*
G36*
G01*
X178290000Y-218397500D02*
X179490000Y-218397500D01*
G75*
G02*
X179740000Y-218647500I0J-250000D01*
G01*
X179740000Y-219847500D01*
G75*
G02*
X179490000Y-220097500I-250000J0D01*
G01*
X178290000Y-220097500D01*
G75*
G02*
X178040000Y-219847500I0J250000D01*
G01*
X178040000Y-218647500D01*
G75*
G02*
X178290000Y-218397500I250000J0D01*
G01*
G37*
X178890000Y-221787500D03*
X176350000Y-219247500D03*
X176350000Y-221787500D03*
X173810000Y-219247500D03*
X173810000Y-221787500D03*
X171270000Y-219247500D03*
X171270000Y-221787500D03*
X168730000Y-219247500D03*
X168730000Y-221787500D03*
X166190000Y-219247500D03*
X166190000Y-221787500D03*
X163650000Y-219247500D03*
X163650000Y-221787500D03*
X161110000Y-219247500D03*
X161110000Y-221787500D03*
D13*
X215802944Y-78302944D03*
X219197056Y-81697056D03*
D14*
X217500000Y-80000000D03*
D13*
X219197056Y-78302944D03*
X217500000Y-82400000D03*
X217500000Y-77600000D03*
X215802944Y-81697056D03*
X215100000Y-80000000D03*
X219900000Y-80000000D03*
X215802944Y-161697056D03*
X215100000Y-160000000D03*
X215802944Y-158302944D03*
X219197056Y-158302944D03*
X219900000Y-160000000D03*
X219197056Y-161697056D03*
X217500000Y-162400000D03*
X217500000Y-157600000D03*
D14*
X217500000Y-160000000D03*
G36*
G01*
X218050000Y-68350000D02*
X216550000Y-68350000D01*
G75*
G02*
X216300000Y-68100000I0J250000D01*
G01*
X216300000Y-66900000D01*
G75*
G02*
X216550000Y-66650000I250000J0D01*
G01*
X218050000Y-66650000D01*
G75*
G02*
X218300000Y-66900000I0J-250000D01*
G01*
X218300000Y-68100000D01*
G75*
G02*
X218050000Y-68350000I-250000J0D01*
G01*
G37*
D22*
X217300000Y-65000000D03*
D13*
X215100000Y-120000000D03*
X219900000Y-120000000D03*
X217500000Y-122400000D03*
X215802944Y-121697056D03*
X219197056Y-118302944D03*
X215802944Y-118302944D03*
X217500000Y-117600000D03*
D14*
X217500000Y-120000000D03*
D13*
X219197056Y-121697056D03*
D14*
X157500000Y-40000000D03*
D13*
X155802944Y-41697056D03*
X157500000Y-42400000D03*
X155802944Y-38302944D03*
X157500000Y-37600000D03*
X159900000Y-40000000D03*
X159197056Y-38302944D03*
X155100000Y-40000000D03*
X159197056Y-41697056D03*
X155802944Y-121697056D03*
X159197056Y-118302944D03*
X155100000Y-120000000D03*
X155802944Y-118302944D03*
X157500000Y-117600000D03*
X159900000Y-120000000D03*
X159197056Y-121697056D03*
D14*
X157500000Y-120000000D03*
D13*
X157500000Y-122400000D03*
X219900000Y-40000000D03*
X215100000Y-40000000D03*
X215802944Y-38302944D03*
X217500000Y-37600000D03*
X217500000Y-42400000D03*
D14*
X217500000Y-40000000D03*
D13*
X219197056Y-41697056D03*
X219197056Y-38302944D03*
X215802944Y-41697056D03*
X219197056Y-241697056D03*
X219197056Y-238302944D03*
X215100000Y-240000000D03*
X215802944Y-238302944D03*
D14*
X217500000Y-240000000D03*
D13*
X217500000Y-242400000D03*
X219900000Y-240000000D03*
X215802944Y-241697056D03*
X217500000Y-237600000D03*
G36*
G01*
X179550000Y-38400000D02*
X180450000Y-38400000D01*
G75*
G02*
X180700000Y-38650000I0J-250000D01*
G01*
X180700000Y-39300000D01*
G75*
G02*
X180450000Y-39550000I-250000J0D01*
G01*
X179550000Y-39550000D01*
G75*
G02*
X179300000Y-39300000I0J250000D01*
G01*
X179300000Y-38650000D01*
G75*
G02*
X179550000Y-38400000I250000J0D01*
G01*
G37*
G36*
G01*
X179550000Y-40450000D02*
X180450000Y-40450000D01*
G75*
G02*
X180700000Y-40700000I0J-250000D01*
G01*
X180700000Y-41350000D01*
G75*
G02*
X180450000Y-41600000I-250000J0D01*
G01*
X179550000Y-41600000D01*
G75*
G02*
X179300000Y-41350000I0J250000D01*
G01*
X179300000Y-40700000D01*
G75*
G02*
X179550000Y-40450000I250000J0D01*
G01*
G37*
D23*
X203850000Y-164972500D03*
D24*
X201310000Y-164972500D03*
X198770000Y-164972500D03*
X196230000Y-164972500D03*
X193690000Y-164972500D03*
X191150000Y-164972500D03*
X191150000Y-154812500D03*
X193690000Y-154812500D03*
X196230000Y-154812500D03*
X198770000Y-154812500D03*
X201310000Y-154812500D03*
X203850000Y-154812500D03*
D23*
X203850000Y-84972500D03*
D24*
X201310000Y-84972500D03*
X198770000Y-84972500D03*
X196230000Y-84972500D03*
X193690000Y-84972500D03*
X191150000Y-84972500D03*
X191150000Y-74812500D03*
X193690000Y-74812500D03*
X196230000Y-74812500D03*
X198770000Y-74812500D03*
X201310000Y-74812500D03*
X203850000Y-74812500D03*
D25*
X167500000Y-232750000D03*
D26*
X172500000Y-232750000D03*
X170000000Y-232750000D03*
D27*
X164400000Y-240250000D03*
X175600000Y-240250000D03*
D26*
X172500000Y-247250000D03*
X167500000Y-247250000D03*
D23*
X203850000Y-244972500D03*
D24*
X201310000Y-244972500D03*
X198770000Y-244972500D03*
X196230000Y-244972500D03*
X193690000Y-244972500D03*
X191150000Y-244972500D03*
X191150000Y-234812500D03*
X193690000Y-234812500D03*
X196230000Y-234812500D03*
X198770000Y-234812500D03*
X201310000Y-234812500D03*
X203850000Y-234812500D03*
D25*
X167500000Y-152750000D03*
D26*
X172500000Y-152750000D03*
X170000000Y-152750000D03*
D27*
X164400000Y-160250000D03*
X175600000Y-160250000D03*
D26*
X172500000Y-167250000D03*
X167500000Y-167250000D03*
D25*
X167500000Y-72750000D03*
D26*
X172500000Y-72750000D03*
X170000000Y-72750000D03*
D27*
X164400000Y-80250000D03*
X175600000Y-80250000D03*
D26*
X172500000Y-87250000D03*
X167500000Y-87250000D03*
D25*
X167500000Y-112750000D03*
D26*
X172500000Y-112750000D03*
X170000000Y-112750000D03*
D27*
X164400000Y-120250000D03*
X175600000Y-120250000D03*
D26*
X172500000Y-127250000D03*
X167500000Y-127250000D03*
D23*
X203850000Y-204972500D03*
D24*
X201310000Y-204972500D03*
X198770000Y-204972500D03*
X196230000Y-204972500D03*
X193690000Y-204972500D03*
X191150000Y-204972500D03*
X191150000Y-194812500D03*
X193690000Y-194812500D03*
X196230000Y-194812500D03*
X198770000Y-194812500D03*
X201310000Y-194812500D03*
X203850000Y-194812500D03*
D25*
X167500000Y-192750000D03*
D26*
X172500000Y-192750000D03*
X170000000Y-192750000D03*
D27*
X175600000Y-200250000D03*
X164400000Y-200250000D03*
D26*
X172500000Y-207250000D03*
X167500000Y-207250000D03*
D23*
X203850000Y-124972500D03*
D24*
X201310000Y-124972500D03*
X198770000Y-124972500D03*
X196230000Y-124972500D03*
X193690000Y-124972500D03*
X191150000Y-124972500D03*
X191150000Y-114812500D03*
X193690000Y-114812500D03*
X196230000Y-114812500D03*
X198770000Y-114812500D03*
X201310000Y-114812500D03*
X203850000Y-114812500D03*
D23*
X203850000Y-44972500D03*
D24*
X201310000Y-44972500D03*
X198770000Y-44972500D03*
X196230000Y-44972500D03*
X193690000Y-44972500D03*
X191150000Y-44972500D03*
X191150000Y-34812500D03*
X193690000Y-34812500D03*
X196230000Y-34812500D03*
X198770000Y-34812500D03*
X201310000Y-34812500D03*
X203850000Y-34812500D03*
M02*
