G04 #@! TF.GenerationSoftware,KiCad,Pcbnew,6.0.10+dfsg-1~bpo11+1*
G04 #@! TF.ProjectId,ui,75692e6b-6963-4616-945f-706362585858,rev?*
G04 #@! TF.SameCoordinates,Original*
G04 #@! TF.FileFunction,Paste,Top*
G04 #@! TF.FilePolarity,Positive*
%FSLAX46Y46*%
G04 Gerber Fmt 4.6, Leading zero omitted, Abs format (unit mm)*
%MOMM*%
%LPD*%
G01*
G04 APERTURE LIST*
G04 #@! TA.AperFunction,Profile*
%ADD10C,0.100000*%
G04 #@! TD*
%ADD11R,2.000000X1.500000*%
%ADD12R,2.000000X3.800000*%
G04 APERTURE END LIST*
D10*
X220000000Y-30000000D02*
X155000000Y-30000000D01*
X220000000Y-250000000D02*
G75*
G03*
X225000000Y-245000000I0J5000000D01*
G01*
X150000000Y-35000000D02*
X150000000Y-245000000D01*
X155000000Y-30000000D02*
G75*
G03*
X150000000Y-35000000I0J-5000000D01*
G01*
X225000000Y-35000000D02*
G75*
G03*
X220000000Y-30000000I-5000000J0D01*
G01*
X225000000Y-245000000D02*
X225000000Y-35000000D01*
X155000000Y-250000000D02*
X220000000Y-250000000D01*
X150000000Y-245000000D02*
G75*
G03*
X155000000Y-250000000I5000000J0D01*
G01*
G36*
G01*
X205900000Y-216950000D02*
X205900000Y-216050000D01*
G75*
G02*
X206150000Y-215800000I250000J0D01*
G01*
X206850000Y-215800000D01*
G75*
G02*
X207100000Y-216050000I0J-250000D01*
G01*
X207100000Y-216950000D01*
G75*
G02*
X206850000Y-217200000I-250000J0D01*
G01*
X206150000Y-217200000D01*
G75*
G02*
X205900000Y-216950000I0J250000D01*
G01*
G37*
G36*
G01*
X207900000Y-216950000D02*
X207900000Y-216050000D01*
G75*
G02*
X208150000Y-215800000I250000J0D01*
G01*
X208850000Y-215800000D01*
G75*
G02*
X209100000Y-216050000I0J-250000D01*
G01*
X209100000Y-216950000D01*
G75*
G02*
X208850000Y-217200000I-250000J0D01*
G01*
X208150000Y-217200000D01*
G75*
G02*
X207900000Y-216950000I0J250000D01*
G01*
G37*
G36*
G01*
X170550000Y-74900000D02*
X171450000Y-74900000D01*
G75*
G02*
X171700000Y-75150000I0J-250000D01*
G01*
X171700000Y-75850000D01*
G75*
G02*
X171450000Y-76100000I-250000J0D01*
G01*
X170550000Y-76100000D01*
G75*
G02*
X170300000Y-75850000I0J250000D01*
G01*
X170300000Y-75150000D01*
G75*
G02*
X170550000Y-74900000I250000J0D01*
G01*
G37*
G36*
G01*
X170550000Y-76900000D02*
X171450000Y-76900000D01*
G75*
G02*
X171700000Y-77150000I0J-250000D01*
G01*
X171700000Y-77850000D01*
G75*
G02*
X171450000Y-78100000I-250000J0D01*
G01*
X170550000Y-78100000D01*
G75*
G02*
X170300000Y-77850000I0J250000D01*
G01*
X170300000Y-77150000D01*
G75*
G02*
X170550000Y-76900000I250000J0D01*
G01*
G37*
G36*
G01*
X172550000Y-114900000D02*
X173450000Y-114900000D01*
G75*
G02*
X173700000Y-115150000I0J-250000D01*
G01*
X173700000Y-115850000D01*
G75*
G02*
X173450000Y-116100000I-250000J0D01*
G01*
X172550000Y-116100000D01*
G75*
G02*
X172300000Y-115850000I0J250000D01*
G01*
X172300000Y-115150000D01*
G75*
G02*
X172550000Y-114900000I250000J0D01*
G01*
G37*
G36*
G01*
X172550000Y-116900000D02*
X173450000Y-116900000D01*
G75*
G02*
X173700000Y-117150000I0J-250000D01*
G01*
X173700000Y-117850000D01*
G75*
G02*
X173450000Y-118100000I-250000J0D01*
G01*
X172550000Y-118100000D01*
G75*
G02*
X172300000Y-117850000I0J250000D01*
G01*
X172300000Y-117150000D01*
G75*
G02*
X172550000Y-116900000I250000J0D01*
G01*
G37*
G36*
G01*
X168550000Y-234900000D02*
X169450000Y-234900000D01*
G75*
G02*
X169700000Y-235150000I0J-250000D01*
G01*
X169700000Y-235850000D01*
G75*
G02*
X169450000Y-236100000I-250000J0D01*
G01*
X168550000Y-236100000D01*
G75*
G02*
X168300000Y-235850000I0J250000D01*
G01*
X168300000Y-235150000D01*
G75*
G02*
X168550000Y-234900000I250000J0D01*
G01*
G37*
G36*
G01*
X168550000Y-236900000D02*
X169450000Y-236900000D01*
G75*
G02*
X169700000Y-237150000I0J-250000D01*
G01*
X169700000Y-237850000D01*
G75*
G02*
X169450000Y-238100000I-250000J0D01*
G01*
X168550000Y-238100000D01*
G75*
G02*
X168300000Y-237850000I0J250000D01*
G01*
X168300000Y-237150000D01*
G75*
G02*
X168550000Y-236900000I250000J0D01*
G01*
G37*
G36*
G01*
X172475000Y-82125000D02*
X171525000Y-82125000D01*
G75*
G02*
X171275000Y-81875000I0J250000D01*
G01*
X171275000Y-81200000D01*
G75*
G02*
X171525000Y-80950000I250000J0D01*
G01*
X172475000Y-80950000D01*
G75*
G02*
X172725000Y-81200000I0J-250000D01*
G01*
X172725000Y-81875000D01*
G75*
G02*
X172475000Y-82125000I-250000J0D01*
G01*
G37*
G36*
G01*
X172475000Y-80050000D02*
X171525000Y-80050000D01*
G75*
G02*
X171275000Y-79800000I0J250000D01*
G01*
X171275000Y-79125000D01*
G75*
G02*
X171525000Y-78875000I250000J0D01*
G01*
X172475000Y-78875000D01*
G75*
G02*
X172725000Y-79125000I0J-250000D01*
G01*
X172725000Y-79800000D01*
G75*
G02*
X172475000Y-80050000I-250000J0D01*
G01*
G37*
G36*
G01*
X170550000Y-114900000D02*
X171450000Y-114900000D01*
G75*
G02*
X171700000Y-115150000I0J-250000D01*
G01*
X171700000Y-115850000D01*
G75*
G02*
X171450000Y-116100000I-250000J0D01*
G01*
X170550000Y-116100000D01*
G75*
G02*
X170300000Y-115850000I0J250000D01*
G01*
X170300000Y-115150000D01*
G75*
G02*
X170550000Y-114900000I250000J0D01*
G01*
G37*
G36*
G01*
X170550000Y-116900000D02*
X171450000Y-116900000D01*
G75*
G02*
X171700000Y-117150000I0J-250000D01*
G01*
X171700000Y-117850000D01*
G75*
G02*
X171450000Y-118100000I-250000J0D01*
G01*
X170550000Y-118100000D01*
G75*
G02*
X170300000Y-117850000I0J250000D01*
G01*
X170300000Y-117150000D01*
G75*
G02*
X170550000Y-116900000I250000J0D01*
G01*
G37*
G36*
G01*
X208900000Y-70950000D02*
X208900000Y-70050000D01*
G75*
G02*
X209150000Y-69800000I250000J0D01*
G01*
X209850000Y-69800000D01*
G75*
G02*
X210100000Y-70050000I0J-250000D01*
G01*
X210100000Y-70950000D01*
G75*
G02*
X209850000Y-71200000I-250000J0D01*
G01*
X209150000Y-71200000D01*
G75*
G02*
X208900000Y-70950000I0J250000D01*
G01*
G37*
G36*
G01*
X210900000Y-70950000D02*
X210900000Y-70050000D01*
G75*
G02*
X211150000Y-69800000I250000J0D01*
G01*
X211850000Y-69800000D01*
G75*
G02*
X212100000Y-70050000I0J-250000D01*
G01*
X212100000Y-70950000D01*
G75*
G02*
X211850000Y-71200000I-250000J0D01*
G01*
X211150000Y-71200000D01*
G75*
G02*
X210900000Y-70950000I0J250000D01*
G01*
G37*
G36*
G01*
X169525000Y-238875000D02*
X170475000Y-238875000D01*
G75*
G02*
X170725000Y-239125000I0J-250000D01*
G01*
X170725000Y-239800000D01*
G75*
G02*
X170475000Y-240050000I-250000J0D01*
G01*
X169525000Y-240050000D01*
G75*
G02*
X169275000Y-239800000I0J250000D01*
G01*
X169275000Y-239125000D01*
G75*
G02*
X169525000Y-238875000I250000J0D01*
G01*
G37*
G36*
G01*
X169525000Y-240950000D02*
X170475000Y-240950000D01*
G75*
G02*
X170725000Y-241200000I0J-250000D01*
G01*
X170725000Y-241875000D01*
G75*
G02*
X170475000Y-242125000I-250000J0D01*
G01*
X169525000Y-242125000D01*
G75*
G02*
X169275000Y-241875000I0J250000D01*
G01*
X169275000Y-241200000D01*
G75*
G02*
X169525000Y-240950000I250000J0D01*
G01*
G37*
G36*
G01*
X171375000Y-96475000D02*
X171375000Y-95525000D01*
G75*
G02*
X171625000Y-95275000I250000J0D01*
G01*
X172300000Y-95275000D01*
G75*
G02*
X172550000Y-95525000I0J-250000D01*
G01*
X172550000Y-96475000D01*
G75*
G02*
X172300000Y-96725000I-250000J0D01*
G01*
X171625000Y-96725000D01*
G75*
G02*
X171375000Y-96475000I0J250000D01*
G01*
G37*
G36*
G01*
X173450000Y-96475000D02*
X173450000Y-95525000D01*
G75*
G02*
X173700000Y-95275000I250000J0D01*
G01*
X174375000Y-95275000D01*
G75*
G02*
X174625000Y-95525000I0J-250000D01*
G01*
X174625000Y-96475000D01*
G75*
G02*
X174375000Y-96725000I-250000J0D01*
G01*
X173700000Y-96725000D01*
G75*
G02*
X173450000Y-96475000I0J250000D01*
G01*
G37*
G36*
G01*
X169525000Y-78875000D02*
X170475000Y-78875000D01*
G75*
G02*
X170725000Y-79125000I0J-250000D01*
G01*
X170725000Y-79800000D01*
G75*
G02*
X170475000Y-80050000I-250000J0D01*
G01*
X169525000Y-80050000D01*
G75*
G02*
X169275000Y-79800000I0J250000D01*
G01*
X169275000Y-79125000D01*
G75*
G02*
X169525000Y-78875000I250000J0D01*
G01*
G37*
G36*
G01*
X169525000Y-80950000D02*
X170475000Y-80950000D01*
G75*
G02*
X170725000Y-81200000I0J-250000D01*
G01*
X170725000Y-81875000D01*
G75*
G02*
X170475000Y-82125000I-250000J0D01*
G01*
X169525000Y-82125000D01*
G75*
G02*
X169275000Y-81875000I0J250000D01*
G01*
X169275000Y-81200000D01*
G75*
G02*
X169525000Y-80950000I250000J0D01*
G01*
G37*
G36*
G01*
X166550000Y-234900000D02*
X167450000Y-234900000D01*
G75*
G02*
X167700000Y-235150000I0J-250000D01*
G01*
X167700000Y-235850000D01*
G75*
G02*
X167450000Y-236100000I-250000J0D01*
G01*
X166550000Y-236100000D01*
G75*
G02*
X166300000Y-235850000I0J250000D01*
G01*
X166300000Y-235150000D01*
G75*
G02*
X166550000Y-234900000I250000J0D01*
G01*
G37*
G36*
G01*
X166550000Y-236900000D02*
X167450000Y-236900000D01*
G75*
G02*
X167700000Y-237150000I0J-250000D01*
G01*
X167700000Y-237850000D01*
G75*
G02*
X167450000Y-238100000I-250000J0D01*
G01*
X166550000Y-238100000D01*
G75*
G02*
X166300000Y-237850000I0J250000D01*
G01*
X166300000Y-237150000D01*
G75*
G02*
X166550000Y-236900000I250000J0D01*
G01*
G37*
G36*
G01*
X168550000Y-194900000D02*
X169450000Y-194900000D01*
G75*
G02*
X169700000Y-195150000I0J-250000D01*
G01*
X169700000Y-195850000D01*
G75*
G02*
X169450000Y-196100000I-250000J0D01*
G01*
X168550000Y-196100000D01*
G75*
G02*
X168300000Y-195850000I0J250000D01*
G01*
X168300000Y-195150000D01*
G75*
G02*
X168550000Y-194900000I250000J0D01*
G01*
G37*
G36*
G01*
X168550000Y-196900000D02*
X169450000Y-196900000D01*
G75*
G02*
X169700000Y-197150000I0J-250000D01*
G01*
X169700000Y-197850000D01*
G75*
G02*
X169450000Y-198100000I-250000J0D01*
G01*
X168550000Y-198100000D01*
G75*
G02*
X168300000Y-197850000I0J250000D01*
G01*
X168300000Y-197150000D01*
G75*
G02*
X168550000Y-196900000I250000J0D01*
G01*
G37*
G36*
G01*
X204050000Y-50650000D02*
X204950000Y-50650000D01*
G75*
G02*
X205200000Y-50900000I0J-250000D01*
G01*
X205200000Y-51600000D01*
G75*
G02*
X204950000Y-51850000I-250000J0D01*
G01*
X204050000Y-51850000D01*
G75*
G02*
X203800000Y-51600000I0J250000D01*
G01*
X203800000Y-50900000D01*
G75*
G02*
X204050000Y-50650000I250000J0D01*
G01*
G37*
G36*
G01*
X204050000Y-52650000D02*
X204950000Y-52650000D01*
G75*
G02*
X205200000Y-52900000I0J-250000D01*
G01*
X205200000Y-53600000D01*
G75*
G02*
X204950000Y-53850000I-250000J0D01*
G01*
X204050000Y-53850000D01*
G75*
G02*
X203800000Y-53600000I0J250000D01*
G01*
X203800000Y-52900000D01*
G75*
G02*
X204050000Y-52650000I250000J0D01*
G01*
G37*
G36*
G01*
X208900000Y-67950000D02*
X208900000Y-67050000D01*
G75*
G02*
X209150000Y-66800000I250000J0D01*
G01*
X209800000Y-66800000D01*
G75*
G02*
X210050000Y-67050000I0J-250000D01*
G01*
X210050000Y-67950000D01*
G75*
G02*
X209800000Y-68200000I-250000J0D01*
G01*
X209150000Y-68200000D01*
G75*
G02*
X208900000Y-67950000I0J250000D01*
G01*
G37*
G36*
G01*
X210950000Y-67950000D02*
X210950000Y-67050000D01*
G75*
G02*
X211200000Y-66800000I250000J0D01*
G01*
X211850000Y-66800000D01*
G75*
G02*
X212100000Y-67050000I0J-250000D01*
G01*
X212100000Y-67950000D01*
G75*
G02*
X211850000Y-68200000I-250000J0D01*
G01*
X211200000Y-68200000D01*
G75*
G02*
X210950000Y-67950000I0J250000D01*
G01*
G37*
G36*
G01*
X204335000Y-215075000D02*
X204635000Y-215075000D01*
G75*
G02*
X204785000Y-215225000I0J-150000D01*
G01*
X204785000Y-216975000D01*
G75*
G02*
X204635000Y-217125000I-150000J0D01*
G01*
X204335000Y-217125000D01*
G75*
G02*
X204185000Y-216975000I0J150000D01*
G01*
X204185000Y-215225000D01*
G75*
G02*
X204335000Y-215075000I150000J0D01*
G01*
G37*
G36*
G01*
X203065000Y-215075000D02*
X203365000Y-215075000D01*
G75*
G02*
X203515000Y-215225000I0J-150000D01*
G01*
X203515000Y-216975000D01*
G75*
G02*
X203365000Y-217125000I-150000J0D01*
G01*
X203065000Y-217125000D01*
G75*
G02*
X202915000Y-216975000I0J150000D01*
G01*
X202915000Y-215225000D01*
G75*
G02*
X203065000Y-215075000I150000J0D01*
G01*
G37*
G36*
G01*
X201795000Y-215075000D02*
X202095000Y-215075000D01*
G75*
G02*
X202245000Y-215225000I0J-150000D01*
G01*
X202245000Y-216975000D01*
G75*
G02*
X202095000Y-217125000I-150000J0D01*
G01*
X201795000Y-217125000D01*
G75*
G02*
X201645000Y-216975000I0J150000D01*
G01*
X201645000Y-215225000D01*
G75*
G02*
X201795000Y-215075000I150000J0D01*
G01*
G37*
G36*
G01*
X200525000Y-215075000D02*
X200825000Y-215075000D01*
G75*
G02*
X200975000Y-215225000I0J-150000D01*
G01*
X200975000Y-216975000D01*
G75*
G02*
X200825000Y-217125000I-150000J0D01*
G01*
X200525000Y-217125000D01*
G75*
G02*
X200375000Y-216975000I0J150000D01*
G01*
X200375000Y-215225000D01*
G75*
G02*
X200525000Y-215075000I150000J0D01*
G01*
G37*
G36*
G01*
X199255000Y-215075000D02*
X199555000Y-215075000D01*
G75*
G02*
X199705000Y-215225000I0J-150000D01*
G01*
X199705000Y-216975000D01*
G75*
G02*
X199555000Y-217125000I-150000J0D01*
G01*
X199255000Y-217125000D01*
G75*
G02*
X199105000Y-216975000I0J150000D01*
G01*
X199105000Y-215225000D01*
G75*
G02*
X199255000Y-215075000I150000J0D01*
G01*
G37*
G36*
G01*
X197985000Y-215075000D02*
X198285000Y-215075000D01*
G75*
G02*
X198435000Y-215225000I0J-150000D01*
G01*
X198435000Y-216975000D01*
G75*
G02*
X198285000Y-217125000I-150000J0D01*
G01*
X197985000Y-217125000D01*
G75*
G02*
X197835000Y-216975000I0J150000D01*
G01*
X197835000Y-215225000D01*
G75*
G02*
X197985000Y-215075000I150000J0D01*
G01*
G37*
G36*
G01*
X196715000Y-215075000D02*
X197015000Y-215075000D01*
G75*
G02*
X197165000Y-215225000I0J-150000D01*
G01*
X197165000Y-216975000D01*
G75*
G02*
X197015000Y-217125000I-150000J0D01*
G01*
X196715000Y-217125000D01*
G75*
G02*
X196565000Y-216975000I0J150000D01*
G01*
X196565000Y-215225000D01*
G75*
G02*
X196715000Y-215075000I150000J0D01*
G01*
G37*
G36*
G01*
X195445000Y-215075000D02*
X195745000Y-215075000D01*
G75*
G02*
X195895000Y-215225000I0J-150000D01*
G01*
X195895000Y-216975000D01*
G75*
G02*
X195745000Y-217125000I-150000J0D01*
G01*
X195445000Y-217125000D01*
G75*
G02*
X195295000Y-216975000I0J150000D01*
G01*
X195295000Y-215225000D01*
G75*
G02*
X195445000Y-215075000I150000J0D01*
G01*
G37*
G36*
G01*
X194175000Y-215075000D02*
X194475000Y-215075000D01*
G75*
G02*
X194625000Y-215225000I0J-150000D01*
G01*
X194625000Y-216975000D01*
G75*
G02*
X194475000Y-217125000I-150000J0D01*
G01*
X194175000Y-217125000D01*
G75*
G02*
X194025000Y-216975000I0J150000D01*
G01*
X194025000Y-215225000D01*
G75*
G02*
X194175000Y-215075000I150000J0D01*
G01*
G37*
G36*
G01*
X192905000Y-215075000D02*
X193205000Y-215075000D01*
G75*
G02*
X193355000Y-215225000I0J-150000D01*
G01*
X193355000Y-216975000D01*
G75*
G02*
X193205000Y-217125000I-150000J0D01*
G01*
X192905000Y-217125000D01*
G75*
G02*
X192755000Y-216975000I0J150000D01*
G01*
X192755000Y-215225000D01*
G75*
G02*
X192905000Y-215075000I150000J0D01*
G01*
G37*
G36*
G01*
X191635000Y-215075000D02*
X191935000Y-215075000D01*
G75*
G02*
X192085000Y-215225000I0J-150000D01*
G01*
X192085000Y-216975000D01*
G75*
G02*
X191935000Y-217125000I-150000J0D01*
G01*
X191635000Y-217125000D01*
G75*
G02*
X191485000Y-216975000I0J150000D01*
G01*
X191485000Y-215225000D01*
G75*
G02*
X191635000Y-215075000I150000J0D01*
G01*
G37*
G36*
G01*
X190365000Y-215075000D02*
X190665000Y-215075000D01*
G75*
G02*
X190815000Y-215225000I0J-150000D01*
G01*
X190815000Y-216975000D01*
G75*
G02*
X190665000Y-217125000I-150000J0D01*
G01*
X190365000Y-217125000D01*
G75*
G02*
X190215000Y-216975000I0J150000D01*
G01*
X190215000Y-215225000D01*
G75*
G02*
X190365000Y-215075000I150000J0D01*
G01*
G37*
G36*
G01*
X190365000Y-224375000D02*
X190665000Y-224375000D01*
G75*
G02*
X190815000Y-224525000I0J-150000D01*
G01*
X190815000Y-226275000D01*
G75*
G02*
X190665000Y-226425000I-150000J0D01*
G01*
X190365000Y-226425000D01*
G75*
G02*
X190215000Y-226275000I0J150000D01*
G01*
X190215000Y-224525000D01*
G75*
G02*
X190365000Y-224375000I150000J0D01*
G01*
G37*
G36*
G01*
X191635000Y-224375000D02*
X191935000Y-224375000D01*
G75*
G02*
X192085000Y-224525000I0J-150000D01*
G01*
X192085000Y-226275000D01*
G75*
G02*
X191935000Y-226425000I-150000J0D01*
G01*
X191635000Y-226425000D01*
G75*
G02*
X191485000Y-226275000I0J150000D01*
G01*
X191485000Y-224525000D01*
G75*
G02*
X191635000Y-224375000I150000J0D01*
G01*
G37*
G36*
G01*
X192905000Y-224375000D02*
X193205000Y-224375000D01*
G75*
G02*
X193355000Y-224525000I0J-150000D01*
G01*
X193355000Y-226275000D01*
G75*
G02*
X193205000Y-226425000I-150000J0D01*
G01*
X192905000Y-226425000D01*
G75*
G02*
X192755000Y-226275000I0J150000D01*
G01*
X192755000Y-224525000D01*
G75*
G02*
X192905000Y-224375000I150000J0D01*
G01*
G37*
G36*
G01*
X194175000Y-224375000D02*
X194475000Y-224375000D01*
G75*
G02*
X194625000Y-224525000I0J-150000D01*
G01*
X194625000Y-226275000D01*
G75*
G02*
X194475000Y-226425000I-150000J0D01*
G01*
X194175000Y-226425000D01*
G75*
G02*
X194025000Y-226275000I0J150000D01*
G01*
X194025000Y-224525000D01*
G75*
G02*
X194175000Y-224375000I150000J0D01*
G01*
G37*
G36*
G01*
X195445000Y-224375000D02*
X195745000Y-224375000D01*
G75*
G02*
X195895000Y-224525000I0J-150000D01*
G01*
X195895000Y-226275000D01*
G75*
G02*
X195745000Y-226425000I-150000J0D01*
G01*
X195445000Y-226425000D01*
G75*
G02*
X195295000Y-226275000I0J150000D01*
G01*
X195295000Y-224525000D01*
G75*
G02*
X195445000Y-224375000I150000J0D01*
G01*
G37*
G36*
G01*
X196715000Y-224375000D02*
X197015000Y-224375000D01*
G75*
G02*
X197165000Y-224525000I0J-150000D01*
G01*
X197165000Y-226275000D01*
G75*
G02*
X197015000Y-226425000I-150000J0D01*
G01*
X196715000Y-226425000D01*
G75*
G02*
X196565000Y-226275000I0J150000D01*
G01*
X196565000Y-224525000D01*
G75*
G02*
X196715000Y-224375000I150000J0D01*
G01*
G37*
G36*
G01*
X197985000Y-224375000D02*
X198285000Y-224375000D01*
G75*
G02*
X198435000Y-224525000I0J-150000D01*
G01*
X198435000Y-226275000D01*
G75*
G02*
X198285000Y-226425000I-150000J0D01*
G01*
X197985000Y-226425000D01*
G75*
G02*
X197835000Y-226275000I0J150000D01*
G01*
X197835000Y-224525000D01*
G75*
G02*
X197985000Y-224375000I150000J0D01*
G01*
G37*
G36*
G01*
X199255000Y-224375000D02*
X199555000Y-224375000D01*
G75*
G02*
X199705000Y-224525000I0J-150000D01*
G01*
X199705000Y-226275000D01*
G75*
G02*
X199555000Y-226425000I-150000J0D01*
G01*
X199255000Y-226425000D01*
G75*
G02*
X199105000Y-226275000I0J150000D01*
G01*
X199105000Y-224525000D01*
G75*
G02*
X199255000Y-224375000I150000J0D01*
G01*
G37*
G36*
G01*
X200525000Y-224375000D02*
X200825000Y-224375000D01*
G75*
G02*
X200975000Y-224525000I0J-150000D01*
G01*
X200975000Y-226275000D01*
G75*
G02*
X200825000Y-226425000I-150000J0D01*
G01*
X200525000Y-226425000D01*
G75*
G02*
X200375000Y-226275000I0J150000D01*
G01*
X200375000Y-224525000D01*
G75*
G02*
X200525000Y-224375000I150000J0D01*
G01*
G37*
G36*
G01*
X201795000Y-224375000D02*
X202095000Y-224375000D01*
G75*
G02*
X202245000Y-224525000I0J-150000D01*
G01*
X202245000Y-226275000D01*
G75*
G02*
X202095000Y-226425000I-150000J0D01*
G01*
X201795000Y-226425000D01*
G75*
G02*
X201645000Y-226275000I0J150000D01*
G01*
X201645000Y-224525000D01*
G75*
G02*
X201795000Y-224375000I150000J0D01*
G01*
G37*
G36*
G01*
X203065000Y-224375000D02*
X203365000Y-224375000D01*
G75*
G02*
X203515000Y-224525000I0J-150000D01*
G01*
X203515000Y-226275000D01*
G75*
G02*
X203365000Y-226425000I-150000J0D01*
G01*
X203065000Y-226425000D01*
G75*
G02*
X202915000Y-226275000I0J150000D01*
G01*
X202915000Y-224525000D01*
G75*
G02*
X203065000Y-224375000I150000J0D01*
G01*
G37*
G36*
G01*
X204335000Y-224375000D02*
X204635000Y-224375000D01*
G75*
G02*
X204785000Y-224525000I0J-150000D01*
G01*
X204785000Y-226275000D01*
G75*
G02*
X204635000Y-226425000I-150000J0D01*
G01*
X204335000Y-226425000D01*
G75*
G02*
X204185000Y-226275000I0J150000D01*
G01*
X204185000Y-224525000D01*
G75*
G02*
X204335000Y-224375000I150000J0D01*
G01*
G37*
G36*
G01*
X170550000Y-154900000D02*
X171450000Y-154900000D01*
G75*
G02*
X171700000Y-155150000I0J-250000D01*
G01*
X171700000Y-155850000D01*
G75*
G02*
X171450000Y-156100000I-250000J0D01*
G01*
X170550000Y-156100000D01*
G75*
G02*
X170300000Y-155850000I0J250000D01*
G01*
X170300000Y-155150000D01*
G75*
G02*
X170550000Y-154900000I250000J0D01*
G01*
G37*
G36*
G01*
X170550000Y-156900000D02*
X171450000Y-156900000D01*
G75*
G02*
X171700000Y-157150000I0J-250000D01*
G01*
X171700000Y-157850000D01*
G75*
G02*
X171450000Y-158100000I-250000J0D01*
G01*
X170550000Y-158100000D01*
G75*
G02*
X170300000Y-157850000I0J250000D01*
G01*
X170300000Y-157150000D01*
G75*
G02*
X170550000Y-156900000I250000J0D01*
G01*
G37*
G36*
G01*
X209900000Y-216950000D02*
X209900000Y-216050000D01*
G75*
G02*
X210150000Y-215800000I250000J0D01*
G01*
X210800000Y-215800000D01*
G75*
G02*
X211050000Y-216050000I0J-250000D01*
G01*
X211050000Y-216950000D01*
G75*
G02*
X210800000Y-217200000I-250000J0D01*
G01*
X210150000Y-217200000D01*
G75*
G02*
X209900000Y-216950000I0J250000D01*
G01*
G37*
G36*
G01*
X211950000Y-216950000D02*
X211950000Y-216050000D01*
G75*
G02*
X212200000Y-215800000I250000J0D01*
G01*
X212850000Y-215800000D01*
G75*
G02*
X213100000Y-216050000I0J-250000D01*
G01*
X213100000Y-216950000D01*
G75*
G02*
X212850000Y-217200000I-250000J0D01*
G01*
X212200000Y-217200000D01*
G75*
G02*
X211950000Y-216950000I0J250000D01*
G01*
G37*
G36*
G01*
X172475000Y-122125000D02*
X171525000Y-122125000D01*
G75*
G02*
X171275000Y-121875000I0J250000D01*
G01*
X171275000Y-121200000D01*
G75*
G02*
X171525000Y-120950000I250000J0D01*
G01*
X172475000Y-120950000D01*
G75*
G02*
X172725000Y-121200000I0J-250000D01*
G01*
X172725000Y-121875000D01*
G75*
G02*
X172475000Y-122125000I-250000J0D01*
G01*
G37*
G36*
G01*
X172475000Y-120050000D02*
X171525000Y-120050000D01*
G75*
G02*
X171275000Y-119800000I0J250000D01*
G01*
X171275000Y-119125000D01*
G75*
G02*
X171525000Y-118875000I250000J0D01*
G01*
X172475000Y-118875000D01*
G75*
G02*
X172725000Y-119125000I0J-250000D01*
G01*
X172725000Y-119800000D01*
G75*
G02*
X172475000Y-120050000I-250000J0D01*
G01*
G37*
G36*
G01*
X168550000Y-114900000D02*
X169450000Y-114900000D01*
G75*
G02*
X169700000Y-115150000I0J-250000D01*
G01*
X169700000Y-115850000D01*
G75*
G02*
X169450000Y-116100000I-250000J0D01*
G01*
X168550000Y-116100000D01*
G75*
G02*
X168300000Y-115850000I0J250000D01*
G01*
X168300000Y-115150000D01*
G75*
G02*
X168550000Y-114900000I250000J0D01*
G01*
G37*
G36*
G01*
X168550000Y-116900000D02*
X169450000Y-116900000D01*
G75*
G02*
X169700000Y-117150000I0J-250000D01*
G01*
X169700000Y-117850000D01*
G75*
G02*
X169450000Y-118100000I-250000J0D01*
G01*
X168550000Y-118100000D01*
G75*
G02*
X168300000Y-117850000I0J250000D01*
G01*
X168300000Y-117150000D01*
G75*
G02*
X168550000Y-116900000I250000J0D01*
G01*
G37*
G36*
G01*
X172550000Y-74900000D02*
X173450000Y-74900000D01*
G75*
G02*
X173700000Y-75150000I0J-250000D01*
G01*
X173700000Y-75850000D01*
G75*
G02*
X173450000Y-76100000I-250000J0D01*
G01*
X172550000Y-76100000D01*
G75*
G02*
X172300000Y-75850000I0J250000D01*
G01*
X172300000Y-75150000D01*
G75*
G02*
X172550000Y-74900000I250000J0D01*
G01*
G37*
G36*
G01*
X172550000Y-76900000D02*
X173450000Y-76900000D01*
G75*
G02*
X173700000Y-77150000I0J-250000D01*
G01*
X173700000Y-77850000D01*
G75*
G02*
X173450000Y-78100000I-250000J0D01*
G01*
X172550000Y-78100000D01*
G75*
G02*
X172300000Y-77850000I0J250000D01*
G01*
X172300000Y-77150000D01*
G75*
G02*
X172550000Y-76900000I250000J0D01*
G01*
G37*
G36*
G01*
X191650000Y-231200000D02*
X191650000Y-230300000D01*
G75*
G02*
X191900000Y-230050000I250000J0D01*
G01*
X192600000Y-230050000D01*
G75*
G02*
X192850000Y-230300000I0J-250000D01*
G01*
X192850000Y-231200000D01*
G75*
G02*
X192600000Y-231450000I-250000J0D01*
G01*
X191900000Y-231450000D01*
G75*
G02*
X191650000Y-231200000I0J250000D01*
G01*
G37*
G36*
G01*
X193650000Y-231200000D02*
X193650000Y-230300000D01*
G75*
G02*
X193900000Y-230050000I250000J0D01*
G01*
X194600000Y-230050000D01*
G75*
G02*
X194850000Y-230300000I0J-250000D01*
G01*
X194850000Y-231200000D01*
G75*
G02*
X194600000Y-231450000I-250000J0D01*
G01*
X193900000Y-231450000D01*
G75*
G02*
X193650000Y-231200000I0J250000D01*
G01*
G37*
G36*
G01*
X172475000Y-242125000D02*
X171525000Y-242125000D01*
G75*
G02*
X171275000Y-241875000I0J250000D01*
G01*
X171275000Y-241200000D01*
G75*
G02*
X171525000Y-240950000I250000J0D01*
G01*
X172475000Y-240950000D01*
G75*
G02*
X172725000Y-241200000I0J-250000D01*
G01*
X172725000Y-241875000D01*
G75*
G02*
X172475000Y-242125000I-250000J0D01*
G01*
G37*
G36*
G01*
X172475000Y-240050000D02*
X171525000Y-240050000D01*
G75*
G02*
X171275000Y-239800000I0J250000D01*
G01*
X171275000Y-239125000D01*
G75*
G02*
X171525000Y-238875000I250000J0D01*
G01*
X172475000Y-238875000D01*
G75*
G02*
X172725000Y-239125000I0J-250000D01*
G01*
X172725000Y-239800000D01*
G75*
G02*
X172475000Y-240050000I-250000J0D01*
G01*
G37*
G36*
G01*
X174600000Y-100550000D02*
X174600000Y-101450000D01*
G75*
G02*
X174350000Y-101700000I-250000J0D01*
G01*
X173650000Y-101700000D01*
G75*
G02*
X173400000Y-101450000I0J250000D01*
G01*
X173400000Y-100550000D01*
G75*
G02*
X173650000Y-100300000I250000J0D01*
G01*
X174350000Y-100300000D01*
G75*
G02*
X174600000Y-100550000I0J-250000D01*
G01*
G37*
G36*
G01*
X172600000Y-100550000D02*
X172600000Y-101450000D01*
G75*
G02*
X172350000Y-101700000I-250000J0D01*
G01*
X171650000Y-101700000D01*
G75*
G02*
X171400000Y-101450000I0J250000D01*
G01*
X171400000Y-100550000D01*
G75*
G02*
X171650000Y-100300000I250000J0D01*
G01*
X172350000Y-100300000D01*
G75*
G02*
X172600000Y-100550000I0J-250000D01*
G01*
G37*
G36*
G01*
X209400000Y-226000000D02*
X209400000Y-224000000D01*
G75*
G02*
X209650000Y-223750000I250000J0D01*
G01*
X213550000Y-223750000D01*
G75*
G02*
X213800000Y-224000000I0J-250000D01*
G01*
X213800000Y-226000000D01*
G75*
G02*
X213550000Y-226250000I-250000J0D01*
G01*
X209650000Y-226250000D01*
G75*
G02*
X209400000Y-226000000I0J250000D01*
G01*
G37*
G36*
G01*
X217800000Y-226000000D02*
X217800000Y-224000000D01*
G75*
G02*
X218050000Y-223750000I250000J0D01*
G01*
X221950000Y-223750000D01*
G75*
G02*
X222200000Y-224000000I0J-250000D01*
G01*
X222200000Y-226000000D01*
G75*
G02*
X221950000Y-226250000I-250000J0D01*
G01*
X218050000Y-226250000D01*
G75*
G02*
X217800000Y-226000000I0J250000D01*
G01*
G37*
G36*
G01*
X196125000Y-151225000D02*
X196125000Y-150275000D01*
G75*
G02*
X196375000Y-150025000I250000J0D01*
G01*
X197050000Y-150025000D01*
G75*
G02*
X197300000Y-150275000I0J-250000D01*
G01*
X197300000Y-151225000D01*
G75*
G02*
X197050000Y-151475000I-250000J0D01*
G01*
X196375000Y-151475000D01*
G75*
G02*
X196125000Y-151225000I0J250000D01*
G01*
G37*
G36*
G01*
X198200000Y-151225000D02*
X198200000Y-150275000D01*
G75*
G02*
X198450000Y-150025000I250000J0D01*
G01*
X199125000Y-150025000D01*
G75*
G02*
X199375000Y-150275000I0J-250000D01*
G01*
X199375000Y-151225000D01*
G75*
G02*
X199125000Y-151475000I-250000J0D01*
G01*
X198450000Y-151475000D01*
G75*
G02*
X198200000Y-151225000I0J250000D01*
G01*
G37*
G36*
G01*
X191650000Y-151200000D02*
X191650000Y-150300000D01*
G75*
G02*
X191900000Y-150050000I250000J0D01*
G01*
X192600000Y-150050000D01*
G75*
G02*
X192850000Y-150300000I0J-250000D01*
G01*
X192850000Y-151200000D01*
G75*
G02*
X192600000Y-151450000I-250000J0D01*
G01*
X191900000Y-151450000D01*
G75*
G02*
X191650000Y-151200000I0J250000D01*
G01*
G37*
G36*
G01*
X193650000Y-151200000D02*
X193650000Y-150300000D01*
G75*
G02*
X193900000Y-150050000I250000J0D01*
G01*
X194600000Y-150050000D01*
G75*
G02*
X194850000Y-150300000I0J-250000D01*
G01*
X194850000Y-151200000D01*
G75*
G02*
X194600000Y-151450000I-250000J0D01*
G01*
X193900000Y-151450000D01*
G75*
G02*
X193650000Y-151200000I0J250000D01*
G01*
G37*
G36*
G01*
X167525000Y-78875000D02*
X168475000Y-78875000D01*
G75*
G02*
X168725000Y-79125000I0J-250000D01*
G01*
X168725000Y-79800000D01*
G75*
G02*
X168475000Y-80050000I-250000J0D01*
G01*
X167525000Y-80050000D01*
G75*
G02*
X167275000Y-79800000I0J250000D01*
G01*
X167275000Y-79125000D01*
G75*
G02*
X167525000Y-78875000I250000J0D01*
G01*
G37*
G36*
G01*
X167525000Y-80950000D02*
X168475000Y-80950000D01*
G75*
G02*
X168725000Y-81200000I0J-250000D01*
G01*
X168725000Y-81875000D01*
G75*
G02*
X168475000Y-82125000I-250000J0D01*
G01*
X167525000Y-82125000D01*
G75*
G02*
X167275000Y-81875000I0J250000D01*
G01*
X167275000Y-81200000D01*
G75*
G02*
X167525000Y-80950000I250000J0D01*
G01*
G37*
G36*
G01*
X169525000Y-198875000D02*
X170475000Y-198875000D01*
G75*
G02*
X170725000Y-199125000I0J-250000D01*
G01*
X170725000Y-199800000D01*
G75*
G02*
X170475000Y-200050000I-250000J0D01*
G01*
X169525000Y-200050000D01*
G75*
G02*
X169275000Y-199800000I0J250000D01*
G01*
X169275000Y-199125000D01*
G75*
G02*
X169525000Y-198875000I250000J0D01*
G01*
G37*
G36*
G01*
X169525000Y-200950000D02*
X170475000Y-200950000D01*
G75*
G02*
X170725000Y-201200000I0J-250000D01*
G01*
X170725000Y-201875000D01*
G75*
G02*
X170475000Y-202125000I-250000J0D01*
G01*
X169525000Y-202125000D01*
G75*
G02*
X169275000Y-201875000I0J250000D01*
G01*
X169275000Y-201200000D01*
G75*
G02*
X169525000Y-200950000I250000J0D01*
G01*
G37*
G36*
G01*
X172550000Y-234900000D02*
X173450000Y-234900000D01*
G75*
G02*
X173700000Y-235150000I0J-250000D01*
G01*
X173700000Y-235850000D01*
G75*
G02*
X173450000Y-236100000I-250000J0D01*
G01*
X172550000Y-236100000D01*
G75*
G02*
X172300000Y-235850000I0J250000D01*
G01*
X172300000Y-235150000D01*
G75*
G02*
X172550000Y-234900000I250000J0D01*
G01*
G37*
G36*
G01*
X172550000Y-236900000D02*
X173450000Y-236900000D01*
G75*
G02*
X173700000Y-237150000I0J-250000D01*
G01*
X173700000Y-237850000D01*
G75*
G02*
X173450000Y-238100000I-250000J0D01*
G01*
X172550000Y-238100000D01*
G75*
G02*
X172300000Y-237850000I0J250000D01*
G01*
X172300000Y-237150000D01*
G75*
G02*
X172550000Y-236900000I250000J0D01*
G01*
G37*
G36*
G01*
X172475000Y-162125000D02*
X171525000Y-162125000D01*
G75*
G02*
X171275000Y-161875000I0J250000D01*
G01*
X171275000Y-161200000D01*
G75*
G02*
X171525000Y-160950000I250000J0D01*
G01*
X172475000Y-160950000D01*
G75*
G02*
X172725000Y-161200000I0J-250000D01*
G01*
X172725000Y-161875000D01*
G75*
G02*
X172475000Y-162125000I-250000J0D01*
G01*
G37*
G36*
G01*
X172475000Y-160050000D02*
X171525000Y-160050000D01*
G75*
G02*
X171275000Y-159800000I0J250000D01*
G01*
X171275000Y-159125000D01*
G75*
G02*
X171525000Y-158875000I250000J0D01*
G01*
X172475000Y-158875000D01*
G75*
G02*
X172725000Y-159125000I0J-250000D01*
G01*
X172725000Y-159800000D01*
G75*
G02*
X172475000Y-160050000I-250000J0D01*
G01*
G37*
G36*
G01*
X204050000Y-130650000D02*
X204950000Y-130650000D01*
G75*
G02*
X205200000Y-130900000I0J-250000D01*
G01*
X205200000Y-131600000D01*
G75*
G02*
X204950000Y-131850000I-250000J0D01*
G01*
X204050000Y-131850000D01*
G75*
G02*
X203800000Y-131600000I0J250000D01*
G01*
X203800000Y-130900000D01*
G75*
G02*
X204050000Y-130650000I250000J0D01*
G01*
G37*
G36*
G01*
X204050000Y-132650000D02*
X204950000Y-132650000D01*
G75*
G02*
X205200000Y-132900000I0J-250000D01*
G01*
X205200000Y-133600000D01*
G75*
G02*
X204950000Y-133850000I-250000J0D01*
G01*
X204050000Y-133850000D01*
G75*
G02*
X203800000Y-133600000I0J250000D01*
G01*
X203800000Y-132900000D01*
G75*
G02*
X204050000Y-132650000I250000J0D01*
G01*
G37*
G36*
G01*
X169525000Y-158875000D02*
X170475000Y-158875000D01*
G75*
G02*
X170725000Y-159125000I0J-250000D01*
G01*
X170725000Y-159800000D01*
G75*
G02*
X170475000Y-160050000I-250000J0D01*
G01*
X169525000Y-160050000D01*
G75*
G02*
X169275000Y-159800000I0J250000D01*
G01*
X169275000Y-159125000D01*
G75*
G02*
X169525000Y-158875000I250000J0D01*
G01*
G37*
G36*
G01*
X169525000Y-160950000D02*
X170475000Y-160950000D01*
G75*
G02*
X170725000Y-161200000I0J-250000D01*
G01*
X170725000Y-161875000D01*
G75*
G02*
X170475000Y-162125000I-250000J0D01*
G01*
X169525000Y-162125000D01*
G75*
G02*
X169275000Y-161875000I0J250000D01*
G01*
X169275000Y-161200000D01*
G75*
G02*
X169525000Y-160950000I250000J0D01*
G01*
G37*
G36*
G01*
X203850000Y-150300000D02*
X203850000Y-151200000D01*
G75*
G02*
X203600000Y-151450000I-250000J0D01*
G01*
X202900000Y-151450000D01*
G75*
G02*
X202650000Y-151200000I0J250000D01*
G01*
X202650000Y-150300000D01*
G75*
G02*
X202900000Y-150050000I250000J0D01*
G01*
X203600000Y-150050000D01*
G75*
G02*
X203850000Y-150300000I0J-250000D01*
G01*
G37*
G36*
G01*
X201850000Y-150300000D02*
X201850000Y-151200000D01*
G75*
G02*
X201600000Y-151450000I-250000J0D01*
G01*
X200900000Y-151450000D01*
G75*
G02*
X200650000Y-151200000I0J250000D01*
G01*
X200650000Y-150300000D01*
G75*
G02*
X200900000Y-150050000I250000J0D01*
G01*
X201600000Y-150050000D01*
G75*
G02*
X201850000Y-150300000I0J-250000D01*
G01*
G37*
G36*
G01*
X184950000Y-142850000D02*
X184050000Y-142850000D01*
G75*
G02*
X183800000Y-142600000I0J250000D01*
G01*
X183800000Y-141900000D01*
G75*
G02*
X184050000Y-141650000I250000J0D01*
G01*
X184950000Y-141650000D01*
G75*
G02*
X185200000Y-141900000I0J-250000D01*
G01*
X185200000Y-142600000D01*
G75*
G02*
X184950000Y-142850000I-250000J0D01*
G01*
G37*
G36*
G01*
X184950000Y-140850000D02*
X184050000Y-140850000D01*
G75*
G02*
X183800000Y-140600000I0J250000D01*
G01*
X183800000Y-139900000D01*
G75*
G02*
X184050000Y-139650000I250000J0D01*
G01*
X184950000Y-139650000D01*
G75*
G02*
X185200000Y-139900000I0J-250000D01*
G01*
X185200000Y-140600000D01*
G75*
G02*
X184950000Y-140850000I-250000J0D01*
G01*
G37*
G36*
G01*
X168550000Y-154900000D02*
X169450000Y-154900000D01*
G75*
G02*
X169700000Y-155150000I0J-250000D01*
G01*
X169700000Y-155850000D01*
G75*
G02*
X169450000Y-156100000I-250000J0D01*
G01*
X168550000Y-156100000D01*
G75*
G02*
X168300000Y-155850000I0J250000D01*
G01*
X168300000Y-155150000D01*
G75*
G02*
X168550000Y-154900000I250000J0D01*
G01*
G37*
G36*
G01*
X168550000Y-156900000D02*
X169450000Y-156900000D01*
G75*
G02*
X169700000Y-157150000I0J-250000D01*
G01*
X169700000Y-157850000D01*
G75*
G02*
X169450000Y-158100000I-250000J0D01*
G01*
X168550000Y-158100000D01*
G75*
G02*
X168300000Y-157850000I0J250000D01*
G01*
X168300000Y-157150000D01*
G75*
G02*
X168550000Y-156900000I250000J0D01*
G01*
G37*
G36*
G01*
X166550000Y-74900000D02*
X167450000Y-74900000D01*
G75*
G02*
X167700000Y-75150000I0J-250000D01*
G01*
X167700000Y-75850000D01*
G75*
G02*
X167450000Y-76100000I-250000J0D01*
G01*
X166550000Y-76100000D01*
G75*
G02*
X166300000Y-75850000I0J250000D01*
G01*
X166300000Y-75150000D01*
G75*
G02*
X166550000Y-74900000I250000J0D01*
G01*
G37*
G36*
G01*
X166550000Y-76900000D02*
X167450000Y-76900000D01*
G75*
G02*
X167700000Y-77150000I0J-250000D01*
G01*
X167700000Y-77850000D01*
G75*
G02*
X167450000Y-78100000I-250000J0D01*
G01*
X166550000Y-78100000D01*
G75*
G02*
X166300000Y-77850000I0J250000D01*
G01*
X166300000Y-77150000D01*
G75*
G02*
X166550000Y-76900000I250000J0D01*
G01*
G37*
G36*
G01*
X168550000Y-74900000D02*
X169450000Y-74900000D01*
G75*
G02*
X169700000Y-75150000I0J-250000D01*
G01*
X169700000Y-75850000D01*
G75*
G02*
X169450000Y-76100000I-250000J0D01*
G01*
X168550000Y-76100000D01*
G75*
G02*
X168300000Y-75850000I0J250000D01*
G01*
X168300000Y-75150000D01*
G75*
G02*
X168550000Y-74900000I250000J0D01*
G01*
G37*
G36*
G01*
X168550000Y-76900000D02*
X169450000Y-76900000D01*
G75*
G02*
X169700000Y-77150000I0J-250000D01*
G01*
X169700000Y-77850000D01*
G75*
G02*
X169450000Y-78100000I-250000J0D01*
G01*
X168550000Y-78100000D01*
G75*
G02*
X168300000Y-77850000I0J250000D01*
G01*
X168300000Y-77150000D01*
G75*
G02*
X168550000Y-76900000I250000J0D01*
G01*
G37*
G36*
G01*
X171400000Y-99450000D02*
X171400000Y-98550000D01*
G75*
G02*
X171650000Y-98300000I250000J0D01*
G01*
X172350000Y-98300000D01*
G75*
G02*
X172600000Y-98550000I0J-250000D01*
G01*
X172600000Y-99450000D01*
G75*
G02*
X172350000Y-99700000I-250000J0D01*
G01*
X171650000Y-99700000D01*
G75*
G02*
X171400000Y-99450000I0J250000D01*
G01*
G37*
G36*
G01*
X173400000Y-99450000D02*
X173400000Y-98550000D01*
G75*
G02*
X173650000Y-98300000I250000J0D01*
G01*
X174350000Y-98300000D01*
G75*
G02*
X174600000Y-98550000I0J-250000D01*
G01*
X174600000Y-99450000D01*
G75*
G02*
X174350000Y-99700000I-250000J0D01*
G01*
X173650000Y-99700000D01*
G75*
G02*
X173400000Y-99450000I0J250000D01*
G01*
G37*
G36*
G01*
X203850000Y-70300000D02*
X203850000Y-71200000D01*
G75*
G02*
X203600000Y-71450000I-250000J0D01*
G01*
X202900000Y-71450000D01*
G75*
G02*
X202650000Y-71200000I0J250000D01*
G01*
X202650000Y-70300000D01*
G75*
G02*
X202900000Y-70050000I250000J0D01*
G01*
X203600000Y-70050000D01*
G75*
G02*
X203850000Y-70300000I0J-250000D01*
G01*
G37*
G36*
G01*
X201850000Y-70300000D02*
X201850000Y-71200000D01*
G75*
G02*
X201600000Y-71450000I-250000J0D01*
G01*
X200900000Y-71450000D01*
G75*
G02*
X200650000Y-71200000I0J250000D01*
G01*
X200650000Y-70300000D01*
G75*
G02*
X200900000Y-70050000I250000J0D01*
G01*
X201600000Y-70050000D01*
G75*
G02*
X201850000Y-70300000I0J-250000D01*
G01*
G37*
G36*
G01*
X204335000Y-55075000D02*
X204635000Y-55075000D01*
G75*
G02*
X204785000Y-55225000I0J-150000D01*
G01*
X204785000Y-56975000D01*
G75*
G02*
X204635000Y-57125000I-150000J0D01*
G01*
X204335000Y-57125000D01*
G75*
G02*
X204185000Y-56975000I0J150000D01*
G01*
X204185000Y-55225000D01*
G75*
G02*
X204335000Y-55075000I150000J0D01*
G01*
G37*
G36*
G01*
X203065000Y-55075000D02*
X203365000Y-55075000D01*
G75*
G02*
X203515000Y-55225000I0J-150000D01*
G01*
X203515000Y-56975000D01*
G75*
G02*
X203365000Y-57125000I-150000J0D01*
G01*
X203065000Y-57125000D01*
G75*
G02*
X202915000Y-56975000I0J150000D01*
G01*
X202915000Y-55225000D01*
G75*
G02*
X203065000Y-55075000I150000J0D01*
G01*
G37*
G36*
G01*
X201795000Y-55075000D02*
X202095000Y-55075000D01*
G75*
G02*
X202245000Y-55225000I0J-150000D01*
G01*
X202245000Y-56975000D01*
G75*
G02*
X202095000Y-57125000I-150000J0D01*
G01*
X201795000Y-57125000D01*
G75*
G02*
X201645000Y-56975000I0J150000D01*
G01*
X201645000Y-55225000D01*
G75*
G02*
X201795000Y-55075000I150000J0D01*
G01*
G37*
G36*
G01*
X200525000Y-55075000D02*
X200825000Y-55075000D01*
G75*
G02*
X200975000Y-55225000I0J-150000D01*
G01*
X200975000Y-56975000D01*
G75*
G02*
X200825000Y-57125000I-150000J0D01*
G01*
X200525000Y-57125000D01*
G75*
G02*
X200375000Y-56975000I0J150000D01*
G01*
X200375000Y-55225000D01*
G75*
G02*
X200525000Y-55075000I150000J0D01*
G01*
G37*
G36*
G01*
X199255000Y-55075000D02*
X199555000Y-55075000D01*
G75*
G02*
X199705000Y-55225000I0J-150000D01*
G01*
X199705000Y-56975000D01*
G75*
G02*
X199555000Y-57125000I-150000J0D01*
G01*
X199255000Y-57125000D01*
G75*
G02*
X199105000Y-56975000I0J150000D01*
G01*
X199105000Y-55225000D01*
G75*
G02*
X199255000Y-55075000I150000J0D01*
G01*
G37*
G36*
G01*
X197985000Y-55075000D02*
X198285000Y-55075000D01*
G75*
G02*
X198435000Y-55225000I0J-150000D01*
G01*
X198435000Y-56975000D01*
G75*
G02*
X198285000Y-57125000I-150000J0D01*
G01*
X197985000Y-57125000D01*
G75*
G02*
X197835000Y-56975000I0J150000D01*
G01*
X197835000Y-55225000D01*
G75*
G02*
X197985000Y-55075000I150000J0D01*
G01*
G37*
G36*
G01*
X196715000Y-55075000D02*
X197015000Y-55075000D01*
G75*
G02*
X197165000Y-55225000I0J-150000D01*
G01*
X197165000Y-56975000D01*
G75*
G02*
X197015000Y-57125000I-150000J0D01*
G01*
X196715000Y-57125000D01*
G75*
G02*
X196565000Y-56975000I0J150000D01*
G01*
X196565000Y-55225000D01*
G75*
G02*
X196715000Y-55075000I150000J0D01*
G01*
G37*
G36*
G01*
X195445000Y-55075000D02*
X195745000Y-55075000D01*
G75*
G02*
X195895000Y-55225000I0J-150000D01*
G01*
X195895000Y-56975000D01*
G75*
G02*
X195745000Y-57125000I-150000J0D01*
G01*
X195445000Y-57125000D01*
G75*
G02*
X195295000Y-56975000I0J150000D01*
G01*
X195295000Y-55225000D01*
G75*
G02*
X195445000Y-55075000I150000J0D01*
G01*
G37*
G36*
G01*
X194175000Y-55075000D02*
X194475000Y-55075000D01*
G75*
G02*
X194625000Y-55225000I0J-150000D01*
G01*
X194625000Y-56975000D01*
G75*
G02*
X194475000Y-57125000I-150000J0D01*
G01*
X194175000Y-57125000D01*
G75*
G02*
X194025000Y-56975000I0J150000D01*
G01*
X194025000Y-55225000D01*
G75*
G02*
X194175000Y-55075000I150000J0D01*
G01*
G37*
G36*
G01*
X192905000Y-55075000D02*
X193205000Y-55075000D01*
G75*
G02*
X193355000Y-55225000I0J-150000D01*
G01*
X193355000Y-56975000D01*
G75*
G02*
X193205000Y-57125000I-150000J0D01*
G01*
X192905000Y-57125000D01*
G75*
G02*
X192755000Y-56975000I0J150000D01*
G01*
X192755000Y-55225000D01*
G75*
G02*
X192905000Y-55075000I150000J0D01*
G01*
G37*
G36*
G01*
X191635000Y-55075000D02*
X191935000Y-55075000D01*
G75*
G02*
X192085000Y-55225000I0J-150000D01*
G01*
X192085000Y-56975000D01*
G75*
G02*
X191935000Y-57125000I-150000J0D01*
G01*
X191635000Y-57125000D01*
G75*
G02*
X191485000Y-56975000I0J150000D01*
G01*
X191485000Y-55225000D01*
G75*
G02*
X191635000Y-55075000I150000J0D01*
G01*
G37*
G36*
G01*
X190365000Y-55075000D02*
X190665000Y-55075000D01*
G75*
G02*
X190815000Y-55225000I0J-150000D01*
G01*
X190815000Y-56975000D01*
G75*
G02*
X190665000Y-57125000I-150000J0D01*
G01*
X190365000Y-57125000D01*
G75*
G02*
X190215000Y-56975000I0J150000D01*
G01*
X190215000Y-55225000D01*
G75*
G02*
X190365000Y-55075000I150000J0D01*
G01*
G37*
G36*
G01*
X190365000Y-64375000D02*
X190665000Y-64375000D01*
G75*
G02*
X190815000Y-64525000I0J-150000D01*
G01*
X190815000Y-66275000D01*
G75*
G02*
X190665000Y-66425000I-150000J0D01*
G01*
X190365000Y-66425000D01*
G75*
G02*
X190215000Y-66275000I0J150000D01*
G01*
X190215000Y-64525000D01*
G75*
G02*
X190365000Y-64375000I150000J0D01*
G01*
G37*
G36*
G01*
X191635000Y-64375000D02*
X191935000Y-64375000D01*
G75*
G02*
X192085000Y-64525000I0J-150000D01*
G01*
X192085000Y-66275000D01*
G75*
G02*
X191935000Y-66425000I-150000J0D01*
G01*
X191635000Y-66425000D01*
G75*
G02*
X191485000Y-66275000I0J150000D01*
G01*
X191485000Y-64525000D01*
G75*
G02*
X191635000Y-64375000I150000J0D01*
G01*
G37*
G36*
G01*
X192905000Y-64375000D02*
X193205000Y-64375000D01*
G75*
G02*
X193355000Y-64525000I0J-150000D01*
G01*
X193355000Y-66275000D01*
G75*
G02*
X193205000Y-66425000I-150000J0D01*
G01*
X192905000Y-66425000D01*
G75*
G02*
X192755000Y-66275000I0J150000D01*
G01*
X192755000Y-64525000D01*
G75*
G02*
X192905000Y-64375000I150000J0D01*
G01*
G37*
G36*
G01*
X194175000Y-64375000D02*
X194475000Y-64375000D01*
G75*
G02*
X194625000Y-64525000I0J-150000D01*
G01*
X194625000Y-66275000D01*
G75*
G02*
X194475000Y-66425000I-150000J0D01*
G01*
X194175000Y-66425000D01*
G75*
G02*
X194025000Y-66275000I0J150000D01*
G01*
X194025000Y-64525000D01*
G75*
G02*
X194175000Y-64375000I150000J0D01*
G01*
G37*
G36*
G01*
X195445000Y-64375000D02*
X195745000Y-64375000D01*
G75*
G02*
X195895000Y-64525000I0J-150000D01*
G01*
X195895000Y-66275000D01*
G75*
G02*
X195745000Y-66425000I-150000J0D01*
G01*
X195445000Y-66425000D01*
G75*
G02*
X195295000Y-66275000I0J150000D01*
G01*
X195295000Y-64525000D01*
G75*
G02*
X195445000Y-64375000I150000J0D01*
G01*
G37*
G36*
G01*
X196715000Y-64375000D02*
X197015000Y-64375000D01*
G75*
G02*
X197165000Y-64525000I0J-150000D01*
G01*
X197165000Y-66275000D01*
G75*
G02*
X197015000Y-66425000I-150000J0D01*
G01*
X196715000Y-66425000D01*
G75*
G02*
X196565000Y-66275000I0J150000D01*
G01*
X196565000Y-64525000D01*
G75*
G02*
X196715000Y-64375000I150000J0D01*
G01*
G37*
G36*
G01*
X197985000Y-64375000D02*
X198285000Y-64375000D01*
G75*
G02*
X198435000Y-64525000I0J-150000D01*
G01*
X198435000Y-66275000D01*
G75*
G02*
X198285000Y-66425000I-150000J0D01*
G01*
X197985000Y-66425000D01*
G75*
G02*
X197835000Y-66275000I0J150000D01*
G01*
X197835000Y-64525000D01*
G75*
G02*
X197985000Y-64375000I150000J0D01*
G01*
G37*
G36*
G01*
X199255000Y-64375000D02*
X199555000Y-64375000D01*
G75*
G02*
X199705000Y-64525000I0J-150000D01*
G01*
X199705000Y-66275000D01*
G75*
G02*
X199555000Y-66425000I-150000J0D01*
G01*
X199255000Y-66425000D01*
G75*
G02*
X199105000Y-66275000I0J150000D01*
G01*
X199105000Y-64525000D01*
G75*
G02*
X199255000Y-64375000I150000J0D01*
G01*
G37*
G36*
G01*
X200525000Y-64375000D02*
X200825000Y-64375000D01*
G75*
G02*
X200975000Y-64525000I0J-150000D01*
G01*
X200975000Y-66275000D01*
G75*
G02*
X200825000Y-66425000I-150000J0D01*
G01*
X200525000Y-66425000D01*
G75*
G02*
X200375000Y-66275000I0J150000D01*
G01*
X200375000Y-64525000D01*
G75*
G02*
X200525000Y-64375000I150000J0D01*
G01*
G37*
G36*
G01*
X201795000Y-64375000D02*
X202095000Y-64375000D01*
G75*
G02*
X202245000Y-64525000I0J-150000D01*
G01*
X202245000Y-66275000D01*
G75*
G02*
X202095000Y-66425000I-150000J0D01*
G01*
X201795000Y-66425000D01*
G75*
G02*
X201645000Y-66275000I0J150000D01*
G01*
X201645000Y-64525000D01*
G75*
G02*
X201795000Y-64375000I150000J0D01*
G01*
G37*
G36*
G01*
X203065000Y-64375000D02*
X203365000Y-64375000D01*
G75*
G02*
X203515000Y-64525000I0J-150000D01*
G01*
X203515000Y-66275000D01*
G75*
G02*
X203365000Y-66425000I-150000J0D01*
G01*
X203065000Y-66425000D01*
G75*
G02*
X202915000Y-66275000I0J150000D01*
G01*
X202915000Y-64525000D01*
G75*
G02*
X203065000Y-64375000I150000J0D01*
G01*
G37*
G36*
G01*
X204335000Y-64375000D02*
X204635000Y-64375000D01*
G75*
G02*
X204785000Y-64525000I0J-150000D01*
G01*
X204785000Y-66275000D01*
G75*
G02*
X204635000Y-66425000I-150000J0D01*
G01*
X204335000Y-66425000D01*
G75*
G02*
X204185000Y-66275000I0J150000D01*
G01*
X204185000Y-64525000D01*
G75*
G02*
X204335000Y-64375000I150000J0D01*
G01*
G37*
G36*
G01*
X172475000Y-202125000D02*
X171525000Y-202125000D01*
G75*
G02*
X171275000Y-201875000I0J250000D01*
G01*
X171275000Y-201200000D01*
G75*
G02*
X171525000Y-200950000I250000J0D01*
G01*
X172475000Y-200950000D01*
G75*
G02*
X172725000Y-201200000I0J-250000D01*
G01*
X172725000Y-201875000D01*
G75*
G02*
X172475000Y-202125000I-250000J0D01*
G01*
G37*
G36*
G01*
X172475000Y-200050000D02*
X171525000Y-200050000D01*
G75*
G02*
X171275000Y-199800000I0J250000D01*
G01*
X171275000Y-199125000D01*
G75*
G02*
X171525000Y-198875000I250000J0D01*
G01*
X172475000Y-198875000D01*
G75*
G02*
X172725000Y-199125000I0J-250000D01*
G01*
X172725000Y-199800000D01*
G75*
G02*
X172475000Y-200050000I-250000J0D01*
G01*
G37*
G36*
G01*
X170550000Y-194900000D02*
X171450000Y-194900000D01*
G75*
G02*
X171700000Y-195150000I0J-250000D01*
G01*
X171700000Y-195850000D01*
G75*
G02*
X171450000Y-196100000I-250000J0D01*
G01*
X170550000Y-196100000D01*
G75*
G02*
X170300000Y-195850000I0J250000D01*
G01*
X170300000Y-195150000D01*
G75*
G02*
X170550000Y-194900000I250000J0D01*
G01*
G37*
G36*
G01*
X170550000Y-196900000D02*
X171450000Y-196900000D01*
G75*
G02*
X171700000Y-197150000I0J-250000D01*
G01*
X171700000Y-197850000D01*
G75*
G02*
X171450000Y-198100000I-250000J0D01*
G01*
X170550000Y-198100000D01*
G75*
G02*
X170300000Y-197850000I0J250000D01*
G01*
X170300000Y-197150000D01*
G75*
G02*
X170550000Y-196900000I250000J0D01*
G01*
G37*
G36*
G01*
X170550000Y-234900000D02*
X171450000Y-234900000D01*
G75*
G02*
X171700000Y-235150000I0J-250000D01*
G01*
X171700000Y-235850000D01*
G75*
G02*
X171450000Y-236100000I-250000J0D01*
G01*
X170550000Y-236100000D01*
G75*
G02*
X170300000Y-235850000I0J250000D01*
G01*
X170300000Y-235150000D01*
G75*
G02*
X170550000Y-234900000I250000J0D01*
G01*
G37*
G36*
G01*
X170550000Y-236900000D02*
X171450000Y-236900000D01*
G75*
G02*
X171700000Y-237150000I0J-250000D01*
G01*
X171700000Y-237850000D01*
G75*
G02*
X171450000Y-238100000I-250000J0D01*
G01*
X170550000Y-238100000D01*
G75*
G02*
X170300000Y-237850000I0J250000D01*
G01*
X170300000Y-237150000D01*
G75*
G02*
X170550000Y-236900000I250000J0D01*
G01*
G37*
G36*
G01*
X222900000Y-51500000D02*
X222900000Y-53500000D01*
G75*
G02*
X222650000Y-53750000I-250000J0D01*
G01*
X218750000Y-53750000D01*
G75*
G02*
X218500000Y-53500000I0J250000D01*
G01*
X218500000Y-51500000D01*
G75*
G02*
X218750000Y-51250000I250000J0D01*
G01*
X222650000Y-51250000D01*
G75*
G02*
X222900000Y-51500000I0J-250000D01*
G01*
G37*
G36*
G01*
X214500000Y-51500000D02*
X214500000Y-53500000D01*
G75*
G02*
X214250000Y-53750000I-250000J0D01*
G01*
X210350000Y-53750000D01*
G75*
G02*
X210100000Y-53500000I0J250000D01*
G01*
X210100000Y-51500000D01*
G75*
G02*
X210350000Y-51250000I250000J0D01*
G01*
X214250000Y-51250000D01*
G75*
G02*
X214500000Y-51500000I0J-250000D01*
G01*
G37*
G36*
G01*
X166550000Y-194900000D02*
X167450000Y-194900000D01*
G75*
G02*
X167700000Y-195150000I0J-250000D01*
G01*
X167700000Y-195850000D01*
G75*
G02*
X167450000Y-196100000I-250000J0D01*
G01*
X166550000Y-196100000D01*
G75*
G02*
X166300000Y-195850000I0J250000D01*
G01*
X166300000Y-195150000D01*
G75*
G02*
X166550000Y-194900000I250000J0D01*
G01*
G37*
G36*
G01*
X166550000Y-196900000D02*
X167450000Y-196900000D01*
G75*
G02*
X167700000Y-197150000I0J-250000D01*
G01*
X167700000Y-197850000D01*
G75*
G02*
X167450000Y-198100000I-250000J0D01*
G01*
X166550000Y-198100000D01*
G75*
G02*
X166300000Y-197850000I0J250000D01*
G01*
X166300000Y-197150000D01*
G75*
G02*
X166550000Y-196900000I250000J0D01*
G01*
G37*
G36*
G01*
X203850000Y-230300000D02*
X203850000Y-231200000D01*
G75*
G02*
X203600000Y-231450000I-250000J0D01*
G01*
X202900000Y-231450000D01*
G75*
G02*
X202650000Y-231200000I0J250000D01*
G01*
X202650000Y-230300000D01*
G75*
G02*
X202900000Y-230050000I250000J0D01*
G01*
X203600000Y-230050000D01*
G75*
G02*
X203850000Y-230300000I0J-250000D01*
G01*
G37*
G36*
G01*
X201850000Y-230300000D02*
X201850000Y-231200000D01*
G75*
G02*
X201600000Y-231450000I-250000J0D01*
G01*
X200900000Y-231450000D01*
G75*
G02*
X200650000Y-231200000I0J250000D01*
G01*
X200650000Y-230300000D01*
G75*
G02*
X200900000Y-230050000I250000J0D01*
G01*
X201600000Y-230050000D01*
G75*
G02*
X201850000Y-230300000I0J-250000D01*
G01*
G37*
G36*
G01*
X196125000Y-231225000D02*
X196125000Y-230275000D01*
G75*
G02*
X196375000Y-230025000I250000J0D01*
G01*
X197050000Y-230025000D01*
G75*
G02*
X197300000Y-230275000I0J-250000D01*
G01*
X197300000Y-231225000D01*
G75*
G02*
X197050000Y-231475000I-250000J0D01*
G01*
X196375000Y-231475000D01*
G75*
G02*
X196125000Y-231225000I0J250000D01*
G01*
G37*
G36*
G01*
X198200000Y-231225000D02*
X198200000Y-230275000D01*
G75*
G02*
X198450000Y-230025000I250000J0D01*
G01*
X199125000Y-230025000D01*
G75*
G02*
X199375000Y-230275000I0J-250000D01*
G01*
X199375000Y-231225000D01*
G75*
G02*
X199125000Y-231475000I-250000J0D01*
G01*
X198450000Y-231475000D01*
G75*
G02*
X198200000Y-231225000I0J250000D01*
G01*
G37*
G36*
G01*
X203950000Y-210600000D02*
X204850000Y-210600000D01*
G75*
G02*
X205100000Y-210850000I0J-250000D01*
G01*
X205100000Y-211550000D01*
G75*
G02*
X204850000Y-211800000I-250000J0D01*
G01*
X203950000Y-211800000D01*
G75*
G02*
X203700000Y-211550000I0J250000D01*
G01*
X203700000Y-210850000D01*
G75*
G02*
X203950000Y-210600000I250000J0D01*
G01*
G37*
G36*
G01*
X203950000Y-212600000D02*
X204850000Y-212600000D01*
G75*
G02*
X205100000Y-212850000I0J-250000D01*
G01*
X205100000Y-213550000D01*
G75*
G02*
X204850000Y-213800000I-250000J0D01*
G01*
X203950000Y-213800000D01*
G75*
G02*
X203700000Y-213550000I0J250000D01*
G01*
X203700000Y-212850000D01*
G75*
G02*
X203950000Y-212600000I250000J0D01*
G01*
G37*
G36*
G01*
X204335000Y-135075000D02*
X204635000Y-135075000D01*
G75*
G02*
X204785000Y-135225000I0J-150000D01*
G01*
X204785000Y-136975000D01*
G75*
G02*
X204635000Y-137125000I-150000J0D01*
G01*
X204335000Y-137125000D01*
G75*
G02*
X204185000Y-136975000I0J150000D01*
G01*
X204185000Y-135225000D01*
G75*
G02*
X204335000Y-135075000I150000J0D01*
G01*
G37*
G36*
G01*
X203065000Y-135075000D02*
X203365000Y-135075000D01*
G75*
G02*
X203515000Y-135225000I0J-150000D01*
G01*
X203515000Y-136975000D01*
G75*
G02*
X203365000Y-137125000I-150000J0D01*
G01*
X203065000Y-137125000D01*
G75*
G02*
X202915000Y-136975000I0J150000D01*
G01*
X202915000Y-135225000D01*
G75*
G02*
X203065000Y-135075000I150000J0D01*
G01*
G37*
G36*
G01*
X201795000Y-135075000D02*
X202095000Y-135075000D01*
G75*
G02*
X202245000Y-135225000I0J-150000D01*
G01*
X202245000Y-136975000D01*
G75*
G02*
X202095000Y-137125000I-150000J0D01*
G01*
X201795000Y-137125000D01*
G75*
G02*
X201645000Y-136975000I0J150000D01*
G01*
X201645000Y-135225000D01*
G75*
G02*
X201795000Y-135075000I150000J0D01*
G01*
G37*
G36*
G01*
X200525000Y-135075000D02*
X200825000Y-135075000D01*
G75*
G02*
X200975000Y-135225000I0J-150000D01*
G01*
X200975000Y-136975000D01*
G75*
G02*
X200825000Y-137125000I-150000J0D01*
G01*
X200525000Y-137125000D01*
G75*
G02*
X200375000Y-136975000I0J150000D01*
G01*
X200375000Y-135225000D01*
G75*
G02*
X200525000Y-135075000I150000J0D01*
G01*
G37*
G36*
G01*
X199255000Y-135075000D02*
X199555000Y-135075000D01*
G75*
G02*
X199705000Y-135225000I0J-150000D01*
G01*
X199705000Y-136975000D01*
G75*
G02*
X199555000Y-137125000I-150000J0D01*
G01*
X199255000Y-137125000D01*
G75*
G02*
X199105000Y-136975000I0J150000D01*
G01*
X199105000Y-135225000D01*
G75*
G02*
X199255000Y-135075000I150000J0D01*
G01*
G37*
G36*
G01*
X197985000Y-135075000D02*
X198285000Y-135075000D01*
G75*
G02*
X198435000Y-135225000I0J-150000D01*
G01*
X198435000Y-136975000D01*
G75*
G02*
X198285000Y-137125000I-150000J0D01*
G01*
X197985000Y-137125000D01*
G75*
G02*
X197835000Y-136975000I0J150000D01*
G01*
X197835000Y-135225000D01*
G75*
G02*
X197985000Y-135075000I150000J0D01*
G01*
G37*
G36*
G01*
X196715000Y-135075000D02*
X197015000Y-135075000D01*
G75*
G02*
X197165000Y-135225000I0J-150000D01*
G01*
X197165000Y-136975000D01*
G75*
G02*
X197015000Y-137125000I-150000J0D01*
G01*
X196715000Y-137125000D01*
G75*
G02*
X196565000Y-136975000I0J150000D01*
G01*
X196565000Y-135225000D01*
G75*
G02*
X196715000Y-135075000I150000J0D01*
G01*
G37*
G36*
G01*
X195445000Y-135075000D02*
X195745000Y-135075000D01*
G75*
G02*
X195895000Y-135225000I0J-150000D01*
G01*
X195895000Y-136975000D01*
G75*
G02*
X195745000Y-137125000I-150000J0D01*
G01*
X195445000Y-137125000D01*
G75*
G02*
X195295000Y-136975000I0J150000D01*
G01*
X195295000Y-135225000D01*
G75*
G02*
X195445000Y-135075000I150000J0D01*
G01*
G37*
G36*
G01*
X194175000Y-135075000D02*
X194475000Y-135075000D01*
G75*
G02*
X194625000Y-135225000I0J-150000D01*
G01*
X194625000Y-136975000D01*
G75*
G02*
X194475000Y-137125000I-150000J0D01*
G01*
X194175000Y-137125000D01*
G75*
G02*
X194025000Y-136975000I0J150000D01*
G01*
X194025000Y-135225000D01*
G75*
G02*
X194175000Y-135075000I150000J0D01*
G01*
G37*
G36*
G01*
X192905000Y-135075000D02*
X193205000Y-135075000D01*
G75*
G02*
X193355000Y-135225000I0J-150000D01*
G01*
X193355000Y-136975000D01*
G75*
G02*
X193205000Y-137125000I-150000J0D01*
G01*
X192905000Y-137125000D01*
G75*
G02*
X192755000Y-136975000I0J150000D01*
G01*
X192755000Y-135225000D01*
G75*
G02*
X192905000Y-135075000I150000J0D01*
G01*
G37*
G36*
G01*
X191635000Y-135075000D02*
X191935000Y-135075000D01*
G75*
G02*
X192085000Y-135225000I0J-150000D01*
G01*
X192085000Y-136975000D01*
G75*
G02*
X191935000Y-137125000I-150000J0D01*
G01*
X191635000Y-137125000D01*
G75*
G02*
X191485000Y-136975000I0J150000D01*
G01*
X191485000Y-135225000D01*
G75*
G02*
X191635000Y-135075000I150000J0D01*
G01*
G37*
G36*
G01*
X190365000Y-135075000D02*
X190665000Y-135075000D01*
G75*
G02*
X190815000Y-135225000I0J-150000D01*
G01*
X190815000Y-136975000D01*
G75*
G02*
X190665000Y-137125000I-150000J0D01*
G01*
X190365000Y-137125000D01*
G75*
G02*
X190215000Y-136975000I0J150000D01*
G01*
X190215000Y-135225000D01*
G75*
G02*
X190365000Y-135075000I150000J0D01*
G01*
G37*
G36*
G01*
X190365000Y-144375000D02*
X190665000Y-144375000D01*
G75*
G02*
X190815000Y-144525000I0J-150000D01*
G01*
X190815000Y-146275000D01*
G75*
G02*
X190665000Y-146425000I-150000J0D01*
G01*
X190365000Y-146425000D01*
G75*
G02*
X190215000Y-146275000I0J150000D01*
G01*
X190215000Y-144525000D01*
G75*
G02*
X190365000Y-144375000I150000J0D01*
G01*
G37*
G36*
G01*
X191635000Y-144375000D02*
X191935000Y-144375000D01*
G75*
G02*
X192085000Y-144525000I0J-150000D01*
G01*
X192085000Y-146275000D01*
G75*
G02*
X191935000Y-146425000I-150000J0D01*
G01*
X191635000Y-146425000D01*
G75*
G02*
X191485000Y-146275000I0J150000D01*
G01*
X191485000Y-144525000D01*
G75*
G02*
X191635000Y-144375000I150000J0D01*
G01*
G37*
G36*
G01*
X192905000Y-144375000D02*
X193205000Y-144375000D01*
G75*
G02*
X193355000Y-144525000I0J-150000D01*
G01*
X193355000Y-146275000D01*
G75*
G02*
X193205000Y-146425000I-150000J0D01*
G01*
X192905000Y-146425000D01*
G75*
G02*
X192755000Y-146275000I0J150000D01*
G01*
X192755000Y-144525000D01*
G75*
G02*
X192905000Y-144375000I150000J0D01*
G01*
G37*
G36*
G01*
X194175000Y-144375000D02*
X194475000Y-144375000D01*
G75*
G02*
X194625000Y-144525000I0J-150000D01*
G01*
X194625000Y-146275000D01*
G75*
G02*
X194475000Y-146425000I-150000J0D01*
G01*
X194175000Y-146425000D01*
G75*
G02*
X194025000Y-146275000I0J150000D01*
G01*
X194025000Y-144525000D01*
G75*
G02*
X194175000Y-144375000I150000J0D01*
G01*
G37*
G36*
G01*
X195445000Y-144375000D02*
X195745000Y-144375000D01*
G75*
G02*
X195895000Y-144525000I0J-150000D01*
G01*
X195895000Y-146275000D01*
G75*
G02*
X195745000Y-146425000I-150000J0D01*
G01*
X195445000Y-146425000D01*
G75*
G02*
X195295000Y-146275000I0J150000D01*
G01*
X195295000Y-144525000D01*
G75*
G02*
X195445000Y-144375000I150000J0D01*
G01*
G37*
G36*
G01*
X196715000Y-144375000D02*
X197015000Y-144375000D01*
G75*
G02*
X197165000Y-144525000I0J-150000D01*
G01*
X197165000Y-146275000D01*
G75*
G02*
X197015000Y-146425000I-150000J0D01*
G01*
X196715000Y-146425000D01*
G75*
G02*
X196565000Y-146275000I0J150000D01*
G01*
X196565000Y-144525000D01*
G75*
G02*
X196715000Y-144375000I150000J0D01*
G01*
G37*
G36*
G01*
X197985000Y-144375000D02*
X198285000Y-144375000D01*
G75*
G02*
X198435000Y-144525000I0J-150000D01*
G01*
X198435000Y-146275000D01*
G75*
G02*
X198285000Y-146425000I-150000J0D01*
G01*
X197985000Y-146425000D01*
G75*
G02*
X197835000Y-146275000I0J150000D01*
G01*
X197835000Y-144525000D01*
G75*
G02*
X197985000Y-144375000I150000J0D01*
G01*
G37*
G36*
G01*
X199255000Y-144375000D02*
X199555000Y-144375000D01*
G75*
G02*
X199705000Y-144525000I0J-150000D01*
G01*
X199705000Y-146275000D01*
G75*
G02*
X199555000Y-146425000I-150000J0D01*
G01*
X199255000Y-146425000D01*
G75*
G02*
X199105000Y-146275000I0J150000D01*
G01*
X199105000Y-144525000D01*
G75*
G02*
X199255000Y-144375000I150000J0D01*
G01*
G37*
G36*
G01*
X200525000Y-144375000D02*
X200825000Y-144375000D01*
G75*
G02*
X200975000Y-144525000I0J-150000D01*
G01*
X200975000Y-146275000D01*
G75*
G02*
X200825000Y-146425000I-150000J0D01*
G01*
X200525000Y-146425000D01*
G75*
G02*
X200375000Y-146275000I0J150000D01*
G01*
X200375000Y-144525000D01*
G75*
G02*
X200525000Y-144375000I150000J0D01*
G01*
G37*
G36*
G01*
X201795000Y-144375000D02*
X202095000Y-144375000D01*
G75*
G02*
X202245000Y-144525000I0J-150000D01*
G01*
X202245000Y-146275000D01*
G75*
G02*
X202095000Y-146425000I-150000J0D01*
G01*
X201795000Y-146425000D01*
G75*
G02*
X201645000Y-146275000I0J150000D01*
G01*
X201645000Y-144525000D01*
G75*
G02*
X201795000Y-144375000I150000J0D01*
G01*
G37*
G36*
G01*
X203065000Y-144375000D02*
X203365000Y-144375000D01*
G75*
G02*
X203515000Y-144525000I0J-150000D01*
G01*
X203515000Y-146275000D01*
G75*
G02*
X203365000Y-146425000I-150000J0D01*
G01*
X203065000Y-146425000D01*
G75*
G02*
X202915000Y-146275000I0J150000D01*
G01*
X202915000Y-144525000D01*
G75*
G02*
X203065000Y-144375000I150000J0D01*
G01*
G37*
G36*
G01*
X204335000Y-144375000D02*
X204635000Y-144375000D01*
G75*
G02*
X204785000Y-144525000I0J-150000D01*
G01*
X204785000Y-146275000D01*
G75*
G02*
X204635000Y-146425000I-150000J0D01*
G01*
X204335000Y-146425000D01*
G75*
G02*
X204185000Y-146275000I0J150000D01*
G01*
X204185000Y-144525000D01*
G75*
G02*
X204335000Y-144375000I150000J0D01*
G01*
G37*
G36*
G01*
X166550000Y-114900000D02*
X167450000Y-114900000D01*
G75*
G02*
X167700000Y-115150000I0J-250000D01*
G01*
X167700000Y-115850000D01*
G75*
G02*
X167450000Y-116100000I-250000J0D01*
G01*
X166550000Y-116100000D01*
G75*
G02*
X166300000Y-115850000I0J250000D01*
G01*
X166300000Y-115150000D01*
G75*
G02*
X166550000Y-114900000I250000J0D01*
G01*
G37*
G36*
G01*
X166550000Y-116900000D02*
X167450000Y-116900000D01*
G75*
G02*
X167700000Y-117150000I0J-250000D01*
G01*
X167700000Y-117850000D01*
G75*
G02*
X167450000Y-118100000I-250000J0D01*
G01*
X166550000Y-118100000D01*
G75*
G02*
X166300000Y-117850000I0J250000D01*
G01*
X166300000Y-117150000D01*
G75*
G02*
X166550000Y-116900000I250000J0D01*
G01*
G37*
G36*
G01*
X222662500Y-209525000D02*
X222662500Y-210475000D01*
G75*
G02*
X222412500Y-210725000I-250000J0D01*
G01*
X221737500Y-210725000D01*
G75*
G02*
X221487500Y-210475000I0J250000D01*
G01*
X221487500Y-209525000D01*
G75*
G02*
X221737500Y-209275000I250000J0D01*
G01*
X222412500Y-209275000D01*
G75*
G02*
X222662500Y-209525000I0J-250000D01*
G01*
G37*
G36*
G01*
X220587500Y-209525000D02*
X220587500Y-210475000D01*
G75*
G02*
X220337500Y-210725000I-250000J0D01*
G01*
X219662500Y-210725000D01*
G75*
G02*
X219412500Y-210475000I0J250000D01*
G01*
X219412500Y-209525000D01*
G75*
G02*
X219662500Y-209275000I250000J0D01*
G01*
X220337500Y-209275000D01*
G75*
G02*
X220587500Y-209525000I0J-250000D01*
G01*
G37*
G36*
G01*
X166550000Y-154900000D02*
X167450000Y-154900000D01*
G75*
G02*
X167700000Y-155150000I0J-250000D01*
G01*
X167700000Y-155850000D01*
G75*
G02*
X167450000Y-156100000I-250000J0D01*
G01*
X166550000Y-156100000D01*
G75*
G02*
X166300000Y-155850000I0J250000D01*
G01*
X166300000Y-155150000D01*
G75*
G02*
X166550000Y-154900000I250000J0D01*
G01*
G37*
G36*
G01*
X166550000Y-156900000D02*
X167450000Y-156900000D01*
G75*
G02*
X167700000Y-157150000I0J-250000D01*
G01*
X167700000Y-157850000D01*
G75*
G02*
X167450000Y-158100000I-250000J0D01*
G01*
X166550000Y-158100000D01*
G75*
G02*
X166300000Y-157850000I0J250000D01*
G01*
X166300000Y-157150000D01*
G75*
G02*
X166550000Y-156900000I250000J0D01*
G01*
G37*
D11*
X221450000Y-217300000D03*
X221450000Y-215000000D03*
D12*
X215150000Y-215000000D03*
D11*
X221450000Y-212700000D03*
G36*
G01*
X167525000Y-118875000D02*
X168475000Y-118875000D01*
G75*
G02*
X168725000Y-119125000I0J-250000D01*
G01*
X168725000Y-119800000D01*
G75*
G02*
X168475000Y-120050000I-250000J0D01*
G01*
X167525000Y-120050000D01*
G75*
G02*
X167275000Y-119800000I0J250000D01*
G01*
X167275000Y-119125000D01*
G75*
G02*
X167525000Y-118875000I250000J0D01*
G01*
G37*
G36*
G01*
X167525000Y-120950000D02*
X168475000Y-120950000D01*
G75*
G02*
X168725000Y-121200000I0J-250000D01*
G01*
X168725000Y-121875000D01*
G75*
G02*
X168475000Y-122125000I-250000J0D01*
G01*
X167525000Y-122125000D01*
G75*
G02*
X167275000Y-121875000I0J250000D01*
G01*
X167275000Y-121200000D01*
G75*
G02*
X167525000Y-120950000I250000J0D01*
G01*
G37*
G36*
G01*
X191650000Y-71200000D02*
X191650000Y-70300000D01*
G75*
G02*
X191900000Y-70050000I250000J0D01*
G01*
X192600000Y-70050000D01*
G75*
G02*
X192850000Y-70300000I0J-250000D01*
G01*
X192850000Y-71200000D01*
G75*
G02*
X192600000Y-71450000I-250000J0D01*
G01*
X191900000Y-71450000D01*
G75*
G02*
X191650000Y-71200000I0J250000D01*
G01*
G37*
G36*
G01*
X193650000Y-71200000D02*
X193650000Y-70300000D01*
G75*
G02*
X193900000Y-70050000I250000J0D01*
G01*
X194600000Y-70050000D01*
G75*
G02*
X194850000Y-70300000I0J-250000D01*
G01*
X194850000Y-71200000D01*
G75*
G02*
X194600000Y-71450000I-250000J0D01*
G01*
X193900000Y-71450000D01*
G75*
G02*
X193650000Y-71200000I0J250000D01*
G01*
G37*
G36*
G01*
X157475000Y-140162500D02*
X156525000Y-140162500D01*
G75*
G02*
X156275000Y-139912500I0J250000D01*
G01*
X156275000Y-139237500D01*
G75*
G02*
X156525000Y-138987500I250000J0D01*
G01*
X157475000Y-138987500D01*
G75*
G02*
X157725000Y-139237500I0J-250000D01*
G01*
X157725000Y-139912500D01*
G75*
G02*
X157475000Y-140162500I-250000J0D01*
G01*
G37*
G36*
G01*
X157475000Y-138087500D02*
X156525000Y-138087500D01*
G75*
G02*
X156275000Y-137837500I0J250000D01*
G01*
X156275000Y-137162500D01*
G75*
G02*
X156525000Y-136912500I250000J0D01*
G01*
X157475000Y-136912500D01*
G75*
G02*
X157725000Y-137162500I0J-250000D01*
G01*
X157725000Y-137837500D01*
G75*
G02*
X157475000Y-138087500I-250000J0D01*
G01*
G37*
G36*
G01*
X172550000Y-154900000D02*
X173450000Y-154900000D01*
G75*
G02*
X173700000Y-155150000I0J-250000D01*
G01*
X173700000Y-155850000D01*
G75*
G02*
X173450000Y-156100000I-250000J0D01*
G01*
X172550000Y-156100000D01*
G75*
G02*
X172300000Y-155850000I0J250000D01*
G01*
X172300000Y-155150000D01*
G75*
G02*
X172550000Y-154900000I250000J0D01*
G01*
G37*
G36*
G01*
X172550000Y-156900000D02*
X173450000Y-156900000D01*
G75*
G02*
X173700000Y-157150000I0J-250000D01*
G01*
X173700000Y-157850000D01*
G75*
G02*
X173450000Y-158100000I-250000J0D01*
G01*
X172550000Y-158100000D01*
G75*
G02*
X172300000Y-157850000I0J250000D01*
G01*
X172300000Y-157150000D01*
G75*
G02*
X172550000Y-156900000I250000J0D01*
G01*
G37*
G36*
G01*
X196125000Y-71225000D02*
X196125000Y-70275000D01*
G75*
G02*
X196375000Y-70025000I250000J0D01*
G01*
X197050000Y-70025000D01*
G75*
G02*
X197300000Y-70275000I0J-250000D01*
G01*
X197300000Y-71225000D01*
G75*
G02*
X197050000Y-71475000I-250000J0D01*
G01*
X196375000Y-71475000D01*
G75*
G02*
X196125000Y-71225000I0J250000D01*
G01*
G37*
G36*
G01*
X198200000Y-71225000D02*
X198200000Y-70275000D01*
G75*
G02*
X198450000Y-70025000I250000J0D01*
G01*
X199125000Y-70025000D01*
G75*
G02*
X199375000Y-70275000I0J-250000D01*
G01*
X199375000Y-71225000D01*
G75*
G02*
X199125000Y-71475000I-250000J0D01*
G01*
X198450000Y-71475000D01*
G75*
G02*
X198200000Y-71225000I0J250000D01*
G01*
G37*
G36*
G01*
X157475000Y-184087500D02*
X156525000Y-184087500D01*
G75*
G02*
X156275000Y-183837500I0J250000D01*
G01*
X156275000Y-183162500D01*
G75*
G02*
X156525000Y-182912500I250000J0D01*
G01*
X157475000Y-182912500D01*
G75*
G02*
X157725000Y-183162500I0J-250000D01*
G01*
X157725000Y-183837500D01*
G75*
G02*
X157475000Y-184087500I-250000J0D01*
G01*
G37*
G36*
G01*
X157475000Y-182012500D02*
X156525000Y-182012500D01*
G75*
G02*
X156275000Y-181762500I0J250000D01*
G01*
X156275000Y-181087500D01*
G75*
G02*
X156525000Y-180837500I250000J0D01*
G01*
X157475000Y-180837500D01*
G75*
G02*
X157725000Y-181087500I0J-250000D01*
G01*
X157725000Y-181762500D01*
G75*
G02*
X157475000Y-182012500I-250000J0D01*
G01*
G37*
G36*
G01*
X167525000Y-158875000D02*
X168475000Y-158875000D01*
G75*
G02*
X168725000Y-159125000I0J-250000D01*
G01*
X168725000Y-159800000D01*
G75*
G02*
X168475000Y-160050000I-250000J0D01*
G01*
X167525000Y-160050000D01*
G75*
G02*
X167275000Y-159800000I0J250000D01*
G01*
X167275000Y-159125000D01*
G75*
G02*
X167525000Y-158875000I250000J0D01*
G01*
G37*
G36*
G01*
X167525000Y-160950000D02*
X168475000Y-160950000D01*
G75*
G02*
X168725000Y-161200000I0J-250000D01*
G01*
X168725000Y-161875000D01*
G75*
G02*
X168475000Y-162125000I-250000J0D01*
G01*
X167525000Y-162125000D01*
G75*
G02*
X167275000Y-161875000I0J250000D01*
G01*
X167275000Y-161200000D01*
G75*
G02*
X167525000Y-160950000I250000J0D01*
G01*
G37*
G36*
G01*
X169525000Y-118875000D02*
X170475000Y-118875000D01*
G75*
G02*
X170725000Y-119125000I0J-250000D01*
G01*
X170725000Y-119800000D01*
G75*
G02*
X170475000Y-120050000I-250000J0D01*
G01*
X169525000Y-120050000D01*
G75*
G02*
X169275000Y-119800000I0J250000D01*
G01*
X169275000Y-119125000D01*
G75*
G02*
X169525000Y-118875000I250000J0D01*
G01*
G37*
G36*
G01*
X169525000Y-120950000D02*
X170475000Y-120950000D01*
G75*
G02*
X170725000Y-121200000I0J-250000D01*
G01*
X170725000Y-121875000D01*
G75*
G02*
X170475000Y-122125000I-250000J0D01*
G01*
X169525000Y-122125000D01*
G75*
G02*
X169275000Y-121875000I0J250000D01*
G01*
X169275000Y-121200000D01*
G75*
G02*
X169525000Y-120950000I250000J0D01*
G01*
G37*
G36*
G01*
X172550000Y-194900000D02*
X173450000Y-194900000D01*
G75*
G02*
X173700000Y-195150000I0J-250000D01*
G01*
X173700000Y-195850000D01*
G75*
G02*
X173450000Y-196100000I-250000J0D01*
G01*
X172550000Y-196100000D01*
G75*
G02*
X172300000Y-195850000I0J250000D01*
G01*
X172300000Y-195150000D01*
G75*
G02*
X172550000Y-194900000I250000J0D01*
G01*
G37*
G36*
G01*
X172550000Y-196900000D02*
X173450000Y-196900000D01*
G75*
G02*
X173700000Y-197150000I0J-250000D01*
G01*
X173700000Y-197850000D01*
G75*
G02*
X173450000Y-198100000I-250000J0D01*
G01*
X172550000Y-198100000D01*
G75*
G02*
X172300000Y-197850000I0J250000D01*
G01*
X172300000Y-197150000D01*
G75*
G02*
X172550000Y-196900000I250000J0D01*
G01*
G37*
G36*
G01*
X167525000Y-238875000D02*
X168475000Y-238875000D01*
G75*
G02*
X168725000Y-239125000I0J-250000D01*
G01*
X168725000Y-239800000D01*
G75*
G02*
X168475000Y-240050000I-250000J0D01*
G01*
X167525000Y-240050000D01*
G75*
G02*
X167275000Y-239800000I0J250000D01*
G01*
X167275000Y-239125000D01*
G75*
G02*
X167525000Y-238875000I250000J0D01*
G01*
G37*
G36*
G01*
X167525000Y-240950000D02*
X168475000Y-240950000D01*
G75*
G02*
X168725000Y-241200000I0J-250000D01*
G01*
X168725000Y-241875000D01*
G75*
G02*
X168475000Y-242125000I-250000J0D01*
G01*
X167525000Y-242125000D01*
G75*
G02*
X167275000Y-241875000I0J250000D01*
G01*
X167275000Y-241200000D01*
G75*
G02*
X167525000Y-240950000I250000J0D01*
G01*
G37*
G36*
G01*
X175875000Y-227975000D02*
X175875000Y-227025000D01*
G75*
G02*
X176125000Y-226775000I250000J0D01*
G01*
X176800000Y-226775000D01*
G75*
G02*
X177050000Y-227025000I0J-250000D01*
G01*
X177050000Y-227975000D01*
G75*
G02*
X176800000Y-228225000I-250000J0D01*
G01*
X176125000Y-228225000D01*
G75*
G02*
X175875000Y-227975000I0J250000D01*
G01*
G37*
G36*
G01*
X177950000Y-227975000D02*
X177950000Y-227025000D01*
G75*
G02*
X178200000Y-226775000I250000J0D01*
G01*
X178875000Y-226775000D01*
G75*
G02*
X179125000Y-227025000I0J-250000D01*
G01*
X179125000Y-227975000D01*
G75*
G02*
X178875000Y-228225000I-250000J0D01*
G01*
X178200000Y-228225000D01*
G75*
G02*
X177950000Y-227975000I0J250000D01*
G01*
G37*
G36*
G01*
X167525000Y-198875000D02*
X168475000Y-198875000D01*
G75*
G02*
X168725000Y-199125000I0J-250000D01*
G01*
X168725000Y-199800000D01*
G75*
G02*
X168475000Y-200050000I-250000J0D01*
G01*
X167525000Y-200050000D01*
G75*
G02*
X167275000Y-199800000I0J250000D01*
G01*
X167275000Y-199125000D01*
G75*
G02*
X167525000Y-198875000I250000J0D01*
G01*
G37*
G36*
G01*
X167525000Y-200950000D02*
X168475000Y-200950000D01*
G75*
G02*
X168725000Y-201200000I0J-250000D01*
G01*
X168725000Y-201875000D01*
G75*
G02*
X168475000Y-202125000I-250000J0D01*
G01*
X167525000Y-202125000D01*
G75*
G02*
X167275000Y-201875000I0J250000D01*
G01*
X167275000Y-201200000D01*
G75*
G02*
X167525000Y-200950000I250000J0D01*
G01*
G37*
M02*
