M48
; FORMAT={-:-/ absolute / metric / decimal}
; #@! TF.GenerationSoftware,Kicad,Pcbnew,6.0.10+dfsg-1~bpo11+1
; #@! TF.FileFunction,Plated,1,2,PTH
FMAT,2
METRIC
; #@! TA.AperFunction,Plated,PTH,ViaDrill
T1C0.300
; #@! TA.AperFunction,Plated,PTH,ComponentDrill
T2C0.500
; #@! TA.AperFunction,Plated,PTH,ComponentDrill
T3C0.600
; #@! TA.AperFunction,Plated,PTH,ComponentDrill
T4C0.700
; #@! TA.AperFunction,Plated,PTH,ComponentDrill
T5C0.950
; #@! TA.AperFunction,Plated,PTH,ComponentDrill
T6C1.000
; #@! TA.AperFunction,Plated,PTH,ComponentDrill
T7C1.020
; #@! TA.AperFunction,Plated,PTH,ComponentDrill
T8C1.600
; #@! TA.AperFunction,Plated,PTH,ComponentDrill
T9C2.600
; #@! TA.AperFunction,Plated,PTH,ComponentDrill
T10C3.200
; #@! TA.AperFunction,Plated,PTH,ComponentDrill
T11C6.500
%
G90
G05
T1
X153.0Y-84.5
X153.0Y-124.5
X153.0Y-204.5
X153.956Y-36.305
X153.956Y-38.867
X153.956Y-41.429
X153.956Y-43.992
X153.956Y-46.554
X153.956Y-49.116
X153.956Y-51.679
X153.956Y-54.241
X153.956Y-56.803
X153.956Y-59.366
X153.956Y-61.928
X153.956Y-64.49
X153.956Y-67.053
X153.956Y-69.615
X153.956Y-72.177
X153.956Y-74.739
X153.956Y-77.302
X153.956Y-79.864
X153.956Y-82.426
X153.956Y-85.681
X153.956Y-88.248
X153.956Y-90.816
X153.956Y-93.384
X153.956Y-95.952
X153.956Y-98.52
X153.956Y-101.087
X153.956Y-103.655
X153.956Y-106.223
X153.956Y-108.791
X153.956Y-111.359
X153.956Y-113.927
X153.956Y-116.494
X153.956Y-119.062
X153.956Y-121.63
X153.956Y-128.056
X153.956Y-130.619
X153.956Y-133.182
X153.956Y-135.745
X153.956Y-171.206
X153.956Y-187.057
X153.956Y-189.663
X153.956Y-192.269
X153.956Y-194.874
X153.956Y-197.48
X153.956Y-200.086
X153.956Y-202.691
X153.956Y-231.065
X153.956Y-233.64
X153.956Y-236.215
X153.956Y-238.79
X153.956Y-241.365
X153.956Y-243.94
X154.143Y-125.68
X154.5Y-206.0
X154.776Y-184.93
X154.834Y-123.319
X155.0Y-230.0
X155.158Y-169.456
X155.164Y-34.199
X155.266Y-154.199
X155.32Y-141.375
X155.32Y-146.455
X155.379Y-245.938
X155.406Y-143.91
X155.432Y-174.391
X155.5Y-207.0
X155.551Y-176.629
X155.625Y-83.319
X155.674Y-178.929
X155.933Y-203.32
X156.0Y-232.0
X156.191Y-172.029
X156.279Y-136.005
X156.5Y-140.0
X156.5Y-181.0
X156.523Y-85.68
X156.661Y-149.169
X156.706Y-125.68
X156.748Y-158.948
X156.977Y-170.136
X156.981Y-208.94
X156.981Y-211.481
X156.981Y-214.021
X156.981Y-216.562
X156.981Y-219.102
X156.981Y-221.642
X156.981Y-224.183
X156.981Y-226.723
X156.981Y-229.264
X157.158Y-155.989
X157.197Y-233.18
X157.231Y-151.709
X157.37Y-185.018
X157.402Y-123.319
X157.5Y-140.0
X157.5Y-181.0
X157.624Y-141.549
X157.669Y-33.956
X157.741Y-144.089
X157.752Y-154.07
X157.938Y-246.044
X158.038Y-174.391
X158.187Y-83.319
X158.517Y-136.605
X158.538Y-203.32
X158.619Y-160.82
X158.655Y-183.198
X158.761Y-208.18
X158.877Y-172.036
X158.965Y-229.819
X159.01Y-157.841
X159.091Y-85.68
X159.269Y-125.68
X159.547Y-140.141
X159.671Y-220.297
X159.772Y-233.18
X159.862Y-217.978
X159.867Y-151.709
X159.934Y-176.103
X159.969Y-87.37
X159.969Y-89.938
X159.969Y-92.506
X159.969Y-95.073
X159.969Y-97.641
X159.969Y-100.209
X159.969Y-102.777
X159.969Y-105.345
X159.969Y-107.913
X159.969Y-110.48
X159.969Y-113.048
X159.969Y-115.616
X159.969Y-118.184
X159.969Y-120.752
X159.969Y-123.319
X159.969Y-127.543
X159.969Y-130.106
X159.969Y-132.669
X159.969Y-135.232
X159.969Y-137.795
X159.969Y-178.694
X159.969Y-181.3
X159.969Y-186.511
X159.969Y-189.117
X159.969Y-191.722
X159.969Y-194.328
X159.969Y-196.934
X159.969Y-199.539
X159.969Y-202.145
X160.018Y-149.151
X160.231Y-33.956
X160.372Y-154.07
X160.491Y-162.692
X160.5Y-141.0
X160.5Y-206.0
X160.511Y-82.82
X160.513Y-246.044
X161.0Y-172.5
X161.289Y-208.264
X161.5Y-207.0
X161.506Y-229.819
X161.65Y-216.181
X161.88Y-240.017
X161.882Y-147.288
X161.938Y-220.826
X161.946Y-159.634
X162.0Y-83.0
X162.0Y-141.5
X162.0Y-171.0
X162.123Y-79.135
X162.248Y-81.587
X162.347Y-233.18
X162.363Y-164.563
X162.475Y-151.859
X162.526Y-155.195
X162.575Y-40.307
X162.793Y-33.956
X162.874Y-242.271
X162.906Y-37.78
X163.0Y-86.0
X163.088Y-246.044
X163.112Y-42.8
X163.139Y-206.83
X163.18Y-173.585
X163.18Y-176.774
X163.18Y-179.424
X163.18Y-182.074
X163.18Y-184.724
X163.18Y-187.374
X163.18Y-190.024
X163.18Y-192.675
X163.18Y-195.325
X163.18Y-197.975
X163.27Y-237.985
X163.446Y-214.384
X163.5Y-142.0
X163.53Y-87.615
X163.53Y-90.188
X163.53Y-92.761
X163.53Y-95.334
X163.53Y-97.907
X163.53Y-100.48
X163.53Y-103.053
X163.53Y-105.626
X163.53Y-108.199
X163.53Y-110.772
X163.53Y-113.345
X163.53Y-115.918
X163.554Y-122.64
X163.673Y-157.823
X163.745Y-145.424
X164.046Y-229.819
X164.074Y-35.514
X164.129Y-117.73
X164.136Y-77.73
X164.21Y-220.941
X164.234Y-166.435
X164.32Y-150.959
X164.32Y-153.595
X164.32Y-172.399
X164.32Y-178.098
X164.32Y-180.749
X164.32Y-183.399
X164.32Y-186.049
X164.32Y-188.699
X164.32Y-191.349
X164.32Y-193.999
X164.32Y-196.621
X164.32Y-233.963
X164.32Y-236.538
X164.466Y-44.96
X164.566Y-205.68
X164.623Y-203.32
X164.838Y-148.493
X164.93Y-164.68
X165.0Y-123.0
X165.0Y-142.5
X165.243Y-212.588
X165.315Y-242.615
X165.356Y-33.956
X165.463Y-86.68
X165.487Y-76.629
X165.489Y-116.625
X165.5Y-125.5
X165.5Y-170.0
X165.5Y-194.5
X165.567Y-167.258
X165.57Y-74.168
X165.57Y-114.153
X165.578Y-71.615
X165.582Y-111.589
X165.643Y-143.608
X165.663Y-246.044
X165.939Y-202.265
X166.078Y-208.557
X166.18Y-130.678
X166.18Y-133.313
X166.18Y-135.949
X166.18Y-138.585
X166.18Y-141.22
X166.347Y-88.802
X166.424Y-161.775
X166.465Y-221.011
X166.467Y-46.539
X166.5Y-173.0
X166.57Y-100.333
X166.57Y-102.906
X166.586Y-229.819
X166.656Y-169.107
X166.694Y-129.009
X166.695Y-97.782
X166.702Y-146.629
X166.94Y-240.825
X166.948Y-105.368
X167.039Y-210.792
X167.104Y-165.358
X167.5Y-190.5
X167.68Y-178.27
X167.68Y-180.984
X167.68Y-183.698
X167.68Y-186.412
X167.73Y-70.819
X167.748Y-174.32
X167.762Y-189.092
X167.766Y-110.819
X167.769Y-131.258
X167.769Y-133.893
X167.769Y-136.529
X167.769Y-139.164
X167.769Y-141.8
X167.769Y-144.436
X167.82Y-171.517
X167.82Y-242.646
X167.835Y-245.22
X167.934Y-150.82
X168.0Y-81.537
X168.0Y-121.537
X168.0Y-161.537
X168.0Y-201.537
X168.0Y-241.537
X168.469Y-95.928
X168.5Y-175.5
X168.713Y-221.033
X168.734Y-88.741
X168.753Y-204.916
X168.768Y-107.187
X168.789Y-176.753
X168.82Y-91.116
X168.82Y-93.689
X168.82Y-125.834
X168.82Y-129.011
X168.82Y-169.011
X168.884Y-147.786
X168.884Y-47.348
X168.964Y-209.319
X169.0Y-83.0
X169.0Y-123.0
X169.0Y-203.0
X169.127Y-229.819
X169.185Y-165.006
X169.43Y-152.314
X169.43Y-192.303
X169.82Y-179.863
X169.82Y-182.577
X169.82Y-185.291
X169.966Y-232.18
X170.0Y-79.462
X170.0Y-81.537
X170.0Y-94.5
X170.0Y-119.462
X170.0Y-121.537
X170.0Y-159.463
X170.0Y-161.537
X170.0Y-166.0
X170.0Y-199.462
X170.0Y-201.537
X170.0Y-239.462
X170.0Y-241.537
X170.058Y-74.064
X170.113Y-114.048
X170.13Y-132.658
X170.13Y-135.257
X170.13Y-137.857
X170.13Y-140.457
X170.13Y-143.057
X170.13Y-145.657
X170.18Y-244.259
X170.285Y-203.012
X170.324Y-153.986
X170.324Y-193.986
X170.324Y-233.986
X170.384Y-189.32
X170.5Y-100.25
X170.587Y-109.006
X170.589Y-72.467
X170.597Y-112.399
X170.626Y-206.783
X170.701Y-80.964
X170.75Y-103.25
X170.825Y-130.346
X170.962Y-221.006
X171.254Y-125.771
X171.277Y-187.447
X171.36Y-208.971
X171.372Y-88.822
X171.372Y-168.822
X171.378Y-122.952
X171.432Y-47.292
X171.5Y-97.5
X171.667Y-229.819
X171.776Y-245.455
X171.877Y-129.078
X172.0Y-81.537
X172.0Y-101.0
X172.0Y-121.537
X172.0Y-161.537
X172.0Y-201.537
X172.0Y-241.537
X172.309Y-70.826
X172.388Y-110.818
X172.412Y-85.318
X172.475Y-205.319
X172.5Y-96.5
X172.5Y-97.5
X172.661Y-150.821
X173.07Y-133.123
X173.07Y-135.723
X173.07Y-138.323
X173.07Y-140.922
X173.07Y-143.522
X173.07Y-146.122
X173.07Y-148.722
X173.097Y-189.32
X173.218Y-220.932
X173.36Y-83.812
X173.8Y-130.78
X173.814Y-46.382
X173.862Y-125.878
X174.001Y-242.211
X174.117Y-93.487
X174.144Y-128.27
X174.166Y-230.019
X174.205Y-246.044
X174.295Y-166.536
X174.321Y-72.096
X174.412Y-91.508
X174.414Y-86.417
X174.479Y-163.169
X174.507Y-74.618
X174.536Y-205.795
X174.618Y-114.947
X174.63Y-77.081
X174.63Y-117.816
X174.669Y-122.695
X174.73Y-202.63
X174.873Y-157.823
X174.927Y-103.237
X175.003Y-113.423
X175.136Y-82.743
X175.491Y-220.812
X175.543Y-97.548
X175.639Y-128.942
X175.68Y-192.563
X175.68Y-195.605
X175.68Y-231.97
X175.68Y-234.51
X175.685Y-237.05
X175.726Y-35.262
X175.741Y-105.071
X175.743Y-44.715
X176.0Y-227.0
X176.0Y-228.0
X176.185Y-94.42
X176.226Y-84.605
X176.243Y-89.676
X176.297Y-197.814
X176.33Y-77.822
X176.332Y-203.998
X176.491Y-173.339
X176.515Y-242.615
X176.727Y-102.992
X176.874Y-246.044
X176.989Y-37.476
X177.0Y-227.0
X177.0Y-228.0
X177.001Y-42.499
X177.071Y-122.311
X177.088Y-115.508
X177.133Y-238.237
X177.139Y-202.265
X177.209Y-223.569
X177.263Y-221.063
X177.299Y-118.369
X177.299Y-124.43
X177.299Y-127.03
X177.32Y-193.489
X177.32Y-196.531
X177.32Y-231.009
X177.32Y-233.55
X177.32Y-236.09
X177.435Y-39.986
X177.524Y-33.956
X177.572Y-106.903
X177.75Y-149.0
X177.962Y-171.383
X178.038Y-82.793
X178.044Y-79.58
X178.075Y-87.844
X178.191Y-179.375
X178.191Y-181.915
X178.587Y-136.333
X178.599Y-138.753
X178.696Y-94.69
X178.736Y-99.605
X178.82Y-42.393
X178.839Y-101.925
X178.89Y-225.89
X178.89Y-226.61
X178.93Y-153.091
X178.947Y-97.206
X179.0Y-227.5
X179.0Y-228.25
X179.404Y-108.735
X179.5Y-38.5
X179.57Y-57.804
X179.57Y-60.367
X179.57Y-62.929
X179.57Y-65.491
X179.57Y-68.054
X179.57Y-70.616
X179.57Y-73.178
X179.57Y-75.741
X179.57Y-78.303
X179.57Y-80.865
X179.712Y-44.632
X179.907Y-86.013
X180.086Y-33.956
X180.241Y-55.571
X180.32Y-185.15
X180.324Y-151.832
X180.498Y-220.462
X180.5Y-38.5
X180.57Y-222.907
X180.575Y-134.344
X180.613Y-225.51
X180.68Y-149.034
X180.68Y-228.105
X180.68Y-230.715
X180.68Y-233.325
X180.68Y-235.934
X180.68Y-238.544
X180.68Y-241.154
X180.68Y-243.764
X180.72Y-146.455
X180.72Y-159.155
X180.745Y-156.812
X180.75Y-56.75
X180.775Y-143.91
X180.924Y-154.503
X181.01Y-246.044
X181.102Y-138.729
X181.236Y-110.566
X181.524Y-46.443
X181.555Y-218.252
X181.563Y-41.751
X181.719Y-153.117
X181.719Y-160.866
X181.738Y-84.181
X181.75Y-57.75
X182.185Y-43.765
X182.5Y-139.0
X182.531Y-54.919
X182.563Y-132.356
X182.649Y-33.956
X182.869Y-140.32
X182.93Y-58.725
X182.93Y-61.315
X182.93Y-63.906
X182.93Y-66.496
X182.93Y-69.087
X182.93Y-71.677
X182.93Y-74.267
X182.93Y-76.858
X182.93Y-79.448
X182.93Y-82.039
X183.01Y-150.341
X183.07Y-50.334
X183.07Y-52.896
X183.07Y-86.492
X183.07Y-89.082
X183.07Y-91.673
X183.07Y-94.263
X183.07Y-96.853
X183.07Y-99.444
X183.07Y-102.034
X183.07Y-104.625
X183.07Y-107.215
X183.07Y-109.805
X183.07Y-112.396
X183.07Y-133.949
X183.07Y-136.761
X183.131Y-145.301
X183.32Y-148.155
X183.336Y-48.255
X183.401Y-216.406
X183.62Y-246.044
X183.997Y-45.577
X184.57Y-138.719
X184.625Y-49.825
X185.176Y-143.764
X185.211Y-33.956
X185.246Y-214.561
X185.68Y-145.859
X185.68Y-148.421
X185.68Y-150.984
X185.68Y-153.546
X185.68Y-156.108
X185.68Y-158.671
X185.68Y-161.233
X185.68Y-163.795
X185.68Y-166.357
X185.68Y-168.92
X185.68Y-171.482
X185.68Y-174.044
X185.68Y-176.607
X185.68Y-179.169
X185.68Y-181.731
X185.68Y-184.294
X185.75Y-139.5
X185.829Y-46.993
X186.113Y-141.673
X186.23Y-246.044
X186.93Y-50.675
X186.93Y-53.631
X186.99Y-137.131
X187.033Y-139.569
X187.092Y-212.715
X187.5Y-56.1
X187.6Y-136.0
X187.619Y-144.316
X187.619Y-146.851
X187.619Y-149.413
X187.619Y-151.975
X187.619Y-154.537
X187.619Y-157.1
X187.619Y-159.662
X187.619Y-162.224
X187.619Y-164.787
X187.619Y-167.349
X187.619Y-169.911
X187.619Y-172.474
X187.619Y-175.036
X187.619Y-177.598
X187.619Y-180.16
X187.619Y-182.723
X187.619Y-185.285
X187.619Y-216.661
X187.619Y-219.271
X187.619Y-221.881
X187.619Y-224.491
X187.773Y-33.956
X188.357Y-46.819
X188.397Y-49.18
X188.57Y-36.783
X188.57Y-39.345
X188.57Y-41.908
X188.57Y-44.47
X188.57Y-51.964
X188.57Y-54.919
X188.685Y-60.868
X188.8Y-145.4
X188.84Y-246.044
X189.1Y-226.45
X189.284Y-65.76
X189.334Y-63.191
X189.4Y-225.2
X189.489Y-34.548
X189.525Y-244.539
X189.853Y-233.743
X189.881Y-228.58
X189.935Y-139.265
X189.969Y-231.177
X189.98Y-86.875
X189.98Y-89.461
X189.98Y-92.048
X189.98Y-94.634
X189.98Y-97.22
X189.98Y-99.806
X189.98Y-102.392
X189.98Y-104.978
X189.98Y-107.565
X189.98Y-110.151
X189.98Y-112.737
X190.0Y-67.4
X190.052Y-236.089
X190.07Y-76.106
X190.6Y-131.0
X190.715Y-193.184
X190.751Y-50.4
X190.8Y-214.6
X190.884Y-207.415
X190.93Y-43.201
X190.93Y-123.243
X191.0Y-202.6
X191.13Y-166.91
X191.13Y-169.501
X191.13Y-172.092
X191.13Y-174.683
X191.13Y-177.274
X191.13Y-179.865
X191.13Y-182.456
X191.13Y-185.047
X191.13Y-187.638
X191.13Y-190.229
X191.15Y-68.4
X191.15Y-148.4
X191.15Y-228.4
X191.164Y-38.133
X191.169Y-40.885
X191.309Y-120.971
X191.309Y-237.74
X191.309Y-240.35
X191.309Y-242.96
X191.343Y-118.209
X191.55Y-51.2
X191.55Y-132.0
X191.572Y-113.183
X191.601Y-210.0
X191.731Y-86.55
X191.75Y-57.25
X191.8Y-137.4
X191.8Y-217.6
X192.331Y-79.068
X192.366Y-163.808
X192.4Y-211.4
X192.425Y-35.926
X192.425Y-115.926
X192.51Y-80.766
X192.51Y-83.423
X192.51Y-158.196
X192.51Y-161.089
X192.891Y-58.0
X192.891Y-137.364
X192.891Y-217.4
X192.94Y-192.07
X193.136Y-166.564
X193.329Y-76.819
X193.589Y-156.49
X193.642Y-43.291
X193.671Y-122.865
X193.709Y-236.495
X193.82Y-40.789
X193.82Y-121.221
X193.82Y-199.173
X193.82Y-201.821
X193.824Y-113.134
X193.989Y-86.627
X194.314Y-38.267
X194.669Y-117.979
X194.669Y-197.379
X194.701Y-54.2
X194.766Y-193.519
X194.89Y-67.64
X194.89Y-147.64
X194.89Y-227.64
X194.965Y-35.926
X194.978Y-163.847
X195.0Y-61.0
X195.0Y-219.0
X195.049Y-82.484
X195.049Y-116.389
X195.049Y-161.225
X195.049Y-242.484
X195.059Y-79.834
X195.059Y-239.834
X195.19Y-214.574
X195.2Y-134.4
X195.2Y-139.0
X195.25Y-58.0
X195.413Y-166.446
X195.43Y-49.6
X195.758Y-158.822
X195.8Y-137.4
X195.8Y-217.2
X195.869Y-77.779
X195.869Y-237.779
X196.0Y-130.0
X196.0Y-142.1
X196.0Y-209.2
X196.07Y-138.258
X196.07Y-218.058
X196.07Y-221.5
X196.073Y-113.134
X196.129Y-156.49
X196.18Y-200.726
X196.238Y-86.655
X196.272Y-43.292
X196.272Y-123.292
X196.389Y-40.755
X196.389Y-120.755
X196.389Y-203.295
X196.77Y-59.2
X196.77Y-61.4
X197.071Y-193.356
X197.41Y-81.768
X197.41Y-161.768
X197.41Y-241.768
X197.43Y-68.57
X197.43Y-148.57
X197.43Y-228.57
X197.505Y-35.926
X197.505Y-115.926
X197.549Y-38.532
X197.549Y-118.532
X197.589Y-83.351
X197.589Y-163.351
X197.589Y-243.351
X197.713Y-166.285
X198.326Y-113.187
X198.409Y-79.489
X198.409Y-159.489
X198.409Y-239.489
X198.475Y-143.725
X198.486Y-86.631
X198.5Y-63.75
X198.575Y-223.825
X198.611Y-76.844
X198.611Y-156.844
X198.611Y-236.844
X198.75Y-197.745
X198.75Y-203.177
X198.833Y-123.293
X198.929Y-42.224
X199.038Y-200.89
X199.097Y-120.774
X199.351Y-193.235
X199.749Y-39.649
X199.95Y-37.041
X200.008Y-83.829
X200.045Y-115.926
X200.045Y-195.926
X200.045Y-166.086
X200.11Y-67.89
X200.11Y-147.89
X200.11Y-227.89
X200.129Y-118.541
X200.129Y-198.607
X200.141Y-243.762
X200.141Y-163.762
X200.592Y-113.288
X200.742Y-86.558
X201.212Y-81.719
X201.29Y-123.096
X201.29Y-203.096
X201.31Y-62.56
X201.31Y-142.91
X201.31Y-222.56
X201.329Y-76.495
X201.329Y-79.131
X201.329Y-156.495
X201.329Y-159.197
X201.329Y-161.898
X201.329Y-236.495
X201.329Y-239.197
X201.329Y-241.898
X201.469Y-41.736
X201.615Y-193.16
X202.289Y-120.859
X202.289Y-200.859
X202.375Y-166.314
X202.49Y-118.256
X202.49Y-198.256
X202.51Y-68.26
X202.51Y-148.26
X202.51Y-228.26
X202.585Y-35.926
X202.6Y-129.8
X202.6Y-209.2
X202.65Y-49.45
X202.669Y-38.892
X202.669Y-57.981
X202.669Y-116.153
X202.669Y-196.153
X202.75Y-131.0
X202.75Y-210.25
X202.768Y-138.019
X202.768Y-218.019
X202.88Y-113.434
X203.117Y-86.653
X203.489Y-82.759
X203.69Y-76.707
X203.69Y-79.754
X203.69Y-158.056
X203.69Y-160.906
X203.69Y-238.056
X203.69Y-240.906
X203.832Y-220.496
X203.85Y-61.85
X203.85Y-142.15
X203.85Y-222.05
X204.069Y-139.792
X204.069Y-163.084
X204.069Y-243.084
X204.345Y-43.292
X204.619Y-99.627
X204.619Y-102.214
X204.619Y-104.8
X204.619Y-107.386
X204.619Y-109.972
X204.619Y-112.558
X204.619Y-122.052
X204.634Y-41.539
X204.829Y-201.819
X204.859Y-166.622
X205.019Y-168.97
X205.019Y-171.561
X205.019Y-174.152
X205.019Y-176.743
X205.019Y-179.334
X205.019Y-181.925
X205.019Y-184.516
X205.019Y-187.107
X205.019Y-189.698
X205.019Y-192.289
X205.03Y-36.454
X205.03Y-39.055
X205.03Y-47.507
X205.03Y-59.593
X205.25Y-63.5
X205.25Y-144.05
X205.25Y-224.0
X205.334Y-34.023
X205.462Y-86.078
X205.53Y-45.1
X205.55Y-97.381
X205.6Y-210.2
X205.665Y-54.688
X205.665Y-214.421
X205.677Y-57.28
X205.681Y-49.885
X205.715Y-136.888
X205.775Y-129.975
X205.81Y-134.41
X205.928Y-212.045
X205.95Y-52.271
X206.0Y-216.0
X206.0Y-217.0
X206.058Y-132.018
X206.2Y-147.8
X206.219Y-84.727
X206.219Y-89.9
X206.219Y-92.486
X206.219Y-95.072
X206.25Y-65.5
X206.428Y-61.66
X206.43Y-139.184
X206.43Y-141.73
X206.431Y-64.232
X206.513Y-144.262
X206.544Y-219.703
X206.544Y-222.247
X206.544Y-224.791
X206.544Y-227.335
X206.569Y-234.993
X206.569Y-237.644
X206.569Y-240.296
X206.569Y-242.947
X206.569Y-245.599
X206.63Y-229.873
X206.755Y-146.641
X207.38Y-148.889
X207.38Y-154.512
X207.38Y-157.054
X207.38Y-159.595
X207.38Y-162.137
X207.38Y-164.679
X207.38Y-167.221
X207.38Y-169.763
X207.38Y-172.304
X207.38Y-174.846
X207.38Y-177.388
X207.38Y-179.93
X207.38Y-182.472
X207.38Y-185.013
X207.38Y-187.555
X207.38Y-190.097
X207.38Y-192.639
X207.38Y-195.181
X207.38Y-197.722
X207.38Y-200.264
X207.38Y-202.806
X207.38Y-205.348
X207.591Y-152.18
X207.827Y-33.956
X207.941Y-99.552
X208.069Y-231.921
X208.52Y-134.397
X208.555Y-207.594
X208.581Y-74.475
X208.581Y-77.021
X208.581Y-79.568
X208.581Y-82.115
X208.581Y-84.661
X208.581Y-87.208
X208.581Y-89.755
X208.581Y-92.302
X208.581Y-94.848
X208.629Y-72.014
X208.783Y-64.319
X209.43Y-235.839
X209.43Y-238.383
X209.43Y-240.927
X209.43Y-243.471
X209.43Y-246.015
X209.497Y-149.32
X209.68Y-130.654
X209.742Y-97.751
X210.113Y-233.366
X210.133Y-152.18
X210.321Y-136.198
X210.395Y-102.728
X210.428Y-33.956
X210.5Y-51.5
X210.5Y-52.5
X210.5Y-53.5
X210.79Y-206.545
X211.29Y-131.667
X211.371Y-64.367
X211.5Y-51.5
X211.5Y-52.5
X211.5Y-53.5
X211.543Y-95.951
X211.946Y-246.044
X212.0Y-70.0
X212.0Y-71.0
X212.043Y-149.32
X212.122Y-137.998
X212.196Y-100.927
X212.422Y-126.799
X212.5Y-51.5
X212.5Y-52.5
X212.5Y-53.5
X212.571Y-105.553
X212.65Y-233.456
X212.675Y-152.18
X213.029Y-33.956
X213.12Y-66.069
X213.313Y-133.706
X213.332Y-206.544
X213.344Y-94.15
X213.5Y-51.5
X213.5Y-52.5
X213.5Y-53.5
X213.5Y-212.5
X213.5Y-213.5
X213.5Y-214.5
X213.5Y-215.5
X213.5Y-216.5
X213.5Y-217.5
X213.522Y-68.93
X213.997Y-99.126
X214.152Y-139.18
X214.376Y-103.757
X214.49Y-246.044
X214.5Y-51.5
X214.5Y-52.5
X214.5Y-53.5
X214.5Y-212.5
X214.5Y-213.5
X214.5Y-216.5
X214.5Y-217.5
X214.59Y-149.32
X214.646Y-129.023
X214.68Y-110.579
X214.68Y-113.126
X214.68Y-115.673
X214.68Y-118.219
X214.68Y-120.766
X214.68Y-123.313
X214.796Y-108.08
X215.0Y-63.5
X215.0Y-64.5
X215.0Y-65.5
X215.194Y-233.456
X215.216Y-152.18
X215.5Y-212.5
X215.5Y-213.5
X215.5Y-216.5
X215.5Y-217.5
X215.549Y-96.698
X215.573Y-93.239
X215.622Y-130.735
X215.63Y-33.956
X215.78Y-125.404
X215.874Y-206.544
X215.996Y-69.144
X216.0Y-63.5
X216.0Y-64.5
X216.0Y-65.5
X216.269Y-98.319
X216.5Y-212.5
X216.5Y-213.5
X216.5Y-216.5
X216.5Y-217.5
X216.684Y-139.28
X216.796Y-106.76
X216.832Y-103.399
X217.0Y-63.5
X217.034Y-246.044
X217.137Y-149.32
X217.354Y-101.718
X217.569Y-52.381
X217.581Y-127.205
X217.738Y-233.456
X217.758Y-152.18
X217.905Y-137.455
X218.0Y-63.5
X218.043Y-96.688
X218.107Y-93.158
X218.231Y-33.956
X218.378Y-54.621
X218.414Y-206.574
X218.5Y-224.5
X218.5Y-225.5
X218.507Y-69.196
X218.524Y-50.336
X218.755Y-98.481
X219.0Y-63.5
X219.0Y-64.5
X219.157Y-106.261
X219.181Y-103.925
X219.245Y-135.632
X219.382Y-129.005
X219.455Y-100.707
X219.5Y-224.5
X219.5Y-225.5
X219.568Y-245.964
X219.604Y-94.952
X219.683Y-149.32
X219.819Y-55.833
X219.819Y-58.434
X219.819Y-61.035
X220.0Y-63.5
X220.06Y-232.613
X220.3Y-152.18
X220.5Y-217.0
X220.5Y-218.0
X220.5Y-224.5
X220.5Y-225.5
X220.506Y-34.857
X220.555Y-67.822
X220.558Y-209.429
X220.956Y-219.313
X220.956Y-221.857
X220.956Y-227.769
X220.956Y-230.313
X221.0Y-217.5
X221.044Y-37.235
X221.044Y-39.836
X221.044Y-42.437
X221.044Y-45.038
X221.044Y-47.639
X221.044Y-50.24
X221.044Y-71.733
X221.044Y-74.28
X221.044Y-76.826
X221.044Y-79.373
X221.044Y-81.92
X221.044Y-84.466
X221.044Y-87.013
X221.044Y-89.56
X221.044Y-92.107
X221.044Y-97.2
X221.044Y-99.747
X221.044Y-102.293
X221.044Y-104.84
X221.044Y-107.387
X221.044Y-109.933
X221.044Y-112.48
X221.044Y-115.027
X221.044Y-117.574
X221.044Y-120.12
X221.044Y-122.667
X221.044Y-125.214
X221.044Y-127.76
X221.044Y-130.307
X221.044Y-132.854
X221.044Y-135.4
X221.044Y-137.947
X221.044Y-140.494
X221.044Y-143.041
X221.044Y-145.587
X221.044Y-148.134
X221.044Y-153.978
X221.044Y-156.52
X221.044Y-159.061
X221.044Y-161.603
X221.044Y-164.145
X221.044Y-166.687
X221.044Y-169.229
X221.044Y-171.77
X221.044Y-174.312
X221.044Y-176.854
X221.044Y-179.396
X221.044Y-181.938
X221.044Y-184.479
X221.044Y-187.021
X221.044Y-189.563
X221.044Y-192.105
X221.044Y-194.646
X221.044Y-197.188
X221.044Y-199.73
X221.044Y-202.272
X221.044Y-204.814
X221.044Y-207.355
X221.044Y-233.853
X221.044Y-236.397
X221.044Y-238.941
X221.044Y-241.485
X221.044Y-244.029
X221.5Y-217.0
X221.5Y-218.0
X221.5Y-224.5
X221.5Y-225.5
T2
X155.1Y-40.0
X155.1Y-80.0
X155.1Y-120.0
X155.1Y-200.0
X155.1Y-240.0
X155.803Y-38.303
X155.803Y-41.697
X155.803Y-78.303
X155.803Y-81.697
X155.803Y-118.303
X155.803Y-121.697
X155.803Y-198.303
X155.803Y-201.697
X155.803Y-238.303
X155.803Y-241.697
X157.5Y-37.6
X157.5Y-42.4
X157.5Y-77.6
X157.5Y-82.4
X157.5Y-117.6
X157.5Y-122.4
X157.5Y-197.6
X157.5Y-202.4
X157.5Y-237.6
X157.5Y-242.4
X159.197Y-38.303
X159.197Y-41.697
X159.197Y-78.303
X159.197Y-81.697
X159.197Y-118.303
X159.197Y-121.697
X159.197Y-198.303
X159.197Y-201.697
X159.197Y-238.303
X159.197Y-241.697
X159.9Y-40.0
X159.9Y-80.0
X159.9Y-120.0
X159.9Y-200.0
X159.9Y-240.0
X215.1Y-40.0
X215.1Y-80.0
X215.1Y-120.0
X215.1Y-160.0
X215.1Y-200.0
X215.1Y-240.0
X215.803Y-38.303
X215.803Y-41.697
X215.803Y-78.303
X215.803Y-81.697
X215.803Y-118.303
X215.803Y-121.697
X215.803Y-158.303
X215.803Y-161.697
X215.803Y-198.303
X215.803Y-201.697
X215.803Y-238.303
X215.803Y-241.697
X217.5Y-37.6
X217.5Y-42.4
X217.5Y-77.6
X217.5Y-82.4
X217.5Y-117.6
X217.5Y-122.4
X217.5Y-157.6
X217.5Y-162.4
X217.5Y-197.6
X217.5Y-202.4
X217.5Y-237.6
X217.5Y-242.4
X219.197Y-38.303
X219.197Y-41.697
X219.197Y-78.303
X219.197Y-81.697
X219.197Y-118.303
X219.197Y-121.697
X219.197Y-158.303
X219.197Y-161.697
X219.197Y-198.303
X219.197Y-201.697
X219.197Y-238.303
X219.197Y-241.697
X219.9Y-40.0
X219.9Y-80.0
X219.9Y-120.0
X219.9Y-160.0
X219.9Y-200.0
X219.9Y-240.0
T3
X165.125Y-40.0
X166.553Y-36.553
X166.553Y-43.447
X170.0Y-35.125
X170.0Y-44.875
X173.447Y-36.553
X173.447Y-43.447
X174.875Y-40.0
T4
X191.15Y-34.812
X191.15Y-44.972
X191.15Y-74.812
X191.15Y-84.972
X191.15Y-114.812
X191.15Y-124.972
X191.15Y-154.812
X191.15Y-164.972
X191.15Y-194.812
X191.15Y-204.972
X191.15Y-234.812
X191.15Y-244.972
X193.69Y-34.812
X193.69Y-44.972
X193.69Y-74.812
X193.69Y-84.972
X193.69Y-114.812
X193.69Y-124.972
X193.69Y-154.812
X193.69Y-164.972
X193.69Y-194.812
X193.69Y-204.972
X193.69Y-234.812
X193.69Y-244.972
X196.23Y-34.812
X196.23Y-44.972
X196.23Y-74.812
X196.23Y-84.972
X196.23Y-114.812
X196.23Y-124.972
X196.23Y-154.812
X196.23Y-164.972
X196.23Y-194.812
X196.23Y-204.972
X196.23Y-234.812
X196.23Y-244.972
X198.77Y-34.812
X198.77Y-44.972
X198.77Y-74.812
X198.77Y-84.972
X198.77Y-114.812
X198.77Y-124.972
X198.77Y-154.812
X198.77Y-164.972
X198.77Y-194.812
X198.77Y-204.972
X198.77Y-234.812
X198.77Y-244.972
X201.31Y-34.812
X201.31Y-44.972
X201.31Y-74.812
X201.31Y-84.972
X201.31Y-114.812
X201.31Y-124.972
X201.31Y-154.812
X201.31Y-164.972
X201.31Y-194.812
X201.31Y-204.972
X201.31Y-234.812
X201.31Y-244.972
X203.85Y-34.812
X203.85Y-44.972
X203.85Y-74.812
X203.85Y-84.972
X203.85Y-114.812
X203.85Y-124.972
X203.85Y-154.812
X203.85Y-164.972
X203.85Y-194.812
X203.85Y-204.972
X203.85Y-234.812
X203.85Y-244.972
T5
X216.0Y-132.5
X216.0Y-135.0
X216.0Y-137.5
T6
X161.11Y-219.248
X161.11Y-221.787
X163.65Y-219.248
X163.65Y-221.787
X166.19Y-219.248
X166.19Y-221.787
X167.5Y-72.75
X167.5Y-87.25
X167.5Y-112.75
X167.5Y-127.25
X167.5Y-152.75
X167.5Y-167.25
X167.5Y-192.75
X167.5Y-207.25
X167.5Y-232.75
X167.5Y-247.25
X168.73Y-219.248
X168.73Y-221.787
X170.0Y-72.75
X170.0Y-112.75
X170.0Y-152.75
X170.0Y-192.75
X170.0Y-232.75
X171.27Y-219.248
X171.27Y-221.787
X172.5Y-72.75
X172.5Y-87.25
X172.5Y-112.75
X172.5Y-127.25
X172.5Y-152.75
X172.5Y-167.25
X172.5Y-192.75
X172.5Y-207.25
X172.5Y-232.75
X172.5Y-247.25
X173.81Y-219.248
X173.81Y-221.787
X176.35Y-219.248
X176.35Y-221.787
X177.18Y-96.19
X177.18Y-98.73
X177.18Y-101.27
X177.18Y-103.81
X178.89Y-219.248
X178.89Y-221.787
X217.3Y-65.0
X217.3Y-67.5
X217.82Y-94.92
X217.82Y-100.0
X217.82Y-105.08
T7
X154.1Y-137.65
X154.1Y-140.19
X154.1Y-142.73
X154.1Y-145.27
X154.1Y-147.81
X154.1Y-150.35
X154.1Y-152.89
X154.1Y-155.43
X154.1Y-157.97
X154.1Y-160.51
X154.1Y-163.05
X154.1Y-165.59
X154.1Y-168.13
X154.1Y-170.67
X154.1Y-173.21
X154.1Y-175.75
X154.1Y-178.29
X154.1Y-180.83
X154.1Y-183.37
X179.5Y-137.65
X179.5Y-140.19
X179.5Y-142.73
X179.5Y-145.27
X179.5Y-147.81
X179.5Y-150.35
X179.5Y-152.89
X179.5Y-155.43
X179.5Y-157.97
X179.5Y-160.51
X179.5Y-163.05
X179.5Y-165.59
X179.5Y-168.13
X179.5Y-170.67
X179.5Y-173.21
X179.5Y-175.75
X179.5Y-178.29
X179.5Y-180.83
X179.5Y-183.37
T8
X217.5Y-180.0
T9
X164.4Y-80.25
X164.4Y-120.25
X164.4Y-160.25
X164.4Y-200.25
X164.4Y-240.25
X175.6Y-80.25
X175.6Y-120.25
X175.6Y-160.25
X175.6Y-200.25
X175.6Y-240.25
T10
X157.5Y-40.0
X157.5Y-80.0
X157.5Y-120.0
X157.5Y-200.0
X157.5Y-240.0
X217.5Y-40.0
X217.5Y-80.0
X217.5Y-120.0
X217.5Y-160.0
X217.5Y-200.0
X217.5Y-240.0
T11
X170.0Y-40.0
T0
M30
